<svg version="1.1" xmlns="http://www.w3.org/2000/svg" xmlns:xlink="http://www.w3.org/1999/xlink" stroke-linecap="round" stroke-linejoin="round" stroke-width="0" fill-rule="evenodd" clip-rule="evenodd" id="W2o8KMIR4kw-_bottom" viewBox="55880 -121920 91440 66040" width="91.44mm" height="66.04mm"><defs><style>.W2o8KMIR4kw-_fr4 {color: #666666;}
.W2o8KMIR4kw-_cu {color: #cccccc;}
.W2o8KMIR4kw-_cf {color: #cc9933;}
.W2o8KMIR4kw-_sm {color: #ff0000; opacity: 0.75;}
.W2o8KMIR4kw-_ss {color: #ffffff;}
.W2o8KMIR4kw-_sp {color: #999999;}
.W2o8KMIR4kw-_out {color: #000000;}</style><rect x="-1750" y="-1750" width="3500" height="3500" id="d6xNieAh_-GV_pad-10"/><rect x="-1000" y="-1000" width="2000" height="2000" id="d6xNieAh_-GV_pad-11"/><circle cx="0" cy="0" r="1000" id="d6xNieAh_-GV_pad-12"/><rect x="-1000" y="-1600" width="2000" height="3200" id="d6xNieAh_-GV_pad-13"/><rect x="-1750" y="-1750" width="3500" height="3500" id="OAOfbvYliIwx_pad-10"/><rect x="-1000" y="-1000" width="2000" height="2000" id="OAOfbvYliIwx_pad-11"/><circle cx="0" cy="0" r="1000" id="OAOfbvYliIwx_pad-12"/><rect x="-1000" y="-1600" width="2000" height="3200" id="OAOfbvYliIwx_pad-13"/><circle cx="0" cy="0" r="1600" id="OAOfbvYliIwx_pad-14"/><g id="W2o8KMIR4kw-_bottom_copper"><path d="M 70625 -61290 72375 -61290 A 875 875 0 0 0 73250 -62165 L 73250 -63915 A 875 875 0 0 0 72375 -64790 L 70625 -64790 A 875 875 0 0 0 69750 -63915 L 69750 -62165 A 875 875 0 0 0 70625 -61290"/><path d="M 75200 -58540 77200 -58540 A 750 750 0 0 0 77950 -59290 L 77950 -60790 A 750 750 0 0 0 77200 -61540 L 75200 -61540 A 750 750 0 0 0 74450 -60790 L 74450 -59290 A 750 750 0 0 0 75200 -58540"/><use xlink:href="#d6xNieAh_-GV_pad-10" x="76200" y="-66040"/><use xlink:href="#d6xNieAh_-GV_pad-11" x="123190" y="-100450"/><use xlink:href="#d6xNieAh_-GV_pad-12" x="120690" y="-100450"/><use xlink:href="#d6xNieAh_-GV_pad-12" x="118190" y="-100450"/><use xlink:href="#d6xNieAh_-GV_pad-13" x="126290" y="-107950"/><use xlink:href="#d6xNieAh_-GV_pad-13" x="115090" y="-107950"/><use xlink:href="#d6xNieAh_-GV_pad-12" x="123190" y="-114950"/><use xlink:href="#d6xNieAh_-GV_pad-12" x="118190" y="-114950"/><path d="M 140704.47 -56614.617 141687.898 -56831.739 142629.675 -57188.546 143510.095 -57677.575 144310.687 -58288.569 145014.694 -59008.732 145607.37 -59822.987 146076.296 -60714.269 146411.647 -61663.9 146607.127 -62655.692 146660 -63520.164 146660.001 -114276.08 146585.382 -115304.47 146368.262 -116287.896 146011.454 -117229.675 145522.424 -118110.095 144911.435 -118910.684 144191.268 -119614.694 143377.013 -120207.37 142485.731 -120676.296 141536.099 -121011.647 140544.309 -121207.127 139679.835 -121260 63523.906 -121260 62495.53 -121185.382 61512.104 -120968.262 60570.325 -120611.454 59689.905 -120122.424 58889.316 -119511.435 58185.306 -118791.268 57592.63 -117977.013 57123.704 -117085.731 56788.353 -116136.099 56592.873 -115144.309 56540 -114279.835 56540 -114079.872 61265 -114079.872 61265 -114520.128 61350.89 -114951.925 61519.369 -115358.669 61763.962 -115724.729 62075.271 -116036.038 62441.331 -116280.631 62848.075 -116449.11 63279.872 -116535 63720.128 -116535 64151.925 -116449.11 64558.669 -116280.631 64924.729 -116036.038 65236.038 -115724.729 65480.631 -115358.669 65649.11 -114951.925 65681.524 -114788.967 116555 -114788.967 116555 -115111.033 116617.832 -115426.912 116741.082 -115724.463 116920.013 -115992.252 117147.748 -116219.987 117415.537 -116398.918 117713.088 -116522.168 118028.967 -116585 118351.033 -116585 118666.912 -116522.168 118964.463 -116398.918 119232.252 -116219.987 119459.987 -115992.252 119638.918 -115724.463 119762.168 -115426.912 119825 -115111.033 119825 -114788.967 121555 -114788.967 121555 -115111.033 121617.832 -115426.912 121741.082 -115724.463 121920.013 -115992.252 122147.748 -116219.987 122415.537 -116398.918 122713.088 -116522.168 123028.967 -116585 123351.033 -116585 123666.912 -116522.168 123964.463 -116398.918 124232.252 -116219.987 124459.987 -115992.252 124638.918 -115724.463 124762.168 -115426.912 124825 -115111.033 124825 -114788.967 124762.168 -114473.088 124638.918 -114175.537 124574.997 -114079.872 137465 -114079.872 137465 -114520.128 137550.89 -114951.925 137719.369 -115358.669 137963.962 -115724.729 138275.271 -116036.038 138641.331 -116280.631 139048.075 -116449.11 139479.872 -116535 139920.128 -116535 140351.925 -116449.11 140758.669 -116280.631 141124.729 -116036.038 141436.038 -115724.729 141680.631 -115358.669 141849.11 -114951.925 141935 -114520.128 141935 -114079.872 141849.11 -113648.075 141680.631 -113241.331 141436.038 -112875.271 141124.729 -112563.962 140758.669 -112319.369 140351.925 -112150.89 139920.128 -112065 139479.872 -112065 139048.075 -112150.89 138641.331 -112319.369 138275.271 -112563.962 137963.962 -112875.271 137719.369 -113241.331 137550.89 -113648.075 137465 -114079.872 124574.997 -114079.872 124459.987 -113907.748 124232.252 -113680.013 123964.463 -113501.082 123666.912 -113377.832 123351.033 -113315 123028.967 -113315 122713.088 -113377.832 122415.537 -113501.082 122147.748 -113680.013 121920.013 -113907.748 121741.082 -114175.537 121617.832 -114473.088 121555 -114788.967 119825 -114788.967 119762.168 -114473.088 119638.918 -114175.537 119459.987 -113907.748 119232.252 -113680.013 118964.463 -113501.082 118666.912 -113377.832 118351.033 -113315 118028.967 -113315 117713.088 -113377.832 117415.537 -113501.082 117147.748 -113680.013 116920.013 -113907.748 116741.082 -114175.537 116617.832 -114473.088 116555 -114788.967 65681.524 -114788.967 65735 -114520.128 65735 -114079.872 65649.11 -113648.075 65480.631 -113241.331 65236.038 -112875.271 64924.729 -112563.962 64558.669 -112319.369 64151.925 -112150.89 63720.128 -112065 63279.872 -112065 62848.075 -112150.89 62441.331 -112319.369 62075.271 -112563.962 61763.962 -112875.271 61519.369 -113241.331 61350.89 -113648.075 61265 -114079.872 56540 -114079.872 56540 -106350 113451.928 -106350 113451.928 -109550 113464.188 -109674.482 113500.498 -109794.18 113559.463 -109904.494 113638.815 -110001.185 113735.506 -110080.537 113845.82 -110139.502 113965.518 -110175.812 114090 -110188.072 116090 -110188.072 116214.482 -110175.812 116334.18 -110139.502 116444.494 -110080.537 116541.185 -110001.185 116620.537 -109904.494 116679.502 -109794.18 116715.812 -109674.482 116728.072 -109550 116728.072 -106350 124651.928 -106350 124651.928 -109550 124664.188 -109674.482 124700.498 -109794.18 124759.463 -109904.494 124838.815 -110001.185 124935.506 -110080.537 125045.82 -110139.502 125165.518 -110175.812 125290 -110188.072 127290 -110188.072 127414.482 -110175.812 127534.18 -110139.502 127644.494 -110080.537 127741.185 -110001.185 127820.537 -109904.494 127879.502 -109794.18 127915.812 -109674.482 127928.072 -109550 127928.072 -106350 127915.812 -106225.518 127879.502 -106105.82 127820.537 -105995.506 127741.185 -105898.815 127644.494 -105819.463 127534.18 -105760.498 127414.482 -105724.188 127290 -105711.928 125290 -105711.928 125165.518 -105724.188 125045.82 -105760.498 124935.506 -105819.463 124838.815 -105898.815 124759.463 -105995.506 124700.498 -106105.82 124664.188 -106225.518 124651.928 -106350 116728.072 -106350 116715.812 -106225.518 116679.502 -106105.82 116620.537 -105995.506 116541.185 -105898.815 116444.494 -105819.463 116334.18 -105760.498 116214.482 -105724.188 116090 -105711.928 114090 -105711.928 113965.518 -105724.188 113845.82 -105760.498 113735.506 -105819.463 113638.815 -105898.815 113559.463 -105995.506 113500.498 -106105.82 113464.188 -106225.518 113451.928 -106350 56540 -106350 56540 -100288.967 116555 -100288.967 116555 -100611.033 116617.832 -100926.912 116741.082 -101224.463 116920.013 -101492.252 117147.748 -101719.987 117415.537 -101898.918 117713.088 -102022.168 118028.967 -102085 118351.033 -102085 118666.912 -102022.168 118964.463 -101898.918 119232.252 -101719.987 119440 -101512.239 119647.748 -101719.987 119915.537 -101898.918 120213.088 -102022.168 120528.967 -102085 120851.033 -102085 121166.912 -102022.168 121464.463 -101898.918 121645.335 -101778.063 121659.463 -101804.494 121738.815 -101901.185 121835.506 -101980.537 121945.82 -102039.502 122065.518 -102075.812 122190 -102088.072 124190 -102088.072 124314.482 -102075.812 124434.18 -102039.502 124544.494 -101980.537 124641.185 -101901.185 124720.537 -101804.494 124779.502 -101694.18 124815.812 -101574.482 124828.072 -101450 124828.072 -99450 124815.812 -99325.518 124779.502 -99205.82 124720.537 -99095.506 124641.185 -98998.815 124544.494 -98919.463 124434.18 -98860.498 124314.482 -98824.188 124190 -98811.928 122190 -98811.928 122065.518 -98824.188 121945.82 -98860.498 121835.506 -98919.463 121738.815 -98998.815 121659.463 -99095.506 121645.335 -99121.937 121464.463 -99001.082 121166.912 -98877.832 120851.033 -98815 120528.967 -98815 120213.088 -98877.832 119915.537 -99001.082 119647.748 -99180.013 119440 -99387.761 119232.252 -99180.013 118964.463 -99001.082 118666.912 -98877.832 118351.033 -98815 118028.967 -98815 117713.088 -98877.832 117415.537 -99001.082 117147.748 -99180.013 116920.013 -99407.748 116741.082 -99675.537 116617.832 -99973.088 116555 -100288.967 56540 -100288.967 56540 -63523.92 56557.707 -63279.872 61265 -63279.872 61265 -63720.128 61350.89 -64151.925 61519.369 -64558.669 61763.962 -64924.729 62075.271 -65236.038 62441.331 -65480.631 62848.075 -65649.11 63279.872 -65735 63720.128 -65735 64151.925 -65649.11 64558.669 -65480.631 64924.729 -65236.038 65236.038 -64924.729 65480.631 -64558.669 65649.11 -64151.925 65735 -63720.128 65735 -63279.872 65649.11 -62848.075 65480.631 -62441.331 65295.993 -62165 69111.928 -62165 69111.928 -63915 69141.001 -64210.186 69227.104 -64494.028 69366.927 -64755.618 69555.097 -64984.903 69784.382 -65173.073 70045.972 -65312.896 70329.814 -65398.999 70625 -65428.072 72375 -65428.072 72670.186 -65398.999 72954.028 -65312.896 73215.618 -65173.073 73444.903 -64984.903 73633.073 -64755.618 73772.896 -64494.028 73811.928 -64365.357 73811.928 -67790 73824.188 -67914.482 73860.498 -68034.18 73919.463 -68144.494 73998.815 -68241.185 74095.506 -68320.537 74205.82 -68379.502 74325.518 -68415.812 74450 -68428.072 77950 -68428.072 78074.482 -68415.812 78194.18 -68379.502 78304.494 -68320.537 78401.185 -68241.185 78480.537 -68144.494 78539.502 -68034.18 78575.812 -67914.482 78588.072 -67790 78588.072 -64290 78575.812 -64165.518 78539.502 -64045.82 78480.537 -63935.506 78401.185 -63838.815 78304.494 -63759.463 78194.18 -63700.498 78074.482 -63664.188 77950 -63651.928 74450 -63651.928 74325.518 -63664.188 74205.82 -63700.498 74095.506 -63759.463 73998.815 -63838.815 73919.463 -63935.506 73878.506 -64012.131 73888.072 -63915 73888.072 -63279.872 137465 -63279.872 137465 -63720.128 137550.89 -64151.925 137719.369 -64558.669 137963.962 -64924.729 138275.271 -65236.038 138641.331 -65480.631 139048.075 -65649.11 139479.872 -65735 139920.128 -65735 140351.925 -65649.11 140758.669 -65480.631 141124.729 -65236.038 141436.038 -64924.729 141680.631 -64558.669 141849.11 -64151.925 141935 -63720.128 141935 -63279.872 141849.11 -62848.075 141680.631 -62441.331 141436.038 -62075.271 141124.729 -61763.962 140758.669 -61519.369 140351.925 -61350.89 139920.128 -61265 139479.872 -61265 139048.075 -61350.89 138641.331 -61519.369 138275.271 -61763.962 137963.962 -62075.271 137719.369 -62441.331 137550.89 -62848.075 137465 -63279.872 73888.072 -63279.872 73888.072 -62165 73858.999 -61869.814 73772.896 -61585.972 73748.324 -61540 73811.928 -61540 73824.188 -61664.482 73860.498 -61784.18 73919.463 -61894.494 73998.815 -61991.185 74095.506 -62070.537 74205.82 -62129.502 74325.518 -62165.812 74450 -62178.072 75914.25 -62175 76073 -62016.25 76073 -60167 76327 -60167 76327 -62016.25 76485.75 -62175 77950 -62178.072 78074.482 -62165.812 78194.18 -62129.502 78304.494 -62070.537 78401.185 -61991.185 78480.537 -61894.494 78539.502 -61784.18 78575.812 -61664.482 78588.072 -61540 78585 -60325.75 78426.25 -60167 76327 -60167 76073 -60167 73973.75 -60167 73815 -60325.75 73811.928 -61540 73748.324 -61540 73633.073 -61324.382 73444.903 -61095.097 73215.618 -60906.927 72954.028 -60767.104 72670.186 -60681.001 72375 -60651.928 70625 -60651.928 70329.814 -60681.001 70045.972 -60767.104 69784.382 -60906.927 69555.097 -61095.097 69366.927 -61324.382 69227.104 -61585.972 69141.001 -61869.814 69111.928 -62165 65295.993 -62165 65236.038 -62075.271 64924.729 -61763.962 64558.669 -61519.369 64151.925 -61350.89 63720.128 -61265 63279.872 -61265 62848.075 -61350.89 62441.331 -61519.369 62075.271 -61763.962 61763.962 -62075.271 61519.369 -62441.331 61350.89 -62848.075 61265 -63279.872 56557.707 -63279.872 56614.617 -62495.53 56831.739 -61512.102 57188.546 -60570.325 57677.575 -59689.905 58288.569 -58889.313 58645.898 -58540 73811.928 -58540 73815 -59754.25 73973.75 -59913 76073 -59913 76073 -58063.75 76327 -58063.75 76327 -59913 78426.25 -59913 78585 -59754.25 78588.072 -58540 78575.812 -58415.518 78539.502 -58295.82 78480.537 -58185.506 78401.185 -58088.815 78304.494 -58009.463 78194.18 -57950.498 78074.482 -57914.188 77950 -57901.928 76485.75 -57905 76327 -58063.75 76073 -58063.75 75914.25 -57905 74450 -57901.928 74325.518 -57914.188 74205.82 -57950.498 74095.506 -58009.463 73998.815 -58088.815 73919.463 -58185.506 73860.498 -58295.82 73824.188 -58415.518 73811.928 -58540 58645.898 -58540 59008.732 -58185.306 59822.987 -57592.63 60714.269 -57123.704 61663.9 -56788.353 62655.692 -56592.873 63520.164 -56540 139676.08 -56540 140704.47 -56614.617" fill="none" stroke-width="254"/><path d="M 140704.47 -56614.617 141687.898 -56831.739 142629.675 -57188.546 143510.095 -57677.575 144310.687 -58288.569 145014.694 -59008.732 145607.37 -59822.987 146076.296 -60714.269 146411.647 -61663.9 146607.127 -62655.692 146660 -63520.164 146660.001 -114276.08 146585.382 -115304.47 146368.262 -116287.896 146011.454 -117229.675 145522.424 -118110.095 144911.435 -118910.684 144191.268 -119614.694 143377.013 -120207.37 142485.731 -120676.296 141536.099 -121011.647 140544.309 -121207.127 139679.835 -121260 63523.906 -121260 62495.53 -121185.382 61512.104 -120968.262 60570.325 -120611.454 59689.905 -120122.424 58889.316 -119511.435 58185.306 -118791.268 57592.63 -117977.013 57123.704 -117085.731 56788.353 -116136.099 56592.873 -115144.309 56540 -114279.835 56540 -114079.872 61265 -114079.872 61265 -114520.128 61350.89 -114951.925 61519.369 -115358.669 61763.962 -115724.729 62075.271 -116036.038 62441.331 -116280.631 62848.075 -116449.11 63279.872 -116535 63720.128 -116535 64151.925 -116449.11 64558.669 -116280.631 64924.729 -116036.038 65236.038 -115724.729 65480.631 -115358.669 65649.11 -114951.925 65681.524 -114788.967 116555 -114788.967 116555 -115111.033 116617.832 -115426.912 116741.082 -115724.463 116920.013 -115992.252 117147.748 -116219.987 117415.537 -116398.918 117713.088 -116522.168 118028.967 -116585 118351.033 -116585 118666.912 -116522.168 118964.463 -116398.918 119232.252 -116219.987 119459.987 -115992.252 119638.918 -115724.463 119762.168 -115426.912 119825 -115111.033 119825 -114788.967 121555 -114788.967 121555 -115111.033 121617.832 -115426.912 121741.082 -115724.463 121920.013 -115992.252 122147.748 -116219.987 122415.537 -116398.918 122713.088 -116522.168 123028.967 -116585 123351.033 -116585 123666.912 -116522.168 123964.463 -116398.918 124232.252 -116219.987 124459.987 -115992.252 124638.918 -115724.463 124762.168 -115426.912 124825 -115111.033 124825 -114788.967 124762.168 -114473.088 124638.918 -114175.537 124574.997 -114079.872 137465 -114079.872 137465 -114520.128 137550.89 -114951.925 137719.369 -115358.669 137963.962 -115724.729 138275.271 -116036.038 138641.331 -116280.631 139048.075 -116449.11 139479.872 -116535 139920.128 -116535 140351.925 -116449.11 140758.669 -116280.631 141124.729 -116036.038 141436.038 -115724.729 141680.631 -115358.669 141849.11 -114951.925 141935 -114520.128 141935 -114079.872 141849.11 -113648.075 141680.631 -113241.331 141436.038 -112875.271 141124.729 -112563.962 140758.669 -112319.369 140351.925 -112150.89 139920.128 -112065 139479.872 -112065 139048.075 -112150.89 138641.331 -112319.369 138275.271 -112563.962 137963.962 -112875.271 137719.369 -113241.331 137550.89 -113648.075 137465 -114079.872 124574.997 -114079.872 124459.987 -113907.748 124232.252 -113680.013 123964.463 -113501.082 123666.912 -113377.832 123351.033 -113315 123028.967 -113315 122713.088 -113377.832 122415.537 -113501.082 122147.748 -113680.013 121920.013 -113907.748 121741.082 -114175.537 121617.832 -114473.088 121555 -114788.967 119825 -114788.967 119762.168 -114473.088 119638.918 -114175.537 119459.987 -113907.748 119232.252 -113680.013 118964.463 -113501.082 118666.912 -113377.832 118351.033 -113315 118028.967 -113315 117713.088 -113377.832 117415.537 -113501.082 117147.748 -113680.013 116920.013 -113907.748 116741.082 -114175.537 116617.832 -114473.088 116555 -114788.967 65681.524 -114788.967 65735 -114520.128 65735 -114079.872 65649.11 -113648.075 65480.631 -113241.331 65236.038 -112875.271 64924.729 -112563.962 64558.669 -112319.369 64151.925 -112150.89 63720.128 -112065 63279.872 -112065 62848.075 -112150.89 62441.331 -112319.369 62075.271 -112563.962 61763.962 -112875.271 61519.369 -113241.331 61350.89 -113648.075 61265 -114079.872 56540 -114079.872 56540 -106350 113451.928 -106350 113451.928 -109550 113464.188 -109674.482 113500.498 -109794.18 113559.463 -109904.494 113638.815 -110001.185 113735.506 -110080.537 113845.82 -110139.502 113965.518 -110175.812 114090 -110188.072 116090 -110188.072 116214.482 -110175.812 116334.18 -110139.502 116444.494 -110080.537 116541.185 -110001.185 116620.537 -109904.494 116679.502 -109794.18 116715.812 -109674.482 116728.072 -109550 116728.072 -106350 124651.928 -106350 124651.928 -109550 124664.188 -109674.482 124700.498 -109794.18 124759.463 -109904.494 124838.815 -110001.185 124935.506 -110080.537 125045.82 -110139.502 125165.518 -110175.812 125290 -110188.072 127290 -110188.072 127414.482 -110175.812 127534.18 -110139.502 127644.494 -110080.537 127741.185 -110001.185 127820.537 -109904.494 127879.502 -109794.18 127915.812 -109674.482 127928.072 -109550 127928.072 -106350 127915.812 -106225.518 127879.502 -106105.82 127820.537 -105995.506 127741.185 -105898.815 127644.494 -105819.463 127534.18 -105760.498 127414.482 -105724.188 127290 -105711.928 125290 -105711.928 125165.518 -105724.188 125045.82 -105760.498 124935.506 -105819.463 124838.815 -105898.815 124759.463 -105995.506 124700.498 -106105.82 124664.188 -106225.518 124651.928 -106350 116728.072 -106350 116715.812 -106225.518 116679.502 -106105.82 116620.537 -105995.506 116541.185 -105898.815 116444.494 -105819.463 116334.18 -105760.498 116214.482 -105724.188 116090 -105711.928 114090 -105711.928 113965.518 -105724.188 113845.82 -105760.498 113735.506 -105819.463 113638.815 -105898.815 113559.463 -105995.506 113500.498 -106105.82 113464.188 -106225.518 113451.928 -106350 56540 -106350 56540 -100288.967 116555 -100288.967 116555 -100611.033 116617.832 -100926.912 116741.082 -101224.463 116920.013 -101492.252 117147.748 -101719.987 117415.537 -101898.918 117713.088 -102022.168 118028.967 -102085 118351.033 -102085 118666.912 -102022.168 118964.463 -101898.918 119232.252 -101719.987 119440 -101512.239 119647.748 -101719.987 119915.537 -101898.918 120213.088 -102022.168 120528.967 -102085 120851.033 -102085 121166.912 -102022.168 121464.463 -101898.918 121645.335 -101778.063 121659.463 -101804.494 121738.815 -101901.185 121835.506 -101980.537 121945.82 -102039.502 122065.518 -102075.812 122190 -102088.072 124190 -102088.072 124314.482 -102075.812 124434.18 -102039.502 124544.494 -101980.537 124641.185 -101901.185 124720.537 -101804.494 124779.502 -101694.18 124815.812 -101574.482 124828.072 -101450 124828.072 -99450 124815.812 -99325.518 124779.502 -99205.82 124720.537 -99095.506 124641.185 -98998.815 124544.494 -98919.463 124434.18 -98860.498 124314.482 -98824.188 124190 -98811.928 122190 -98811.928 122065.518 -98824.188 121945.82 -98860.498 121835.506 -98919.463 121738.815 -98998.815 121659.463 -99095.506 121645.335 -99121.937 121464.463 -99001.082 121166.912 -98877.832 120851.033 -98815 120528.967 -98815 120213.088 -98877.832 119915.537 -99001.082 119647.748 -99180.013 119440 -99387.761 119232.252 -99180.013 118964.463 -99001.082 118666.912 -98877.832 118351.033 -98815 118028.967 -98815 117713.088 -98877.832 117415.537 -99001.082 117147.748 -99180.013 116920.013 -99407.748 116741.082 -99675.537 116617.832 -99973.088 116555 -100288.967 56540 -100288.967 56540 -63523.92 56557.707 -63279.872 61265 -63279.872 61265 -63720.128 61350.89 -64151.925 61519.369 -64558.669 61763.962 -64924.729 62075.271 -65236.038 62441.331 -65480.631 62848.075 -65649.11 63279.872 -65735 63720.128 -65735 64151.925 -65649.11 64558.669 -65480.631 64924.729 -65236.038 65236.038 -64924.729 65480.631 -64558.669 65649.11 -64151.925 65735 -63720.128 65735 -63279.872 65649.11 -62848.075 65480.631 -62441.331 65295.993 -62165 69111.928 -62165 69111.928 -63915 69141.001 -64210.186 69227.104 -64494.028 69366.927 -64755.618 69555.097 -64984.903 69784.382 -65173.073 70045.972 -65312.896 70329.814 -65398.999 70625 -65428.072 72375 -65428.072 72670.186 -65398.999 72954.028 -65312.896 73215.618 -65173.073 73444.903 -64984.903 73633.073 -64755.618 73772.896 -64494.028 73811.928 -64365.357 73811.928 -67790 73824.188 -67914.482 73860.498 -68034.18 73919.463 -68144.494 73998.815 -68241.185 74095.506 -68320.537 74205.82 -68379.502 74325.518 -68415.812 74450 -68428.072 77950 -68428.072 78074.482 -68415.812 78194.18 -68379.502 78304.494 -68320.537 78401.185 -68241.185 78480.537 -68144.494 78539.502 -68034.18 78575.812 -67914.482 78588.072 -67790 78588.072 -64290 78575.812 -64165.518 78539.502 -64045.82 78480.537 -63935.506 78401.185 -63838.815 78304.494 -63759.463 78194.18 -63700.498 78074.482 -63664.188 77950 -63651.928 74450 -63651.928 74325.518 -63664.188 74205.82 -63700.498 74095.506 -63759.463 73998.815 -63838.815 73919.463 -63935.506 73878.506 -64012.131 73888.072 -63915 73888.072 -63279.872 137465 -63279.872 137465 -63720.128 137550.89 -64151.925 137719.369 -64558.669 137963.962 -64924.729 138275.271 -65236.038 138641.331 -65480.631 139048.075 -65649.11 139479.872 -65735 139920.128 -65735 140351.925 -65649.11 140758.669 -65480.631 141124.729 -65236.038 141436.038 -64924.729 141680.631 -64558.669 141849.11 -64151.925 141935 -63720.128 141935 -63279.872 141849.11 -62848.075 141680.631 -62441.331 141436.038 -62075.271 141124.729 -61763.962 140758.669 -61519.369 140351.925 -61350.89 139920.128 -61265 139479.872 -61265 139048.075 -61350.89 138641.331 -61519.369 138275.271 -61763.962 137963.962 -62075.271 137719.369 -62441.331 137550.89 -62848.075 137465 -63279.872 73888.072 -63279.872 73888.072 -62165 73858.999 -61869.814 73772.896 -61585.972 73748.324 -61540 73811.928 -61540 73824.188 -61664.482 73860.498 -61784.18 73919.463 -61894.494 73998.815 -61991.185 74095.506 -62070.537 74205.82 -62129.502 74325.518 -62165.812 74450 -62178.072 75914.25 -62175 76073 -62016.25 76073 -60167 76327 -60167 76327 -62016.25 76485.75 -62175 77950 -62178.072 78074.482 -62165.812 78194.18 -62129.502 78304.494 -62070.537 78401.185 -61991.185 78480.537 -61894.494 78539.502 -61784.18 78575.812 -61664.482 78588.072 -61540 78585 -60325.75 78426.25 -60167 76327 -60167 76073 -60167 73973.75 -60167 73815 -60325.75 73811.928 -61540 73748.324 -61540 73633.073 -61324.382 73444.903 -61095.097 73215.618 -60906.927 72954.028 -60767.104 72670.186 -60681.001 72375 -60651.928 70625 -60651.928 70329.814 -60681.001 70045.972 -60767.104 69784.382 -60906.927 69555.097 -61095.097 69366.927 -61324.382 69227.104 -61585.972 69141.001 -61869.814 69111.928 -62165 65295.993 -62165 65236.038 -62075.271 64924.729 -61763.962 64558.669 -61519.369 64151.925 -61350.89 63720.128 -61265 63279.872 -61265 62848.075 -61350.89 62441.331 -61519.369 62075.271 -61763.962 61763.962 -62075.271 61519.369 -62441.331 61350.89 -62848.075 61265 -63279.872 56557.707 -63279.872 56614.617 -62495.53 56831.739 -61512.102 57188.546 -60570.325 57677.575 -59689.905 58288.569 -58889.313 58645.898 -58540 73811.928 -58540 73815 -59754.25 73973.75 -59913 76073 -59913 76073 -58063.75 76327 -58063.75 76327 -59913 78426.25 -59913 78585 -59754.25 78588.072 -58540 78575.812 -58415.518 78539.502 -58295.82 78480.537 -58185.506 78401.185 -58088.815 78304.494 -58009.463 78194.18 -57950.498 78074.482 -57914.188 77950 -57901.928 76485.75 -57905 76327 -58063.75 76073 -58063.75 75914.25 -57905 74450 -57901.928 74325.518 -57914.188 74205.82 -57950.498 74095.506 -58009.463 73998.815 -58088.815 73919.463 -58185.506 73860.498 -58295.82 73824.188 -58415.518 73811.928 -58540 58645.898 -58540 59008.732 -58185.306 59822.987 -57592.63 60714.269 -57123.704 61663.9 -56788.353 62655.692 -56592.873 63520.164 -56540 139676.08 -56540 140704.47 -56614.617"/></g><g id="W2o8KMIR4kw-_bottom_soldermask"><path d="M 70625 -61290 72375 -61290 A 875 875 0 0 0 73250 -62165 L 73250 -63915 A 875 875 0 0 0 72375 -64790 L 70625 -64790 A 875 875 0 0 0 69750 -63915 L 69750 -62165 A 875 875 0 0 0 70625 -61290"/><path d="M 75200 -58540 77200 -58540 A 750 750 0 0 0 77950 -59290 L 77950 -60790 A 750 750 0 0 0 77200 -61540 L 75200 -61540 A 750 750 0 0 0 74450 -60790 L 74450 -59290 A 750 750 0 0 0 75200 -58540"/><use xlink:href="#OAOfbvYliIwx_pad-10" x="76200" y="-66040"/><use xlink:href="#OAOfbvYliIwx_pad-11" x="123190" y="-100450"/><use xlink:href="#OAOfbvYliIwx_pad-12" x="120690" y="-100450"/><use xlink:href="#OAOfbvYliIwx_pad-12" x="118190" y="-100450"/><use xlink:href="#OAOfbvYliIwx_pad-13" x="126290" y="-107950"/><use xlink:href="#OAOfbvYliIwx_pad-13" x="115090" y="-107950"/><use xlink:href="#OAOfbvYliIwx_pad-12" x="123190" y="-114950"/><use xlink:href="#OAOfbvYliIwx_pad-12" x="118190" y="-114950"/><use xlink:href="#OAOfbvYliIwx_pad-14" x="63500" y="-114300"/><use xlink:href="#OAOfbvYliIwx_pad-14" x="139700" y="-114300"/><use xlink:href="#OAOfbvYliIwx_pad-14" x="63500" y="-63500"/><use xlink:href="#OAOfbvYliIwx_pad-14" x="139700" y="-63500"/></g><clipPath id="W2o8KMIR4kw-_bottom_outline"><path d="M 63500 -121920 139700 -121920 A 7620 7620 0 0 1 147320 -114300 L 147320 -63500 A 7620 7620 0 0 1 139700 -55880 L 63500 -55880 A 7620 7620 0 0 1 55880 -63500 L 55880 -114300 A 7620 7620 0 0 1 63500 -121920" fill="none" stroke-width="50"/></clipPath><mask id="W2o8KMIR4kw-_bottom_mech-mask"><g fill="#000" stroke="#000"><rect x="55880" y="-121920" width="91440" height="66040" fill="#fff"/></g></mask><mask id="W2o8KMIR4kw-_bottom_cf-mask"><g fill="#fff" stroke="#fff"><use xlink:href="#W2o8KMIR4kw-_bottom_soldermask"/></g></mask><mask id="W2o8KMIR4kw-_bottom_sm-mask"><g fill="#000" stroke="#000"><rect x="55880" y="-121920" width="91440" height="66040" fill="#fff"/><use xlink:href="#W2o8KMIR4kw-_bottom_soldermask"/></g></mask></defs><g transform="translate(0,-177800) scale(1,-1)"><g mask="url(#W2o8KMIR4kw-_bottom_mech-mask)" clip-path="url(#W2o8KMIR4kw-_bottom_outline)" transform="translate(203200,0) scale(-1,1)"><rect x="55880" y="-121920" width="91440" height="66040" fill="currentColor" class="W2o8KMIR4kw-_fr4"/><use xlink:href="#W2o8KMIR4kw-_bottom_copper" fill="currentColor" stroke="currentColor" class="W2o8KMIR4kw-_cu"/><use xlink:href="#W2o8KMIR4kw-_bottom_copper" fill="currentColor" stroke="currentColor" class="W2o8KMIR4kw-_cf" mask="url(#W2o8KMIR4kw-_bottom_cf-mask)"/><g mask="url(#W2o8KMIR4kw-_bottom_sm-mask)"><rect x="55880" y="-121920" width="91440" height="66040" fill="currentColor" class="W2o8KMIR4kw-_sm"/></g></g></g></svg>