<svg version="1.1" xmlns="http://www.w3.org/2000/svg" xmlns:xlink="http://www.w3.org/1999/xlink" stroke-linecap="round" stroke-linejoin="round" stroke-width="0" fill-rule="evenodd" clip-rule="evenodd" id="UKnoLhQQDk5p_bottom" viewBox="55880 -121920 91440 66040" width="91.44mm" height="66.04mm"><defs><style>.UKnoLhQQDk5p_fr4 {color: #666666;}
.UKnoLhQQDk5p_cu {color: #cccccc;}
.UKnoLhQQDk5p_cf {color: #cc9933;}
.UKnoLhQQDk5p_sm {color: #ff0000; opacity: 0.75;}
.UKnoLhQQDk5p_ss {color: #ffffff;}
.UKnoLhQQDk5p_sp {color: #999999;}
.UKnoLhQQDk5p_out {color: #000000;}</style><rect x="-800" y="-800" width="1600" height="1600" rx="800" ry="800" id="Q7xeu0jv43Ip_pad-10"/><rect x="-800" y="-800" width="1600" height="1600" id="Q7xeu0jv43Ip_pad-11"/><circle cx="0" cy="0" r="750" id="Q7xeu0jv43Ip_pad-12"/><rect x="-850" y="-850" width="1700" height="1700" rx="850" ry="850" id="Q7xeu0jv43Ip_pad-13"/><rect x="-850" y="-850" width="1700" height="1700" id="Q7xeu0jv43Ip_pad-14"/><rect x="-1750" y="-1750" width="3500" height="3500" id="Q7xeu0jv43Ip_pad-15"/><rect x="-1000" y="-1000" width="2000" height="2000" id="Q7xeu0jv43Ip_pad-16"/><circle cx="0" cy="0" r="1000" id="Q7xeu0jv43Ip_pad-17"/><rect x="-1000" y="-1600" width="2000" height="3200" id="Q7xeu0jv43Ip_pad-18"/><circle cx="0" cy="0" r="400" id="Q7xeu0jv43Ip_pad-19"/><circle cx="0" cy="0" r="317.5" id="Q7xeu0jv43Ip_pad-20"/><rect x="-800" y="-800" width="1600" height="1600" rx="800" ry="800" id="YjiK3IssMv4V_pad-10"/><rect x="-800" y="-800" width="1600" height="1600" id="YjiK3IssMv4V_pad-11"/><circle cx="0" cy="0" r="750" id="YjiK3IssMv4V_pad-12"/><rect x="-850" y="-850" width="1700" height="1700" rx="850" ry="850" id="YjiK3IssMv4V_pad-13"/><rect x="-850" y="-850" width="1700" height="1700" id="YjiK3IssMv4V_pad-14"/><rect x="-1750" y="-1750" width="3500" height="3500" id="YjiK3IssMv4V_pad-15"/><rect x="-1000" y="-1000" width="2000" height="2000" id="YjiK3IssMv4V_pad-16"/><circle cx="0" cy="0" r="1000" id="YjiK3IssMv4V_pad-17"/><rect x="-1000" y="-1600" width="2000" height="3200" id="YjiK3IssMv4V_pad-18"/><circle cx="0" cy="0" r="1600" id="YjiK3IssMv4V_pad-19"/><circle cx="0" cy="0" r="63" id="lgVeqtgtzq5p_pad-1"/><circle cx="0" cy="0" r="7.85" id="mJw17HJzOdIq_pad-1"/><circle cx="0" cy="0" r="15.75" id="mJw17HJzOdIq_pad-2"/><circle cx="0" cy="0" r="19.7" id="mJw17HJzOdIq_pad-3"/><g id="UKnoLhQQDk5p_bottom_copper"><use xlink:href="#Q7xeu0jv43Ip_pad-10" x="116840" y="-93980"/><use xlink:href="#Q7xeu0jv43Ip_pad-10" x="83820" y="-86360"/><use xlink:href="#Q7xeu0jv43Ip_pad-10" x="114300" y="-93980"/><use xlink:href="#Q7xeu0jv43Ip_pad-10" x="86360" y="-86360"/><use xlink:href="#Q7xeu0jv43Ip_pad-10" x="111760" y="-93980"/><use xlink:href="#Q7xeu0jv43Ip_pad-10" x="88900" y="-86360"/><use xlink:href="#Q7xeu0jv43Ip_pad-10" x="109220" y="-93980"/><use xlink:href="#Q7xeu0jv43Ip_pad-10" x="91440" y="-86360"/><use xlink:href="#Q7xeu0jv43Ip_pad-10" x="106680" y="-93980"/><use xlink:href="#Q7xeu0jv43Ip_pad-10" x="93980" y="-86360"/><use xlink:href="#Q7xeu0jv43Ip_pad-10" x="104140" y="-93980"/><use xlink:href="#Q7xeu0jv43Ip_pad-10" x="96520" y="-86360"/><use xlink:href="#Q7xeu0jv43Ip_pad-10" x="101600" y="-93980"/><use xlink:href="#Q7xeu0jv43Ip_pad-10" x="99060" y="-86360"/><use xlink:href="#Q7xeu0jv43Ip_pad-10" x="99060" y="-93980"/><use xlink:href="#Q7xeu0jv43Ip_pad-10" x="101600" y="-86360"/><use xlink:href="#Q7xeu0jv43Ip_pad-10" x="96520" y="-93980"/><use xlink:href="#Q7xeu0jv43Ip_pad-10" x="104140" y="-86360"/><use xlink:href="#Q7xeu0jv43Ip_pad-10" x="93980" y="-93980"/><use xlink:href="#Q7xeu0jv43Ip_pad-10" x="106680" y="-86360"/><use xlink:href="#Q7xeu0jv43Ip_pad-10" x="91440" y="-93980"/><use xlink:href="#Q7xeu0jv43Ip_pad-10" x="109220" y="-86360"/><use xlink:href="#Q7xeu0jv43Ip_pad-10" x="88900" y="-93980"/><use xlink:href="#Q7xeu0jv43Ip_pad-10" x="111760" y="-86360"/><use xlink:href="#Q7xeu0jv43Ip_pad-10" x="86360" y="-93980"/><use xlink:href="#Q7xeu0jv43Ip_pad-10" x="114300" y="-86360"/><use xlink:href="#Q7xeu0jv43Ip_pad-10" x="83820" y="-93980"/><use xlink:href="#Q7xeu0jv43Ip_pad-11" x="116840" y="-86360"/><use xlink:href="#Q7xeu0jv43Ip_pad-12" x="107515" y="-80645"/><use xlink:href="#Q7xeu0jv43Ip_pad-12" x="112395" y="-80645"/><use xlink:href="#Q7xeu0jv43Ip_pad-13" x="135890" y="-92710"/><use xlink:href="#Q7xeu0jv43Ip_pad-13" x="133350" y="-92710"/><use xlink:href="#Q7xeu0jv43Ip_pad-13" x="135890" y="-90170"/><use xlink:href="#Q7xeu0jv43Ip_pad-13" x="133350" y="-90170"/><use xlink:href="#Q7xeu0jv43Ip_pad-13" x="135890" y="-87630"/><use xlink:href="#Q7xeu0jv43Ip_pad-14" x="133350" y="-87630"/><path d="M 70625 -61290 72375 -61290 A 875 875 0 0 0 73250 -62165 L 73250 -63915 A 875 875 0 0 0 72375 -64790 L 70625 -64790 A 875 875 0 0 0 69750 -63915 L 69750 -62165 A 875 875 0 0 0 70625 -61290"/><path d="M 75200 -58540 77200 -58540 A 750 750 0 0 0 77950 -59290 L 77950 -60790 A 750 750 0 0 0 77200 -61540 L 75200 -61540 A 750 750 0 0 0 74450 -60790 L 74450 -59290 A 750 750 0 0 0 75200 -58540"/><use xlink:href="#Q7xeu0jv43Ip_pad-15" x="76200" y="-66040"/><use xlink:href="#Q7xeu0jv43Ip_pad-16" x="123190" y="-100330"/><use xlink:href="#Q7xeu0jv43Ip_pad-17" x="120690" y="-100330"/><use xlink:href="#Q7xeu0jv43Ip_pad-17" x="118190" y="-100330"/><use xlink:href="#Q7xeu0jv43Ip_pad-18" x="126290" y="-107830"/><use xlink:href="#Q7xeu0jv43Ip_pad-18" x="115090" y="-107830"/><use xlink:href="#Q7xeu0jv43Ip_pad-17" x="123190" y="-114830"/><use xlink:href="#Q7xeu0jv43Ip_pad-17" x="118190" y="-114830"/><use xlink:href="#Q7xeu0jv43Ip_pad-19" x="90678" y="-70485"/><use xlink:href="#Q7xeu0jv43Ip_pad-20" x="101600" y="-67945"/><use xlink:href="#Q7xeu0jv43Ip_pad-20" x="109347" y="-67945"/><use xlink:href="#Q7xeu0jv43Ip_pad-20" x="125857" y="-67945"/><use xlink:href="#Q7xeu0jv43Ip_pad-20" x="119634" y="-67945"/><use xlink:href="#Q7xeu0jv43Ip_pad-19" x="86868" y="-69850"/><use xlink:href="#Q7xeu0jv43Ip_pad-20" x="103040" y="-67267"/><use xlink:href="#Q7xeu0jv43Ip_pad-20" x="110617" y="-67310"/><use xlink:href="#Q7xeu0jv43Ip_pad-20" x="118237" y="-67310"/><use xlink:href="#Q7xeu0jv43Ip_pad-20" x="127381" y="-67310"/><use xlink:href="#Q7xeu0jv43Ip_pad-19" x="90678" y="-71755"/><use xlink:href="#Q7xeu0jv43Ip_pad-20" x="104470.2" y="-71755"/><use xlink:href="#Q7xeu0jv43Ip_pad-20" x="130302" y="-71755"/><use xlink:href="#Q7xeu0jv43Ip_pad-20" x="114985.8" y="-71755"/><use xlink:href="#Q7xeu0jv43Ip_pad-20" x="122656.6" y="-71755"/><use xlink:href="#Q7xeu0jv43Ip_pad-19" x="92202" y="-72390"/><use xlink:href="#Q7xeu0jv43Ip_pad-20" x="105892.6" y="-71120"/><use xlink:href="#Q7xeu0jv43Ip_pad-20" x="113538" y="-71120"/><use xlink:href="#Q7xeu0jv43Ip_pad-20" x="121158" y="-71120"/><use xlink:href="#Q7xeu0jv43Ip_pad-20" x="128905" y="-71120"/><use xlink:href="#Q7xeu0jv43Ip_pad-19" x="96012" y="-71755"/><use xlink:href="#Q7xeu0jv43Ip_pad-19" x="96012" y="-71755"/><use xlink:href="#Q7xeu0jv43Ip_pad-20" x="107340.4" y="-69850"/><use xlink:href="#Q7xeu0jv43Ip_pad-20" x="114935" y="-69850"/><use xlink:href="#Q7xeu0jv43Ip_pad-20" x="122555" y="-69850"/><use xlink:href="#Q7xeu0jv43Ip_pad-20" x="130175" y="-69850"/><use xlink:href="#Q7xeu0jv43Ip_pad-19" x="86868" y="-71120"/><use xlink:href="#Q7xeu0jv43Ip_pad-20" x="107340.4" y="-72390"/><use xlink:href="#Q7xeu0jv43Ip_pad-20" x="112141" y="-72390"/><use xlink:href="#Q7xeu0jv43Ip_pad-20" x="123571" y="-72390"/><use xlink:href="#Q7xeu0jv43Ip_pad-20" x="115951" y="-72390"/><use xlink:href="#Q7xeu0jv43Ip_pad-20" x="129540" y="-70485"/><use xlink:href="#Q7xeu0jv43Ip_pad-20" x="121920" y="-70485"/><use xlink:href="#Q7xeu0jv43Ip_pad-20" x="114300" y="-70485"/><use xlink:href="#Q7xeu0jv43Ip_pad-19" x="92202" y="-71120"/><use xlink:href="#Q7xeu0jv43Ip_pad-19" x="96012" y="-73025"/><use xlink:href="#Q7xeu0jv43Ip_pad-20" x="106680" y="-70485"/><use xlink:href="#Q7xeu0jv43Ip_pad-19" x="96012" y="-70485"/><use xlink:href="#Q7xeu0jv43Ip_pad-20" x="103047.8" y="-69215"/><use xlink:href="#Q7xeu0jv43Ip_pad-20" x="110744" y="-69215"/><use xlink:href="#Q7xeu0jv43Ip_pad-20" x="118237" y="-69215"/><use xlink:href="#Q7xeu0jv43Ip_pad-20" x="125984" y="-69215"/><use xlink:href="#Q7xeu0jv43Ip_pad-20" x="125222" y="-68580"/><use xlink:href="#Q7xeu0jv43Ip_pad-20" x="117602" y="-68580"/><use xlink:href="#Q7xeu0jv43Ip_pad-20" x="109982" y="-68580"/><use xlink:href="#Q7xeu0jv43Ip_pad-19" x="92202" y="-69850"/><use xlink:href="#Q7xeu0jv43Ip_pad-20" x="102362" y="-68580"/><use xlink:href="#Q7xeu0jv43Ip_pad-20" x="79375" y="-67945"/><use xlink:href="#Q7xeu0jv43Ip_pad-20" x="80645" y="-68580"/><use xlink:href="#Q7xeu0jv43Ip_pad-20" x="80010" y="-69215"/><use xlink:href="#Q7xeu0jv43Ip_pad-20" x="88900" y="-88265"/><use xlink:href="#Q7xeu0jv43Ip_pad-20" x="87630" y="-99695"/><use xlink:href="#Q7xeu0jv43Ip_pad-20" x="91440" y="-88900"/><use xlink:href="#Q7xeu0jv43Ip_pad-19" x="96520" y="-80010"/><path d="M 90678 -70485 90678 -68707 91440 -67945 101219 -67945 101600 -67945 109347 -67945 M 119634 -67945 125857 -67945 M 109347 -67945 119634 -67945 M 86868 -69850 86868 -68072 87630 -67310 102616 -67310 110617 -67310 118237 -67310 127381 -67310 M 96012 -75565 93726 -75565 M 90678 -72517 90678 -71755 M 93726 -75565 90678 -72517 M 96012 -75565 99822 -71755 104470.2 -71755 114985.8 -71755 M 122656.6 -71755 130302 -71755 M 114985.8 -71755 122656.6 -71755 M 94107 -74295 96012 -74295 M 92202 -72390 94107 -74295 M 96012 -74295 99187 -71120 105892.6 -71120 113538 -71120 121158 -71120 128905 -71120 M 96012 -71755 97917 -69850 107340.4 -69850 114935 -69850 122555 -69850 130175 -69850 M 96012 -76835 90043 -76835 M 86868 -73660 86868 -71120 M 90043 -76835 86868 -73660 M 96012 -76835 100457 -72390 107340.4 -72390 112141 -72390 M 115951 -72390 123571 -72390 M 112141 -72390 115951 -72390 M 92202 -71120 94107 -73025 96012 -73025 98552 -70485 M 106680 -70485 128778 -70485 M 98552 -70485 106680 -70485 M 129540 -70485 128778 -70485 M 96012 -70485 97282 -69215 103047.8 -69215 110744 -69215 118237 -69215 125984 -69215 M 92202 -69850 93472 -68580 102362 -68580 125222 -68580 M 86360 -93980 86360 -92075 85090 -90805 82550 -90805 81280 -90805 M 79375 -88900 79375 -67945 M 81280 -90805 79375 -88900 M 93980 -93980 89535 -89535 82550 -89535 81280 -88265 80645 -87630 80645 -69850 M 80645 -68580 80645 -69850 M 96673.299 -91286.701 93980 -93980 M 134773.299 -91286.701 96673.299 -91286.701 M 135890 -90170 134773.299 -91286.701 M 88900 -93980 88900 -91440 87630 -90170 82550 -90170 82538.408 -90170 81915 -90170 M 80010 -88265 80010 -69215 M 81915 -90170 80010 -88265 M 89535 -88265 88900 -88265 M 91440 -90170 89535 -88265 M 133350 -90170 91440 -90170 M 91440 -93980 91440 -95250 M 91440 -95885 87630 -99695 M 91440 -95250 91440 -95885 M 118110 -88900 91440 -88900 M 119380 -87630 118110 -88900 M 133350 -87630 119380 -87630" fill="none" stroke-width="381"/><path d="M 96520 -80010 101600 -85090 101600 -86360" fill="none" stroke-width="889"/><path d="M 140704.47 -56614.617 141687.898 -56831.739 142629.675 -57188.546 143510.095 -57677.575 144310.687 -58288.569 145014.694 -59008.732 145607.37 -59822.987 146076.296 -60714.269 146411.647 -61663.9 146607.127 -62655.692 146660 -63520.164 146660.001 -114276.08 146585.382 -115304.47 146368.262 -116287.896 146011.454 -117229.675 145522.424 -118110.095 144911.435 -118910.684 144191.268 -119614.694 143377.013 -120207.37 142485.731 -120676.296 141536.099 -121011.647 140544.309 -121207.127 139679.835 -121260 63523.906 -121260 62495.53 -121185.382 61512.104 -120968.262 60570.325 -120611.454 59689.905 -120122.424 58889.316 -119511.435 58185.306 -118791.268 57592.63 -117977.013 57123.704 -117085.731 56788.353 -116136.099 56592.873 -115144.309 56540 -114279.835 56540 -114079.872 61265 -114079.872 61265 -114520.128 61350.89 -114951.925 61519.369 -115358.669 61763.962 -115724.729 62075.271 -116036.038 62441.331 -116280.631 62848.075 -116449.11 63279.872 -116535 63720.128 -116535 64151.925 -116449.11 64558.669 -116280.631 64924.729 -116036.038 65236.038 -115724.729 65480.631 -115358.669 65649.11 -114951.925 65705.394 -114668.967 116555 -114668.967 116555 -114991.033 116617.832 -115306.912 116741.082 -115604.463 116920.013 -115872.252 117147.748 -116099.987 117415.537 -116278.918 117713.088 -116402.168 118028.967 -116465 118351.033 -116465 118666.912 -116402.168 118964.463 -116278.918 119232.252 -116099.987 119459.987 -115872.252 119638.918 -115604.463 119762.168 -115306.912 119825 -114991.033 119825 -114668.967 121555 -114668.967 121555 -114991.033 121617.832 -115306.912 121741.082 -115604.463 121920.013 -115872.252 122147.748 -116099.987 122415.537 -116278.918 122713.088 -116402.168 123028.967 -116465 123351.033 -116465 123666.912 -116402.168 123964.463 -116278.918 124232.252 -116099.987 124459.987 -115872.252 124638.918 -115604.463 124762.168 -115306.912 124825 -114991.033 124825 -114668.967 124762.168 -114353.088 124648.998 -114079.872 137465 -114079.872 137465 -114520.128 137550.89 -114951.925 137719.369 -115358.669 137963.962 -115724.729 138275.271 -116036.038 138641.331 -116280.631 139048.075 -116449.11 139479.872 -116535 139920.128 -116535 140351.925 -116449.11 140758.669 -116280.631 141124.729 -116036.038 141436.038 -115724.729 141680.631 -115358.669 141849.11 -114951.925 141935 -114520.128 141935 -114079.872 141849.11 -113648.075 141680.631 -113241.331 141436.038 -112875.271 141124.729 -112563.962 140758.669 -112319.369 140351.925 -112150.89 139920.128 -112065 139479.872 -112065 139048.075 -112150.89 138641.331 -112319.369 138275.271 -112563.962 137963.962 -112875.271 137719.369 -113241.331 137550.89 -113648.075 137465 -114079.872 124648.998 -114079.872 124638.918 -114055.537 124459.987 -113787.748 124232.252 -113560.013 123964.463 -113381.082 123666.912 -113257.832 123351.033 -113195 123028.967 -113195 122713.088 -113257.832 122415.537 -113381.082 122147.748 -113560.013 121920.013 -113787.748 121741.082 -114055.537 121617.832 -114353.088 121555 -114668.967 119825 -114668.967 119762.168 -114353.088 119638.918 -114055.537 119459.987 -113787.748 119232.252 -113560.013 118964.463 -113381.082 118666.912 -113257.832 118351.033 -113195 118028.967 -113195 117713.088 -113257.832 117415.537 -113381.082 117147.748 -113560.013 116920.013 -113787.748 116741.082 -114055.537 116617.832 -114353.088 116555 -114668.967 65705.394 -114668.967 65735 -114520.128 65735 -114079.872 65649.11 -113648.075 65480.631 -113241.331 65236.038 -112875.271 64924.729 -112563.962 64558.669 -112319.369 64151.925 -112150.89 63720.128 -112065 63279.872 -112065 62848.075 -112150.89 62441.331 -112319.369 62075.271 -112563.962 61763.962 -112875.271 61519.369 -113241.331 61350.89 -113648.075 61265 -114079.872 56540 -114079.872 56540 -106230 113451.928 -106230 113451.928 -109430 113464.188 -109554.482 113500.498 -109674.18 113559.463 -109784.494 113638.815 -109881.185 113735.506 -109960.537 113845.82 -110019.502 113965.518 -110055.812 114090 -110068.072 116090 -110068.072 116214.482 -110055.812 116334.18 -110019.502 116444.494 -109960.537 116541.185 -109881.185 116620.537 -109784.494 116679.502 -109674.18 116715.812 -109554.482 116728.072 -109430 116728.072 -106230 124651.928 -106230 124651.928 -109430 124664.188 -109554.482 124700.498 -109674.18 124759.463 -109784.494 124838.815 -109881.185 124935.506 -109960.537 125045.82 -110019.502 125165.518 -110055.812 125290 -110068.072 127290 -110068.072 127414.482 -110055.812 127534.18 -110019.502 127644.494 -109960.537 127741.185 -109881.185 127820.537 -109784.494 127879.502 -109674.18 127915.812 -109554.482 127928.072 -109430 127928.072 -106230 127915.812 -106105.518 127879.502 -105985.82 127820.537 -105875.506 127741.185 -105778.815 127644.494 -105699.463 127534.18 -105640.498 127414.482 -105604.188 127290 -105591.928 125290 -105591.928 125165.518 -105604.188 125045.82 -105640.498 124935.506 -105699.463 124838.815 -105778.815 124759.463 -105875.506 124700.498 -105985.82 124664.188 -106105.518 124651.928 -106230 116728.072 -106230 116715.812 -106105.518 116679.502 -105985.82 116620.537 -105875.506 116541.185 -105778.815 116444.494 -105699.463 116334.18 -105640.498 116214.482 -105604.188 116090 -105591.928 114090 -105591.928 113965.518 -105604.188 113845.82 -105640.498 113735.506 -105699.463 113638.815 -105778.815 113559.463 -105875.506 113500.498 -105985.82 113464.188 -106105.518 113451.928 -106230 56540 -106230 56540 -63523.92 56557.707 -63279.872 61265 -63279.872 61265 -63720.128 61350.89 -64151.925 61519.369 -64558.669 61763.962 -64924.729 62075.271 -65236.038 62441.331 -65480.631 62848.075 -65649.11 63279.872 -65735 63720.128 -65735 64151.925 -65649.11 64558.669 -65480.631 64924.729 -65236.038 65236.038 -64924.729 65480.631 -64558.669 65649.11 -64151.925 65735 -63720.128 65735 -63279.872 65649.11 -62848.075 65480.631 -62441.331 65295.993 -62165 69111.928 -62165 69111.928 -63915 69141.001 -64210.186 69227.104 -64494.028 69366.927 -64755.618 69555.097 -64984.903 69784.382 -65173.073 70045.972 -65312.896 70329.814 -65398.999 70625 -65428.072 72375 -65428.072 72670.186 -65398.999 72954.028 -65312.896 73215.618 -65173.073 73444.903 -64984.903 73633.073 -64755.618 73772.896 -64494.028 73811.928 -64365.357 73811.928 -67790 73824.188 -67914.482 73860.498 -68034.18 73919.463 -68144.494 73998.815 -68241.185 74095.506 -68320.537 74205.82 -68379.502 74325.518 -68415.812 74450 -68428.072 77950 -68428.072 78074.482 -68415.812 78194.18 -68379.502 78304.494 -68320.537 78401.185 -68241.185 78450.743 -68180.799 78459.104 -68222.834 78530.905 -68396.178 78549.501 -68424.009 78549.5 -88859.45 78545.506 -88900 78549.5 -88940.55 78549.5 -88940.552 78561.444 -89061.825 78596.635 -89177.834 78608.647 -89217.433 78685.301 -89360.842 78695.421 -89373.173 78788.459 -89486.541 78819.966 -89512.398 80667.611 -91360.045 80693.459 -91391.541 80724.955 -91417.389 80724.958 -91417.392 80819.157 -91494.699 80934.825 -91556.525 80962.566 -91571.353 81118.174 -91618.556 81239.447 -91630.5 81239.449 -91630.5 81280 -91634.494 81320.55 -91630.5 84748.068 -91630.5 85534.501 -92416.934 85534.501 -92805.722 85445.241 -92865.363 85245.363 -93065.241 85090 -93297.759 84934.637 -93065.241 84734.759 -92865.363 84499.727 -92708.32 84238.574 -92600.147 83961.335 -92545 83678.665 -92545 83401.426 -92600.147 83140.273 -92708.32 82905.241 -92865.363 82705.363 -93065.241 82548.32 -93300.273 82440.147 -93561.426 82385 -93838.665 82385 -94121.335 82440.147 -94398.574 82548.32 -94659.727 82705.363 -94894.759 82905.241 -95094.637 83140.273 -95251.68 83401.426 -95359.853 83678.665 -95415 83961.335 -95415 84238.574 -95359.853 84499.727 -95251.68 84734.759 -95094.637 84934.637 -94894.759 85090 -94662.241 85245.363 -94894.759 85445.241 -95094.637 85680.273 -95251.68 85941.426 -95359.853 86218.665 -95415 86501.335 -95415 86778.574 -95359.853 87039.727 -95251.68 87274.759 -95094.637 87474.637 -94894.759 87630 -94662.241 87785.363 -94894.759 87985.241 -95094.637 88220.273 -95251.68 88481.426 -95359.853 88758.665 -95415 89041.335 -95415 89318.574 -95359.853 89579.727 -95251.68 89814.759 -95094.637 90014.637 -94894.759 90170 -94662.241 90325.363 -94894.759 90525.241 -95094.637 90614.501 -95154.278 90614.501 -95209.438 90614.5 -95209.448 90614.5 -95543.066 87384.994 -98772.574 87352.166 -98779.104 87178.822 -98850.905 87022.816 -98955.145 86890.145 -99087.816 86785.905 -99243.822 86714.104 -99417.166 86677.5 -99601.187 86677.5 -99788.813 86714.104 -99972.834 86785.905 -100146.178 86890.145 -100302.184 87022.816 -100434.855 87178.822 -100539.095 87352.166 -100610.896 87536.187 -100647.5 87723.813 -100647.5 87907.834 -100610.896 88081.178 -100539.095 88237.184 -100434.855 88369.855 -100302.184 88458.867 -100168.967 116555 -100168.967 116555 -100491.033 116617.832 -100806.912 116741.082 -101104.463 116920.013 -101372.252 117147.748 -101599.987 117415.537 -101778.918 117713.088 -101902.168 118028.967 -101965 118351.033 -101965 118666.912 -101902.168 118964.463 -101778.918 119232.252 -101599.987 119459.987 -101372.252 119524.925 -101275.065 119554.587 -101285.808 120510.395 -100330 119554.587 -99374.192 119524.925 -99384.935 119459.987 -99287.748 119366.826 -99194.587 119734.192 -99194.587 120690 -100150.395 120704.143 -100136.253 120883.748 -100315.858 120869.605 -100330 120883.748 -100344.143 120704.143 -100523.748 120690 -100509.605 119734.192 -101465.413 119829.956 -101729.814 120119.571 -101870.704 120431.108 -101952.384 120752.595 -101971.718 121071.675 -101927.961 121376.088 -101822.795 121550.044 -101729.814 121604.024 -101580.777 121659.463 -101684.494 121738.815 -101781.185 121835.506 -101860.537 121945.82 -101919.502 122065.518 -101955.812 122190 -101968.072 124190 -101968.072 124314.482 -101955.812 124434.18 -101919.502 124544.494 -101860.537 124641.185 -101781.185 124720.537 -101684.494 124779.502 -101574.18 124815.812 -101454.482 124828.072 -101330 124828.072 -99330 124815.812 -99205.518 124779.502 -99085.82 124720.537 -98975.506 124641.185 -98878.815 124544.494 -98799.463 124434.18 -98740.498 124314.482 -98704.188 124190 -98691.928 122190 -98691.928 122065.518 -98704.188 121945.82 -98740.498 121835.506 -98799.463 121738.815 -98878.815 121659.463 -98975.506 121604.024 -99079.223 121550.044 -98930.186 121260.429 -98789.296 120948.892 -98707.616 120627.405 -98688.282 120308.325 -98732.039 120003.912 -98837.205 119829.956 -98930.186 119734.192 -99194.587 119366.826 -99194.587 119232.252 -99060.013 118964.463 -98881.082 118666.912 -98757.832 118351.033 -98695 118028.967 -98695 117713.088 -98757.832 117415.537 -98881.082 117147.748 -99060.013 116920.013 -99287.748 116741.082 -99555.537 116617.832 -99853.088 116555 -100168.967 88458.867 -100168.967 88474.095 -100146.178 88545.896 -99972.834 88552.426 -99940.006 91995.045 -96497.389 92026.541 -96471.541 92052.389 -96440.045 92052.392 -96440.042 92129.699 -96345.843 92206.353 -96202.434 92243.646 -96079.494 92253.556 -96046.826 92265.5 -95925.553 92265.5 -95925.551 92269.494 -95885 92265.5 -95844.45 92265.5 -95154.278 92354.759 -95094.637 92554.637 -94894.759 92710 -94662.241 92865.363 -94894.759 93065.241 -95094.637 93300.273 -95251.68 93561.426 -95359.853 93838.665 -95415 94121.335 -95415 94398.574 -95359.853 94659.727 -95251.68 94894.759 -95094.637 95094.637 -94894.759 95250 -94662.241 95405.363 -94894.759 95605.241 -95094.637 95840.273 -95251.68 96101.426 -95359.853 96378.665 -95415 96661.335 -95415 96938.574 -95359.853 97199.727 -95251.68 97434.759 -95094.637 97634.637 -94894.759 97790 -94662.241 97945.363 -94894.759 98145.241 -95094.637 98380.273 -95251.68 98641.426 -95359.853 98918.665 -95415 99201.335 -95415 99478.574 -95359.853 99739.727 -95251.68 99974.759 -95094.637 100174.637 -94894.759 100331.68 -94659.727 100336.067 -94649.135 100447.615 -94835.131 100636.586 -95043.519 100862.58 -95211.037 101116.913 -95331.246 101250.961 -95371.904 101473 -95249.915 101473 -94107 101453 -94107 101453 -93853 101473 -93853 101473 -92710.085 101727 -92710.085 101727 -93853 101747 -93853 101747 -94107 101727 -94107 101727 -95249.915 101949.039 -95371.904 102083.087 -95331.246 102337.42 -95211.037 102563.414 -95043.519 102752.385 -94835.131 102863.933 -94649.135 102868.32 -94659.727 103025.363 -94894.759 103225.241 -95094.637 103460.273 -95251.68 103721.426 -95359.853 103998.665 -95415 104281.335 -95415 104558.574 -95359.853 104819.727 -95251.68 105054.759 -95094.637 105254.637 -94894.759 105410 -94662.241 105565.363 -94894.759 105765.241 -95094.637 106000.273 -95251.68 106261.426 -95359.853 106538.665 -95415 106821.335 -95415 107098.574 -95359.853 107359.727 -95251.68 107594.759 -95094.637 107794.637 -94894.759 107950 -94662.241 108105.363 -94894.759 108305.241 -95094.637 108540.273 -95251.68 108801.426 -95359.853 109078.665 -95415 109361.335 -95415 109638.574 -95359.853 109899.727 -95251.68 110134.759 -95094.637 110334.637 -94894.759 110490 -94662.241 110645.363 -94894.759 110845.241 -95094.637 111080.273 -95251.68 111341.426 -95359.853 111618.665 -95415 111901.335 -95415 112178.574 -95359.853 112439.727 -95251.68 112674.759 -95094.637 112874.637 -94894.759 113030 -94662.241 113185.363 -94894.759 113385.241 -95094.637 113620.273 -95251.68 113881.426 -95359.853 114158.665 -95415 114441.335 -95415 114718.574 -95359.853 114979.727 -95251.68 115214.759 -95094.637 115414.637 -94894.759 115570 -94662.241 115725.363 -94894.759 115925.241 -95094.637 116160.273 -95251.68 116421.426 -95359.853 116698.665 -95415 116981.335 -95415 117258.574 -95359.853 117519.727 -95251.68 117754.759 -95094.637 117954.637 -94894.759 118111.68 -94659.727 118219.853 -94398.574 118275 -94121.335 118275 -93838.665 118219.853 -93561.426 118111.68 -93300.273 117954.637 -93065.241 117754.759 -92865.363 117519.727 -92708.32 117258.574 -92600.147 116981.335 -92545 116698.665 -92545 116421.426 -92600.147 116160.273 -92708.32 115925.241 -92865.363 115725.363 -93065.241 115570 -93297.759 115414.637 -93065.241 115214.759 -92865.363 114979.727 -92708.32 114718.574 -92600.147 114441.335 -92545 114158.665 -92545 113881.426 -92600.147 113620.273 -92708.32 113385.241 -92865.363 113185.363 -93065.241 113030 -93297.759 112874.637 -93065.241 112674.759 -92865.363 112439.727 -92708.32 112178.574 -92600.147 111901.335 -92545 111618.665 -92545 111341.426 -92600.147 111080.273 -92708.32 110845.241 -92865.363 110645.363 -93065.241 110490 -93297.759 110334.637 -93065.241 110134.759 -92865.363 109899.727 -92708.32 109638.574 -92600.147 109361.335 -92545 109078.665 -92545 108801.426 -92600.147 108540.273 -92708.32 108305.241 -92865.363 108105.363 -93065.241 107950 -93297.759 107794.637 -93065.241 107594.759 -92865.363 107359.727 -92708.32 107098.574 -92600.147 106821.335 -92545 106538.665 -92545 106261.426 -92600.147 106000.273 -92708.32 105765.241 -92865.363 105565.363 -93065.241 105410 -93297.759 105254.637 -93065.241 105054.759 -92865.363 104819.727 -92708.32 104558.574 -92600.147 104281.335 -92545 103998.665 -92545 103721.426 -92600.147 103460.273 -92708.32 103225.241 -92865.363 103025.363 -93065.241 102868.32 -93300.273 102863.933 -93310.865 102752.385 -93124.869 102563.414 -92916.481 102337.42 -92748.963 102083.087 -92628.754 101949.039 -92588.096 101727 -92710.085 101473 -92710.085 101250.961 -92588.096 101116.913 -92628.754 100862.58 -92748.963 100636.586 -92916.481 100447.615 -93124.869 100336.067 -93310.865 100331.68 -93300.273 100174.637 -93065.241 99974.759 -92865.363 99739.727 -92708.32 99478.574 -92600.147 99201.335 -92545 98918.665 -92545 98641.426 -92600.147 98380.273 -92708.32 98145.241 -92865.363 97945.363 -93065.241 97790 -93297.759 97634.637 -93065.241 97434.759 -92865.363 97199.727 -92708.32 96938.574 -92600.147 96661.335 -92545 96582.433 -92545 97015.232 -92112.201 131990.264 -92112.201 131922.068 -92276.842 131865 -92563.74 131865 -92856.26 131922.068 -93143.158 132034.01 -93413.411 132196.525 -93656.632 132403.368 -93863.475 132646.589 -94025.99 132916.842 -94137.932 133203.74 -94195 133496.26 -94195 133783.158 -94137.932 134053.411 -94025.99 134296.632 -93863.475 134503.475 -93656.632 134621.1 -93480.594 134792.412 -93710.269 135008.645 -93905.178 135258.748 -94054.157 135533.109 -94151.481 135763 -94030.814 135763 -92837 136017 -92837 136017 -94030.814 136246.891 -94151.481 136521.252 -94054.157 136771.355 -93905.178 136987.588 -93710.269 137161.641 -93476.92 137286.825 -93214.099 137331.476 -93066.89 137210.155 -92837 136017 -92837 135763 -92837 135743 -92837 135743 -92583 135763 -92583 135763 -92563 136017 -92563 136017 -92583 137210.155 -92583 137331.476 -92353.11 137286.825 -92205.901 137161.641 -91943.08 136987.588 -91709.731 136771.355 -91514.822 136654.466 -91445.195 136836.632 -91323.475 137043.475 -91116.632 137205.99 -90873.411 137317.932 -90603.158 137375 -90316.26 137375 -90023.74 137317.932 -89736.842 137205.99 -89466.589 137043.475 -89223.368 136836.632 -89016.525 136662.24 -88900 136836.632 -88783.475 137043.475 -88576.632 137205.99 -88333.411 137317.932 -88063.158 137375 -87776.26 137375 -87483.74 137317.932 -87196.842 137205.99 -86926.589 137043.475 -86683.368 136836.632 -86476.525 136593.411 -86314.01 136323.158 -86202.068 136036.26 -86145 135743.74 -86145 135456.842 -86202.068 135186.589 -86314.01 134943.368 -86476.525 134811.513 -86608.38 134789.502 -86535.82 134730.537 -86425.506 134651.185 -86328.815 134554.494 -86249.463 134444.18 -86190.498 134324.482 -86154.188 134200 -86141.928 132500 -86141.928 132375.518 -86154.188 132255.82 -86190.498 132145.506 -86249.463 132048.815 -86328.815 131969.463 -86425.506 131910.498 -86535.82 131874.188 -86655.518 131861.928 -86780 131861.928 -86804.5 119420.55 -86804.5 119379.999 -86800.506 119339.449 -86804.5 119339.447 -86804.5 119218.174 -86816.444 119062.566 -86863.647 118969.111 -86913.601 118919.157 -86940.301 118878.24 -86973.881 118793.459 -87043.459 118767.606 -87074.961 117768.068 -88074.5 91919.007 -88074.5 91891.178 -88055.905 91717.834 -87984.104 91533.813 -87947.5 91346.187 -87947.5 91162.166 -87984.104 90988.822 -88055.905 90832.816 -88160.145 90715.197 -88277.764 90147.398 -87709.966 90121.541 -87678.459 89995.842 -87575.301 89852.434 -87498.647 89801.809 -87483.29 89814.759 -87474.637 90014.637 -87274.759 90170 -87042.241 90325.363 -87274.759 90525.241 -87474.637 90760.273 -87631.68 91021.426 -87739.853 91298.665 -87795 91581.335 -87795 91858.574 -87739.853 92119.727 -87631.68 92354.759 -87474.637 92554.637 -87274.759 92710 -87042.241 92865.363 -87274.759 93065.241 -87474.637 93300.273 -87631.68 93561.426 -87739.853 93838.665 -87795 94121.335 -87795 94398.574 -87739.853 94659.727 -87631.68 94894.759 -87474.637 95094.637 -87274.759 95250 -87042.241 95405.363 -87274.759 95605.241 -87474.637 95840.273 -87631.68 96101.426 -87739.853 96378.665 -87795 96661.335 -87795 96938.574 -87739.853 97199.727 -87631.68 97434.759 -87474.637 97634.637 -87274.759 97791.68 -87039.727 97796.067 -87029.135 97907.615 -87215.131 98096.586 -87423.519 98322.58 -87591.037 98576.913 -87711.246 98710.961 -87751.904 98933 -87629.915 98933 -86487 98913 -86487 98913 -86233 98933 -86233 98933 -85090.085 98710.961 -84968.096 98576.913 -85008.754 98322.58 -85128.963 98096.586 -85296.481 97907.615 -85504.869 97796.067 -85690.865 97791.68 -85680.273 97634.637 -85445.241 97434.759 -85245.363 97199.727 -85088.32 96938.574 -84980.147 96661.335 -84925 96378.665 -84925 96101.426 -84980.147 95840.273 -85088.32 95605.241 -85245.363 95405.363 -85445.241 95250 -85677.759 95094.637 -85445.241 94894.759 -85245.363 94659.727 -85088.32 94398.574 -84980.147 94121.335 -84925 93838.665 -84925 93561.426 -84980.147 93300.273 -85088.32 93065.241 -85245.363 92865.363 -85445.241 92710 -85677.759 92554.637 -85445.241 92354.759 -85245.363 92119.727 -85088.32 91858.574 -84980.147 91581.335 -84925 91298.665 -84925 91021.426 -84980.147 90760.273 -85088.32 90525.241 -85245.363 90325.363 -85445.241 90170 -85677.759 90014.637 -85445.241 89814.759 -85245.363 89579.727 -85088.32 89318.574 -84980.147 89041.335 -84925 88758.665 -84925 88481.426 -84980.147 88220.273 -85088.32 87985.241 -85245.363 87785.363 -85445.241 87630 -85677.759 87474.637 -85445.241 87274.759 -85245.363 87039.727 -85088.32 86778.574 -84980.147 86501.335 -84925 86218.665 -84925 85941.426 -84980.147 85680.273 -85088.32 85445.241 -85245.363 85245.363 -85445.241 85090 -85677.759 84934.637 -85445.241 84734.759 -85245.363 84499.727 -85088.32 84238.574 -84980.147 83961.335 -84925 83678.665 -84925 83401.426 -84980.147 83140.273 -85088.32 82905.241 -85245.363 82705.363 -85445.241 82548.32 -85680.273 82440.147 -85941.426 82385 -86218.665 82385 -86501.335 82440.147 -86778.574 82548.32 -87039.727 82705.363 -87274.759 82905.241 -87474.637 83140.273 -87631.68 83401.426 -87739.853 83678.665 -87795 83961.335 -87795 84238.574 -87739.853 84499.727 -87631.68 84734.759 -87474.637 84934.637 -87274.759 85090 -87042.241 85245.363 -87274.759 85445.241 -87474.637 85680.273 -87631.68 85941.426 -87739.853 86218.665 -87795 86501.335 -87795 86778.574 -87739.853 87039.727 -87631.68 87274.759 -87474.637 87474.637 -87274.759 87630 -87042.241 87785.363 -87274.759 87985.241 -87474.637 88199.896 -87618.065 88160.145 -87657.816 88055.905 -87813.822 87984.104 -87987.166 87947.5 -88171.187 87947.5 -88358.813 87984.104 -88542.834 88053.139 -88709.5 82891.933 -88709.5 81892.401 -87709.969 81892.392 -87709.958 81470.5 -87288.067 81470.5 -80010 95435.277 -80010 95456.12 -80221.618 95517.847 -80425.104 95618.087 -80612.639 95719.182 -80735.824 100462.626 -85479.27 100328.32 -85680.273 100323.933 -85690.865 100212.385 -85504.869 100023.414 -85296.481 99797.42 -85128.963 99543.087 -85008.754 99409.039 -84968.096 99187 -85090.085 99187 -86233 99207 -86233 99207 -86487 99187 -86487 99187 -87629.915 99409.039 -87751.904 99543.087 -87711.246 99797.42 -87591.037 100023.414 -87423.519 100212.385 -87215.131 100323.933 -87029.135 100328.32 -87039.727 100485.363 -87274.759 100685.241 -87474.637 100920.273 -87631.68 101181.426 -87739.853 101458.665 -87795 101741.335 -87795 102018.574 -87739.853 102279.727 -87631.68 102514.759 -87474.637 102714.637 -87274.759 102870 -87042.241 103025.363 -87274.759 103225.241 -87474.637 103460.273 -87631.68 103721.426 -87739.853 103998.665 -87795 104281.335 -87795 104558.574 -87739.853 104819.727 -87631.68 105054.759 -87474.637 105254.637 -87274.759 105410 -87042.241 105565.363 -87274.759 105765.241 -87474.637 106000.273 -87631.68 106261.426 -87739.853 106538.665 -87795 106821.335 -87795 107098.574 -87739.853 107359.727 -87631.68 107594.759 -87474.637 107794.637 -87274.759 107950 -87042.241 108105.363 -87274.759 108305.241 -87474.637 108540.273 -87631.68 108801.426 -87739.853 109078.665 -87795 109361.335 -87795 109638.574 -87739.853 109899.727 -87631.68 110134.759 -87474.637 110334.637 -87274.759 110490 -87042.241 110645.363 -87274.759 110845.241 -87474.637 111080.273 -87631.68 111341.426 -87739.853 111618.665 -87795 111901.335 -87795 112178.574 -87739.853 112439.727 -87631.68 112674.759 -87474.637 112874.637 -87274.759 113030 -87042.241 113185.363 -87274.759 113385.241 -87474.637 113620.273 -87631.68 113881.426 -87739.853 114158.665 -87795 114441.335 -87795 114718.574 -87739.853 114979.727 -87631.68 115214.759 -87474.637 115413.357 -87276.039 115414.188 -87284.482 115450.498 -87404.18 115509.463 -87514.494 115588.815 -87611.185 115685.506 -87690.537 115795.82 -87749.502 115915.518 -87785.812 116040 -87798.072 117640 -87798.072 117764.482 -87785.812 117884.18 -87749.502 117994.494 -87690.537 118091.185 -87611.185 118170.537 -87514.494 118229.502 -87404.18 118265.812 -87284.482 118278.072 -87160 118278.072 -85560 118265.812 -85435.518 118229.502 -85315.82 118170.537 -85205.506 118091.185 -85108.815 117994.494 -85029.463 117884.18 -84970.498 117764.482 -84934.188 117640 -84921.928 116040 -84921.928 115915.518 -84934.188 115795.82 -84970.498 115685.506 -85029.463 115588.815 -85108.815 115509.463 -85205.506 115450.498 -85315.82 115414.188 -85435.518 115413.357 -85443.961 115214.759 -85245.363 114979.727 -85088.32 114718.574 -84980.147 114441.335 -84925 114158.665 -84925 113881.426 -84980.147 113620.273 -85088.32 113385.241 -85245.363 113185.363 -85445.241 113030 -85677.759 112874.637 -85445.241 112674.759 -85245.363 112439.727 -85088.32 112178.574 -84980.147 111901.335 -84925 111618.665 -84925 111341.426 -84980.147 111080.273 -85088.32 110845.241 -85245.363 110645.363 -85445.241 110490 -85677.759 110334.637 -85445.241 110134.759 -85245.363 109899.727 -85088.32 109638.574 -84980.147 109361.335 -84925 109078.665 -84925 108801.426 -84980.147 108540.273 -85088.32 108305.241 -85245.363 108105.363 -85445.241 107950 -85677.759 107794.637 -85445.241 107594.759 -85245.363 107359.727 -85088.32 107098.574 -84980.147 106821.335 -84925 106538.665 -84925 106261.426 -84980.147 106000.273 -85088.32 105765.241 -85245.363 105565.363 -85445.241 105410 -85677.759 105254.637 -85445.241 105054.759 -85245.363 104819.727 -85088.32 104558.574 -84980.147 104281.335 -84925 103998.665 -84925 103721.426 -84980.147 103460.273 -85088.32 103225.241 -85245.363 103025.363 -85445.241 102870 -85677.759 102714.637 -85445.241 102679.5 -85410.104 102679.5 -85143.029 102684.723 -85090 102663.88 -84878.381 102602.153 -84674.895 102602.153 -84674.894 102501.914 -84487.36 102367.015 -84322.985 102325.826 -84289.182 98545.232 -80508.589 106130 -80508.589 106130 -80781.411 106183.225 -81048.989 106287.629 -81301.043 106439.201 -81527.886 106632.114 -81720.799 106858.957 -81872.371 107111.011 -81976.775 107378.589 -82030 107651.411 -82030 107918.989 -81976.775 108171.043 -81872.371 108397.886 -81720.799 108590.799 -81527.886 108742.371 -81301.043 108846.775 -81048.989 108900 -80781.411 108900 -80508.589 111010 -80508.589 111010 -80781.411 111063.225 -81048.989 111167.629 -81301.043 111319.201 -81527.886 111512.114 -81720.799 111738.957 -81872.371 111991.011 -81976.775 112258.589 -82030 112531.411 -82030 112798.989 -81976.775 113051.043 -81872.371 113277.886 -81720.799 113470.799 -81527.886 113622.371 -81301.043 113726.775 -81048.989 113780 -80781.411 113780 -80508.589 113726.775 -80241.011 113622.371 -79988.957 113470.799 -79762.114 113277.886 -79569.201 113051.043 -79417.629 112798.989 -79313.225 112531.411 -79260 112258.589 -79260 111991.011 -79313.225 111738.957 -79417.629 111512.114 -79569.201 111319.201 -79762.114 111167.629 -79988.957 111063.225 -80241.011 111010 -80508.589 108900 -80508.589 108846.775 -80241.011 108742.371 -79988.957 108590.799 -79762.114 108397.886 -79569.201 108171.043 -79417.629 107918.989 -79313.225 107651.411 -79260 107378.589 -79260 107111.011 -79313.225 106858.957 -79417.629 106632.114 -79569.201 106439.201 -79762.114 106287.629 -79988.957 106183.225 -80241.011 106130 -80508.589 98545.232 -80508.589 97245.824 -79209.182 97122.639 -79108.087 96935.104 -79007.847 96731.618 -78946.12 96520 -78925.277 96308.382 -78946.12 96104.896 -79007.847 95917.361 -79108.087 95752.986 -79242.986 95618.087 -79407.361 95517.847 -79594.896 95456.12 -79798.382 95435.277 -80010 81470.5 -80010 81470.5 -69748.061 85833 -69748.061 85833 -69951.939 85872.774 -70151.898 85950.795 -70340.256 86047.51 -70485 85950.795 -70629.744 85872.774 -70818.102 85833 -71018.061 85833 -71221.939 85872.774 -71421.898 85950.795 -71610.256 86042.501 -71747.504 86042.5 -73619.449 86038.506 -73660 86042.5 -73700.55 86042.5 -73700.552 86054.444 -73821.825 86090.961 -73942.205 86101.647 -73977.433 86178.301 -74120.842 86188.421 -74133.173 86281.459 -74246.541 86312.966 -74272.398 89430.606 -77390.039 89456.459 -77421.541 89520.596 -77474.177 89582.157 -77524.699 89725.566 -77601.353 89881.174 -77648.556 90002.447 -77660.5 90002.449 -77660.5 90042.999 -77664.494 90083.55 -77660.5 95971.45 -77660.5 96012 -77664.494 96052.55 -77660.5 96052.553 -77660.5 96173.826 -77648.556 96329.434 -77601.353 96472.842 -77524.699 96598.541 -77421.541 96624.398 -77390.034 100798.933 -73215.5 106861.393 -73215.5 106889.222 -73234.095 107062.566 -73305.896 107246.587 -73342.5 107434.213 -73342.5 107618.234 -73305.896 107791.578 -73234.095 107819.407 -73215.5 111661.993 -73215.5 111689.822 -73234.095 111863.166 -73305.896 112047.187 -73342.5 112234.813 -73342.5 112418.834 -73305.896 112592.178 -73234.095 112620.007 -73215.5 115471.993 -73215.5 115499.822 -73234.095 115673.166 -73305.896 115857.187 -73342.5 116044.813 -73342.5 116228.834 -73305.896 116402.178 -73234.095 116430.007 -73215.5 123091.993 -73215.5 123119.822 -73234.095 123293.166 -73305.896 123477.187 -73342.5 123664.813 -73342.5 123848.834 -73305.896 124022.178 -73234.095 124178.184 -73129.855 124310.855 -72997.184 124415.095 -72841.178 124486.896 -72667.834 124504.268 -72580.5 129822.993 -72580.5 129850.822 -72599.095 130024.166 -72670.896 130208.187 -72707.5 130395.813 -72707.5 130579.834 -72670.896 130753.178 -72599.095 130909.184 -72494.855 131041.855 -72362.184 131146.095 -72206.178 131217.896 -72032.834 131254.5 -71848.813 131254.5 -71661.187 131217.896 -71477.166 131146.095 -71303.822 131041.855 -71147.816 130909.184 -71015.145 130753.178 -70910.905 130579.834 -70839.104 130436.143 -70810.522 130454.999 -70764.999 130626.178 -70694.095 130782.184 -70589.855 130914.855 -70457.184 131019.095 -70301.178 131090.896 -70127.834 131127.5 -69943.813 131127.5 -69756.187 131090.896 -69572.166 131019.095 -69398.822 130914.855 -69242.816 130782.184 -69110.145 130626.178 -69005.905 130452.834 -68934.104 130268.813 -68897.5 130081.187 -68897.5 129897.166 -68934.104 129723.822 -69005.905 129695.993 -69024.5 126917.268 -69024.5 126899.896 -68937.166 126828.095 -68763.822 126723.855 -68607.816 126625.441 -68509.402 126701.095 -68396.178 126772.896 -68222.834 126790.268 -68135.5 126901.993 -68135.5 126929.822 -68154.095 127103.166 -68225.896 127287.187 -68262.5 127474.813 -68262.5 127658.834 -68225.896 127832.178 -68154.095 127988.184 -68049.855 128120.855 -67917.184 128225.095 -67761.178 128296.896 -67587.834 128333.5 -67403.813 128333.5 -67216.187 128296.896 -67032.166 128225.095 -66858.822 128120.855 -66702.816 127988.184 -66570.145 127832.178 -66465.905 127658.834 -66394.104 127474.813 -66357.5 127287.187 -66357.5 127103.166 -66394.104 126929.822 -66465.905 126901.993 -66484.5 118716.007 -66484.5 118688.178 -66465.905 118514.834 -66394.104 118330.813 -66357.5 118143.187 -66357.5 117959.166 -66394.104 117785.822 -66465.905 117757.993 -66484.5 111096.007 -66484.5 111068.178 -66465.905 110894.834 -66394.104 110710.813 -66357.5 110523.187 -66357.5 110339.166 -66394.104 110165.822 -66465.905 110137.993 -66484.5 103583.361 -66484.5 103491.178 -66422.905 103317.834 -66351.104 103133.813 -66314.5 102946.187 -66314.5 102762.166 -66351.104 102588.822 -66422.905 102496.639 -66484.5 87670.55 -66484.5 87630 -66480.506 87589.449 -66484.5 87589.447 -66484.5 87468.174 -66496.444 87312.566 -66543.647 87169.157 -66620.301 87074.958 -66697.608 87074.955 -66697.611 87043.459 -66723.459 87017.611 -66754.956 86312.961 -67459.607 86281.46 -67485.459 86255.609 -67516.959 86178.301 -67611.158 86101.647 -67754.567 86054.445 -67910.174 86038.506 -68072 86042.501 -68112.56 86042.5 -69222.497 85950.795 -69359.744 85872.774 -69548.102 85833 -69748.061 81470.5 -69748.061 81470.5 -69059.007 81489.095 -69031.178 81560.896 -68857.834 81597.5 -68673.813 81597.5 -68486.187 81560.896 -68302.166 81489.095 -68128.822 81384.855 -67972.816 81252.184 -67840.145 81096.178 -67735.905 80922.834 -67664.104 80738.813 -67627.5 80551.187 -67627.5 80367.166 -67664.104 80296.139 -67693.524 80290.896 -67667.166 80219.095 -67493.822 80114.855 -67337.816 79982.184 -67205.145 79826.178 -67100.905 79652.834 -67029.104 79468.813 -66992.5 79281.187 -66992.5 79097.166 -67029.104 78923.822 -67100.905 78767.816 -67205.145 78635.145 -67337.816 78588.072 -67408.266 78588.072 -64290 78575.812 -64165.518 78539.502 -64045.82 78480.537 -63935.506 78401.185 -63838.815 78304.494 -63759.463 78194.18 -63700.498 78074.482 -63664.188 77950 -63651.928 74450 -63651.928 74325.518 -63664.188 74205.82 -63700.498 74095.506 -63759.463 73998.815 -63838.815 73919.463 -63935.506 73878.506 -64012.131 73888.072 -63915 73888.072 -63279.872 137465 -63279.872 137465 -63720.128 137550.89 -64151.925 137719.369 -64558.669 137963.962 -64924.729 138275.271 -65236.038 138641.331 -65480.631 139048.075 -65649.11 139479.872 -65735 139920.128 -65735 140351.925 -65649.11 140758.669 -65480.631 141124.729 -65236.038 141436.038 -64924.729 141680.631 -64558.669 141849.11 -64151.925 141935 -63720.128 141935 -63279.872 141849.11 -62848.075 141680.631 -62441.331 141436.038 -62075.271 141124.729 -61763.962 140758.669 -61519.369 140351.925 -61350.89 139920.128 -61265 139479.872 -61265 139048.075 -61350.89 138641.331 -61519.369 138275.271 -61763.962 137963.962 -62075.271 137719.369 -62441.331 137550.89 -62848.075 137465 -63279.872 73888.072 -63279.872 73888.072 -62165 73858.999 -61869.814 73772.896 -61585.972 73633.073 -61324.382 73444.903 -61095.097 73215.618 -60906.927 72954.028 -60767.104 72670.186 -60681.001 72375 -60651.928 70625 -60651.928 70329.814 -60681.001 70045.972 -60767.104 69784.382 -60906.927 69555.097 -61095.097 69366.927 -61324.382 69227.104 -61585.972 69141.001 -61869.814 69111.928 -62165 65295.993 -62165 65236.038 -62075.271 64924.729 -61763.962 64558.669 -61519.369 64151.925 -61350.89 63720.128 -61265 63279.872 -61265 62848.075 -61350.89 62441.331 -61519.369 62075.271 -61763.962 61763.962 -62075.271 61519.369 -62441.331 61350.89 -62848.075 61265 -63279.872 56557.707 -63279.872 56614.617 -62495.53 56831.739 -61512.102 57188.546 -60570.325 57677.575 -59689.905 57982.773 -59290 73811.928 -59290 73811.928 -60790 73838.599 -61060.799 73917.589 -61321.192 74045.86 -61561.171 74218.485 -61771.515 74428.829 -61944.14 74668.808 -62072.411 74929.201 -62151.401 75200 -62178.072 77200 -62178.072 77470.799 -62151.401 77731.192 -62072.411 77971.171 -61944.14 78181.515 -61771.515 78354.14 -61561.171 78482.411 -61321.192 78561.401 -61060.799 78588.072 -60790 78588.072 -59290 78561.401 -59019.201 78482.411 -58758.808 78354.14 -58518.829 78181.515 -58308.485 77971.171 -58135.86 77731.192 -58007.589 77470.799 -57928.599 77200 -57901.928 75200 -57901.928 74929.201 -57928.599 74668.808 -58007.589 74428.829 -58135.86 74218.485 -58308.485 74045.86 -58518.829 73917.589 -58758.808 73838.599 -59019.201 73811.928 -59290 57982.773 -59290 58288.569 -58889.313 59008.732 -58185.306 59822.987 -57592.63 60714.269 -57123.704 61663.9 -56788.353 62655.692 -56592.873 63520.164 -56540 139676.08 -56540 140704.47 -56614.617" fill="none" stroke-width="254"/><path d="M 140704.47 -56614.617 141687.898 -56831.739 142629.675 -57188.546 143510.095 -57677.575 144310.687 -58288.569 145014.694 -59008.732 145607.37 -59822.987 146076.296 -60714.269 146411.647 -61663.9 146607.127 -62655.692 146660 -63520.164 146660.001 -114276.08 146585.382 -115304.47 146368.262 -116287.896 146011.454 -117229.675 145522.424 -118110.095 144911.435 -118910.684 144191.268 -119614.694 143377.013 -120207.37 142485.731 -120676.296 141536.099 -121011.647 140544.309 -121207.127 139679.835 -121260 63523.906 -121260 62495.53 -121185.382 61512.104 -120968.262 60570.325 -120611.454 59689.905 -120122.424 58889.316 -119511.435 58185.306 -118791.268 57592.63 -117977.013 57123.704 -117085.731 56788.353 -116136.099 56592.873 -115144.309 56540 -114279.835 56540 -114079.872 61265 -114079.872 61265 -114520.128 61350.89 -114951.925 61519.369 -115358.669 61763.962 -115724.729 62075.271 -116036.038 62441.331 -116280.631 62848.075 -116449.11 63279.872 -116535 63720.128 -116535 64151.925 -116449.11 64558.669 -116280.631 64924.729 -116036.038 65236.038 -115724.729 65480.631 -115358.669 65649.11 -114951.925 65705.394 -114668.967 116555 -114668.967 116555 -114991.033 116617.832 -115306.912 116741.082 -115604.463 116920.013 -115872.252 117147.748 -116099.987 117415.537 -116278.918 117713.088 -116402.168 118028.967 -116465 118351.033 -116465 118666.912 -116402.168 118964.463 -116278.918 119232.252 -116099.987 119459.987 -115872.252 119638.918 -115604.463 119762.168 -115306.912 119825 -114991.033 119825 -114668.967 121555 -114668.967 121555 -114991.033 121617.832 -115306.912 121741.082 -115604.463 121920.013 -115872.252 122147.748 -116099.987 122415.537 -116278.918 122713.088 -116402.168 123028.967 -116465 123351.033 -116465 123666.912 -116402.168 123964.463 -116278.918 124232.252 -116099.987 124459.987 -115872.252 124638.918 -115604.463 124762.168 -115306.912 124825 -114991.033 124825 -114668.967 124762.168 -114353.088 124648.998 -114079.872 137465 -114079.872 137465 -114520.128 137550.89 -114951.925 137719.369 -115358.669 137963.962 -115724.729 138275.271 -116036.038 138641.331 -116280.631 139048.075 -116449.11 139479.872 -116535 139920.128 -116535 140351.925 -116449.11 140758.669 -116280.631 141124.729 -116036.038 141436.038 -115724.729 141680.631 -115358.669 141849.11 -114951.925 141935 -114520.128 141935 -114079.872 141849.11 -113648.075 141680.631 -113241.331 141436.038 -112875.271 141124.729 -112563.962 140758.669 -112319.369 140351.925 -112150.89 139920.128 -112065 139479.872 -112065 139048.075 -112150.89 138641.331 -112319.369 138275.271 -112563.962 137963.962 -112875.271 137719.369 -113241.331 137550.89 -113648.075 137465 -114079.872 124648.998 -114079.872 124638.918 -114055.537 124459.987 -113787.748 124232.252 -113560.013 123964.463 -113381.082 123666.912 -113257.832 123351.033 -113195 123028.967 -113195 122713.088 -113257.832 122415.537 -113381.082 122147.748 -113560.013 121920.013 -113787.748 121741.082 -114055.537 121617.832 -114353.088 121555 -114668.967 119825 -114668.967 119762.168 -114353.088 119638.918 -114055.537 119459.987 -113787.748 119232.252 -113560.013 118964.463 -113381.082 118666.912 -113257.832 118351.033 -113195 118028.967 -113195 117713.088 -113257.832 117415.537 -113381.082 117147.748 -113560.013 116920.013 -113787.748 116741.082 -114055.537 116617.832 -114353.088 116555 -114668.967 65705.394 -114668.967 65735 -114520.128 65735 -114079.872 65649.11 -113648.075 65480.631 -113241.331 65236.038 -112875.271 64924.729 -112563.962 64558.669 -112319.369 64151.925 -112150.89 63720.128 -112065 63279.872 -112065 62848.075 -112150.89 62441.331 -112319.369 62075.271 -112563.962 61763.962 -112875.271 61519.369 -113241.331 61350.89 -113648.075 61265 -114079.872 56540 -114079.872 56540 -106230 113451.928 -106230 113451.928 -109430 113464.188 -109554.482 113500.498 -109674.18 113559.463 -109784.494 113638.815 -109881.185 113735.506 -109960.537 113845.82 -110019.502 113965.518 -110055.812 114090 -110068.072 116090 -110068.072 116214.482 -110055.812 116334.18 -110019.502 116444.494 -109960.537 116541.185 -109881.185 116620.537 -109784.494 116679.502 -109674.18 116715.812 -109554.482 116728.072 -109430 116728.072 -106230 124651.928 -106230 124651.928 -109430 124664.188 -109554.482 124700.498 -109674.18 124759.463 -109784.494 124838.815 -109881.185 124935.506 -109960.537 125045.82 -110019.502 125165.518 -110055.812 125290 -110068.072 127290 -110068.072 127414.482 -110055.812 127534.18 -110019.502 127644.494 -109960.537 127741.185 -109881.185 127820.537 -109784.494 127879.502 -109674.18 127915.812 -109554.482 127928.072 -109430 127928.072 -106230 127915.812 -106105.518 127879.502 -105985.82 127820.537 -105875.506 127741.185 -105778.815 127644.494 -105699.463 127534.18 -105640.498 127414.482 -105604.188 127290 -105591.928 125290 -105591.928 125165.518 -105604.188 125045.82 -105640.498 124935.506 -105699.463 124838.815 -105778.815 124759.463 -105875.506 124700.498 -105985.82 124664.188 -106105.518 124651.928 -106230 116728.072 -106230 116715.812 -106105.518 116679.502 -105985.82 116620.537 -105875.506 116541.185 -105778.815 116444.494 -105699.463 116334.18 -105640.498 116214.482 -105604.188 116090 -105591.928 114090 -105591.928 113965.518 -105604.188 113845.82 -105640.498 113735.506 -105699.463 113638.815 -105778.815 113559.463 -105875.506 113500.498 -105985.82 113464.188 -106105.518 113451.928 -106230 56540 -106230 56540 -63523.92 56557.707 -63279.872 61265 -63279.872 61265 -63720.128 61350.89 -64151.925 61519.369 -64558.669 61763.962 -64924.729 62075.271 -65236.038 62441.331 -65480.631 62848.075 -65649.11 63279.872 -65735 63720.128 -65735 64151.925 -65649.11 64558.669 -65480.631 64924.729 -65236.038 65236.038 -64924.729 65480.631 -64558.669 65649.11 -64151.925 65735 -63720.128 65735 -63279.872 65649.11 -62848.075 65480.631 -62441.331 65295.993 -62165 69111.928 -62165 69111.928 -63915 69141.001 -64210.186 69227.104 -64494.028 69366.927 -64755.618 69555.097 -64984.903 69784.382 -65173.073 70045.972 -65312.896 70329.814 -65398.999 70625 -65428.072 72375 -65428.072 72670.186 -65398.999 72954.028 -65312.896 73215.618 -65173.073 73444.903 -64984.903 73633.073 -64755.618 73772.896 -64494.028 73811.928 -64365.357 73811.928 -67790 73824.188 -67914.482 73860.498 -68034.18 73919.463 -68144.494 73998.815 -68241.185 74095.506 -68320.537 74205.82 -68379.502 74325.518 -68415.812 74450 -68428.072 77950 -68428.072 78074.482 -68415.812 78194.18 -68379.502 78304.494 -68320.537 78401.185 -68241.185 78450.743 -68180.799 78459.104 -68222.834 78530.905 -68396.178 78549.501 -68424.009 78549.5 -88859.45 78545.506 -88900 78549.5 -88940.55 78549.5 -88940.552 78561.444 -89061.825 78596.635 -89177.834 78608.647 -89217.433 78685.301 -89360.842 78695.421 -89373.173 78788.459 -89486.541 78819.966 -89512.398 80667.611 -91360.045 80693.459 -91391.541 80724.955 -91417.389 80724.958 -91417.392 80819.157 -91494.699 80934.825 -91556.525 80962.566 -91571.353 81118.174 -91618.556 81239.447 -91630.5 81239.449 -91630.5 81280 -91634.494 81320.55 -91630.5 84748.068 -91630.5 85534.501 -92416.934 85534.501 -92805.722 85445.241 -92865.363 85245.363 -93065.241 85090 -93297.759 84934.637 -93065.241 84734.759 -92865.363 84499.727 -92708.32 84238.574 -92600.147 83961.335 -92545 83678.665 -92545 83401.426 -92600.147 83140.273 -92708.32 82905.241 -92865.363 82705.363 -93065.241 82548.32 -93300.273 82440.147 -93561.426 82385 -93838.665 82385 -94121.335 82440.147 -94398.574 82548.32 -94659.727 82705.363 -94894.759 82905.241 -95094.637 83140.273 -95251.68 83401.426 -95359.853 83678.665 -95415 83961.335 -95415 84238.574 -95359.853 84499.727 -95251.68 84734.759 -95094.637 84934.637 -94894.759 85090 -94662.241 85245.363 -94894.759 85445.241 -95094.637 85680.273 -95251.68 85941.426 -95359.853 86218.665 -95415 86501.335 -95415 86778.574 -95359.853 87039.727 -95251.68 87274.759 -95094.637 87474.637 -94894.759 87630 -94662.241 87785.363 -94894.759 87985.241 -95094.637 88220.273 -95251.68 88481.426 -95359.853 88758.665 -95415 89041.335 -95415 89318.574 -95359.853 89579.727 -95251.68 89814.759 -95094.637 90014.637 -94894.759 90170 -94662.241 90325.363 -94894.759 90525.241 -95094.637 90614.501 -95154.278 90614.501 -95209.438 90614.5 -95209.448 90614.5 -95543.066 87384.994 -98772.574 87352.166 -98779.104 87178.822 -98850.905 87022.816 -98955.145 86890.145 -99087.816 86785.905 -99243.822 86714.104 -99417.166 86677.5 -99601.187 86677.5 -99788.813 86714.104 -99972.834 86785.905 -100146.178 86890.145 -100302.184 87022.816 -100434.855 87178.822 -100539.095 87352.166 -100610.896 87536.187 -100647.5 87723.813 -100647.5 87907.834 -100610.896 88081.178 -100539.095 88237.184 -100434.855 88369.855 -100302.184 88458.867 -100168.967 116555 -100168.967 116555 -100491.033 116617.832 -100806.912 116741.082 -101104.463 116920.013 -101372.252 117147.748 -101599.987 117415.537 -101778.918 117713.088 -101902.168 118028.967 -101965 118351.033 -101965 118666.912 -101902.168 118964.463 -101778.918 119232.252 -101599.987 119459.987 -101372.252 119524.925 -101275.065 119554.587 -101285.808 120510.395 -100330 119554.587 -99374.192 119524.925 -99384.935 119459.987 -99287.748 119366.826 -99194.587 119734.192 -99194.587 120690 -100150.395 120704.143 -100136.253 120883.748 -100315.858 120869.605 -100330 120883.748 -100344.143 120704.143 -100523.748 120690 -100509.605 119734.192 -101465.413 119829.956 -101729.814 120119.571 -101870.704 120431.108 -101952.384 120752.595 -101971.718 121071.675 -101927.961 121376.088 -101822.795 121550.044 -101729.814 121604.024 -101580.777 121659.463 -101684.494 121738.815 -101781.185 121835.506 -101860.537 121945.82 -101919.502 122065.518 -101955.812 122190 -101968.072 124190 -101968.072 124314.482 -101955.812 124434.18 -101919.502 124544.494 -101860.537 124641.185 -101781.185 124720.537 -101684.494 124779.502 -101574.18 124815.812 -101454.482 124828.072 -101330 124828.072 -99330 124815.812 -99205.518 124779.502 -99085.82 124720.537 -98975.506 124641.185 -98878.815 124544.494 -98799.463 124434.18 -98740.498 124314.482 -98704.188 124190 -98691.928 122190 -98691.928 122065.518 -98704.188 121945.82 -98740.498 121835.506 -98799.463 121738.815 -98878.815 121659.463 -98975.506 121604.024 -99079.223 121550.044 -98930.186 121260.429 -98789.296 120948.892 -98707.616 120627.405 -98688.282 120308.325 -98732.039 120003.912 -98837.205 119829.956 -98930.186 119734.192 -99194.587 119366.826 -99194.587 119232.252 -99060.013 118964.463 -98881.082 118666.912 -98757.832 118351.033 -98695 118028.967 -98695 117713.088 -98757.832 117415.537 -98881.082 117147.748 -99060.013 116920.013 -99287.748 116741.082 -99555.537 116617.832 -99853.088 116555 -100168.967 88458.867 -100168.967 88474.095 -100146.178 88545.896 -99972.834 88552.426 -99940.006 91995.045 -96497.389 92026.541 -96471.541 92052.389 -96440.045 92052.392 -96440.042 92129.699 -96345.843 92206.353 -96202.434 92243.646 -96079.494 92253.556 -96046.826 92265.5 -95925.553 92265.5 -95925.551 92269.494 -95885 92265.5 -95844.45 92265.5 -95154.278 92354.759 -95094.637 92554.637 -94894.759 92710 -94662.241 92865.363 -94894.759 93065.241 -95094.637 93300.273 -95251.68 93561.426 -95359.853 93838.665 -95415 94121.335 -95415 94398.574 -95359.853 94659.727 -95251.68 94894.759 -95094.637 95094.637 -94894.759 95250 -94662.241 95405.363 -94894.759 95605.241 -95094.637 95840.273 -95251.68 96101.426 -95359.853 96378.665 -95415 96661.335 -95415 96938.574 -95359.853 97199.727 -95251.68 97434.759 -95094.637 97634.637 -94894.759 97790 -94662.241 97945.363 -94894.759 98145.241 -95094.637 98380.273 -95251.68 98641.426 -95359.853 98918.665 -95415 99201.335 -95415 99478.574 -95359.853 99739.727 -95251.68 99974.759 -95094.637 100174.637 -94894.759 100331.68 -94659.727 100336.067 -94649.135 100447.615 -94835.131 100636.586 -95043.519 100862.58 -95211.037 101116.913 -95331.246 101250.961 -95371.904 101473 -95249.915 101473 -94107 101453 -94107 101453 -93853 101473 -93853 101473 -92710.085 101727 -92710.085 101727 -93853 101747 -93853 101747 -94107 101727 -94107 101727 -95249.915 101949.039 -95371.904 102083.087 -95331.246 102337.42 -95211.037 102563.414 -95043.519 102752.385 -94835.131 102863.933 -94649.135 102868.32 -94659.727 103025.363 -94894.759 103225.241 -95094.637 103460.273 -95251.68 103721.426 -95359.853 103998.665 -95415 104281.335 -95415 104558.574 -95359.853 104819.727 -95251.68 105054.759 -95094.637 105254.637 -94894.759 105410 -94662.241 105565.363 -94894.759 105765.241 -95094.637 106000.273 -95251.68 106261.426 -95359.853 106538.665 -95415 106821.335 -95415 107098.574 -95359.853 107359.727 -95251.68 107594.759 -95094.637 107794.637 -94894.759 107950 -94662.241 108105.363 -94894.759 108305.241 -95094.637 108540.273 -95251.68 108801.426 -95359.853 109078.665 -95415 109361.335 -95415 109638.574 -95359.853 109899.727 -95251.68 110134.759 -95094.637 110334.637 -94894.759 110490 -94662.241 110645.363 -94894.759 110845.241 -95094.637 111080.273 -95251.68 111341.426 -95359.853 111618.665 -95415 111901.335 -95415 112178.574 -95359.853 112439.727 -95251.68 112674.759 -95094.637 112874.637 -94894.759 113030 -94662.241 113185.363 -94894.759 113385.241 -95094.637 113620.273 -95251.68 113881.426 -95359.853 114158.665 -95415 114441.335 -95415 114718.574 -95359.853 114979.727 -95251.68 115214.759 -95094.637 115414.637 -94894.759 115570 -94662.241 115725.363 -94894.759 115925.241 -95094.637 116160.273 -95251.68 116421.426 -95359.853 116698.665 -95415 116981.335 -95415 117258.574 -95359.853 117519.727 -95251.68 117754.759 -95094.637 117954.637 -94894.759 118111.68 -94659.727 118219.853 -94398.574 118275 -94121.335 118275 -93838.665 118219.853 -93561.426 118111.68 -93300.273 117954.637 -93065.241 117754.759 -92865.363 117519.727 -92708.32 117258.574 -92600.147 116981.335 -92545 116698.665 -92545 116421.426 -92600.147 116160.273 -92708.32 115925.241 -92865.363 115725.363 -93065.241 115570 -93297.759 115414.637 -93065.241 115214.759 -92865.363 114979.727 -92708.32 114718.574 -92600.147 114441.335 -92545 114158.665 -92545 113881.426 -92600.147 113620.273 -92708.32 113385.241 -92865.363 113185.363 -93065.241 113030 -93297.759 112874.637 -93065.241 112674.759 -92865.363 112439.727 -92708.32 112178.574 -92600.147 111901.335 -92545 111618.665 -92545 111341.426 -92600.147 111080.273 -92708.32 110845.241 -92865.363 110645.363 -93065.241 110490 -93297.759 110334.637 -93065.241 110134.759 -92865.363 109899.727 -92708.32 109638.574 -92600.147 109361.335 -92545 109078.665 -92545 108801.426 -92600.147 108540.273 -92708.32 108305.241 -92865.363 108105.363 -93065.241 107950 -93297.759 107794.637 -93065.241 107594.759 -92865.363 107359.727 -92708.32 107098.574 -92600.147 106821.335 -92545 106538.665 -92545 106261.426 -92600.147 106000.273 -92708.32 105765.241 -92865.363 105565.363 -93065.241 105410 -93297.759 105254.637 -93065.241 105054.759 -92865.363 104819.727 -92708.32 104558.574 -92600.147 104281.335 -92545 103998.665 -92545 103721.426 -92600.147 103460.273 -92708.32 103225.241 -92865.363 103025.363 -93065.241 102868.32 -93300.273 102863.933 -93310.865 102752.385 -93124.869 102563.414 -92916.481 102337.42 -92748.963 102083.087 -92628.754 101949.039 -92588.096 101727 -92710.085 101473 -92710.085 101250.961 -92588.096 101116.913 -92628.754 100862.58 -92748.963 100636.586 -92916.481 100447.615 -93124.869 100336.067 -93310.865 100331.68 -93300.273 100174.637 -93065.241 99974.759 -92865.363 99739.727 -92708.32 99478.574 -92600.147 99201.335 -92545 98918.665 -92545 98641.426 -92600.147 98380.273 -92708.32 98145.241 -92865.363 97945.363 -93065.241 97790 -93297.759 97634.637 -93065.241 97434.759 -92865.363 97199.727 -92708.32 96938.574 -92600.147 96661.335 -92545 96582.433 -92545 97015.232 -92112.201 131990.264 -92112.201 131922.068 -92276.842 131865 -92563.74 131865 -92856.26 131922.068 -93143.158 132034.01 -93413.411 132196.525 -93656.632 132403.368 -93863.475 132646.589 -94025.99 132916.842 -94137.932 133203.74 -94195 133496.26 -94195 133783.158 -94137.932 134053.411 -94025.99 134296.632 -93863.475 134503.475 -93656.632 134621.1 -93480.594 134792.412 -93710.269 135008.645 -93905.178 135258.748 -94054.157 135533.109 -94151.481 135763 -94030.814 135763 -92837 136017 -92837 136017 -94030.814 136246.891 -94151.481 136521.252 -94054.157 136771.355 -93905.178 136987.588 -93710.269 137161.641 -93476.92 137286.825 -93214.099 137331.476 -93066.89 137210.155 -92837 136017 -92837 135763 -92837 135743 -92837 135743 -92583 135763 -92583 135763 -92563 136017 -92563 136017 -92583 137210.155 -92583 137331.476 -92353.11 137286.825 -92205.901 137161.641 -91943.08 136987.588 -91709.731 136771.355 -91514.822 136654.466 -91445.195 136836.632 -91323.475 137043.475 -91116.632 137205.99 -90873.411 137317.932 -90603.158 137375 -90316.26 137375 -90023.74 137317.932 -89736.842 137205.99 -89466.589 137043.475 -89223.368 136836.632 -89016.525 136662.24 -88900 136836.632 -88783.475 137043.475 -88576.632 137205.99 -88333.411 137317.932 -88063.158 137375 -87776.26 137375 -87483.74 137317.932 -87196.842 137205.99 -86926.589 137043.475 -86683.368 136836.632 -86476.525 136593.411 -86314.01 136323.158 -86202.068 136036.26 -86145 135743.74 -86145 135456.842 -86202.068 135186.589 -86314.01 134943.368 -86476.525 134811.513 -86608.38 134789.502 -86535.82 134730.537 -86425.506 134651.185 -86328.815 134554.494 -86249.463 134444.18 -86190.498 134324.482 -86154.188 134200 -86141.928 132500 -86141.928 132375.518 -86154.188 132255.82 -86190.498 132145.506 -86249.463 132048.815 -86328.815 131969.463 -86425.506 131910.498 -86535.82 131874.188 -86655.518 131861.928 -86780 131861.928 -86804.5 119420.55 -86804.5 119379.999 -86800.506 119339.449 -86804.5 119339.447 -86804.5 119218.174 -86816.444 119062.566 -86863.647 118969.111 -86913.601 118919.157 -86940.301 118878.24 -86973.881 118793.459 -87043.459 118767.606 -87074.961 117768.068 -88074.5 91919.007 -88074.5 91891.178 -88055.905 91717.834 -87984.104 91533.813 -87947.5 91346.187 -87947.5 91162.166 -87984.104 90988.822 -88055.905 90832.816 -88160.145 90715.197 -88277.764 90147.398 -87709.966 90121.541 -87678.459 89995.842 -87575.301 89852.434 -87498.647 89801.809 -87483.29 89814.759 -87474.637 90014.637 -87274.759 90170 -87042.241 90325.363 -87274.759 90525.241 -87474.637 90760.273 -87631.68 91021.426 -87739.853 91298.665 -87795 91581.335 -87795 91858.574 -87739.853 92119.727 -87631.68 92354.759 -87474.637 92554.637 -87274.759 92710 -87042.241 92865.363 -87274.759 93065.241 -87474.637 93300.273 -87631.68 93561.426 -87739.853 93838.665 -87795 94121.335 -87795 94398.574 -87739.853 94659.727 -87631.68 94894.759 -87474.637 95094.637 -87274.759 95250 -87042.241 95405.363 -87274.759 95605.241 -87474.637 95840.273 -87631.68 96101.426 -87739.853 96378.665 -87795 96661.335 -87795 96938.574 -87739.853 97199.727 -87631.68 97434.759 -87474.637 97634.637 -87274.759 97791.68 -87039.727 97796.067 -87029.135 97907.615 -87215.131 98096.586 -87423.519 98322.58 -87591.037 98576.913 -87711.246 98710.961 -87751.904 98933 -87629.915 98933 -86487 98913 -86487 98913 -86233 98933 -86233 98933 -85090.085 98710.961 -84968.096 98576.913 -85008.754 98322.58 -85128.963 98096.586 -85296.481 97907.615 -85504.869 97796.067 -85690.865 97791.68 -85680.273 97634.637 -85445.241 97434.759 -85245.363 97199.727 -85088.32 96938.574 -84980.147 96661.335 -84925 96378.665 -84925 96101.426 -84980.147 95840.273 -85088.32 95605.241 -85245.363 95405.363 -85445.241 95250 -85677.759 95094.637 -85445.241 94894.759 -85245.363 94659.727 -85088.32 94398.574 -84980.147 94121.335 -84925 93838.665 -84925 93561.426 -84980.147 93300.273 -85088.32 93065.241 -85245.363 92865.363 -85445.241 92710 -85677.759 92554.637 -85445.241 92354.759 -85245.363 92119.727 -85088.32 91858.574 -84980.147 91581.335 -84925 91298.665 -84925 91021.426 -84980.147 90760.273 -85088.32 90525.241 -85245.363 90325.363 -85445.241 90170 -85677.759 90014.637 -85445.241 89814.759 -85245.363 89579.727 -85088.32 89318.574 -84980.147 89041.335 -84925 88758.665 -84925 88481.426 -84980.147 88220.273 -85088.32 87985.241 -85245.363 87785.363 -85445.241 87630 -85677.759 87474.637 -85445.241 87274.759 -85245.363 87039.727 -85088.32 86778.574 -84980.147 86501.335 -84925 86218.665 -84925 85941.426 -84980.147 85680.273 -85088.32 85445.241 -85245.363 85245.363 -85445.241 85090 -85677.759 84934.637 -85445.241 84734.759 -85245.363 84499.727 -85088.32 84238.574 -84980.147 83961.335 -84925 83678.665 -84925 83401.426 -84980.147 83140.273 -85088.32 82905.241 -85245.363 82705.363 -85445.241 82548.32 -85680.273 82440.147 -85941.426 82385 -86218.665 82385 -86501.335 82440.147 -86778.574 82548.32 -87039.727 82705.363 -87274.759 82905.241 -87474.637 83140.273 -87631.68 83401.426 -87739.853 83678.665 -87795 83961.335 -87795 84238.574 -87739.853 84499.727 -87631.68 84734.759 -87474.637 84934.637 -87274.759 85090 -87042.241 85245.363 -87274.759 85445.241 -87474.637 85680.273 -87631.68 85941.426 -87739.853 86218.665 -87795 86501.335 -87795 86778.574 -87739.853 87039.727 -87631.68 87274.759 -87474.637 87474.637 -87274.759 87630 -87042.241 87785.363 -87274.759 87985.241 -87474.637 88199.896 -87618.065 88160.145 -87657.816 88055.905 -87813.822 87984.104 -87987.166 87947.5 -88171.187 87947.5 -88358.813 87984.104 -88542.834 88053.139 -88709.5 82891.933 -88709.5 81892.401 -87709.969 81892.392 -87709.958 81470.5 -87288.067 81470.5 -80010 95435.277 -80010 95456.12 -80221.618 95517.847 -80425.104 95618.087 -80612.639 95719.182 -80735.824 100462.626 -85479.27 100328.32 -85680.273 100323.933 -85690.865 100212.385 -85504.869 100023.414 -85296.481 99797.42 -85128.963 99543.087 -85008.754 99409.039 -84968.096 99187 -85090.085 99187 -86233 99207 -86233 99207 -86487 99187 -86487 99187 -87629.915 99409.039 -87751.904 99543.087 -87711.246 99797.42 -87591.037 100023.414 -87423.519 100212.385 -87215.131 100323.933 -87029.135 100328.32 -87039.727 100485.363 -87274.759 100685.241 -87474.637 100920.273 -87631.68 101181.426 -87739.853 101458.665 -87795 101741.335 -87795 102018.574 -87739.853 102279.727 -87631.68 102514.759 -87474.637 102714.637 -87274.759 102870 -87042.241 103025.363 -87274.759 103225.241 -87474.637 103460.273 -87631.68 103721.426 -87739.853 103998.665 -87795 104281.335 -87795 104558.574 -87739.853 104819.727 -87631.68 105054.759 -87474.637 105254.637 -87274.759 105410 -87042.241 105565.363 -87274.759 105765.241 -87474.637 106000.273 -87631.68 106261.426 -87739.853 106538.665 -87795 106821.335 -87795 107098.574 -87739.853 107359.727 -87631.68 107594.759 -87474.637 107794.637 -87274.759 107950 -87042.241 108105.363 -87274.759 108305.241 -87474.637 108540.273 -87631.68 108801.426 -87739.853 109078.665 -87795 109361.335 -87795 109638.574 -87739.853 109899.727 -87631.68 110134.759 -87474.637 110334.637 -87274.759 110490 -87042.241 110645.363 -87274.759 110845.241 -87474.637 111080.273 -87631.68 111341.426 -87739.853 111618.665 -87795 111901.335 -87795 112178.574 -87739.853 112439.727 -87631.68 112674.759 -87474.637 112874.637 -87274.759 113030 -87042.241 113185.363 -87274.759 113385.241 -87474.637 113620.273 -87631.68 113881.426 -87739.853 114158.665 -87795 114441.335 -87795 114718.574 -87739.853 114979.727 -87631.68 115214.759 -87474.637 115413.357 -87276.039 115414.188 -87284.482 115450.498 -87404.18 115509.463 -87514.494 115588.815 -87611.185 115685.506 -87690.537 115795.82 -87749.502 115915.518 -87785.812 116040 -87798.072 117640 -87798.072 117764.482 -87785.812 117884.18 -87749.502 117994.494 -87690.537 118091.185 -87611.185 118170.537 -87514.494 118229.502 -87404.18 118265.812 -87284.482 118278.072 -87160 118278.072 -85560 118265.812 -85435.518 118229.502 -85315.82 118170.537 -85205.506 118091.185 -85108.815 117994.494 -85029.463 117884.18 -84970.498 117764.482 -84934.188 117640 -84921.928 116040 -84921.928 115915.518 -84934.188 115795.82 -84970.498 115685.506 -85029.463 115588.815 -85108.815 115509.463 -85205.506 115450.498 -85315.82 115414.188 -85435.518 115413.357 -85443.961 115214.759 -85245.363 114979.727 -85088.32 114718.574 -84980.147 114441.335 -84925 114158.665 -84925 113881.426 -84980.147 113620.273 -85088.32 113385.241 -85245.363 113185.363 -85445.241 113030 -85677.759 112874.637 -85445.241 112674.759 -85245.363 112439.727 -85088.32 112178.574 -84980.147 111901.335 -84925 111618.665 -84925 111341.426 -84980.147 111080.273 -85088.32 110845.241 -85245.363 110645.363 -85445.241 110490 -85677.759 110334.637 -85445.241 110134.759 -85245.363 109899.727 -85088.32 109638.574 -84980.147 109361.335 -84925 109078.665 -84925 108801.426 -84980.147 108540.273 -85088.32 108305.241 -85245.363 108105.363 -85445.241 107950 -85677.759 107794.637 -85445.241 107594.759 -85245.363 107359.727 -85088.32 107098.574 -84980.147 106821.335 -84925 106538.665 -84925 106261.426 -84980.147 106000.273 -85088.32 105765.241 -85245.363 105565.363 -85445.241 105410 -85677.759 105254.637 -85445.241 105054.759 -85245.363 104819.727 -85088.32 104558.574 -84980.147 104281.335 -84925 103998.665 -84925 103721.426 -84980.147 103460.273 -85088.32 103225.241 -85245.363 103025.363 -85445.241 102870 -85677.759 102714.637 -85445.241 102679.5 -85410.104 102679.5 -85143.029 102684.723 -85090 102663.88 -84878.381 102602.153 -84674.895 102602.153 -84674.894 102501.914 -84487.36 102367.015 -84322.985 102325.826 -84289.182 98545.232 -80508.589 106130 -80508.589 106130 -80781.411 106183.225 -81048.989 106287.629 -81301.043 106439.201 -81527.886 106632.114 -81720.799 106858.957 -81872.371 107111.011 -81976.775 107378.589 -82030 107651.411 -82030 107918.989 -81976.775 108171.043 -81872.371 108397.886 -81720.799 108590.799 -81527.886 108742.371 -81301.043 108846.775 -81048.989 108900 -80781.411 108900 -80508.589 111010 -80508.589 111010 -80781.411 111063.225 -81048.989 111167.629 -81301.043 111319.201 -81527.886 111512.114 -81720.799 111738.957 -81872.371 111991.011 -81976.775 112258.589 -82030 112531.411 -82030 112798.989 -81976.775 113051.043 -81872.371 113277.886 -81720.799 113470.799 -81527.886 113622.371 -81301.043 113726.775 -81048.989 113780 -80781.411 113780 -80508.589 113726.775 -80241.011 113622.371 -79988.957 113470.799 -79762.114 113277.886 -79569.201 113051.043 -79417.629 112798.989 -79313.225 112531.411 -79260 112258.589 -79260 111991.011 -79313.225 111738.957 -79417.629 111512.114 -79569.201 111319.201 -79762.114 111167.629 -79988.957 111063.225 -80241.011 111010 -80508.589 108900 -80508.589 108846.775 -80241.011 108742.371 -79988.957 108590.799 -79762.114 108397.886 -79569.201 108171.043 -79417.629 107918.989 -79313.225 107651.411 -79260 107378.589 -79260 107111.011 -79313.225 106858.957 -79417.629 106632.114 -79569.201 106439.201 -79762.114 106287.629 -79988.957 106183.225 -80241.011 106130 -80508.589 98545.232 -80508.589 97245.824 -79209.182 97122.639 -79108.087 96935.104 -79007.847 96731.618 -78946.12 96520 -78925.277 96308.382 -78946.12 96104.896 -79007.847 95917.361 -79108.087 95752.986 -79242.986 95618.087 -79407.361 95517.847 -79594.896 95456.12 -79798.382 95435.277 -80010 81470.5 -80010 81470.5 -69748.061 85833 -69748.061 85833 -69951.939 85872.774 -70151.898 85950.795 -70340.256 86047.51 -70485 85950.795 -70629.744 85872.774 -70818.102 85833 -71018.061 85833 -71221.939 85872.774 -71421.898 85950.795 -71610.256 86042.501 -71747.504 86042.5 -73619.449 86038.506 -73660 86042.5 -73700.55 86042.5 -73700.552 86054.444 -73821.825 86090.961 -73942.205 86101.647 -73977.433 86178.301 -74120.842 86188.421 -74133.173 86281.459 -74246.541 86312.966 -74272.398 89430.606 -77390.039 89456.459 -77421.541 89520.596 -77474.177 89582.157 -77524.699 89725.566 -77601.353 89881.174 -77648.556 90002.447 -77660.5 90002.449 -77660.5 90042.999 -77664.494 90083.55 -77660.5 95971.45 -77660.5 96012 -77664.494 96052.55 -77660.5 96052.553 -77660.5 96173.826 -77648.556 96329.434 -77601.353 96472.842 -77524.699 96598.541 -77421.541 96624.398 -77390.034 100798.933 -73215.5 106861.393 -73215.5 106889.222 -73234.095 107062.566 -73305.896 107246.587 -73342.5 107434.213 -73342.5 107618.234 -73305.896 107791.578 -73234.095 107819.407 -73215.5 111661.993 -73215.5 111689.822 -73234.095 111863.166 -73305.896 112047.187 -73342.5 112234.813 -73342.5 112418.834 -73305.896 112592.178 -73234.095 112620.007 -73215.5 115471.993 -73215.5 115499.822 -73234.095 115673.166 -73305.896 115857.187 -73342.5 116044.813 -73342.5 116228.834 -73305.896 116402.178 -73234.095 116430.007 -73215.5 123091.993 -73215.5 123119.822 -73234.095 123293.166 -73305.896 123477.187 -73342.5 123664.813 -73342.5 123848.834 -73305.896 124022.178 -73234.095 124178.184 -73129.855 124310.855 -72997.184 124415.095 -72841.178 124486.896 -72667.834 124504.268 -72580.5 129822.993 -72580.5 129850.822 -72599.095 130024.166 -72670.896 130208.187 -72707.5 130395.813 -72707.5 130579.834 -72670.896 130753.178 -72599.095 130909.184 -72494.855 131041.855 -72362.184 131146.095 -72206.178 131217.896 -72032.834 131254.5 -71848.813 131254.5 -71661.187 131217.896 -71477.166 131146.095 -71303.822 131041.855 -71147.816 130909.184 -71015.145 130753.178 -70910.905 130579.834 -70839.104 130436.143 -70810.522 130454.999 -70764.999 130626.178 -70694.095 130782.184 -70589.855 130914.855 -70457.184 131019.095 -70301.178 131090.896 -70127.834 131127.5 -69943.813 131127.5 -69756.187 131090.896 -69572.166 131019.095 -69398.822 130914.855 -69242.816 130782.184 -69110.145 130626.178 -69005.905 130452.834 -68934.104 130268.813 -68897.5 130081.187 -68897.5 129897.166 -68934.104 129723.822 -69005.905 129695.993 -69024.5 126917.268 -69024.5 126899.896 -68937.166 126828.095 -68763.822 126723.855 -68607.816 126625.441 -68509.402 126701.095 -68396.178 126772.896 -68222.834 126790.268 -68135.5 126901.993 -68135.5 126929.822 -68154.095 127103.166 -68225.896 127287.187 -68262.5 127474.813 -68262.5 127658.834 -68225.896 127832.178 -68154.095 127988.184 -68049.855 128120.855 -67917.184 128225.095 -67761.178 128296.896 -67587.834 128333.5 -67403.813 128333.5 -67216.187 128296.896 -67032.166 128225.095 -66858.822 128120.855 -66702.816 127988.184 -66570.145 127832.178 -66465.905 127658.834 -66394.104 127474.813 -66357.5 127287.187 -66357.5 127103.166 -66394.104 126929.822 -66465.905 126901.993 -66484.5 118716.007 -66484.5 118688.178 -66465.905 118514.834 -66394.104 118330.813 -66357.5 118143.187 -66357.5 117959.166 -66394.104 117785.822 -66465.905 117757.993 -66484.5 111096.007 -66484.5 111068.178 -66465.905 110894.834 -66394.104 110710.813 -66357.5 110523.187 -66357.5 110339.166 -66394.104 110165.822 -66465.905 110137.993 -66484.5 103583.361 -66484.5 103491.178 -66422.905 103317.834 -66351.104 103133.813 -66314.5 102946.187 -66314.5 102762.166 -66351.104 102588.822 -66422.905 102496.639 -66484.5 87670.55 -66484.5 87630 -66480.506 87589.449 -66484.5 87589.447 -66484.5 87468.174 -66496.444 87312.566 -66543.647 87169.157 -66620.301 87074.958 -66697.608 87074.955 -66697.611 87043.459 -66723.459 87017.611 -66754.956 86312.961 -67459.607 86281.46 -67485.459 86255.609 -67516.959 86178.301 -67611.158 86101.647 -67754.567 86054.445 -67910.174 86038.506 -68072 86042.501 -68112.56 86042.5 -69222.497 85950.795 -69359.744 85872.774 -69548.102 85833 -69748.061 81470.5 -69748.061 81470.5 -69059.007 81489.095 -69031.178 81560.896 -68857.834 81597.5 -68673.813 81597.5 -68486.187 81560.896 -68302.166 81489.095 -68128.822 81384.855 -67972.816 81252.184 -67840.145 81096.178 -67735.905 80922.834 -67664.104 80738.813 -67627.5 80551.187 -67627.5 80367.166 -67664.104 80296.139 -67693.524 80290.896 -67667.166 80219.095 -67493.822 80114.855 -67337.816 79982.184 -67205.145 79826.178 -67100.905 79652.834 -67029.104 79468.813 -66992.5 79281.187 -66992.5 79097.166 -67029.104 78923.822 -67100.905 78767.816 -67205.145 78635.145 -67337.816 78588.072 -67408.266 78588.072 -64290 78575.812 -64165.518 78539.502 -64045.82 78480.537 -63935.506 78401.185 -63838.815 78304.494 -63759.463 78194.18 -63700.498 78074.482 -63664.188 77950 -63651.928 74450 -63651.928 74325.518 -63664.188 74205.82 -63700.498 74095.506 -63759.463 73998.815 -63838.815 73919.463 -63935.506 73878.506 -64012.131 73888.072 -63915 73888.072 -63279.872 137465 -63279.872 137465 -63720.128 137550.89 -64151.925 137719.369 -64558.669 137963.962 -64924.729 138275.271 -65236.038 138641.331 -65480.631 139048.075 -65649.11 139479.872 -65735 139920.128 -65735 140351.925 -65649.11 140758.669 -65480.631 141124.729 -65236.038 141436.038 -64924.729 141680.631 -64558.669 141849.11 -64151.925 141935 -63720.128 141935 -63279.872 141849.11 -62848.075 141680.631 -62441.331 141436.038 -62075.271 141124.729 -61763.962 140758.669 -61519.369 140351.925 -61350.89 139920.128 -61265 139479.872 -61265 139048.075 -61350.89 138641.331 -61519.369 138275.271 -61763.962 137963.962 -62075.271 137719.369 -62441.331 137550.89 -62848.075 137465 -63279.872 73888.072 -63279.872 73888.072 -62165 73858.999 -61869.814 73772.896 -61585.972 73633.073 -61324.382 73444.903 -61095.097 73215.618 -60906.927 72954.028 -60767.104 72670.186 -60681.001 72375 -60651.928 70625 -60651.928 70329.814 -60681.001 70045.972 -60767.104 69784.382 -60906.927 69555.097 -61095.097 69366.927 -61324.382 69227.104 -61585.972 69141.001 -61869.814 69111.928 -62165 65295.993 -62165 65236.038 -62075.271 64924.729 -61763.962 64558.669 -61519.369 64151.925 -61350.89 63720.128 -61265 63279.872 -61265 62848.075 -61350.89 62441.331 -61519.369 62075.271 -61763.962 61763.962 -62075.271 61519.369 -62441.331 61350.89 -62848.075 61265 -63279.872 56557.707 -63279.872 56614.617 -62495.53 56831.739 -61512.102 57188.546 -60570.325 57677.575 -59689.905 57982.773 -59290 73811.928 -59290 73811.928 -60790 73838.599 -61060.799 73917.589 -61321.192 74045.86 -61561.171 74218.485 -61771.515 74428.829 -61944.14 74668.808 -62072.411 74929.201 -62151.401 75200 -62178.072 77200 -62178.072 77470.799 -62151.401 77731.192 -62072.411 77971.171 -61944.14 78181.515 -61771.515 78354.14 -61561.171 78482.411 -61321.192 78561.401 -61060.799 78588.072 -60790 78588.072 -59290 78561.401 -59019.201 78482.411 -58758.808 78354.14 -58518.829 78181.515 -58308.485 77971.171 -58135.86 77731.192 -58007.589 77470.799 -57928.599 77200 -57901.928 75200 -57901.928 74929.201 -57928.599 74668.808 -58007.589 74428.829 -58135.86 74218.485 -58308.485 74045.86 -58518.829 73917.589 -58758.808 73838.599 -59019.201 73811.928 -59290 57982.773 -59290 58288.569 -58889.313 59008.732 -58185.306 59822.987 -57592.63 60714.269 -57123.704 61663.9 -56788.353 62655.692 -56592.873 63520.164 -56540 139676.08 -56540 140704.47 -56614.617"/></g><g id="UKnoLhQQDk5p_bottom_soldermask"><use xlink:href="#YjiK3IssMv4V_pad-10" x="116840" y="-93980"/><use xlink:href="#YjiK3IssMv4V_pad-10" x="83820" y="-86360"/><use xlink:href="#YjiK3IssMv4V_pad-10" x="114300" y="-93980"/><use xlink:href="#YjiK3IssMv4V_pad-10" x="86360" y="-86360"/><use xlink:href="#YjiK3IssMv4V_pad-10" x="111760" y="-93980"/><use xlink:href="#YjiK3IssMv4V_pad-10" x="88900" y="-86360"/><use xlink:href="#YjiK3IssMv4V_pad-10" x="109220" y="-93980"/><use xlink:href="#YjiK3IssMv4V_pad-10" x="91440" y="-86360"/><use xlink:href="#YjiK3IssMv4V_pad-10" x="106680" y="-93980"/><use xlink:href="#YjiK3IssMv4V_pad-10" x="93980" y="-86360"/><use xlink:href="#YjiK3IssMv4V_pad-10" x="104140" y="-93980"/><use xlink:href="#YjiK3IssMv4V_pad-10" x="96520" y="-86360"/><use xlink:href="#YjiK3IssMv4V_pad-10" x="101600" y="-93980"/><use xlink:href="#YjiK3IssMv4V_pad-10" x="99060" y="-86360"/><use xlink:href="#YjiK3IssMv4V_pad-10" x="99060" y="-93980"/><use xlink:href="#YjiK3IssMv4V_pad-10" x="101600" y="-86360"/><use xlink:href="#YjiK3IssMv4V_pad-10" x="96520" y="-93980"/><use xlink:href="#YjiK3IssMv4V_pad-10" x="104140" y="-86360"/><use xlink:href="#YjiK3IssMv4V_pad-10" x="93980" y="-93980"/><use xlink:href="#YjiK3IssMv4V_pad-10" x="106680" y="-86360"/><use xlink:href="#YjiK3IssMv4V_pad-10" x="91440" y="-93980"/><use xlink:href="#YjiK3IssMv4V_pad-10" x="109220" y="-86360"/><use xlink:href="#YjiK3IssMv4V_pad-10" x="88900" y="-93980"/><use xlink:href="#YjiK3IssMv4V_pad-10" x="111760" y="-86360"/><use xlink:href="#YjiK3IssMv4V_pad-10" x="86360" y="-93980"/><use xlink:href="#YjiK3IssMv4V_pad-10" x="114300" y="-86360"/><use xlink:href="#YjiK3IssMv4V_pad-10" x="83820" y="-93980"/><use xlink:href="#YjiK3IssMv4V_pad-11" x="116840" y="-86360"/><use xlink:href="#YjiK3IssMv4V_pad-12" x="107515" y="-80645"/><use xlink:href="#YjiK3IssMv4V_pad-12" x="112395" y="-80645"/><use xlink:href="#YjiK3IssMv4V_pad-13" x="135890" y="-92710"/><use xlink:href="#YjiK3IssMv4V_pad-13" x="133350" y="-92710"/><use xlink:href="#YjiK3IssMv4V_pad-13" x="135890" y="-90170"/><use xlink:href="#YjiK3IssMv4V_pad-13" x="133350" y="-90170"/><use xlink:href="#YjiK3IssMv4V_pad-13" x="135890" y="-87630"/><use xlink:href="#YjiK3IssMv4V_pad-14" x="133350" y="-87630"/><path d="M 70625 -61290 72375 -61290 A 875 875 0 0 0 73250 -62165 L 73250 -63915 A 875 875 0 0 0 72375 -64790 L 70625 -64790 A 875 875 0 0 0 69750 -63915 L 69750 -62165 A 875 875 0 0 0 70625 -61290"/><path d="M 75200 -58540 77200 -58540 A 750 750 0 0 0 77950 -59290 L 77950 -60790 A 750 750 0 0 0 77200 -61540 L 75200 -61540 A 750 750 0 0 0 74450 -60790 L 74450 -59290 A 750 750 0 0 0 75200 -58540"/><use xlink:href="#YjiK3IssMv4V_pad-15" x="76200" y="-66040"/><use xlink:href="#YjiK3IssMv4V_pad-16" x="123190" y="-100330"/><use xlink:href="#YjiK3IssMv4V_pad-17" x="120690" y="-100330"/><use xlink:href="#YjiK3IssMv4V_pad-17" x="118190" y="-100330"/><use xlink:href="#YjiK3IssMv4V_pad-18" x="126290" y="-107830"/><use xlink:href="#YjiK3IssMv4V_pad-18" x="115090" y="-107830"/><use xlink:href="#YjiK3IssMv4V_pad-17" x="123190" y="-114830"/><use xlink:href="#YjiK3IssMv4V_pad-17" x="118190" y="-114830"/><use xlink:href="#YjiK3IssMv4V_pad-19" x="63500" y="-114300"/><use xlink:href="#YjiK3IssMv4V_pad-19" x="139700" y="-114300"/><use xlink:href="#YjiK3IssMv4V_pad-19" x="63500" y="-63500"/><use xlink:href="#YjiK3IssMv4V_pad-19" x="139700" y="-63500"/></g><g id="UKnoLhQQDk5p_bottom_silkscreen"><path d="M 137978.571 -69866.666 138026.19 -70009.523 138073.809 -70057.142 138169.047 -70104.761 138311.904 -70104.761 138407.142 -70057.142 138454.761 -70009.523 138502.38 -69914.285 138502.38 -69533.333 137502.38 -69533.333 137502.38 -69866.666 137550 -69961.904 137597.619 -70009.523 137692.857 -70057.142 137788.095 -70057.142 137883.333 -70009.523 137930.952 -69961.904 137978.571 -69866.666 137978.571 -69533.333 M 138502.38 -71009.523 138502.38 -70533.333 137502.38 -70533.333 M 138216.666 -71295.238 138216.666 -71771.428 M 138502.38 -71200 137502.38 -71533.333 138502.38 -71866.666 M 138502.38 -72200 137502.38 -72200 M 138454.761 -72628.571 138502.38 -72771.428 138502.38 -73009.523 138454.761 -73104.761 138407.142 -73152.38 138311.904 -73200 138216.666 -73200 138121.428 -73152.38 138073.809 -73104.761 138026.19 -73009.523 137978.571 -72819.047 137930.952 -72723.809 137883.333 -72676.19 137788.095 -72628.571 137692.857 -72628.571 137597.619 -72676.19 137550 -72723.809 137502.38 -72819.047 137502.38 -73057.142 137550 -73200 M 137978.571 -73628.571 137978.571 -73961.904 M 138502.38 -74104.761 138502.38 -73628.571 137502.38 -73628.571 137502.38 -74104.761 M 137502.38 -75152.38 137502.38 -75723.809 M 138502.38 -75438.095 137502.38 -75438.095 M 138502.38 -76057.142 137502.38 -76057.142 M 137978.571 -76057.142 137978.571 -76628.571 M 138502.38 -76628.571 137502.38 -76628.571 M 137502.38 -77295.238 137502.38 -77485.714 137550 -77580.952 137645.238 -77676.19 137835.714 -77723.809 138169.047 -77723.809 138359.523 -77676.19 138454.761 -77580.952 138502.38 -77485.714 138502.38 -77295.238 138454.761 -77200 138359.523 -77104.761 138169.047 -77057.142 137835.714 -77057.142 137645.238 -77104.761 137550 -77200 137502.38 -77295.238 M 138502.38 -78152.38 137502.38 -78152.38 138216.666 -78485.714 137502.38 -78819.047 138502.38 -78819.047 M 138502.38 -79295.238 137502.38 -79295.238 137502.38 -79676.19 137550 -79771.428 137597.619 -79819.047 137692.857 -79866.666 137835.714 -79866.666 137930.952 -79819.047 137978.571 -79771.428 138026.19 -79676.19 138026.19 -79295.238 M 138454.761 -80247.619 138502.38 -80390.476 138502.38 -80628.571 138454.761 -80723.809 138407.142 -80771.428 138311.904 -80819.047 138216.666 -80819.047 138121.428 -80771.428 138073.809 -80723.809 138026.19 -80628.571 137978.571 -80438.095 137930.952 -80342.857 137883.333 -80295.238 137788.095 -80247.619 137692.857 -80247.619 137597.619 -80295.238 137550 -80342.857 137502.38 -80438.095 137502.38 -80676.19 137550 -80819.047 M 137502.38 -81438.095 137502.38 -81628.571 137550 -81723.809 137645.238 -81819.047 137835.714 -81866.666 138169.047 -81866.666 138359.523 -81819.047 138454.761 -81723.809 138502.38 -81628.571 138502.38 -81438.095 138454.761 -81342.857 138359.523 -81247.619 138169.047 -81200 137835.714 -81200 137645.238 -81247.619 137550 -81342.857 137502.38 -81438.095 M 138502.38 -82295.238 137502.38 -82295.238 138502.38 -82866.666 137502.38 -82866.666 M 139152.38 -71700 139961.904 -71700 140057.142 -71747.619 140104.761 -71795.238 140152.38 -71890.476 140152.38 -72080.952 140104.761 -72176.19 140057.142 -72223.809 139961.904 -72271.428 139152.38 -72271.428 M 139152.38 -72652.38 140152.38 -72890.476 139438.095 -73080.952 140152.38 -73271.428 139152.38 -73509.523 M 140152.38 -74652.38 139152.38 -74652.38 139866.666 -74985.714 139152.38 -75319.047 140152.38 -75319.047 M 139866.666 -75747.619 139866.666 -76223.809 M 140152.38 -75652.38 139152.38 -75985.714 140152.38 -76319.047 M 140152.38 -76652.38 139152.38 -76652.38 139152.38 -76890.476 139200 -77033.333 139295.238 -77128.571 139390.476 -77176.19 139580.952 -77223.809 139723.809 -77223.809 139914.285 -77176.19 140009.523 -77128.571 140104.761 -77033.333 140152.38 -76890.476 140152.38 -76652.38 M 140152.38 -77652.38 139152.38 -77652.38 M 140104.761 -78080.952 140152.38 -78223.809 140152.38 -78461.904 140104.761 -78557.142 140057.142 -78604.761 139961.904 -78652.38 139866.666 -78652.38 139771.428 -78604.761 139723.809 -78557.142 139676.19 -78461.904 139628.571 -78271.428 139580.952 -78176.19 139533.333 -78128.571 139438.095 -78080.952 139342.857 -78080.952 139247.619 -78128.571 139200 -78176.19 139152.38 -78271.428 139152.38 -78509.523 139200 -78652.38 M 139152.38 -79271.428 139152.38 -79461.904 139200 -79557.142 139295.238 -79652.38 139485.714 -79700 139819.047 -79700 140009.523 -79652.38 140104.761 -79557.142 140152.38 -79461.904 140152.38 -79271.428 140104.761 -79176.19 140009.523 -79080.952 139819.047 -79033.333 139485.714 -79033.333 139295.238 -79080.952 139200 -79176.19 139152.38 -79271.428 M 140152.38 -80128.571 139152.38 -80128.571 140152.38 -80700 139152.38 -80700 M 141802.38 -69461.904 140802.38 -69461.904 M 141802.38 -69938.095 140802.38 -69938.095 141802.38 -70509.523 140802.38 -70509.523 M 141754.761 -70938.095 141802.38 -71080.952 141802.38 -71319.047 141754.761 -71414.285 141707.142 -71461.904 141611.904 -71509.523 141516.666 -71509.523 141421.428 -71461.904 141373.809 -71414.285 141326.19 -71319.047 141278.571 -71128.571 141230.952 -71033.333 141183.333 -70985.714 141088.095 -70938.095 140992.857 -70938.095 140897.619 -70985.714 140850 -71033.333 140802.38 -71128.571 140802.38 -71366.666 140850 -71509.523 M 140802.38 -71795.238 140802.38 -72366.666 M 141802.38 -72080.952 140802.38 -72080.952 M 141802.38 -73271.428 141326.19 -72938.095 M 141802.38 -72700 140802.38 -72700 140802.38 -73080.952 140850 -73176.19 140897.619 -73223.809 140992.857 -73271.428 141135.714 -73271.428 141230.952 -73223.809 141278.571 -73176.19 141326.19 -73080.952 141326.19 -72700 M 140802.38 -73700 141611.904 -73700 141707.142 -73747.619 141754.761 -73795.238 141802.38 -73890.476 141802.38 -74080.952 141754.761 -74176.19 141707.142 -74223.809 141611.904 -74271.428 140802.38 -74271.428 M 141802.38 -74747.619 140802.38 -74747.619 141516.666 -75080.952 140802.38 -75414.285 141802.38 -75414.285 M 141278.571 -75890.476 141278.571 -76223.809 M 141802.38 -76366.666 141802.38 -75890.476 140802.38 -75890.476 140802.38 -76366.666 M 141802.38 -76795.238 140802.38 -76795.238 141802.38 -77366.666 140802.38 -77366.666 M 140802.38 -77700 140802.38 -78271.428 M 141802.38 -77985.714 140802.38 -77985.714 M 141754.761 -79319.047 141802.38 -79461.904 141802.38 -79700 141754.761 -79795.238 141707.142 -79842.857 141611.904 -79890.476 141516.666 -79890.476 141421.428 -79842.857 141373.809 -79795.238 141326.19 -79700 141278.571 -79509.523 141230.952 -79414.285 141183.333 -79366.666 141088.095 -79319.047 140992.857 -79319.047 140897.619 -79366.666 140850 -79414.285 140802.38 -79509.523 140802.38 -79747.619 140850 -79890.476 M 141802.38 -80319.047 140802.38 -80319.047 M 141278.571 -80319.047 141278.571 -80890.476 M 141802.38 -80890.476 140802.38 -80890.476 M 140802.38 -81557.142 140802.38 -81747.619 140850 -81842.857 140945.238 -81938.095 141135.714 -81985.714 141469.047 -81985.714 141659.523 -81938.095 141754.761 -81842.857 141802.38 -81747.619 141802.38 -81557.142 141754.761 -81461.904 141659.523 -81366.666 141469.047 -81319.047 141135.714 -81319.047 140945.238 -81366.666 140850 -81461.904 140802.38 -81557.142 M 141802.38 -82414.285 140802.38 -82414.285 140802.38 -82795.238 140850 -82890.476 140897.619 -82938.095 140992.857 -82985.714 141135.714 -82985.714 141230.952 -82938.095 141278.571 -82890.476 141326.19 -82795.238 141326.19 -82414.285" fill="none" stroke-width="150"/></g><g id="UKnoLhQQDk5p_bottom_drill1" transform="scale(25.4,25.4)"><use xlink:href="#lgVeqtgtzq5p_pad-1" x="2500" y="-4500"/><use xlink:href="#lgVeqtgtzq5p_pad-1" x="5500" y="-4500"/><use xlink:href="#lgVeqtgtzq5p_pad-1" x="2500" y="-2500"/><use xlink:href="#lgVeqtgtzq5p_pad-1" x="5500" y="-2500"/></g><g id="UKnoLhQQDk5p_bottom_drill2" transform="scale(25.4,25.4)"><use xlink:href="#mJw17HJzOdIq_pad-1" x="3125" y="-2675"/><use xlink:href="#mJw17HJzOdIq_pad-1" x="3150" y="-2725"/><use xlink:href="#mJw17HJzOdIq_pad-1" x="3175" y="-2700"/><use xlink:href="#mJw17HJzOdIq_pad-1" x="3420" y="-2750"/><use xlink:href="#mJw17HJzOdIq_pad-1" x="3420" y="-2800"/><use xlink:href="#mJw17HJzOdIq_pad-1" x="3450" y="-3925"/><use xlink:href="#mJw17HJzOdIq_pad-1" x="3500" y="-3475"/><use xlink:href="#mJw17HJzOdIq_pad-1" x="3570" y="-2775"/><use xlink:href="#mJw17HJzOdIq_pad-1" x="3570" y="-2825"/><use xlink:href="#mJw17HJzOdIq_pad-1" x="3600" y="-3500"/><use xlink:href="#mJw17HJzOdIq_pad-1" x="3630" y="-2750"/><use xlink:href="#mJw17HJzOdIq_pad-1" x="3630" y="-2800"/><use xlink:href="#mJw17HJzOdIq_pad-1" x="3630" y="-2850"/><use xlink:href="#mJw17HJzOdIq_pad-1" x="3780" y="-2775"/><use xlink:href="#mJw17HJzOdIq_pad-1" x="3780" y="-2825"/><use xlink:href="#mJw17HJzOdIq_pad-1" x="3780" y="-2825"/><use xlink:href="#mJw17HJzOdIq_pad-1" x="3780" y="-2875"/><use xlink:href="#mJw17HJzOdIq_pad-1" x="3800" y="-3150"/><use xlink:href="#mJw17HJzOdIq_pad-1" x="4000" y="-2675"/><use xlink:href="#mJw17HJzOdIq_pad-1" x="4030" y="-2700"/><use xlink:href="#mJw17HJzOdIq_pad-1" x="4056.7" y="-2648.3"/><use xlink:href="#mJw17HJzOdIq_pad-1" x="4057" y="-2725"/><use xlink:href="#mJw17HJzOdIq_pad-1" x="4113" y="-2825"/><use xlink:href="#mJw17HJzOdIq_pad-1" x="4169" y="-2800"/><use xlink:href="#mJw17HJzOdIq_pad-1" x="4200" y="-2775"/><use xlink:href="#mJw17HJzOdIq_pad-1" x="4226" y="-2750"/><use xlink:href="#mJw17HJzOdIq_pad-1" x="4226" y="-2850"/><use xlink:href="#mJw17HJzOdIq_pad-1" x="4305" y="-2675"/><use xlink:href="#mJw17HJzOdIq_pad-1" x="4330" y="-2700"/><use xlink:href="#mJw17HJzOdIq_pad-1" x="4355" y="-2650"/><use xlink:href="#mJw17HJzOdIq_pad-1" x="4360" y="-2725"/><use xlink:href="#mJw17HJzOdIq_pad-1" x="4415" y="-2850"/><use xlink:href="#mJw17HJzOdIq_pad-1" x="4470" y="-2800"/><use xlink:href="#mJw17HJzOdIq_pad-1" x="4500" y="-2775"/><use xlink:href="#mJw17HJzOdIq_pad-1" x="4525" y="-2750"/><use xlink:href="#mJw17HJzOdIq_pad-1" x="4527" y="-2825"/><use xlink:href="#mJw17HJzOdIq_pad-1" x="4565" y="-2850"/><use xlink:href="#mJw17HJzOdIq_pad-1" x="4630" y="-2700"/><use xlink:href="#mJw17HJzOdIq_pad-1" x="4655" y="-2650"/><use xlink:href="#mJw17HJzOdIq_pad-1" x="4655" y="-2725"/><use xlink:href="#mJw17HJzOdIq_pad-1" x="4710" y="-2675"/><use xlink:href="#mJw17HJzOdIq_pad-1" x="4770" y="-2800"/><use xlink:href="#mJw17HJzOdIq_pad-1" x="4800" y="-2775"/><use xlink:href="#mJw17HJzOdIq_pad-1" x="4825" y="-2750"/><use xlink:href="#mJw17HJzOdIq_pad-1" x="4829" y="-2825"/><use xlink:href="#mJw17HJzOdIq_pad-1" x="4865" y="-2850"/><use xlink:href="#mJw17HJzOdIq_pad-1" x="4930" y="-2700"/><use xlink:href="#mJw17HJzOdIq_pad-1" x="4955" y="-2675"/><use xlink:href="#mJw17HJzOdIq_pad-1" x="4960" y="-2725"/><use xlink:href="#mJw17HJzOdIq_pad-1" x="5015" y="-2650"/><use xlink:href="#mJw17HJzOdIq_pad-1" x="5075" y="-2800"/><use xlink:href="#mJw17HJzOdIq_pad-1" x="5100" y="-2775"/><use xlink:href="#mJw17HJzOdIq_pad-1" x="5125" y="-2750"/><use xlink:href="#mJw17HJzOdIq_pad-1" x="5130" y="-2825"/><use xlink:href="#mJw17HJzOdIq_pad-2" x="3300" y="-3400"/><use xlink:href="#mJw17HJzOdIq_pad-2" x="3300" y="-3700"/><use xlink:href="#mJw17HJzOdIq_pad-2" x="3400" y="-3400"/><use xlink:href="#mJw17HJzOdIq_pad-2" x="3400" y="-3700"/><use xlink:href="#mJw17HJzOdIq_pad-2" x="3500" y="-3400"/><use xlink:href="#mJw17HJzOdIq_pad-2" x="3500" y="-3700"/><use xlink:href="#mJw17HJzOdIq_pad-2" x="3600" y="-3400"/><use xlink:href="#mJw17HJzOdIq_pad-2" x="3600" y="-3700"/><use xlink:href="#mJw17HJzOdIq_pad-2" x="3700" y="-3400"/><use xlink:href="#mJw17HJzOdIq_pad-2" x="3700" y="-3700"/><use xlink:href="#mJw17HJzOdIq_pad-2" x="3800" y="-3400"/><use xlink:href="#mJw17HJzOdIq_pad-2" x="3800" y="-3700"/><use xlink:href="#mJw17HJzOdIq_pad-2" x="3900" y="-3400"/><use xlink:href="#mJw17HJzOdIq_pad-2" x="3900" y="-3700"/><use xlink:href="#mJw17HJzOdIq_pad-2" x="4000" y="-3400"/><use xlink:href="#mJw17HJzOdIq_pad-2" x="4000" y="-3700"/><use xlink:href="#mJw17HJzOdIq_pad-2" x="4100" y="-3400"/><use xlink:href="#mJw17HJzOdIq_pad-2" x="4100" y="-3700"/><use xlink:href="#mJw17HJzOdIq_pad-2" x="4200" y="-3400"/><use xlink:href="#mJw17HJzOdIq_pad-2" x="4200" y="-3700"/><use xlink:href="#mJw17HJzOdIq_pad-2" x="4300" y="-3400"/><use xlink:href="#mJw17HJzOdIq_pad-2" x="4300" y="-3700"/><use xlink:href="#mJw17HJzOdIq_pad-2" x="4400" y="-3400"/><use xlink:href="#mJw17HJzOdIq_pad-2" x="4400" y="-3700"/><use xlink:href="#mJw17HJzOdIq_pad-2" x="4500" y="-3400"/><use xlink:href="#mJw17HJzOdIq_pad-2" x="4500" y="-3700"/><use xlink:href="#mJw17HJzOdIq_pad-2" x="4600" y="-3400"/><use xlink:href="#mJw17HJzOdIq_pad-2" x="4600" y="-3700"/><use xlink:href="#mJw17HJzOdIq_pad-2" x="4232.9" y="-3175"/><use xlink:href="#mJw17HJzOdIq_pad-2" x="4425" y="-3175"/><use xlink:href="#mJw17HJzOdIq_pad-3" x="5250" y="-3450"/><use xlink:href="#mJw17HJzOdIq_pad-3" x="5250" y="-3550"/><use xlink:href="#mJw17HJzOdIq_pad-3" x="5250" y="-3650"/><use xlink:href="#mJw17HJzOdIq_pad-3" x="5350" y="-3450"/><use xlink:href="#mJw17HJzOdIq_pad-3" x="5350" y="-3550"/><use xlink:href="#mJw17HJzOdIq_pad-3" x="5350" y="-3650"/><use xlink:href="#mJw17HJzOdIq_pad-3" x="4653.1" y="-3950"/><use xlink:href="#mJw17HJzOdIq_pad-3" x="4653.1" y="-4520.9"/><use xlink:href="#mJw17HJzOdIq_pad-3" x="4751.6" y="-3950"/><use xlink:href="#mJw17HJzOdIq_pad-3" x="4850" y="-3950"/><use xlink:href="#mJw17HJzOdIq_pad-3" x="4850" y="-4520.9"/><path d="M 2815 -2442.5 2815 -2521.3 M 3039.4 -2363.8 2960.6 -2363.8 M 3039.4 -2600 2960.6 -2600" fill="none" stroke-width="39.4"/><path d="M 4531.1 -4219.7 4531.1 -4270.9 M 4972 -4219.7 4972 -4270.9" fill="none" stroke-width="59.1"/></g><clipPath id="UKnoLhQQDk5p_bottom_outline"><path d="M 63500 -121920 139700 -121920 A 7620 7620 0 0 1 147320 -114300 L 147320 -63500 A 7620 7620 0 0 1 139700 -55880 L 63500 -55880 A 7620 7620 0 0 1 55880 -63500 L 55880 -114300 A 7620 7620 0 0 1 63500 -121920" fill="none" stroke-width="50"/></clipPath><mask id="UKnoLhQQDk5p_bottom_mech-mask"><g fill="#000" stroke="#000"><rect x="55880" y="-121920" width="91440" height="66040" fill="#fff"/><use xlink:href="#UKnoLhQQDk5p_bottom_drill1"/><use xlink:href="#UKnoLhQQDk5p_bottom_drill2"/></g></mask><mask id="UKnoLhQQDk5p_bottom_cf-mask"><g fill="#fff" stroke="#fff"><use xlink:href="#UKnoLhQQDk5p_bottom_soldermask"/></g></mask><mask id="UKnoLhQQDk5p_bottom_sm-mask"><g fill="#000" stroke="#000"><rect x="55880" y="-121920" width="91440" height="66040" fill="#fff"/><use xlink:href="#UKnoLhQQDk5p_bottom_soldermask"/></g></mask></defs><g transform="translate(0,-177800) scale(1,-1)"><g mask="url(#UKnoLhQQDk5p_bottom_mech-mask)" clip-path="url(#UKnoLhQQDk5p_bottom_outline)" transform="translate(203200,0) scale(-1,1)"><rect x="55880" y="-121920" width="91440" height="66040" fill="currentColor" class="UKnoLhQQDk5p_fr4"/><use xlink:href="#UKnoLhQQDk5p_bottom_copper" fill="currentColor" stroke="currentColor" class="UKnoLhQQDk5p_cu"/><use xlink:href="#UKnoLhQQDk5p_bottom_copper" fill="currentColor" stroke="currentColor" class="UKnoLhQQDk5p_cf" mask="url(#UKnoLhQQDk5p_bottom_cf-mask)"/><g mask="url(#UKnoLhQQDk5p_bottom_sm-mask)"><rect x="55880" y="-121920" width="91440" height="66040" fill="currentColor" class="UKnoLhQQDk5p_sm"/><use xlink:href="#UKnoLhQQDk5p_bottom_silkscreen" fill="currentColor" stroke="currentColor" class="UKnoLhQQDk5p_ss"/></g></g></g></svg>