<svg version="1.1" xmlns="http://www.w3.org/2000/svg" xmlns:xlink="http://www.w3.org/1999/xlink" stroke-linecap="round" stroke-linejoin="round" stroke-width="0" fill-rule="evenodd" clip-rule="evenodd" id="XIjbX-S2fkiz_bottom" viewBox="55880 -121920 91440 66040" width="91.44mm" height="66.04mm"><defs><style>.XIjbX-S2fkiz_fr4 {color: #666666;}
.XIjbX-S2fkiz_cu {color: #cccccc;}
.XIjbX-S2fkiz_cf {color: #cc9933;}
.XIjbX-S2fkiz_sm {color: #ff0000; opacity: 0.75;}
.XIjbX-S2fkiz_ss {color: #ffffff;}
.XIjbX-S2fkiz_sp {color: #999999;}
.XIjbX-S2fkiz_out {color: #000000;}</style><rect x="-850" y="-850" width="1700" height="1700" rx="850" ry="850" id="HnntTjRoNjXL_pad-10"/><rect x="-850" y="-850" width="1700" height="1700" id="HnntTjRoNjXL_pad-11"/><rect x="-800" y="-800" width="1600" height="1600" rx="800" ry="800" id="HnntTjRoNjXL_pad-12"/><rect x="-800" y="-800" width="1600" height="1600" id="HnntTjRoNjXL_pad-13"/><rect x="-1750" y="-1750" width="3500" height="3500" id="HnntTjRoNjXL_pad-14"/><rect x="-1000" y="-1000" width="2000" height="2000" id="HnntTjRoNjXL_pad-15"/><circle cx="0" cy="0" r="1000" id="HnntTjRoNjXL_pad-16"/><rect x="-1000" y="-1600" width="2000" height="3200" id="HnntTjRoNjXL_pad-17"/><circle cx="0" cy="0" r="317.5" id="HnntTjRoNjXL_pad-18"/><circle cx="0" cy="0" r="400" id="HnntTjRoNjXL_pad-19"/><rect x="-850" y="-850" width="1700" height="1700" rx="850" ry="850" id="qnUiMGeaYpT9_pad-10"/><rect x="-850" y="-850" width="1700" height="1700" id="qnUiMGeaYpT9_pad-11"/><rect x="-800" y="-800" width="1600" height="1600" rx="800" ry="800" id="qnUiMGeaYpT9_pad-12"/><rect x="-800" y="-800" width="1600" height="1600" id="qnUiMGeaYpT9_pad-13"/><rect x="-1750" y="-1750" width="3500" height="3500" id="qnUiMGeaYpT9_pad-14"/><rect x="-1000" y="-1000" width="2000" height="2000" id="qnUiMGeaYpT9_pad-15"/><circle cx="0" cy="0" r="1000" id="qnUiMGeaYpT9_pad-16"/><rect x="-1000" y="-1600" width="2000" height="3200" id="qnUiMGeaYpT9_pad-17"/><circle cx="0" cy="0" r="1600" id="qnUiMGeaYpT9_pad-18"/><circle cx="0" cy="0" r="63" id="IZogoe6LI3M8_pad-1"/><circle cx="0" cy="0" r="7.85" id="fCVtA2xT8ueT_pad-1"/><circle cx="0" cy="0" r="15.75" id="fCVtA2xT8ueT_pad-2"/><circle cx="0" cy="0" r="19.7" id="fCVtA2xT8ueT_pad-3"/><g id="XIjbX-S2fkiz_bottom_copper"><use xlink:href="#HnntTjRoNjXL_pad-10" x="142240" y="-88900"/><use xlink:href="#HnntTjRoNjXL_pad-10" x="139700" y="-88900"/><use xlink:href="#HnntTjRoNjXL_pad-10" x="142240" y="-86360"/><use xlink:href="#HnntTjRoNjXL_pad-10" x="139700" y="-86360"/><use xlink:href="#HnntTjRoNjXL_pad-10" x="142240" y="-83820"/><use xlink:href="#HnntTjRoNjXL_pad-11" x="139700" y="-83820"/><use xlink:href="#HnntTjRoNjXL_pad-12" x="132080" y="-90170"/><use xlink:href="#HnntTjRoNjXL_pad-12" x="99060" y="-82550"/><use xlink:href="#HnntTjRoNjXL_pad-12" x="129540" y="-90170"/><use xlink:href="#HnntTjRoNjXL_pad-12" x="101600" y="-82550"/><use xlink:href="#HnntTjRoNjXL_pad-12" x="127000" y="-90170"/><use xlink:href="#HnntTjRoNjXL_pad-12" x="104140" y="-82550"/><use xlink:href="#HnntTjRoNjXL_pad-12" x="124460" y="-90170"/><use xlink:href="#HnntTjRoNjXL_pad-12" x="106680" y="-82550"/><use xlink:href="#HnntTjRoNjXL_pad-12" x="121920" y="-90170"/><use xlink:href="#HnntTjRoNjXL_pad-12" x="109220" y="-82550"/><use xlink:href="#HnntTjRoNjXL_pad-12" x="119380" y="-90170"/><use xlink:href="#HnntTjRoNjXL_pad-12" x="111760" y="-82550"/><use xlink:href="#HnntTjRoNjXL_pad-12" x="116840" y="-90170"/><use xlink:href="#HnntTjRoNjXL_pad-12" x="114300" y="-82550"/><use xlink:href="#HnntTjRoNjXL_pad-12" x="114300" y="-90170"/><use xlink:href="#HnntTjRoNjXL_pad-12" x="116840" y="-82550"/><use xlink:href="#HnntTjRoNjXL_pad-12" x="111760" y="-90170"/><use xlink:href="#HnntTjRoNjXL_pad-12" x="119380" y="-82550"/><use xlink:href="#HnntTjRoNjXL_pad-12" x="109220" y="-90170"/><use xlink:href="#HnntTjRoNjXL_pad-12" x="121920" y="-82550"/><use xlink:href="#HnntTjRoNjXL_pad-12" x="106680" y="-90170"/><use xlink:href="#HnntTjRoNjXL_pad-12" x="124460" y="-82550"/><use xlink:href="#HnntTjRoNjXL_pad-12" x="104140" y="-90170"/><use xlink:href="#HnntTjRoNjXL_pad-12" x="127000" y="-82550"/><use xlink:href="#HnntTjRoNjXL_pad-12" x="101600" y="-90170"/><use xlink:href="#HnntTjRoNjXL_pad-12" x="129540" y="-82550"/><use xlink:href="#HnntTjRoNjXL_pad-12" x="99060" y="-90170"/><use xlink:href="#HnntTjRoNjXL_pad-13" x="132080" y="-82550"/><path d="M 70625 -61290 72375 -61290 A 875 875 0 0 0 73250 -62165 L 73250 -63915 A 875 875 0 0 0 72375 -64790 L 70625 -64790 A 875 875 0 0 0 69750 -63915 L 69750 -62165 A 875 875 0 0 0 70625 -61290"/><path d="M 75200 -58540 77200 -58540 A 750 750 0 0 0 77950 -59290 L 77950 -60790 A 750 750 0 0 0 77200 -61540 L 75200 -61540 A 750 750 0 0 0 74450 -60790 L 74450 -59290 A 750 750 0 0 0 75200 -58540"/><use xlink:href="#HnntTjRoNjXL_pad-14" x="76200" y="-66040"/><use xlink:href="#HnntTjRoNjXL_pad-15" x="123190" y="-100450"/><use xlink:href="#HnntTjRoNjXL_pad-16" x="120690" y="-100450"/><use xlink:href="#HnntTjRoNjXL_pad-16" x="118190" y="-100450"/><use xlink:href="#HnntTjRoNjXL_pad-17" x="126290" y="-107950"/><use xlink:href="#HnntTjRoNjXL_pad-17" x="115090" y="-107950"/><use xlink:href="#HnntTjRoNjXL_pad-16" x="123190" y="-114950"/><use xlink:href="#HnntTjRoNjXL_pad-16" x="118190" y="-114950"/><use xlink:href="#HnntTjRoNjXL_pad-18" x="129540" y="-70485"/><use xlink:href="#HnntTjRoNjXL_pad-18" x="121920" y="-70485"/><use xlink:href="#HnntTjRoNjXL_pad-18" x="114300" y="-70485"/><use xlink:href="#HnntTjRoNjXL_pad-18" x="125222" y="-68580"/><use xlink:href="#HnntTjRoNjXL_pad-18" x="117602" y="-68580"/><use xlink:href="#HnntTjRoNjXL_pad-18" x="109982" y="-68580"/><use xlink:href="#HnntTjRoNjXL_pad-19" x="90678" y="-70485"/><use xlink:href="#HnntTjRoNjXL_pad-18" x="101600" y="-67945"/><use xlink:href="#HnntTjRoNjXL_pad-18" x="109347" y="-67945"/><use xlink:href="#HnntTjRoNjXL_pad-18" x="125857" y="-67945"/><use xlink:href="#HnntTjRoNjXL_pad-18" x="119634" y="-67945"/><use xlink:href="#HnntTjRoNjXL_pad-19" x="86868" y="-69850"/><use xlink:href="#HnntTjRoNjXL_pad-18" x="103040" y="-67267"/><use xlink:href="#HnntTjRoNjXL_pad-18" x="110617" y="-67310"/><use xlink:href="#HnntTjRoNjXL_pad-18" x="118237" y="-67310"/><use xlink:href="#HnntTjRoNjXL_pad-18" x="127381" y="-67310"/><use xlink:href="#HnntTjRoNjXL_pad-19" x="90678" y="-71755"/><use xlink:href="#HnntTjRoNjXL_pad-18" x="104470.2" y="-71755"/><use xlink:href="#HnntTjRoNjXL_pad-18" x="130302" y="-71755"/><use xlink:href="#HnntTjRoNjXL_pad-18" x="114985.8" y="-71755"/><use xlink:href="#HnntTjRoNjXL_pad-18" x="122656.6" y="-71755"/><use xlink:href="#HnntTjRoNjXL_pad-19" x="92202" y="-72390"/><use xlink:href="#HnntTjRoNjXL_pad-18" x="105892.6" y="-71120"/><use xlink:href="#HnntTjRoNjXL_pad-18" x="113538" y="-71120"/><use xlink:href="#HnntTjRoNjXL_pad-18" x="121158" y="-71120"/><use xlink:href="#HnntTjRoNjXL_pad-18" x="128905" y="-71120"/><use xlink:href="#HnntTjRoNjXL_pad-19" x="96012" y="-71755"/><use xlink:href="#HnntTjRoNjXL_pad-19" x="96012" y="-71755"/><use xlink:href="#HnntTjRoNjXL_pad-18" x="107340.4" y="-69850"/><use xlink:href="#HnntTjRoNjXL_pad-18" x="114935" y="-69850"/><use xlink:href="#HnntTjRoNjXL_pad-18" x="122555" y="-69850"/><use xlink:href="#HnntTjRoNjXL_pad-18" x="130175" y="-69850"/><use xlink:href="#HnntTjRoNjXL_pad-19" x="86868" y="-71120"/><use xlink:href="#HnntTjRoNjXL_pad-18" x="107340.4" y="-72390"/><use xlink:href="#HnntTjRoNjXL_pad-18" x="112141" y="-72390"/><use xlink:href="#HnntTjRoNjXL_pad-18" x="123571" y="-72390"/><use xlink:href="#HnntTjRoNjXL_pad-18" x="115951" y="-72390"/><use xlink:href="#HnntTjRoNjXL_pad-19" x="92202" y="-71120"/><use xlink:href="#HnntTjRoNjXL_pad-19" x="96012" y="-73025"/><use xlink:href="#HnntTjRoNjXL_pad-18" x="106680" y="-70485"/><use xlink:href="#HnntTjRoNjXL_pad-19" x="96012" y="-70485"/><use xlink:href="#HnntTjRoNjXL_pad-18" x="103047.8" y="-69215"/><use xlink:href="#HnntTjRoNjXL_pad-18" x="110744" y="-69215"/><use xlink:href="#HnntTjRoNjXL_pad-18" x="118237" y="-69215"/><use xlink:href="#HnntTjRoNjXL_pad-18" x="125984" y="-69215"/><use xlink:href="#HnntTjRoNjXL_pad-19" x="92202" y="-69850"/><use xlink:href="#HnntTjRoNjXL_pad-18" x="102362" y="-68580"/><use xlink:href="#HnntTjRoNjXL_pad-18" x="83820" y="-70485"/><use xlink:href="#HnntTjRoNjXL_pad-18" x="81915" y="-70485"/><path d="M 90678 -70485 90678 -68707 91440 -67945 101219 -67945 101600 -67945 109347 -67945 M 119634 -67945 125857 -67945 M 109347 -67945 119634 -67945 M 86868 -69850 86868 -68072 87630 -67310 102616 -67310 110617 -67310 118237 -67310 127381 -67310 M 96012 -75565 93726 -75565 M 90678 -72517 90678 -71755 M 93726 -75565 90678 -72517 M 96012 -75565 99822 -71755 104470.2 -71755 114985.8 -71755 M 122656.6 -71755 130302 -71755 M 114985.8 -71755 122656.6 -71755 M 94107 -74295 96012 -74295 M 92202 -72390 94107 -74295 M 96012 -74295 99187 -71120 105892.6 -71120 113538 -71120 121158 -71120 128905 -71120 M 96012 -71755 97917 -69850 107340.4 -69850 114935 -69850 122555 -69850 130175 -69850 M 96012 -76835 90043 -76835 M 86868 -73660 86868 -71120 M 90043 -76835 86868 -73660 M 96012 -76835 100457 -72390 107340.4 -72390 112141 -72390 M 115951 -72390 123571 -72390 M 112141 -72390 115951 -72390 M 92202 -71120 94107 -73025 96012 -73025 98552 -70485 M 106680 -70485 128778 -70485 M 98552 -70485 106680 -70485 M 129540 -70485 128778 -70485 M 96012 -70485 97282 -69215 103047.8 -69215 110744 -69215 118237 -69215 125984 -69215 M 92202 -69850 93472 -68580 102362 -68580 125222 -68580" fill="none" stroke-width="381"/><path d="M 140704.47 -56614.617 141687.898 -56831.739 142629.675 -57188.546 143510.095 -57677.575 144310.687 -58288.569 145014.694 -59008.732 145607.37 -59822.987 146076.296 -60714.269 146411.647 -61663.9 146607.127 -62655.692 146660 -63520.164 146660.001 -114276.08 146585.382 -115304.47 146368.262 -116287.896 146011.454 -117229.675 145522.424 -118110.095 144911.435 -118910.684 144191.268 -119614.694 143377.013 -120207.37 142485.731 -120676.296 141536.099 -121011.647 140544.309 -121207.127 139679.835 -121260 63523.906 -121260 62495.53 -121185.382 61512.104 -120968.262 60570.325 -120611.454 59689.905 -120122.424 58889.316 -119511.435 58185.306 -118791.268 57592.63 -117977.013 57123.704 -117085.731 56788.353 -116136.099 56592.873 -115144.309 56540 -114279.835 56540 -114079.872 61265 -114079.872 61265 -114520.128 61350.89 -114951.925 61519.369 -115358.669 61763.962 -115724.729 62075.271 -116036.038 62441.331 -116280.631 62848.075 -116449.11 63279.872 -116535 63720.128 -116535 64151.925 -116449.11 64558.669 -116280.631 64924.729 -116036.038 65236.038 -115724.729 65480.631 -115358.669 65649.11 -114951.925 65681.524 -114788.967 116555 -114788.967 116555 -115111.033 116617.832 -115426.912 116741.082 -115724.463 116920.013 -115992.252 117147.748 -116219.987 117415.537 -116398.918 117713.088 -116522.168 118028.967 -116585 118351.033 -116585 118666.912 -116522.168 118964.463 -116398.918 119232.252 -116219.987 119459.987 -115992.252 119638.918 -115724.463 119762.168 -115426.912 119825 -115111.033 119825 -114788.967 121555 -114788.967 121555 -115111.033 121617.832 -115426.912 121741.082 -115724.463 121920.013 -115992.252 122147.748 -116219.987 122415.537 -116398.918 122713.088 -116522.168 123028.967 -116585 123351.033 -116585 123666.912 -116522.168 123964.463 -116398.918 124232.252 -116219.987 124459.987 -115992.252 124638.918 -115724.463 124762.168 -115426.912 124825 -115111.033 124825 -114788.967 124762.168 -114473.088 124638.918 -114175.537 124574.997 -114079.872 137465 -114079.872 137465 -114520.128 137550.89 -114951.925 137719.369 -115358.669 137963.962 -115724.729 138275.271 -116036.038 138641.331 -116280.631 139048.075 -116449.11 139479.872 -116535 139920.128 -116535 140351.925 -116449.11 140758.669 -116280.631 141124.729 -116036.038 141436.038 -115724.729 141680.631 -115358.669 141849.11 -114951.925 141935 -114520.128 141935 -114079.872 141849.11 -113648.075 141680.631 -113241.331 141436.038 -112875.271 141124.729 -112563.962 140758.669 -112319.369 140351.925 -112150.89 139920.128 -112065 139479.872 -112065 139048.075 -112150.89 138641.331 -112319.369 138275.271 -112563.962 137963.962 -112875.271 137719.369 -113241.331 137550.89 -113648.075 137465 -114079.872 124574.997 -114079.872 124459.987 -113907.748 124232.252 -113680.013 123964.463 -113501.082 123666.912 -113377.832 123351.033 -113315 123028.967 -113315 122713.088 -113377.832 122415.537 -113501.082 122147.748 -113680.013 121920.013 -113907.748 121741.082 -114175.537 121617.832 -114473.088 121555 -114788.967 119825 -114788.967 119762.168 -114473.088 119638.918 -114175.537 119459.987 -113907.748 119232.252 -113680.013 118964.463 -113501.082 118666.912 -113377.832 118351.033 -113315 118028.967 -113315 117713.088 -113377.832 117415.537 -113501.082 117147.748 -113680.013 116920.013 -113907.748 116741.082 -114175.537 116617.832 -114473.088 116555 -114788.967 65681.524 -114788.967 65735 -114520.128 65735 -114079.872 65649.11 -113648.075 65480.631 -113241.331 65236.038 -112875.271 64924.729 -112563.962 64558.669 -112319.369 64151.925 -112150.89 63720.128 -112065 63279.872 -112065 62848.075 -112150.89 62441.331 -112319.369 62075.271 -112563.962 61763.962 -112875.271 61519.369 -113241.331 61350.89 -113648.075 61265 -114079.872 56540 -114079.872 56540 -106350 113451.928 -106350 113451.928 -109550 113464.188 -109674.482 113500.498 -109794.18 113559.463 -109904.494 113638.815 -110001.185 113735.506 -110080.537 113845.82 -110139.502 113965.518 -110175.812 114090 -110188.072 116090 -110188.072 116214.482 -110175.812 116334.18 -110139.502 116444.494 -110080.537 116541.185 -110001.185 116620.537 -109904.494 116679.502 -109794.18 116715.812 -109674.482 116728.072 -109550 116728.072 -106350 124651.928 -106350 124651.928 -109550 124664.188 -109674.482 124700.498 -109794.18 124759.463 -109904.494 124838.815 -110001.185 124935.506 -110080.537 125045.82 -110139.502 125165.518 -110175.812 125290 -110188.072 127290 -110188.072 127414.482 -110175.812 127534.18 -110139.502 127644.494 -110080.537 127741.185 -110001.185 127820.537 -109904.494 127879.502 -109794.18 127915.812 -109674.482 127928.072 -109550 127928.072 -106350 127915.812 -106225.518 127879.502 -106105.82 127820.537 -105995.506 127741.185 -105898.815 127644.494 -105819.463 127534.18 -105760.498 127414.482 -105724.188 127290 -105711.928 125290 -105711.928 125165.518 -105724.188 125045.82 -105760.498 124935.506 -105819.463 124838.815 -105898.815 124759.463 -105995.506 124700.498 -106105.82 124664.188 -106225.518 124651.928 -106350 116728.072 -106350 116715.812 -106225.518 116679.502 -106105.82 116620.537 -105995.506 116541.185 -105898.815 116444.494 -105819.463 116334.18 -105760.498 116214.482 -105724.188 116090 -105711.928 114090 -105711.928 113965.518 -105724.188 113845.82 -105760.498 113735.506 -105819.463 113638.815 -105898.815 113559.463 -105995.506 113500.498 -106105.82 113464.188 -106225.518 113451.928 -106350 56540 -106350 56540 -100288.967 116555 -100288.967 116555 -100611.033 116617.832 -100926.912 116741.082 -101224.463 116920.013 -101492.252 117147.748 -101719.987 117415.537 -101898.918 117713.088 -102022.168 118028.967 -102085 118351.033 -102085 118666.912 -102022.168 118964.463 -101898.918 119232.252 -101719.987 119459.987 -101492.252 119524.925 -101395.065 119554.587 -101405.808 120510.395 -100450 119554.587 -99494.192 119524.925 -99504.935 119459.987 -99407.748 119366.826 -99314.587 119734.192 -99314.587 120690 -100270.395 120704.143 -100256.253 120883.748 -100435.858 120869.605 -100450 120883.748 -100464.143 120704.143 -100643.748 120690 -100629.605 119734.192 -101585.413 119829.956 -101849.814 120119.571 -101990.704 120431.108 -102072.384 120752.595 -102091.718 121071.675 -102047.961 121376.088 -101942.795 121550.044 -101849.814 121604.024 -101700.777 121659.463 -101804.494 121738.815 -101901.185 121835.506 -101980.537 121945.82 -102039.502 122065.518 -102075.812 122190 -102088.072 124190 -102088.072 124314.482 -102075.812 124434.18 -102039.502 124544.494 -101980.537 124641.185 -101901.185 124720.537 -101804.494 124779.502 -101694.18 124815.812 -101574.482 124828.072 -101450 124828.072 -99450 124815.812 -99325.518 124779.502 -99205.82 124720.537 -99095.506 124641.185 -98998.815 124544.494 -98919.463 124434.18 -98860.498 124314.482 -98824.188 124190 -98811.928 122190 -98811.928 122065.518 -98824.188 121945.82 -98860.498 121835.506 -98919.463 121738.815 -98998.815 121659.463 -99095.506 121604.024 -99199.223 121550.044 -99050.186 121260.429 -98909.296 120948.892 -98827.616 120627.405 -98808.282 120308.325 -98852.039 120003.912 -98957.205 119829.956 -99050.186 119734.192 -99314.587 119366.826 -99314.587 119232.252 -99180.013 118964.463 -99001.082 118666.912 -98877.832 118351.033 -98815 118028.967 -98815 117713.088 -98877.832 117415.537 -99001.082 117147.748 -99180.013 116920.013 -99407.748 116741.082 -99675.537 116617.832 -99973.088 116555 -100288.967 56540 -100288.967 56540 -90028.665 97625 -90028.665 97625 -90311.335 97680.147 -90588.574 97788.32 -90849.727 97945.363 -91084.759 98145.241 -91284.637 98380.273 -91441.68 98641.426 -91549.853 98918.665 -91605 99201.335 -91605 99478.574 -91549.853 99739.727 -91441.68 99974.759 -91284.637 100174.637 -91084.759 100330 -90852.241 100485.363 -91084.759 100685.241 -91284.637 100920.273 -91441.68 101181.426 -91549.853 101458.665 -91605 101741.335 -91605 102018.574 -91549.853 102279.727 -91441.68 102514.759 -91284.637 102714.637 -91084.759 102870 -90852.241 103025.363 -91084.759 103225.241 -91284.637 103460.273 -91441.68 103721.426 -91549.853 103998.665 -91605 104281.335 -91605 104558.574 -91549.853 104819.727 -91441.68 105054.759 -91284.637 105254.637 -91084.759 105410 -90852.241 105565.363 -91084.759 105765.241 -91284.637 106000.273 -91441.68 106261.426 -91549.853 106538.665 -91605 106821.335 -91605 107098.574 -91549.853 107359.727 -91441.68 107594.759 -91284.637 107794.637 -91084.759 107950 -90852.241 108105.363 -91084.759 108305.241 -91284.637 108540.273 -91441.68 108801.426 -91549.853 109078.665 -91605 109361.335 -91605 109638.574 -91549.853 109899.727 -91441.68 110134.759 -91284.637 110334.637 -91084.759 110490 -90852.241 110645.363 -91084.759 110845.241 -91284.637 111080.273 -91441.68 111341.426 -91549.853 111618.665 -91605 111901.335 -91605 112178.574 -91549.853 112439.727 -91441.68 112674.759 -91284.637 112874.637 -91084.759 113030 -90852.241 113185.363 -91084.759 113385.241 -91284.637 113620.273 -91441.68 113881.426 -91549.853 114158.665 -91605 114441.335 -91605 114718.574 -91549.853 114979.727 -91441.68 115214.759 -91284.637 115414.637 -91084.759 115571.68 -90849.727 115576.067 -90839.135 115687.615 -91025.131 115876.586 -91233.519 116102.58 -91401.037 116356.913 -91521.246 116490.961 -91561.904 116713 -91439.915 116713 -90297 116693 -90297 116693 -90043 116713 -90043 116713 -88900.085 116967 -88900.085 116967 -90043 116987 -90043 116987 -90297 116967 -90297 116967 -91439.915 117189.039 -91561.904 117323.087 -91521.246 117577.42 -91401.037 117803.414 -91233.519 117992.385 -91025.131 118103.933 -90839.135 118108.32 -90849.727 118265.363 -91084.759 118465.241 -91284.637 118700.273 -91441.68 118961.426 -91549.853 119238.665 -91605 119521.335 -91605 119798.574 -91549.853 120059.727 -91441.68 120294.759 -91284.637 120494.637 -91084.759 120650 -90852.241 120805.363 -91084.759 121005.241 -91284.637 121240.273 -91441.68 121501.426 -91549.853 121778.665 -91605 122061.335 -91605 122338.574 -91549.853 122599.727 -91441.68 122834.759 -91284.637 123034.637 -91084.759 123190 -90852.241 123345.363 -91084.759 123545.241 -91284.637 123780.273 -91441.68 124041.426 -91549.853 124318.665 -91605 124601.335 -91605 124878.574 -91549.853 125139.727 -91441.68 125374.759 -91284.637 125574.637 -91084.759 125730 -90852.241 125885.363 -91084.759 126085.241 -91284.637 126320.273 -91441.68 126581.426 -91549.853 126858.665 -91605 127141.335 -91605 127418.574 -91549.853 127679.727 -91441.68 127914.759 -91284.637 128114.637 -91084.759 128270 -90852.241 128425.363 -91084.759 128625.241 -91284.637 128860.273 -91441.68 129121.426 -91549.853 129398.665 -91605 129681.335 -91605 129958.574 -91549.853 130219.727 -91441.68 130454.759 -91284.637 130654.637 -91084.759 130810 -90852.241 130965.363 -91084.759 131165.241 -91284.637 131400.273 -91441.68 131661.426 -91549.853 131938.665 -91605 132221.335 -91605 132498.574 -91549.853 132759.727 -91441.68 132994.759 -91284.637 133194.637 -91084.759 133351.68 -90849.727 133459.853 -90588.574 133515 -90311.335 133515 -90028.665 133459.853 -89751.426 133351.68 -89490.273 133194.637 -89255.241 132994.759 -89055.363 132759.727 -88898.32 132498.574 -88790.147 132221.335 -88735 131938.665 -88735 131661.426 -88790.147 131400.273 -88898.32 131165.241 -89055.363 130965.363 -89255.241 130810 -89487.759 130654.637 -89255.241 130454.759 -89055.363 130219.727 -88898.32 129958.574 -88790.147 129681.335 -88735 129398.665 -88735 129121.426 -88790.147 128860.273 -88898.32 128625.241 -89055.363 128425.363 -89255.241 128270 -89487.759 128114.637 -89255.241 127914.759 -89055.363 127679.727 -88898.32 127418.574 -88790.147 127141.335 -88735 126858.665 -88735 126581.426 -88790.147 126320.273 -88898.32 126085.241 -89055.363 125885.363 -89255.241 125730 -89487.759 125574.637 -89255.241 125374.759 -89055.363 125139.727 -88898.32 124878.574 -88790.147 124601.335 -88735 124318.665 -88735 124041.426 -88790.147 123780.273 -88898.32 123545.241 -89055.363 123345.363 -89255.241 123190 -89487.759 123034.637 -89255.241 122834.759 -89055.363 122599.727 -88898.32 122338.574 -88790.147 122061.335 -88735 121778.665 -88735 121501.426 -88790.147 121240.273 -88898.32 121005.241 -89055.363 120805.363 -89255.241 120650 -89487.759 120494.637 -89255.241 120294.759 -89055.363 120059.727 -88898.32 119798.574 -88790.147 119521.335 -88735 119238.665 -88735 118961.426 -88790.147 118700.273 -88898.32 118465.241 -89055.363 118265.363 -89255.241 118108.32 -89490.273 118103.933 -89500.865 117992.385 -89314.869 117803.414 -89106.481 117577.42 -88938.963 117323.087 -88818.754 117189.039 -88778.096 116967 -88900.085 116713 -88900.085 116490.961 -88778.096 116356.913 -88818.754 116102.58 -88938.963 115876.586 -89106.481 115687.615 -89314.869 115576.067 -89500.865 115571.68 -89490.273 115414.637 -89255.241 115214.759 -89055.363 114979.727 -88898.32 114718.574 -88790.147 114441.335 -88735 114158.665 -88735 113881.426 -88790.147 113620.273 -88898.32 113385.241 -89055.363 113185.363 -89255.241 113030 -89487.759 112874.637 -89255.241 112674.759 -89055.363 112439.727 -88898.32 112178.574 -88790.147 111901.335 -88735 111618.665 -88735 111341.426 -88790.147 111080.273 -88898.32 110845.241 -89055.363 110645.363 -89255.241 110490 -89487.759 110334.637 -89255.241 110134.759 -89055.363 109899.727 -88898.32 109638.574 -88790.147 109361.335 -88735 109078.665 -88735 108801.426 -88790.147 108540.273 -88898.32 108305.241 -89055.363 108105.363 -89255.241 107950 -89487.759 107794.637 -89255.241 107594.759 -89055.363 107359.727 -88898.32 107098.574 -88790.147 106821.335 -88735 106538.665 -88735 106261.426 -88790.147 106000.273 -88898.32 105765.241 -89055.363 105565.363 -89255.241 105410 -89487.759 105254.637 -89255.241 105054.759 -89055.363 104819.727 -88898.32 104558.574 -88790.147 104281.335 -88735 103998.665 -88735 103721.426 -88790.147 103460.273 -88898.32 103225.241 -89055.363 103025.363 -89255.241 102870 -89487.759 102714.637 -89255.241 102514.759 -89055.363 102279.727 -88898.32 102018.574 -88790.147 101741.335 -88735 101458.665 -88735 101181.426 -88790.147 100920.273 -88898.32 100685.241 -89055.363 100485.363 -89255.241 100330 -89487.759 100174.637 -89255.241 99974.759 -89055.363 99739.727 -88898.32 99478.574 -88790.147 99201.335 -88735 98918.665 -88735 98641.426 -88790.147 98380.273 -88898.32 98145.241 -89055.363 97945.363 -89255.241 97788.32 -89490.273 97680.147 -89751.426 97625 -90028.665 56540 -90028.665 56540 -82408.665 97625 -82408.665 97625 -82691.335 97680.147 -82968.574 97788.32 -83229.727 97945.363 -83464.759 98145.241 -83664.637 98380.273 -83821.68 98641.426 -83929.853 98918.665 -83985 99201.335 -83985 99478.574 -83929.853 99739.727 -83821.68 99974.759 -83664.637 100174.637 -83464.759 100330 -83232.241 100485.363 -83464.759 100685.241 -83664.637 100920.273 -83821.68 101181.426 -83929.853 101458.665 -83985 101741.335 -83985 102018.574 -83929.853 102279.727 -83821.68 102514.759 -83664.637 102714.637 -83464.759 102870 -83232.241 103025.363 -83464.759 103225.241 -83664.637 103460.273 -83821.68 103721.426 -83929.853 103998.665 -83985 104281.335 -83985 104558.574 -83929.853 104819.727 -83821.68 105054.759 -83664.637 105254.637 -83464.759 105410 -83232.241 105565.363 -83464.759 105765.241 -83664.637 106000.273 -83821.68 106261.426 -83929.853 106538.665 -83985 106821.335 -83985 107098.574 -83929.853 107359.727 -83821.68 107594.759 -83664.637 107794.637 -83464.759 107950 -83232.241 108105.363 -83464.759 108305.241 -83664.637 108540.273 -83821.68 108801.426 -83929.853 109078.665 -83985 109361.335 -83985 109638.574 -83929.853 109899.727 -83821.68 110134.759 -83664.637 110334.637 -83464.759 110490 -83232.241 110645.363 -83464.759 110845.241 -83664.637 111080.273 -83821.68 111341.426 -83929.853 111618.665 -83985 111901.335 -83985 112178.574 -83929.853 112439.727 -83821.68 112674.759 -83664.637 112874.637 -83464.759 113031.68 -83229.727 113036.067 -83219.135 113147.615 -83405.131 113336.586 -83613.519 113562.58 -83781.037 113816.913 -83901.246 113950.961 -83941.904 114173 -83819.915 114173 -82677 114153 -82677 114153 -82423 114173 -82423 114173 -81280.085 114427 -81280.085 114427 -82423 114447 -82423 114447 -82677 114427 -82677 114427 -83819.915 114649.039 -83941.904 114783.087 -83901.246 115037.42 -83781.037 115263.414 -83613.519 115452.385 -83405.131 115563.933 -83219.135 115568.32 -83229.727 115725.363 -83464.759 115925.241 -83664.637 116160.273 -83821.68 116421.426 -83929.853 116698.665 -83985 116981.335 -83985 117258.574 -83929.853 117519.727 -83821.68 117754.759 -83664.637 117954.637 -83464.759 118110 -83232.241 118265.363 -83464.759 118465.241 -83664.637 118700.273 -83821.68 118961.426 -83929.853 119238.665 -83985 119521.335 -83985 119798.574 -83929.853 120059.727 -83821.68 120294.759 -83664.637 120494.637 -83464.759 120650 -83232.241 120805.363 -83464.759 121005.241 -83664.637 121240.273 -83821.68 121501.426 -83929.853 121778.665 -83985 122061.335 -83985 122338.574 -83929.853 122599.727 -83821.68 122834.759 -83664.637 123034.637 -83464.759 123190 -83232.241 123345.363 -83464.759 123545.241 -83664.637 123780.273 -83821.68 124041.426 -83929.853 124318.665 -83985 124601.335 -83985 124878.574 -83929.853 125139.727 -83821.68 125374.759 -83664.637 125574.637 -83464.759 125730 -83232.241 125885.363 -83464.759 126085.241 -83664.637 126320.273 -83821.68 126581.426 -83929.853 126858.665 -83985 127141.335 -83985 127418.574 -83929.853 127679.727 -83821.68 127914.759 -83664.637 128114.637 -83464.759 128270 -83232.241 128425.363 -83464.759 128625.241 -83664.637 128860.273 -83821.68 129121.426 -83929.853 129398.665 -83985 129681.335 -83985 129958.574 -83929.853 130219.727 -83821.68 130454.759 -83664.637 130653.357 -83466.039 130654.188 -83474.482 130690.498 -83594.18 130749.463 -83704.494 130828.815 -83801.185 130925.506 -83880.537 131035.82 -83939.502 131155.518 -83975.812 131280 -83988.072 132880 -83988.072 133004.482 -83975.812 133124.18 -83939.502 133234.494 -83880.537 133331.185 -83801.185 133410.537 -83704.494 133469.502 -83594.18 133505.812 -83474.482 133518.072 -83350 133518.072 -82970 138211.928 -82970 138211.928 -84670 138224.188 -84794.482 138260.498 -84914.18 138319.463 -85024.494 138398.815 -85121.185 138495.506 -85200.537 138605.82 -85259.502 138678.38 -85281.513 138546.525 -85413.368 138384.01 -85656.589 138272.068 -85926.842 138215 -86213.74 138215 -86506.26 138272.068 -86793.158 138384.01 -87063.411 138546.525 -87306.632 138753.368 -87513.475 138927.76 -87630 138753.368 -87746.525 138546.525 -87953.368 138384.01 -88196.589 138272.068 -88466.842 138215 -88753.74 138215 -89046.26 138272.068 -89333.158 138384.01 -89603.411 138546.525 -89846.632 138753.368 -90053.475 138996.589 -90215.99 139266.842 -90327.932 139553.74 -90385 139846.26 -90385 140133.158 -90327.932 140403.411 -90215.99 140646.632 -90053.475 140853.475 -89846.632 140971.1 -89670.594 141142.412 -89900.269 141358.645 -90095.178 141608.748 -90244.157 141883.109 -90341.481 142113 -90220.814 142113 -89027 142367 -89027 142367 -90220.814 142596.891 -90341.481 142871.252 -90244.157 143121.355 -90095.178 143337.588 -89900.269 143511.641 -89666.92 143636.825 -89404.099 143681.476 -89256.89 143560.155 -89027 142367 -89027 142113 -89027 142093 -89027 142093 -88773 142113 -88773 142113 -88753 142367 -88753 142367 -88773 143560.155 -88773 143681.476 -88543.11 143636.825 -88395.901 143511.641 -88133.08 143337.588 -87899.731 143121.355 -87704.822 143004.466 -87635.195 143186.632 -87513.475 143393.475 -87306.632 143555.99 -87063.411 143667.932 -86793.158 143725 -86506.26 143725 -86213.74 143667.932 -85926.842 143555.99 -85656.589 143393.475 -85413.368 143186.632 -85206.525 143012.24 -85090 143186.632 -84973.475 143393.475 -84766.632 143555.99 -84523.411 143667.932 -84253.158 143725 -83966.26 143725 -83673.74 143667.932 -83386.842 143555.99 -83116.589 143393.475 -82873.368 143186.632 -82666.525 142943.411 -82504.01 142673.158 -82392.068 142386.26 -82335 142093.74 -82335 141806.842 -82392.068 141536.589 -82504.01 141293.368 -82666.525 141161.513 -82798.38 141139.502 -82725.82 141080.537 -82615.506 141001.185 -82518.815 140904.494 -82439.463 140794.18 -82380.498 140674.482 -82344.188 140550 -82331.928 138850 -82331.928 138725.518 -82344.188 138605.82 -82380.498 138495.506 -82439.463 138398.815 -82518.815 138319.463 -82615.506 138260.498 -82725.82 138224.188 -82845.518 138211.928 -82970 133518.072 -82970 133518.072 -81750 133505.812 -81625.518 133469.502 -81505.82 133410.537 -81395.506 133331.185 -81298.815 133234.494 -81219.463 133124.18 -81160.498 133004.482 -81124.188 132880 -81111.928 131280 -81111.928 131155.518 -81124.188 131035.82 -81160.498 130925.506 -81219.463 130828.815 -81298.815 130749.463 -81395.506 130690.498 -81505.82 130654.188 -81625.518 130653.357 -81633.961 130454.759 -81435.363 130219.727 -81278.32 129958.574 -81170.147 129681.335 -81115 129398.665 -81115 129121.426 -81170.147 128860.273 -81278.32 128625.241 -81435.363 128425.363 -81635.241 128270 -81867.759 128114.637 -81635.241 127914.759 -81435.363 127679.727 -81278.32 127418.574 -81170.147 127141.335 -81115 126858.665 -81115 126581.426 -81170.147 126320.273 -81278.32 126085.241 -81435.363 125885.363 -81635.241 125730 -81867.759 125574.637 -81635.241 125374.759 -81435.363 125139.727 -81278.32 124878.574 -81170.147 124601.335 -81115 124318.665 -81115 124041.426 -81170.147 123780.273 -81278.32 123545.241 -81435.363 123345.363 -81635.241 123190 -81867.759 123034.637 -81635.241 122834.759 -81435.363 122599.727 -81278.32 122338.574 -81170.147 122061.335 -81115 121778.665 -81115 121501.426 -81170.147 121240.273 -81278.32 121005.241 -81435.363 120805.363 -81635.241 120650 -81867.759 120494.637 -81635.241 120294.759 -81435.363 120059.727 -81278.32 119798.574 -81170.147 119521.335 -81115 119238.665 -81115 118961.426 -81170.147 118700.273 -81278.32 118465.241 -81435.363 118265.363 -81635.241 118110 -81867.759 117954.637 -81635.241 117754.759 -81435.363 117519.727 -81278.32 117258.574 -81170.147 116981.335 -81115 116698.665 -81115 116421.426 -81170.147 116160.273 -81278.32 115925.241 -81435.363 115725.363 -81635.241 115568.32 -81870.273 115563.933 -81880.865 115452.385 -81694.869 115263.414 -81486.481 115037.42 -81318.963 114783.087 -81198.754 114649.039 -81158.096 114427 -81280.085 114173 -81280.085 113950.961 -81158.096 113816.913 -81198.754 113562.58 -81318.963 113336.586 -81486.481 113147.615 -81694.869 113036.067 -81880.865 113031.68 -81870.273 112874.637 -81635.241 112674.759 -81435.363 112439.727 -81278.32 112178.574 -81170.147 111901.335 -81115 111618.665 -81115 111341.426 -81170.147 111080.273 -81278.32 110845.241 -81435.363 110645.363 -81635.241 110490 -81867.759 110334.637 -81635.241 110134.759 -81435.363 109899.727 -81278.32 109638.574 -81170.147 109361.335 -81115 109078.665 -81115 108801.426 -81170.147 108540.273 -81278.32 108305.241 -81435.363 108105.363 -81635.241 107950 -81867.759 107794.637 -81635.241 107594.759 -81435.363 107359.727 -81278.32 107098.574 -81170.147 106821.335 -81115 106538.665 -81115 106261.426 -81170.147 106000.273 -81278.32 105765.241 -81435.363 105565.363 -81635.241 105410 -81867.759 105254.637 -81635.241 105054.759 -81435.363 104819.727 -81278.32 104558.574 -81170.147 104281.335 -81115 103998.665 -81115 103721.426 -81170.147 103460.273 -81278.32 103225.241 -81435.363 103025.363 -81635.241 102870 -81867.759 102714.637 -81635.241 102514.759 -81435.363 102279.727 -81278.32 102018.574 -81170.147 101741.335 -81115 101458.665 -81115 101181.426 -81170.147 100920.273 -81278.32 100685.241 -81435.363 100485.363 -81635.241 100330 -81867.759 100174.637 -81635.241 99974.759 -81435.363 99739.727 -81278.32 99478.574 -81170.147 99201.335 -81115 98918.665 -81115 98641.426 -81170.147 98380.273 -81278.32 98145.241 -81435.363 97945.363 -81635.241 97788.32 -81870.273 97680.147 -82131.426 97625 -82408.665 56540 -82408.665 56540 -70391.187 80962.5 -70391.187 80962.5 -70578.813 80999.104 -70762.834 81070.905 -70936.178 81175.145 -71092.184 81307.816 -71224.855 81463.822 -71329.095 81637.166 -71400.896 81821.187 -71437.5 82008.813 -71437.5 82192.834 -71400.896 82366.178 -71329.095 82522.184 -71224.855 82654.855 -71092.184 82759.095 -70936.178 82830.896 -70762.834 82867.5 -70578.813 82904.104 -70762.834 82975.905 -70936.178 83080.145 -71092.184 83212.816 -71224.855 83368.822 -71329.095 83542.166 -71400.896 83726.187 -71437.5 83913.813 -71437.5 84097.834 -71400.896 84271.178 -71329.095 84427.184 -71224.855 84559.855 -71092.184 84664.095 -70936.178 84735.896 -70762.834 84772.5 -70578.813 84772.5 -70391.187 84735.896 -70207.166 84664.095 -70033.822 84559.855 -69877.816 84430.1 -69748.061 85833 -69748.061 85833 -69951.939 85872.774 -70151.898 85950.795 -70340.256 86047.51 -70485 85950.795 -70629.744 85872.774 -70818.102 85833 -71018.061 85833 -71221.939 85872.774 -71421.898 85950.795 -71610.256 86042.501 -71747.504 86042.5 -73619.449 86038.506 -73660 86042.5 -73700.55 86042.5 -73700.552 86054.444 -73821.825 86090.961 -73942.205 86101.647 -73977.433 86178.301 -74120.842 86188.421 -74133.173 86281.459 -74246.541 86312.966 -74272.398 89430.606 -77390.039 89456.459 -77421.541 89520.596 -77474.177 89582.157 -77524.699 89725.566 -77601.353 89881.174 -77648.556 90002.447 -77660.5 90002.449 -77660.5 90042.999 -77664.494 90083.55 -77660.5 95971.45 -77660.5 96012 -77664.494 96052.55 -77660.5 96052.553 -77660.5 96173.826 -77648.556 96329.434 -77601.353 96472.842 -77524.699 96598.541 -77421.541 96624.398 -77390.034 100798.933 -73215.5 106861.393 -73215.5 106889.222 -73234.095 107062.566 -73305.896 107246.587 -73342.5 107434.213 -73342.5 107618.234 -73305.896 107791.578 -73234.095 107819.407 -73215.5 111661.993 -73215.5 111689.822 -73234.095 111863.166 -73305.896 112047.187 -73342.5 112234.813 -73342.5 112418.834 -73305.896 112592.178 -73234.095 112620.007 -73215.5 115471.993 -73215.5 115499.822 -73234.095 115673.166 -73305.896 115857.187 -73342.5 116044.813 -73342.5 116228.834 -73305.896 116402.178 -73234.095 116430.007 -73215.5 123091.993 -73215.5 123119.822 -73234.095 123293.166 -73305.896 123477.187 -73342.5 123664.813 -73342.5 123848.834 -73305.896 124022.178 -73234.095 124178.184 -73129.855 124310.855 -72997.184 124415.095 -72841.178 124486.896 -72667.834 124504.268 -72580.5 129822.993 -72580.5 129850.822 -72599.095 130024.166 -72670.896 130208.187 -72707.5 130395.813 -72707.5 130579.834 -72670.896 130753.178 -72599.095 130909.184 -72494.855 131041.855 -72362.184 131146.095 -72206.178 131217.896 -72032.834 131254.5 -71848.813 131254.5 -71661.187 131217.896 -71477.166 131146.095 -71303.822 131041.855 -71147.816 130909.184 -71015.145 130753.178 -70910.905 130579.834 -70839.104 130436.143 -70810.522 130454.999 -70764.999 130626.178 -70694.095 130782.184 -70589.855 130914.855 -70457.184 131019.095 -70301.178 131090.896 -70127.834 131127.5 -69943.813 131127.5 -69756.187 131090.896 -69572.166 131019.095 -69398.822 130914.855 -69242.816 130782.184 -69110.145 130626.178 -69005.905 130452.834 -68934.104 130268.813 -68897.5 130081.187 -68897.5 129897.166 -68934.104 129723.822 -69005.905 129695.993 -69024.5 126917.268 -69024.5 126899.896 -68937.166 126828.095 -68763.822 126723.855 -68607.816 126625.441 -68509.402 126701.095 -68396.178 126772.896 -68222.834 126790.268 -68135.5 126901.993 -68135.5 126929.822 -68154.095 127103.166 -68225.896 127287.187 -68262.5 127474.813 -68262.5 127658.834 -68225.896 127832.178 -68154.095 127988.184 -68049.855 128120.855 -67917.184 128225.095 -67761.178 128296.896 -67587.834 128333.5 -67403.813 128333.5 -67216.187 128296.896 -67032.166 128225.095 -66858.822 128120.855 -66702.816 127988.184 -66570.145 127832.178 -66465.905 127658.834 -66394.104 127474.813 -66357.5 127287.187 -66357.5 127103.166 -66394.104 126929.822 -66465.905 126901.993 -66484.5 118716.007 -66484.5 118688.178 -66465.905 118514.834 -66394.104 118330.813 -66357.5 118143.187 -66357.5 117959.166 -66394.104 117785.822 -66465.905 117757.993 -66484.5 111096.007 -66484.5 111068.178 -66465.905 110894.834 -66394.104 110710.813 -66357.5 110523.187 -66357.5 110339.166 -66394.104 110165.822 -66465.905 110137.993 -66484.5 103583.361 -66484.5 103491.178 -66422.905 103317.834 -66351.104 103133.813 -66314.5 102946.187 -66314.5 102762.166 -66351.104 102588.822 -66422.905 102496.639 -66484.5 87670.55 -66484.5 87630 -66480.506 87589.449 -66484.5 87589.447 -66484.5 87468.174 -66496.444 87312.566 -66543.647 87169.157 -66620.301 87074.958 -66697.608 87074.955 -66697.611 87043.459 -66723.459 87017.611 -66754.956 86312.961 -67459.607 86281.46 -67485.459 86255.609 -67516.959 86178.301 -67611.158 86101.647 -67754.567 86054.445 -67910.174 86038.506 -68072 86042.501 -68112.56 86042.5 -69222.497 85950.795 -69359.744 85872.774 -69548.102 85833 -69748.061 84430.1 -69748.061 84427.184 -69745.145 84271.178 -69640.905 84097.834 -69569.104 83913.813 -69532.5 83726.187 -69532.5 83542.166 -69569.104 83368.822 -69640.905 83212.816 -69745.145 83080.145 -69877.816 82975.905 -70033.822 82904.104 -70207.166 82867.5 -70391.187 82830.896 -70207.166 82759.095 -70033.822 82654.855 -69877.816 82522.184 -69745.145 82366.178 -69640.905 82192.834 -69569.104 82008.813 -69532.5 81821.187 -69532.5 81637.166 -69569.104 81463.822 -69640.905 81307.816 -69745.145 81175.145 -69877.816 81070.905 -70033.822 80999.104 -70207.166 80962.5 -70391.187 56540 -70391.187 56540 -63523.92 56557.707 -63279.872 61265 -63279.872 61265 -63720.128 61350.89 -64151.925 61519.369 -64558.669 61763.962 -64924.729 62075.271 -65236.038 62441.331 -65480.631 62848.075 -65649.11 63279.872 -65735 63720.128 -65735 64151.925 -65649.11 64558.669 -65480.631 64924.729 -65236.038 65236.038 -64924.729 65480.631 -64558.669 65649.11 -64151.925 65735 -63720.128 65735 -63279.872 65649.11 -62848.075 65480.631 -62441.331 65295.993 -62165 69111.928 -62165 69111.928 -63915 69141.001 -64210.186 69227.104 -64494.028 69366.927 -64755.618 69555.097 -64984.903 69784.382 -65173.073 70045.972 -65312.896 70329.814 -65398.999 70625 -65428.072 72375 -65428.072 72670.186 -65398.999 72954.028 -65312.896 73215.618 -65173.073 73444.903 -64984.903 73633.073 -64755.618 73772.896 -64494.028 73811.928 -64365.357 73811.928 -67790 73824.188 -67914.482 73860.498 -68034.18 73919.463 -68144.494 73998.815 -68241.185 74095.506 -68320.537 74205.82 -68379.502 74325.518 -68415.812 74450 -68428.072 77950 -68428.072 78074.482 -68415.812 78194.18 -68379.502 78304.494 -68320.537 78401.185 -68241.185 78480.537 -68144.494 78539.502 -68034.18 78575.812 -67914.482 78588.072 -67790 78588.072 -64290 78575.812 -64165.518 78539.502 -64045.82 78480.537 -63935.506 78401.185 -63838.815 78304.494 -63759.463 78194.18 -63700.498 78074.482 -63664.188 77950 -63651.928 74450 -63651.928 74325.518 -63664.188 74205.82 -63700.498 74095.506 -63759.463 73998.815 -63838.815 73919.463 -63935.506 73878.506 -64012.131 73888.072 -63915 73888.072 -63279.872 137465 -63279.872 137465 -63720.128 137550.89 -64151.925 137719.369 -64558.669 137963.962 -64924.729 138275.271 -65236.038 138641.331 -65480.631 139048.075 -65649.11 139479.872 -65735 139920.128 -65735 140351.925 -65649.11 140758.669 -65480.631 141124.729 -65236.038 141436.038 -64924.729 141680.631 -64558.669 141849.11 -64151.925 141935 -63720.128 141935 -63279.872 141849.11 -62848.075 141680.631 -62441.331 141436.038 -62075.271 141124.729 -61763.962 140758.669 -61519.369 140351.925 -61350.89 139920.128 -61265 139479.872 -61265 139048.075 -61350.89 138641.331 -61519.369 138275.271 -61763.962 137963.962 -62075.271 137719.369 -62441.331 137550.89 -62848.075 137465 -63279.872 73888.072 -63279.872 73888.072 -62165 73858.999 -61869.814 73772.896 -61585.972 73748.324 -61540 73811.928 -61540 73824.188 -61664.482 73860.498 -61784.18 73919.463 -61894.494 73998.815 -61991.185 74095.506 -62070.537 74205.82 -62129.502 74325.518 -62165.812 74450 -62178.072 75914.25 -62175 76073 -62016.25 76073 -60167 76327 -60167 76327 -62016.25 76485.75 -62175 77950 -62178.072 78074.482 -62165.812 78194.18 -62129.502 78304.494 -62070.537 78401.185 -61991.185 78480.537 -61894.494 78539.502 -61784.18 78575.812 -61664.482 78588.072 -61540 78585 -60325.75 78426.25 -60167 76327 -60167 76073 -60167 73973.75 -60167 73815 -60325.75 73811.928 -61540 73748.324 -61540 73633.073 -61324.382 73444.903 -61095.097 73215.618 -60906.927 72954.028 -60767.104 72670.186 -60681.001 72375 -60651.928 70625 -60651.928 70329.814 -60681.001 70045.972 -60767.104 69784.382 -60906.927 69555.097 -61095.097 69366.927 -61324.382 69227.104 -61585.972 69141.001 -61869.814 69111.928 -62165 65295.993 -62165 65236.038 -62075.271 64924.729 -61763.962 64558.669 -61519.369 64151.925 -61350.89 63720.128 -61265 63279.872 -61265 62848.075 -61350.89 62441.331 -61519.369 62075.271 -61763.962 61763.962 -62075.271 61519.369 -62441.331 61350.89 -62848.075 61265 -63279.872 56557.707 -63279.872 56614.617 -62495.53 56831.739 -61512.102 57188.546 -60570.325 57677.575 -59689.905 58288.569 -58889.313 58645.898 -58540 73811.928 -58540 73815 -59754.25 73973.75 -59913 76073 -59913 76073 -58063.75 76327 -58063.75 76327 -59913 78426.25 -59913 78585 -59754.25 78588.072 -58540 78575.812 -58415.518 78539.502 -58295.82 78480.537 -58185.506 78401.185 -58088.815 78304.494 -58009.463 78194.18 -57950.498 78074.482 -57914.188 77950 -57901.928 76485.75 -57905 76327 -58063.75 76073 -58063.75 75914.25 -57905 74450 -57901.928 74325.518 -57914.188 74205.82 -57950.498 74095.506 -58009.463 73998.815 -58088.815 73919.463 -58185.506 73860.498 -58295.82 73824.188 -58415.518 73811.928 -58540 58645.898 -58540 59008.732 -58185.306 59822.987 -57592.63 60714.269 -57123.704 61663.9 -56788.353 62655.692 -56592.873 63520.164 -56540 139676.08 -56540 140704.47 -56614.617" fill="none" stroke-width="254"/><path d="M 140704.47 -56614.617 141687.898 -56831.739 142629.675 -57188.546 143510.095 -57677.575 144310.687 -58288.569 145014.694 -59008.732 145607.37 -59822.987 146076.296 -60714.269 146411.647 -61663.9 146607.127 -62655.692 146660 -63520.164 146660.001 -114276.08 146585.382 -115304.47 146368.262 -116287.896 146011.454 -117229.675 145522.424 -118110.095 144911.435 -118910.684 144191.268 -119614.694 143377.013 -120207.37 142485.731 -120676.296 141536.099 -121011.647 140544.309 -121207.127 139679.835 -121260 63523.906 -121260 62495.53 -121185.382 61512.104 -120968.262 60570.325 -120611.454 59689.905 -120122.424 58889.316 -119511.435 58185.306 -118791.268 57592.63 -117977.013 57123.704 -117085.731 56788.353 -116136.099 56592.873 -115144.309 56540 -114279.835 56540 -114079.872 61265 -114079.872 61265 -114520.128 61350.89 -114951.925 61519.369 -115358.669 61763.962 -115724.729 62075.271 -116036.038 62441.331 -116280.631 62848.075 -116449.11 63279.872 -116535 63720.128 -116535 64151.925 -116449.11 64558.669 -116280.631 64924.729 -116036.038 65236.038 -115724.729 65480.631 -115358.669 65649.11 -114951.925 65681.524 -114788.967 116555 -114788.967 116555 -115111.033 116617.832 -115426.912 116741.082 -115724.463 116920.013 -115992.252 117147.748 -116219.987 117415.537 -116398.918 117713.088 -116522.168 118028.967 -116585 118351.033 -116585 118666.912 -116522.168 118964.463 -116398.918 119232.252 -116219.987 119459.987 -115992.252 119638.918 -115724.463 119762.168 -115426.912 119825 -115111.033 119825 -114788.967 121555 -114788.967 121555 -115111.033 121617.832 -115426.912 121741.082 -115724.463 121920.013 -115992.252 122147.748 -116219.987 122415.537 -116398.918 122713.088 -116522.168 123028.967 -116585 123351.033 -116585 123666.912 -116522.168 123964.463 -116398.918 124232.252 -116219.987 124459.987 -115992.252 124638.918 -115724.463 124762.168 -115426.912 124825 -115111.033 124825 -114788.967 124762.168 -114473.088 124638.918 -114175.537 124574.997 -114079.872 137465 -114079.872 137465 -114520.128 137550.89 -114951.925 137719.369 -115358.669 137963.962 -115724.729 138275.271 -116036.038 138641.331 -116280.631 139048.075 -116449.11 139479.872 -116535 139920.128 -116535 140351.925 -116449.11 140758.669 -116280.631 141124.729 -116036.038 141436.038 -115724.729 141680.631 -115358.669 141849.11 -114951.925 141935 -114520.128 141935 -114079.872 141849.11 -113648.075 141680.631 -113241.331 141436.038 -112875.271 141124.729 -112563.962 140758.669 -112319.369 140351.925 -112150.89 139920.128 -112065 139479.872 -112065 139048.075 -112150.89 138641.331 -112319.369 138275.271 -112563.962 137963.962 -112875.271 137719.369 -113241.331 137550.89 -113648.075 137465 -114079.872 124574.997 -114079.872 124459.987 -113907.748 124232.252 -113680.013 123964.463 -113501.082 123666.912 -113377.832 123351.033 -113315 123028.967 -113315 122713.088 -113377.832 122415.537 -113501.082 122147.748 -113680.013 121920.013 -113907.748 121741.082 -114175.537 121617.832 -114473.088 121555 -114788.967 119825 -114788.967 119762.168 -114473.088 119638.918 -114175.537 119459.987 -113907.748 119232.252 -113680.013 118964.463 -113501.082 118666.912 -113377.832 118351.033 -113315 118028.967 -113315 117713.088 -113377.832 117415.537 -113501.082 117147.748 -113680.013 116920.013 -113907.748 116741.082 -114175.537 116617.832 -114473.088 116555 -114788.967 65681.524 -114788.967 65735 -114520.128 65735 -114079.872 65649.11 -113648.075 65480.631 -113241.331 65236.038 -112875.271 64924.729 -112563.962 64558.669 -112319.369 64151.925 -112150.89 63720.128 -112065 63279.872 -112065 62848.075 -112150.89 62441.331 -112319.369 62075.271 -112563.962 61763.962 -112875.271 61519.369 -113241.331 61350.89 -113648.075 61265 -114079.872 56540 -114079.872 56540 -106350 113451.928 -106350 113451.928 -109550 113464.188 -109674.482 113500.498 -109794.18 113559.463 -109904.494 113638.815 -110001.185 113735.506 -110080.537 113845.82 -110139.502 113965.518 -110175.812 114090 -110188.072 116090 -110188.072 116214.482 -110175.812 116334.18 -110139.502 116444.494 -110080.537 116541.185 -110001.185 116620.537 -109904.494 116679.502 -109794.18 116715.812 -109674.482 116728.072 -109550 116728.072 -106350 124651.928 -106350 124651.928 -109550 124664.188 -109674.482 124700.498 -109794.18 124759.463 -109904.494 124838.815 -110001.185 124935.506 -110080.537 125045.82 -110139.502 125165.518 -110175.812 125290 -110188.072 127290 -110188.072 127414.482 -110175.812 127534.18 -110139.502 127644.494 -110080.537 127741.185 -110001.185 127820.537 -109904.494 127879.502 -109794.18 127915.812 -109674.482 127928.072 -109550 127928.072 -106350 127915.812 -106225.518 127879.502 -106105.82 127820.537 -105995.506 127741.185 -105898.815 127644.494 -105819.463 127534.18 -105760.498 127414.482 -105724.188 127290 -105711.928 125290 -105711.928 125165.518 -105724.188 125045.82 -105760.498 124935.506 -105819.463 124838.815 -105898.815 124759.463 -105995.506 124700.498 -106105.82 124664.188 -106225.518 124651.928 -106350 116728.072 -106350 116715.812 -106225.518 116679.502 -106105.82 116620.537 -105995.506 116541.185 -105898.815 116444.494 -105819.463 116334.18 -105760.498 116214.482 -105724.188 116090 -105711.928 114090 -105711.928 113965.518 -105724.188 113845.82 -105760.498 113735.506 -105819.463 113638.815 -105898.815 113559.463 -105995.506 113500.498 -106105.82 113464.188 -106225.518 113451.928 -106350 56540 -106350 56540 -100288.967 116555 -100288.967 116555 -100611.033 116617.832 -100926.912 116741.082 -101224.463 116920.013 -101492.252 117147.748 -101719.987 117415.537 -101898.918 117713.088 -102022.168 118028.967 -102085 118351.033 -102085 118666.912 -102022.168 118964.463 -101898.918 119232.252 -101719.987 119459.987 -101492.252 119524.925 -101395.065 119554.587 -101405.808 120510.395 -100450 119554.587 -99494.192 119524.925 -99504.935 119459.987 -99407.748 119366.826 -99314.587 119734.192 -99314.587 120690 -100270.395 120704.143 -100256.253 120883.748 -100435.858 120869.605 -100450 120883.748 -100464.143 120704.143 -100643.748 120690 -100629.605 119734.192 -101585.413 119829.956 -101849.814 120119.571 -101990.704 120431.108 -102072.384 120752.595 -102091.718 121071.675 -102047.961 121376.088 -101942.795 121550.044 -101849.814 121604.024 -101700.777 121659.463 -101804.494 121738.815 -101901.185 121835.506 -101980.537 121945.82 -102039.502 122065.518 -102075.812 122190 -102088.072 124190 -102088.072 124314.482 -102075.812 124434.18 -102039.502 124544.494 -101980.537 124641.185 -101901.185 124720.537 -101804.494 124779.502 -101694.18 124815.812 -101574.482 124828.072 -101450 124828.072 -99450 124815.812 -99325.518 124779.502 -99205.82 124720.537 -99095.506 124641.185 -98998.815 124544.494 -98919.463 124434.18 -98860.498 124314.482 -98824.188 124190 -98811.928 122190 -98811.928 122065.518 -98824.188 121945.82 -98860.498 121835.506 -98919.463 121738.815 -98998.815 121659.463 -99095.506 121604.024 -99199.223 121550.044 -99050.186 121260.429 -98909.296 120948.892 -98827.616 120627.405 -98808.282 120308.325 -98852.039 120003.912 -98957.205 119829.956 -99050.186 119734.192 -99314.587 119366.826 -99314.587 119232.252 -99180.013 118964.463 -99001.082 118666.912 -98877.832 118351.033 -98815 118028.967 -98815 117713.088 -98877.832 117415.537 -99001.082 117147.748 -99180.013 116920.013 -99407.748 116741.082 -99675.537 116617.832 -99973.088 116555 -100288.967 56540 -100288.967 56540 -90028.665 97625 -90028.665 97625 -90311.335 97680.147 -90588.574 97788.32 -90849.727 97945.363 -91084.759 98145.241 -91284.637 98380.273 -91441.68 98641.426 -91549.853 98918.665 -91605 99201.335 -91605 99478.574 -91549.853 99739.727 -91441.68 99974.759 -91284.637 100174.637 -91084.759 100330 -90852.241 100485.363 -91084.759 100685.241 -91284.637 100920.273 -91441.68 101181.426 -91549.853 101458.665 -91605 101741.335 -91605 102018.574 -91549.853 102279.727 -91441.68 102514.759 -91284.637 102714.637 -91084.759 102870 -90852.241 103025.363 -91084.759 103225.241 -91284.637 103460.273 -91441.68 103721.426 -91549.853 103998.665 -91605 104281.335 -91605 104558.574 -91549.853 104819.727 -91441.68 105054.759 -91284.637 105254.637 -91084.759 105410 -90852.241 105565.363 -91084.759 105765.241 -91284.637 106000.273 -91441.68 106261.426 -91549.853 106538.665 -91605 106821.335 -91605 107098.574 -91549.853 107359.727 -91441.68 107594.759 -91284.637 107794.637 -91084.759 107950 -90852.241 108105.363 -91084.759 108305.241 -91284.637 108540.273 -91441.68 108801.426 -91549.853 109078.665 -91605 109361.335 -91605 109638.574 -91549.853 109899.727 -91441.68 110134.759 -91284.637 110334.637 -91084.759 110490 -90852.241 110645.363 -91084.759 110845.241 -91284.637 111080.273 -91441.68 111341.426 -91549.853 111618.665 -91605 111901.335 -91605 112178.574 -91549.853 112439.727 -91441.68 112674.759 -91284.637 112874.637 -91084.759 113030 -90852.241 113185.363 -91084.759 113385.241 -91284.637 113620.273 -91441.68 113881.426 -91549.853 114158.665 -91605 114441.335 -91605 114718.574 -91549.853 114979.727 -91441.68 115214.759 -91284.637 115414.637 -91084.759 115571.68 -90849.727 115576.067 -90839.135 115687.615 -91025.131 115876.586 -91233.519 116102.58 -91401.037 116356.913 -91521.246 116490.961 -91561.904 116713 -91439.915 116713 -90297 116693 -90297 116693 -90043 116713 -90043 116713 -88900.085 116967 -88900.085 116967 -90043 116987 -90043 116987 -90297 116967 -90297 116967 -91439.915 117189.039 -91561.904 117323.087 -91521.246 117577.42 -91401.037 117803.414 -91233.519 117992.385 -91025.131 118103.933 -90839.135 118108.32 -90849.727 118265.363 -91084.759 118465.241 -91284.637 118700.273 -91441.68 118961.426 -91549.853 119238.665 -91605 119521.335 -91605 119798.574 -91549.853 120059.727 -91441.68 120294.759 -91284.637 120494.637 -91084.759 120650 -90852.241 120805.363 -91084.759 121005.241 -91284.637 121240.273 -91441.68 121501.426 -91549.853 121778.665 -91605 122061.335 -91605 122338.574 -91549.853 122599.727 -91441.68 122834.759 -91284.637 123034.637 -91084.759 123190 -90852.241 123345.363 -91084.759 123545.241 -91284.637 123780.273 -91441.68 124041.426 -91549.853 124318.665 -91605 124601.335 -91605 124878.574 -91549.853 125139.727 -91441.68 125374.759 -91284.637 125574.637 -91084.759 125730 -90852.241 125885.363 -91084.759 126085.241 -91284.637 126320.273 -91441.68 126581.426 -91549.853 126858.665 -91605 127141.335 -91605 127418.574 -91549.853 127679.727 -91441.68 127914.759 -91284.637 128114.637 -91084.759 128270 -90852.241 128425.363 -91084.759 128625.241 -91284.637 128860.273 -91441.68 129121.426 -91549.853 129398.665 -91605 129681.335 -91605 129958.574 -91549.853 130219.727 -91441.68 130454.759 -91284.637 130654.637 -91084.759 130810 -90852.241 130965.363 -91084.759 131165.241 -91284.637 131400.273 -91441.68 131661.426 -91549.853 131938.665 -91605 132221.335 -91605 132498.574 -91549.853 132759.727 -91441.68 132994.759 -91284.637 133194.637 -91084.759 133351.68 -90849.727 133459.853 -90588.574 133515 -90311.335 133515 -90028.665 133459.853 -89751.426 133351.68 -89490.273 133194.637 -89255.241 132994.759 -89055.363 132759.727 -88898.32 132498.574 -88790.147 132221.335 -88735 131938.665 -88735 131661.426 -88790.147 131400.273 -88898.32 131165.241 -89055.363 130965.363 -89255.241 130810 -89487.759 130654.637 -89255.241 130454.759 -89055.363 130219.727 -88898.32 129958.574 -88790.147 129681.335 -88735 129398.665 -88735 129121.426 -88790.147 128860.273 -88898.32 128625.241 -89055.363 128425.363 -89255.241 128270 -89487.759 128114.637 -89255.241 127914.759 -89055.363 127679.727 -88898.32 127418.574 -88790.147 127141.335 -88735 126858.665 -88735 126581.426 -88790.147 126320.273 -88898.32 126085.241 -89055.363 125885.363 -89255.241 125730 -89487.759 125574.637 -89255.241 125374.759 -89055.363 125139.727 -88898.32 124878.574 -88790.147 124601.335 -88735 124318.665 -88735 124041.426 -88790.147 123780.273 -88898.32 123545.241 -89055.363 123345.363 -89255.241 123190 -89487.759 123034.637 -89255.241 122834.759 -89055.363 122599.727 -88898.32 122338.574 -88790.147 122061.335 -88735 121778.665 -88735 121501.426 -88790.147 121240.273 -88898.32 121005.241 -89055.363 120805.363 -89255.241 120650 -89487.759 120494.637 -89255.241 120294.759 -89055.363 120059.727 -88898.32 119798.574 -88790.147 119521.335 -88735 119238.665 -88735 118961.426 -88790.147 118700.273 -88898.32 118465.241 -89055.363 118265.363 -89255.241 118108.32 -89490.273 118103.933 -89500.865 117992.385 -89314.869 117803.414 -89106.481 117577.42 -88938.963 117323.087 -88818.754 117189.039 -88778.096 116967 -88900.085 116713 -88900.085 116490.961 -88778.096 116356.913 -88818.754 116102.58 -88938.963 115876.586 -89106.481 115687.615 -89314.869 115576.067 -89500.865 115571.68 -89490.273 115414.637 -89255.241 115214.759 -89055.363 114979.727 -88898.32 114718.574 -88790.147 114441.335 -88735 114158.665 -88735 113881.426 -88790.147 113620.273 -88898.32 113385.241 -89055.363 113185.363 -89255.241 113030 -89487.759 112874.637 -89255.241 112674.759 -89055.363 112439.727 -88898.32 112178.574 -88790.147 111901.335 -88735 111618.665 -88735 111341.426 -88790.147 111080.273 -88898.32 110845.241 -89055.363 110645.363 -89255.241 110490 -89487.759 110334.637 -89255.241 110134.759 -89055.363 109899.727 -88898.32 109638.574 -88790.147 109361.335 -88735 109078.665 -88735 108801.426 -88790.147 108540.273 -88898.32 108305.241 -89055.363 108105.363 -89255.241 107950 -89487.759 107794.637 -89255.241 107594.759 -89055.363 107359.727 -88898.32 107098.574 -88790.147 106821.335 -88735 106538.665 -88735 106261.426 -88790.147 106000.273 -88898.32 105765.241 -89055.363 105565.363 -89255.241 105410 -89487.759 105254.637 -89255.241 105054.759 -89055.363 104819.727 -88898.32 104558.574 -88790.147 104281.335 -88735 103998.665 -88735 103721.426 -88790.147 103460.273 -88898.32 103225.241 -89055.363 103025.363 -89255.241 102870 -89487.759 102714.637 -89255.241 102514.759 -89055.363 102279.727 -88898.32 102018.574 -88790.147 101741.335 -88735 101458.665 -88735 101181.426 -88790.147 100920.273 -88898.32 100685.241 -89055.363 100485.363 -89255.241 100330 -89487.759 100174.637 -89255.241 99974.759 -89055.363 99739.727 -88898.32 99478.574 -88790.147 99201.335 -88735 98918.665 -88735 98641.426 -88790.147 98380.273 -88898.32 98145.241 -89055.363 97945.363 -89255.241 97788.32 -89490.273 97680.147 -89751.426 97625 -90028.665 56540 -90028.665 56540 -82408.665 97625 -82408.665 97625 -82691.335 97680.147 -82968.574 97788.32 -83229.727 97945.363 -83464.759 98145.241 -83664.637 98380.273 -83821.68 98641.426 -83929.853 98918.665 -83985 99201.335 -83985 99478.574 -83929.853 99739.727 -83821.68 99974.759 -83664.637 100174.637 -83464.759 100330 -83232.241 100485.363 -83464.759 100685.241 -83664.637 100920.273 -83821.68 101181.426 -83929.853 101458.665 -83985 101741.335 -83985 102018.574 -83929.853 102279.727 -83821.68 102514.759 -83664.637 102714.637 -83464.759 102870 -83232.241 103025.363 -83464.759 103225.241 -83664.637 103460.273 -83821.68 103721.426 -83929.853 103998.665 -83985 104281.335 -83985 104558.574 -83929.853 104819.727 -83821.68 105054.759 -83664.637 105254.637 -83464.759 105410 -83232.241 105565.363 -83464.759 105765.241 -83664.637 106000.273 -83821.68 106261.426 -83929.853 106538.665 -83985 106821.335 -83985 107098.574 -83929.853 107359.727 -83821.68 107594.759 -83664.637 107794.637 -83464.759 107950 -83232.241 108105.363 -83464.759 108305.241 -83664.637 108540.273 -83821.68 108801.426 -83929.853 109078.665 -83985 109361.335 -83985 109638.574 -83929.853 109899.727 -83821.68 110134.759 -83664.637 110334.637 -83464.759 110490 -83232.241 110645.363 -83464.759 110845.241 -83664.637 111080.273 -83821.68 111341.426 -83929.853 111618.665 -83985 111901.335 -83985 112178.574 -83929.853 112439.727 -83821.68 112674.759 -83664.637 112874.637 -83464.759 113031.68 -83229.727 113036.067 -83219.135 113147.615 -83405.131 113336.586 -83613.519 113562.58 -83781.037 113816.913 -83901.246 113950.961 -83941.904 114173 -83819.915 114173 -82677 114153 -82677 114153 -82423 114173 -82423 114173 -81280.085 114427 -81280.085 114427 -82423 114447 -82423 114447 -82677 114427 -82677 114427 -83819.915 114649.039 -83941.904 114783.087 -83901.246 115037.42 -83781.037 115263.414 -83613.519 115452.385 -83405.131 115563.933 -83219.135 115568.32 -83229.727 115725.363 -83464.759 115925.241 -83664.637 116160.273 -83821.68 116421.426 -83929.853 116698.665 -83985 116981.335 -83985 117258.574 -83929.853 117519.727 -83821.68 117754.759 -83664.637 117954.637 -83464.759 118110 -83232.241 118265.363 -83464.759 118465.241 -83664.637 118700.273 -83821.68 118961.426 -83929.853 119238.665 -83985 119521.335 -83985 119798.574 -83929.853 120059.727 -83821.68 120294.759 -83664.637 120494.637 -83464.759 120650 -83232.241 120805.363 -83464.759 121005.241 -83664.637 121240.273 -83821.68 121501.426 -83929.853 121778.665 -83985 122061.335 -83985 122338.574 -83929.853 122599.727 -83821.68 122834.759 -83664.637 123034.637 -83464.759 123190 -83232.241 123345.363 -83464.759 123545.241 -83664.637 123780.273 -83821.68 124041.426 -83929.853 124318.665 -83985 124601.335 -83985 124878.574 -83929.853 125139.727 -83821.68 125374.759 -83664.637 125574.637 -83464.759 125730 -83232.241 125885.363 -83464.759 126085.241 -83664.637 126320.273 -83821.68 126581.426 -83929.853 126858.665 -83985 127141.335 -83985 127418.574 -83929.853 127679.727 -83821.68 127914.759 -83664.637 128114.637 -83464.759 128270 -83232.241 128425.363 -83464.759 128625.241 -83664.637 128860.273 -83821.68 129121.426 -83929.853 129398.665 -83985 129681.335 -83985 129958.574 -83929.853 130219.727 -83821.68 130454.759 -83664.637 130653.357 -83466.039 130654.188 -83474.482 130690.498 -83594.18 130749.463 -83704.494 130828.815 -83801.185 130925.506 -83880.537 131035.82 -83939.502 131155.518 -83975.812 131280 -83988.072 132880 -83988.072 133004.482 -83975.812 133124.18 -83939.502 133234.494 -83880.537 133331.185 -83801.185 133410.537 -83704.494 133469.502 -83594.18 133505.812 -83474.482 133518.072 -83350 133518.072 -82970 138211.928 -82970 138211.928 -84670 138224.188 -84794.482 138260.498 -84914.18 138319.463 -85024.494 138398.815 -85121.185 138495.506 -85200.537 138605.82 -85259.502 138678.38 -85281.513 138546.525 -85413.368 138384.01 -85656.589 138272.068 -85926.842 138215 -86213.74 138215 -86506.26 138272.068 -86793.158 138384.01 -87063.411 138546.525 -87306.632 138753.368 -87513.475 138927.76 -87630 138753.368 -87746.525 138546.525 -87953.368 138384.01 -88196.589 138272.068 -88466.842 138215 -88753.74 138215 -89046.26 138272.068 -89333.158 138384.01 -89603.411 138546.525 -89846.632 138753.368 -90053.475 138996.589 -90215.99 139266.842 -90327.932 139553.74 -90385 139846.26 -90385 140133.158 -90327.932 140403.411 -90215.99 140646.632 -90053.475 140853.475 -89846.632 140971.1 -89670.594 141142.412 -89900.269 141358.645 -90095.178 141608.748 -90244.157 141883.109 -90341.481 142113 -90220.814 142113 -89027 142367 -89027 142367 -90220.814 142596.891 -90341.481 142871.252 -90244.157 143121.355 -90095.178 143337.588 -89900.269 143511.641 -89666.92 143636.825 -89404.099 143681.476 -89256.89 143560.155 -89027 142367 -89027 142113 -89027 142093 -89027 142093 -88773 142113 -88773 142113 -88753 142367 -88753 142367 -88773 143560.155 -88773 143681.476 -88543.11 143636.825 -88395.901 143511.641 -88133.08 143337.588 -87899.731 143121.355 -87704.822 143004.466 -87635.195 143186.632 -87513.475 143393.475 -87306.632 143555.99 -87063.411 143667.932 -86793.158 143725 -86506.26 143725 -86213.74 143667.932 -85926.842 143555.99 -85656.589 143393.475 -85413.368 143186.632 -85206.525 143012.24 -85090 143186.632 -84973.475 143393.475 -84766.632 143555.99 -84523.411 143667.932 -84253.158 143725 -83966.26 143725 -83673.74 143667.932 -83386.842 143555.99 -83116.589 143393.475 -82873.368 143186.632 -82666.525 142943.411 -82504.01 142673.158 -82392.068 142386.26 -82335 142093.74 -82335 141806.842 -82392.068 141536.589 -82504.01 141293.368 -82666.525 141161.513 -82798.38 141139.502 -82725.82 141080.537 -82615.506 141001.185 -82518.815 140904.494 -82439.463 140794.18 -82380.498 140674.482 -82344.188 140550 -82331.928 138850 -82331.928 138725.518 -82344.188 138605.82 -82380.498 138495.506 -82439.463 138398.815 -82518.815 138319.463 -82615.506 138260.498 -82725.82 138224.188 -82845.518 138211.928 -82970 133518.072 -82970 133518.072 -81750 133505.812 -81625.518 133469.502 -81505.82 133410.537 -81395.506 133331.185 -81298.815 133234.494 -81219.463 133124.18 -81160.498 133004.482 -81124.188 132880 -81111.928 131280 -81111.928 131155.518 -81124.188 131035.82 -81160.498 130925.506 -81219.463 130828.815 -81298.815 130749.463 -81395.506 130690.498 -81505.82 130654.188 -81625.518 130653.357 -81633.961 130454.759 -81435.363 130219.727 -81278.32 129958.574 -81170.147 129681.335 -81115 129398.665 -81115 129121.426 -81170.147 128860.273 -81278.32 128625.241 -81435.363 128425.363 -81635.241 128270 -81867.759 128114.637 -81635.241 127914.759 -81435.363 127679.727 -81278.32 127418.574 -81170.147 127141.335 -81115 126858.665 -81115 126581.426 -81170.147 126320.273 -81278.32 126085.241 -81435.363 125885.363 -81635.241 125730 -81867.759 125574.637 -81635.241 125374.759 -81435.363 125139.727 -81278.32 124878.574 -81170.147 124601.335 -81115 124318.665 -81115 124041.426 -81170.147 123780.273 -81278.32 123545.241 -81435.363 123345.363 -81635.241 123190 -81867.759 123034.637 -81635.241 122834.759 -81435.363 122599.727 -81278.32 122338.574 -81170.147 122061.335 -81115 121778.665 -81115 121501.426 -81170.147 121240.273 -81278.32 121005.241 -81435.363 120805.363 -81635.241 120650 -81867.759 120494.637 -81635.241 120294.759 -81435.363 120059.727 -81278.32 119798.574 -81170.147 119521.335 -81115 119238.665 -81115 118961.426 -81170.147 118700.273 -81278.32 118465.241 -81435.363 118265.363 -81635.241 118110 -81867.759 117954.637 -81635.241 117754.759 -81435.363 117519.727 -81278.32 117258.574 -81170.147 116981.335 -81115 116698.665 -81115 116421.426 -81170.147 116160.273 -81278.32 115925.241 -81435.363 115725.363 -81635.241 115568.32 -81870.273 115563.933 -81880.865 115452.385 -81694.869 115263.414 -81486.481 115037.42 -81318.963 114783.087 -81198.754 114649.039 -81158.096 114427 -81280.085 114173 -81280.085 113950.961 -81158.096 113816.913 -81198.754 113562.58 -81318.963 113336.586 -81486.481 113147.615 -81694.869 113036.067 -81880.865 113031.68 -81870.273 112874.637 -81635.241 112674.759 -81435.363 112439.727 -81278.32 112178.574 -81170.147 111901.335 -81115 111618.665 -81115 111341.426 -81170.147 111080.273 -81278.32 110845.241 -81435.363 110645.363 -81635.241 110490 -81867.759 110334.637 -81635.241 110134.759 -81435.363 109899.727 -81278.32 109638.574 -81170.147 109361.335 -81115 109078.665 -81115 108801.426 -81170.147 108540.273 -81278.32 108305.241 -81435.363 108105.363 -81635.241 107950 -81867.759 107794.637 -81635.241 107594.759 -81435.363 107359.727 -81278.32 107098.574 -81170.147 106821.335 -81115 106538.665 -81115 106261.426 -81170.147 106000.273 -81278.32 105765.241 -81435.363 105565.363 -81635.241 105410 -81867.759 105254.637 -81635.241 105054.759 -81435.363 104819.727 -81278.32 104558.574 -81170.147 104281.335 -81115 103998.665 -81115 103721.426 -81170.147 103460.273 -81278.32 103225.241 -81435.363 103025.363 -81635.241 102870 -81867.759 102714.637 -81635.241 102514.759 -81435.363 102279.727 -81278.32 102018.574 -81170.147 101741.335 -81115 101458.665 -81115 101181.426 -81170.147 100920.273 -81278.32 100685.241 -81435.363 100485.363 -81635.241 100330 -81867.759 100174.637 -81635.241 99974.759 -81435.363 99739.727 -81278.32 99478.574 -81170.147 99201.335 -81115 98918.665 -81115 98641.426 -81170.147 98380.273 -81278.32 98145.241 -81435.363 97945.363 -81635.241 97788.32 -81870.273 97680.147 -82131.426 97625 -82408.665 56540 -82408.665 56540 -70391.187 80962.5 -70391.187 80962.5 -70578.813 80999.104 -70762.834 81070.905 -70936.178 81175.145 -71092.184 81307.816 -71224.855 81463.822 -71329.095 81637.166 -71400.896 81821.187 -71437.5 82008.813 -71437.5 82192.834 -71400.896 82366.178 -71329.095 82522.184 -71224.855 82654.855 -71092.184 82759.095 -70936.178 82830.896 -70762.834 82867.5 -70578.813 82904.104 -70762.834 82975.905 -70936.178 83080.145 -71092.184 83212.816 -71224.855 83368.822 -71329.095 83542.166 -71400.896 83726.187 -71437.5 83913.813 -71437.5 84097.834 -71400.896 84271.178 -71329.095 84427.184 -71224.855 84559.855 -71092.184 84664.095 -70936.178 84735.896 -70762.834 84772.5 -70578.813 84772.5 -70391.187 84735.896 -70207.166 84664.095 -70033.822 84559.855 -69877.816 84430.1 -69748.061 85833 -69748.061 85833 -69951.939 85872.774 -70151.898 85950.795 -70340.256 86047.51 -70485 85950.795 -70629.744 85872.774 -70818.102 85833 -71018.061 85833 -71221.939 85872.774 -71421.898 85950.795 -71610.256 86042.501 -71747.504 86042.5 -73619.449 86038.506 -73660 86042.5 -73700.55 86042.5 -73700.552 86054.444 -73821.825 86090.961 -73942.205 86101.647 -73977.433 86178.301 -74120.842 86188.421 -74133.173 86281.459 -74246.541 86312.966 -74272.398 89430.606 -77390.039 89456.459 -77421.541 89520.596 -77474.177 89582.157 -77524.699 89725.566 -77601.353 89881.174 -77648.556 90002.447 -77660.5 90002.449 -77660.5 90042.999 -77664.494 90083.55 -77660.5 95971.45 -77660.5 96012 -77664.494 96052.55 -77660.5 96052.553 -77660.5 96173.826 -77648.556 96329.434 -77601.353 96472.842 -77524.699 96598.541 -77421.541 96624.398 -77390.034 100798.933 -73215.5 106861.393 -73215.5 106889.222 -73234.095 107062.566 -73305.896 107246.587 -73342.5 107434.213 -73342.5 107618.234 -73305.896 107791.578 -73234.095 107819.407 -73215.5 111661.993 -73215.5 111689.822 -73234.095 111863.166 -73305.896 112047.187 -73342.5 112234.813 -73342.5 112418.834 -73305.896 112592.178 -73234.095 112620.007 -73215.5 115471.993 -73215.5 115499.822 -73234.095 115673.166 -73305.896 115857.187 -73342.5 116044.813 -73342.5 116228.834 -73305.896 116402.178 -73234.095 116430.007 -73215.5 123091.993 -73215.5 123119.822 -73234.095 123293.166 -73305.896 123477.187 -73342.5 123664.813 -73342.5 123848.834 -73305.896 124022.178 -73234.095 124178.184 -73129.855 124310.855 -72997.184 124415.095 -72841.178 124486.896 -72667.834 124504.268 -72580.5 129822.993 -72580.5 129850.822 -72599.095 130024.166 -72670.896 130208.187 -72707.5 130395.813 -72707.5 130579.834 -72670.896 130753.178 -72599.095 130909.184 -72494.855 131041.855 -72362.184 131146.095 -72206.178 131217.896 -72032.834 131254.5 -71848.813 131254.5 -71661.187 131217.896 -71477.166 131146.095 -71303.822 131041.855 -71147.816 130909.184 -71015.145 130753.178 -70910.905 130579.834 -70839.104 130436.143 -70810.522 130454.999 -70764.999 130626.178 -70694.095 130782.184 -70589.855 130914.855 -70457.184 131019.095 -70301.178 131090.896 -70127.834 131127.5 -69943.813 131127.5 -69756.187 131090.896 -69572.166 131019.095 -69398.822 130914.855 -69242.816 130782.184 -69110.145 130626.178 -69005.905 130452.834 -68934.104 130268.813 -68897.5 130081.187 -68897.5 129897.166 -68934.104 129723.822 -69005.905 129695.993 -69024.5 126917.268 -69024.5 126899.896 -68937.166 126828.095 -68763.822 126723.855 -68607.816 126625.441 -68509.402 126701.095 -68396.178 126772.896 -68222.834 126790.268 -68135.5 126901.993 -68135.5 126929.822 -68154.095 127103.166 -68225.896 127287.187 -68262.5 127474.813 -68262.5 127658.834 -68225.896 127832.178 -68154.095 127988.184 -68049.855 128120.855 -67917.184 128225.095 -67761.178 128296.896 -67587.834 128333.5 -67403.813 128333.5 -67216.187 128296.896 -67032.166 128225.095 -66858.822 128120.855 -66702.816 127988.184 -66570.145 127832.178 -66465.905 127658.834 -66394.104 127474.813 -66357.5 127287.187 -66357.5 127103.166 -66394.104 126929.822 -66465.905 126901.993 -66484.5 118716.007 -66484.5 118688.178 -66465.905 118514.834 -66394.104 118330.813 -66357.5 118143.187 -66357.5 117959.166 -66394.104 117785.822 -66465.905 117757.993 -66484.5 111096.007 -66484.5 111068.178 -66465.905 110894.834 -66394.104 110710.813 -66357.5 110523.187 -66357.5 110339.166 -66394.104 110165.822 -66465.905 110137.993 -66484.5 103583.361 -66484.5 103491.178 -66422.905 103317.834 -66351.104 103133.813 -66314.5 102946.187 -66314.5 102762.166 -66351.104 102588.822 -66422.905 102496.639 -66484.5 87670.55 -66484.5 87630 -66480.506 87589.449 -66484.5 87589.447 -66484.5 87468.174 -66496.444 87312.566 -66543.647 87169.157 -66620.301 87074.958 -66697.608 87074.955 -66697.611 87043.459 -66723.459 87017.611 -66754.956 86312.961 -67459.607 86281.46 -67485.459 86255.609 -67516.959 86178.301 -67611.158 86101.647 -67754.567 86054.445 -67910.174 86038.506 -68072 86042.501 -68112.56 86042.5 -69222.497 85950.795 -69359.744 85872.774 -69548.102 85833 -69748.061 84430.1 -69748.061 84427.184 -69745.145 84271.178 -69640.905 84097.834 -69569.104 83913.813 -69532.5 83726.187 -69532.5 83542.166 -69569.104 83368.822 -69640.905 83212.816 -69745.145 83080.145 -69877.816 82975.905 -70033.822 82904.104 -70207.166 82867.5 -70391.187 82830.896 -70207.166 82759.095 -70033.822 82654.855 -69877.816 82522.184 -69745.145 82366.178 -69640.905 82192.834 -69569.104 82008.813 -69532.5 81821.187 -69532.5 81637.166 -69569.104 81463.822 -69640.905 81307.816 -69745.145 81175.145 -69877.816 81070.905 -70033.822 80999.104 -70207.166 80962.5 -70391.187 56540 -70391.187 56540 -63523.92 56557.707 -63279.872 61265 -63279.872 61265 -63720.128 61350.89 -64151.925 61519.369 -64558.669 61763.962 -64924.729 62075.271 -65236.038 62441.331 -65480.631 62848.075 -65649.11 63279.872 -65735 63720.128 -65735 64151.925 -65649.11 64558.669 -65480.631 64924.729 -65236.038 65236.038 -64924.729 65480.631 -64558.669 65649.11 -64151.925 65735 -63720.128 65735 -63279.872 65649.11 -62848.075 65480.631 -62441.331 65295.993 -62165 69111.928 -62165 69111.928 -63915 69141.001 -64210.186 69227.104 -64494.028 69366.927 -64755.618 69555.097 -64984.903 69784.382 -65173.073 70045.972 -65312.896 70329.814 -65398.999 70625 -65428.072 72375 -65428.072 72670.186 -65398.999 72954.028 -65312.896 73215.618 -65173.073 73444.903 -64984.903 73633.073 -64755.618 73772.896 -64494.028 73811.928 -64365.357 73811.928 -67790 73824.188 -67914.482 73860.498 -68034.18 73919.463 -68144.494 73998.815 -68241.185 74095.506 -68320.537 74205.82 -68379.502 74325.518 -68415.812 74450 -68428.072 77950 -68428.072 78074.482 -68415.812 78194.18 -68379.502 78304.494 -68320.537 78401.185 -68241.185 78480.537 -68144.494 78539.502 -68034.18 78575.812 -67914.482 78588.072 -67790 78588.072 -64290 78575.812 -64165.518 78539.502 -64045.82 78480.537 -63935.506 78401.185 -63838.815 78304.494 -63759.463 78194.18 -63700.498 78074.482 -63664.188 77950 -63651.928 74450 -63651.928 74325.518 -63664.188 74205.82 -63700.498 74095.506 -63759.463 73998.815 -63838.815 73919.463 -63935.506 73878.506 -64012.131 73888.072 -63915 73888.072 -63279.872 137465 -63279.872 137465 -63720.128 137550.89 -64151.925 137719.369 -64558.669 137963.962 -64924.729 138275.271 -65236.038 138641.331 -65480.631 139048.075 -65649.11 139479.872 -65735 139920.128 -65735 140351.925 -65649.11 140758.669 -65480.631 141124.729 -65236.038 141436.038 -64924.729 141680.631 -64558.669 141849.11 -64151.925 141935 -63720.128 141935 -63279.872 141849.11 -62848.075 141680.631 -62441.331 141436.038 -62075.271 141124.729 -61763.962 140758.669 -61519.369 140351.925 -61350.89 139920.128 -61265 139479.872 -61265 139048.075 -61350.89 138641.331 -61519.369 138275.271 -61763.962 137963.962 -62075.271 137719.369 -62441.331 137550.89 -62848.075 137465 -63279.872 73888.072 -63279.872 73888.072 -62165 73858.999 -61869.814 73772.896 -61585.972 73748.324 -61540 73811.928 -61540 73824.188 -61664.482 73860.498 -61784.18 73919.463 -61894.494 73998.815 -61991.185 74095.506 -62070.537 74205.82 -62129.502 74325.518 -62165.812 74450 -62178.072 75914.25 -62175 76073 -62016.25 76073 -60167 76327 -60167 76327 -62016.25 76485.75 -62175 77950 -62178.072 78074.482 -62165.812 78194.18 -62129.502 78304.494 -62070.537 78401.185 -61991.185 78480.537 -61894.494 78539.502 -61784.18 78575.812 -61664.482 78588.072 -61540 78585 -60325.75 78426.25 -60167 76327 -60167 76073 -60167 73973.75 -60167 73815 -60325.75 73811.928 -61540 73748.324 -61540 73633.073 -61324.382 73444.903 -61095.097 73215.618 -60906.927 72954.028 -60767.104 72670.186 -60681.001 72375 -60651.928 70625 -60651.928 70329.814 -60681.001 70045.972 -60767.104 69784.382 -60906.927 69555.097 -61095.097 69366.927 -61324.382 69227.104 -61585.972 69141.001 -61869.814 69111.928 -62165 65295.993 -62165 65236.038 -62075.271 64924.729 -61763.962 64558.669 -61519.369 64151.925 -61350.89 63720.128 -61265 63279.872 -61265 62848.075 -61350.89 62441.331 -61519.369 62075.271 -61763.962 61763.962 -62075.271 61519.369 -62441.331 61350.89 -62848.075 61265 -63279.872 56557.707 -63279.872 56614.617 -62495.53 56831.739 -61512.102 57188.546 -60570.325 57677.575 -59689.905 58288.569 -58889.313 58645.898 -58540 73811.928 -58540 73815 -59754.25 73973.75 -59913 76073 -59913 76073 -58063.75 76327 -58063.75 76327 -59913 78426.25 -59913 78585 -59754.25 78588.072 -58540 78575.812 -58415.518 78539.502 -58295.82 78480.537 -58185.506 78401.185 -58088.815 78304.494 -58009.463 78194.18 -57950.498 78074.482 -57914.188 77950 -57901.928 76485.75 -57905 76327 -58063.75 76073 -58063.75 75914.25 -57905 74450 -57901.928 74325.518 -57914.188 74205.82 -57950.498 74095.506 -58009.463 73998.815 -58088.815 73919.463 -58185.506 73860.498 -58295.82 73824.188 -58415.518 73811.928 -58540 58645.898 -58540 59008.732 -58185.306 59822.987 -57592.63 60714.269 -57123.704 61663.9 -56788.353 62655.692 -56592.873 63520.164 -56540 139676.08 -56540 140704.47 -56614.617"/></g><g id="XIjbX-S2fkiz_bottom_soldermask"><use xlink:href="#qnUiMGeaYpT9_pad-10" x="142240" y="-88900"/><use xlink:href="#qnUiMGeaYpT9_pad-10" x="139700" y="-88900"/><use xlink:href="#qnUiMGeaYpT9_pad-10" x="142240" y="-86360"/><use xlink:href="#qnUiMGeaYpT9_pad-10" x="139700" y="-86360"/><use xlink:href="#qnUiMGeaYpT9_pad-10" x="142240" y="-83820"/><use xlink:href="#qnUiMGeaYpT9_pad-11" x="139700" y="-83820"/><use xlink:href="#qnUiMGeaYpT9_pad-12" x="132080" y="-90170"/><use xlink:href="#qnUiMGeaYpT9_pad-12" x="99060" y="-82550"/><use xlink:href="#qnUiMGeaYpT9_pad-12" x="129540" y="-90170"/><use xlink:href="#qnUiMGeaYpT9_pad-12" x="101600" y="-82550"/><use xlink:href="#qnUiMGeaYpT9_pad-12" x="127000" y="-90170"/><use xlink:href="#qnUiMGeaYpT9_pad-12" x="104140" y="-82550"/><use xlink:href="#qnUiMGeaYpT9_pad-12" x="124460" y="-90170"/><use xlink:href="#qnUiMGeaYpT9_pad-12" x="106680" y="-82550"/><use xlink:href="#qnUiMGeaYpT9_pad-12" x="121920" y="-90170"/><use xlink:href="#qnUiMGeaYpT9_pad-12" x="109220" y="-82550"/><use xlink:href="#qnUiMGeaYpT9_pad-12" x="119380" y="-90170"/><use xlink:href="#qnUiMGeaYpT9_pad-12" x="111760" y="-82550"/><use xlink:href="#qnUiMGeaYpT9_pad-12" x="116840" y="-90170"/><use xlink:href="#qnUiMGeaYpT9_pad-12" x="114300" y="-82550"/><use xlink:href="#qnUiMGeaYpT9_pad-12" x="114300" y="-90170"/><use xlink:href="#qnUiMGeaYpT9_pad-12" x="116840" y="-82550"/><use xlink:href="#qnUiMGeaYpT9_pad-12" x="111760" y="-90170"/><use xlink:href="#qnUiMGeaYpT9_pad-12" x="119380" y="-82550"/><use xlink:href="#qnUiMGeaYpT9_pad-12" x="109220" y="-90170"/><use xlink:href="#qnUiMGeaYpT9_pad-12" x="121920" y="-82550"/><use xlink:href="#qnUiMGeaYpT9_pad-12" x="106680" y="-90170"/><use xlink:href="#qnUiMGeaYpT9_pad-12" x="124460" y="-82550"/><use xlink:href="#qnUiMGeaYpT9_pad-12" x="104140" y="-90170"/><use xlink:href="#qnUiMGeaYpT9_pad-12" x="127000" y="-82550"/><use xlink:href="#qnUiMGeaYpT9_pad-12" x="101600" y="-90170"/><use xlink:href="#qnUiMGeaYpT9_pad-12" x="129540" y="-82550"/><use xlink:href="#qnUiMGeaYpT9_pad-12" x="99060" y="-90170"/><use xlink:href="#qnUiMGeaYpT9_pad-13" x="132080" y="-82550"/><path d="M 70625 -61290 72375 -61290 A 875 875 0 0 0 73250 -62165 L 73250 -63915 A 875 875 0 0 0 72375 -64790 L 70625 -64790 A 875 875 0 0 0 69750 -63915 L 69750 -62165 A 875 875 0 0 0 70625 -61290"/><path d="M 75200 -58540 77200 -58540 A 750 750 0 0 0 77950 -59290 L 77950 -60790 A 750 750 0 0 0 77200 -61540 L 75200 -61540 A 750 750 0 0 0 74450 -60790 L 74450 -59290 A 750 750 0 0 0 75200 -58540"/><use xlink:href="#qnUiMGeaYpT9_pad-14" x="76200" y="-66040"/><use xlink:href="#qnUiMGeaYpT9_pad-15" x="123190" y="-100450"/><use xlink:href="#qnUiMGeaYpT9_pad-16" x="120690" y="-100450"/><use xlink:href="#qnUiMGeaYpT9_pad-16" x="118190" y="-100450"/><use xlink:href="#qnUiMGeaYpT9_pad-17" x="126290" y="-107950"/><use xlink:href="#qnUiMGeaYpT9_pad-17" x="115090" y="-107950"/><use xlink:href="#qnUiMGeaYpT9_pad-16" x="123190" y="-114950"/><use xlink:href="#qnUiMGeaYpT9_pad-16" x="118190" y="-114950"/><use xlink:href="#qnUiMGeaYpT9_pad-18" x="63500" y="-114300"/><use xlink:href="#qnUiMGeaYpT9_pad-18" x="139700" y="-114300"/><use xlink:href="#qnUiMGeaYpT9_pad-18" x="63500" y="-63500"/><use xlink:href="#qnUiMGeaYpT9_pad-18" x="139700" y="-63500"/></g><g id="XIjbX-S2fkiz_bottom_drill1" transform="scale(25.4,25.4)"><use xlink:href="#IZogoe6LI3M8_pad-1" x="2500" y="-2500"/><use xlink:href="#IZogoe6LI3M8_pad-1" x="2500" y="-4500"/><use xlink:href="#IZogoe6LI3M8_pad-1" x="5500" y="-2500"/><use xlink:href="#IZogoe6LI3M8_pad-1" x="5500" y="-4500"/></g><g id="XIjbX-S2fkiz_bottom_drill2" transform="scale(25.4,25.4)"><use xlink:href="#fCVtA2xT8ueT_pad-1" x="3225" y="-2775"/><use xlink:href="#fCVtA2xT8ueT_pad-1" x="3300" y="-2775"/><use xlink:href="#fCVtA2xT8ueT_pad-1" x="3420" y="-2750"/><use xlink:href="#fCVtA2xT8ueT_pad-1" x="3420" y="-2800"/><use xlink:href="#fCVtA2xT8ueT_pad-1" x="3570" y="-2775"/><use xlink:href="#fCVtA2xT8ueT_pad-1" x="3570" y="-2825"/><use xlink:href="#fCVtA2xT8ueT_pad-1" x="3630" y="-2750"/><use xlink:href="#fCVtA2xT8ueT_pad-1" x="3630" y="-2800"/><use xlink:href="#fCVtA2xT8ueT_pad-1" x="3630" y="-2850"/><use xlink:href="#fCVtA2xT8ueT_pad-1" x="3780" y="-2775"/><use xlink:href="#fCVtA2xT8ueT_pad-1" x="3780" y="-2825"/><use xlink:href="#fCVtA2xT8ueT_pad-1" x="3780" y="-2825"/><use xlink:href="#fCVtA2xT8ueT_pad-1" x="3780" y="-2875"/><use xlink:href="#fCVtA2xT8ueT_pad-1" x="4000" y="-2675"/><use xlink:href="#fCVtA2xT8ueT_pad-1" x="4030" y="-2700"/><use xlink:href="#fCVtA2xT8ueT_pad-1" x="4056.7" y="-2648.3"/><use xlink:href="#fCVtA2xT8ueT_pad-1" x="4057" y="-2725"/><use xlink:href="#fCVtA2xT8ueT_pad-1" x="4113" y="-2825"/><use xlink:href="#fCVtA2xT8ueT_pad-1" x="4169" y="-2800"/><use xlink:href="#fCVtA2xT8ueT_pad-1" x="4200" y="-2775"/><use xlink:href="#fCVtA2xT8ueT_pad-1" x="4226" y="-2750"/><use xlink:href="#fCVtA2xT8ueT_pad-1" x="4226" y="-2850"/><use xlink:href="#fCVtA2xT8ueT_pad-1" x="4305" y="-2675"/><use xlink:href="#fCVtA2xT8ueT_pad-1" x="4330" y="-2700"/><use xlink:href="#fCVtA2xT8ueT_pad-1" x="4355" y="-2650"/><use xlink:href="#fCVtA2xT8ueT_pad-1" x="4360" y="-2725"/><use xlink:href="#fCVtA2xT8ueT_pad-1" x="4415" y="-2850"/><use xlink:href="#fCVtA2xT8ueT_pad-1" x="4470" y="-2800"/><use xlink:href="#fCVtA2xT8ueT_pad-1" x="4500" y="-2775"/><use xlink:href="#fCVtA2xT8ueT_pad-1" x="4525" y="-2750"/><use xlink:href="#fCVtA2xT8ueT_pad-1" x="4527" y="-2825"/><use xlink:href="#fCVtA2xT8ueT_pad-1" x="4565" y="-2850"/><use xlink:href="#fCVtA2xT8ueT_pad-1" x="4630" y="-2700"/><use xlink:href="#fCVtA2xT8ueT_pad-1" x="4655" y="-2650"/><use xlink:href="#fCVtA2xT8ueT_pad-1" x="4655" y="-2725"/><use xlink:href="#fCVtA2xT8ueT_pad-1" x="4710" y="-2675"/><use xlink:href="#fCVtA2xT8ueT_pad-1" x="4770" y="-2800"/><use xlink:href="#fCVtA2xT8ueT_pad-1" x="4800" y="-2775"/><use xlink:href="#fCVtA2xT8ueT_pad-1" x="4825" y="-2750"/><use xlink:href="#fCVtA2xT8ueT_pad-1" x="4829" y="-2825"/><use xlink:href="#fCVtA2xT8ueT_pad-1" x="4865" y="-2850"/><use xlink:href="#fCVtA2xT8ueT_pad-1" x="4930" y="-2700"/><use xlink:href="#fCVtA2xT8ueT_pad-1" x="4955" y="-2675"/><use xlink:href="#fCVtA2xT8ueT_pad-1" x="4960" y="-2725"/><use xlink:href="#fCVtA2xT8ueT_pad-1" x="5015" y="-2650"/><use xlink:href="#fCVtA2xT8ueT_pad-1" x="5075" y="-2800"/><use xlink:href="#fCVtA2xT8ueT_pad-1" x="5100" y="-2775"/><use xlink:href="#fCVtA2xT8ueT_pad-1" x="5125" y="-2750"/><use xlink:href="#fCVtA2xT8ueT_pad-1" x="5130" y="-2825"/><use xlink:href="#fCVtA2xT8ueT_pad-2" x="3900" y="-3250"/><use xlink:href="#fCVtA2xT8ueT_pad-2" x="3900" y="-3550"/><use xlink:href="#fCVtA2xT8ueT_pad-2" x="4000" y="-3250"/><use xlink:href="#fCVtA2xT8ueT_pad-2" x="4000" y="-3550"/><use xlink:href="#fCVtA2xT8ueT_pad-2" x="4100" y="-3250"/><use xlink:href="#fCVtA2xT8ueT_pad-2" x="4100" y="-3550"/><use xlink:href="#fCVtA2xT8ueT_pad-2" x="4200" y="-3250"/><use xlink:href="#fCVtA2xT8ueT_pad-2" x="4200" y="-3550"/><use xlink:href="#fCVtA2xT8ueT_pad-2" x="4300" y="-3250"/><use xlink:href="#fCVtA2xT8ueT_pad-2" x="4300" y="-3550"/><use xlink:href="#fCVtA2xT8ueT_pad-2" x="4400" y="-3250"/><use xlink:href="#fCVtA2xT8ueT_pad-2" x="4400" y="-3550"/><use xlink:href="#fCVtA2xT8ueT_pad-2" x="4500" y="-3250"/><use xlink:href="#fCVtA2xT8ueT_pad-2" x="4500" y="-3550"/><use xlink:href="#fCVtA2xT8ueT_pad-2" x="4600" y="-3250"/><use xlink:href="#fCVtA2xT8ueT_pad-2" x="4600" y="-3550"/><use xlink:href="#fCVtA2xT8ueT_pad-2" x="4700" y="-3250"/><use xlink:href="#fCVtA2xT8ueT_pad-2" x="4700" y="-3550"/><use xlink:href="#fCVtA2xT8ueT_pad-2" x="4800" y="-3250"/><use xlink:href="#fCVtA2xT8ueT_pad-2" x="4800" y="-3550"/><use xlink:href="#fCVtA2xT8ueT_pad-2" x="4900" y="-3250"/><use xlink:href="#fCVtA2xT8ueT_pad-2" x="4900" y="-3550"/><use xlink:href="#fCVtA2xT8ueT_pad-2" x="5000" y="-3250"/><use xlink:href="#fCVtA2xT8ueT_pad-2" x="5000" y="-3550"/><use xlink:href="#fCVtA2xT8ueT_pad-2" x="5100" y="-3250"/><use xlink:href="#fCVtA2xT8ueT_pad-2" x="5100" y="-3550"/><use xlink:href="#fCVtA2xT8ueT_pad-2" x="5200" y="-3250"/><use xlink:href="#fCVtA2xT8ueT_pad-2" x="5200" y="-3550"/><use xlink:href="#fCVtA2xT8ueT_pad-3" x="4653.1" y="-3954.7"/><use xlink:href="#fCVtA2xT8ueT_pad-3" x="4653.1" y="-4525.6"/><use xlink:href="#fCVtA2xT8ueT_pad-3" x="4751.6" y="-3954.7"/><use xlink:href="#fCVtA2xT8ueT_pad-3" x="4850" y="-3954.7"/><use xlink:href="#fCVtA2xT8ueT_pad-3" x="4850" y="-4525.6"/><use xlink:href="#fCVtA2xT8ueT_pad-3" x="5500" y="-3300"/><use xlink:href="#fCVtA2xT8ueT_pad-3" x="5500" y="-3400"/><use xlink:href="#fCVtA2xT8ueT_pad-3" x="5500" y="-3500"/><use xlink:href="#fCVtA2xT8ueT_pad-3" x="5600" y="-3300"/><use xlink:href="#fCVtA2xT8ueT_pad-3" x="5600" y="-3400"/><use xlink:href="#fCVtA2xT8ueT_pad-3" x="5600" y="-3500"/><path d="M 2815 -2442.5 2815 -2521.3 M 3039.4 -2363.8 2960.6 -2363.8 M 3039.4 -2600 2960.6 -2600" fill="none" stroke-width="39.4"/><path d="M 4531.1 -4224.4 4531.1 -4275.6 M 4972 -4224.4 4972 -4275.6" fill="none" stroke-width="59.1"/></g><clipPath id="XIjbX-S2fkiz_bottom_outline"><path d="M 63500 -121920 139700 -121920 A 7620 7620 0 0 1 147320 -114300 L 147320 -63500 A 7620 7620 0 0 1 139700 -55880 L 63500 -55880 A 7620 7620 0 0 1 55880 -63500 L 55880 -114300 A 7620 7620 0 0 1 63500 -121920" fill="none" stroke-width="50"/></clipPath><mask id="XIjbX-S2fkiz_bottom_mech-mask"><g fill="#000" stroke="#000"><rect x="55880" y="-121920" width="91440" height="66040" fill="#fff"/><use xlink:href="#XIjbX-S2fkiz_bottom_drill1"/><use xlink:href="#XIjbX-S2fkiz_bottom_drill2"/></g></mask><mask id="XIjbX-S2fkiz_bottom_cf-mask"><g fill="#fff" stroke="#fff"><use xlink:href="#XIjbX-S2fkiz_bottom_soldermask"/></g></mask><mask id="XIjbX-S2fkiz_bottom_sm-mask"><g fill="#000" stroke="#000"><rect x="55880" y="-121920" width="91440" height="66040" fill="#fff"/><use xlink:href="#XIjbX-S2fkiz_bottom_soldermask"/></g></mask></defs><g transform="translate(0,-177800) scale(1,-1)"><g mask="url(#XIjbX-S2fkiz_bottom_mech-mask)" clip-path="url(#XIjbX-S2fkiz_bottom_outline)" transform="translate(203200,0) scale(-1,1)"><rect x="55880" y="-121920" width="91440" height="66040" fill="currentColor" class="XIjbX-S2fkiz_fr4"/><use xlink:href="#XIjbX-S2fkiz_bottom_copper" fill="currentColor" stroke="currentColor" class="XIjbX-S2fkiz_cu"/><use xlink:href="#XIjbX-S2fkiz_bottom_copper" fill="currentColor" stroke="currentColor" class="XIjbX-S2fkiz_cf" mask="url(#XIjbX-S2fkiz_bottom_cf-mask)"/><g mask="url(#XIjbX-S2fkiz_bottom_sm-mask)"><rect x="55880" y="-121920" width="91440" height="66040" fill="currentColor" class="XIjbX-S2fkiz_sm"/></g></g></g></svg>