%TF.GenerationSoftware,KiCad,Pcbnew,5.1.8+dfsg1-1+b1*%
%TF.CreationDate,2021-05-03T13:53:56-05:00*%
%TF.ProjectId,fram-prototype,6672616d-2d70-4726-9f74-6f747970652e,A*%
%TF.SameCoordinates,Original*%
%TF.FileFunction,Copper,L2,Bot*%
%TF.FilePolarity,Positive*%
%FSLAX46Y46*%
G04 Gerber Fmt 4.6, Leading zero omitted, Abs format (unit mm)*
G04 Created by KiCad (PCBNEW 5.1.8+dfsg1-1+b1) date 2021-05-03 13:53:56*
%MOMM*%
%LPD*%
G01*
G04 APERTURE LIST*
%TA.AperFunction,ComponentPad*%
%ADD10O,1.600000X1.600000*%
%TD*%
%TA.AperFunction,ComponentPad*%
%ADD11R,1.600000X1.600000*%
%TD*%
%TA.AperFunction,ComponentPad*%
%ADD12C,1.500000*%
%TD*%
%TA.AperFunction,ComponentPad*%
%ADD13O,1.700000X1.700000*%
%TD*%
%TA.AperFunction,ComponentPad*%
%ADD14R,1.700000X1.700000*%
%TD*%
%TA.AperFunction,ComponentPad*%
%ADD15R,3.500000X3.500000*%
%TD*%
%TA.AperFunction,ComponentPad*%
%ADD16R,2.000000X2.000000*%
%TD*%
%TA.AperFunction,ComponentPad*%
%ADD17C,2.000000*%
%TD*%
%TA.AperFunction,ComponentPad*%
%ADD18R,2.000000X3.200000*%
%TD*%
%TA.AperFunction,ViaPad*%
%ADD19C,0.800000*%
%TD*%
%TA.AperFunction,ViaPad*%
%ADD20C,0.635000*%
%TD*%
%TA.AperFunction,Conductor*%
%ADD21C,0.381000*%
%TD*%
%TA.AperFunction,Conductor*%
%ADD22C,0.889000*%
%TD*%
%TA.AperFunction,Conductor*%
%ADD23C,0.254000*%
%TD*%
%TA.AperFunction,Conductor*%
%ADD24C,0.100000*%
%TD*%
G04 APERTURE END LIST*
D10*
%TO.P,U1,28*%
%TO.N,N/C*%
X116840000Y-93980000D03*
%TO.P,U1,14*%
X83820000Y-86360000D03*
%TO.P,U1,27*%
X114300000Y-93980000D03*
%TO.P,U1,13*%
X86360000Y-86360000D03*
%TO.P,U1,26*%
X111760000Y-93980000D03*
%TO.P,U1,12*%
X88900000Y-86360000D03*
%TO.P,U1,25*%
X109220000Y-93980000D03*
%TO.P,U1,11*%
X91440000Y-86360000D03*
%TO.P,U1,24*%
X106680000Y-93980000D03*
%TO.P,U1,10*%
%TO.N,Net-(C6-Pad2)*%
X93980000Y-86360000D03*
%TO.P,U1,23*%
%TO.N,N/C*%
X104140000Y-93980000D03*
%TO.P,U1,9*%
%TO.N,Net-(C5-Pad2)*%
X96520000Y-86360000D03*
%TO.P,U1,22*%
%TO.N,GND*%
X101600000Y-93980000D03*
%TO.P,U1,8*%
X99060000Y-86360000D03*
%TO.P,U1,21*%
%TO.N,N/C*%
X99060000Y-93980000D03*
%TO.P,U1,7*%
%TO.N,+3V3*%
X101600000Y-86360000D03*
%TO.P,U1,20*%
%TO.N,N/C*%
X96520000Y-93980000D03*
%TO.P,U1,6*%
X104140000Y-86360000D03*
%TO.P,U1,19*%
%TO.N,MOSI*%
X93980000Y-93980000D03*
%TO.P,U1,5*%
%TO.N,N/C*%
X106680000Y-86360000D03*
%TO.P,U1,18*%
%TO.N,MISO*%
X91440000Y-93980000D03*
%TO.P,U1,4*%
%TO.N,N/C*%
X109220000Y-86360000D03*
%TO.P,U1,17*%
%TO.N,SCK*%
X88900000Y-93980000D03*
%TO.P,U1,3*%
%TO.N,Net-(SW1-PadB)*%
X111760000Y-86360000D03*
%TO.P,U1,16*%
%TO.N,/7seg/~CS~*%
X86360000Y-93980000D03*
%TO.P,U1,2*%
%TO.N,Net-(SW1-PadA)*%
X114300000Y-86360000D03*
%TO.P,U1,15*%
%TO.N,Net-(U1-Pad15)*%
X83820000Y-93980000D03*
D11*
%TO.P,U1,1*%
%TO.N,Net-(J2-Pad5)*%
X116840000Y-86360000D03*
%TD*%
D12*
%TO.P,Y1,2*%
%TO.N,Net-(C6-Pad2)*%
X107515000Y-80645000D03*
%TO.P,Y1,1*%
%TO.N,Net-(C5-Pad2)*%
X112395000Y-80645000D03*
%TD*%
D13*
%TO.P,J2,6*%
%TO.N,GND*%
X135890000Y-92710000D03*
%TO.P,J2,5*%
%TO.N,Net-(J2-Pad5)*%
X133350000Y-92710000D03*
%TO.P,J2,4*%
%TO.N,MOSI*%
X135890000Y-90170000D03*
%TO.P,J2,3*%
%TO.N,SCK*%
X133350000Y-90170000D03*
%TO.P,J2,2*%
%TO.N,+3V3*%
X135890000Y-87630000D03*
D14*
%TO.P,J2,1*%
%TO.N,MISO*%
X133350000Y-87630000D03*
%TD*%
%TO.P,J1,3*%
%TO.N,N/C*%
%TA.AperFunction,ComponentPad*%
G36*
G01*
X70625000Y-61290000D02*
X72375000Y-61290000D01*
G75*
G02*
X73250000Y-62165000I0J-875000D01*
G01*
X73250000Y-63915000D01*
G75*
G02*
X72375000Y-64790000I-875000J0D01*
G01*
X70625000Y-64790000D01*
G75*
G02*
X69750000Y-63915000I0J875000D01*
G01*
X69750000Y-62165000D01*
G75*
G02*
X70625000Y-61290000I875000J0D01*
G01*
G37*
%TD.AperFunction*%
%TO.P,J1,2*%
%TO.N,Net-(D6-Pad4)*%
%TA.AperFunction,ComponentPad*%
G36*
G01*
X75200000Y-58540000D02*
X77200000Y-58540000D01*
G75*
G02*
X77950000Y-59290000I0J-750000D01*
G01*
X77950000Y-60790000D01*
G75*
G02*
X77200000Y-61540000I-750000J0D01*
G01*
X75200000Y-61540000D01*
G75*
G02*
X74450000Y-60790000I0J750000D01*
G01*
X74450000Y-59290000D01*
G75*
G02*
X75200000Y-58540000I750000J0D01*
G01*
G37*
%TD.AperFunction*%
D15*
%TO.P,J1,1*%
%TO.N,Net-(D6-Pad3)*%
X76200000Y-66040000D03*
%TD*%
D16*
%TO.P,SW1,A*%
%TO.N,Net-(SW1-PadA)*%
X123190000Y-100330000D03*
D17*
%TO.P,SW1,C*%
%TO.N,GND*%
X120690000Y-100330000D03*
%TO.P,SW1,B*%
%TO.N,Net-(SW1-PadB)*%
X118190000Y-100330000D03*
D18*
%TO.P,SW1,MP*%
%TO.N,N/C*%
X126290000Y-107830000D03*
X115090000Y-107830000D03*
D17*
%TO.P,SW1,S2*%
X123190000Y-114830000D03*
%TO.P,SW1,S1*%
X118190000Y-114830000D03*
%TD*%
D19*
%TO.N,/7seg/SEG2*%
X90678000Y-70485000D03*
D20*
X101600000Y-67945000D03*
X109347000Y-67945000D03*
X125857000Y-67945000D03*
X119634000Y-67945000D03*
D19*
%TO.N,/7seg/SEG3*%
X86868000Y-69850000D03*
D20*
X103040000Y-67267000D03*
X110617000Y-67310000D03*
X118237000Y-67310000D03*
X127381000Y-67310000D03*
D19*
%TO.N,/7seg/SEG0*%
X90678000Y-71755000D03*
D20*
X104470200Y-71755000D03*
X130302000Y-71755000D03*
X114985800Y-71755000D03*
X122656600Y-71755000D03*
D19*
%TO.N,/7seg/SEG8*%
X92202000Y-72390000D03*
D20*
X105892600Y-71120000D03*
X113538000Y-71120000D03*
X121158000Y-71120000D03*
X128905000Y-71120000D03*
D19*
%TO.N,/7seg/SEG7*%
X96012000Y-71755000D03*
X96012000Y-71755000D03*
D20*
X107340400Y-69850000D03*
X114935000Y-69850000D03*
X122555000Y-69850000D03*
X130175000Y-69850000D03*
D19*
%TO.N,/7seg/SEG1*%
X86868000Y-71120000D03*
D20*
X107340400Y-72390000D03*
X112141000Y-72390000D03*
X123571000Y-72390000D03*
X115951000Y-72390000D03*
%TO.N,/7seg/SEG6*%
X129540000Y-70485000D03*
X121920000Y-70485000D03*
X114300000Y-70485000D03*
D19*
X92202000Y-71120000D03*
X96012000Y-73025000D03*
D20*
X106680000Y-70485000D03*
D19*
%TO.N,/7seg/SEG5*%
X96012000Y-70485000D03*
D20*
X103047800Y-69215000D03*
X110744000Y-69215000D03*
X118237000Y-69215000D03*
X125984000Y-69215000D03*
%TO.N,/7seg/SEG4*%
X125222000Y-68580000D03*
X117602000Y-68580000D03*
X109982000Y-68580000D03*
D19*
X92202000Y-69850000D03*
D20*
X102362000Y-68580000D03*
%TO.N,/7seg/~CS~*%
X79375000Y-67945000D03*
%TO.N,MOSI*%
X80645000Y-68580000D03*
%TO.N,SCK*%
X80010000Y-69215000D03*
X88900000Y-88265000D03*
%TO.N,MISO*%
X87630000Y-99695000D03*
X91440000Y-88900000D03*
D19*
%TO.N,+3V3*%
X96520000Y-80010000D03*
%TD*%
D21*
%TO.N,/7seg/SEG2*%
X90678000Y-70485000D02*
X90678000Y-68707000D01*
X90678000Y-68707000D02*
X91440000Y-67945000D01*
X91440000Y-67945000D02*
X101219000Y-67945000D01*
X101219000Y-67945000D02*
X101600000Y-67945000D01*
X101600000Y-67945000D02*
X109347000Y-67945000D01*
X119634000Y-67945000D02*
X125857000Y-67945000D01*
X109347000Y-67945000D02*
X119634000Y-67945000D01*
%TO.N,/7seg/SEG3*%
X86868000Y-69850000D02*
X86868000Y-68072000D01*
X86868000Y-68072000D02*
X87630000Y-67310000D01*
X87630000Y-67310000D02*
X102616000Y-67310000D01*
X102616000Y-67310000D02*
X110617000Y-67310000D01*
X110617000Y-67310000D02*
X118237000Y-67310000D01*
X118237000Y-67310000D02*
X127381000Y-67310000D01*
%TO.N,/7seg/SEG0*%
X96012000Y-75565000D02*
X93726000Y-75565000D01*
X90678000Y-72517000D02*
X90678000Y-71755000D01*
X93726000Y-75565000D02*
X90678000Y-72517000D01*
X96012000Y-75565000D02*
X99822000Y-71755000D01*
X99822000Y-71755000D02*
X104470200Y-71755000D01*
X104470200Y-71755000D02*
X114985800Y-71755000D01*
X122656600Y-71755000D02*
X130302000Y-71755000D01*
X114985800Y-71755000D02*
X122656600Y-71755000D01*
%TO.N,/7seg/SEG8*%
X94107000Y-74295000D02*
X96012000Y-74295000D01*
X92202000Y-72390000D02*
X94107000Y-74295000D01*
X96012000Y-74295000D02*
X99187000Y-71120000D01*
X99187000Y-71120000D02*
X105892600Y-71120000D01*
X105892600Y-71120000D02*
X113538000Y-71120000D01*
X113538000Y-71120000D02*
X121158000Y-71120000D01*
X121158000Y-71120000D02*
X128905000Y-71120000D01*
%TO.N,/7seg/SEG7*%
X96012000Y-71755000D02*
X97917000Y-69850000D01*
X97917000Y-69850000D02*
X107340400Y-69850000D01*
X107340400Y-69850000D02*
X114935000Y-69850000D01*
X114935000Y-69850000D02*
X122555000Y-69850000D01*
X122555000Y-69850000D02*
X130175000Y-69850000D01*
%TO.N,/7seg/SEG1*%
X96012000Y-76835000D02*
X90043000Y-76835000D01*
X86868000Y-73660000D02*
X86868000Y-71120000D01*
X90043000Y-76835000D02*
X86868000Y-73660000D01*
X96012000Y-76835000D02*
X100457000Y-72390000D01*
X100457000Y-72390000D02*
X107340400Y-72390000D01*
X107340400Y-72390000D02*
X112141000Y-72390000D01*
X115951000Y-72390000D02*
X123571000Y-72390000D01*
X112141000Y-72390000D02*
X115951000Y-72390000D01*
%TO.N,/7seg/SEG6*%
X92202000Y-71120000D02*
X94107000Y-73025000D01*
X94107000Y-73025000D02*
X96012000Y-73025000D01*
X96012000Y-73025000D02*
X98552000Y-70485000D01*
X106680000Y-70485000D02*
X128778000Y-70485000D01*
X98552000Y-70485000D02*
X106680000Y-70485000D01*
X129540000Y-70485000D02*
X128778000Y-70485000D01*
%TO.N,/7seg/SEG5*%
X96012000Y-70485000D02*
X97282000Y-69215000D01*
X97282000Y-69215000D02*
X103047800Y-69215000D01*
X103047800Y-69215000D02*
X110744000Y-69215000D01*
X110744000Y-69215000D02*
X118237000Y-69215000D01*
X118237000Y-69215000D02*
X125984000Y-69215000D01*
%TO.N,/7seg/SEG4*%
X92202000Y-69850000D02*
X93472000Y-68580000D01*
X93472000Y-68580000D02*
X102362000Y-68580000D01*
X102362000Y-68580000D02*
X125222000Y-68580000D01*
%TO.N,/7seg/~CS~*%
X86360000Y-93980000D02*
X86360000Y-92075000D01*
X86360000Y-92075000D02*
X85090000Y-90805000D01*
X85090000Y-90805000D02*
X82550000Y-90805000D01*
X82550000Y-90805000D02*
X81280000Y-90805000D01*
X79375000Y-88900000D02*
X79375000Y-67945000D01*
X81280000Y-90805000D02*
X79375000Y-88900000D01*
%TO.N,MOSI*%
X93980000Y-93980000D02*
X89535000Y-89535000D01*
X89535000Y-89535000D02*
X82550000Y-89535000D01*
X82550000Y-89535000D02*
X81280000Y-88265000D01*
X81280000Y-88265000D02*
X80645000Y-87630000D01*
X80645000Y-87630000D02*
X80645000Y-69850000D01*
X80645000Y-68580000D02*
X80645000Y-69850000D01*
X96673299Y-91286701D02*
X93980000Y-93980000D01*
X134773299Y-91286701D02*
X96673299Y-91286701D01*
X135890000Y-90170000D02*
X134773299Y-91286701D01*
%TO.N,SCK*%
X88900000Y-93980000D02*
X88900000Y-91440000D01*
X88900000Y-91440000D02*
X87630000Y-90170000D01*
X87630000Y-90170000D02*
X82550000Y-90170000D01*
X82550000Y-90170000D02*
X82538408Y-90170000D01*
X82538408Y-90170000D02*
X81915000Y-90170000D01*
X80010000Y-88265000D02*
X80010000Y-69215000D01*
X81915000Y-90170000D02*
X80010000Y-88265000D01*
X89535000Y-88265000D02*
X88900000Y-88265000D01*
X91440000Y-90170000D02*
X89535000Y-88265000D01*
X133350000Y-90170000D02*
X91440000Y-90170000D01*
%TO.N,MISO*%
X91440000Y-93980000D02*
X91440000Y-95250000D01*
X91440000Y-95885000D02*
X87630000Y-99695000D01*
X91440000Y-95250000D02*
X91440000Y-95885000D01*
X118110000Y-88900000D02*
X91440000Y-88900000D01*
X119380000Y-87630000D02*
X118110000Y-88900000D01*
X133350000Y-87630000D02*
X119380000Y-87630000D01*
D22*
%TO.N,+3V3*%
X96520000Y-80010000D02*
X101600000Y-85090000D01*
X101600000Y-85090000D02*
X101600000Y-86360000D01*
%TD*%
D23*
%TO.N,GND*%
X140704470Y-56614617D02*
X141687898Y-56831739D01*
X142629675Y-57188546D01*
X143510095Y-57677575D01*
X144310687Y-58288569D01*
X145014694Y-59008732D01*
X145607370Y-59822987D01*
X146076296Y-60714269D01*
X146411647Y-61663900D01*
X146607127Y-62655692D01*
X146660000Y-63520164D01*
X146660001Y-114276080D01*
X146585382Y-115304470D01*
X146368262Y-116287896D01*
X146011454Y-117229675D01*
X145522424Y-118110095D01*
X144911435Y-118910684D01*
X144191268Y-119614694D01*
X143377013Y-120207370D01*
X142485731Y-120676296D01*
X141536099Y-121011647D01*
X140544309Y-121207127D01*
X139679835Y-121260000D01*
X63523906Y-121260000D01*
X62495530Y-121185382D01*
X61512104Y-120968262D01*
X60570325Y-120611454D01*
X59689905Y-120122424D01*
X58889316Y-119511435D01*
X58185306Y-118791268D01*
X57592630Y-117977013D01*
X57123704Y-117085731D01*
X56788353Y-116136099D01*
X56592873Y-115144309D01*
X56540000Y-114279835D01*
X56540000Y-114079872D01*
X61265000Y-114079872D01*
X61265000Y-114520128D01*
X61350890Y-114951925D01*
X61519369Y-115358669D01*
X61763962Y-115724729D01*
X62075271Y-116036038D01*
X62441331Y-116280631D01*
X62848075Y-116449110D01*
X63279872Y-116535000D01*
X63720128Y-116535000D01*
X64151925Y-116449110D01*
X64558669Y-116280631D01*
X64924729Y-116036038D01*
X65236038Y-115724729D01*
X65480631Y-115358669D01*
X65649110Y-114951925D01*
X65705394Y-114668967D01*
X116555000Y-114668967D01*
X116555000Y-114991033D01*
X116617832Y-115306912D01*
X116741082Y-115604463D01*
X116920013Y-115872252D01*
X117147748Y-116099987D01*
X117415537Y-116278918D01*
X117713088Y-116402168D01*
X118028967Y-116465000D01*
X118351033Y-116465000D01*
X118666912Y-116402168D01*
X118964463Y-116278918D01*
X119232252Y-116099987D01*
X119459987Y-115872252D01*
X119638918Y-115604463D01*
X119762168Y-115306912D01*
X119825000Y-114991033D01*
X119825000Y-114668967D01*
X121555000Y-114668967D01*
X121555000Y-114991033D01*
X121617832Y-115306912D01*
X121741082Y-115604463D01*
X121920013Y-115872252D01*
X122147748Y-116099987D01*
X122415537Y-116278918D01*
X122713088Y-116402168D01*
X123028967Y-116465000D01*
X123351033Y-116465000D01*
X123666912Y-116402168D01*
X123964463Y-116278918D01*
X124232252Y-116099987D01*
X124459987Y-115872252D01*
X124638918Y-115604463D01*
X124762168Y-115306912D01*
X124825000Y-114991033D01*
X124825000Y-114668967D01*
X124762168Y-114353088D01*
X124648998Y-114079872D01*
X137465000Y-114079872D01*
X137465000Y-114520128D01*
X137550890Y-114951925D01*
X137719369Y-115358669D01*
X137963962Y-115724729D01*
X138275271Y-116036038D01*
X138641331Y-116280631D01*
X139048075Y-116449110D01*
X139479872Y-116535000D01*
X139920128Y-116535000D01*
X140351925Y-116449110D01*
X140758669Y-116280631D01*
X141124729Y-116036038D01*
X141436038Y-115724729D01*
X141680631Y-115358669D01*
X141849110Y-114951925D01*
X141935000Y-114520128D01*
X141935000Y-114079872D01*
X141849110Y-113648075D01*
X141680631Y-113241331D01*
X141436038Y-112875271D01*
X141124729Y-112563962D01*
X140758669Y-112319369D01*
X140351925Y-112150890D01*
X139920128Y-112065000D01*
X139479872Y-112065000D01*
X139048075Y-112150890D01*
X138641331Y-112319369D01*
X138275271Y-112563962D01*
X137963962Y-112875271D01*
X137719369Y-113241331D01*
X137550890Y-113648075D01*
X137465000Y-114079872D01*
X124648998Y-114079872D01*
X124638918Y-114055537D01*
X124459987Y-113787748D01*
X124232252Y-113560013D01*
X123964463Y-113381082D01*
X123666912Y-113257832D01*
X123351033Y-113195000D01*
X123028967Y-113195000D01*
X122713088Y-113257832D01*
X122415537Y-113381082D01*
X122147748Y-113560013D01*
X121920013Y-113787748D01*
X121741082Y-114055537D01*
X121617832Y-114353088D01*
X121555000Y-114668967D01*
X119825000Y-114668967D01*
X119762168Y-114353088D01*
X119638918Y-114055537D01*
X119459987Y-113787748D01*
X119232252Y-113560013D01*
X118964463Y-113381082D01*
X118666912Y-113257832D01*
X118351033Y-113195000D01*
X118028967Y-113195000D01*
X117713088Y-113257832D01*
X117415537Y-113381082D01*
X117147748Y-113560013D01*
X116920013Y-113787748D01*
X116741082Y-114055537D01*
X116617832Y-114353088D01*
X116555000Y-114668967D01*
X65705394Y-114668967D01*
X65735000Y-114520128D01*
X65735000Y-114079872D01*
X65649110Y-113648075D01*
X65480631Y-113241331D01*
X65236038Y-112875271D01*
X64924729Y-112563962D01*
X64558669Y-112319369D01*
X64151925Y-112150890D01*
X63720128Y-112065000D01*
X63279872Y-112065000D01*
X62848075Y-112150890D01*
X62441331Y-112319369D01*
X62075271Y-112563962D01*
X61763962Y-112875271D01*
X61519369Y-113241331D01*
X61350890Y-113648075D01*
X61265000Y-114079872D01*
X56540000Y-114079872D01*
X56540000Y-106230000D01*
X113451928Y-106230000D01*
X113451928Y-109430000D01*
X113464188Y-109554482D01*
X113500498Y-109674180D01*
X113559463Y-109784494D01*
X113638815Y-109881185D01*
X113735506Y-109960537D01*
X113845820Y-110019502D01*
X113965518Y-110055812D01*
X114090000Y-110068072D01*
X116090000Y-110068072D01*
X116214482Y-110055812D01*
X116334180Y-110019502D01*
X116444494Y-109960537D01*
X116541185Y-109881185D01*
X116620537Y-109784494D01*
X116679502Y-109674180D01*
X116715812Y-109554482D01*
X116728072Y-109430000D01*
X116728072Y-106230000D01*
X124651928Y-106230000D01*
X124651928Y-109430000D01*
X124664188Y-109554482D01*
X124700498Y-109674180D01*
X124759463Y-109784494D01*
X124838815Y-109881185D01*
X124935506Y-109960537D01*
X125045820Y-110019502D01*
X125165518Y-110055812D01*
X125290000Y-110068072D01*
X127290000Y-110068072D01*
X127414482Y-110055812D01*
X127534180Y-110019502D01*
X127644494Y-109960537D01*
X127741185Y-109881185D01*
X127820537Y-109784494D01*
X127879502Y-109674180D01*
X127915812Y-109554482D01*
X127928072Y-109430000D01*
X127928072Y-106230000D01*
X127915812Y-106105518D01*
X127879502Y-105985820D01*
X127820537Y-105875506D01*
X127741185Y-105778815D01*
X127644494Y-105699463D01*
X127534180Y-105640498D01*
X127414482Y-105604188D01*
X127290000Y-105591928D01*
X125290000Y-105591928D01*
X125165518Y-105604188D01*
X125045820Y-105640498D01*
X124935506Y-105699463D01*
X124838815Y-105778815D01*
X124759463Y-105875506D01*
X124700498Y-105985820D01*
X124664188Y-106105518D01*
X124651928Y-106230000D01*
X116728072Y-106230000D01*
X116715812Y-106105518D01*
X116679502Y-105985820D01*
X116620537Y-105875506D01*
X116541185Y-105778815D01*
X116444494Y-105699463D01*
X116334180Y-105640498D01*
X116214482Y-105604188D01*
X116090000Y-105591928D01*
X114090000Y-105591928D01*
X113965518Y-105604188D01*
X113845820Y-105640498D01*
X113735506Y-105699463D01*
X113638815Y-105778815D01*
X113559463Y-105875506D01*
X113500498Y-105985820D01*
X113464188Y-106105518D01*
X113451928Y-106230000D01*
X56540000Y-106230000D01*
X56540000Y-63523920D01*
X56557707Y-63279872D01*
X61265000Y-63279872D01*
X61265000Y-63720128D01*
X61350890Y-64151925D01*
X61519369Y-64558669D01*
X61763962Y-64924729D01*
X62075271Y-65236038D01*
X62441331Y-65480631D01*
X62848075Y-65649110D01*
X63279872Y-65735000D01*
X63720128Y-65735000D01*
X64151925Y-65649110D01*
X64558669Y-65480631D01*
X64924729Y-65236038D01*
X65236038Y-64924729D01*
X65480631Y-64558669D01*
X65649110Y-64151925D01*
X65735000Y-63720128D01*
X65735000Y-63279872D01*
X65649110Y-62848075D01*
X65480631Y-62441331D01*
X65295993Y-62165000D01*
X69111928Y-62165000D01*
X69111928Y-63915000D01*
X69141001Y-64210186D01*
X69227104Y-64494028D01*
X69366927Y-64755618D01*
X69555097Y-64984903D01*
X69784382Y-65173073D01*
X70045972Y-65312896D01*
X70329814Y-65398999D01*
X70625000Y-65428072D01*
X72375000Y-65428072D01*
X72670186Y-65398999D01*
X72954028Y-65312896D01*
X73215618Y-65173073D01*
X73444903Y-64984903D01*
X73633073Y-64755618D01*
X73772896Y-64494028D01*
X73811928Y-64365357D01*
X73811928Y-67790000D01*
X73824188Y-67914482D01*
X73860498Y-68034180D01*
X73919463Y-68144494D01*
X73998815Y-68241185D01*
X74095506Y-68320537D01*
X74205820Y-68379502D01*
X74325518Y-68415812D01*
X74450000Y-68428072D01*
X77950000Y-68428072D01*
X78074482Y-68415812D01*
X78194180Y-68379502D01*
X78304494Y-68320537D01*
X78401185Y-68241185D01*
X78450743Y-68180799D01*
X78459104Y-68222834D01*
X78530905Y-68396178D01*
X78549501Y-68424009D01*
X78549500Y-88859450D01*
X78545506Y-88900000D01*
X78549500Y-88940550D01*
X78549500Y-88940552D01*
X78561444Y-89061825D01*
X78596635Y-89177834D01*
X78608647Y-89217433D01*
X78685301Y-89360842D01*
X78695421Y-89373173D01*
X78788459Y-89486541D01*
X78819966Y-89512398D01*
X80667611Y-91360045D01*
X80693459Y-91391541D01*
X80724955Y-91417389D01*
X80724958Y-91417392D01*
X80819157Y-91494699D01*
X80934825Y-91556525D01*
X80962566Y-91571353D01*
X81118174Y-91618556D01*
X81239447Y-91630500D01*
X81239449Y-91630500D01*
X81280000Y-91634494D01*
X81320550Y-91630500D01*
X84748068Y-91630500D01*
X85534501Y-92416934D01*
X85534501Y-92805722D01*
X85445241Y-92865363D01*
X85245363Y-93065241D01*
X85090000Y-93297759D01*
X84934637Y-93065241D01*
X84734759Y-92865363D01*
X84499727Y-92708320D01*
X84238574Y-92600147D01*
X83961335Y-92545000D01*
X83678665Y-92545000D01*
X83401426Y-92600147D01*
X83140273Y-92708320D01*
X82905241Y-92865363D01*
X82705363Y-93065241D01*
X82548320Y-93300273D01*
X82440147Y-93561426D01*
X82385000Y-93838665D01*
X82385000Y-94121335D01*
X82440147Y-94398574D01*
X82548320Y-94659727D01*
X82705363Y-94894759D01*
X82905241Y-95094637D01*
X83140273Y-95251680D01*
X83401426Y-95359853D01*
X83678665Y-95415000D01*
X83961335Y-95415000D01*
X84238574Y-95359853D01*
X84499727Y-95251680D01*
X84734759Y-95094637D01*
X84934637Y-94894759D01*
X85090000Y-94662241D01*
X85245363Y-94894759D01*
X85445241Y-95094637D01*
X85680273Y-95251680D01*
X85941426Y-95359853D01*
X86218665Y-95415000D01*
X86501335Y-95415000D01*
X86778574Y-95359853D01*
X87039727Y-95251680D01*
X87274759Y-95094637D01*
X87474637Y-94894759D01*
X87630000Y-94662241D01*
X87785363Y-94894759D01*
X87985241Y-95094637D01*
X88220273Y-95251680D01*
X88481426Y-95359853D01*
X88758665Y-95415000D01*
X89041335Y-95415000D01*
X89318574Y-95359853D01*
X89579727Y-95251680D01*
X89814759Y-95094637D01*
X90014637Y-94894759D01*
X90170000Y-94662241D01*
X90325363Y-94894759D01*
X90525241Y-95094637D01*
X90614501Y-95154278D01*
X90614501Y-95209438D01*
X90614500Y-95209448D01*
X90614500Y-95543066D01*
X87384994Y-98772574D01*
X87352166Y-98779104D01*
X87178822Y-98850905D01*
X87022816Y-98955145D01*
X86890145Y-99087816D01*
X86785905Y-99243822D01*
X86714104Y-99417166D01*
X86677500Y-99601187D01*
X86677500Y-99788813D01*
X86714104Y-99972834D01*
X86785905Y-100146178D01*
X86890145Y-100302184D01*
X87022816Y-100434855D01*
X87178822Y-100539095D01*
X87352166Y-100610896D01*
X87536187Y-100647500D01*
X87723813Y-100647500D01*
X87907834Y-100610896D01*
X88081178Y-100539095D01*
X88237184Y-100434855D01*
X88369855Y-100302184D01*
X88458867Y-100168967D01*
X116555000Y-100168967D01*
X116555000Y-100491033D01*
X116617832Y-100806912D01*
X116741082Y-101104463D01*
X116920013Y-101372252D01*
X117147748Y-101599987D01*
X117415537Y-101778918D01*
X117713088Y-101902168D01*
X118028967Y-101965000D01*
X118351033Y-101965000D01*
X118666912Y-101902168D01*
X118964463Y-101778918D01*
X119232252Y-101599987D01*
X119459987Y-101372252D01*
X119524925Y-101275065D01*
X119554587Y-101285808D01*
X120510395Y-100330000D01*
X119554587Y-99374192D01*
X119524925Y-99384935D01*
X119459987Y-99287748D01*
X119366826Y-99194587D01*
X119734192Y-99194587D01*
X120690000Y-100150395D01*
X120704143Y-100136253D01*
X120883748Y-100315858D01*
X120869605Y-100330000D01*
X120883748Y-100344143D01*
X120704143Y-100523748D01*
X120690000Y-100509605D01*
X119734192Y-101465413D01*
X119829956Y-101729814D01*
X120119571Y-101870704D01*
X120431108Y-101952384D01*
X120752595Y-101971718D01*
X121071675Y-101927961D01*
X121376088Y-101822795D01*
X121550044Y-101729814D01*
X121604024Y-101580777D01*
X121659463Y-101684494D01*
X121738815Y-101781185D01*
X121835506Y-101860537D01*
X121945820Y-101919502D01*
X122065518Y-101955812D01*
X122190000Y-101968072D01*
X124190000Y-101968072D01*
X124314482Y-101955812D01*
X124434180Y-101919502D01*
X124544494Y-101860537D01*
X124641185Y-101781185D01*
X124720537Y-101684494D01*
X124779502Y-101574180D01*
X124815812Y-101454482D01*
X124828072Y-101330000D01*
X124828072Y-99330000D01*
X124815812Y-99205518D01*
X124779502Y-99085820D01*
X124720537Y-98975506D01*
X124641185Y-98878815D01*
X124544494Y-98799463D01*
X124434180Y-98740498D01*
X124314482Y-98704188D01*
X124190000Y-98691928D01*
X122190000Y-98691928D01*
X122065518Y-98704188D01*
X121945820Y-98740498D01*
X121835506Y-98799463D01*
X121738815Y-98878815D01*
X121659463Y-98975506D01*
X121604024Y-99079223D01*
X121550044Y-98930186D01*
X121260429Y-98789296D01*
X120948892Y-98707616D01*
X120627405Y-98688282D01*
X120308325Y-98732039D01*
X120003912Y-98837205D01*
X119829956Y-98930186D01*
X119734192Y-99194587D01*
X119366826Y-99194587D01*
X119232252Y-99060013D01*
X118964463Y-98881082D01*
X118666912Y-98757832D01*
X118351033Y-98695000D01*
X118028967Y-98695000D01*
X117713088Y-98757832D01*
X117415537Y-98881082D01*
X117147748Y-99060013D01*
X116920013Y-99287748D01*
X116741082Y-99555537D01*
X116617832Y-99853088D01*
X116555000Y-100168967D01*
X88458867Y-100168967D01*
X88474095Y-100146178D01*
X88545896Y-99972834D01*
X88552426Y-99940006D01*
X91995045Y-96497389D01*
X92026541Y-96471541D01*
X92052389Y-96440045D01*
X92052392Y-96440042D01*
X92129699Y-96345843D01*
X92206353Y-96202434D01*
X92243646Y-96079494D01*
X92253556Y-96046826D01*
X92265500Y-95925553D01*
X92265500Y-95925551D01*
X92269494Y-95885000D01*
X92265500Y-95844450D01*
X92265500Y-95154278D01*
X92354759Y-95094637D01*
X92554637Y-94894759D01*
X92710000Y-94662241D01*
X92865363Y-94894759D01*
X93065241Y-95094637D01*
X93300273Y-95251680D01*
X93561426Y-95359853D01*
X93838665Y-95415000D01*
X94121335Y-95415000D01*
X94398574Y-95359853D01*
X94659727Y-95251680D01*
X94894759Y-95094637D01*
X95094637Y-94894759D01*
X95250000Y-94662241D01*
X95405363Y-94894759D01*
X95605241Y-95094637D01*
X95840273Y-95251680D01*
X96101426Y-95359853D01*
X96378665Y-95415000D01*
X96661335Y-95415000D01*
X96938574Y-95359853D01*
X97199727Y-95251680D01*
X97434759Y-95094637D01*
X97634637Y-94894759D01*
X97790000Y-94662241D01*
X97945363Y-94894759D01*
X98145241Y-95094637D01*
X98380273Y-95251680D01*
X98641426Y-95359853D01*
X98918665Y-95415000D01*
X99201335Y-95415000D01*
X99478574Y-95359853D01*
X99739727Y-95251680D01*
X99974759Y-95094637D01*
X100174637Y-94894759D01*
X100331680Y-94659727D01*
X100336067Y-94649135D01*
X100447615Y-94835131D01*
X100636586Y-95043519D01*
X100862580Y-95211037D01*
X101116913Y-95331246D01*
X101250961Y-95371904D01*
X101473000Y-95249915D01*
X101473000Y-94107000D01*
X101453000Y-94107000D01*
X101453000Y-93853000D01*
X101473000Y-93853000D01*
X101473000Y-92710085D01*
X101727000Y-92710085D01*
X101727000Y-93853000D01*
X101747000Y-93853000D01*
X101747000Y-94107000D01*
X101727000Y-94107000D01*
X101727000Y-95249915D01*
X101949039Y-95371904D01*
X102083087Y-95331246D01*
X102337420Y-95211037D01*
X102563414Y-95043519D01*
X102752385Y-94835131D01*
X102863933Y-94649135D01*
X102868320Y-94659727D01*
X103025363Y-94894759D01*
X103225241Y-95094637D01*
X103460273Y-95251680D01*
X103721426Y-95359853D01*
X103998665Y-95415000D01*
X104281335Y-95415000D01*
X104558574Y-95359853D01*
X104819727Y-95251680D01*
X105054759Y-95094637D01*
X105254637Y-94894759D01*
X105410000Y-94662241D01*
X105565363Y-94894759D01*
X105765241Y-95094637D01*
X106000273Y-95251680D01*
X106261426Y-95359853D01*
X106538665Y-95415000D01*
X106821335Y-95415000D01*
X107098574Y-95359853D01*
X107359727Y-95251680D01*
X107594759Y-95094637D01*
X107794637Y-94894759D01*
X107950000Y-94662241D01*
X108105363Y-94894759D01*
X108305241Y-95094637D01*
X108540273Y-95251680D01*
X108801426Y-95359853D01*
X109078665Y-95415000D01*
X109361335Y-95415000D01*
X109638574Y-95359853D01*
X109899727Y-95251680D01*
X110134759Y-95094637D01*
X110334637Y-94894759D01*
X110490000Y-94662241D01*
X110645363Y-94894759D01*
X110845241Y-95094637D01*
X111080273Y-95251680D01*
X111341426Y-95359853D01*
X111618665Y-95415000D01*
X111901335Y-95415000D01*
X112178574Y-95359853D01*
X112439727Y-95251680D01*
X112674759Y-95094637D01*
X112874637Y-94894759D01*
X113030000Y-94662241D01*
X113185363Y-94894759D01*
X113385241Y-95094637D01*
X113620273Y-95251680D01*
X113881426Y-95359853D01*
X114158665Y-95415000D01*
X114441335Y-95415000D01*
X114718574Y-95359853D01*
X114979727Y-95251680D01*
X115214759Y-95094637D01*
X115414637Y-94894759D01*
X115570000Y-94662241D01*
X115725363Y-94894759D01*
X115925241Y-95094637D01*
X116160273Y-95251680D01*
X116421426Y-95359853D01*
X116698665Y-95415000D01*
X116981335Y-95415000D01*
X117258574Y-95359853D01*
X117519727Y-95251680D01*
X117754759Y-95094637D01*
X117954637Y-94894759D01*
X118111680Y-94659727D01*
X118219853Y-94398574D01*
X118275000Y-94121335D01*
X118275000Y-93838665D01*
X118219853Y-93561426D01*
X118111680Y-93300273D01*
X117954637Y-93065241D01*
X117754759Y-92865363D01*
X117519727Y-92708320D01*
X117258574Y-92600147D01*
X116981335Y-92545000D01*
X116698665Y-92545000D01*
X116421426Y-92600147D01*
X116160273Y-92708320D01*
X115925241Y-92865363D01*
X115725363Y-93065241D01*
X115570000Y-93297759D01*
X115414637Y-93065241D01*
X115214759Y-92865363D01*
X114979727Y-92708320D01*
X114718574Y-92600147D01*
X114441335Y-92545000D01*
X114158665Y-92545000D01*
X113881426Y-92600147D01*
X113620273Y-92708320D01*
X113385241Y-92865363D01*
X113185363Y-93065241D01*
X113030000Y-93297759D01*
X112874637Y-93065241D01*
X112674759Y-92865363D01*
X112439727Y-92708320D01*
X112178574Y-92600147D01*
X111901335Y-92545000D01*
X111618665Y-92545000D01*
X111341426Y-92600147D01*
X111080273Y-92708320D01*
X110845241Y-92865363D01*
X110645363Y-93065241D01*
X110490000Y-93297759D01*
X110334637Y-93065241D01*
X110134759Y-92865363D01*
X109899727Y-92708320D01*
X109638574Y-92600147D01*
X109361335Y-92545000D01*
X109078665Y-92545000D01*
X108801426Y-92600147D01*
X108540273Y-92708320D01*
X108305241Y-92865363D01*
X108105363Y-93065241D01*
X107950000Y-93297759D01*
X107794637Y-93065241D01*
X107594759Y-92865363D01*
X107359727Y-92708320D01*
X107098574Y-92600147D01*
X106821335Y-92545000D01*
X106538665Y-92545000D01*
X106261426Y-92600147D01*
X106000273Y-92708320D01*
X105765241Y-92865363D01*
X105565363Y-93065241D01*
X105410000Y-93297759D01*
X105254637Y-93065241D01*
X105054759Y-92865363D01*
X104819727Y-92708320D01*
X104558574Y-92600147D01*
X104281335Y-92545000D01*
X103998665Y-92545000D01*
X103721426Y-92600147D01*
X103460273Y-92708320D01*
X103225241Y-92865363D01*
X103025363Y-93065241D01*
X102868320Y-93300273D01*
X102863933Y-93310865D01*
X102752385Y-93124869D01*
X102563414Y-92916481D01*
X102337420Y-92748963D01*
X102083087Y-92628754D01*
X101949039Y-92588096D01*
X101727000Y-92710085D01*
X101473000Y-92710085D01*
X101250961Y-92588096D01*
X101116913Y-92628754D01*
X100862580Y-92748963D01*
X100636586Y-92916481D01*
X100447615Y-93124869D01*
X100336067Y-93310865D01*
X100331680Y-93300273D01*
X100174637Y-93065241D01*
X99974759Y-92865363D01*
X99739727Y-92708320D01*
X99478574Y-92600147D01*
X99201335Y-92545000D01*
X98918665Y-92545000D01*
X98641426Y-92600147D01*
X98380273Y-92708320D01*
X98145241Y-92865363D01*
X97945363Y-93065241D01*
X97790000Y-93297759D01*
X97634637Y-93065241D01*
X97434759Y-92865363D01*
X97199727Y-92708320D01*
X96938574Y-92600147D01*
X96661335Y-92545000D01*
X96582433Y-92545000D01*
X97015232Y-92112201D01*
X131990264Y-92112201D01*
X131922068Y-92276842D01*
X131865000Y-92563740D01*
X131865000Y-92856260D01*
X131922068Y-93143158D01*
X132034010Y-93413411D01*
X132196525Y-93656632D01*
X132403368Y-93863475D01*
X132646589Y-94025990D01*
X132916842Y-94137932D01*
X133203740Y-94195000D01*
X133496260Y-94195000D01*
X133783158Y-94137932D01*
X134053411Y-94025990D01*
X134296632Y-93863475D01*
X134503475Y-93656632D01*
X134621100Y-93480594D01*
X134792412Y-93710269D01*
X135008645Y-93905178D01*
X135258748Y-94054157D01*
X135533109Y-94151481D01*
X135763000Y-94030814D01*
X135763000Y-92837000D01*
X136017000Y-92837000D01*
X136017000Y-94030814D01*
X136246891Y-94151481D01*
X136521252Y-94054157D01*
X136771355Y-93905178D01*
X136987588Y-93710269D01*
X137161641Y-93476920D01*
X137286825Y-93214099D01*
X137331476Y-93066890D01*
X137210155Y-92837000D01*
X136017000Y-92837000D01*
X135763000Y-92837000D01*
X135743000Y-92837000D01*
X135743000Y-92583000D01*
X135763000Y-92583000D01*
X135763000Y-92563000D01*
X136017000Y-92563000D01*
X136017000Y-92583000D01*
X137210155Y-92583000D01*
X137331476Y-92353110D01*
X137286825Y-92205901D01*
X137161641Y-91943080D01*
X136987588Y-91709731D01*
X136771355Y-91514822D01*
X136654466Y-91445195D01*
X136836632Y-91323475D01*
X137043475Y-91116632D01*
X137205990Y-90873411D01*
X137317932Y-90603158D01*
X137375000Y-90316260D01*
X137375000Y-90023740D01*
X137317932Y-89736842D01*
X137205990Y-89466589D01*
X137043475Y-89223368D01*
X136836632Y-89016525D01*
X136662240Y-88900000D01*
X136836632Y-88783475D01*
X137043475Y-88576632D01*
X137205990Y-88333411D01*
X137317932Y-88063158D01*
X137375000Y-87776260D01*
X137375000Y-87483740D01*
X137317932Y-87196842D01*
X137205990Y-86926589D01*
X137043475Y-86683368D01*
X136836632Y-86476525D01*
X136593411Y-86314010D01*
X136323158Y-86202068D01*
X136036260Y-86145000D01*
X135743740Y-86145000D01*
X135456842Y-86202068D01*
X135186589Y-86314010D01*
X134943368Y-86476525D01*
X134811513Y-86608380D01*
X134789502Y-86535820D01*
X134730537Y-86425506D01*
X134651185Y-86328815D01*
X134554494Y-86249463D01*
X134444180Y-86190498D01*
X134324482Y-86154188D01*
X134200000Y-86141928D01*
X132500000Y-86141928D01*
X132375518Y-86154188D01*
X132255820Y-86190498D01*
X132145506Y-86249463D01*
X132048815Y-86328815D01*
X131969463Y-86425506D01*
X131910498Y-86535820D01*
X131874188Y-86655518D01*
X131861928Y-86780000D01*
X131861928Y-86804500D01*
X119420550Y-86804500D01*
X119379999Y-86800506D01*
X119339449Y-86804500D01*
X119339447Y-86804500D01*
X119218174Y-86816444D01*
X119062566Y-86863647D01*
X118969111Y-86913601D01*
X118919157Y-86940301D01*
X118878240Y-86973881D01*
X118793459Y-87043459D01*
X118767606Y-87074961D01*
X117768068Y-88074500D01*
X91919007Y-88074500D01*
X91891178Y-88055905D01*
X91717834Y-87984104D01*
X91533813Y-87947500D01*
X91346187Y-87947500D01*
X91162166Y-87984104D01*
X90988822Y-88055905D01*
X90832816Y-88160145D01*
X90715197Y-88277764D01*
X90147398Y-87709966D01*
X90121541Y-87678459D01*
X89995842Y-87575301D01*
X89852434Y-87498647D01*
X89801809Y-87483290D01*
X89814759Y-87474637D01*
X90014637Y-87274759D01*
X90170000Y-87042241D01*
X90325363Y-87274759D01*
X90525241Y-87474637D01*
X90760273Y-87631680D01*
X91021426Y-87739853D01*
X91298665Y-87795000D01*
X91581335Y-87795000D01*
X91858574Y-87739853D01*
X92119727Y-87631680D01*
X92354759Y-87474637D01*
X92554637Y-87274759D01*
X92710000Y-87042241D01*
X92865363Y-87274759D01*
X93065241Y-87474637D01*
X93300273Y-87631680D01*
X93561426Y-87739853D01*
X93838665Y-87795000D01*
X94121335Y-87795000D01*
X94398574Y-87739853D01*
X94659727Y-87631680D01*
X94894759Y-87474637D01*
X95094637Y-87274759D01*
X95250000Y-87042241D01*
X95405363Y-87274759D01*
X95605241Y-87474637D01*
X95840273Y-87631680D01*
X96101426Y-87739853D01*
X96378665Y-87795000D01*
X96661335Y-87795000D01*
X96938574Y-87739853D01*
X97199727Y-87631680D01*
X97434759Y-87474637D01*
X97634637Y-87274759D01*
X97791680Y-87039727D01*
X97796067Y-87029135D01*
X97907615Y-87215131D01*
X98096586Y-87423519D01*
X98322580Y-87591037D01*
X98576913Y-87711246D01*
X98710961Y-87751904D01*
X98933000Y-87629915D01*
X98933000Y-86487000D01*
X98913000Y-86487000D01*
X98913000Y-86233000D01*
X98933000Y-86233000D01*
X98933000Y-85090085D01*
X98710961Y-84968096D01*
X98576913Y-85008754D01*
X98322580Y-85128963D01*
X98096586Y-85296481D01*
X97907615Y-85504869D01*
X97796067Y-85690865D01*
X97791680Y-85680273D01*
X97634637Y-85445241D01*
X97434759Y-85245363D01*
X97199727Y-85088320D01*
X96938574Y-84980147D01*
X96661335Y-84925000D01*
X96378665Y-84925000D01*
X96101426Y-84980147D01*
X95840273Y-85088320D01*
X95605241Y-85245363D01*
X95405363Y-85445241D01*
X95250000Y-85677759D01*
X95094637Y-85445241D01*
X94894759Y-85245363D01*
X94659727Y-85088320D01*
X94398574Y-84980147D01*
X94121335Y-84925000D01*
X93838665Y-84925000D01*
X93561426Y-84980147D01*
X93300273Y-85088320D01*
X93065241Y-85245363D01*
X92865363Y-85445241D01*
X92710000Y-85677759D01*
X92554637Y-85445241D01*
X92354759Y-85245363D01*
X92119727Y-85088320D01*
X91858574Y-84980147D01*
X91581335Y-84925000D01*
X91298665Y-84925000D01*
X91021426Y-84980147D01*
X90760273Y-85088320D01*
X90525241Y-85245363D01*
X90325363Y-85445241D01*
X90170000Y-85677759D01*
X90014637Y-85445241D01*
X89814759Y-85245363D01*
X89579727Y-85088320D01*
X89318574Y-84980147D01*
X89041335Y-84925000D01*
X88758665Y-84925000D01*
X88481426Y-84980147D01*
X88220273Y-85088320D01*
X87985241Y-85245363D01*
X87785363Y-85445241D01*
X87630000Y-85677759D01*
X87474637Y-85445241D01*
X87274759Y-85245363D01*
X87039727Y-85088320D01*
X86778574Y-84980147D01*
X86501335Y-84925000D01*
X86218665Y-84925000D01*
X85941426Y-84980147D01*
X85680273Y-85088320D01*
X85445241Y-85245363D01*
X85245363Y-85445241D01*
X85090000Y-85677759D01*
X84934637Y-85445241D01*
X84734759Y-85245363D01*
X84499727Y-85088320D01*
X84238574Y-84980147D01*
X83961335Y-84925000D01*
X83678665Y-84925000D01*
X83401426Y-84980147D01*
X83140273Y-85088320D01*
X82905241Y-85245363D01*
X82705363Y-85445241D01*
X82548320Y-85680273D01*
X82440147Y-85941426D01*
X82385000Y-86218665D01*
X82385000Y-86501335D01*
X82440147Y-86778574D01*
X82548320Y-87039727D01*
X82705363Y-87274759D01*
X82905241Y-87474637D01*
X83140273Y-87631680D01*
X83401426Y-87739853D01*
X83678665Y-87795000D01*
X83961335Y-87795000D01*
X84238574Y-87739853D01*
X84499727Y-87631680D01*
X84734759Y-87474637D01*
X84934637Y-87274759D01*
X85090000Y-87042241D01*
X85245363Y-87274759D01*
X85445241Y-87474637D01*
X85680273Y-87631680D01*
X85941426Y-87739853D01*
X86218665Y-87795000D01*
X86501335Y-87795000D01*
X86778574Y-87739853D01*
X87039727Y-87631680D01*
X87274759Y-87474637D01*
X87474637Y-87274759D01*
X87630000Y-87042241D01*
X87785363Y-87274759D01*
X87985241Y-87474637D01*
X88199896Y-87618065D01*
X88160145Y-87657816D01*
X88055905Y-87813822D01*
X87984104Y-87987166D01*
X87947500Y-88171187D01*
X87947500Y-88358813D01*
X87984104Y-88542834D01*
X88053139Y-88709500D01*
X82891933Y-88709500D01*
X81892401Y-87709969D01*
X81892392Y-87709958D01*
X81470500Y-87288067D01*
X81470500Y-80010000D01*
X95435277Y-80010000D01*
X95456120Y-80221618D01*
X95517847Y-80425104D01*
X95618087Y-80612639D01*
X95719182Y-80735824D01*
X100462626Y-85479270D01*
X100328320Y-85680273D01*
X100323933Y-85690865D01*
X100212385Y-85504869D01*
X100023414Y-85296481D01*
X99797420Y-85128963D01*
X99543087Y-85008754D01*
X99409039Y-84968096D01*
X99187000Y-85090085D01*
X99187000Y-86233000D01*
X99207000Y-86233000D01*
X99207000Y-86487000D01*
X99187000Y-86487000D01*
X99187000Y-87629915D01*
X99409039Y-87751904D01*
X99543087Y-87711246D01*
X99797420Y-87591037D01*
X100023414Y-87423519D01*
X100212385Y-87215131D01*
X100323933Y-87029135D01*
X100328320Y-87039727D01*
X100485363Y-87274759D01*
X100685241Y-87474637D01*
X100920273Y-87631680D01*
X101181426Y-87739853D01*
X101458665Y-87795000D01*
X101741335Y-87795000D01*
X102018574Y-87739853D01*
X102279727Y-87631680D01*
X102514759Y-87474637D01*
X102714637Y-87274759D01*
X102870000Y-87042241D01*
X103025363Y-87274759D01*
X103225241Y-87474637D01*
X103460273Y-87631680D01*
X103721426Y-87739853D01*
X103998665Y-87795000D01*
X104281335Y-87795000D01*
X104558574Y-87739853D01*
X104819727Y-87631680D01*
X105054759Y-87474637D01*
X105254637Y-87274759D01*
X105410000Y-87042241D01*
X105565363Y-87274759D01*
X105765241Y-87474637D01*
X106000273Y-87631680D01*
X106261426Y-87739853D01*
X106538665Y-87795000D01*
X106821335Y-87795000D01*
X107098574Y-87739853D01*
X107359727Y-87631680D01*
X107594759Y-87474637D01*
X107794637Y-87274759D01*
X107950000Y-87042241D01*
X108105363Y-87274759D01*
X108305241Y-87474637D01*
X108540273Y-87631680D01*
X108801426Y-87739853D01*
X109078665Y-87795000D01*
X109361335Y-87795000D01*
X109638574Y-87739853D01*
X109899727Y-87631680D01*
X110134759Y-87474637D01*
X110334637Y-87274759D01*
X110490000Y-87042241D01*
X110645363Y-87274759D01*
X110845241Y-87474637D01*
X111080273Y-87631680D01*
X111341426Y-87739853D01*
X111618665Y-87795000D01*
X111901335Y-87795000D01*
X112178574Y-87739853D01*
X112439727Y-87631680D01*
X112674759Y-87474637D01*
X112874637Y-87274759D01*
X113030000Y-87042241D01*
X113185363Y-87274759D01*
X113385241Y-87474637D01*
X113620273Y-87631680D01*
X113881426Y-87739853D01*
X114158665Y-87795000D01*
X114441335Y-87795000D01*
X114718574Y-87739853D01*
X114979727Y-87631680D01*
X115214759Y-87474637D01*
X115413357Y-87276039D01*
X115414188Y-87284482D01*
X115450498Y-87404180D01*
X115509463Y-87514494D01*
X115588815Y-87611185D01*
X115685506Y-87690537D01*
X115795820Y-87749502D01*
X115915518Y-87785812D01*
X116040000Y-87798072D01*
X117640000Y-87798072D01*
X117764482Y-87785812D01*
X117884180Y-87749502D01*
X117994494Y-87690537D01*
X118091185Y-87611185D01*
X118170537Y-87514494D01*
X118229502Y-87404180D01*
X118265812Y-87284482D01*
X118278072Y-87160000D01*
X118278072Y-85560000D01*
X118265812Y-85435518D01*
X118229502Y-85315820D01*
X118170537Y-85205506D01*
X118091185Y-85108815D01*
X117994494Y-85029463D01*
X117884180Y-84970498D01*
X117764482Y-84934188D01*
X117640000Y-84921928D01*
X116040000Y-84921928D01*
X115915518Y-84934188D01*
X115795820Y-84970498D01*
X115685506Y-85029463D01*
X115588815Y-85108815D01*
X115509463Y-85205506D01*
X115450498Y-85315820D01*
X115414188Y-85435518D01*
X115413357Y-85443961D01*
X115214759Y-85245363D01*
X114979727Y-85088320D01*
X114718574Y-84980147D01*
X114441335Y-84925000D01*
X114158665Y-84925000D01*
X113881426Y-84980147D01*
X113620273Y-85088320D01*
X113385241Y-85245363D01*
X113185363Y-85445241D01*
X113030000Y-85677759D01*
X112874637Y-85445241D01*
X112674759Y-85245363D01*
X112439727Y-85088320D01*
X112178574Y-84980147D01*
X111901335Y-84925000D01*
X111618665Y-84925000D01*
X111341426Y-84980147D01*
X111080273Y-85088320D01*
X110845241Y-85245363D01*
X110645363Y-85445241D01*
X110490000Y-85677759D01*
X110334637Y-85445241D01*
X110134759Y-85245363D01*
X109899727Y-85088320D01*
X109638574Y-84980147D01*
X109361335Y-84925000D01*
X109078665Y-84925000D01*
X108801426Y-84980147D01*
X108540273Y-85088320D01*
X108305241Y-85245363D01*
X108105363Y-85445241D01*
X107950000Y-85677759D01*
X107794637Y-85445241D01*
X107594759Y-85245363D01*
X107359727Y-85088320D01*
X107098574Y-84980147D01*
X106821335Y-84925000D01*
X106538665Y-84925000D01*
X106261426Y-84980147D01*
X106000273Y-85088320D01*
X105765241Y-85245363D01*
X105565363Y-85445241D01*
X105410000Y-85677759D01*
X105254637Y-85445241D01*
X105054759Y-85245363D01*
X104819727Y-85088320D01*
X104558574Y-84980147D01*
X104281335Y-84925000D01*
X103998665Y-84925000D01*
X103721426Y-84980147D01*
X103460273Y-85088320D01*
X103225241Y-85245363D01*
X103025363Y-85445241D01*
X102870000Y-85677759D01*
X102714637Y-85445241D01*
X102679500Y-85410104D01*
X102679500Y-85143029D01*
X102684723Y-85090000D01*
X102663880Y-84878381D01*
X102602153Y-84674895D01*
X102602153Y-84674894D01*
X102501914Y-84487360D01*
X102367015Y-84322985D01*
X102325826Y-84289182D01*
X98545232Y-80508589D01*
X106130000Y-80508589D01*
X106130000Y-80781411D01*
X106183225Y-81048989D01*
X106287629Y-81301043D01*
X106439201Y-81527886D01*
X106632114Y-81720799D01*
X106858957Y-81872371D01*
X107111011Y-81976775D01*
X107378589Y-82030000D01*
X107651411Y-82030000D01*
X107918989Y-81976775D01*
X108171043Y-81872371D01*
X108397886Y-81720799D01*
X108590799Y-81527886D01*
X108742371Y-81301043D01*
X108846775Y-81048989D01*
X108900000Y-80781411D01*
X108900000Y-80508589D01*
X111010000Y-80508589D01*
X111010000Y-80781411D01*
X111063225Y-81048989D01*
X111167629Y-81301043D01*
X111319201Y-81527886D01*
X111512114Y-81720799D01*
X111738957Y-81872371D01*
X111991011Y-81976775D01*
X112258589Y-82030000D01*
X112531411Y-82030000D01*
X112798989Y-81976775D01*
X113051043Y-81872371D01*
X113277886Y-81720799D01*
X113470799Y-81527886D01*
X113622371Y-81301043D01*
X113726775Y-81048989D01*
X113780000Y-80781411D01*
X113780000Y-80508589D01*
X113726775Y-80241011D01*
X113622371Y-79988957D01*
X113470799Y-79762114D01*
X113277886Y-79569201D01*
X113051043Y-79417629D01*
X112798989Y-79313225D01*
X112531411Y-79260000D01*
X112258589Y-79260000D01*
X111991011Y-79313225D01*
X111738957Y-79417629D01*
X111512114Y-79569201D01*
X111319201Y-79762114D01*
X111167629Y-79988957D01*
X111063225Y-80241011D01*
X111010000Y-80508589D01*
X108900000Y-80508589D01*
X108846775Y-80241011D01*
X108742371Y-79988957D01*
X108590799Y-79762114D01*
X108397886Y-79569201D01*
X108171043Y-79417629D01*
X107918989Y-79313225D01*
X107651411Y-79260000D01*
X107378589Y-79260000D01*
X107111011Y-79313225D01*
X106858957Y-79417629D01*
X106632114Y-79569201D01*
X106439201Y-79762114D01*
X106287629Y-79988957D01*
X106183225Y-80241011D01*
X106130000Y-80508589D01*
X98545232Y-80508589D01*
X97245824Y-79209182D01*
X97122639Y-79108087D01*
X96935104Y-79007847D01*
X96731618Y-78946120D01*
X96520000Y-78925277D01*
X96308382Y-78946120D01*
X96104896Y-79007847D01*
X95917361Y-79108087D01*
X95752986Y-79242986D01*
X95618087Y-79407361D01*
X95517847Y-79594896D01*
X95456120Y-79798382D01*
X95435277Y-80010000D01*
X81470500Y-80010000D01*
X81470500Y-69748061D01*
X85833000Y-69748061D01*
X85833000Y-69951939D01*
X85872774Y-70151898D01*
X85950795Y-70340256D01*
X86047510Y-70485000D01*
X85950795Y-70629744D01*
X85872774Y-70818102D01*
X85833000Y-71018061D01*
X85833000Y-71221939D01*
X85872774Y-71421898D01*
X85950795Y-71610256D01*
X86042501Y-71747504D01*
X86042500Y-73619449D01*
X86038506Y-73660000D01*
X86042500Y-73700550D01*
X86042500Y-73700552D01*
X86054444Y-73821825D01*
X86090961Y-73942205D01*
X86101647Y-73977433D01*
X86178301Y-74120842D01*
X86188421Y-74133173D01*
X86281459Y-74246541D01*
X86312966Y-74272398D01*
X89430606Y-77390039D01*
X89456459Y-77421541D01*
X89520596Y-77474177D01*
X89582157Y-77524699D01*
X89725566Y-77601353D01*
X89881174Y-77648556D01*
X90002447Y-77660500D01*
X90002449Y-77660500D01*
X90042999Y-77664494D01*
X90083550Y-77660500D01*
X95971450Y-77660500D01*
X96012000Y-77664494D01*
X96052550Y-77660500D01*
X96052553Y-77660500D01*
X96173826Y-77648556D01*
X96329434Y-77601353D01*
X96472842Y-77524699D01*
X96598541Y-77421541D01*
X96624398Y-77390034D01*
X100798933Y-73215500D01*
X106861393Y-73215500D01*
X106889222Y-73234095D01*
X107062566Y-73305896D01*
X107246587Y-73342500D01*
X107434213Y-73342500D01*
X107618234Y-73305896D01*
X107791578Y-73234095D01*
X107819407Y-73215500D01*
X111661993Y-73215500D01*
X111689822Y-73234095D01*
X111863166Y-73305896D01*
X112047187Y-73342500D01*
X112234813Y-73342500D01*
X112418834Y-73305896D01*
X112592178Y-73234095D01*
X112620007Y-73215500D01*
X115471993Y-73215500D01*
X115499822Y-73234095D01*
X115673166Y-73305896D01*
X115857187Y-73342500D01*
X116044813Y-73342500D01*
X116228834Y-73305896D01*
X116402178Y-73234095D01*
X116430007Y-73215500D01*
X123091993Y-73215500D01*
X123119822Y-73234095D01*
X123293166Y-73305896D01*
X123477187Y-73342500D01*
X123664813Y-73342500D01*
X123848834Y-73305896D01*
X124022178Y-73234095D01*
X124178184Y-73129855D01*
X124310855Y-72997184D01*
X124415095Y-72841178D01*
X124486896Y-72667834D01*
X124504268Y-72580500D01*
X129822993Y-72580500D01*
X129850822Y-72599095D01*
X130024166Y-72670896D01*
X130208187Y-72707500D01*
X130395813Y-72707500D01*
X130579834Y-72670896D01*
X130753178Y-72599095D01*
X130909184Y-72494855D01*
X131041855Y-72362184D01*
X131146095Y-72206178D01*
X131217896Y-72032834D01*
X131254500Y-71848813D01*
X131254500Y-71661187D01*
X131217896Y-71477166D01*
X131146095Y-71303822D01*
X131041855Y-71147816D01*
X130909184Y-71015145D01*
X130753178Y-70910905D01*
X130579834Y-70839104D01*
X130436143Y-70810522D01*
X130454999Y-70764999D01*
X130626178Y-70694095D01*
X130782184Y-70589855D01*
X130914855Y-70457184D01*
X131019095Y-70301178D01*
X131090896Y-70127834D01*
X131127500Y-69943813D01*
X131127500Y-69756187D01*
X131090896Y-69572166D01*
X131019095Y-69398822D01*
X130914855Y-69242816D01*
X130782184Y-69110145D01*
X130626178Y-69005905D01*
X130452834Y-68934104D01*
X130268813Y-68897500D01*
X130081187Y-68897500D01*
X129897166Y-68934104D01*
X129723822Y-69005905D01*
X129695993Y-69024500D01*
X126917268Y-69024500D01*
X126899896Y-68937166D01*
X126828095Y-68763822D01*
X126723855Y-68607816D01*
X126625441Y-68509402D01*
X126701095Y-68396178D01*
X126772896Y-68222834D01*
X126790268Y-68135500D01*
X126901993Y-68135500D01*
X126929822Y-68154095D01*
X127103166Y-68225896D01*
X127287187Y-68262500D01*
X127474813Y-68262500D01*
X127658834Y-68225896D01*
X127832178Y-68154095D01*
X127988184Y-68049855D01*
X128120855Y-67917184D01*
X128225095Y-67761178D01*
X128296896Y-67587834D01*
X128333500Y-67403813D01*
X128333500Y-67216187D01*
X128296896Y-67032166D01*
X128225095Y-66858822D01*
X128120855Y-66702816D01*
X127988184Y-66570145D01*
X127832178Y-66465905D01*
X127658834Y-66394104D01*
X127474813Y-66357500D01*
X127287187Y-66357500D01*
X127103166Y-66394104D01*
X126929822Y-66465905D01*
X126901993Y-66484500D01*
X118716007Y-66484500D01*
X118688178Y-66465905D01*
X118514834Y-66394104D01*
X118330813Y-66357500D01*
X118143187Y-66357500D01*
X117959166Y-66394104D01*
X117785822Y-66465905D01*
X117757993Y-66484500D01*
X111096007Y-66484500D01*
X111068178Y-66465905D01*
X110894834Y-66394104D01*
X110710813Y-66357500D01*
X110523187Y-66357500D01*
X110339166Y-66394104D01*
X110165822Y-66465905D01*
X110137993Y-66484500D01*
X103583361Y-66484500D01*
X103491178Y-66422905D01*
X103317834Y-66351104D01*
X103133813Y-66314500D01*
X102946187Y-66314500D01*
X102762166Y-66351104D01*
X102588822Y-66422905D01*
X102496639Y-66484500D01*
X87670550Y-66484500D01*
X87630000Y-66480506D01*
X87589449Y-66484500D01*
X87589447Y-66484500D01*
X87468174Y-66496444D01*
X87312566Y-66543647D01*
X87169157Y-66620301D01*
X87074958Y-66697608D01*
X87074955Y-66697611D01*
X87043459Y-66723459D01*
X87017611Y-66754956D01*
X86312961Y-67459607D01*
X86281460Y-67485459D01*
X86255609Y-67516959D01*
X86178301Y-67611158D01*
X86101647Y-67754567D01*
X86054445Y-67910174D01*
X86038506Y-68072000D01*
X86042501Y-68112560D01*
X86042500Y-69222497D01*
X85950795Y-69359744D01*
X85872774Y-69548102D01*
X85833000Y-69748061D01*
X81470500Y-69748061D01*
X81470500Y-69059007D01*
X81489095Y-69031178D01*
X81560896Y-68857834D01*
X81597500Y-68673813D01*
X81597500Y-68486187D01*
X81560896Y-68302166D01*
X81489095Y-68128822D01*
X81384855Y-67972816D01*
X81252184Y-67840145D01*
X81096178Y-67735905D01*
X80922834Y-67664104D01*
X80738813Y-67627500D01*
X80551187Y-67627500D01*
X80367166Y-67664104D01*
X80296139Y-67693524D01*
X80290896Y-67667166D01*
X80219095Y-67493822D01*
X80114855Y-67337816D01*
X79982184Y-67205145D01*
X79826178Y-67100905D01*
X79652834Y-67029104D01*
X79468813Y-66992500D01*
X79281187Y-66992500D01*
X79097166Y-67029104D01*
X78923822Y-67100905D01*
X78767816Y-67205145D01*
X78635145Y-67337816D01*
X78588072Y-67408266D01*
X78588072Y-64290000D01*
X78575812Y-64165518D01*
X78539502Y-64045820D01*
X78480537Y-63935506D01*
X78401185Y-63838815D01*
X78304494Y-63759463D01*
X78194180Y-63700498D01*
X78074482Y-63664188D01*
X77950000Y-63651928D01*
X74450000Y-63651928D01*
X74325518Y-63664188D01*
X74205820Y-63700498D01*
X74095506Y-63759463D01*
X73998815Y-63838815D01*
X73919463Y-63935506D01*
X73878506Y-64012131D01*
X73888072Y-63915000D01*
X73888072Y-63279872D01*
X137465000Y-63279872D01*
X137465000Y-63720128D01*
X137550890Y-64151925D01*
X137719369Y-64558669D01*
X137963962Y-64924729D01*
X138275271Y-65236038D01*
X138641331Y-65480631D01*
X139048075Y-65649110D01*
X139479872Y-65735000D01*
X139920128Y-65735000D01*
X140351925Y-65649110D01*
X140758669Y-65480631D01*
X141124729Y-65236038D01*
X141436038Y-64924729D01*
X141680631Y-64558669D01*
X141849110Y-64151925D01*
X141935000Y-63720128D01*
X141935000Y-63279872D01*
X141849110Y-62848075D01*
X141680631Y-62441331D01*
X141436038Y-62075271D01*
X141124729Y-61763962D01*
X140758669Y-61519369D01*
X140351925Y-61350890D01*
X139920128Y-61265000D01*
X139479872Y-61265000D01*
X139048075Y-61350890D01*
X138641331Y-61519369D01*
X138275271Y-61763962D01*
X137963962Y-62075271D01*
X137719369Y-62441331D01*
X137550890Y-62848075D01*
X137465000Y-63279872D01*
X73888072Y-63279872D01*
X73888072Y-62165000D01*
X73858999Y-61869814D01*
X73772896Y-61585972D01*
X73633073Y-61324382D01*
X73444903Y-61095097D01*
X73215618Y-60906927D01*
X72954028Y-60767104D01*
X72670186Y-60681001D01*
X72375000Y-60651928D01*
X70625000Y-60651928D01*
X70329814Y-60681001D01*
X70045972Y-60767104D01*
X69784382Y-60906927D01*
X69555097Y-61095097D01*
X69366927Y-61324382D01*
X69227104Y-61585972D01*
X69141001Y-61869814D01*
X69111928Y-62165000D01*
X65295993Y-62165000D01*
X65236038Y-62075271D01*
X64924729Y-61763962D01*
X64558669Y-61519369D01*
X64151925Y-61350890D01*
X63720128Y-61265000D01*
X63279872Y-61265000D01*
X62848075Y-61350890D01*
X62441331Y-61519369D01*
X62075271Y-61763962D01*
X61763962Y-62075271D01*
X61519369Y-62441331D01*
X61350890Y-62848075D01*
X61265000Y-63279872D01*
X56557707Y-63279872D01*
X56614617Y-62495530D01*
X56831739Y-61512102D01*
X57188546Y-60570325D01*
X57677575Y-59689905D01*
X57982773Y-59290000D01*
X73811928Y-59290000D01*
X73811928Y-60790000D01*
X73838599Y-61060799D01*
X73917589Y-61321192D01*
X74045860Y-61561171D01*
X74218485Y-61771515D01*
X74428829Y-61944140D01*
X74668808Y-62072411D01*
X74929201Y-62151401D01*
X75200000Y-62178072D01*
X77200000Y-62178072D01*
X77470799Y-62151401D01*
X77731192Y-62072411D01*
X77971171Y-61944140D01*
X78181515Y-61771515D01*
X78354140Y-61561171D01*
X78482411Y-61321192D01*
X78561401Y-61060799D01*
X78588072Y-60790000D01*
X78588072Y-59290000D01*
X78561401Y-59019201D01*
X78482411Y-58758808D01*
X78354140Y-58518829D01*
X78181515Y-58308485D01*
X77971171Y-58135860D01*
X77731192Y-58007589D01*
X77470799Y-57928599D01*
X77200000Y-57901928D01*
X75200000Y-57901928D01*
X74929201Y-57928599D01*
X74668808Y-58007589D01*
X74428829Y-58135860D01*
X74218485Y-58308485D01*
X74045860Y-58518829D01*
X73917589Y-58758808D01*
X73838599Y-59019201D01*
X73811928Y-59290000D01*
X57982773Y-59290000D01*
X58288569Y-58889313D01*
X59008732Y-58185306D01*
X59822987Y-57592630D01*
X60714269Y-57123704D01*
X61663900Y-56788353D01*
X62655692Y-56592873D01*
X63520164Y-56540000D01*
X139676080Y-56540000D01*
X140704470Y-56614617D01*
%TA.AperFunction,Conductor*%
D24*
G36*
X140704470Y-56614617D02*
G01*
X141687898Y-56831739D01*
X142629675Y-57188546D01*
X143510095Y-57677575D01*
X144310687Y-58288569D01*
X145014694Y-59008732D01*
X145607370Y-59822987D01*
X146076296Y-60714269D01*
X146411647Y-61663900D01*
X146607127Y-62655692D01*
X146660000Y-63520164D01*
X146660001Y-114276080D01*
X146585382Y-115304470D01*
X146368262Y-116287896D01*
X146011454Y-117229675D01*
X145522424Y-118110095D01*
X144911435Y-118910684D01*
X144191268Y-119614694D01*
X143377013Y-120207370D01*
X142485731Y-120676296D01*
X141536099Y-121011647D01*
X140544309Y-121207127D01*
X139679835Y-121260000D01*
X63523906Y-121260000D01*
X62495530Y-121185382D01*
X61512104Y-120968262D01*
X60570325Y-120611454D01*
X59689905Y-120122424D01*
X58889316Y-119511435D01*
X58185306Y-118791268D01*
X57592630Y-117977013D01*
X57123704Y-117085731D01*
X56788353Y-116136099D01*
X56592873Y-115144309D01*
X56540000Y-114279835D01*
X56540000Y-114079872D01*
X61265000Y-114079872D01*
X61265000Y-114520128D01*
X61350890Y-114951925D01*
X61519369Y-115358669D01*
X61763962Y-115724729D01*
X62075271Y-116036038D01*
X62441331Y-116280631D01*
X62848075Y-116449110D01*
X63279872Y-116535000D01*
X63720128Y-116535000D01*
X64151925Y-116449110D01*
X64558669Y-116280631D01*
X64924729Y-116036038D01*
X65236038Y-115724729D01*
X65480631Y-115358669D01*
X65649110Y-114951925D01*
X65705394Y-114668967D01*
X116555000Y-114668967D01*
X116555000Y-114991033D01*
X116617832Y-115306912D01*
X116741082Y-115604463D01*
X116920013Y-115872252D01*
X117147748Y-116099987D01*
X117415537Y-116278918D01*
X117713088Y-116402168D01*
X118028967Y-116465000D01*
X118351033Y-116465000D01*
X118666912Y-116402168D01*
X118964463Y-116278918D01*
X119232252Y-116099987D01*
X119459987Y-115872252D01*
X119638918Y-115604463D01*
X119762168Y-115306912D01*
X119825000Y-114991033D01*
X119825000Y-114668967D01*
X121555000Y-114668967D01*
X121555000Y-114991033D01*
X121617832Y-115306912D01*
X121741082Y-115604463D01*
X121920013Y-115872252D01*
X122147748Y-116099987D01*
X122415537Y-116278918D01*
X122713088Y-116402168D01*
X123028967Y-116465000D01*
X123351033Y-116465000D01*
X123666912Y-116402168D01*
X123964463Y-116278918D01*
X124232252Y-116099987D01*
X124459987Y-115872252D01*
X124638918Y-115604463D01*
X124762168Y-115306912D01*
X124825000Y-114991033D01*
X124825000Y-114668967D01*
X124762168Y-114353088D01*
X124648998Y-114079872D01*
X137465000Y-114079872D01*
X137465000Y-114520128D01*
X137550890Y-114951925D01*
X137719369Y-115358669D01*
X137963962Y-115724729D01*
X138275271Y-116036038D01*
X138641331Y-116280631D01*
X139048075Y-116449110D01*
X139479872Y-116535000D01*
X139920128Y-116535000D01*
X140351925Y-116449110D01*
X140758669Y-116280631D01*
X141124729Y-116036038D01*
X141436038Y-115724729D01*
X141680631Y-115358669D01*
X141849110Y-114951925D01*
X141935000Y-114520128D01*
X141935000Y-114079872D01*
X141849110Y-113648075D01*
X141680631Y-113241331D01*
X141436038Y-112875271D01*
X141124729Y-112563962D01*
X140758669Y-112319369D01*
X140351925Y-112150890D01*
X139920128Y-112065000D01*
X139479872Y-112065000D01*
X139048075Y-112150890D01*
X138641331Y-112319369D01*
X138275271Y-112563962D01*
X137963962Y-112875271D01*
X137719369Y-113241331D01*
X137550890Y-113648075D01*
X137465000Y-114079872D01*
X124648998Y-114079872D01*
X124638918Y-114055537D01*
X124459987Y-113787748D01*
X124232252Y-113560013D01*
X123964463Y-113381082D01*
X123666912Y-113257832D01*
X123351033Y-113195000D01*
X123028967Y-113195000D01*
X122713088Y-113257832D01*
X122415537Y-113381082D01*
X122147748Y-113560013D01*
X121920013Y-113787748D01*
X121741082Y-114055537D01*
X121617832Y-114353088D01*
X121555000Y-114668967D01*
X119825000Y-114668967D01*
X119762168Y-114353088D01*
X119638918Y-114055537D01*
X119459987Y-113787748D01*
X119232252Y-113560013D01*
X118964463Y-113381082D01*
X118666912Y-113257832D01*
X118351033Y-113195000D01*
X118028967Y-113195000D01*
X117713088Y-113257832D01*
X117415537Y-113381082D01*
X117147748Y-113560013D01*
X116920013Y-113787748D01*
X116741082Y-114055537D01*
X116617832Y-114353088D01*
X116555000Y-114668967D01*
X65705394Y-114668967D01*
X65735000Y-114520128D01*
X65735000Y-114079872D01*
X65649110Y-113648075D01*
X65480631Y-113241331D01*
X65236038Y-112875271D01*
X64924729Y-112563962D01*
X64558669Y-112319369D01*
X64151925Y-112150890D01*
X63720128Y-112065000D01*
X63279872Y-112065000D01*
X62848075Y-112150890D01*
X62441331Y-112319369D01*
X62075271Y-112563962D01*
X61763962Y-112875271D01*
X61519369Y-113241331D01*
X61350890Y-113648075D01*
X61265000Y-114079872D01*
X56540000Y-114079872D01*
X56540000Y-106230000D01*
X113451928Y-106230000D01*
X113451928Y-109430000D01*
X113464188Y-109554482D01*
X113500498Y-109674180D01*
X113559463Y-109784494D01*
X113638815Y-109881185D01*
X113735506Y-109960537D01*
X113845820Y-110019502D01*
X113965518Y-110055812D01*
X114090000Y-110068072D01*
X116090000Y-110068072D01*
X116214482Y-110055812D01*
X116334180Y-110019502D01*
X116444494Y-109960537D01*
X116541185Y-109881185D01*
X116620537Y-109784494D01*
X116679502Y-109674180D01*
X116715812Y-109554482D01*
X116728072Y-109430000D01*
X116728072Y-106230000D01*
X124651928Y-106230000D01*
X124651928Y-109430000D01*
X124664188Y-109554482D01*
X124700498Y-109674180D01*
X124759463Y-109784494D01*
X124838815Y-109881185D01*
X124935506Y-109960537D01*
X125045820Y-110019502D01*
X125165518Y-110055812D01*
X125290000Y-110068072D01*
X127290000Y-110068072D01*
X127414482Y-110055812D01*
X127534180Y-110019502D01*
X127644494Y-109960537D01*
X127741185Y-109881185D01*
X127820537Y-109784494D01*
X127879502Y-109674180D01*
X127915812Y-109554482D01*
X127928072Y-109430000D01*
X127928072Y-106230000D01*
X127915812Y-106105518D01*
X127879502Y-105985820D01*
X127820537Y-105875506D01*
X127741185Y-105778815D01*
X127644494Y-105699463D01*
X127534180Y-105640498D01*
X127414482Y-105604188D01*
X127290000Y-105591928D01*
X125290000Y-105591928D01*
X125165518Y-105604188D01*
X125045820Y-105640498D01*
X124935506Y-105699463D01*
X124838815Y-105778815D01*
X124759463Y-105875506D01*
X124700498Y-105985820D01*
X124664188Y-106105518D01*
X124651928Y-106230000D01*
X116728072Y-106230000D01*
X116715812Y-106105518D01*
X116679502Y-105985820D01*
X116620537Y-105875506D01*
X116541185Y-105778815D01*
X116444494Y-105699463D01*
X116334180Y-105640498D01*
X116214482Y-105604188D01*
X116090000Y-105591928D01*
X114090000Y-105591928D01*
X113965518Y-105604188D01*
X113845820Y-105640498D01*
X113735506Y-105699463D01*
X113638815Y-105778815D01*
X113559463Y-105875506D01*
X113500498Y-105985820D01*
X113464188Y-106105518D01*
X113451928Y-106230000D01*
X56540000Y-106230000D01*
X56540000Y-63523920D01*
X56557707Y-63279872D01*
X61265000Y-63279872D01*
X61265000Y-63720128D01*
X61350890Y-64151925D01*
X61519369Y-64558669D01*
X61763962Y-64924729D01*
X62075271Y-65236038D01*
X62441331Y-65480631D01*
X62848075Y-65649110D01*
X63279872Y-65735000D01*
X63720128Y-65735000D01*
X64151925Y-65649110D01*
X64558669Y-65480631D01*
X64924729Y-65236038D01*
X65236038Y-64924729D01*
X65480631Y-64558669D01*
X65649110Y-64151925D01*
X65735000Y-63720128D01*
X65735000Y-63279872D01*
X65649110Y-62848075D01*
X65480631Y-62441331D01*
X65295993Y-62165000D01*
X69111928Y-62165000D01*
X69111928Y-63915000D01*
X69141001Y-64210186D01*
X69227104Y-64494028D01*
X69366927Y-64755618D01*
X69555097Y-64984903D01*
X69784382Y-65173073D01*
X70045972Y-65312896D01*
X70329814Y-65398999D01*
X70625000Y-65428072D01*
X72375000Y-65428072D01*
X72670186Y-65398999D01*
X72954028Y-65312896D01*
X73215618Y-65173073D01*
X73444903Y-64984903D01*
X73633073Y-64755618D01*
X73772896Y-64494028D01*
X73811928Y-64365357D01*
X73811928Y-67790000D01*
X73824188Y-67914482D01*
X73860498Y-68034180D01*
X73919463Y-68144494D01*
X73998815Y-68241185D01*
X74095506Y-68320537D01*
X74205820Y-68379502D01*
X74325518Y-68415812D01*
X74450000Y-68428072D01*
X77950000Y-68428072D01*
X78074482Y-68415812D01*
X78194180Y-68379502D01*
X78304494Y-68320537D01*
X78401185Y-68241185D01*
X78450743Y-68180799D01*
X78459104Y-68222834D01*
X78530905Y-68396178D01*
X78549501Y-68424009D01*
X78549500Y-88859450D01*
X78545506Y-88900000D01*
X78549500Y-88940550D01*
X78549500Y-88940552D01*
X78561444Y-89061825D01*
X78596635Y-89177834D01*
X78608647Y-89217433D01*
X78685301Y-89360842D01*
X78695421Y-89373173D01*
X78788459Y-89486541D01*
X78819966Y-89512398D01*
X80667611Y-91360045D01*
X80693459Y-91391541D01*
X80724955Y-91417389D01*
X80724958Y-91417392D01*
X80819157Y-91494699D01*
X80934825Y-91556525D01*
X80962566Y-91571353D01*
X81118174Y-91618556D01*
X81239447Y-91630500D01*
X81239449Y-91630500D01*
X81280000Y-91634494D01*
X81320550Y-91630500D01*
X84748068Y-91630500D01*
X85534501Y-92416934D01*
X85534501Y-92805722D01*
X85445241Y-92865363D01*
X85245363Y-93065241D01*
X85090000Y-93297759D01*
X84934637Y-93065241D01*
X84734759Y-92865363D01*
X84499727Y-92708320D01*
X84238574Y-92600147D01*
X83961335Y-92545000D01*
X83678665Y-92545000D01*
X83401426Y-92600147D01*
X83140273Y-92708320D01*
X82905241Y-92865363D01*
X82705363Y-93065241D01*
X82548320Y-93300273D01*
X82440147Y-93561426D01*
X82385000Y-93838665D01*
X82385000Y-94121335D01*
X82440147Y-94398574D01*
X82548320Y-94659727D01*
X82705363Y-94894759D01*
X82905241Y-95094637D01*
X83140273Y-95251680D01*
X83401426Y-95359853D01*
X83678665Y-95415000D01*
X83961335Y-95415000D01*
X84238574Y-95359853D01*
X84499727Y-95251680D01*
X84734759Y-95094637D01*
X84934637Y-94894759D01*
X85090000Y-94662241D01*
X85245363Y-94894759D01*
X85445241Y-95094637D01*
X85680273Y-95251680D01*
X85941426Y-95359853D01*
X86218665Y-95415000D01*
X86501335Y-95415000D01*
X86778574Y-95359853D01*
X87039727Y-95251680D01*
X87274759Y-95094637D01*
X87474637Y-94894759D01*
X87630000Y-94662241D01*
X87785363Y-94894759D01*
X87985241Y-95094637D01*
X88220273Y-95251680D01*
X88481426Y-95359853D01*
X88758665Y-95415000D01*
X89041335Y-95415000D01*
X89318574Y-95359853D01*
X89579727Y-95251680D01*
X89814759Y-95094637D01*
X90014637Y-94894759D01*
X90170000Y-94662241D01*
X90325363Y-94894759D01*
X90525241Y-95094637D01*
X90614501Y-95154278D01*
X90614501Y-95209438D01*
X90614500Y-95209448D01*
X90614500Y-95543066D01*
X87384994Y-98772574D01*
X87352166Y-98779104D01*
X87178822Y-98850905D01*
X87022816Y-98955145D01*
X86890145Y-99087816D01*
X86785905Y-99243822D01*
X86714104Y-99417166D01*
X86677500Y-99601187D01*
X86677500Y-99788813D01*
X86714104Y-99972834D01*
X86785905Y-100146178D01*
X86890145Y-100302184D01*
X87022816Y-100434855D01*
X87178822Y-100539095D01*
X87352166Y-100610896D01*
X87536187Y-100647500D01*
X87723813Y-100647500D01*
X87907834Y-100610896D01*
X88081178Y-100539095D01*
X88237184Y-100434855D01*
X88369855Y-100302184D01*
X88458867Y-100168967D01*
X116555000Y-100168967D01*
X116555000Y-100491033D01*
X116617832Y-100806912D01*
X116741082Y-101104463D01*
X116920013Y-101372252D01*
X117147748Y-101599987D01*
X117415537Y-101778918D01*
X117713088Y-101902168D01*
X118028967Y-101965000D01*
X118351033Y-101965000D01*
X118666912Y-101902168D01*
X118964463Y-101778918D01*
X119232252Y-101599987D01*
X119459987Y-101372252D01*
X119524925Y-101275065D01*
X119554587Y-101285808D01*
X120510395Y-100330000D01*
X119554587Y-99374192D01*
X119524925Y-99384935D01*
X119459987Y-99287748D01*
X119366826Y-99194587D01*
X119734192Y-99194587D01*
X120690000Y-100150395D01*
X120704143Y-100136253D01*
X120883748Y-100315858D01*
X120869605Y-100330000D01*
X120883748Y-100344143D01*
X120704143Y-100523748D01*
X120690000Y-100509605D01*
X119734192Y-101465413D01*
X119829956Y-101729814D01*
X120119571Y-101870704D01*
X120431108Y-101952384D01*
X120752595Y-101971718D01*
X121071675Y-101927961D01*
X121376088Y-101822795D01*
X121550044Y-101729814D01*
X121604024Y-101580777D01*
X121659463Y-101684494D01*
X121738815Y-101781185D01*
X121835506Y-101860537D01*
X121945820Y-101919502D01*
X122065518Y-101955812D01*
X122190000Y-101968072D01*
X124190000Y-101968072D01*
X124314482Y-101955812D01*
X124434180Y-101919502D01*
X124544494Y-101860537D01*
X124641185Y-101781185D01*
X124720537Y-101684494D01*
X124779502Y-101574180D01*
X124815812Y-101454482D01*
X124828072Y-101330000D01*
X124828072Y-99330000D01*
X124815812Y-99205518D01*
X124779502Y-99085820D01*
X124720537Y-98975506D01*
X124641185Y-98878815D01*
X124544494Y-98799463D01*
X124434180Y-98740498D01*
X124314482Y-98704188D01*
X124190000Y-98691928D01*
X122190000Y-98691928D01*
X122065518Y-98704188D01*
X121945820Y-98740498D01*
X121835506Y-98799463D01*
X121738815Y-98878815D01*
X121659463Y-98975506D01*
X121604024Y-99079223D01*
X121550044Y-98930186D01*
X121260429Y-98789296D01*
X120948892Y-98707616D01*
X120627405Y-98688282D01*
X120308325Y-98732039D01*
X120003912Y-98837205D01*
X119829956Y-98930186D01*
X119734192Y-99194587D01*
X119366826Y-99194587D01*
X119232252Y-99060013D01*
X118964463Y-98881082D01*
X118666912Y-98757832D01*
X118351033Y-98695000D01*
X118028967Y-98695000D01*
X117713088Y-98757832D01*
X117415537Y-98881082D01*
X117147748Y-99060013D01*
X116920013Y-99287748D01*
X116741082Y-99555537D01*
X116617832Y-99853088D01*
X116555000Y-100168967D01*
X88458867Y-100168967D01*
X88474095Y-100146178D01*
X88545896Y-99972834D01*
X88552426Y-99940006D01*
X91995045Y-96497389D01*
X92026541Y-96471541D01*
X92052389Y-96440045D01*
X92052392Y-96440042D01*
X92129699Y-96345843D01*
X92206353Y-96202434D01*
X92243646Y-96079494D01*
X92253556Y-96046826D01*
X92265500Y-95925553D01*
X92265500Y-95925551D01*
X92269494Y-95885000D01*
X92265500Y-95844450D01*
X92265500Y-95154278D01*
X92354759Y-95094637D01*
X92554637Y-94894759D01*
X92710000Y-94662241D01*
X92865363Y-94894759D01*
X93065241Y-95094637D01*
X93300273Y-95251680D01*
X93561426Y-95359853D01*
X93838665Y-95415000D01*
X94121335Y-95415000D01*
X94398574Y-95359853D01*
X94659727Y-95251680D01*
X94894759Y-95094637D01*
X95094637Y-94894759D01*
X95250000Y-94662241D01*
X95405363Y-94894759D01*
X95605241Y-95094637D01*
X95840273Y-95251680D01*
X96101426Y-95359853D01*
X96378665Y-95415000D01*
X96661335Y-95415000D01*
X96938574Y-95359853D01*
X97199727Y-95251680D01*
X97434759Y-95094637D01*
X97634637Y-94894759D01*
X97790000Y-94662241D01*
X97945363Y-94894759D01*
X98145241Y-95094637D01*
X98380273Y-95251680D01*
X98641426Y-95359853D01*
X98918665Y-95415000D01*
X99201335Y-95415000D01*
X99478574Y-95359853D01*
X99739727Y-95251680D01*
X99974759Y-95094637D01*
X100174637Y-94894759D01*
X100331680Y-94659727D01*
X100336067Y-94649135D01*
X100447615Y-94835131D01*
X100636586Y-95043519D01*
X100862580Y-95211037D01*
X101116913Y-95331246D01*
X101250961Y-95371904D01*
X101473000Y-95249915D01*
X101473000Y-94107000D01*
X101453000Y-94107000D01*
X101453000Y-93853000D01*
X101473000Y-93853000D01*
X101473000Y-92710085D01*
X101727000Y-92710085D01*
X101727000Y-93853000D01*
X101747000Y-93853000D01*
X101747000Y-94107000D01*
X101727000Y-94107000D01*
X101727000Y-95249915D01*
X101949039Y-95371904D01*
X102083087Y-95331246D01*
X102337420Y-95211037D01*
X102563414Y-95043519D01*
X102752385Y-94835131D01*
X102863933Y-94649135D01*
X102868320Y-94659727D01*
X103025363Y-94894759D01*
X103225241Y-95094637D01*
X103460273Y-95251680D01*
X103721426Y-95359853D01*
X103998665Y-95415000D01*
X104281335Y-95415000D01*
X104558574Y-95359853D01*
X104819727Y-95251680D01*
X105054759Y-95094637D01*
X105254637Y-94894759D01*
X105410000Y-94662241D01*
X105565363Y-94894759D01*
X105765241Y-95094637D01*
X106000273Y-95251680D01*
X106261426Y-95359853D01*
X106538665Y-95415000D01*
X106821335Y-95415000D01*
X107098574Y-95359853D01*
X107359727Y-95251680D01*
X107594759Y-95094637D01*
X107794637Y-94894759D01*
X107950000Y-94662241D01*
X108105363Y-94894759D01*
X108305241Y-95094637D01*
X108540273Y-95251680D01*
X108801426Y-95359853D01*
X109078665Y-95415000D01*
X109361335Y-95415000D01*
X109638574Y-95359853D01*
X109899727Y-95251680D01*
X110134759Y-95094637D01*
X110334637Y-94894759D01*
X110490000Y-94662241D01*
X110645363Y-94894759D01*
X110845241Y-95094637D01*
X111080273Y-95251680D01*
X111341426Y-95359853D01*
X111618665Y-95415000D01*
X111901335Y-95415000D01*
X112178574Y-95359853D01*
X112439727Y-95251680D01*
X112674759Y-95094637D01*
X112874637Y-94894759D01*
X113030000Y-94662241D01*
X113185363Y-94894759D01*
X113385241Y-95094637D01*
X113620273Y-95251680D01*
X113881426Y-95359853D01*
X114158665Y-95415000D01*
X114441335Y-95415000D01*
X114718574Y-95359853D01*
X114979727Y-95251680D01*
X115214759Y-95094637D01*
X115414637Y-94894759D01*
X115570000Y-94662241D01*
X115725363Y-94894759D01*
X115925241Y-95094637D01*
X116160273Y-95251680D01*
X116421426Y-95359853D01*
X116698665Y-95415000D01*
X116981335Y-95415000D01*
X117258574Y-95359853D01*
X117519727Y-95251680D01*
X117754759Y-95094637D01*
X117954637Y-94894759D01*
X118111680Y-94659727D01*
X118219853Y-94398574D01*
X118275000Y-94121335D01*
X118275000Y-93838665D01*
X118219853Y-93561426D01*
X118111680Y-93300273D01*
X117954637Y-93065241D01*
X117754759Y-92865363D01*
X117519727Y-92708320D01*
X117258574Y-92600147D01*
X116981335Y-92545000D01*
X116698665Y-92545000D01*
X116421426Y-92600147D01*
X116160273Y-92708320D01*
X115925241Y-92865363D01*
X115725363Y-93065241D01*
X115570000Y-93297759D01*
X115414637Y-93065241D01*
X115214759Y-92865363D01*
X114979727Y-92708320D01*
X114718574Y-92600147D01*
X114441335Y-92545000D01*
X114158665Y-92545000D01*
X113881426Y-92600147D01*
X113620273Y-92708320D01*
X113385241Y-92865363D01*
X113185363Y-93065241D01*
X113030000Y-93297759D01*
X112874637Y-93065241D01*
X112674759Y-92865363D01*
X112439727Y-92708320D01*
X112178574Y-92600147D01*
X111901335Y-92545000D01*
X111618665Y-92545000D01*
X111341426Y-92600147D01*
X111080273Y-92708320D01*
X110845241Y-92865363D01*
X110645363Y-93065241D01*
X110490000Y-93297759D01*
X110334637Y-93065241D01*
X110134759Y-92865363D01*
X109899727Y-92708320D01*
X109638574Y-92600147D01*
X109361335Y-92545000D01*
X109078665Y-92545000D01*
X108801426Y-92600147D01*
X108540273Y-92708320D01*
X108305241Y-92865363D01*
X108105363Y-93065241D01*
X107950000Y-93297759D01*
X107794637Y-93065241D01*
X107594759Y-92865363D01*
X107359727Y-92708320D01*
X107098574Y-92600147D01*
X106821335Y-92545000D01*
X106538665Y-92545000D01*
X106261426Y-92600147D01*
X106000273Y-92708320D01*
X105765241Y-92865363D01*
X105565363Y-93065241D01*
X105410000Y-93297759D01*
X105254637Y-93065241D01*
X105054759Y-92865363D01*
X104819727Y-92708320D01*
X104558574Y-92600147D01*
X104281335Y-92545000D01*
X103998665Y-92545000D01*
X103721426Y-92600147D01*
X103460273Y-92708320D01*
X103225241Y-92865363D01*
X103025363Y-93065241D01*
X102868320Y-93300273D01*
X102863933Y-93310865D01*
X102752385Y-93124869D01*
X102563414Y-92916481D01*
X102337420Y-92748963D01*
X102083087Y-92628754D01*
X101949039Y-92588096D01*
X101727000Y-92710085D01*
X101473000Y-92710085D01*
X101250961Y-92588096D01*
X101116913Y-92628754D01*
X100862580Y-92748963D01*
X100636586Y-92916481D01*
X100447615Y-93124869D01*
X100336067Y-93310865D01*
X100331680Y-93300273D01*
X100174637Y-93065241D01*
X99974759Y-92865363D01*
X99739727Y-92708320D01*
X99478574Y-92600147D01*
X99201335Y-92545000D01*
X98918665Y-92545000D01*
X98641426Y-92600147D01*
X98380273Y-92708320D01*
X98145241Y-92865363D01*
X97945363Y-93065241D01*
X97790000Y-93297759D01*
X97634637Y-93065241D01*
X97434759Y-92865363D01*
X97199727Y-92708320D01*
X96938574Y-92600147D01*
X96661335Y-92545000D01*
X96582433Y-92545000D01*
X97015232Y-92112201D01*
X131990264Y-92112201D01*
X131922068Y-92276842D01*
X131865000Y-92563740D01*
X131865000Y-92856260D01*
X131922068Y-93143158D01*
X132034010Y-93413411D01*
X132196525Y-93656632D01*
X132403368Y-93863475D01*
X132646589Y-94025990D01*
X132916842Y-94137932D01*
X133203740Y-94195000D01*
X133496260Y-94195000D01*
X133783158Y-94137932D01*
X134053411Y-94025990D01*
X134296632Y-93863475D01*
X134503475Y-93656632D01*
X134621100Y-93480594D01*
X134792412Y-93710269D01*
X135008645Y-93905178D01*
X135258748Y-94054157D01*
X135533109Y-94151481D01*
X135763000Y-94030814D01*
X135763000Y-92837000D01*
X136017000Y-92837000D01*
X136017000Y-94030814D01*
X136246891Y-94151481D01*
X136521252Y-94054157D01*
X136771355Y-93905178D01*
X136987588Y-93710269D01*
X137161641Y-93476920D01*
X137286825Y-93214099D01*
X137331476Y-93066890D01*
X137210155Y-92837000D01*
X136017000Y-92837000D01*
X135763000Y-92837000D01*
X135743000Y-92837000D01*
X135743000Y-92583000D01*
X135763000Y-92583000D01*
X135763000Y-92563000D01*
X136017000Y-92563000D01*
X136017000Y-92583000D01*
X137210155Y-92583000D01*
X137331476Y-92353110D01*
X137286825Y-92205901D01*
X137161641Y-91943080D01*
X136987588Y-91709731D01*
X136771355Y-91514822D01*
X136654466Y-91445195D01*
X136836632Y-91323475D01*
X137043475Y-91116632D01*
X137205990Y-90873411D01*
X137317932Y-90603158D01*
X137375000Y-90316260D01*
X137375000Y-90023740D01*
X137317932Y-89736842D01*
X137205990Y-89466589D01*
X137043475Y-89223368D01*
X136836632Y-89016525D01*
X136662240Y-88900000D01*
X136836632Y-88783475D01*
X137043475Y-88576632D01*
X137205990Y-88333411D01*
X137317932Y-88063158D01*
X137375000Y-87776260D01*
X137375000Y-87483740D01*
X137317932Y-87196842D01*
X137205990Y-86926589D01*
X137043475Y-86683368D01*
X136836632Y-86476525D01*
X136593411Y-86314010D01*
X136323158Y-86202068D01*
X136036260Y-86145000D01*
X135743740Y-86145000D01*
X135456842Y-86202068D01*
X135186589Y-86314010D01*
X134943368Y-86476525D01*
X134811513Y-86608380D01*
X134789502Y-86535820D01*
X134730537Y-86425506D01*
X134651185Y-86328815D01*
X134554494Y-86249463D01*
X134444180Y-86190498D01*
X134324482Y-86154188D01*
X134200000Y-86141928D01*
X132500000Y-86141928D01*
X132375518Y-86154188D01*
X132255820Y-86190498D01*
X132145506Y-86249463D01*
X132048815Y-86328815D01*
X131969463Y-86425506D01*
X131910498Y-86535820D01*
X131874188Y-86655518D01*
X131861928Y-86780000D01*
X131861928Y-86804500D01*
X119420550Y-86804500D01*
X119379999Y-86800506D01*
X119339449Y-86804500D01*
X119339447Y-86804500D01*
X119218174Y-86816444D01*
X119062566Y-86863647D01*
X118969111Y-86913601D01*
X118919157Y-86940301D01*
X118878240Y-86973881D01*
X118793459Y-87043459D01*
X118767606Y-87074961D01*
X117768068Y-88074500D01*
X91919007Y-88074500D01*
X91891178Y-88055905D01*
X91717834Y-87984104D01*
X91533813Y-87947500D01*
X91346187Y-87947500D01*
X91162166Y-87984104D01*
X90988822Y-88055905D01*
X90832816Y-88160145D01*
X90715197Y-88277764D01*
X90147398Y-87709966D01*
X90121541Y-87678459D01*
X89995842Y-87575301D01*
X89852434Y-87498647D01*
X89801809Y-87483290D01*
X89814759Y-87474637D01*
X90014637Y-87274759D01*
X90170000Y-87042241D01*
X90325363Y-87274759D01*
X90525241Y-87474637D01*
X90760273Y-87631680D01*
X91021426Y-87739853D01*
X91298665Y-87795000D01*
X91581335Y-87795000D01*
X91858574Y-87739853D01*
X92119727Y-87631680D01*
X92354759Y-87474637D01*
X92554637Y-87274759D01*
X92710000Y-87042241D01*
X92865363Y-87274759D01*
X93065241Y-87474637D01*
X93300273Y-87631680D01*
X93561426Y-87739853D01*
X93838665Y-87795000D01*
X94121335Y-87795000D01*
X94398574Y-87739853D01*
X94659727Y-87631680D01*
X94894759Y-87474637D01*
X95094637Y-87274759D01*
X95250000Y-87042241D01*
X95405363Y-87274759D01*
X95605241Y-87474637D01*
X95840273Y-87631680D01*
X96101426Y-87739853D01*
X96378665Y-87795000D01*
X96661335Y-87795000D01*
X96938574Y-87739853D01*
X97199727Y-87631680D01*
X97434759Y-87474637D01*
X97634637Y-87274759D01*
X97791680Y-87039727D01*
X97796067Y-87029135D01*
X97907615Y-87215131D01*
X98096586Y-87423519D01*
X98322580Y-87591037D01*
X98576913Y-87711246D01*
X98710961Y-87751904D01*
X98933000Y-87629915D01*
X98933000Y-86487000D01*
X98913000Y-86487000D01*
X98913000Y-86233000D01*
X98933000Y-86233000D01*
X98933000Y-85090085D01*
X98710961Y-84968096D01*
X98576913Y-85008754D01*
X98322580Y-85128963D01*
X98096586Y-85296481D01*
X97907615Y-85504869D01*
X97796067Y-85690865D01*
X97791680Y-85680273D01*
X97634637Y-85445241D01*
X97434759Y-85245363D01*
X97199727Y-85088320D01*
X96938574Y-84980147D01*
X96661335Y-84925000D01*
X96378665Y-84925000D01*
X96101426Y-84980147D01*
X95840273Y-85088320D01*
X95605241Y-85245363D01*
X95405363Y-85445241D01*
X95250000Y-85677759D01*
X95094637Y-85445241D01*
X94894759Y-85245363D01*
X94659727Y-85088320D01*
X94398574Y-84980147D01*
X94121335Y-84925000D01*
X93838665Y-84925000D01*
X93561426Y-84980147D01*
X93300273Y-85088320D01*
X93065241Y-85245363D01*
X92865363Y-85445241D01*
X92710000Y-85677759D01*
X92554637Y-85445241D01*
X92354759Y-85245363D01*
X92119727Y-85088320D01*
X91858574Y-84980147D01*
X91581335Y-84925000D01*
X91298665Y-84925000D01*
X91021426Y-84980147D01*
X90760273Y-85088320D01*
X90525241Y-85245363D01*
X90325363Y-85445241D01*
X90170000Y-85677759D01*
X90014637Y-85445241D01*
X89814759Y-85245363D01*
X89579727Y-85088320D01*
X89318574Y-84980147D01*
X89041335Y-84925000D01*
X88758665Y-84925000D01*
X88481426Y-84980147D01*
X88220273Y-85088320D01*
X87985241Y-85245363D01*
X87785363Y-85445241D01*
X87630000Y-85677759D01*
X87474637Y-85445241D01*
X87274759Y-85245363D01*
X87039727Y-85088320D01*
X86778574Y-84980147D01*
X86501335Y-84925000D01*
X86218665Y-84925000D01*
X85941426Y-84980147D01*
X85680273Y-85088320D01*
X85445241Y-85245363D01*
X85245363Y-85445241D01*
X85090000Y-85677759D01*
X84934637Y-85445241D01*
X84734759Y-85245363D01*
X84499727Y-85088320D01*
X84238574Y-84980147D01*
X83961335Y-84925000D01*
X83678665Y-84925000D01*
X83401426Y-84980147D01*
X83140273Y-85088320D01*
X82905241Y-85245363D01*
X82705363Y-85445241D01*
X82548320Y-85680273D01*
X82440147Y-85941426D01*
X82385000Y-86218665D01*
X82385000Y-86501335D01*
X82440147Y-86778574D01*
X82548320Y-87039727D01*
X82705363Y-87274759D01*
X82905241Y-87474637D01*
X83140273Y-87631680D01*
X83401426Y-87739853D01*
X83678665Y-87795000D01*
X83961335Y-87795000D01*
X84238574Y-87739853D01*
X84499727Y-87631680D01*
X84734759Y-87474637D01*
X84934637Y-87274759D01*
X85090000Y-87042241D01*
X85245363Y-87274759D01*
X85445241Y-87474637D01*
X85680273Y-87631680D01*
X85941426Y-87739853D01*
X86218665Y-87795000D01*
X86501335Y-87795000D01*
X86778574Y-87739853D01*
X87039727Y-87631680D01*
X87274759Y-87474637D01*
X87474637Y-87274759D01*
X87630000Y-87042241D01*
X87785363Y-87274759D01*
X87985241Y-87474637D01*
X88199896Y-87618065D01*
X88160145Y-87657816D01*
X88055905Y-87813822D01*
X87984104Y-87987166D01*
X87947500Y-88171187D01*
X87947500Y-88358813D01*
X87984104Y-88542834D01*
X88053139Y-88709500D01*
X82891933Y-88709500D01*
X81892401Y-87709969D01*
X81892392Y-87709958D01*
X81470500Y-87288067D01*
X81470500Y-80010000D01*
X95435277Y-80010000D01*
X95456120Y-80221618D01*
X95517847Y-80425104D01*
X95618087Y-80612639D01*
X95719182Y-80735824D01*
X100462626Y-85479270D01*
X100328320Y-85680273D01*
X100323933Y-85690865D01*
X100212385Y-85504869D01*
X100023414Y-85296481D01*
X99797420Y-85128963D01*
X99543087Y-85008754D01*
X99409039Y-84968096D01*
X99187000Y-85090085D01*
X99187000Y-86233000D01*
X99207000Y-86233000D01*
X99207000Y-86487000D01*
X99187000Y-86487000D01*
X99187000Y-87629915D01*
X99409039Y-87751904D01*
X99543087Y-87711246D01*
X99797420Y-87591037D01*
X100023414Y-87423519D01*
X100212385Y-87215131D01*
X100323933Y-87029135D01*
X100328320Y-87039727D01*
X100485363Y-87274759D01*
X100685241Y-87474637D01*
X100920273Y-87631680D01*
X101181426Y-87739853D01*
X101458665Y-87795000D01*
X101741335Y-87795000D01*
X102018574Y-87739853D01*
X102279727Y-87631680D01*
X102514759Y-87474637D01*
X102714637Y-87274759D01*
X102870000Y-87042241D01*
X103025363Y-87274759D01*
X103225241Y-87474637D01*
X103460273Y-87631680D01*
X103721426Y-87739853D01*
X103998665Y-87795000D01*
X104281335Y-87795000D01*
X104558574Y-87739853D01*
X104819727Y-87631680D01*
X105054759Y-87474637D01*
X105254637Y-87274759D01*
X105410000Y-87042241D01*
X105565363Y-87274759D01*
X105765241Y-87474637D01*
X106000273Y-87631680D01*
X106261426Y-87739853D01*
X106538665Y-87795000D01*
X106821335Y-87795000D01*
X107098574Y-87739853D01*
X107359727Y-87631680D01*
X107594759Y-87474637D01*
X107794637Y-87274759D01*
X107950000Y-87042241D01*
X108105363Y-87274759D01*
X108305241Y-87474637D01*
X108540273Y-87631680D01*
X108801426Y-87739853D01*
X109078665Y-87795000D01*
X109361335Y-87795000D01*
X109638574Y-87739853D01*
X109899727Y-87631680D01*
X110134759Y-87474637D01*
X110334637Y-87274759D01*
X110490000Y-87042241D01*
X110645363Y-87274759D01*
X110845241Y-87474637D01*
X111080273Y-87631680D01*
X111341426Y-87739853D01*
X111618665Y-87795000D01*
X111901335Y-87795000D01*
X112178574Y-87739853D01*
X112439727Y-87631680D01*
X112674759Y-87474637D01*
X112874637Y-87274759D01*
X113030000Y-87042241D01*
X113185363Y-87274759D01*
X113385241Y-87474637D01*
X113620273Y-87631680D01*
X113881426Y-87739853D01*
X114158665Y-87795000D01*
X114441335Y-87795000D01*
X114718574Y-87739853D01*
X114979727Y-87631680D01*
X115214759Y-87474637D01*
X115413357Y-87276039D01*
X115414188Y-87284482D01*
X115450498Y-87404180D01*
X115509463Y-87514494D01*
X115588815Y-87611185D01*
X115685506Y-87690537D01*
X115795820Y-87749502D01*
X115915518Y-87785812D01*
X116040000Y-87798072D01*
X117640000Y-87798072D01*
X117764482Y-87785812D01*
X117884180Y-87749502D01*
X117994494Y-87690537D01*
X118091185Y-87611185D01*
X118170537Y-87514494D01*
X118229502Y-87404180D01*
X118265812Y-87284482D01*
X118278072Y-87160000D01*
X118278072Y-85560000D01*
X118265812Y-85435518D01*
X118229502Y-85315820D01*
X118170537Y-85205506D01*
X118091185Y-85108815D01*
X117994494Y-85029463D01*
X117884180Y-84970498D01*
X117764482Y-84934188D01*
X117640000Y-84921928D01*
X116040000Y-84921928D01*
X115915518Y-84934188D01*
X115795820Y-84970498D01*
X115685506Y-85029463D01*
X115588815Y-85108815D01*
X115509463Y-85205506D01*
X115450498Y-85315820D01*
X115414188Y-85435518D01*
X115413357Y-85443961D01*
X115214759Y-85245363D01*
X114979727Y-85088320D01*
X114718574Y-84980147D01*
X114441335Y-84925000D01*
X114158665Y-84925000D01*
X113881426Y-84980147D01*
X113620273Y-85088320D01*
X113385241Y-85245363D01*
X113185363Y-85445241D01*
X113030000Y-85677759D01*
X112874637Y-85445241D01*
X112674759Y-85245363D01*
X112439727Y-85088320D01*
X112178574Y-84980147D01*
X111901335Y-84925000D01*
X111618665Y-84925000D01*
X111341426Y-84980147D01*
X111080273Y-85088320D01*
X110845241Y-85245363D01*
X110645363Y-85445241D01*
X110490000Y-85677759D01*
X110334637Y-85445241D01*
X110134759Y-85245363D01*
X109899727Y-85088320D01*
X109638574Y-84980147D01*
X109361335Y-84925000D01*
X109078665Y-84925000D01*
X108801426Y-84980147D01*
X108540273Y-85088320D01*
X108305241Y-85245363D01*
X108105363Y-85445241D01*
X107950000Y-85677759D01*
X107794637Y-85445241D01*
X107594759Y-85245363D01*
X107359727Y-85088320D01*
X107098574Y-84980147D01*
X106821335Y-84925000D01*
X106538665Y-84925000D01*
X106261426Y-84980147D01*
X106000273Y-85088320D01*
X105765241Y-85245363D01*
X105565363Y-85445241D01*
X105410000Y-85677759D01*
X105254637Y-85445241D01*
X105054759Y-85245363D01*
X104819727Y-85088320D01*
X104558574Y-84980147D01*
X104281335Y-84925000D01*
X103998665Y-84925000D01*
X103721426Y-84980147D01*
X103460273Y-85088320D01*
X103225241Y-85245363D01*
X103025363Y-85445241D01*
X102870000Y-85677759D01*
X102714637Y-85445241D01*
X102679500Y-85410104D01*
X102679500Y-85143029D01*
X102684723Y-85090000D01*
X102663880Y-84878381D01*
X102602153Y-84674895D01*
X102602153Y-84674894D01*
X102501914Y-84487360D01*
X102367015Y-84322985D01*
X102325826Y-84289182D01*
X98545232Y-80508589D01*
X106130000Y-80508589D01*
X106130000Y-80781411D01*
X106183225Y-81048989D01*
X106287629Y-81301043D01*
X106439201Y-81527886D01*
X106632114Y-81720799D01*
X106858957Y-81872371D01*
X107111011Y-81976775D01*
X107378589Y-82030000D01*
X107651411Y-82030000D01*
X107918989Y-81976775D01*
X108171043Y-81872371D01*
X108397886Y-81720799D01*
X108590799Y-81527886D01*
X108742371Y-81301043D01*
X108846775Y-81048989D01*
X108900000Y-80781411D01*
X108900000Y-80508589D01*
X111010000Y-80508589D01*
X111010000Y-80781411D01*
X111063225Y-81048989D01*
X111167629Y-81301043D01*
X111319201Y-81527886D01*
X111512114Y-81720799D01*
X111738957Y-81872371D01*
X111991011Y-81976775D01*
X112258589Y-82030000D01*
X112531411Y-82030000D01*
X112798989Y-81976775D01*
X113051043Y-81872371D01*
X113277886Y-81720799D01*
X113470799Y-81527886D01*
X113622371Y-81301043D01*
X113726775Y-81048989D01*
X113780000Y-80781411D01*
X113780000Y-80508589D01*
X113726775Y-80241011D01*
X113622371Y-79988957D01*
X113470799Y-79762114D01*
X113277886Y-79569201D01*
X113051043Y-79417629D01*
X112798989Y-79313225D01*
X112531411Y-79260000D01*
X112258589Y-79260000D01*
X111991011Y-79313225D01*
X111738957Y-79417629D01*
X111512114Y-79569201D01*
X111319201Y-79762114D01*
X111167629Y-79988957D01*
X111063225Y-80241011D01*
X111010000Y-80508589D01*
X108900000Y-80508589D01*
X108846775Y-80241011D01*
X108742371Y-79988957D01*
X108590799Y-79762114D01*
X108397886Y-79569201D01*
X108171043Y-79417629D01*
X107918989Y-79313225D01*
X107651411Y-79260000D01*
X107378589Y-79260000D01*
X107111011Y-79313225D01*
X106858957Y-79417629D01*
X106632114Y-79569201D01*
X106439201Y-79762114D01*
X106287629Y-79988957D01*
X106183225Y-80241011D01*
X106130000Y-80508589D01*
X98545232Y-80508589D01*
X97245824Y-79209182D01*
X97122639Y-79108087D01*
X96935104Y-79007847D01*
X96731618Y-78946120D01*
X96520000Y-78925277D01*
X96308382Y-78946120D01*
X96104896Y-79007847D01*
X95917361Y-79108087D01*
X95752986Y-79242986D01*
X95618087Y-79407361D01*
X95517847Y-79594896D01*
X95456120Y-79798382D01*
X95435277Y-80010000D01*
X81470500Y-80010000D01*
X81470500Y-69748061D01*
X85833000Y-69748061D01*
X85833000Y-69951939D01*
X85872774Y-70151898D01*
X85950795Y-70340256D01*
X86047510Y-70485000D01*
X85950795Y-70629744D01*
X85872774Y-70818102D01*
X85833000Y-71018061D01*
X85833000Y-71221939D01*
X85872774Y-71421898D01*
X85950795Y-71610256D01*
X86042501Y-71747504D01*
X86042500Y-73619449D01*
X86038506Y-73660000D01*
X86042500Y-73700550D01*
X86042500Y-73700552D01*
X86054444Y-73821825D01*
X86090961Y-73942205D01*
X86101647Y-73977433D01*
X86178301Y-74120842D01*
X86188421Y-74133173D01*
X86281459Y-74246541D01*
X86312966Y-74272398D01*
X89430606Y-77390039D01*
X89456459Y-77421541D01*
X89520596Y-77474177D01*
X89582157Y-77524699D01*
X89725566Y-77601353D01*
X89881174Y-77648556D01*
X90002447Y-77660500D01*
X90002449Y-77660500D01*
X90042999Y-77664494D01*
X90083550Y-77660500D01*
X95971450Y-77660500D01*
X96012000Y-77664494D01*
X96052550Y-77660500D01*
X96052553Y-77660500D01*
X96173826Y-77648556D01*
X96329434Y-77601353D01*
X96472842Y-77524699D01*
X96598541Y-77421541D01*
X96624398Y-77390034D01*
X100798933Y-73215500D01*
X106861393Y-73215500D01*
X106889222Y-73234095D01*
X107062566Y-73305896D01*
X107246587Y-73342500D01*
X107434213Y-73342500D01*
X107618234Y-73305896D01*
X107791578Y-73234095D01*
X107819407Y-73215500D01*
X111661993Y-73215500D01*
X111689822Y-73234095D01*
X111863166Y-73305896D01*
X112047187Y-73342500D01*
X112234813Y-73342500D01*
X112418834Y-73305896D01*
X112592178Y-73234095D01*
X112620007Y-73215500D01*
X115471993Y-73215500D01*
X115499822Y-73234095D01*
X115673166Y-73305896D01*
X115857187Y-73342500D01*
X116044813Y-73342500D01*
X116228834Y-73305896D01*
X116402178Y-73234095D01*
X116430007Y-73215500D01*
X123091993Y-73215500D01*
X123119822Y-73234095D01*
X123293166Y-73305896D01*
X123477187Y-73342500D01*
X123664813Y-73342500D01*
X123848834Y-73305896D01*
X124022178Y-73234095D01*
X124178184Y-73129855D01*
X124310855Y-72997184D01*
X124415095Y-72841178D01*
X124486896Y-72667834D01*
X124504268Y-72580500D01*
X129822993Y-72580500D01*
X129850822Y-72599095D01*
X130024166Y-72670896D01*
X130208187Y-72707500D01*
X130395813Y-72707500D01*
X130579834Y-72670896D01*
X130753178Y-72599095D01*
X130909184Y-72494855D01*
X131041855Y-72362184D01*
X131146095Y-72206178D01*
X131217896Y-72032834D01*
X131254500Y-71848813D01*
X131254500Y-71661187D01*
X131217896Y-71477166D01*
X131146095Y-71303822D01*
X131041855Y-71147816D01*
X130909184Y-71015145D01*
X130753178Y-70910905D01*
X130579834Y-70839104D01*
X130436143Y-70810522D01*
X130454999Y-70764999D01*
X130626178Y-70694095D01*
X130782184Y-70589855D01*
X130914855Y-70457184D01*
X131019095Y-70301178D01*
X131090896Y-70127834D01*
X131127500Y-69943813D01*
X131127500Y-69756187D01*
X131090896Y-69572166D01*
X131019095Y-69398822D01*
X130914855Y-69242816D01*
X130782184Y-69110145D01*
X130626178Y-69005905D01*
X130452834Y-68934104D01*
X130268813Y-68897500D01*
X130081187Y-68897500D01*
X129897166Y-68934104D01*
X129723822Y-69005905D01*
X129695993Y-69024500D01*
X126917268Y-69024500D01*
X126899896Y-68937166D01*
X126828095Y-68763822D01*
X126723855Y-68607816D01*
X126625441Y-68509402D01*
X126701095Y-68396178D01*
X126772896Y-68222834D01*
X126790268Y-68135500D01*
X126901993Y-68135500D01*
X126929822Y-68154095D01*
X127103166Y-68225896D01*
X127287187Y-68262500D01*
X127474813Y-68262500D01*
X127658834Y-68225896D01*
X127832178Y-68154095D01*
X127988184Y-68049855D01*
X128120855Y-67917184D01*
X128225095Y-67761178D01*
X128296896Y-67587834D01*
X128333500Y-67403813D01*
X128333500Y-67216187D01*
X128296896Y-67032166D01*
X128225095Y-66858822D01*
X128120855Y-66702816D01*
X127988184Y-66570145D01*
X127832178Y-66465905D01*
X127658834Y-66394104D01*
X127474813Y-66357500D01*
X127287187Y-66357500D01*
X127103166Y-66394104D01*
X126929822Y-66465905D01*
X126901993Y-66484500D01*
X118716007Y-66484500D01*
X118688178Y-66465905D01*
X118514834Y-66394104D01*
X118330813Y-66357500D01*
X118143187Y-66357500D01*
X117959166Y-66394104D01*
X117785822Y-66465905D01*
X117757993Y-66484500D01*
X111096007Y-66484500D01*
X111068178Y-66465905D01*
X110894834Y-66394104D01*
X110710813Y-66357500D01*
X110523187Y-66357500D01*
X110339166Y-66394104D01*
X110165822Y-66465905D01*
X110137993Y-66484500D01*
X103583361Y-66484500D01*
X103491178Y-66422905D01*
X103317834Y-66351104D01*
X103133813Y-66314500D01*
X102946187Y-66314500D01*
X102762166Y-66351104D01*
X102588822Y-66422905D01*
X102496639Y-66484500D01*
X87670550Y-66484500D01*
X87630000Y-66480506D01*
X87589449Y-66484500D01*
X87589447Y-66484500D01*
X87468174Y-66496444D01*
X87312566Y-66543647D01*
X87169157Y-66620301D01*
X87074958Y-66697608D01*
X87074955Y-66697611D01*
X87043459Y-66723459D01*
X87017611Y-66754956D01*
X86312961Y-67459607D01*
X86281460Y-67485459D01*
X86255609Y-67516959D01*
X86178301Y-67611158D01*
X86101647Y-67754567D01*
X86054445Y-67910174D01*
X86038506Y-68072000D01*
X86042501Y-68112560D01*
X86042500Y-69222497D01*
X85950795Y-69359744D01*
X85872774Y-69548102D01*
X85833000Y-69748061D01*
X81470500Y-69748061D01*
X81470500Y-69059007D01*
X81489095Y-69031178D01*
X81560896Y-68857834D01*
X81597500Y-68673813D01*
X81597500Y-68486187D01*
X81560896Y-68302166D01*
X81489095Y-68128822D01*
X81384855Y-67972816D01*
X81252184Y-67840145D01*
X81096178Y-67735905D01*
X80922834Y-67664104D01*
X80738813Y-67627500D01*
X80551187Y-67627500D01*
X80367166Y-67664104D01*
X80296139Y-67693524D01*
X80290896Y-67667166D01*
X80219095Y-67493822D01*
X80114855Y-67337816D01*
X79982184Y-67205145D01*
X79826178Y-67100905D01*
X79652834Y-67029104D01*
X79468813Y-66992500D01*
X79281187Y-66992500D01*
X79097166Y-67029104D01*
X78923822Y-67100905D01*
X78767816Y-67205145D01*
X78635145Y-67337816D01*
X78588072Y-67408266D01*
X78588072Y-64290000D01*
X78575812Y-64165518D01*
X78539502Y-64045820D01*
X78480537Y-63935506D01*
X78401185Y-63838815D01*
X78304494Y-63759463D01*
X78194180Y-63700498D01*
X78074482Y-63664188D01*
X77950000Y-63651928D01*
X74450000Y-63651928D01*
X74325518Y-63664188D01*
X74205820Y-63700498D01*
X74095506Y-63759463D01*
X73998815Y-63838815D01*
X73919463Y-63935506D01*
X73878506Y-64012131D01*
X73888072Y-63915000D01*
X73888072Y-63279872D01*
X137465000Y-63279872D01*
X137465000Y-63720128D01*
X137550890Y-64151925D01*
X137719369Y-64558669D01*
X137963962Y-64924729D01*
X138275271Y-65236038D01*
X138641331Y-65480631D01*
X139048075Y-65649110D01*
X139479872Y-65735000D01*
X139920128Y-65735000D01*
X140351925Y-65649110D01*
X140758669Y-65480631D01*
X141124729Y-65236038D01*
X141436038Y-64924729D01*
X141680631Y-64558669D01*
X141849110Y-64151925D01*
X141935000Y-63720128D01*
X141935000Y-63279872D01*
X141849110Y-62848075D01*
X141680631Y-62441331D01*
X141436038Y-62075271D01*
X141124729Y-61763962D01*
X140758669Y-61519369D01*
X140351925Y-61350890D01*
X139920128Y-61265000D01*
X139479872Y-61265000D01*
X139048075Y-61350890D01*
X138641331Y-61519369D01*
X138275271Y-61763962D01*
X137963962Y-62075271D01*
X137719369Y-62441331D01*
X137550890Y-62848075D01*
X137465000Y-63279872D01*
X73888072Y-63279872D01*
X73888072Y-62165000D01*
X73858999Y-61869814D01*
X73772896Y-61585972D01*
X73633073Y-61324382D01*
X73444903Y-61095097D01*
X73215618Y-60906927D01*
X72954028Y-60767104D01*
X72670186Y-60681001D01*
X72375000Y-60651928D01*
X70625000Y-60651928D01*
X70329814Y-60681001D01*
X70045972Y-60767104D01*
X69784382Y-60906927D01*
X69555097Y-61095097D01*
X69366927Y-61324382D01*
X69227104Y-61585972D01*
X69141001Y-61869814D01*
X69111928Y-62165000D01*
X65295993Y-62165000D01*
X65236038Y-62075271D01*
X64924729Y-61763962D01*
X64558669Y-61519369D01*
X64151925Y-61350890D01*
X63720128Y-61265000D01*
X63279872Y-61265000D01*
X62848075Y-61350890D01*
X62441331Y-61519369D01*
X62075271Y-61763962D01*
X61763962Y-62075271D01*
X61519369Y-62441331D01*
X61350890Y-62848075D01*
X61265000Y-63279872D01*
X56557707Y-63279872D01*
X56614617Y-62495530D01*
X56831739Y-61512102D01*
X57188546Y-60570325D01*
X57677575Y-59689905D01*
X57982773Y-59290000D01*
X73811928Y-59290000D01*
X73811928Y-60790000D01*
X73838599Y-61060799D01*
X73917589Y-61321192D01*
X74045860Y-61561171D01*
X74218485Y-61771515D01*
X74428829Y-61944140D01*
X74668808Y-62072411D01*
X74929201Y-62151401D01*
X75200000Y-62178072D01*
X77200000Y-62178072D01*
X77470799Y-62151401D01*
X77731192Y-62072411D01*
X77971171Y-61944140D01*
X78181515Y-61771515D01*
X78354140Y-61561171D01*
X78482411Y-61321192D01*
X78561401Y-61060799D01*
X78588072Y-60790000D01*
X78588072Y-59290000D01*
X78561401Y-59019201D01*
X78482411Y-58758808D01*
X78354140Y-58518829D01*
X78181515Y-58308485D01*
X77971171Y-58135860D01*
X77731192Y-58007589D01*
X77470799Y-57928599D01*
X77200000Y-57901928D01*
X75200000Y-57901928D01*
X74929201Y-57928599D01*
X74668808Y-58007589D01*
X74428829Y-58135860D01*
X74218485Y-58308485D01*
X74045860Y-58518829D01*
X73917589Y-58758808D01*
X73838599Y-59019201D01*
X73811928Y-59290000D01*
X57982773Y-59290000D01*
X58288569Y-58889313D01*
X59008732Y-58185306D01*
X59822987Y-57592630D01*
X60714269Y-57123704D01*
X61663900Y-56788353D01*
X62655692Y-56592873D01*
X63520164Y-56540000D01*
X139676080Y-56540000D01*
X140704470Y-56614617D01*
G37*
%TD.AperFunction*%
%TD*%
M02*
