%TF.GenerationSoftware,KiCad,Pcbnew,5.1.9+dfsg1-1*%
%TF.CreationDate,2021-01-26T21:22:31-06:00*%
%TF.ProjectId,fram-prototype,6672616d-2d70-4726-9f74-6f747970652e,1.0.0*%
%TF.SameCoordinates,Original*%
%TF.FileFunction,Copper,L1,Top*%
%TF.FilePolarity,Positive*%
%FSLAX46Y46*%
G04 Gerber Fmt 4.6, Leading zero omitted, Abs format (unit mm)*
G04 Created by KiCad (PCBNEW 5.1.9+dfsg1-1) date 2021-01-26 21:22:31*
%MOMM*%
%LPD*%
G01*
G04 APERTURE LIST*
%TA.AperFunction,SMDPad,CuDef*%
%ADD10R,2.500000X2.500000*%
%TD*%
%TA.AperFunction,ComponentPad*%
%ADD11O,1.700000X1.700000*%
%TD*%
%TA.AperFunction,ComponentPad*%
%ADD12R,1.700000X1.700000*%
%TD*%
%TA.AperFunction,SMDPad,CuDef*%
%ADD13R,1.600000X0.410000*%
%TD*%
%TA.AperFunction,ComponentPad*%
%ADD14O,1.600000X1.600000*%
%TD*%
%TA.AperFunction,ComponentPad*%
%ADD15R,1.600000X1.600000*%
%TD*%
%TA.AperFunction,SMDPad,CuDef*%
%ADD16R,0.900000X2.800000*%
%TD*%
%TA.AperFunction,ComponentPad*%
%ADD17R,3.500000X3.500000*%
%TD*%
%TA.AperFunction,ComponentPad*%
%ADD18R,2.000000X2.000000*%
%TD*%
%TA.AperFunction,ComponentPad*%
%ADD19C,2.000000*%
%TD*%
%TA.AperFunction,ComponentPad*%
%ADD20R,2.000000X3.200000*%
%TD*%
%TA.AperFunction,ViaPad*%
%ADD21C,0.635000*%
%TD*%
%TA.AperFunction,ViaPad*%
%ADD22C,0.800000*%
%TD*%
%TA.AperFunction,Conductor*%
%ADD23C,0.381000*%
%TD*%
%TA.AperFunction,Conductor*%
%ADD24C,0.889000*%
%TD*%
%TA.AperFunction,Conductor*%
%ADD25C,0.254000*%
%TD*%
%TA.AperFunction,Conductor*%
%ADD26C,0.100000*%
%TD*%
G04 APERTURE END LIST*
D10*
%TO.P,PS1,4*%
%TO.N,Net-(PS1-Pad4)*%
X59905000Y-85375000D03*
%TO.P,PS1,3*%
%TO.N,+5V*%
X70905000Y-85375000D03*
%TO.P,PS1,2*%
%TO.N,GND*%
X70905000Y-73375000D03*
%TO.P,PS1,1*%
%TO.N,+VDC*%
X59905000Y-73375000D03*
%TD*%
%TO.P,R2,1*%
%TO.N,Net-(R2-Pad1)*%
%TA.AperFunction,SMDPad,CuDef*%
G36*
G01*
X85385000Y-71765000D02*
X85385000Y-73015000D01*
G75*
G02*
X85135000Y-73265000I-250000J0D01*
G01*
X84335000Y-73265000D01*
G75*
G02*
X84085000Y-73015000I0J250000D01*
G01*
X84085000Y-71765000D01*
G75*
G02*
X84335000Y-71515000I250000J0D01*
G01*
X85135000Y-71515000D01*
G75*
G02*
X85385000Y-71765000I0J-250000D01*
G01*
G37*
%TD.AperFunction*%
%TO.P,R2,2*%
%TO.N,GND*%
%TA.AperFunction,SMDPad,CuDef*%
G36*
G01*
X82285000Y-71765000D02*
X82285000Y-73015000D01*
G75*
G02*
X82035000Y-73265000I-250000J0D01*
G01*
X81235000Y-73265000D01*
G75*
G02*
X80985000Y-73015000I0J250000D01*
G01*
X80985000Y-71765000D01*
G75*
G02*
X81235000Y-71515000I250000J0D01*
G01*
X82035000Y-71515000D01*
G75*
G02*
X82285000Y-71765000I0J-250000D01*
G01*
G37*
%TD.AperFunction*%
%TD*%
%TO.P,R1,2*%
%TO.N,Net-(D1-Pad2)*%
%TA.AperFunction,SMDPad,CuDef*%
G36*
G01*
X68315000Y-90180000D02*
X68315000Y-91430000D01*
G75*
G02*
X68065000Y-91680000I-250000J0D01*
G01*
X67265000Y-91680000D01*
G75*
G02*
X67015000Y-91430000I0J250000D01*
G01*
X67015000Y-90180000D01*
G75*
G02*
X67265000Y-89930000I250000J0D01*
G01*
X68065000Y-89930000D01*
G75*
G02*
X68315000Y-90180000I0J-250000D01*
G01*
G37*
%TD.AperFunction*%
%TO.P,R1,1*%
%TO.N,+5V*%
%TA.AperFunction,SMDPad,CuDef*%
G36*
G01*
X71415000Y-90180000D02*
X71415000Y-91430000D01*
G75*
G02*
X71165000Y-91680000I-250000J0D01*
G01*
X70365000Y-91680000D01*
G75*
G02*
X70115000Y-91430000I0J250000D01*
G01*
X70115000Y-90180000D01*
G75*
G02*
X70365000Y-89930000I250000J0D01*
G01*
X71165000Y-89930000D01*
G75*
G02*
X71415000Y-90180000I0J-250000D01*
G01*
G37*
%TD.AperFunction*%
%TD*%
D11*
%TO.P,J2,6*%
%TO.N,GND*%
X142240000Y-88900000D03*
%TO.P,J2,5*%
%TO.N,Net-(J2-Pad5)*%
X139700000Y-88900000D03*
%TO.P,J2,4*%
%TO.N,MOSI*%
X142240000Y-86360000D03*
%TO.P,J2,3*%
%TO.N,SCK*%
X139700000Y-86360000D03*
%TO.P,J2,2*%
%TO.N,+5V*%
X142240000Y-83820000D03*
D12*
%TO.P,J2,1*%
%TO.N,MISO*%
X139700000Y-83820000D03*
%TD*%
%TO.P,D1,2*%
%TO.N,Net-(D1-Pad2)*%
%TA.AperFunction,SMDPad,CuDef*%
G36*
G01*
X63640000Y-91430000D02*
X63640000Y-90180000D01*
G75*
G02*
X63890000Y-89930000I250000J0D01*
G01*
X64815000Y-89930000D01*
G75*
G02*
X65065000Y-90180000I0J-250000D01*
G01*
X65065000Y-91430000D01*
G75*
G02*
X64815000Y-91680000I-250000J0D01*
G01*
X63890000Y-91680000D01*
G75*
G02*
X63640000Y-91430000I0J250000D01*
G01*
G37*
%TD.AperFunction*%
%TO.P,D1,1*%
%TO.N,GND*%
%TA.AperFunction,SMDPad,CuDef*%
G36*
G01*
X60665000Y-91430000D02*
X60665000Y-90180000D01*
G75*
G02*
X60915000Y-89930000I250000J0D01*
G01*
X61840000Y-89930000D01*
G75*
G02*
X62090000Y-90180000I0J-250000D01*
G01*
X62090000Y-91430000D01*
G75*
G02*
X61840000Y-91680000I-250000J0D01*
G01*
X60915000Y-91680000D01*
G75*
G02*
X60665000Y-91430000I0J250000D01*
G01*
G37*
%TD.AperFunction*%
%TD*%
%TO.P,C4,2*%
%TO.N,GND*%
%TA.AperFunction,SMDPad,CuDef*%
G36*
G01*
X88225000Y-95440001D02*
X88225000Y-94139999D01*
G75*
G02*
X88474999Y-93890000I249999J0D01*
G01*
X89300001Y-93890000D01*
G75*
G02*
X89550000Y-94139999I0J-249999D01*
G01*
X89550000Y-95440001D01*
G75*
G02*
X89300001Y-95690000I-249999J0D01*
G01*
X88474999Y-95690000D01*
G75*
G02*
X88225000Y-95440001I0J249999D01*
G01*
G37*
%TD.AperFunction*%
%TO.P,C4,1*%
%TO.N,+5V*%
%TA.AperFunction,SMDPad,CuDef*%
G36*
G01*
X85100000Y-95440001D02*
X85100000Y-94139999D01*
G75*
G02*
X85349999Y-93890000I249999J0D01*
G01*
X86175001Y-93890000D01*
G75*
G02*
X86425000Y-94139999I0J-249999D01*
G01*
X86425000Y-95440001D01*
G75*
G02*
X86175001Y-95690000I-249999J0D01*
G01*
X85349999Y-95690000D01*
G75*
G02*
X85100000Y-95440001I0J249999D01*
G01*
G37*
%TD.AperFunction*%
%TD*%
%TO.P,C3,2*%
%TO.N,GND*%
%TA.AperFunction,SMDPad,CuDef*%
G36*
G01*
X93329999Y-77735000D02*
X94630001Y-77735000D01*
G75*
G02*
X94880000Y-77984999I0J-249999D01*
G01*
X94880000Y-78810001D01*
G75*
G02*
X94630001Y-79060000I-249999J0D01*
G01*
X93329999Y-79060000D01*
G75*
G02*
X93080000Y-78810001I0J249999D01*
G01*
X93080000Y-77984999D01*
G75*
G02*
X93329999Y-77735000I249999J0D01*
G01*
G37*
%TD.AperFunction*%
%TO.P,C3,1*%
%TO.N,Net-(C3-Pad1)*%
%TA.AperFunction,SMDPad,CuDef*%
G36*
G01*
X93329999Y-74610000D02*
X94630001Y-74610000D01*
G75*
G02*
X94880000Y-74859999I0J-249999D01*
G01*
X94880000Y-75685001D01*
G75*
G02*
X94630001Y-75935000I-249999J0D01*
G01*
X93329999Y-75935000D01*
G75*
G02*
X93080000Y-75685001I0J249999D01*
G01*
X93080000Y-74859999D01*
G75*
G02*
X93329999Y-74610000I249999J0D01*
G01*
G37*
%TD.AperFunction*%
%TD*%
%TO.P,C2,2*%
%TO.N,GND*%
%TA.AperFunction,SMDPad,CuDef*%
G36*
G01*
X75580001Y-82920000D02*
X74279999Y-82920000D01*
G75*
G02*
X74030000Y-82670001I0J249999D01*
G01*
X74030000Y-81844999D01*
G75*
G02*
X74279999Y-81595000I249999J0D01*
G01*
X75580001Y-81595000D01*
G75*
G02*
X75830000Y-81844999I0J-249999D01*
G01*
X75830000Y-82670001D01*
G75*
G02*
X75580001Y-82920000I-249999J0D01*
G01*
G37*
%TD.AperFunction*%
%TO.P,C2,1*%
%TO.N,+5V*%
%TA.AperFunction,SMDPad,CuDef*%
G36*
G01*
X75580001Y-86045000D02*
X74279999Y-86045000D01*
G75*
G02*
X74030000Y-85795001I0J249999D01*
G01*
X74030000Y-84969999D01*
G75*
G02*
X74279999Y-84720000I249999J0D01*
G01*
X75580001Y-84720000D01*
G75*
G02*
X75830000Y-84969999I0J-249999D01*
G01*
X75830000Y-85795001D01*
G75*
G02*
X75580001Y-86045000I-249999J0D01*
G01*
G37*
%TD.AperFunction*%
%TD*%
%TO.P,C1,2*%
%TO.N,GND*%
%TA.AperFunction,SMDPad,CuDef*%
G36*
G01*
X68210000Y-70500001D02*
X68210000Y-69199999D01*
G75*
G02*
X68459999Y-68950000I249999J0D01*
G01*
X69285001Y-68950000D01*
G75*
G02*
X69535000Y-69199999I0J-249999D01*
G01*
X69535000Y-70500001D01*
G75*
G02*
X69285001Y-70750000I-249999J0D01*
G01*
X68459999Y-70750000D01*
G75*
G02*
X68210000Y-70500001I0J249999D01*
G01*
G37*
%TD.AperFunction*%
%TO.P,C1,1*%
%TO.N,+VDC*%
%TA.AperFunction,SMDPad,CuDef*%
G36*
G01*
X65085000Y-70500001D02*
X65085000Y-69199999D01*
G75*
G02*
X65334999Y-68950000I249999J0D01*
G01*
X66160001Y-68950000D01*
G75*
G02*
X66410000Y-69199999I0J-249999D01*
G01*
X66410000Y-70500001D01*
G75*
G02*
X66160001Y-70750000I-249999J0D01*
G01*
X65334999Y-70750000D01*
G75*
G02*
X65085000Y-70500001I0J249999D01*
G01*
G37*
%TD.AperFunction*%
%TD*%
D13*
%TO.P,U3,16*%
%TO.N,+5V*%
X94094300Y-68580000D03*
%TO.P,U3,15*%
%TO.N,/7seg/~CS~*%
X94094300Y-69215000D03*
%TO.P,U3,14*%
%TO.N,/7seg/SEG4*%
X94094300Y-69850000D03*
%TO.P,U3,13*%
%TO.N,/7seg/SEG5*%
X94094300Y-70485000D03*
%TO.P,U3,12*%
%TO.N,/7seg/SEG6*%
X94094300Y-71120000D03*
%TO.P,U3,11*%
%TO.N,/7seg/SEG7*%
X94094300Y-71755000D03*
%TO.P,U3,10*%
%TO.N,/7seg/SEG8*%
X94094300Y-72390000D03*
%TO.P,U3,9*%
%TO.N,Net-(C3-Pad1)*%
X94094300Y-73025000D03*
%TO.P,U3,8*%
%TO.N,GND*%
X88785700Y-73025000D03*
%TO.P,U3,7*%
%TO.N,Net-(R2-Pad1)*%
X88785700Y-72390000D03*
%TO.P,U3,6*%
%TO.N,/7seg/SEG0*%
X88785700Y-71755000D03*
%TO.P,U3,5*%
%TO.N,/7seg/SEG1*%
X88785700Y-71120000D03*
%TO.P,U3,4*%
%TO.N,/7seg/SEG2*%
X88785700Y-70485000D03*
%TO.P,U3,3*%
%TO.N,/7seg/SEG3*%
X88785700Y-69850000D03*
%TO.P,U3,2*%
%TO.N,/7seg/CLK*%
X88785700Y-69215000D03*
%TO.P,U3,1*%
%TO.N,/7seg/DIN*%
X88785700Y-68580000D03*
%TD*%
%TO.P,U2,8*%
%TO.N,Net-(U2-Pad8)*%
%TA.AperFunction,SMDPad,CuDef*%
G36*
G01*
X87890000Y-101115000D02*
X87890000Y-100815000D01*
G75*
G02*
X88040000Y-100665000I150000J0D01*
G01*
X89340000Y-100665000D01*
G75*
G02*
X89490000Y-100815000I0J-150000D01*
G01*
X89490000Y-101115000D01*
G75*
G02*
X89340000Y-101265000I-150000J0D01*
G01*
X88040000Y-101265000D01*
G75*
G02*
X87890000Y-101115000I0J150000D01*
G01*
G37*
%TD.AperFunction*%
%TO.P,U2,7*%
%TO.N,Net-(U2-Pad7)*%
%TA.AperFunction,SMDPad,CuDef*%
G36*
G01*
X87890000Y-102385000D02*
X87890000Y-102085000D01*
G75*
G02*
X88040000Y-101935000I150000J0D01*
G01*
X89340000Y-101935000D01*
G75*
G02*
X89490000Y-102085000I0J-150000D01*
G01*
X89490000Y-102385000D01*
G75*
G02*
X89340000Y-102535000I-150000J0D01*
G01*
X88040000Y-102535000D01*
G75*
G02*
X87890000Y-102385000I0J150000D01*
G01*
G37*
%TD.AperFunction*%
%TO.P,U2,6*%
%TO.N,Net-(U2-Pad6)*%
%TA.AperFunction,SMDPad,CuDef*%
G36*
G01*
X87890000Y-103655000D02*
X87890000Y-103355000D01*
G75*
G02*
X88040000Y-103205000I150000J0D01*
G01*
X89340000Y-103205000D01*
G75*
G02*
X89490000Y-103355000I0J-150000D01*
G01*
X89490000Y-103655000D01*
G75*
G02*
X89340000Y-103805000I-150000J0D01*
G01*
X88040000Y-103805000D01*
G75*
G02*
X87890000Y-103655000I0J150000D01*
G01*
G37*
%TD.AperFunction*%
%TO.P,U2,5*%
%TO.N,Net-(U2-Pad5)*%
%TA.AperFunction,SMDPad,CuDef*%
G36*
G01*
X87890000Y-104925000D02*
X87890000Y-104625000D01*
G75*
G02*
X88040000Y-104475000I150000J0D01*
G01*
X89340000Y-104475000D01*
G75*
G02*
X89490000Y-104625000I0J-150000D01*
G01*
X89490000Y-104925000D01*
G75*
G02*
X89340000Y-105075000I-150000J0D01*
G01*
X88040000Y-105075000D01*
G75*
G02*
X87890000Y-104925000I0J150000D01*
G01*
G37*
%TD.AperFunction*%
%TO.P,U2,4*%
%TO.N,Net-(U2-Pad4)*%
%TA.AperFunction,SMDPad,CuDef*%
G36*
G01*
X80690000Y-104925000D02*
X80690000Y-104625000D01*
G75*
G02*
X80840000Y-104475000I150000J0D01*
G01*
X82140000Y-104475000D01*
G75*
G02*
X82290000Y-104625000I0J-150000D01*
G01*
X82290000Y-104925000D01*
G75*
G02*
X82140000Y-105075000I-150000J0D01*
G01*
X80840000Y-105075000D01*
G75*
G02*
X80690000Y-104925000I0J150000D01*
G01*
G37*
%TD.AperFunction*%
%TO.P,U2,3*%
%TO.N,Net-(U2-Pad3)*%
%TA.AperFunction,SMDPad,CuDef*%
G36*
G01*
X80690000Y-103655000D02*
X80690000Y-103355000D01*
G75*
G02*
X80840000Y-103205000I150000J0D01*
G01*
X82140000Y-103205000D01*
G75*
G02*
X82290000Y-103355000I0J-150000D01*
G01*
X82290000Y-103655000D01*
G75*
G02*
X82140000Y-103805000I-150000J0D01*
G01*
X80840000Y-103805000D01*
G75*
G02*
X80690000Y-103655000I0J150000D01*
G01*
G37*
%TD.AperFunction*%
%TO.P,U2,2*%
%TO.N,Net-(U2-Pad2)*%
%TA.AperFunction,SMDPad,CuDef*%
G36*
G01*
X80690000Y-102385000D02*
X80690000Y-102085000D01*
G75*
G02*
X80840000Y-101935000I150000J0D01*
G01*
X82140000Y-101935000D01*
G75*
G02*
X82290000Y-102085000I0J-150000D01*
G01*
X82290000Y-102385000D01*
G75*
G02*
X82140000Y-102535000I-150000J0D01*
G01*
X80840000Y-102535000D01*
G75*
G02*
X80690000Y-102385000I0J150000D01*
G01*
G37*
%TD.AperFunction*%
%TO.P,U2,1*%
%TO.N,Net-(U2-Pad1)*%
%TA.AperFunction,SMDPad,CuDef*%
G36*
G01*
X80690000Y-101115000D02*
X80690000Y-100815000D01*
G75*
G02*
X80840000Y-100665000I150000J0D01*
G01*
X82140000Y-100665000D01*
G75*
G02*
X82290000Y-100815000I0J-150000D01*
G01*
X82290000Y-101115000D01*
G75*
G02*
X82140000Y-101265000I-150000J0D01*
G01*
X80840000Y-101265000D01*
G75*
G02*
X80690000Y-101115000I0J150000D01*
G01*
G37*
%TD.AperFunction*%
%TD*%
D14*
%TO.P,U1,28*%
%TO.N,Net-(U1-Pad28)*%
X132080000Y-90170000D03*
%TO.P,U1,14*%
%TO.N,Net-(U1-Pad14)*%
X99060000Y-82550000D03*
%TO.P,U1,27*%
%TO.N,Net-(U1-Pad27)*%
X129540000Y-90170000D03*
%TO.P,U1,13*%
%TO.N,Net-(U1-Pad13)*%
X101600000Y-82550000D03*
%TO.P,U1,26*%
%TO.N,Net-(U1-Pad26)*%
X127000000Y-90170000D03*
%TO.P,U1,12*%
%TO.N,Net-(U1-Pad12)*%
X104140000Y-82550000D03*
%TO.P,U1,25*%
%TO.N,Net-(U1-Pad25)*%
X124460000Y-90170000D03*
%TO.P,U1,11*%
%TO.N,Net-(U1-Pad11)*%
X106680000Y-82550000D03*
%TO.P,U1,24*%
%TO.N,Net-(U1-Pad24)*%
X121920000Y-90170000D03*
%TO.P,U1,10*%
%TO.N,Net-(C6-Pad2)*%
X109220000Y-82550000D03*
%TO.P,U1,23*%
%TO.N,Net-(U1-Pad23)*%
X119380000Y-90170000D03*
%TO.P,U1,9*%
%TO.N,Net-(C5-Pad2)*%
X111760000Y-82550000D03*
%TO.P,U1,22*%
%TO.N,GND*%
X116840000Y-90170000D03*
%TO.P,U1,8*%
X114300000Y-82550000D03*
%TO.P,U1,21*%
%TO.N,Net-(U1-Pad21)*%
X114300000Y-90170000D03*
%TO.P,U1,7*%
%TO.N,+5V*%
X116840000Y-82550000D03*
%TO.P,U1,20*%
%TO.N,Net-(U1-Pad20)*%
X111760000Y-90170000D03*
%TO.P,U1,6*%
%TO.N,Net-(U1-Pad6)*%
X119380000Y-82550000D03*
%TO.P,U1,19*%
%TO.N,Net-(U1-Pad19)*%
X109220000Y-90170000D03*
%TO.P,U1,5*%
%TO.N,Net-(U1-Pad5)*%
X121920000Y-82550000D03*
%TO.P,U1,18*%
%TO.N,Net-(U1-Pad18)*%
X106680000Y-90170000D03*
%TO.P,U1,4*%
%TO.N,Net-(U1-Pad4)*%
X124460000Y-82550000D03*
%TO.P,U1,17*%
%TO.N,Net-(U1-Pad17)*%
X104140000Y-90170000D03*
%TO.P,U1,3*%
%TO.N,Net-(SW1-PadB)*%
X127000000Y-82550000D03*
%TO.P,U1,16*%
%TO.N,Net-(U1-Pad16)*%
X101600000Y-90170000D03*
%TO.P,U1,2*%
%TO.N,Net-(SW1-PadA)*%
X129540000Y-82550000D03*
%TO.P,U1,15*%
%TO.N,Net-(U1-Pad15)*%
X99060000Y-90170000D03*
D15*
%TO.P,U1,1*%
%TO.N,Net-(J2-Pad5)*%
X132080000Y-82550000D03*
%TD*%
D16*
%TO.P,D5,10*%
%TO.N,/7seg/SEG1*%
X124460000Y-64850000D03*
%TO.P,D5,9*%
%TO.N,/7seg/SEG2*%
X125900000Y-64850000D03*
%TO.P,D5,8*%
%TO.N,/7seg/SEG3*%
X127340000Y-64850000D03*
%TO.P,D5,7*%
%TO.N,/7seg/SEG8*%
X128780000Y-64850000D03*
%TO.P,D5,6*%
%TO.N,/7seg/SEG7*%
X130220000Y-64850000D03*
%TO.P,D5,5*%
%TO.N,/7seg/SEG0*%
X130220000Y-74850000D03*
%TO.P,D5,4*%
%TO.N,/7seg/SEG6*%
X128780000Y-74850000D03*
%TO.P,D5,3*%
%TO.N,/7seg/SEG3*%
X127340000Y-74850000D03*
%TO.P,D5,2*%
%TO.N,/7seg/SEG5*%
X125900000Y-74850000D03*
%TO.P,D5,1*%
%TO.N,/7seg/SEG4*%
X124460000Y-74850000D03*
%TD*%
%TO.P,D4,10*%
%TO.N,/7seg/SEG1*%
X116840000Y-64850000D03*
%TO.P,D4,9*%
%TO.N,/7seg/SEG3*%
X118280000Y-64850000D03*
%TO.P,D4,8*%
%TO.N,/7seg/SEG2*%
X119720000Y-64850000D03*
%TO.P,D4,7*%
%TO.N,/7seg/SEG8*%
X121160000Y-64850000D03*
%TO.P,D4,6*%
%TO.N,/7seg/SEG7*%
X122600000Y-64850000D03*
%TO.P,D4,5*%
%TO.N,/7seg/SEG0*%
X122600000Y-74850000D03*
%TO.P,D4,4*%
%TO.N,/7seg/SEG6*%
X121160000Y-74850000D03*
%TO.P,D4,3*%
%TO.N,/7seg/SEG2*%
X119720000Y-74850000D03*
%TO.P,D4,2*%
%TO.N,/7seg/SEG5*%
X118280000Y-74850000D03*
%TO.P,D4,1*%
%TO.N,/7seg/SEG4*%
X116840000Y-74850000D03*
%TD*%
%TO.P,D3,10*%
%TO.N,/7seg/SEG2*%
X109220000Y-64850000D03*
%TO.P,D3,9*%
%TO.N,/7seg/SEG3*%
X110660000Y-64850000D03*
%TO.P,D3,8*%
%TO.N,/7seg/SEG1*%
X112100000Y-64850000D03*
%TO.P,D3,7*%
%TO.N,/7seg/SEG8*%
X113540000Y-64850000D03*
%TO.P,D3,6*%
%TO.N,/7seg/SEG7*%
X114980000Y-64850000D03*
%TO.P,D3,5*%
%TO.N,/7seg/SEG0*%
X114980000Y-74850000D03*
%TO.P,D3,4*%
%TO.N,/7seg/SEG6*%
X113540000Y-74850000D03*
%TO.P,D3,3*%
%TO.N,/7seg/SEG1*%
X112100000Y-74850000D03*
%TO.P,D3,2*%
%TO.N,/7seg/SEG5*%
X110660000Y-74850000D03*
%TO.P,D3,1*%
%TO.N,/7seg/SEG4*%
X109220000Y-74850000D03*
%TD*%
%TO.P,D2,10*%
%TO.N,/7seg/SEG2*%
X101600000Y-64850000D03*
%TO.P,D2,9*%
%TO.N,/7seg/SEG3*%
X103040000Y-64850000D03*
%TO.P,D2,8*%
%TO.N,/7seg/SEG0*%
X104480000Y-64850000D03*
%TO.P,D2,7*%
%TO.N,/7seg/SEG8*%
X105920000Y-64850000D03*
%TO.P,D2,6*%
%TO.N,/7seg/SEG7*%
X107360000Y-64850000D03*
%TO.P,D2,5*%
%TO.N,/7seg/SEG1*%
X107360000Y-74850000D03*
%TO.P,D2,4*%
%TO.N,/7seg/SEG6*%
X105920000Y-74850000D03*
%TO.P,D2,3*%
%TO.N,/7seg/SEG0*%
X104480000Y-74850000D03*
%TO.P,D2,2*%
%TO.N,/7seg/SEG5*%
X103040000Y-74850000D03*
%TO.P,D2,1*%
%TO.N,/7seg/SEG4*%
X101600000Y-74850000D03*
%TD*%
%TO.P,J1,3*%
%TO.N,N/C*%
%TA.AperFunction,ComponentPad*%
G36*
G01*
X70625000Y-61290000D02*
X72375000Y-61290000D01*
G75*
G02*
X73250000Y-62165000I0J-875000D01*
G01*
X73250000Y-63915000D01*
G75*
G02*
X72375000Y-64790000I-875000J0D01*
G01*
X70625000Y-64790000D01*
G75*
G02*
X69750000Y-63915000I0J875000D01*
G01*
X69750000Y-62165000D01*
G75*
G02*
X70625000Y-61290000I875000J0D01*
G01*
G37*
%TD.AperFunction*%
%TO.P,J1,2*%
%TO.N,GND*%
%TA.AperFunction,ComponentPad*%
G36*
G01*
X75200000Y-58540000D02*
X77200000Y-58540000D01*
G75*
G02*
X77950000Y-59290000I0J-750000D01*
G01*
X77950000Y-60790000D01*
G75*
G02*
X77200000Y-61540000I-750000J0D01*
G01*
X75200000Y-61540000D01*
G75*
G02*
X74450000Y-60790000I0J750000D01*
G01*
X74450000Y-59290000D01*
G75*
G02*
X75200000Y-58540000I750000J0D01*
G01*
G37*
%TD.AperFunction*%
D17*
%TO.P,J1,1*%
%TO.N,+VDC*%
X76200000Y-66040000D03*
%TD*%
D18*
%TO.P,SW1,A*%
%TO.N,Net-(SW1-PadA)*%
X123190000Y-100450000D03*
D19*
%TO.P,SW1,C*%
%TO.N,GND*%
X120690000Y-100450000D03*
%TO.P,SW1,B*%
%TO.N,Net-(SW1-PadB)*%
X118190000Y-100450000D03*
D20*
%TO.P,SW1,MP*%
%TO.N,N/C*%
X126290000Y-107950000D03*
X115090000Y-107950000D03*
D19*
%TO.P,SW1,S2*%
%TO.N,Net-(SW1-PadS2)*%
X123190000Y-114950000D03*
%TO.P,SW1,S1*%
%TO.N,Net-(SW1-PadS1)*%
X118190000Y-114950000D03*
%TD*%
D21*
%TO.N,/7seg/SEG6*%
X129540000Y-70485000D03*
X121920000Y-70485000D03*
X114300000Y-70485000D03*
%TO.N,/7seg/SEG4*%
X125222000Y-68580000D03*
X117602000Y-68580000D03*
X109982000Y-68580000D03*
D22*
%TO.N,/7seg/SEG2*%
X90678000Y-70485000D03*
D21*
X101600000Y-67945000D03*
X109347000Y-67945000D03*
X125857000Y-67945000D03*
X119634000Y-67945000D03*
D22*
%TO.N,/7seg/SEG3*%
X86868000Y-69850000D03*
D21*
X103040000Y-67267000D03*
X110617000Y-67310000D03*
X118237000Y-67310000D03*
X127381000Y-67310000D03*
D22*
%TO.N,/7seg/SEG0*%
X90678000Y-71755000D03*
D21*
X104470200Y-71755000D03*
X130302000Y-71755000D03*
X114985800Y-71755000D03*
X122656600Y-71755000D03*
D22*
%TO.N,/7seg/SEG8*%
X92202000Y-72390000D03*
D21*
X105892600Y-71120000D03*
X113538000Y-71120000D03*
X121158000Y-71120000D03*
X128905000Y-71120000D03*
D22*
%TO.N,/7seg/SEG7*%
X96012000Y-71755000D03*
X96012000Y-71755000D03*
D21*
X107340400Y-69850000D03*
X114935000Y-69850000D03*
X122555000Y-69850000D03*
X130175000Y-69850000D03*
D22*
%TO.N,/7seg/SEG1*%
X86868000Y-71120000D03*
D21*
X107340400Y-72390000D03*
X112141000Y-72390000D03*
X123571000Y-72390000D03*
X115951000Y-72390000D03*
D22*
%TO.N,/7seg/SEG6*%
X92202000Y-71120000D03*
X96012000Y-73025000D03*
D21*
X106680000Y-70485000D03*
D22*
%TO.N,/7seg/SEG5*%
X96012000Y-70485000D03*
D21*
X103047800Y-69215000D03*
X110744000Y-69215000D03*
X118237000Y-69215000D03*
X125984000Y-69215000D03*
D22*
%TO.N,/7seg/SEG4*%
X92202000Y-69850000D03*
D21*
X102362000Y-68580000D03*
%TO.N,/7seg/CLK*%
X83820000Y-70485000D03*
%TO.N,/7seg/DIN*%
X81915000Y-70485000D03*
%TD*%
D23*
%TO.N,/7seg/SEG6*%
X129540000Y-71632000D02*
X129540000Y-70485000D01*
X128780000Y-72392000D02*
X129540000Y-71632000D01*
X121160000Y-74850000D02*
X121160000Y-72392000D01*
X121920000Y-71632000D02*
X121920000Y-70485000D01*
X121160000Y-72392000D02*
X121920000Y-71632000D01*
X113540000Y-74850000D02*
X113540000Y-72392000D01*
X114300000Y-71632000D02*
X114300000Y-70485000D01*
X113540000Y-72392000D02*
X114300000Y-71632000D01*
%TO.N,/7seg/SEG4*%
X124460000Y-74850000D02*
X124460000Y-69342000D01*
X124460000Y-69342000D02*
X125222000Y-68580000D01*
X116840000Y-74850000D02*
X116840000Y-69342000D01*
X116840000Y-69342000D02*
X117602000Y-68580000D01*
X109220000Y-74850000D02*
X109220000Y-69342000D01*
X109220000Y-69342000D02*
X109982000Y-68580000D01*
%TO.N,/7seg/SEG2*%
X88785700Y-70485000D02*
X90678000Y-70485000D01*
X101600000Y-64850000D02*
X101600000Y-67945000D01*
X109220000Y-64850000D02*
X109220000Y-67818000D01*
X109220000Y-67818000D02*
X109347000Y-67945000D01*
X125900000Y-67902000D02*
X125857000Y-67945000D01*
X125900000Y-64850000D02*
X125900000Y-67902000D01*
X119720000Y-64850000D02*
X119720000Y-67859000D01*
X119720000Y-67859000D02*
X119634000Y-67945000D01*
X119720000Y-68031000D02*
X119634000Y-67945000D01*
X119720000Y-74850000D02*
X119720000Y-68031000D01*
%TO.N,/7seg/SEG3*%
X88785700Y-69850000D02*
X86868000Y-69850000D01*
X103040000Y-64850000D02*
X103040000Y-67267000D01*
X110660000Y-67267000D02*
X110617000Y-67310000D01*
X110660000Y-64850000D02*
X110660000Y-67267000D01*
X118280000Y-67267000D02*
X118237000Y-67310000D01*
X118280000Y-64850000D02*
X118280000Y-67267000D01*
X127340000Y-67269000D02*
X127381000Y-67310000D01*
X127340000Y-64850000D02*
X127340000Y-67269000D01*
X127381000Y-74809000D02*
X127340000Y-74850000D01*
X127381000Y-67310000D02*
X127381000Y-74809000D01*
%TO.N,/7seg/SEG0*%
X88785700Y-71755000D02*
X90678000Y-71755000D01*
X104480000Y-71745200D02*
X104470200Y-71755000D01*
X104480000Y-64850000D02*
X104480000Y-71745200D01*
X104470200Y-74840200D02*
X104480000Y-74850000D01*
X104470200Y-71755000D02*
X104470200Y-74840200D01*
X130220000Y-71837000D02*
X130302000Y-71755000D01*
X130220000Y-74850000D02*
X130220000Y-71837000D01*
X114980000Y-71760800D02*
X114985800Y-71755000D01*
X114980000Y-74850000D02*
X114980000Y-71760800D01*
X122600000Y-74850000D02*
X122600000Y-71811600D01*
X122600000Y-71811600D02*
X122656600Y-71755000D01*
%TO.N,/7seg/SEG8*%
X94094300Y-72390000D02*
X92202000Y-72390000D01*
X105920000Y-71092600D02*
X105892600Y-71120000D01*
X105920000Y-64850000D02*
X105920000Y-71092600D01*
X113540000Y-71118000D02*
X113538000Y-71120000D01*
X113540000Y-64850000D02*
X113540000Y-71118000D01*
X121160000Y-71118000D02*
X121158000Y-71120000D01*
X121160000Y-64850000D02*
X121160000Y-71118000D01*
X128780000Y-70995000D02*
X128905000Y-71120000D01*
X128780000Y-64850000D02*
X128780000Y-70995000D01*
%TO.N,/7seg/SEG7*%
X94094300Y-71755000D02*
X96012000Y-71755000D01*
X107360000Y-69830400D02*
X107340400Y-69850000D01*
X107360000Y-64850000D02*
X107360000Y-69830400D01*
X114980000Y-69805000D02*
X114935000Y-69850000D01*
X114980000Y-64850000D02*
X114980000Y-69805000D01*
X122600000Y-69805000D02*
X122555000Y-69850000D01*
X122600000Y-64850000D02*
X122600000Y-69805000D01*
X130220000Y-69805000D02*
X130175000Y-69850000D01*
X130220000Y-64850000D02*
X130220000Y-69805000D01*
%TO.N,/7seg/SEG1*%
X88785700Y-71120000D02*
X86868000Y-71120000D01*
X107360000Y-72409600D02*
X107340400Y-72390000D01*
X107360000Y-74850000D02*
X107360000Y-72409600D01*
X112100000Y-72349000D02*
X112141000Y-72390000D01*
X112100000Y-64850000D02*
X112100000Y-72349000D01*
X112141000Y-74809000D02*
X112100000Y-74850000D01*
X112141000Y-72390000D02*
X112141000Y-74809000D01*
X124460000Y-64850000D02*
X124460000Y-67691000D01*
X123571000Y-68580000D02*
X123571000Y-72390000D01*
X124460000Y-67691000D02*
X123571000Y-68580000D01*
X116840000Y-64850000D02*
X116840000Y-67945000D01*
X115951000Y-68834000D02*
X115951000Y-72390000D01*
X116840000Y-67945000D02*
X115951000Y-68834000D01*
%TO.N,/7seg/SEG6*%
X94094300Y-71120000D02*
X92202000Y-71120000D01*
X105920000Y-74850000D02*
X105920000Y-72392000D01*
X105920000Y-72392000D02*
X106680000Y-71632000D01*
X106680000Y-71632000D02*
X106680000Y-70485000D01*
X128780000Y-72392000D02*
X128780000Y-74850000D01*
%TO.N,/7seg/SEG5*%
X94094300Y-70485000D02*
X96012000Y-70485000D01*
X103040000Y-69222800D02*
X103047800Y-69215000D01*
X103040000Y-74850000D02*
X103040000Y-69222800D01*
X110660000Y-74850000D02*
X110660000Y-69299000D01*
X110660000Y-69299000D02*
X110744000Y-69215000D01*
X118280000Y-69258000D02*
X118237000Y-69215000D01*
X125900000Y-69299000D02*
X125984000Y-69215000D01*
X125984000Y-74766000D02*
X125900000Y-74850000D01*
X125984000Y-69215000D02*
X125984000Y-74766000D01*
%TO.N,/7seg/SEG4*%
X94094300Y-69850000D02*
X92202000Y-69850000D01*
X101600000Y-74850000D02*
X101600000Y-69342000D01*
X101600000Y-69342000D02*
X102362000Y-68580000D01*
D24*
%TO.N,+VDC*%
X65747500Y-68872500D02*
X65747500Y-69850000D01*
X68580000Y-66040000D02*
X65747500Y-68872500D01*
X76200000Y-66040000D02*
X68580000Y-66040000D01*
X62222500Y-73375000D02*
X65747500Y-69850000D01*
X59905000Y-73375000D02*
X62222500Y-73375000D01*
%TO.N,+5V*%
X74922500Y-85375000D02*
X74930000Y-85382500D01*
X70905000Y-85375000D02*
X74922500Y-85375000D01*
X74930000Y-85382500D02*
X88607500Y-85382500D01*
X88607500Y-85382500D02*
X89242500Y-85382500D01*
X116840000Y-83820000D02*
X116840000Y-82550000D01*
X115277500Y-85382500D02*
X116840000Y-83820000D01*
X70905000Y-90665000D02*
X70765000Y-90805000D01*
X70905000Y-85375000D02*
X70905000Y-90665000D01*
X89242500Y-85382500D02*
X96227500Y-85382500D01*
X96227500Y-85382500D02*
X115277500Y-85382500D01*
X94375501Y-68184499D02*
X94094300Y-68184499D01*
X95250000Y-67310000D02*
X94375501Y-68184499D01*
X97155000Y-67310000D02*
X95250000Y-67310000D01*
X98425000Y-68580000D02*
X97155000Y-67310000D01*
X98425000Y-73660000D02*
X98425000Y-68580000D01*
X96227500Y-75857500D02*
X98425000Y-73660000D01*
X96227500Y-85382500D02*
X96227500Y-75857500D01*
D23*
%TO.N,Net-(C3-Pad1)*%
X94094300Y-75158200D02*
X93980000Y-75272500D01*
X94094300Y-73025000D02*
X94094300Y-75158200D01*
%TO.N,Net-(R2-Pad1)*%
X84735000Y-72390000D02*
X88785700Y-72390000D01*
%TO.N,/7seg/CLK*%
X85121701Y-69183299D02*
X83820000Y-70485000D01*
X88753999Y-69183299D02*
X85121701Y-69183299D01*
X88785700Y-69215000D02*
X88753999Y-69183299D01*
%TO.N,/7seg/DIN*%
X83820000Y-68580000D02*
X81915000Y-70485000D01*
X88785700Y-68580000D02*
X83820000Y-68580000D01*
D24*
%TO.N,Net-(D1-Pad2)*%
X67665000Y-90805000D02*
X64352500Y-90805000D01*
%TD*%
D25*
%TO.N,GND*%
X140704470Y-56614617D02*
X141687898Y-56831739D01*
X142629675Y-57188546D01*
X143510095Y-57677575D01*
X144310687Y-58288569D01*
X145014694Y-59008732D01*
X145607370Y-59822987D01*
X146076296Y-60714269D01*
X146411647Y-61663900D01*
X146607127Y-62655692D01*
X146660000Y-63520164D01*
X146660001Y-114276080D01*
X146585382Y-115304470D01*
X146368262Y-116287896D01*
X146011454Y-117229675D01*
X145522424Y-118110095D01*
X144911435Y-118910684D01*
X144191268Y-119614694D01*
X143377013Y-120207370D01*
X142485731Y-120676296D01*
X141536099Y-121011647D01*
X140544309Y-121207127D01*
X139679835Y-121260000D01*
X63523906Y-121260000D01*
X62495530Y-121185382D01*
X61512104Y-120968262D01*
X60570325Y-120611454D01*
X59689905Y-120122424D01*
X58889316Y-119511435D01*
X58185306Y-118791268D01*
X57592630Y-117977013D01*
X57123704Y-117085731D01*
X56788353Y-116136099D01*
X56592873Y-115144309D01*
X56540000Y-114279835D01*
X56540000Y-114079872D01*
X61265000Y-114079872D01*
X61265000Y-114520128D01*
X61350890Y-114951925D01*
X61519369Y-115358669D01*
X61763962Y-115724729D01*
X62075271Y-116036038D01*
X62441331Y-116280631D01*
X62848075Y-116449110D01*
X63279872Y-116535000D01*
X63720128Y-116535000D01*
X64151925Y-116449110D01*
X64558669Y-116280631D01*
X64924729Y-116036038D01*
X65236038Y-115724729D01*
X65480631Y-115358669D01*
X65649110Y-114951925D01*
X65681524Y-114788967D01*
X116555000Y-114788967D01*
X116555000Y-115111033D01*
X116617832Y-115426912D01*
X116741082Y-115724463D01*
X116920013Y-115992252D01*
X117147748Y-116219987D01*
X117415537Y-116398918D01*
X117713088Y-116522168D01*
X118028967Y-116585000D01*
X118351033Y-116585000D01*
X118666912Y-116522168D01*
X118964463Y-116398918D01*
X119232252Y-116219987D01*
X119459987Y-115992252D01*
X119638918Y-115724463D01*
X119762168Y-115426912D01*
X119825000Y-115111033D01*
X119825000Y-114788967D01*
X121555000Y-114788967D01*
X121555000Y-115111033D01*
X121617832Y-115426912D01*
X121741082Y-115724463D01*
X121920013Y-115992252D01*
X122147748Y-116219987D01*
X122415537Y-116398918D01*
X122713088Y-116522168D01*
X123028967Y-116585000D01*
X123351033Y-116585000D01*
X123666912Y-116522168D01*
X123964463Y-116398918D01*
X124232252Y-116219987D01*
X124459987Y-115992252D01*
X124638918Y-115724463D01*
X124762168Y-115426912D01*
X124825000Y-115111033D01*
X124825000Y-114788967D01*
X124762168Y-114473088D01*
X124638918Y-114175537D01*
X124574997Y-114079872D01*
X137465000Y-114079872D01*
X137465000Y-114520128D01*
X137550890Y-114951925D01*
X137719369Y-115358669D01*
X137963962Y-115724729D01*
X138275271Y-116036038D01*
X138641331Y-116280631D01*
X139048075Y-116449110D01*
X139479872Y-116535000D01*
X139920128Y-116535000D01*
X140351925Y-116449110D01*
X140758669Y-116280631D01*
X141124729Y-116036038D01*
X141436038Y-115724729D01*
X141680631Y-115358669D01*
X141849110Y-114951925D01*
X141935000Y-114520128D01*
X141935000Y-114079872D01*
X141849110Y-113648075D01*
X141680631Y-113241331D01*
X141436038Y-112875271D01*
X141124729Y-112563962D01*
X140758669Y-112319369D01*
X140351925Y-112150890D01*
X139920128Y-112065000D01*
X139479872Y-112065000D01*
X139048075Y-112150890D01*
X138641331Y-112319369D01*
X138275271Y-112563962D01*
X137963962Y-112875271D01*
X137719369Y-113241331D01*
X137550890Y-113648075D01*
X137465000Y-114079872D01*
X124574997Y-114079872D01*
X124459987Y-113907748D01*
X124232252Y-113680013D01*
X123964463Y-113501082D01*
X123666912Y-113377832D01*
X123351033Y-113315000D01*
X123028967Y-113315000D01*
X122713088Y-113377832D01*
X122415537Y-113501082D01*
X122147748Y-113680013D01*
X121920013Y-113907748D01*
X121741082Y-114175537D01*
X121617832Y-114473088D01*
X121555000Y-114788967D01*
X119825000Y-114788967D01*
X119762168Y-114473088D01*
X119638918Y-114175537D01*
X119459987Y-113907748D01*
X119232252Y-113680013D01*
X118964463Y-113501082D01*
X118666912Y-113377832D01*
X118351033Y-113315000D01*
X118028967Y-113315000D01*
X117713088Y-113377832D01*
X117415537Y-113501082D01*
X117147748Y-113680013D01*
X116920013Y-113907748D01*
X116741082Y-114175537D01*
X116617832Y-114473088D01*
X116555000Y-114788967D01*
X65681524Y-114788967D01*
X65735000Y-114520128D01*
X65735000Y-114079872D01*
X65649110Y-113648075D01*
X65480631Y-113241331D01*
X65236038Y-112875271D01*
X64924729Y-112563962D01*
X64558669Y-112319369D01*
X64151925Y-112150890D01*
X63720128Y-112065000D01*
X63279872Y-112065000D01*
X62848075Y-112150890D01*
X62441331Y-112319369D01*
X62075271Y-112563962D01*
X61763962Y-112875271D01*
X61519369Y-113241331D01*
X61350890Y-113648075D01*
X61265000Y-114079872D01*
X56540000Y-114079872D01*
X56540000Y-106350000D01*
X113451928Y-106350000D01*
X113451928Y-109550000D01*
X113464188Y-109674482D01*
X113500498Y-109794180D01*
X113559463Y-109904494D01*
X113638815Y-110001185D01*
X113735506Y-110080537D01*
X113845820Y-110139502D01*
X113965518Y-110175812D01*
X114090000Y-110188072D01*
X116090000Y-110188072D01*
X116214482Y-110175812D01*
X116334180Y-110139502D01*
X116444494Y-110080537D01*
X116541185Y-110001185D01*
X116620537Y-109904494D01*
X116679502Y-109794180D01*
X116715812Y-109674482D01*
X116728072Y-109550000D01*
X116728072Y-106350000D01*
X124651928Y-106350000D01*
X124651928Y-109550000D01*
X124664188Y-109674482D01*
X124700498Y-109794180D01*
X124759463Y-109904494D01*
X124838815Y-110001185D01*
X124935506Y-110080537D01*
X125045820Y-110139502D01*
X125165518Y-110175812D01*
X125290000Y-110188072D01*
X127290000Y-110188072D01*
X127414482Y-110175812D01*
X127534180Y-110139502D01*
X127644494Y-110080537D01*
X127741185Y-110001185D01*
X127820537Y-109904494D01*
X127879502Y-109794180D01*
X127915812Y-109674482D01*
X127928072Y-109550000D01*
X127928072Y-106350000D01*
X127915812Y-106225518D01*
X127879502Y-106105820D01*
X127820537Y-105995506D01*
X127741185Y-105898815D01*
X127644494Y-105819463D01*
X127534180Y-105760498D01*
X127414482Y-105724188D01*
X127290000Y-105711928D01*
X125290000Y-105711928D01*
X125165518Y-105724188D01*
X125045820Y-105760498D01*
X124935506Y-105819463D01*
X124838815Y-105898815D01*
X124759463Y-105995506D01*
X124700498Y-106105820D01*
X124664188Y-106225518D01*
X124651928Y-106350000D01*
X116728072Y-106350000D01*
X116715812Y-106225518D01*
X116679502Y-106105820D01*
X116620537Y-105995506D01*
X116541185Y-105898815D01*
X116444494Y-105819463D01*
X116334180Y-105760498D01*
X116214482Y-105724188D01*
X116090000Y-105711928D01*
X114090000Y-105711928D01*
X113965518Y-105724188D01*
X113845820Y-105760498D01*
X113735506Y-105819463D01*
X113638815Y-105898815D01*
X113559463Y-105995506D01*
X113500498Y-106105820D01*
X113464188Y-106225518D01*
X113451928Y-106350000D01*
X56540000Y-106350000D01*
X56540000Y-100815000D01*
X80051928Y-100815000D01*
X80051928Y-101115000D01*
X80067071Y-101268745D01*
X80111916Y-101416582D01*
X80184742Y-101552829D01*
X80223454Y-101600000D01*
X80184742Y-101647171D01*
X80111916Y-101783418D01*
X80067071Y-101931255D01*
X80051928Y-102085000D01*
X80051928Y-102385000D01*
X80067071Y-102538745D01*
X80111916Y-102686582D01*
X80184742Y-102822829D01*
X80223454Y-102870000D01*
X80184742Y-102917171D01*
X80111916Y-103053418D01*
X80067071Y-103201255D01*
X80051928Y-103355000D01*
X80051928Y-103655000D01*
X80067071Y-103808745D01*
X80111916Y-103956582D01*
X80184742Y-104092829D01*
X80223454Y-104140000D01*
X80184742Y-104187171D01*
X80111916Y-104323418D01*
X80067071Y-104471255D01*
X80051928Y-104625000D01*
X80051928Y-104925000D01*
X80067071Y-105078745D01*
X80111916Y-105226582D01*
X80184742Y-105362829D01*
X80282749Y-105482251D01*
X80402171Y-105580258D01*
X80538418Y-105653084D01*
X80686255Y-105697929D01*
X80840000Y-105713072D01*
X82140000Y-105713072D01*
X82293745Y-105697929D01*
X82441582Y-105653084D01*
X82577829Y-105580258D01*
X82697251Y-105482251D01*
X82795258Y-105362829D01*
X82868084Y-105226582D01*
X82912929Y-105078745D01*
X82928072Y-104925000D01*
X82928072Y-104625000D01*
X82912929Y-104471255D01*
X82868084Y-104323418D01*
X82795258Y-104187171D01*
X82756546Y-104140000D01*
X82795258Y-104092829D01*
X82868084Y-103956582D01*
X82912929Y-103808745D01*
X82928072Y-103655000D01*
X82928072Y-103355000D01*
X82912929Y-103201255D01*
X82868084Y-103053418D01*
X82795258Y-102917171D01*
X82756546Y-102870000D01*
X82795258Y-102822829D01*
X82868084Y-102686582D01*
X82912929Y-102538745D01*
X82928072Y-102385000D01*
X82928072Y-102085000D01*
X82912929Y-101931255D01*
X82868084Y-101783418D01*
X82795258Y-101647171D01*
X82756546Y-101600000D01*
X82795258Y-101552829D01*
X82868084Y-101416582D01*
X82912929Y-101268745D01*
X82928072Y-101115000D01*
X82928072Y-100815000D01*
X87251928Y-100815000D01*
X87251928Y-101115000D01*
X87267071Y-101268745D01*
X87311916Y-101416582D01*
X87384742Y-101552829D01*
X87423454Y-101600000D01*
X87384742Y-101647171D01*
X87311916Y-101783418D01*
X87267071Y-101931255D01*
X87251928Y-102085000D01*
X87251928Y-102385000D01*
X87267071Y-102538745D01*
X87311916Y-102686582D01*
X87384742Y-102822829D01*
X87423454Y-102870000D01*
X87384742Y-102917171D01*
X87311916Y-103053418D01*
X87267071Y-103201255D01*
X87251928Y-103355000D01*
X87251928Y-103655000D01*
X87267071Y-103808745D01*
X87311916Y-103956582D01*
X87384742Y-104092829D01*
X87423454Y-104140000D01*
X87384742Y-104187171D01*
X87311916Y-104323418D01*
X87267071Y-104471255D01*
X87251928Y-104625000D01*
X87251928Y-104925000D01*
X87267071Y-105078745D01*
X87311916Y-105226582D01*
X87384742Y-105362829D01*
X87482749Y-105482251D01*
X87602171Y-105580258D01*
X87738418Y-105653084D01*
X87886255Y-105697929D01*
X88040000Y-105713072D01*
X89340000Y-105713072D01*
X89493745Y-105697929D01*
X89641582Y-105653084D01*
X89777829Y-105580258D01*
X89897251Y-105482251D01*
X89995258Y-105362829D01*
X90068084Y-105226582D01*
X90112929Y-105078745D01*
X90128072Y-104925000D01*
X90128072Y-104625000D01*
X90112929Y-104471255D01*
X90068084Y-104323418D01*
X89995258Y-104187171D01*
X89956546Y-104140000D01*
X89995258Y-104092829D01*
X90068084Y-103956582D01*
X90112929Y-103808745D01*
X90128072Y-103655000D01*
X90128072Y-103355000D01*
X90112929Y-103201255D01*
X90068084Y-103053418D01*
X89995258Y-102917171D01*
X89956546Y-102870000D01*
X89995258Y-102822829D01*
X90068084Y-102686582D01*
X90112929Y-102538745D01*
X90128072Y-102385000D01*
X90128072Y-102085000D01*
X90112929Y-101931255D01*
X90068084Y-101783418D01*
X89995258Y-101647171D01*
X89956546Y-101600000D01*
X89995258Y-101552829D01*
X90068084Y-101416582D01*
X90112929Y-101268745D01*
X90128072Y-101115000D01*
X90128072Y-100815000D01*
X90112929Y-100661255D01*
X90068084Y-100513418D01*
X89995258Y-100377171D01*
X89922871Y-100288967D01*
X116555000Y-100288967D01*
X116555000Y-100611033D01*
X116617832Y-100926912D01*
X116741082Y-101224463D01*
X116920013Y-101492252D01*
X117147748Y-101719987D01*
X117415537Y-101898918D01*
X117713088Y-102022168D01*
X118028967Y-102085000D01*
X118351033Y-102085000D01*
X118666912Y-102022168D01*
X118964463Y-101898918D01*
X119232252Y-101719987D01*
X119459987Y-101492252D01*
X119524925Y-101395065D01*
X119554587Y-101405808D01*
X120510395Y-100450000D01*
X119554587Y-99494192D01*
X119524925Y-99504935D01*
X119459987Y-99407748D01*
X119366826Y-99314587D01*
X119734192Y-99314587D01*
X120690000Y-100270395D01*
X120704143Y-100256253D01*
X120883748Y-100435858D01*
X120869605Y-100450000D01*
X120883748Y-100464143D01*
X120704143Y-100643748D01*
X120690000Y-100629605D01*
X119734192Y-101585413D01*
X119829956Y-101849814D01*
X120119571Y-101990704D01*
X120431108Y-102072384D01*
X120752595Y-102091718D01*
X121071675Y-102047961D01*
X121376088Y-101942795D01*
X121550044Y-101849814D01*
X121604024Y-101700777D01*
X121659463Y-101804494D01*
X121738815Y-101901185D01*
X121835506Y-101980537D01*
X121945820Y-102039502D01*
X122065518Y-102075812D01*
X122190000Y-102088072D01*
X124190000Y-102088072D01*
X124314482Y-102075812D01*
X124434180Y-102039502D01*
X124544494Y-101980537D01*
X124641185Y-101901185D01*
X124720537Y-101804494D01*
X124779502Y-101694180D01*
X124815812Y-101574482D01*
X124828072Y-101450000D01*
X124828072Y-99450000D01*
X124815812Y-99325518D01*
X124779502Y-99205820D01*
X124720537Y-99095506D01*
X124641185Y-98998815D01*
X124544494Y-98919463D01*
X124434180Y-98860498D01*
X124314482Y-98824188D01*
X124190000Y-98811928D01*
X122190000Y-98811928D01*
X122065518Y-98824188D01*
X121945820Y-98860498D01*
X121835506Y-98919463D01*
X121738815Y-98998815D01*
X121659463Y-99095506D01*
X121604024Y-99199223D01*
X121550044Y-99050186D01*
X121260429Y-98909296D01*
X120948892Y-98827616D01*
X120627405Y-98808282D01*
X120308325Y-98852039D01*
X120003912Y-98957205D01*
X119829956Y-99050186D01*
X119734192Y-99314587D01*
X119366826Y-99314587D01*
X119232252Y-99180013D01*
X118964463Y-99001082D01*
X118666912Y-98877832D01*
X118351033Y-98815000D01*
X118028967Y-98815000D01*
X117713088Y-98877832D01*
X117415537Y-99001082D01*
X117147748Y-99180013D01*
X116920013Y-99407748D01*
X116741082Y-99675537D01*
X116617832Y-99973088D01*
X116555000Y-100288967D01*
X89922871Y-100288967D01*
X89897251Y-100257749D01*
X89777829Y-100159742D01*
X89641582Y-100086916D01*
X89493745Y-100042071D01*
X89340000Y-100026928D01*
X88040000Y-100026928D01*
X87886255Y-100042071D01*
X87738418Y-100086916D01*
X87602171Y-100159742D01*
X87482749Y-100257749D01*
X87384742Y-100377171D01*
X87311916Y-100513418D01*
X87267071Y-100661255D01*
X87251928Y-100815000D01*
X82928072Y-100815000D01*
X82912929Y-100661255D01*
X82868084Y-100513418D01*
X82795258Y-100377171D01*
X82697251Y-100257749D01*
X82577829Y-100159742D01*
X82441582Y-100086916D01*
X82293745Y-100042071D01*
X82140000Y-100026928D01*
X80840000Y-100026928D01*
X80686255Y-100042071D01*
X80538418Y-100086916D01*
X80402171Y-100159742D01*
X80282749Y-100257749D01*
X80184742Y-100377171D01*
X80111916Y-100513418D01*
X80067071Y-100661255D01*
X80051928Y-100815000D01*
X56540000Y-100815000D01*
X56540000Y-94139999D01*
X84461928Y-94139999D01*
X84461928Y-95440001D01*
X84478992Y-95613255D01*
X84529528Y-95779851D01*
X84611595Y-95933387D01*
X84722038Y-96067962D01*
X84856613Y-96178405D01*
X85010149Y-96260472D01*
X85176745Y-96311008D01*
X85349999Y-96328072D01*
X86175001Y-96328072D01*
X86348255Y-96311008D01*
X86514851Y-96260472D01*
X86668387Y-96178405D01*
X86802962Y-96067962D01*
X86913405Y-95933387D01*
X86995472Y-95779851D01*
X87022727Y-95690000D01*
X87586928Y-95690000D01*
X87599188Y-95814482D01*
X87635498Y-95934180D01*
X87694463Y-96044494D01*
X87773815Y-96141185D01*
X87870506Y-96220537D01*
X87980820Y-96279502D01*
X88100518Y-96315812D01*
X88225000Y-96328072D01*
X88601750Y-96325000D01*
X88760500Y-96166250D01*
X88760500Y-94917000D01*
X89014500Y-94917000D01*
X89014500Y-96166250D01*
X89173250Y-96325000D01*
X89550000Y-96328072D01*
X89674482Y-96315812D01*
X89794180Y-96279502D01*
X89904494Y-96220537D01*
X90001185Y-96141185D01*
X90080537Y-96044494D01*
X90139502Y-95934180D01*
X90175812Y-95814482D01*
X90188072Y-95690000D01*
X90185000Y-95075750D01*
X90026250Y-94917000D01*
X89014500Y-94917000D01*
X88760500Y-94917000D01*
X87748750Y-94917000D01*
X87590000Y-95075750D01*
X87586928Y-95690000D01*
X87022727Y-95690000D01*
X87046008Y-95613255D01*
X87063072Y-95440001D01*
X87063072Y-94139999D01*
X87046008Y-93966745D01*
X87022728Y-93890000D01*
X87586928Y-93890000D01*
X87590000Y-94504250D01*
X87748750Y-94663000D01*
X88760500Y-94663000D01*
X88760500Y-93413750D01*
X89014500Y-93413750D01*
X89014500Y-94663000D01*
X90026250Y-94663000D01*
X90185000Y-94504250D01*
X90188072Y-93890000D01*
X90175812Y-93765518D01*
X90139502Y-93645820D01*
X90080537Y-93535506D01*
X90001185Y-93438815D01*
X89904494Y-93359463D01*
X89794180Y-93300498D01*
X89674482Y-93264188D01*
X89550000Y-93251928D01*
X89173250Y-93255000D01*
X89014500Y-93413750D01*
X88760500Y-93413750D01*
X88601750Y-93255000D01*
X88225000Y-93251928D01*
X88100518Y-93264188D01*
X87980820Y-93300498D01*
X87870506Y-93359463D01*
X87773815Y-93438815D01*
X87694463Y-93535506D01*
X87635498Y-93645820D01*
X87599188Y-93765518D01*
X87586928Y-93890000D01*
X87022728Y-93890000D01*
X86995472Y-93800149D01*
X86913405Y-93646613D01*
X86802962Y-93512038D01*
X86668387Y-93401595D01*
X86514851Y-93319528D01*
X86348255Y-93268992D01*
X86175001Y-93251928D01*
X85349999Y-93251928D01*
X85176745Y-93268992D01*
X85010149Y-93319528D01*
X84856613Y-93401595D01*
X84722038Y-93512038D01*
X84611595Y-93646613D01*
X84529528Y-93800149D01*
X84478992Y-93966745D01*
X84461928Y-94139999D01*
X56540000Y-94139999D01*
X56540000Y-91680000D01*
X60026928Y-91680000D01*
X60039188Y-91804482D01*
X60075498Y-91924180D01*
X60134463Y-92034494D01*
X60213815Y-92131185D01*
X60310506Y-92210537D01*
X60420820Y-92269502D01*
X60540518Y-92305812D01*
X60665000Y-92318072D01*
X61091750Y-92315000D01*
X61250500Y-92156250D01*
X61250500Y-90932000D01*
X61504500Y-90932000D01*
X61504500Y-92156250D01*
X61663250Y-92315000D01*
X62090000Y-92318072D01*
X62214482Y-92305812D01*
X62334180Y-92269502D01*
X62444494Y-92210537D01*
X62541185Y-92131185D01*
X62620537Y-92034494D01*
X62679502Y-91924180D01*
X62715812Y-91804482D01*
X62728072Y-91680000D01*
X62725000Y-91090750D01*
X62566250Y-90932000D01*
X61504500Y-90932000D01*
X61250500Y-90932000D01*
X60188750Y-90932000D01*
X60030000Y-91090750D01*
X60026928Y-91680000D01*
X56540000Y-91680000D01*
X56540000Y-89930000D01*
X60026928Y-89930000D01*
X60030000Y-90519250D01*
X60188750Y-90678000D01*
X61250500Y-90678000D01*
X61250500Y-89453750D01*
X61504500Y-89453750D01*
X61504500Y-90678000D01*
X62566250Y-90678000D01*
X62725000Y-90519250D01*
X62726768Y-90180000D01*
X63001928Y-90180000D01*
X63001928Y-91430000D01*
X63018992Y-91603254D01*
X63069528Y-91769850D01*
X63151595Y-91923386D01*
X63262038Y-92057962D01*
X63396614Y-92168405D01*
X63550150Y-92250472D01*
X63716746Y-92301008D01*
X63890000Y-92318072D01*
X64815000Y-92318072D01*
X64988254Y-92301008D01*
X65154850Y-92250472D01*
X65308386Y-92168405D01*
X65442962Y-92057962D01*
X65553405Y-91923386D01*
X65574190Y-91884500D01*
X66505810Y-91884500D01*
X66526595Y-91923386D01*
X66637038Y-92057962D01*
X66771614Y-92168405D01*
X66925150Y-92250472D01*
X67091746Y-92301008D01*
X67265000Y-92318072D01*
X68065000Y-92318072D01*
X68238254Y-92301008D01*
X68404850Y-92250472D01*
X68558386Y-92168405D01*
X68692962Y-92057962D01*
X68803405Y-91923386D01*
X68885472Y-91769850D01*
X68936008Y-91603254D01*
X68953072Y-91430000D01*
X68953072Y-90180000D01*
X68936008Y-90006746D01*
X68885472Y-89840150D01*
X68803405Y-89686614D01*
X68692962Y-89552038D01*
X68558386Y-89441595D01*
X68404850Y-89359528D01*
X68238254Y-89308992D01*
X68065000Y-89291928D01*
X67265000Y-89291928D01*
X67091746Y-89308992D01*
X66925150Y-89359528D01*
X66771614Y-89441595D01*
X66637038Y-89552038D01*
X66526595Y-89686614D01*
X66505810Y-89725500D01*
X65574190Y-89725500D01*
X65553405Y-89686614D01*
X65442962Y-89552038D01*
X65308386Y-89441595D01*
X65154850Y-89359528D01*
X64988254Y-89308992D01*
X64815000Y-89291928D01*
X63890000Y-89291928D01*
X63716746Y-89308992D01*
X63550150Y-89359528D01*
X63396614Y-89441595D01*
X63262038Y-89552038D01*
X63151595Y-89686614D01*
X63069528Y-89840150D01*
X63018992Y-90006746D01*
X63001928Y-90180000D01*
X62726768Y-90180000D01*
X62728072Y-89930000D01*
X62715812Y-89805518D01*
X62679502Y-89685820D01*
X62620537Y-89575506D01*
X62541185Y-89478815D01*
X62444494Y-89399463D01*
X62334180Y-89340498D01*
X62214482Y-89304188D01*
X62090000Y-89291928D01*
X61663250Y-89295000D01*
X61504500Y-89453750D01*
X61250500Y-89453750D01*
X61091750Y-89295000D01*
X60665000Y-89291928D01*
X60540518Y-89304188D01*
X60420820Y-89340498D01*
X60310506Y-89399463D01*
X60213815Y-89478815D01*
X60134463Y-89575506D01*
X60075498Y-89685820D01*
X60039188Y-89805518D01*
X60026928Y-89930000D01*
X56540000Y-89930000D01*
X56540000Y-84125000D01*
X58016928Y-84125000D01*
X58016928Y-86625000D01*
X58029188Y-86749482D01*
X58065498Y-86869180D01*
X58124463Y-86979494D01*
X58203815Y-87076185D01*
X58300506Y-87155537D01*
X58410820Y-87214502D01*
X58530518Y-87250812D01*
X58655000Y-87263072D01*
X61155000Y-87263072D01*
X61279482Y-87250812D01*
X61399180Y-87214502D01*
X61509494Y-87155537D01*
X61606185Y-87076185D01*
X61685537Y-86979494D01*
X61744502Y-86869180D01*
X61780812Y-86749482D01*
X61793072Y-86625000D01*
X61793072Y-84125000D01*
X69016928Y-84125000D01*
X69016928Y-86625000D01*
X69029188Y-86749482D01*
X69065498Y-86869180D01*
X69124463Y-86979494D01*
X69203815Y-87076185D01*
X69300506Y-87155537D01*
X69410820Y-87214502D01*
X69530518Y-87250812D01*
X69655000Y-87263072D01*
X69825500Y-87263072D01*
X69825501Y-89479439D01*
X69737038Y-89552038D01*
X69626595Y-89686614D01*
X69544528Y-89840150D01*
X69493992Y-90006746D01*
X69476928Y-90180000D01*
X69476928Y-91430000D01*
X69493992Y-91603254D01*
X69544528Y-91769850D01*
X69626595Y-91923386D01*
X69737038Y-92057962D01*
X69871614Y-92168405D01*
X70025150Y-92250472D01*
X70191746Y-92301008D01*
X70365000Y-92318072D01*
X71165000Y-92318072D01*
X71338254Y-92301008D01*
X71504850Y-92250472D01*
X71658386Y-92168405D01*
X71792962Y-92057962D01*
X71903405Y-91923386D01*
X71985472Y-91769850D01*
X72036008Y-91603254D01*
X72053072Y-91430000D01*
X72053072Y-90180000D01*
X72038167Y-90028665D01*
X97625000Y-90028665D01*
X97625000Y-90311335D01*
X97680147Y-90588574D01*
X97788320Y-90849727D01*
X97945363Y-91084759D01*
X98145241Y-91284637D01*
X98380273Y-91441680D01*
X98641426Y-91549853D01*
X98918665Y-91605000D01*
X99201335Y-91605000D01*
X99478574Y-91549853D01*
X99739727Y-91441680D01*
X99974759Y-91284637D01*
X100174637Y-91084759D01*
X100330000Y-90852241D01*
X100485363Y-91084759D01*
X100685241Y-91284637D01*
X100920273Y-91441680D01*
X101181426Y-91549853D01*
X101458665Y-91605000D01*
X101741335Y-91605000D01*
X102018574Y-91549853D01*
X102279727Y-91441680D01*
X102514759Y-91284637D01*
X102714637Y-91084759D01*
X102870000Y-90852241D01*
X103025363Y-91084759D01*
X103225241Y-91284637D01*
X103460273Y-91441680D01*
X103721426Y-91549853D01*
X103998665Y-91605000D01*
X104281335Y-91605000D01*
X104558574Y-91549853D01*
X104819727Y-91441680D01*
X105054759Y-91284637D01*
X105254637Y-91084759D01*
X105410000Y-90852241D01*
X105565363Y-91084759D01*
X105765241Y-91284637D01*
X106000273Y-91441680D01*
X106261426Y-91549853D01*
X106538665Y-91605000D01*
X106821335Y-91605000D01*
X107098574Y-91549853D01*
X107359727Y-91441680D01*
X107594759Y-91284637D01*
X107794637Y-91084759D01*
X107950000Y-90852241D01*
X108105363Y-91084759D01*
X108305241Y-91284637D01*
X108540273Y-91441680D01*
X108801426Y-91549853D01*
X109078665Y-91605000D01*
X109361335Y-91605000D01*
X109638574Y-91549853D01*
X109899727Y-91441680D01*
X110134759Y-91284637D01*
X110334637Y-91084759D01*
X110490000Y-90852241D01*
X110645363Y-91084759D01*
X110845241Y-91284637D01*
X111080273Y-91441680D01*
X111341426Y-91549853D01*
X111618665Y-91605000D01*
X111901335Y-91605000D01*
X112178574Y-91549853D01*
X112439727Y-91441680D01*
X112674759Y-91284637D01*
X112874637Y-91084759D01*
X113030000Y-90852241D01*
X113185363Y-91084759D01*
X113385241Y-91284637D01*
X113620273Y-91441680D01*
X113881426Y-91549853D01*
X114158665Y-91605000D01*
X114441335Y-91605000D01*
X114718574Y-91549853D01*
X114979727Y-91441680D01*
X115214759Y-91284637D01*
X115414637Y-91084759D01*
X115571680Y-90849727D01*
X115576067Y-90839135D01*
X115687615Y-91025131D01*
X115876586Y-91233519D01*
X116102580Y-91401037D01*
X116356913Y-91521246D01*
X116490961Y-91561904D01*
X116713000Y-91439915D01*
X116713000Y-90297000D01*
X116693000Y-90297000D01*
X116693000Y-90043000D01*
X116713000Y-90043000D01*
X116713000Y-88900085D01*
X116967000Y-88900085D01*
X116967000Y-90043000D01*
X116987000Y-90043000D01*
X116987000Y-90297000D01*
X116967000Y-90297000D01*
X116967000Y-91439915D01*
X117189039Y-91561904D01*
X117323087Y-91521246D01*
X117577420Y-91401037D01*
X117803414Y-91233519D01*
X117992385Y-91025131D01*
X118103933Y-90839135D01*
X118108320Y-90849727D01*
X118265363Y-91084759D01*
X118465241Y-91284637D01*
X118700273Y-91441680D01*
X118961426Y-91549853D01*
X119238665Y-91605000D01*
X119521335Y-91605000D01*
X119798574Y-91549853D01*
X120059727Y-91441680D01*
X120294759Y-91284637D01*
X120494637Y-91084759D01*
X120650000Y-90852241D01*
X120805363Y-91084759D01*
X121005241Y-91284637D01*
X121240273Y-91441680D01*
X121501426Y-91549853D01*
X121778665Y-91605000D01*
X122061335Y-91605000D01*
X122338574Y-91549853D01*
X122599727Y-91441680D01*
X122834759Y-91284637D01*
X123034637Y-91084759D01*
X123190000Y-90852241D01*
X123345363Y-91084759D01*
X123545241Y-91284637D01*
X123780273Y-91441680D01*
X124041426Y-91549853D01*
X124318665Y-91605000D01*
X124601335Y-91605000D01*
X124878574Y-91549853D01*
X125139727Y-91441680D01*
X125374759Y-91284637D01*
X125574637Y-91084759D01*
X125730000Y-90852241D01*
X125885363Y-91084759D01*
X126085241Y-91284637D01*
X126320273Y-91441680D01*
X126581426Y-91549853D01*
X126858665Y-91605000D01*
X127141335Y-91605000D01*
X127418574Y-91549853D01*
X127679727Y-91441680D01*
X127914759Y-91284637D01*
X128114637Y-91084759D01*
X128270000Y-90852241D01*
X128425363Y-91084759D01*
X128625241Y-91284637D01*
X128860273Y-91441680D01*
X129121426Y-91549853D01*
X129398665Y-91605000D01*
X129681335Y-91605000D01*
X129958574Y-91549853D01*
X130219727Y-91441680D01*
X130454759Y-91284637D01*
X130654637Y-91084759D01*
X130810000Y-90852241D01*
X130965363Y-91084759D01*
X131165241Y-91284637D01*
X131400273Y-91441680D01*
X131661426Y-91549853D01*
X131938665Y-91605000D01*
X132221335Y-91605000D01*
X132498574Y-91549853D01*
X132759727Y-91441680D01*
X132994759Y-91284637D01*
X133194637Y-91084759D01*
X133351680Y-90849727D01*
X133459853Y-90588574D01*
X133515000Y-90311335D01*
X133515000Y-90028665D01*
X133459853Y-89751426D01*
X133351680Y-89490273D01*
X133194637Y-89255241D01*
X132994759Y-89055363D01*
X132759727Y-88898320D01*
X132498574Y-88790147D01*
X132221335Y-88735000D01*
X131938665Y-88735000D01*
X131661426Y-88790147D01*
X131400273Y-88898320D01*
X131165241Y-89055363D01*
X130965363Y-89255241D01*
X130810000Y-89487759D01*
X130654637Y-89255241D01*
X130454759Y-89055363D01*
X130219727Y-88898320D01*
X129958574Y-88790147D01*
X129681335Y-88735000D01*
X129398665Y-88735000D01*
X129121426Y-88790147D01*
X128860273Y-88898320D01*
X128625241Y-89055363D01*
X128425363Y-89255241D01*
X128270000Y-89487759D01*
X128114637Y-89255241D01*
X127914759Y-89055363D01*
X127679727Y-88898320D01*
X127418574Y-88790147D01*
X127141335Y-88735000D01*
X126858665Y-88735000D01*
X126581426Y-88790147D01*
X126320273Y-88898320D01*
X126085241Y-89055363D01*
X125885363Y-89255241D01*
X125730000Y-89487759D01*
X125574637Y-89255241D01*
X125374759Y-89055363D01*
X125139727Y-88898320D01*
X124878574Y-88790147D01*
X124601335Y-88735000D01*
X124318665Y-88735000D01*
X124041426Y-88790147D01*
X123780273Y-88898320D01*
X123545241Y-89055363D01*
X123345363Y-89255241D01*
X123190000Y-89487759D01*
X123034637Y-89255241D01*
X122834759Y-89055363D01*
X122599727Y-88898320D01*
X122338574Y-88790147D01*
X122061335Y-88735000D01*
X121778665Y-88735000D01*
X121501426Y-88790147D01*
X121240273Y-88898320D01*
X121005241Y-89055363D01*
X120805363Y-89255241D01*
X120650000Y-89487759D01*
X120494637Y-89255241D01*
X120294759Y-89055363D01*
X120059727Y-88898320D01*
X119798574Y-88790147D01*
X119521335Y-88735000D01*
X119238665Y-88735000D01*
X118961426Y-88790147D01*
X118700273Y-88898320D01*
X118465241Y-89055363D01*
X118265363Y-89255241D01*
X118108320Y-89490273D01*
X118103933Y-89500865D01*
X117992385Y-89314869D01*
X117803414Y-89106481D01*
X117577420Y-88938963D01*
X117323087Y-88818754D01*
X117189039Y-88778096D01*
X116967000Y-88900085D01*
X116713000Y-88900085D01*
X116490961Y-88778096D01*
X116356913Y-88818754D01*
X116102580Y-88938963D01*
X115876586Y-89106481D01*
X115687615Y-89314869D01*
X115576067Y-89500865D01*
X115571680Y-89490273D01*
X115414637Y-89255241D01*
X115214759Y-89055363D01*
X114979727Y-88898320D01*
X114718574Y-88790147D01*
X114441335Y-88735000D01*
X114158665Y-88735000D01*
X113881426Y-88790147D01*
X113620273Y-88898320D01*
X113385241Y-89055363D01*
X113185363Y-89255241D01*
X113030000Y-89487759D01*
X112874637Y-89255241D01*
X112674759Y-89055363D01*
X112439727Y-88898320D01*
X112178574Y-88790147D01*
X111901335Y-88735000D01*
X111618665Y-88735000D01*
X111341426Y-88790147D01*
X111080273Y-88898320D01*
X110845241Y-89055363D01*
X110645363Y-89255241D01*
X110490000Y-89487759D01*
X110334637Y-89255241D01*
X110134759Y-89055363D01*
X109899727Y-88898320D01*
X109638574Y-88790147D01*
X109361335Y-88735000D01*
X109078665Y-88735000D01*
X108801426Y-88790147D01*
X108540273Y-88898320D01*
X108305241Y-89055363D01*
X108105363Y-89255241D01*
X107950000Y-89487759D01*
X107794637Y-89255241D01*
X107594759Y-89055363D01*
X107359727Y-88898320D01*
X107098574Y-88790147D01*
X106821335Y-88735000D01*
X106538665Y-88735000D01*
X106261426Y-88790147D01*
X106000273Y-88898320D01*
X105765241Y-89055363D01*
X105565363Y-89255241D01*
X105410000Y-89487759D01*
X105254637Y-89255241D01*
X105054759Y-89055363D01*
X104819727Y-88898320D01*
X104558574Y-88790147D01*
X104281335Y-88735000D01*
X103998665Y-88735000D01*
X103721426Y-88790147D01*
X103460273Y-88898320D01*
X103225241Y-89055363D01*
X103025363Y-89255241D01*
X102870000Y-89487759D01*
X102714637Y-89255241D01*
X102514759Y-89055363D01*
X102279727Y-88898320D01*
X102018574Y-88790147D01*
X101741335Y-88735000D01*
X101458665Y-88735000D01*
X101181426Y-88790147D01*
X100920273Y-88898320D01*
X100685241Y-89055363D01*
X100485363Y-89255241D01*
X100330000Y-89487759D01*
X100174637Y-89255241D01*
X99974759Y-89055363D01*
X99739727Y-88898320D01*
X99478574Y-88790147D01*
X99201335Y-88735000D01*
X98918665Y-88735000D01*
X98641426Y-88790147D01*
X98380273Y-88898320D01*
X98145241Y-89055363D01*
X97945363Y-89255241D01*
X97788320Y-89490273D01*
X97680147Y-89751426D01*
X97625000Y-90028665D01*
X72038167Y-90028665D01*
X72036008Y-90006746D01*
X71985472Y-89840150D01*
X71984500Y-89838332D01*
X71984500Y-87263072D01*
X72155000Y-87263072D01*
X72279482Y-87250812D01*
X72399180Y-87214502D01*
X72509494Y-87155537D01*
X72606185Y-87076185D01*
X72685537Y-86979494D01*
X72744502Y-86869180D01*
X72780812Y-86749482D01*
X72793072Y-86625000D01*
X72793072Y-86454500D01*
X73690467Y-86454500D01*
X73786613Y-86533405D01*
X73940149Y-86615472D01*
X74106745Y-86666008D01*
X74279999Y-86683072D01*
X75580001Y-86683072D01*
X75753255Y-86666008D01*
X75919851Y-86615472D01*
X76073387Y-86533405D01*
X76160394Y-86462000D01*
X96174471Y-86462000D01*
X96227500Y-86467223D01*
X96280529Y-86462000D01*
X115224471Y-86462000D01*
X115277500Y-86467223D01*
X115330529Y-86462000D01*
X115489119Y-86446380D01*
X115692606Y-86384653D01*
X115880140Y-86284414D01*
X116044515Y-86149515D01*
X116078326Y-86108316D01*
X117565826Y-84620818D01*
X117607015Y-84587015D01*
X117659214Y-84523411D01*
X117741914Y-84422640D01*
X117768529Y-84372847D01*
X117842153Y-84235106D01*
X117903880Y-84031619D01*
X117919500Y-83873029D01*
X117919500Y-83873028D01*
X117924723Y-83820000D01*
X117919500Y-83766971D01*
X117919500Y-83499896D01*
X117954637Y-83464759D01*
X118110000Y-83232241D01*
X118265363Y-83464759D01*
X118465241Y-83664637D01*
X118700273Y-83821680D01*
X118961426Y-83929853D01*
X119238665Y-83985000D01*
X119521335Y-83985000D01*
X119798574Y-83929853D01*
X120059727Y-83821680D01*
X120294759Y-83664637D01*
X120494637Y-83464759D01*
X120650000Y-83232241D01*
X120805363Y-83464759D01*
X121005241Y-83664637D01*
X121240273Y-83821680D01*
X121501426Y-83929853D01*
X121778665Y-83985000D01*
X122061335Y-83985000D01*
X122338574Y-83929853D01*
X122599727Y-83821680D01*
X122834759Y-83664637D01*
X123034637Y-83464759D01*
X123190000Y-83232241D01*
X123345363Y-83464759D01*
X123545241Y-83664637D01*
X123780273Y-83821680D01*
X124041426Y-83929853D01*
X124318665Y-83985000D01*
X124601335Y-83985000D01*
X124878574Y-83929853D01*
X125139727Y-83821680D01*
X125374759Y-83664637D01*
X125574637Y-83464759D01*
X125730000Y-83232241D01*
X125885363Y-83464759D01*
X126085241Y-83664637D01*
X126320273Y-83821680D01*
X126581426Y-83929853D01*
X126858665Y-83985000D01*
X127141335Y-83985000D01*
X127418574Y-83929853D01*
X127679727Y-83821680D01*
X127914759Y-83664637D01*
X128114637Y-83464759D01*
X128270000Y-83232241D01*
X128425363Y-83464759D01*
X128625241Y-83664637D01*
X128860273Y-83821680D01*
X129121426Y-83929853D01*
X129398665Y-83985000D01*
X129681335Y-83985000D01*
X129958574Y-83929853D01*
X130219727Y-83821680D01*
X130454759Y-83664637D01*
X130653357Y-83466039D01*
X130654188Y-83474482D01*
X130690498Y-83594180D01*
X130749463Y-83704494D01*
X130828815Y-83801185D01*
X130925506Y-83880537D01*
X131035820Y-83939502D01*
X131155518Y-83975812D01*
X131280000Y-83988072D01*
X132880000Y-83988072D01*
X133004482Y-83975812D01*
X133124180Y-83939502D01*
X133234494Y-83880537D01*
X133331185Y-83801185D01*
X133410537Y-83704494D01*
X133469502Y-83594180D01*
X133505812Y-83474482D01*
X133518072Y-83350000D01*
X133518072Y-82970000D01*
X138211928Y-82970000D01*
X138211928Y-84670000D01*
X138224188Y-84794482D01*
X138260498Y-84914180D01*
X138319463Y-85024494D01*
X138398815Y-85121185D01*
X138495506Y-85200537D01*
X138605820Y-85259502D01*
X138678380Y-85281513D01*
X138546525Y-85413368D01*
X138384010Y-85656589D01*
X138272068Y-85926842D01*
X138215000Y-86213740D01*
X138215000Y-86506260D01*
X138272068Y-86793158D01*
X138384010Y-87063411D01*
X138546525Y-87306632D01*
X138753368Y-87513475D01*
X138927760Y-87630000D01*
X138753368Y-87746525D01*
X138546525Y-87953368D01*
X138384010Y-88196589D01*
X138272068Y-88466842D01*
X138215000Y-88753740D01*
X138215000Y-89046260D01*
X138272068Y-89333158D01*
X138384010Y-89603411D01*
X138546525Y-89846632D01*
X138753368Y-90053475D01*
X138996589Y-90215990D01*
X139266842Y-90327932D01*
X139553740Y-90385000D01*
X139846260Y-90385000D01*
X140133158Y-90327932D01*
X140403411Y-90215990D01*
X140646632Y-90053475D01*
X140853475Y-89846632D01*
X140971100Y-89670594D01*
X141142412Y-89900269D01*
X141358645Y-90095178D01*
X141608748Y-90244157D01*
X141883109Y-90341481D01*
X142113000Y-90220814D01*
X142113000Y-89027000D01*
X142367000Y-89027000D01*
X142367000Y-90220814D01*
X142596891Y-90341481D01*
X142871252Y-90244157D01*
X143121355Y-90095178D01*
X143337588Y-89900269D01*
X143511641Y-89666920D01*
X143636825Y-89404099D01*
X143681476Y-89256890D01*
X143560155Y-89027000D01*
X142367000Y-89027000D01*
X142113000Y-89027000D01*
X142093000Y-89027000D01*
X142093000Y-88773000D01*
X142113000Y-88773000D01*
X142113000Y-88753000D01*
X142367000Y-88753000D01*
X142367000Y-88773000D01*
X143560155Y-88773000D01*
X143681476Y-88543110D01*
X143636825Y-88395901D01*
X143511641Y-88133080D01*
X143337588Y-87899731D01*
X143121355Y-87704822D01*
X143004466Y-87635195D01*
X143186632Y-87513475D01*
X143393475Y-87306632D01*
X143555990Y-87063411D01*
X143667932Y-86793158D01*
X143725000Y-86506260D01*
X143725000Y-86213740D01*
X143667932Y-85926842D01*
X143555990Y-85656589D01*
X143393475Y-85413368D01*
X143186632Y-85206525D01*
X143012240Y-85090000D01*
X143186632Y-84973475D01*
X143393475Y-84766632D01*
X143555990Y-84523411D01*
X143667932Y-84253158D01*
X143725000Y-83966260D01*
X143725000Y-83673740D01*
X143667932Y-83386842D01*
X143555990Y-83116589D01*
X143393475Y-82873368D01*
X143186632Y-82666525D01*
X142943411Y-82504010D01*
X142673158Y-82392068D01*
X142386260Y-82335000D01*
X142093740Y-82335000D01*
X141806842Y-82392068D01*
X141536589Y-82504010D01*
X141293368Y-82666525D01*
X141161513Y-82798380D01*
X141139502Y-82725820D01*
X141080537Y-82615506D01*
X141001185Y-82518815D01*
X140904494Y-82439463D01*
X140794180Y-82380498D01*
X140674482Y-82344188D01*
X140550000Y-82331928D01*
X138850000Y-82331928D01*
X138725518Y-82344188D01*
X138605820Y-82380498D01*
X138495506Y-82439463D01*
X138398815Y-82518815D01*
X138319463Y-82615506D01*
X138260498Y-82725820D01*
X138224188Y-82845518D01*
X138211928Y-82970000D01*
X133518072Y-82970000D01*
X133518072Y-81750000D01*
X133505812Y-81625518D01*
X133469502Y-81505820D01*
X133410537Y-81395506D01*
X133331185Y-81298815D01*
X133234494Y-81219463D01*
X133124180Y-81160498D01*
X133004482Y-81124188D01*
X132880000Y-81111928D01*
X131280000Y-81111928D01*
X131155518Y-81124188D01*
X131035820Y-81160498D01*
X130925506Y-81219463D01*
X130828815Y-81298815D01*
X130749463Y-81395506D01*
X130690498Y-81505820D01*
X130654188Y-81625518D01*
X130653357Y-81633961D01*
X130454759Y-81435363D01*
X130219727Y-81278320D01*
X129958574Y-81170147D01*
X129681335Y-81115000D01*
X129398665Y-81115000D01*
X129121426Y-81170147D01*
X128860273Y-81278320D01*
X128625241Y-81435363D01*
X128425363Y-81635241D01*
X128270000Y-81867759D01*
X128114637Y-81635241D01*
X127914759Y-81435363D01*
X127679727Y-81278320D01*
X127418574Y-81170147D01*
X127141335Y-81115000D01*
X126858665Y-81115000D01*
X126581426Y-81170147D01*
X126320273Y-81278320D01*
X126085241Y-81435363D01*
X125885363Y-81635241D01*
X125730000Y-81867759D01*
X125574637Y-81635241D01*
X125374759Y-81435363D01*
X125139727Y-81278320D01*
X124878574Y-81170147D01*
X124601335Y-81115000D01*
X124318665Y-81115000D01*
X124041426Y-81170147D01*
X123780273Y-81278320D01*
X123545241Y-81435363D01*
X123345363Y-81635241D01*
X123190000Y-81867759D01*
X123034637Y-81635241D01*
X122834759Y-81435363D01*
X122599727Y-81278320D01*
X122338574Y-81170147D01*
X122061335Y-81115000D01*
X121778665Y-81115000D01*
X121501426Y-81170147D01*
X121240273Y-81278320D01*
X121005241Y-81435363D01*
X120805363Y-81635241D01*
X120650000Y-81867759D01*
X120494637Y-81635241D01*
X120294759Y-81435363D01*
X120059727Y-81278320D01*
X119798574Y-81170147D01*
X119521335Y-81115000D01*
X119238665Y-81115000D01*
X118961426Y-81170147D01*
X118700273Y-81278320D01*
X118465241Y-81435363D01*
X118265363Y-81635241D01*
X118110000Y-81867759D01*
X117954637Y-81635241D01*
X117754759Y-81435363D01*
X117519727Y-81278320D01*
X117258574Y-81170147D01*
X116981335Y-81115000D01*
X116698665Y-81115000D01*
X116421426Y-81170147D01*
X116160273Y-81278320D01*
X115925241Y-81435363D01*
X115725363Y-81635241D01*
X115568320Y-81870273D01*
X115563933Y-81880865D01*
X115452385Y-81694869D01*
X115263414Y-81486481D01*
X115037420Y-81318963D01*
X114783087Y-81198754D01*
X114649039Y-81158096D01*
X114427000Y-81280085D01*
X114427000Y-82423000D01*
X114447000Y-82423000D01*
X114447000Y-82677000D01*
X114427000Y-82677000D01*
X114427000Y-83819915D01*
X114649039Y-83941904D01*
X114783087Y-83901246D01*
X115037420Y-83781037D01*
X115263414Y-83613519D01*
X115452385Y-83405131D01*
X115563933Y-83219135D01*
X115568320Y-83229727D01*
X115702626Y-83430731D01*
X114830358Y-84303000D01*
X97307000Y-84303000D01*
X97307000Y-82408665D01*
X97625000Y-82408665D01*
X97625000Y-82691335D01*
X97680147Y-82968574D01*
X97788320Y-83229727D01*
X97945363Y-83464759D01*
X98145241Y-83664637D01*
X98380273Y-83821680D01*
X98641426Y-83929853D01*
X98918665Y-83985000D01*
X99201335Y-83985000D01*
X99478574Y-83929853D01*
X99739727Y-83821680D01*
X99974759Y-83664637D01*
X100174637Y-83464759D01*
X100330000Y-83232241D01*
X100485363Y-83464759D01*
X100685241Y-83664637D01*
X100920273Y-83821680D01*
X101181426Y-83929853D01*
X101458665Y-83985000D01*
X101741335Y-83985000D01*
X102018574Y-83929853D01*
X102279727Y-83821680D01*
X102514759Y-83664637D01*
X102714637Y-83464759D01*
X102870000Y-83232241D01*
X103025363Y-83464759D01*
X103225241Y-83664637D01*
X103460273Y-83821680D01*
X103721426Y-83929853D01*
X103998665Y-83985000D01*
X104281335Y-83985000D01*
X104558574Y-83929853D01*
X104819727Y-83821680D01*
X105054759Y-83664637D01*
X105254637Y-83464759D01*
X105410000Y-83232241D01*
X105565363Y-83464759D01*
X105765241Y-83664637D01*
X106000273Y-83821680D01*
X106261426Y-83929853D01*
X106538665Y-83985000D01*
X106821335Y-83985000D01*
X107098574Y-83929853D01*
X107359727Y-83821680D01*
X107594759Y-83664637D01*
X107794637Y-83464759D01*
X107950000Y-83232241D01*
X108105363Y-83464759D01*
X108305241Y-83664637D01*
X108540273Y-83821680D01*
X108801426Y-83929853D01*
X109078665Y-83985000D01*
X109361335Y-83985000D01*
X109638574Y-83929853D01*
X109899727Y-83821680D01*
X110134759Y-83664637D01*
X110334637Y-83464759D01*
X110490000Y-83232241D01*
X110645363Y-83464759D01*
X110845241Y-83664637D01*
X111080273Y-83821680D01*
X111341426Y-83929853D01*
X111618665Y-83985000D01*
X111901335Y-83985000D01*
X112178574Y-83929853D01*
X112439727Y-83821680D01*
X112674759Y-83664637D01*
X112874637Y-83464759D01*
X113031680Y-83229727D01*
X113036067Y-83219135D01*
X113147615Y-83405131D01*
X113336586Y-83613519D01*
X113562580Y-83781037D01*
X113816913Y-83901246D01*
X113950961Y-83941904D01*
X114173000Y-83819915D01*
X114173000Y-82677000D01*
X114153000Y-82677000D01*
X114153000Y-82423000D01*
X114173000Y-82423000D01*
X114173000Y-81280085D01*
X113950961Y-81158096D01*
X113816913Y-81198754D01*
X113562580Y-81318963D01*
X113336586Y-81486481D01*
X113147615Y-81694869D01*
X113036067Y-81880865D01*
X113031680Y-81870273D01*
X112874637Y-81635241D01*
X112674759Y-81435363D01*
X112439727Y-81278320D01*
X112178574Y-81170147D01*
X111901335Y-81115000D01*
X111618665Y-81115000D01*
X111341426Y-81170147D01*
X111080273Y-81278320D01*
X110845241Y-81435363D01*
X110645363Y-81635241D01*
X110490000Y-81867759D01*
X110334637Y-81635241D01*
X110134759Y-81435363D01*
X109899727Y-81278320D01*
X109638574Y-81170147D01*
X109361335Y-81115000D01*
X109078665Y-81115000D01*
X108801426Y-81170147D01*
X108540273Y-81278320D01*
X108305241Y-81435363D01*
X108105363Y-81635241D01*
X107950000Y-81867759D01*
X107794637Y-81635241D01*
X107594759Y-81435363D01*
X107359727Y-81278320D01*
X107098574Y-81170147D01*
X106821335Y-81115000D01*
X106538665Y-81115000D01*
X106261426Y-81170147D01*
X106000273Y-81278320D01*
X105765241Y-81435363D01*
X105565363Y-81635241D01*
X105410000Y-81867759D01*
X105254637Y-81635241D01*
X105054759Y-81435363D01*
X104819727Y-81278320D01*
X104558574Y-81170147D01*
X104281335Y-81115000D01*
X103998665Y-81115000D01*
X103721426Y-81170147D01*
X103460273Y-81278320D01*
X103225241Y-81435363D01*
X103025363Y-81635241D01*
X102870000Y-81867759D01*
X102714637Y-81635241D01*
X102514759Y-81435363D01*
X102279727Y-81278320D01*
X102018574Y-81170147D01*
X101741335Y-81115000D01*
X101458665Y-81115000D01*
X101181426Y-81170147D01*
X100920273Y-81278320D01*
X100685241Y-81435363D01*
X100485363Y-81635241D01*
X100330000Y-81867759D01*
X100174637Y-81635241D01*
X99974759Y-81435363D01*
X99739727Y-81278320D01*
X99478574Y-81170147D01*
X99201335Y-81115000D01*
X98918665Y-81115000D01*
X98641426Y-81170147D01*
X98380273Y-81278320D01*
X98145241Y-81435363D01*
X97945363Y-81635241D01*
X97788320Y-81870273D01*
X97680147Y-82131426D01*
X97625000Y-82408665D01*
X97307000Y-82408665D01*
X97307000Y-76304642D01*
X99150821Y-74460822D01*
X99192015Y-74427015D01*
X99326914Y-74262640D01*
X99427153Y-74075106D01*
X99488880Y-73871619D01*
X99504500Y-73713029D01*
X99504500Y-73713022D01*
X99509722Y-73660001D01*
X99504500Y-73606979D01*
X99504500Y-68633021D01*
X99509722Y-68579999D01*
X99504500Y-68526978D01*
X99504500Y-68526971D01*
X99488880Y-68368381D01*
X99427153Y-68164894D01*
X99326914Y-67977360D01*
X99192015Y-67812985D01*
X99150821Y-67779178D01*
X97955826Y-66584184D01*
X97922015Y-66542985D01*
X97757640Y-66408086D01*
X97570106Y-66307847D01*
X97366619Y-66246120D01*
X97208029Y-66230500D01*
X97155000Y-66225277D01*
X97101971Y-66230500D01*
X95303021Y-66230500D01*
X95249999Y-66225278D01*
X95196978Y-66230500D01*
X95196971Y-66230500D01*
X95038381Y-66246120D01*
X94834894Y-66307847D01*
X94647360Y-66408086D01*
X94482985Y-66542985D01*
X94449178Y-66584180D01*
X93916023Y-67117335D01*
X93882681Y-67120619D01*
X93679194Y-67182346D01*
X93491660Y-67282585D01*
X93327285Y-67417484D01*
X93192386Y-67581859D01*
X93092147Y-67769393D01*
X93091026Y-67773089D01*
X93050120Y-67785498D01*
X92939806Y-67844463D01*
X92843115Y-67923815D01*
X92763763Y-68020506D01*
X92704798Y-68130820D01*
X92668488Y-68250518D01*
X92656228Y-68375000D01*
X92656228Y-68785000D01*
X92667308Y-68897500D01*
X92664946Y-68921483D01*
X92503898Y-68854774D01*
X92303939Y-68815000D01*
X92100061Y-68815000D01*
X91900102Y-68854774D01*
X91711744Y-68932795D01*
X91542226Y-69046063D01*
X91398063Y-69190226D01*
X91284795Y-69359744D01*
X91206774Y-69548102D01*
X91198798Y-69588202D01*
X91168256Y-69567795D01*
X90979898Y-69489774D01*
X90779939Y-69450000D01*
X90576061Y-69450000D01*
X90376102Y-69489774D01*
X90215054Y-69556483D01*
X90212692Y-69532500D01*
X90223772Y-69420000D01*
X90223772Y-69010000D01*
X90212692Y-68897500D01*
X90223772Y-68785000D01*
X90223772Y-68375000D01*
X90211512Y-68250518D01*
X90175202Y-68130820D01*
X90116237Y-68020506D01*
X90036885Y-67923815D01*
X89940194Y-67844463D01*
X89829880Y-67785498D01*
X89710182Y-67749188D01*
X89585700Y-67736928D01*
X87985700Y-67736928D01*
X87861218Y-67749188D01*
X87843707Y-67754500D01*
X83860550Y-67754500D01*
X83820000Y-67750506D01*
X83779449Y-67754500D01*
X83779447Y-67754500D01*
X83658174Y-67766444D01*
X83519138Y-67808620D01*
X83502566Y-67813647D01*
X83359157Y-67890301D01*
X83264958Y-67967608D01*
X83264955Y-67967611D01*
X83233459Y-67993459D01*
X83207611Y-68024955D01*
X81669993Y-69562574D01*
X81637166Y-69569104D01*
X81463822Y-69640905D01*
X81307816Y-69745145D01*
X81175145Y-69877816D01*
X81070905Y-70033822D01*
X80999104Y-70207166D01*
X80962500Y-70391187D01*
X80962500Y-70578813D01*
X80999104Y-70762834D01*
X81046578Y-70877447D01*
X80985000Y-70876928D01*
X80860518Y-70889188D01*
X80740820Y-70925498D01*
X80630506Y-70984463D01*
X80533815Y-71063815D01*
X80454463Y-71160506D01*
X80395498Y-71270820D01*
X80359188Y-71390518D01*
X80346928Y-71515000D01*
X80350000Y-72104250D01*
X80508750Y-72263000D01*
X81508000Y-72263000D01*
X81508000Y-72243000D01*
X81762000Y-72243000D01*
X81762000Y-72263000D01*
X82761250Y-72263000D01*
X82920000Y-72104250D01*
X82923072Y-71515000D01*
X82910812Y-71390518D01*
X82874502Y-71270820D01*
X82815537Y-71160506D01*
X82736185Y-71063815D01*
X82695901Y-71030755D01*
X82759095Y-70936178D01*
X82830896Y-70762834D01*
X82837426Y-70730007D01*
X82887595Y-70679837D01*
X82904104Y-70762834D01*
X82975905Y-70936178D01*
X83080145Y-71092184D01*
X83212816Y-71224855D01*
X83368822Y-71329095D01*
X83530152Y-71395920D01*
X83514528Y-71425150D01*
X83463992Y-71591746D01*
X83446928Y-71765000D01*
X83446928Y-73015000D01*
X83463992Y-73188254D01*
X83514528Y-73354850D01*
X83596595Y-73508386D01*
X83707038Y-73642962D01*
X83841614Y-73753405D01*
X83995150Y-73835472D01*
X84161746Y-73886008D01*
X84335000Y-73903072D01*
X85135000Y-73903072D01*
X85308254Y-73886008D01*
X85474850Y-73835472D01*
X85628386Y-73753405D01*
X85762962Y-73642962D01*
X85873405Y-73508386D01*
X85955472Y-73354850D01*
X85997743Y-73215500D01*
X87396950Y-73215500D01*
X87350700Y-73261750D01*
X87361720Y-73363358D01*
X87399726Y-73482528D01*
X87460251Y-73591994D01*
X87540969Y-73687548D01*
X87638778Y-73765519D01*
X87749919Y-73822911D01*
X87870120Y-73857517D01*
X87994763Y-73868008D01*
X88499950Y-73865000D01*
X88658700Y-73706250D01*
X88658700Y-73233072D01*
X88912700Y-73233072D01*
X88912700Y-73706250D01*
X89071450Y-73865000D01*
X89576637Y-73868008D01*
X89701280Y-73857517D01*
X89821481Y-73822911D01*
X89932622Y-73765519D01*
X90030431Y-73687548D01*
X90111149Y-73591994D01*
X90171674Y-73482528D01*
X90209680Y-73363358D01*
X90220700Y-73261750D01*
X90061950Y-73103000D01*
X89967656Y-73103000D01*
X90036885Y-73046185D01*
X90116237Y-72949494D01*
X90175202Y-72839180D01*
X90177567Y-72831383D01*
X90220700Y-72788250D01*
X90212335Y-72711124D01*
X90215054Y-72683517D01*
X90376102Y-72750226D01*
X90576061Y-72790000D01*
X90779939Y-72790000D01*
X90979898Y-72750226D01*
X91168256Y-72672205D01*
X91198798Y-72651798D01*
X91206774Y-72691898D01*
X91284795Y-72880256D01*
X91398063Y-73049774D01*
X91542226Y-73193937D01*
X91711744Y-73307205D01*
X91900102Y-73385226D01*
X92100061Y-73425000D01*
X92303939Y-73425000D01*
X92503898Y-73385226D01*
X92664946Y-73318517D01*
X92668488Y-73354482D01*
X92704798Y-73474180D01*
X92763763Y-73584494D01*
X92843115Y-73681185D01*
X92939806Y-73760537D01*
X93050120Y-73819502D01*
X93169818Y-73855812D01*
X93268800Y-73865561D01*
X93268800Y-73977956D01*
X93156745Y-73988992D01*
X92990149Y-74039528D01*
X92836613Y-74121595D01*
X92702038Y-74232038D01*
X92591595Y-74366613D01*
X92509528Y-74520149D01*
X92458992Y-74686745D01*
X92441928Y-74859999D01*
X92441928Y-75685001D01*
X92458992Y-75858255D01*
X92509528Y-76024851D01*
X92591595Y-76178387D01*
X92702038Y-76312962D01*
X92836613Y-76423405D01*
X92990149Y-76505472D01*
X93156745Y-76556008D01*
X93329999Y-76573072D01*
X94630001Y-76573072D01*
X94803255Y-76556008D01*
X94969851Y-76505472D01*
X95123387Y-76423405D01*
X95148001Y-76403205D01*
X95148001Y-77158231D01*
X95124180Y-77145498D01*
X95004482Y-77109188D01*
X94880000Y-77096928D01*
X94265750Y-77100000D01*
X94107000Y-77258750D01*
X94107000Y-78270500D01*
X94127000Y-78270500D01*
X94127000Y-78524500D01*
X94107000Y-78524500D01*
X94107000Y-79536250D01*
X94265750Y-79695000D01*
X94880000Y-79698072D01*
X95004482Y-79685812D01*
X95124180Y-79649502D01*
X95148001Y-79636769D01*
X95148000Y-84303000D01*
X76160394Y-84303000D01*
X76073387Y-84231595D01*
X75919851Y-84149528D01*
X75753255Y-84098992D01*
X75580001Y-84081928D01*
X74279999Y-84081928D01*
X74106745Y-84098992D01*
X73940149Y-84149528D01*
X73786613Y-84231595D01*
X73708745Y-84295500D01*
X72793072Y-84295500D01*
X72793072Y-84125000D01*
X72780812Y-84000518D01*
X72744502Y-83880820D01*
X72685537Y-83770506D01*
X72606185Y-83673815D01*
X72509494Y-83594463D01*
X72399180Y-83535498D01*
X72279482Y-83499188D01*
X72155000Y-83486928D01*
X69655000Y-83486928D01*
X69530518Y-83499188D01*
X69410820Y-83535498D01*
X69300506Y-83594463D01*
X69203815Y-83673815D01*
X69124463Y-83770506D01*
X69065498Y-83880820D01*
X69029188Y-84000518D01*
X69016928Y-84125000D01*
X61793072Y-84125000D01*
X61780812Y-84000518D01*
X61744502Y-83880820D01*
X61685537Y-83770506D01*
X61606185Y-83673815D01*
X61509494Y-83594463D01*
X61399180Y-83535498D01*
X61279482Y-83499188D01*
X61155000Y-83486928D01*
X58655000Y-83486928D01*
X58530518Y-83499188D01*
X58410820Y-83535498D01*
X58300506Y-83594463D01*
X58203815Y-83673815D01*
X58124463Y-83770506D01*
X58065498Y-83880820D01*
X58029188Y-84000518D01*
X58016928Y-84125000D01*
X56540000Y-84125000D01*
X56540000Y-82920000D01*
X73391928Y-82920000D01*
X73404188Y-83044482D01*
X73440498Y-83164180D01*
X73499463Y-83274494D01*
X73578815Y-83371185D01*
X73675506Y-83450537D01*
X73785820Y-83509502D01*
X73905518Y-83545812D01*
X74030000Y-83558072D01*
X74644250Y-83555000D01*
X74803000Y-83396250D01*
X74803000Y-82384500D01*
X75057000Y-82384500D01*
X75057000Y-83396250D01*
X75215750Y-83555000D01*
X75830000Y-83558072D01*
X75954482Y-83545812D01*
X76074180Y-83509502D01*
X76184494Y-83450537D01*
X76281185Y-83371185D01*
X76360537Y-83274494D01*
X76419502Y-83164180D01*
X76455812Y-83044482D01*
X76468072Y-82920000D01*
X76465000Y-82543250D01*
X76306250Y-82384500D01*
X75057000Y-82384500D01*
X74803000Y-82384500D01*
X73553750Y-82384500D01*
X73395000Y-82543250D01*
X73391928Y-82920000D01*
X56540000Y-82920000D01*
X56540000Y-81595000D01*
X73391928Y-81595000D01*
X73395000Y-81971750D01*
X73553750Y-82130500D01*
X74803000Y-82130500D01*
X74803000Y-81118750D01*
X75057000Y-81118750D01*
X75057000Y-82130500D01*
X76306250Y-82130500D01*
X76465000Y-81971750D01*
X76468072Y-81595000D01*
X76455812Y-81470518D01*
X76419502Y-81350820D01*
X76360537Y-81240506D01*
X76281185Y-81143815D01*
X76184494Y-81064463D01*
X76074180Y-81005498D01*
X75954482Y-80969188D01*
X75830000Y-80956928D01*
X75215750Y-80960000D01*
X75057000Y-81118750D01*
X74803000Y-81118750D01*
X74644250Y-80960000D01*
X74030000Y-80956928D01*
X73905518Y-80969188D01*
X73785820Y-81005498D01*
X73675506Y-81064463D01*
X73578815Y-81143815D01*
X73499463Y-81240506D01*
X73440498Y-81350820D01*
X73404188Y-81470518D01*
X73391928Y-81595000D01*
X56540000Y-81595000D01*
X56540000Y-79060000D01*
X92441928Y-79060000D01*
X92454188Y-79184482D01*
X92490498Y-79304180D01*
X92549463Y-79414494D01*
X92628815Y-79511185D01*
X92725506Y-79590537D01*
X92835820Y-79649502D01*
X92955518Y-79685812D01*
X93080000Y-79698072D01*
X93694250Y-79695000D01*
X93853000Y-79536250D01*
X93853000Y-78524500D01*
X92603750Y-78524500D01*
X92445000Y-78683250D01*
X92441928Y-79060000D01*
X56540000Y-79060000D01*
X56540000Y-77735000D01*
X92441928Y-77735000D01*
X92445000Y-78111750D01*
X92603750Y-78270500D01*
X93853000Y-78270500D01*
X93853000Y-77258750D01*
X93694250Y-77100000D01*
X93080000Y-77096928D01*
X92955518Y-77109188D01*
X92835820Y-77145498D01*
X92725506Y-77204463D01*
X92628815Y-77283815D01*
X92549463Y-77380506D01*
X92490498Y-77490820D01*
X92454188Y-77610518D01*
X92441928Y-77735000D01*
X56540000Y-77735000D01*
X56540000Y-72125000D01*
X58016928Y-72125000D01*
X58016928Y-74625000D01*
X58029188Y-74749482D01*
X58065498Y-74869180D01*
X58124463Y-74979494D01*
X58203815Y-75076185D01*
X58300506Y-75155537D01*
X58410820Y-75214502D01*
X58530518Y-75250812D01*
X58655000Y-75263072D01*
X61155000Y-75263072D01*
X61279482Y-75250812D01*
X61399180Y-75214502D01*
X61509494Y-75155537D01*
X61606185Y-75076185D01*
X61685537Y-74979494D01*
X61744502Y-74869180D01*
X61780812Y-74749482D01*
X61793072Y-74625000D01*
X69016928Y-74625000D01*
X69029188Y-74749482D01*
X69065498Y-74869180D01*
X69124463Y-74979494D01*
X69203815Y-75076185D01*
X69300506Y-75155537D01*
X69410820Y-75214502D01*
X69530518Y-75250812D01*
X69655000Y-75263072D01*
X70619250Y-75260000D01*
X70778000Y-75101250D01*
X70778000Y-73502000D01*
X71032000Y-73502000D01*
X71032000Y-75101250D01*
X71190750Y-75260000D01*
X72155000Y-75263072D01*
X72279482Y-75250812D01*
X72399180Y-75214502D01*
X72509494Y-75155537D01*
X72606185Y-75076185D01*
X72685537Y-74979494D01*
X72744502Y-74869180D01*
X72780812Y-74749482D01*
X72793072Y-74625000D01*
X72790000Y-73660750D01*
X72631250Y-73502000D01*
X71032000Y-73502000D01*
X70778000Y-73502000D01*
X69178750Y-73502000D01*
X69020000Y-73660750D01*
X69016928Y-74625000D01*
X61793072Y-74625000D01*
X61793072Y-74454500D01*
X62169471Y-74454500D01*
X62222500Y-74459723D01*
X62275529Y-74454500D01*
X62434119Y-74438880D01*
X62637606Y-74377153D01*
X62825140Y-74276914D01*
X62989515Y-74142015D01*
X63023327Y-74100816D01*
X63859143Y-73265000D01*
X80346928Y-73265000D01*
X80359188Y-73389482D01*
X80395498Y-73509180D01*
X80454463Y-73619494D01*
X80533815Y-73716185D01*
X80630506Y-73795537D01*
X80740820Y-73854502D01*
X80860518Y-73890812D01*
X80985000Y-73903072D01*
X81349250Y-73900000D01*
X81508000Y-73741250D01*
X81508000Y-72517000D01*
X81762000Y-72517000D01*
X81762000Y-73741250D01*
X81920750Y-73900000D01*
X82285000Y-73903072D01*
X82409482Y-73890812D01*
X82529180Y-73854502D01*
X82639494Y-73795537D01*
X82736185Y-73716185D01*
X82815537Y-73619494D01*
X82874502Y-73509180D01*
X82910812Y-73389482D01*
X82923072Y-73265000D01*
X82920000Y-72675750D01*
X82761250Y-72517000D01*
X81762000Y-72517000D01*
X81508000Y-72517000D01*
X80508750Y-72517000D01*
X80350000Y-72675750D01*
X80346928Y-73265000D01*
X63859143Y-73265000D01*
X64999143Y-72125000D01*
X69016928Y-72125000D01*
X69020000Y-73089250D01*
X69178750Y-73248000D01*
X70778000Y-73248000D01*
X70778000Y-71648750D01*
X71032000Y-71648750D01*
X71032000Y-73248000D01*
X72631250Y-73248000D01*
X72790000Y-73089250D01*
X72793072Y-72125000D01*
X72780812Y-72000518D01*
X72744502Y-71880820D01*
X72685537Y-71770506D01*
X72606185Y-71673815D01*
X72509494Y-71594463D01*
X72399180Y-71535498D01*
X72279482Y-71499188D01*
X72155000Y-71486928D01*
X71190750Y-71490000D01*
X71032000Y-71648750D01*
X70778000Y-71648750D01*
X70619250Y-71490000D01*
X69655000Y-71486928D01*
X69530518Y-71499188D01*
X69410820Y-71535498D01*
X69300506Y-71594463D01*
X69203815Y-71673815D01*
X69124463Y-71770506D01*
X69065498Y-71880820D01*
X69029188Y-72000518D01*
X69016928Y-72125000D01*
X64999143Y-72125000D01*
X65736072Y-71388072D01*
X66160001Y-71388072D01*
X66333255Y-71371008D01*
X66499851Y-71320472D01*
X66653387Y-71238405D01*
X66787962Y-71127962D01*
X66898405Y-70993387D01*
X66980472Y-70839851D01*
X67007727Y-70750000D01*
X67571928Y-70750000D01*
X67584188Y-70874482D01*
X67620498Y-70994180D01*
X67679463Y-71104494D01*
X67758815Y-71201185D01*
X67855506Y-71280537D01*
X67965820Y-71339502D01*
X68085518Y-71375812D01*
X68210000Y-71388072D01*
X68586750Y-71385000D01*
X68745500Y-71226250D01*
X68745500Y-69977000D01*
X68999500Y-69977000D01*
X68999500Y-71226250D01*
X69158250Y-71385000D01*
X69535000Y-71388072D01*
X69659482Y-71375812D01*
X69779180Y-71339502D01*
X69889494Y-71280537D01*
X69986185Y-71201185D01*
X70065537Y-71104494D01*
X70124502Y-70994180D01*
X70160812Y-70874482D01*
X70173072Y-70750000D01*
X70170000Y-70135750D01*
X70011250Y-69977000D01*
X68999500Y-69977000D01*
X68745500Y-69977000D01*
X67733750Y-69977000D01*
X67575000Y-70135750D01*
X67571928Y-70750000D01*
X67007727Y-70750000D01*
X67031008Y-70673255D01*
X67048072Y-70500001D01*
X67048072Y-69199999D01*
X67038978Y-69107664D01*
X67196642Y-68950000D01*
X67571928Y-68950000D01*
X67575000Y-69564250D01*
X67733750Y-69723000D01*
X68745500Y-69723000D01*
X68745500Y-68473750D01*
X68999500Y-68473750D01*
X68999500Y-69723000D01*
X70011250Y-69723000D01*
X70170000Y-69564250D01*
X70173072Y-68950000D01*
X70160812Y-68825518D01*
X70124502Y-68705820D01*
X70065537Y-68595506D01*
X69986185Y-68498815D01*
X69889494Y-68419463D01*
X69779180Y-68360498D01*
X69659482Y-68324188D01*
X69535000Y-68311928D01*
X69158250Y-68315000D01*
X68999500Y-68473750D01*
X68745500Y-68473750D01*
X68586750Y-68315000D01*
X68210000Y-68311928D01*
X68085518Y-68324188D01*
X67965820Y-68360498D01*
X67855506Y-68419463D01*
X67758815Y-68498815D01*
X67679463Y-68595506D01*
X67620498Y-68705820D01*
X67584188Y-68825518D01*
X67571928Y-68950000D01*
X67196642Y-68950000D01*
X69027143Y-67119500D01*
X73811928Y-67119500D01*
X73811928Y-67790000D01*
X73824188Y-67914482D01*
X73860498Y-68034180D01*
X73919463Y-68144494D01*
X73998815Y-68241185D01*
X74095506Y-68320537D01*
X74205820Y-68379502D01*
X74325518Y-68415812D01*
X74450000Y-68428072D01*
X77950000Y-68428072D01*
X78074482Y-68415812D01*
X78194180Y-68379502D01*
X78304494Y-68320537D01*
X78401185Y-68241185D01*
X78480537Y-68144494D01*
X78539502Y-68034180D01*
X78575812Y-67914482D01*
X78588072Y-67790000D01*
X78588072Y-64290000D01*
X78575812Y-64165518D01*
X78539502Y-64045820D01*
X78480537Y-63935506D01*
X78401185Y-63838815D01*
X78304494Y-63759463D01*
X78194180Y-63700498D01*
X78074482Y-63664188D01*
X77950000Y-63651928D01*
X74450000Y-63651928D01*
X74325518Y-63664188D01*
X74205820Y-63700498D01*
X74095506Y-63759463D01*
X73998815Y-63838815D01*
X73919463Y-63935506D01*
X73878506Y-64012131D01*
X73888072Y-63915000D01*
X73888072Y-63450000D01*
X100511928Y-63450000D01*
X100511928Y-66250000D01*
X100524188Y-66374482D01*
X100560498Y-66494180D01*
X100619463Y-66604494D01*
X100698815Y-66701185D01*
X100774501Y-66763298D01*
X100774501Y-67465991D01*
X100755905Y-67493822D01*
X100684104Y-67667166D01*
X100647500Y-67851187D01*
X100647500Y-68038813D01*
X100684104Y-68222834D01*
X100755905Y-68396178D01*
X100860145Y-68552184D01*
X100992816Y-68684855D01*
X101050901Y-68723666D01*
X101044961Y-68729607D01*
X101013460Y-68755459D01*
X100971863Y-68806146D01*
X100910301Y-68881158D01*
X100833647Y-69024567D01*
X100786445Y-69180174D01*
X100770506Y-69342000D01*
X100774501Y-69382560D01*
X100774500Y-72936702D01*
X100698815Y-72998815D01*
X100619463Y-73095506D01*
X100560498Y-73205820D01*
X100524188Y-73325518D01*
X100511928Y-73450000D01*
X100511928Y-76250000D01*
X100524188Y-76374482D01*
X100560498Y-76494180D01*
X100619463Y-76604494D01*
X100698815Y-76701185D01*
X100795506Y-76780537D01*
X100905820Y-76839502D01*
X101025518Y-76875812D01*
X101150000Y-76888072D01*
X102050000Y-76888072D01*
X102174482Y-76875812D01*
X102294180Y-76839502D01*
X102320000Y-76825701D01*
X102345820Y-76839502D01*
X102465518Y-76875812D01*
X102590000Y-76888072D01*
X103490000Y-76888072D01*
X103614482Y-76875812D01*
X103734180Y-76839502D01*
X103760000Y-76825701D01*
X103785820Y-76839502D01*
X103905518Y-76875812D01*
X104030000Y-76888072D01*
X104930000Y-76888072D01*
X105054482Y-76875812D01*
X105174180Y-76839502D01*
X105200000Y-76825701D01*
X105225820Y-76839502D01*
X105345518Y-76875812D01*
X105470000Y-76888072D01*
X106370000Y-76888072D01*
X106494482Y-76875812D01*
X106614180Y-76839502D01*
X106640000Y-76825701D01*
X106665820Y-76839502D01*
X106785518Y-76875812D01*
X106910000Y-76888072D01*
X107810000Y-76888072D01*
X107934482Y-76875812D01*
X108054180Y-76839502D01*
X108164494Y-76780537D01*
X108261185Y-76701185D01*
X108290000Y-76666074D01*
X108318815Y-76701185D01*
X108415506Y-76780537D01*
X108525820Y-76839502D01*
X108645518Y-76875812D01*
X108770000Y-76888072D01*
X109670000Y-76888072D01*
X109794482Y-76875812D01*
X109914180Y-76839502D01*
X109940000Y-76825701D01*
X109965820Y-76839502D01*
X110085518Y-76875812D01*
X110210000Y-76888072D01*
X111110000Y-76888072D01*
X111234482Y-76875812D01*
X111354180Y-76839502D01*
X111380000Y-76825701D01*
X111405820Y-76839502D01*
X111525518Y-76875812D01*
X111650000Y-76888072D01*
X112550000Y-76888072D01*
X112674482Y-76875812D01*
X112794180Y-76839502D01*
X112820000Y-76825701D01*
X112845820Y-76839502D01*
X112965518Y-76875812D01*
X113090000Y-76888072D01*
X113990000Y-76888072D01*
X114114482Y-76875812D01*
X114234180Y-76839502D01*
X114260000Y-76825701D01*
X114285820Y-76839502D01*
X114405518Y-76875812D01*
X114530000Y-76888072D01*
X115430000Y-76888072D01*
X115554482Y-76875812D01*
X115674180Y-76839502D01*
X115784494Y-76780537D01*
X115881185Y-76701185D01*
X115910000Y-76666074D01*
X115938815Y-76701185D01*
X116035506Y-76780537D01*
X116145820Y-76839502D01*
X116265518Y-76875812D01*
X116390000Y-76888072D01*
X117290000Y-76888072D01*
X117414482Y-76875812D01*
X117534180Y-76839502D01*
X117560000Y-76825701D01*
X117585820Y-76839502D01*
X117705518Y-76875812D01*
X117830000Y-76888072D01*
X118730000Y-76888072D01*
X118854482Y-76875812D01*
X118974180Y-76839502D01*
X119000000Y-76825701D01*
X119025820Y-76839502D01*
X119145518Y-76875812D01*
X119270000Y-76888072D01*
X120170000Y-76888072D01*
X120294482Y-76875812D01*
X120414180Y-76839502D01*
X120440000Y-76825701D01*
X120465820Y-76839502D01*
X120585518Y-76875812D01*
X120710000Y-76888072D01*
X121610000Y-76888072D01*
X121734482Y-76875812D01*
X121854180Y-76839502D01*
X121880000Y-76825701D01*
X121905820Y-76839502D01*
X122025518Y-76875812D01*
X122150000Y-76888072D01*
X123050000Y-76888072D01*
X123174482Y-76875812D01*
X123294180Y-76839502D01*
X123404494Y-76780537D01*
X123501185Y-76701185D01*
X123530000Y-76666074D01*
X123558815Y-76701185D01*
X123655506Y-76780537D01*
X123765820Y-76839502D01*
X123885518Y-76875812D01*
X124010000Y-76888072D01*
X124910000Y-76888072D01*
X125034482Y-76875812D01*
X125154180Y-76839502D01*
X125180000Y-76825701D01*
X125205820Y-76839502D01*
X125325518Y-76875812D01*
X125450000Y-76888072D01*
X126350000Y-76888072D01*
X126474482Y-76875812D01*
X126594180Y-76839502D01*
X126620000Y-76825701D01*
X126645820Y-76839502D01*
X126765518Y-76875812D01*
X126890000Y-76888072D01*
X127790000Y-76888072D01*
X127914482Y-76875812D01*
X128034180Y-76839502D01*
X128060000Y-76825701D01*
X128085820Y-76839502D01*
X128205518Y-76875812D01*
X128330000Y-76888072D01*
X129230000Y-76888072D01*
X129354482Y-76875812D01*
X129474180Y-76839502D01*
X129500000Y-76825701D01*
X129525820Y-76839502D01*
X129645518Y-76875812D01*
X129770000Y-76888072D01*
X130670000Y-76888072D01*
X130794482Y-76875812D01*
X130914180Y-76839502D01*
X131024494Y-76780537D01*
X131121185Y-76701185D01*
X131200537Y-76604494D01*
X131259502Y-76494180D01*
X131295812Y-76374482D01*
X131308072Y-76250000D01*
X131308072Y-73450000D01*
X131295812Y-73325518D01*
X131259502Y-73205820D01*
X131200537Y-73095506D01*
X131121185Y-72998815D01*
X131045500Y-72936702D01*
X131045500Y-72356729D01*
X131146095Y-72206178D01*
X131217896Y-72032834D01*
X131254500Y-71848813D01*
X131254500Y-71661187D01*
X131217896Y-71477166D01*
X131146095Y-71303822D01*
X131041855Y-71147816D01*
X130909184Y-71015145D01*
X130753178Y-70910905D01*
X130579834Y-70839104D01*
X130436143Y-70810522D01*
X130454999Y-70764999D01*
X130626178Y-70694095D01*
X130782184Y-70589855D01*
X130914855Y-70457184D01*
X131019095Y-70301178D01*
X131090896Y-70127834D01*
X131127500Y-69943813D01*
X131127500Y-69756187D01*
X131090896Y-69572166D01*
X131045500Y-69462570D01*
X131045500Y-66763298D01*
X131121185Y-66701185D01*
X131200537Y-66604494D01*
X131259502Y-66494180D01*
X131295812Y-66374482D01*
X131308072Y-66250000D01*
X131308072Y-63450000D01*
X131295812Y-63325518D01*
X131281966Y-63279872D01*
X137465000Y-63279872D01*
X137465000Y-63720128D01*
X137550890Y-64151925D01*
X137719369Y-64558669D01*
X137963962Y-64924729D01*
X138275271Y-65236038D01*
X138641331Y-65480631D01*
X139048075Y-65649110D01*
X139479872Y-65735000D01*
X139920128Y-65735000D01*
X140351925Y-65649110D01*
X140758669Y-65480631D01*
X141124729Y-65236038D01*
X141436038Y-64924729D01*
X141680631Y-64558669D01*
X141849110Y-64151925D01*
X141935000Y-63720128D01*
X141935000Y-63279872D01*
X141849110Y-62848075D01*
X141680631Y-62441331D01*
X141436038Y-62075271D01*
X141124729Y-61763962D01*
X140758669Y-61519369D01*
X140351925Y-61350890D01*
X139920128Y-61265000D01*
X139479872Y-61265000D01*
X139048075Y-61350890D01*
X138641331Y-61519369D01*
X138275271Y-61763962D01*
X137963962Y-62075271D01*
X137719369Y-62441331D01*
X137550890Y-62848075D01*
X137465000Y-63279872D01*
X131281966Y-63279872D01*
X131259502Y-63205820D01*
X131200537Y-63095506D01*
X131121185Y-62998815D01*
X131024494Y-62919463D01*
X130914180Y-62860498D01*
X130794482Y-62824188D01*
X130670000Y-62811928D01*
X129770000Y-62811928D01*
X129645518Y-62824188D01*
X129525820Y-62860498D01*
X129500000Y-62874299D01*
X129474180Y-62860498D01*
X129354482Y-62824188D01*
X129230000Y-62811928D01*
X128330000Y-62811928D01*
X128205518Y-62824188D01*
X128085820Y-62860498D01*
X128060000Y-62874299D01*
X128034180Y-62860498D01*
X127914482Y-62824188D01*
X127790000Y-62811928D01*
X126890000Y-62811928D01*
X126765518Y-62824188D01*
X126645820Y-62860498D01*
X126620000Y-62874299D01*
X126594180Y-62860498D01*
X126474482Y-62824188D01*
X126350000Y-62811928D01*
X125450000Y-62811928D01*
X125325518Y-62824188D01*
X125205820Y-62860498D01*
X125180000Y-62874299D01*
X125154180Y-62860498D01*
X125034482Y-62824188D01*
X124910000Y-62811928D01*
X124010000Y-62811928D01*
X123885518Y-62824188D01*
X123765820Y-62860498D01*
X123655506Y-62919463D01*
X123558815Y-62998815D01*
X123530000Y-63033926D01*
X123501185Y-62998815D01*
X123404494Y-62919463D01*
X123294180Y-62860498D01*
X123174482Y-62824188D01*
X123050000Y-62811928D01*
X122150000Y-62811928D01*
X122025518Y-62824188D01*
X121905820Y-62860498D01*
X121880000Y-62874299D01*
X121854180Y-62860498D01*
X121734482Y-62824188D01*
X121610000Y-62811928D01*
X120710000Y-62811928D01*
X120585518Y-62824188D01*
X120465820Y-62860498D01*
X120440000Y-62874299D01*
X120414180Y-62860498D01*
X120294482Y-62824188D01*
X120170000Y-62811928D01*
X119270000Y-62811928D01*
X119145518Y-62824188D01*
X119025820Y-62860498D01*
X119000000Y-62874299D01*
X118974180Y-62860498D01*
X118854482Y-62824188D01*
X118730000Y-62811928D01*
X117830000Y-62811928D01*
X117705518Y-62824188D01*
X117585820Y-62860498D01*
X117560000Y-62874299D01*
X117534180Y-62860498D01*
X117414482Y-62824188D01*
X117290000Y-62811928D01*
X116390000Y-62811928D01*
X116265518Y-62824188D01*
X116145820Y-62860498D01*
X116035506Y-62919463D01*
X115938815Y-62998815D01*
X115910000Y-63033926D01*
X115881185Y-62998815D01*
X115784494Y-62919463D01*
X115674180Y-62860498D01*
X115554482Y-62824188D01*
X115430000Y-62811928D01*
X114530000Y-62811928D01*
X114405518Y-62824188D01*
X114285820Y-62860498D01*
X114260000Y-62874299D01*
X114234180Y-62860498D01*
X114114482Y-62824188D01*
X113990000Y-62811928D01*
X113090000Y-62811928D01*
X112965518Y-62824188D01*
X112845820Y-62860498D01*
X112820000Y-62874299D01*
X112794180Y-62860498D01*
X112674482Y-62824188D01*
X112550000Y-62811928D01*
X111650000Y-62811928D01*
X111525518Y-62824188D01*
X111405820Y-62860498D01*
X111380000Y-62874299D01*
X111354180Y-62860498D01*
X111234482Y-62824188D01*
X111110000Y-62811928D01*
X110210000Y-62811928D01*
X110085518Y-62824188D01*
X109965820Y-62860498D01*
X109940000Y-62874299D01*
X109914180Y-62860498D01*
X109794482Y-62824188D01*
X109670000Y-62811928D01*
X108770000Y-62811928D01*
X108645518Y-62824188D01*
X108525820Y-62860498D01*
X108415506Y-62919463D01*
X108318815Y-62998815D01*
X108290000Y-63033926D01*
X108261185Y-62998815D01*
X108164494Y-62919463D01*
X108054180Y-62860498D01*
X107934482Y-62824188D01*
X107810000Y-62811928D01*
X106910000Y-62811928D01*
X106785518Y-62824188D01*
X106665820Y-62860498D01*
X106640000Y-62874299D01*
X106614180Y-62860498D01*
X106494482Y-62824188D01*
X106370000Y-62811928D01*
X105470000Y-62811928D01*
X105345518Y-62824188D01*
X105225820Y-62860498D01*
X105200000Y-62874299D01*
X105174180Y-62860498D01*
X105054482Y-62824188D01*
X104930000Y-62811928D01*
X104030000Y-62811928D01*
X103905518Y-62824188D01*
X103785820Y-62860498D01*
X103760000Y-62874299D01*
X103734180Y-62860498D01*
X103614482Y-62824188D01*
X103490000Y-62811928D01*
X102590000Y-62811928D01*
X102465518Y-62824188D01*
X102345820Y-62860498D01*
X102320000Y-62874299D01*
X102294180Y-62860498D01*
X102174482Y-62824188D01*
X102050000Y-62811928D01*
X101150000Y-62811928D01*
X101025518Y-62824188D01*
X100905820Y-62860498D01*
X100795506Y-62919463D01*
X100698815Y-62998815D01*
X100619463Y-63095506D01*
X100560498Y-63205820D01*
X100524188Y-63325518D01*
X100511928Y-63450000D01*
X73888072Y-63450000D01*
X73888072Y-62165000D01*
X73858999Y-61869814D01*
X73772896Y-61585972D01*
X73748324Y-61540000D01*
X73811928Y-61540000D01*
X73824188Y-61664482D01*
X73860498Y-61784180D01*
X73919463Y-61894494D01*
X73998815Y-61991185D01*
X74095506Y-62070537D01*
X74205820Y-62129502D01*
X74325518Y-62165812D01*
X74450000Y-62178072D01*
X75914250Y-62175000D01*
X76073000Y-62016250D01*
X76073000Y-60167000D01*
X76327000Y-60167000D01*
X76327000Y-62016250D01*
X76485750Y-62175000D01*
X77950000Y-62178072D01*
X78074482Y-62165812D01*
X78194180Y-62129502D01*
X78304494Y-62070537D01*
X78401185Y-61991185D01*
X78480537Y-61894494D01*
X78539502Y-61784180D01*
X78575812Y-61664482D01*
X78588072Y-61540000D01*
X78585000Y-60325750D01*
X78426250Y-60167000D01*
X76327000Y-60167000D01*
X76073000Y-60167000D01*
X73973750Y-60167000D01*
X73815000Y-60325750D01*
X73811928Y-61540000D01*
X73748324Y-61540000D01*
X73633073Y-61324382D01*
X73444903Y-61095097D01*
X73215618Y-60906927D01*
X72954028Y-60767104D01*
X72670186Y-60681001D01*
X72375000Y-60651928D01*
X70625000Y-60651928D01*
X70329814Y-60681001D01*
X70045972Y-60767104D01*
X69784382Y-60906927D01*
X69555097Y-61095097D01*
X69366927Y-61324382D01*
X69227104Y-61585972D01*
X69141001Y-61869814D01*
X69111928Y-62165000D01*
X69111928Y-63915000D01*
X69141001Y-64210186D01*
X69227104Y-64494028D01*
X69366927Y-64755618D01*
X69535070Y-64960500D01*
X68633029Y-64960500D01*
X68580000Y-64955277D01*
X68526971Y-64960500D01*
X68368381Y-64976120D01*
X68164894Y-65037847D01*
X67977360Y-65138086D01*
X67812985Y-65272985D01*
X67779178Y-65314179D01*
X65021685Y-68071673D01*
X64980485Y-68105485D01*
X64845586Y-68269860D01*
X64745347Y-68457395D01*
X64711741Y-68568178D01*
X64707038Y-68572038D01*
X64596595Y-68706613D01*
X64514528Y-68860149D01*
X64463992Y-69026745D01*
X64446928Y-69199999D01*
X64446928Y-69623928D01*
X61793072Y-72277786D01*
X61793072Y-72125000D01*
X61780812Y-72000518D01*
X61744502Y-71880820D01*
X61685537Y-71770506D01*
X61606185Y-71673815D01*
X61509494Y-71594463D01*
X61399180Y-71535498D01*
X61279482Y-71499188D01*
X61155000Y-71486928D01*
X58655000Y-71486928D01*
X58530518Y-71499188D01*
X58410820Y-71535498D01*
X58300506Y-71594463D01*
X58203815Y-71673815D01*
X58124463Y-71770506D01*
X58065498Y-71880820D01*
X58029188Y-72000518D01*
X58016928Y-72125000D01*
X56540000Y-72125000D01*
X56540000Y-63523920D01*
X56557707Y-63279872D01*
X61265000Y-63279872D01*
X61265000Y-63720128D01*
X61350890Y-64151925D01*
X61519369Y-64558669D01*
X61763962Y-64924729D01*
X62075271Y-65236038D01*
X62441331Y-65480631D01*
X62848075Y-65649110D01*
X63279872Y-65735000D01*
X63720128Y-65735000D01*
X64151925Y-65649110D01*
X64558669Y-65480631D01*
X64924729Y-65236038D01*
X65236038Y-64924729D01*
X65480631Y-64558669D01*
X65649110Y-64151925D01*
X65735000Y-63720128D01*
X65735000Y-63279872D01*
X65649110Y-62848075D01*
X65480631Y-62441331D01*
X65236038Y-62075271D01*
X64924729Y-61763962D01*
X64558669Y-61519369D01*
X64151925Y-61350890D01*
X63720128Y-61265000D01*
X63279872Y-61265000D01*
X62848075Y-61350890D01*
X62441331Y-61519369D01*
X62075271Y-61763962D01*
X61763962Y-62075271D01*
X61519369Y-62441331D01*
X61350890Y-62848075D01*
X61265000Y-63279872D01*
X56557707Y-63279872D01*
X56614617Y-62495530D01*
X56831739Y-61512102D01*
X57188546Y-60570325D01*
X57677575Y-59689905D01*
X58288569Y-58889313D01*
X58645898Y-58540000D01*
X73811928Y-58540000D01*
X73815000Y-59754250D01*
X73973750Y-59913000D01*
X76073000Y-59913000D01*
X76073000Y-58063750D01*
X76327000Y-58063750D01*
X76327000Y-59913000D01*
X78426250Y-59913000D01*
X78585000Y-59754250D01*
X78588072Y-58540000D01*
X78575812Y-58415518D01*
X78539502Y-58295820D01*
X78480537Y-58185506D01*
X78401185Y-58088815D01*
X78304494Y-58009463D01*
X78194180Y-57950498D01*
X78074482Y-57914188D01*
X77950000Y-57901928D01*
X76485750Y-57905000D01*
X76327000Y-58063750D01*
X76073000Y-58063750D01*
X75914250Y-57905000D01*
X74450000Y-57901928D01*
X74325518Y-57914188D01*
X74205820Y-57950498D01*
X74095506Y-58009463D01*
X73998815Y-58088815D01*
X73919463Y-58185506D01*
X73860498Y-58295820D01*
X73824188Y-58415518D01*
X73811928Y-58540000D01*
X58645898Y-58540000D01*
X59008732Y-58185306D01*
X59822987Y-57592630D01*
X60714269Y-57123704D01*
X61663900Y-56788353D01*
X62655692Y-56592873D01*
X63520164Y-56540000D01*
X139676080Y-56540000D01*
X140704470Y-56614617D01*
%TA.AperFunction,Conductor*%
D26*
G36*
X140704470Y-56614617D02*
G01*
X141687898Y-56831739D01*
X142629675Y-57188546D01*
X143510095Y-57677575D01*
X144310687Y-58288569D01*
X145014694Y-59008732D01*
X145607370Y-59822987D01*
X146076296Y-60714269D01*
X146411647Y-61663900D01*
X146607127Y-62655692D01*
X146660000Y-63520164D01*
X146660001Y-114276080D01*
X146585382Y-115304470D01*
X146368262Y-116287896D01*
X146011454Y-117229675D01*
X145522424Y-118110095D01*
X144911435Y-118910684D01*
X144191268Y-119614694D01*
X143377013Y-120207370D01*
X142485731Y-120676296D01*
X141536099Y-121011647D01*
X140544309Y-121207127D01*
X139679835Y-121260000D01*
X63523906Y-121260000D01*
X62495530Y-121185382D01*
X61512104Y-120968262D01*
X60570325Y-120611454D01*
X59689905Y-120122424D01*
X58889316Y-119511435D01*
X58185306Y-118791268D01*
X57592630Y-117977013D01*
X57123704Y-117085731D01*
X56788353Y-116136099D01*
X56592873Y-115144309D01*
X56540000Y-114279835D01*
X56540000Y-114079872D01*
X61265000Y-114079872D01*
X61265000Y-114520128D01*
X61350890Y-114951925D01*
X61519369Y-115358669D01*
X61763962Y-115724729D01*
X62075271Y-116036038D01*
X62441331Y-116280631D01*
X62848075Y-116449110D01*
X63279872Y-116535000D01*
X63720128Y-116535000D01*
X64151925Y-116449110D01*
X64558669Y-116280631D01*
X64924729Y-116036038D01*
X65236038Y-115724729D01*
X65480631Y-115358669D01*
X65649110Y-114951925D01*
X65681524Y-114788967D01*
X116555000Y-114788967D01*
X116555000Y-115111033D01*
X116617832Y-115426912D01*
X116741082Y-115724463D01*
X116920013Y-115992252D01*
X117147748Y-116219987D01*
X117415537Y-116398918D01*
X117713088Y-116522168D01*
X118028967Y-116585000D01*
X118351033Y-116585000D01*
X118666912Y-116522168D01*
X118964463Y-116398918D01*
X119232252Y-116219987D01*
X119459987Y-115992252D01*
X119638918Y-115724463D01*
X119762168Y-115426912D01*
X119825000Y-115111033D01*
X119825000Y-114788967D01*
X121555000Y-114788967D01*
X121555000Y-115111033D01*
X121617832Y-115426912D01*
X121741082Y-115724463D01*
X121920013Y-115992252D01*
X122147748Y-116219987D01*
X122415537Y-116398918D01*
X122713088Y-116522168D01*
X123028967Y-116585000D01*
X123351033Y-116585000D01*
X123666912Y-116522168D01*
X123964463Y-116398918D01*
X124232252Y-116219987D01*
X124459987Y-115992252D01*
X124638918Y-115724463D01*
X124762168Y-115426912D01*
X124825000Y-115111033D01*
X124825000Y-114788967D01*
X124762168Y-114473088D01*
X124638918Y-114175537D01*
X124574997Y-114079872D01*
X137465000Y-114079872D01*
X137465000Y-114520128D01*
X137550890Y-114951925D01*
X137719369Y-115358669D01*
X137963962Y-115724729D01*
X138275271Y-116036038D01*
X138641331Y-116280631D01*
X139048075Y-116449110D01*
X139479872Y-116535000D01*
X139920128Y-116535000D01*
X140351925Y-116449110D01*
X140758669Y-116280631D01*
X141124729Y-116036038D01*
X141436038Y-115724729D01*
X141680631Y-115358669D01*
X141849110Y-114951925D01*
X141935000Y-114520128D01*
X141935000Y-114079872D01*
X141849110Y-113648075D01*
X141680631Y-113241331D01*
X141436038Y-112875271D01*
X141124729Y-112563962D01*
X140758669Y-112319369D01*
X140351925Y-112150890D01*
X139920128Y-112065000D01*
X139479872Y-112065000D01*
X139048075Y-112150890D01*
X138641331Y-112319369D01*
X138275271Y-112563962D01*
X137963962Y-112875271D01*
X137719369Y-113241331D01*
X137550890Y-113648075D01*
X137465000Y-114079872D01*
X124574997Y-114079872D01*
X124459987Y-113907748D01*
X124232252Y-113680013D01*
X123964463Y-113501082D01*
X123666912Y-113377832D01*
X123351033Y-113315000D01*
X123028967Y-113315000D01*
X122713088Y-113377832D01*
X122415537Y-113501082D01*
X122147748Y-113680013D01*
X121920013Y-113907748D01*
X121741082Y-114175537D01*
X121617832Y-114473088D01*
X121555000Y-114788967D01*
X119825000Y-114788967D01*
X119762168Y-114473088D01*
X119638918Y-114175537D01*
X119459987Y-113907748D01*
X119232252Y-113680013D01*
X118964463Y-113501082D01*
X118666912Y-113377832D01*
X118351033Y-113315000D01*
X118028967Y-113315000D01*
X117713088Y-113377832D01*
X117415537Y-113501082D01*
X117147748Y-113680013D01*
X116920013Y-113907748D01*
X116741082Y-114175537D01*
X116617832Y-114473088D01*
X116555000Y-114788967D01*
X65681524Y-114788967D01*
X65735000Y-114520128D01*
X65735000Y-114079872D01*
X65649110Y-113648075D01*
X65480631Y-113241331D01*
X65236038Y-112875271D01*
X64924729Y-112563962D01*
X64558669Y-112319369D01*
X64151925Y-112150890D01*
X63720128Y-112065000D01*
X63279872Y-112065000D01*
X62848075Y-112150890D01*
X62441331Y-112319369D01*
X62075271Y-112563962D01*
X61763962Y-112875271D01*
X61519369Y-113241331D01*
X61350890Y-113648075D01*
X61265000Y-114079872D01*
X56540000Y-114079872D01*
X56540000Y-106350000D01*
X113451928Y-106350000D01*
X113451928Y-109550000D01*
X113464188Y-109674482D01*
X113500498Y-109794180D01*
X113559463Y-109904494D01*
X113638815Y-110001185D01*
X113735506Y-110080537D01*
X113845820Y-110139502D01*
X113965518Y-110175812D01*
X114090000Y-110188072D01*
X116090000Y-110188072D01*
X116214482Y-110175812D01*
X116334180Y-110139502D01*
X116444494Y-110080537D01*
X116541185Y-110001185D01*
X116620537Y-109904494D01*
X116679502Y-109794180D01*
X116715812Y-109674482D01*
X116728072Y-109550000D01*
X116728072Y-106350000D01*
X124651928Y-106350000D01*
X124651928Y-109550000D01*
X124664188Y-109674482D01*
X124700498Y-109794180D01*
X124759463Y-109904494D01*
X124838815Y-110001185D01*
X124935506Y-110080537D01*
X125045820Y-110139502D01*
X125165518Y-110175812D01*
X125290000Y-110188072D01*
X127290000Y-110188072D01*
X127414482Y-110175812D01*
X127534180Y-110139502D01*
X127644494Y-110080537D01*
X127741185Y-110001185D01*
X127820537Y-109904494D01*
X127879502Y-109794180D01*
X127915812Y-109674482D01*
X127928072Y-109550000D01*
X127928072Y-106350000D01*
X127915812Y-106225518D01*
X127879502Y-106105820D01*
X127820537Y-105995506D01*
X127741185Y-105898815D01*
X127644494Y-105819463D01*
X127534180Y-105760498D01*
X127414482Y-105724188D01*
X127290000Y-105711928D01*
X125290000Y-105711928D01*
X125165518Y-105724188D01*
X125045820Y-105760498D01*
X124935506Y-105819463D01*
X124838815Y-105898815D01*
X124759463Y-105995506D01*
X124700498Y-106105820D01*
X124664188Y-106225518D01*
X124651928Y-106350000D01*
X116728072Y-106350000D01*
X116715812Y-106225518D01*
X116679502Y-106105820D01*
X116620537Y-105995506D01*
X116541185Y-105898815D01*
X116444494Y-105819463D01*
X116334180Y-105760498D01*
X116214482Y-105724188D01*
X116090000Y-105711928D01*
X114090000Y-105711928D01*
X113965518Y-105724188D01*
X113845820Y-105760498D01*
X113735506Y-105819463D01*
X113638815Y-105898815D01*
X113559463Y-105995506D01*
X113500498Y-106105820D01*
X113464188Y-106225518D01*
X113451928Y-106350000D01*
X56540000Y-106350000D01*
X56540000Y-100815000D01*
X80051928Y-100815000D01*
X80051928Y-101115000D01*
X80067071Y-101268745D01*
X80111916Y-101416582D01*
X80184742Y-101552829D01*
X80223454Y-101600000D01*
X80184742Y-101647171D01*
X80111916Y-101783418D01*
X80067071Y-101931255D01*
X80051928Y-102085000D01*
X80051928Y-102385000D01*
X80067071Y-102538745D01*
X80111916Y-102686582D01*
X80184742Y-102822829D01*
X80223454Y-102870000D01*
X80184742Y-102917171D01*
X80111916Y-103053418D01*
X80067071Y-103201255D01*
X80051928Y-103355000D01*
X80051928Y-103655000D01*
X80067071Y-103808745D01*
X80111916Y-103956582D01*
X80184742Y-104092829D01*
X80223454Y-104140000D01*
X80184742Y-104187171D01*
X80111916Y-104323418D01*
X80067071Y-104471255D01*
X80051928Y-104625000D01*
X80051928Y-104925000D01*
X80067071Y-105078745D01*
X80111916Y-105226582D01*
X80184742Y-105362829D01*
X80282749Y-105482251D01*
X80402171Y-105580258D01*
X80538418Y-105653084D01*
X80686255Y-105697929D01*
X80840000Y-105713072D01*
X82140000Y-105713072D01*
X82293745Y-105697929D01*
X82441582Y-105653084D01*
X82577829Y-105580258D01*
X82697251Y-105482251D01*
X82795258Y-105362829D01*
X82868084Y-105226582D01*
X82912929Y-105078745D01*
X82928072Y-104925000D01*
X82928072Y-104625000D01*
X82912929Y-104471255D01*
X82868084Y-104323418D01*
X82795258Y-104187171D01*
X82756546Y-104140000D01*
X82795258Y-104092829D01*
X82868084Y-103956582D01*
X82912929Y-103808745D01*
X82928072Y-103655000D01*
X82928072Y-103355000D01*
X82912929Y-103201255D01*
X82868084Y-103053418D01*
X82795258Y-102917171D01*
X82756546Y-102870000D01*
X82795258Y-102822829D01*
X82868084Y-102686582D01*
X82912929Y-102538745D01*
X82928072Y-102385000D01*
X82928072Y-102085000D01*
X82912929Y-101931255D01*
X82868084Y-101783418D01*
X82795258Y-101647171D01*
X82756546Y-101600000D01*
X82795258Y-101552829D01*
X82868084Y-101416582D01*
X82912929Y-101268745D01*
X82928072Y-101115000D01*
X82928072Y-100815000D01*
X87251928Y-100815000D01*
X87251928Y-101115000D01*
X87267071Y-101268745D01*
X87311916Y-101416582D01*
X87384742Y-101552829D01*
X87423454Y-101600000D01*
X87384742Y-101647171D01*
X87311916Y-101783418D01*
X87267071Y-101931255D01*
X87251928Y-102085000D01*
X87251928Y-102385000D01*
X87267071Y-102538745D01*
X87311916Y-102686582D01*
X87384742Y-102822829D01*
X87423454Y-102870000D01*
X87384742Y-102917171D01*
X87311916Y-103053418D01*
X87267071Y-103201255D01*
X87251928Y-103355000D01*
X87251928Y-103655000D01*
X87267071Y-103808745D01*
X87311916Y-103956582D01*
X87384742Y-104092829D01*
X87423454Y-104140000D01*
X87384742Y-104187171D01*
X87311916Y-104323418D01*
X87267071Y-104471255D01*
X87251928Y-104625000D01*
X87251928Y-104925000D01*
X87267071Y-105078745D01*
X87311916Y-105226582D01*
X87384742Y-105362829D01*
X87482749Y-105482251D01*
X87602171Y-105580258D01*
X87738418Y-105653084D01*
X87886255Y-105697929D01*
X88040000Y-105713072D01*
X89340000Y-105713072D01*
X89493745Y-105697929D01*
X89641582Y-105653084D01*
X89777829Y-105580258D01*
X89897251Y-105482251D01*
X89995258Y-105362829D01*
X90068084Y-105226582D01*
X90112929Y-105078745D01*
X90128072Y-104925000D01*
X90128072Y-104625000D01*
X90112929Y-104471255D01*
X90068084Y-104323418D01*
X89995258Y-104187171D01*
X89956546Y-104140000D01*
X89995258Y-104092829D01*
X90068084Y-103956582D01*
X90112929Y-103808745D01*
X90128072Y-103655000D01*
X90128072Y-103355000D01*
X90112929Y-103201255D01*
X90068084Y-103053418D01*
X89995258Y-102917171D01*
X89956546Y-102870000D01*
X89995258Y-102822829D01*
X90068084Y-102686582D01*
X90112929Y-102538745D01*
X90128072Y-102385000D01*
X90128072Y-102085000D01*
X90112929Y-101931255D01*
X90068084Y-101783418D01*
X89995258Y-101647171D01*
X89956546Y-101600000D01*
X89995258Y-101552829D01*
X90068084Y-101416582D01*
X90112929Y-101268745D01*
X90128072Y-101115000D01*
X90128072Y-100815000D01*
X90112929Y-100661255D01*
X90068084Y-100513418D01*
X89995258Y-100377171D01*
X89922871Y-100288967D01*
X116555000Y-100288967D01*
X116555000Y-100611033D01*
X116617832Y-100926912D01*
X116741082Y-101224463D01*
X116920013Y-101492252D01*
X117147748Y-101719987D01*
X117415537Y-101898918D01*
X117713088Y-102022168D01*
X118028967Y-102085000D01*
X118351033Y-102085000D01*
X118666912Y-102022168D01*
X118964463Y-101898918D01*
X119232252Y-101719987D01*
X119459987Y-101492252D01*
X119524925Y-101395065D01*
X119554587Y-101405808D01*
X120510395Y-100450000D01*
X119554587Y-99494192D01*
X119524925Y-99504935D01*
X119459987Y-99407748D01*
X119366826Y-99314587D01*
X119734192Y-99314587D01*
X120690000Y-100270395D01*
X120704143Y-100256253D01*
X120883748Y-100435858D01*
X120869605Y-100450000D01*
X120883748Y-100464143D01*
X120704143Y-100643748D01*
X120690000Y-100629605D01*
X119734192Y-101585413D01*
X119829956Y-101849814D01*
X120119571Y-101990704D01*
X120431108Y-102072384D01*
X120752595Y-102091718D01*
X121071675Y-102047961D01*
X121376088Y-101942795D01*
X121550044Y-101849814D01*
X121604024Y-101700777D01*
X121659463Y-101804494D01*
X121738815Y-101901185D01*
X121835506Y-101980537D01*
X121945820Y-102039502D01*
X122065518Y-102075812D01*
X122190000Y-102088072D01*
X124190000Y-102088072D01*
X124314482Y-102075812D01*
X124434180Y-102039502D01*
X124544494Y-101980537D01*
X124641185Y-101901185D01*
X124720537Y-101804494D01*
X124779502Y-101694180D01*
X124815812Y-101574482D01*
X124828072Y-101450000D01*
X124828072Y-99450000D01*
X124815812Y-99325518D01*
X124779502Y-99205820D01*
X124720537Y-99095506D01*
X124641185Y-98998815D01*
X124544494Y-98919463D01*
X124434180Y-98860498D01*
X124314482Y-98824188D01*
X124190000Y-98811928D01*
X122190000Y-98811928D01*
X122065518Y-98824188D01*
X121945820Y-98860498D01*
X121835506Y-98919463D01*
X121738815Y-98998815D01*
X121659463Y-99095506D01*
X121604024Y-99199223D01*
X121550044Y-99050186D01*
X121260429Y-98909296D01*
X120948892Y-98827616D01*
X120627405Y-98808282D01*
X120308325Y-98852039D01*
X120003912Y-98957205D01*
X119829956Y-99050186D01*
X119734192Y-99314587D01*
X119366826Y-99314587D01*
X119232252Y-99180013D01*
X118964463Y-99001082D01*
X118666912Y-98877832D01*
X118351033Y-98815000D01*
X118028967Y-98815000D01*
X117713088Y-98877832D01*
X117415537Y-99001082D01*
X117147748Y-99180013D01*
X116920013Y-99407748D01*
X116741082Y-99675537D01*
X116617832Y-99973088D01*
X116555000Y-100288967D01*
X89922871Y-100288967D01*
X89897251Y-100257749D01*
X89777829Y-100159742D01*
X89641582Y-100086916D01*
X89493745Y-100042071D01*
X89340000Y-100026928D01*
X88040000Y-100026928D01*
X87886255Y-100042071D01*
X87738418Y-100086916D01*
X87602171Y-100159742D01*
X87482749Y-100257749D01*
X87384742Y-100377171D01*
X87311916Y-100513418D01*
X87267071Y-100661255D01*
X87251928Y-100815000D01*
X82928072Y-100815000D01*
X82912929Y-100661255D01*
X82868084Y-100513418D01*
X82795258Y-100377171D01*
X82697251Y-100257749D01*
X82577829Y-100159742D01*
X82441582Y-100086916D01*
X82293745Y-100042071D01*
X82140000Y-100026928D01*
X80840000Y-100026928D01*
X80686255Y-100042071D01*
X80538418Y-100086916D01*
X80402171Y-100159742D01*
X80282749Y-100257749D01*
X80184742Y-100377171D01*
X80111916Y-100513418D01*
X80067071Y-100661255D01*
X80051928Y-100815000D01*
X56540000Y-100815000D01*
X56540000Y-94139999D01*
X84461928Y-94139999D01*
X84461928Y-95440001D01*
X84478992Y-95613255D01*
X84529528Y-95779851D01*
X84611595Y-95933387D01*
X84722038Y-96067962D01*
X84856613Y-96178405D01*
X85010149Y-96260472D01*
X85176745Y-96311008D01*
X85349999Y-96328072D01*
X86175001Y-96328072D01*
X86348255Y-96311008D01*
X86514851Y-96260472D01*
X86668387Y-96178405D01*
X86802962Y-96067962D01*
X86913405Y-95933387D01*
X86995472Y-95779851D01*
X87022727Y-95690000D01*
X87586928Y-95690000D01*
X87599188Y-95814482D01*
X87635498Y-95934180D01*
X87694463Y-96044494D01*
X87773815Y-96141185D01*
X87870506Y-96220537D01*
X87980820Y-96279502D01*
X88100518Y-96315812D01*
X88225000Y-96328072D01*
X88601750Y-96325000D01*
X88760500Y-96166250D01*
X88760500Y-94917000D01*
X89014500Y-94917000D01*
X89014500Y-96166250D01*
X89173250Y-96325000D01*
X89550000Y-96328072D01*
X89674482Y-96315812D01*
X89794180Y-96279502D01*
X89904494Y-96220537D01*
X90001185Y-96141185D01*
X90080537Y-96044494D01*
X90139502Y-95934180D01*
X90175812Y-95814482D01*
X90188072Y-95690000D01*
X90185000Y-95075750D01*
X90026250Y-94917000D01*
X89014500Y-94917000D01*
X88760500Y-94917000D01*
X87748750Y-94917000D01*
X87590000Y-95075750D01*
X87586928Y-95690000D01*
X87022727Y-95690000D01*
X87046008Y-95613255D01*
X87063072Y-95440001D01*
X87063072Y-94139999D01*
X87046008Y-93966745D01*
X87022728Y-93890000D01*
X87586928Y-93890000D01*
X87590000Y-94504250D01*
X87748750Y-94663000D01*
X88760500Y-94663000D01*
X88760500Y-93413750D01*
X89014500Y-93413750D01*
X89014500Y-94663000D01*
X90026250Y-94663000D01*
X90185000Y-94504250D01*
X90188072Y-93890000D01*
X90175812Y-93765518D01*
X90139502Y-93645820D01*
X90080537Y-93535506D01*
X90001185Y-93438815D01*
X89904494Y-93359463D01*
X89794180Y-93300498D01*
X89674482Y-93264188D01*
X89550000Y-93251928D01*
X89173250Y-93255000D01*
X89014500Y-93413750D01*
X88760500Y-93413750D01*
X88601750Y-93255000D01*
X88225000Y-93251928D01*
X88100518Y-93264188D01*
X87980820Y-93300498D01*
X87870506Y-93359463D01*
X87773815Y-93438815D01*
X87694463Y-93535506D01*
X87635498Y-93645820D01*
X87599188Y-93765518D01*
X87586928Y-93890000D01*
X87022728Y-93890000D01*
X86995472Y-93800149D01*
X86913405Y-93646613D01*
X86802962Y-93512038D01*
X86668387Y-93401595D01*
X86514851Y-93319528D01*
X86348255Y-93268992D01*
X86175001Y-93251928D01*
X85349999Y-93251928D01*
X85176745Y-93268992D01*
X85010149Y-93319528D01*
X84856613Y-93401595D01*
X84722038Y-93512038D01*
X84611595Y-93646613D01*
X84529528Y-93800149D01*
X84478992Y-93966745D01*
X84461928Y-94139999D01*
X56540000Y-94139999D01*
X56540000Y-91680000D01*
X60026928Y-91680000D01*
X60039188Y-91804482D01*
X60075498Y-91924180D01*
X60134463Y-92034494D01*
X60213815Y-92131185D01*
X60310506Y-92210537D01*
X60420820Y-92269502D01*
X60540518Y-92305812D01*
X60665000Y-92318072D01*
X61091750Y-92315000D01*
X61250500Y-92156250D01*
X61250500Y-90932000D01*
X61504500Y-90932000D01*
X61504500Y-92156250D01*
X61663250Y-92315000D01*
X62090000Y-92318072D01*
X62214482Y-92305812D01*
X62334180Y-92269502D01*
X62444494Y-92210537D01*
X62541185Y-92131185D01*
X62620537Y-92034494D01*
X62679502Y-91924180D01*
X62715812Y-91804482D01*
X62728072Y-91680000D01*
X62725000Y-91090750D01*
X62566250Y-90932000D01*
X61504500Y-90932000D01*
X61250500Y-90932000D01*
X60188750Y-90932000D01*
X60030000Y-91090750D01*
X60026928Y-91680000D01*
X56540000Y-91680000D01*
X56540000Y-89930000D01*
X60026928Y-89930000D01*
X60030000Y-90519250D01*
X60188750Y-90678000D01*
X61250500Y-90678000D01*
X61250500Y-89453750D01*
X61504500Y-89453750D01*
X61504500Y-90678000D01*
X62566250Y-90678000D01*
X62725000Y-90519250D01*
X62726768Y-90180000D01*
X63001928Y-90180000D01*
X63001928Y-91430000D01*
X63018992Y-91603254D01*
X63069528Y-91769850D01*
X63151595Y-91923386D01*
X63262038Y-92057962D01*
X63396614Y-92168405D01*
X63550150Y-92250472D01*
X63716746Y-92301008D01*
X63890000Y-92318072D01*
X64815000Y-92318072D01*
X64988254Y-92301008D01*
X65154850Y-92250472D01*
X65308386Y-92168405D01*
X65442962Y-92057962D01*
X65553405Y-91923386D01*
X65574190Y-91884500D01*
X66505810Y-91884500D01*
X66526595Y-91923386D01*
X66637038Y-92057962D01*
X66771614Y-92168405D01*
X66925150Y-92250472D01*
X67091746Y-92301008D01*
X67265000Y-92318072D01*
X68065000Y-92318072D01*
X68238254Y-92301008D01*
X68404850Y-92250472D01*
X68558386Y-92168405D01*
X68692962Y-92057962D01*
X68803405Y-91923386D01*
X68885472Y-91769850D01*
X68936008Y-91603254D01*
X68953072Y-91430000D01*
X68953072Y-90180000D01*
X68936008Y-90006746D01*
X68885472Y-89840150D01*
X68803405Y-89686614D01*
X68692962Y-89552038D01*
X68558386Y-89441595D01*
X68404850Y-89359528D01*
X68238254Y-89308992D01*
X68065000Y-89291928D01*
X67265000Y-89291928D01*
X67091746Y-89308992D01*
X66925150Y-89359528D01*
X66771614Y-89441595D01*
X66637038Y-89552038D01*
X66526595Y-89686614D01*
X66505810Y-89725500D01*
X65574190Y-89725500D01*
X65553405Y-89686614D01*
X65442962Y-89552038D01*
X65308386Y-89441595D01*
X65154850Y-89359528D01*
X64988254Y-89308992D01*
X64815000Y-89291928D01*
X63890000Y-89291928D01*
X63716746Y-89308992D01*
X63550150Y-89359528D01*
X63396614Y-89441595D01*
X63262038Y-89552038D01*
X63151595Y-89686614D01*
X63069528Y-89840150D01*
X63018992Y-90006746D01*
X63001928Y-90180000D01*
X62726768Y-90180000D01*
X62728072Y-89930000D01*
X62715812Y-89805518D01*
X62679502Y-89685820D01*
X62620537Y-89575506D01*
X62541185Y-89478815D01*
X62444494Y-89399463D01*
X62334180Y-89340498D01*
X62214482Y-89304188D01*
X62090000Y-89291928D01*
X61663250Y-89295000D01*
X61504500Y-89453750D01*
X61250500Y-89453750D01*
X61091750Y-89295000D01*
X60665000Y-89291928D01*
X60540518Y-89304188D01*
X60420820Y-89340498D01*
X60310506Y-89399463D01*
X60213815Y-89478815D01*
X60134463Y-89575506D01*
X60075498Y-89685820D01*
X60039188Y-89805518D01*
X60026928Y-89930000D01*
X56540000Y-89930000D01*
X56540000Y-84125000D01*
X58016928Y-84125000D01*
X58016928Y-86625000D01*
X58029188Y-86749482D01*
X58065498Y-86869180D01*
X58124463Y-86979494D01*
X58203815Y-87076185D01*
X58300506Y-87155537D01*
X58410820Y-87214502D01*
X58530518Y-87250812D01*
X58655000Y-87263072D01*
X61155000Y-87263072D01*
X61279482Y-87250812D01*
X61399180Y-87214502D01*
X61509494Y-87155537D01*
X61606185Y-87076185D01*
X61685537Y-86979494D01*
X61744502Y-86869180D01*
X61780812Y-86749482D01*
X61793072Y-86625000D01*
X61793072Y-84125000D01*
X69016928Y-84125000D01*
X69016928Y-86625000D01*
X69029188Y-86749482D01*
X69065498Y-86869180D01*
X69124463Y-86979494D01*
X69203815Y-87076185D01*
X69300506Y-87155537D01*
X69410820Y-87214502D01*
X69530518Y-87250812D01*
X69655000Y-87263072D01*
X69825500Y-87263072D01*
X69825501Y-89479439D01*
X69737038Y-89552038D01*
X69626595Y-89686614D01*
X69544528Y-89840150D01*
X69493992Y-90006746D01*
X69476928Y-90180000D01*
X69476928Y-91430000D01*
X69493992Y-91603254D01*
X69544528Y-91769850D01*
X69626595Y-91923386D01*
X69737038Y-92057962D01*
X69871614Y-92168405D01*
X70025150Y-92250472D01*
X70191746Y-92301008D01*
X70365000Y-92318072D01*
X71165000Y-92318072D01*
X71338254Y-92301008D01*
X71504850Y-92250472D01*
X71658386Y-92168405D01*
X71792962Y-92057962D01*
X71903405Y-91923386D01*
X71985472Y-91769850D01*
X72036008Y-91603254D01*
X72053072Y-91430000D01*
X72053072Y-90180000D01*
X72038167Y-90028665D01*
X97625000Y-90028665D01*
X97625000Y-90311335D01*
X97680147Y-90588574D01*
X97788320Y-90849727D01*
X97945363Y-91084759D01*
X98145241Y-91284637D01*
X98380273Y-91441680D01*
X98641426Y-91549853D01*
X98918665Y-91605000D01*
X99201335Y-91605000D01*
X99478574Y-91549853D01*
X99739727Y-91441680D01*
X99974759Y-91284637D01*
X100174637Y-91084759D01*
X100330000Y-90852241D01*
X100485363Y-91084759D01*
X100685241Y-91284637D01*
X100920273Y-91441680D01*
X101181426Y-91549853D01*
X101458665Y-91605000D01*
X101741335Y-91605000D01*
X102018574Y-91549853D01*
X102279727Y-91441680D01*
X102514759Y-91284637D01*
X102714637Y-91084759D01*
X102870000Y-90852241D01*
X103025363Y-91084759D01*
X103225241Y-91284637D01*
X103460273Y-91441680D01*
X103721426Y-91549853D01*
X103998665Y-91605000D01*
X104281335Y-91605000D01*
X104558574Y-91549853D01*
X104819727Y-91441680D01*
X105054759Y-91284637D01*
X105254637Y-91084759D01*
X105410000Y-90852241D01*
X105565363Y-91084759D01*
X105765241Y-91284637D01*
X106000273Y-91441680D01*
X106261426Y-91549853D01*
X106538665Y-91605000D01*
X106821335Y-91605000D01*
X107098574Y-91549853D01*
X107359727Y-91441680D01*
X107594759Y-91284637D01*
X107794637Y-91084759D01*
X107950000Y-90852241D01*
X108105363Y-91084759D01*
X108305241Y-91284637D01*
X108540273Y-91441680D01*
X108801426Y-91549853D01*
X109078665Y-91605000D01*
X109361335Y-91605000D01*
X109638574Y-91549853D01*
X109899727Y-91441680D01*
X110134759Y-91284637D01*
X110334637Y-91084759D01*
X110490000Y-90852241D01*
X110645363Y-91084759D01*
X110845241Y-91284637D01*
X111080273Y-91441680D01*
X111341426Y-91549853D01*
X111618665Y-91605000D01*
X111901335Y-91605000D01*
X112178574Y-91549853D01*
X112439727Y-91441680D01*
X112674759Y-91284637D01*
X112874637Y-91084759D01*
X113030000Y-90852241D01*
X113185363Y-91084759D01*
X113385241Y-91284637D01*
X113620273Y-91441680D01*
X113881426Y-91549853D01*
X114158665Y-91605000D01*
X114441335Y-91605000D01*
X114718574Y-91549853D01*
X114979727Y-91441680D01*
X115214759Y-91284637D01*
X115414637Y-91084759D01*
X115571680Y-90849727D01*
X115576067Y-90839135D01*
X115687615Y-91025131D01*
X115876586Y-91233519D01*
X116102580Y-91401037D01*
X116356913Y-91521246D01*
X116490961Y-91561904D01*
X116713000Y-91439915D01*
X116713000Y-90297000D01*
X116693000Y-90297000D01*
X116693000Y-90043000D01*
X116713000Y-90043000D01*
X116713000Y-88900085D01*
X116967000Y-88900085D01*
X116967000Y-90043000D01*
X116987000Y-90043000D01*
X116987000Y-90297000D01*
X116967000Y-90297000D01*
X116967000Y-91439915D01*
X117189039Y-91561904D01*
X117323087Y-91521246D01*
X117577420Y-91401037D01*
X117803414Y-91233519D01*
X117992385Y-91025131D01*
X118103933Y-90839135D01*
X118108320Y-90849727D01*
X118265363Y-91084759D01*
X118465241Y-91284637D01*
X118700273Y-91441680D01*
X118961426Y-91549853D01*
X119238665Y-91605000D01*
X119521335Y-91605000D01*
X119798574Y-91549853D01*
X120059727Y-91441680D01*
X120294759Y-91284637D01*
X120494637Y-91084759D01*
X120650000Y-90852241D01*
X120805363Y-91084759D01*
X121005241Y-91284637D01*
X121240273Y-91441680D01*
X121501426Y-91549853D01*
X121778665Y-91605000D01*
X122061335Y-91605000D01*
X122338574Y-91549853D01*
X122599727Y-91441680D01*
X122834759Y-91284637D01*
X123034637Y-91084759D01*
X123190000Y-90852241D01*
X123345363Y-91084759D01*
X123545241Y-91284637D01*
X123780273Y-91441680D01*
X124041426Y-91549853D01*
X124318665Y-91605000D01*
X124601335Y-91605000D01*
X124878574Y-91549853D01*
X125139727Y-91441680D01*
X125374759Y-91284637D01*
X125574637Y-91084759D01*
X125730000Y-90852241D01*
X125885363Y-91084759D01*
X126085241Y-91284637D01*
X126320273Y-91441680D01*
X126581426Y-91549853D01*
X126858665Y-91605000D01*
X127141335Y-91605000D01*
X127418574Y-91549853D01*
X127679727Y-91441680D01*
X127914759Y-91284637D01*
X128114637Y-91084759D01*
X128270000Y-90852241D01*
X128425363Y-91084759D01*
X128625241Y-91284637D01*
X128860273Y-91441680D01*
X129121426Y-91549853D01*
X129398665Y-91605000D01*
X129681335Y-91605000D01*
X129958574Y-91549853D01*
X130219727Y-91441680D01*
X130454759Y-91284637D01*
X130654637Y-91084759D01*
X130810000Y-90852241D01*
X130965363Y-91084759D01*
X131165241Y-91284637D01*
X131400273Y-91441680D01*
X131661426Y-91549853D01*
X131938665Y-91605000D01*
X132221335Y-91605000D01*
X132498574Y-91549853D01*
X132759727Y-91441680D01*
X132994759Y-91284637D01*
X133194637Y-91084759D01*
X133351680Y-90849727D01*
X133459853Y-90588574D01*
X133515000Y-90311335D01*
X133515000Y-90028665D01*
X133459853Y-89751426D01*
X133351680Y-89490273D01*
X133194637Y-89255241D01*
X132994759Y-89055363D01*
X132759727Y-88898320D01*
X132498574Y-88790147D01*
X132221335Y-88735000D01*
X131938665Y-88735000D01*
X131661426Y-88790147D01*
X131400273Y-88898320D01*
X131165241Y-89055363D01*
X130965363Y-89255241D01*
X130810000Y-89487759D01*
X130654637Y-89255241D01*
X130454759Y-89055363D01*
X130219727Y-88898320D01*
X129958574Y-88790147D01*
X129681335Y-88735000D01*
X129398665Y-88735000D01*
X129121426Y-88790147D01*
X128860273Y-88898320D01*
X128625241Y-89055363D01*
X128425363Y-89255241D01*
X128270000Y-89487759D01*
X128114637Y-89255241D01*
X127914759Y-89055363D01*
X127679727Y-88898320D01*
X127418574Y-88790147D01*
X127141335Y-88735000D01*
X126858665Y-88735000D01*
X126581426Y-88790147D01*
X126320273Y-88898320D01*
X126085241Y-89055363D01*
X125885363Y-89255241D01*
X125730000Y-89487759D01*
X125574637Y-89255241D01*
X125374759Y-89055363D01*
X125139727Y-88898320D01*
X124878574Y-88790147D01*
X124601335Y-88735000D01*
X124318665Y-88735000D01*
X124041426Y-88790147D01*
X123780273Y-88898320D01*
X123545241Y-89055363D01*
X123345363Y-89255241D01*
X123190000Y-89487759D01*
X123034637Y-89255241D01*
X122834759Y-89055363D01*
X122599727Y-88898320D01*
X122338574Y-88790147D01*
X122061335Y-88735000D01*
X121778665Y-88735000D01*
X121501426Y-88790147D01*
X121240273Y-88898320D01*
X121005241Y-89055363D01*
X120805363Y-89255241D01*
X120650000Y-89487759D01*
X120494637Y-89255241D01*
X120294759Y-89055363D01*
X120059727Y-88898320D01*
X119798574Y-88790147D01*
X119521335Y-88735000D01*
X119238665Y-88735000D01*
X118961426Y-88790147D01*
X118700273Y-88898320D01*
X118465241Y-89055363D01*
X118265363Y-89255241D01*
X118108320Y-89490273D01*
X118103933Y-89500865D01*
X117992385Y-89314869D01*
X117803414Y-89106481D01*
X117577420Y-88938963D01*
X117323087Y-88818754D01*
X117189039Y-88778096D01*
X116967000Y-88900085D01*
X116713000Y-88900085D01*
X116490961Y-88778096D01*
X116356913Y-88818754D01*
X116102580Y-88938963D01*
X115876586Y-89106481D01*
X115687615Y-89314869D01*
X115576067Y-89500865D01*
X115571680Y-89490273D01*
X115414637Y-89255241D01*
X115214759Y-89055363D01*
X114979727Y-88898320D01*
X114718574Y-88790147D01*
X114441335Y-88735000D01*
X114158665Y-88735000D01*
X113881426Y-88790147D01*
X113620273Y-88898320D01*
X113385241Y-89055363D01*
X113185363Y-89255241D01*
X113030000Y-89487759D01*
X112874637Y-89255241D01*
X112674759Y-89055363D01*
X112439727Y-88898320D01*
X112178574Y-88790147D01*
X111901335Y-88735000D01*
X111618665Y-88735000D01*
X111341426Y-88790147D01*
X111080273Y-88898320D01*
X110845241Y-89055363D01*
X110645363Y-89255241D01*
X110490000Y-89487759D01*
X110334637Y-89255241D01*
X110134759Y-89055363D01*
X109899727Y-88898320D01*
X109638574Y-88790147D01*
X109361335Y-88735000D01*
X109078665Y-88735000D01*
X108801426Y-88790147D01*
X108540273Y-88898320D01*
X108305241Y-89055363D01*
X108105363Y-89255241D01*
X107950000Y-89487759D01*
X107794637Y-89255241D01*
X107594759Y-89055363D01*
X107359727Y-88898320D01*
X107098574Y-88790147D01*
X106821335Y-88735000D01*
X106538665Y-88735000D01*
X106261426Y-88790147D01*
X106000273Y-88898320D01*
X105765241Y-89055363D01*
X105565363Y-89255241D01*
X105410000Y-89487759D01*
X105254637Y-89255241D01*
X105054759Y-89055363D01*
X104819727Y-88898320D01*
X104558574Y-88790147D01*
X104281335Y-88735000D01*
X103998665Y-88735000D01*
X103721426Y-88790147D01*
X103460273Y-88898320D01*
X103225241Y-89055363D01*
X103025363Y-89255241D01*
X102870000Y-89487759D01*
X102714637Y-89255241D01*
X102514759Y-89055363D01*
X102279727Y-88898320D01*
X102018574Y-88790147D01*
X101741335Y-88735000D01*
X101458665Y-88735000D01*
X101181426Y-88790147D01*
X100920273Y-88898320D01*
X100685241Y-89055363D01*
X100485363Y-89255241D01*
X100330000Y-89487759D01*
X100174637Y-89255241D01*
X99974759Y-89055363D01*
X99739727Y-88898320D01*
X99478574Y-88790147D01*
X99201335Y-88735000D01*
X98918665Y-88735000D01*
X98641426Y-88790147D01*
X98380273Y-88898320D01*
X98145241Y-89055363D01*
X97945363Y-89255241D01*
X97788320Y-89490273D01*
X97680147Y-89751426D01*
X97625000Y-90028665D01*
X72038167Y-90028665D01*
X72036008Y-90006746D01*
X71985472Y-89840150D01*
X71984500Y-89838332D01*
X71984500Y-87263072D01*
X72155000Y-87263072D01*
X72279482Y-87250812D01*
X72399180Y-87214502D01*
X72509494Y-87155537D01*
X72606185Y-87076185D01*
X72685537Y-86979494D01*
X72744502Y-86869180D01*
X72780812Y-86749482D01*
X72793072Y-86625000D01*
X72793072Y-86454500D01*
X73690467Y-86454500D01*
X73786613Y-86533405D01*
X73940149Y-86615472D01*
X74106745Y-86666008D01*
X74279999Y-86683072D01*
X75580001Y-86683072D01*
X75753255Y-86666008D01*
X75919851Y-86615472D01*
X76073387Y-86533405D01*
X76160394Y-86462000D01*
X96174471Y-86462000D01*
X96227500Y-86467223D01*
X96280529Y-86462000D01*
X115224471Y-86462000D01*
X115277500Y-86467223D01*
X115330529Y-86462000D01*
X115489119Y-86446380D01*
X115692606Y-86384653D01*
X115880140Y-86284414D01*
X116044515Y-86149515D01*
X116078326Y-86108316D01*
X117565826Y-84620818D01*
X117607015Y-84587015D01*
X117659214Y-84523411D01*
X117741914Y-84422640D01*
X117768529Y-84372847D01*
X117842153Y-84235106D01*
X117903880Y-84031619D01*
X117919500Y-83873029D01*
X117919500Y-83873028D01*
X117924723Y-83820000D01*
X117919500Y-83766971D01*
X117919500Y-83499896D01*
X117954637Y-83464759D01*
X118110000Y-83232241D01*
X118265363Y-83464759D01*
X118465241Y-83664637D01*
X118700273Y-83821680D01*
X118961426Y-83929853D01*
X119238665Y-83985000D01*
X119521335Y-83985000D01*
X119798574Y-83929853D01*
X120059727Y-83821680D01*
X120294759Y-83664637D01*
X120494637Y-83464759D01*
X120650000Y-83232241D01*
X120805363Y-83464759D01*
X121005241Y-83664637D01*
X121240273Y-83821680D01*
X121501426Y-83929853D01*
X121778665Y-83985000D01*
X122061335Y-83985000D01*
X122338574Y-83929853D01*
X122599727Y-83821680D01*
X122834759Y-83664637D01*
X123034637Y-83464759D01*
X123190000Y-83232241D01*
X123345363Y-83464759D01*
X123545241Y-83664637D01*
X123780273Y-83821680D01*
X124041426Y-83929853D01*
X124318665Y-83985000D01*
X124601335Y-83985000D01*
X124878574Y-83929853D01*
X125139727Y-83821680D01*
X125374759Y-83664637D01*
X125574637Y-83464759D01*
X125730000Y-83232241D01*
X125885363Y-83464759D01*
X126085241Y-83664637D01*
X126320273Y-83821680D01*
X126581426Y-83929853D01*
X126858665Y-83985000D01*
X127141335Y-83985000D01*
X127418574Y-83929853D01*
X127679727Y-83821680D01*
X127914759Y-83664637D01*
X128114637Y-83464759D01*
X128270000Y-83232241D01*
X128425363Y-83464759D01*
X128625241Y-83664637D01*
X128860273Y-83821680D01*
X129121426Y-83929853D01*
X129398665Y-83985000D01*
X129681335Y-83985000D01*
X129958574Y-83929853D01*
X130219727Y-83821680D01*
X130454759Y-83664637D01*
X130653357Y-83466039D01*
X130654188Y-83474482D01*
X130690498Y-83594180D01*
X130749463Y-83704494D01*
X130828815Y-83801185D01*
X130925506Y-83880537D01*
X131035820Y-83939502D01*
X131155518Y-83975812D01*
X131280000Y-83988072D01*
X132880000Y-83988072D01*
X133004482Y-83975812D01*
X133124180Y-83939502D01*
X133234494Y-83880537D01*
X133331185Y-83801185D01*
X133410537Y-83704494D01*
X133469502Y-83594180D01*
X133505812Y-83474482D01*
X133518072Y-83350000D01*
X133518072Y-82970000D01*
X138211928Y-82970000D01*
X138211928Y-84670000D01*
X138224188Y-84794482D01*
X138260498Y-84914180D01*
X138319463Y-85024494D01*
X138398815Y-85121185D01*
X138495506Y-85200537D01*
X138605820Y-85259502D01*
X138678380Y-85281513D01*
X138546525Y-85413368D01*
X138384010Y-85656589D01*
X138272068Y-85926842D01*
X138215000Y-86213740D01*
X138215000Y-86506260D01*
X138272068Y-86793158D01*
X138384010Y-87063411D01*
X138546525Y-87306632D01*
X138753368Y-87513475D01*
X138927760Y-87630000D01*
X138753368Y-87746525D01*
X138546525Y-87953368D01*
X138384010Y-88196589D01*
X138272068Y-88466842D01*
X138215000Y-88753740D01*
X138215000Y-89046260D01*
X138272068Y-89333158D01*
X138384010Y-89603411D01*
X138546525Y-89846632D01*
X138753368Y-90053475D01*
X138996589Y-90215990D01*
X139266842Y-90327932D01*
X139553740Y-90385000D01*
X139846260Y-90385000D01*
X140133158Y-90327932D01*
X140403411Y-90215990D01*
X140646632Y-90053475D01*
X140853475Y-89846632D01*
X140971100Y-89670594D01*
X141142412Y-89900269D01*
X141358645Y-90095178D01*
X141608748Y-90244157D01*
X141883109Y-90341481D01*
X142113000Y-90220814D01*
X142113000Y-89027000D01*
X142367000Y-89027000D01*
X142367000Y-90220814D01*
X142596891Y-90341481D01*
X142871252Y-90244157D01*
X143121355Y-90095178D01*
X143337588Y-89900269D01*
X143511641Y-89666920D01*
X143636825Y-89404099D01*
X143681476Y-89256890D01*
X143560155Y-89027000D01*
X142367000Y-89027000D01*
X142113000Y-89027000D01*
X142093000Y-89027000D01*
X142093000Y-88773000D01*
X142113000Y-88773000D01*
X142113000Y-88753000D01*
X142367000Y-88753000D01*
X142367000Y-88773000D01*
X143560155Y-88773000D01*
X143681476Y-88543110D01*
X143636825Y-88395901D01*
X143511641Y-88133080D01*
X143337588Y-87899731D01*
X143121355Y-87704822D01*
X143004466Y-87635195D01*
X143186632Y-87513475D01*
X143393475Y-87306632D01*
X143555990Y-87063411D01*
X143667932Y-86793158D01*
X143725000Y-86506260D01*
X143725000Y-86213740D01*
X143667932Y-85926842D01*
X143555990Y-85656589D01*
X143393475Y-85413368D01*
X143186632Y-85206525D01*
X143012240Y-85090000D01*
X143186632Y-84973475D01*
X143393475Y-84766632D01*
X143555990Y-84523411D01*
X143667932Y-84253158D01*
X143725000Y-83966260D01*
X143725000Y-83673740D01*
X143667932Y-83386842D01*
X143555990Y-83116589D01*
X143393475Y-82873368D01*
X143186632Y-82666525D01*
X142943411Y-82504010D01*
X142673158Y-82392068D01*
X142386260Y-82335000D01*
X142093740Y-82335000D01*
X141806842Y-82392068D01*
X141536589Y-82504010D01*
X141293368Y-82666525D01*
X141161513Y-82798380D01*
X141139502Y-82725820D01*
X141080537Y-82615506D01*
X141001185Y-82518815D01*
X140904494Y-82439463D01*
X140794180Y-82380498D01*
X140674482Y-82344188D01*
X140550000Y-82331928D01*
X138850000Y-82331928D01*
X138725518Y-82344188D01*
X138605820Y-82380498D01*
X138495506Y-82439463D01*
X138398815Y-82518815D01*
X138319463Y-82615506D01*
X138260498Y-82725820D01*
X138224188Y-82845518D01*
X138211928Y-82970000D01*
X133518072Y-82970000D01*
X133518072Y-81750000D01*
X133505812Y-81625518D01*
X133469502Y-81505820D01*
X133410537Y-81395506D01*
X133331185Y-81298815D01*
X133234494Y-81219463D01*
X133124180Y-81160498D01*
X133004482Y-81124188D01*
X132880000Y-81111928D01*
X131280000Y-81111928D01*
X131155518Y-81124188D01*
X131035820Y-81160498D01*
X130925506Y-81219463D01*
X130828815Y-81298815D01*
X130749463Y-81395506D01*
X130690498Y-81505820D01*
X130654188Y-81625518D01*
X130653357Y-81633961D01*
X130454759Y-81435363D01*
X130219727Y-81278320D01*
X129958574Y-81170147D01*
X129681335Y-81115000D01*
X129398665Y-81115000D01*
X129121426Y-81170147D01*
X128860273Y-81278320D01*
X128625241Y-81435363D01*
X128425363Y-81635241D01*
X128270000Y-81867759D01*
X128114637Y-81635241D01*
X127914759Y-81435363D01*
X127679727Y-81278320D01*
X127418574Y-81170147D01*
X127141335Y-81115000D01*
X126858665Y-81115000D01*
X126581426Y-81170147D01*
X126320273Y-81278320D01*
X126085241Y-81435363D01*
X125885363Y-81635241D01*
X125730000Y-81867759D01*
X125574637Y-81635241D01*
X125374759Y-81435363D01*
X125139727Y-81278320D01*
X124878574Y-81170147D01*
X124601335Y-81115000D01*
X124318665Y-81115000D01*
X124041426Y-81170147D01*
X123780273Y-81278320D01*
X123545241Y-81435363D01*
X123345363Y-81635241D01*
X123190000Y-81867759D01*
X123034637Y-81635241D01*
X122834759Y-81435363D01*
X122599727Y-81278320D01*
X122338574Y-81170147D01*
X122061335Y-81115000D01*
X121778665Y-81115000D01*
X121501426Y-81170147D01*
X121240273Y-81278320D01*
X121005241Y-81435363D01*
X120805363Y-81635241D01*
X120650000Y-81867759D01*
X120494637Y-81635241D01*
X120294759Y-81435363D01*
X120059727Y-81278320D01*
X119798574Y-81170147D01*
X119521335Y-81115000D01*
X119238665Y-81115000D01*
X118961426Y-81170147D01*
X118700273Y-81278320D01*
X118465241Y-81435363D01*
X118265363Y-81635241D01*
X118110000Y-81867759D01*
X117954637Y-81635241D01*
X117754759Y-81435363D01*
X117519727Y-81278320D01*
X117258574Y-81170147D01*
X116981335Y-81115000D01*
X116698665Y-81115000D01*
X116421426Y-81170147D01*
X116160273Y-81278320D01*
X115925241Y-81435363D01*
X115725363Y-81635241D01*
X115568320Y-81870273D01*
X115563933Y-81880865D01*
X115452385Y-81694869D01*
X115263414Y-81486481D01*
X115037420Y-81318963D01*
X114783087Y-81198754D01*
X114649039Y-81158096D01*
X114427000Y-81280085D01*
X114427000Y-82423000D01*
X114447000Y-82423000D01*
X114447000Y-82677000D01*
X114427000Y-82677000D01*
X114427000Y-83819915D01*
X114649039Y-83941904D01*
X114783087Y-83901246D01*
X115037420Y-83781037D01*
X115263414Y-83613519D01*
X115452385Y-83405131D01*
X115563933Y-83219135D01*
X115568320Y-83229727D01*
X115702626Y-83430731D01*
X114830358Y-84303000D01*
X97307000Y-84303000D01*
X97307000Y-82408665D01*
X97625000Y-82408665D01*
X97625000Y-82691335D01*
X97680147Y-82968574D01*
X97788320Y-83229727D01*
X97945363Y-83464759D01*
X98145241Y-83664637D01*
X98380273Y-83821680D01*
X98641426Y-83929853D01*
X98918665Y-83985000D01*
X99201335Y-83985000D01*
X99478574Y-83929853D01*
X99739727Y-83821680D01*
X99974759Y-83664637D01*
X100174637Y-83464759D01*
X100330000Y-83232241D01*
X100485363Y-83464759D01*
X100685241Y-83664637D01*
X100920273Y-83821680D01*
X101181426Y-83929853D01*
X101458665Y-83985000D01*
X101741335Y-83985000D01*
X102018574Y-83929853D01*
X102279727Y-83821680D01*
X102514759Y-83664637D01*
X102714637Y-83464759D01*
X102870000Y-83232241D01*
X103025363Y-83464759D01*
X103225241Y-83664637D01*
X103460273Y-83821680D01*
X103721426Y-83929853D01*
X103998665Y-83985000D01*
X104281335Y-83985000D01*
X104558574Y-83929853D01*
X104819727Y-83821680D01*
X105054759Y-83664637D01*
X105254637Y-83464759D01*
X105410000Y-83232241D01*
X105565363Y-83464759D01*
X105765241Y-83664637D01*
X106000273Y-83821680D01*
X106261426Y-83929853D01*
X106538665Y-83985000D01*
X106821335Y-83985000D01*
X107098574Y-83929853D01*
X107359727Y-83821680D01*
X107594759Y-83664637D01*
X107794637Y-83464759D01*
X107950000Y-83232241D01*
X108105363Y-83464759D01*
X108305241Y-83664637D01*
X108540273Y-83821680D01*
X108801426Y-83929853D01*
X109078665Y-83985000D01*
X109361335Y-83985000D01*
X109638574Y-83929853D01*
X109899727Y-83821680D01*
X110134759Y-83664637D01*
X110334637Y-83464759D01*
X110490000Y-83232241D01*
X110645363Y-83464759D01*
X110845241Y-83664637D01*
X111080273Y-83821680D01*
X111341426Y-83929853D01*
X111618665Y-83985000D01*
X111901335Y-83985000D01*
X112178574Y-83929853D01*
X112439727Y-83821680D01*
X112674759Y-83664637D01*
X112874637Y-83464759D01*
X113031680Y-83229727D01*
X113036067Y-83219135D01*
X113147615Y-83405131D01*
X113336586Y-83613519D01*
X113562580Y-83781037D01*
X113816913Y-83901246D01*
X113950961Y-83941904D01*
X114173000Y-83819915D01*
X114173000Y-82677000D01*
X114153000Y-82677000D01*
X114153000Y-82423000D01*
X114173000Y-82423000D01*
X114173000Y-81280085D01*
X113950961Y-81158096D01*
X113816913Y-81198754D01*
X113562580Y-81318963D01*
X113336586Y-81486481D01*
X113147615Y-81694869D01*
X113036067Y-81880865D01*
X113031680Y-81870273D01*
X112874637Y-81635241D01*
X112674759Y-81435363D01*
X112439727Y-81278320D01*
X112178574Y-81170147D01*
X111901335Y-81115000D01*
X111618665Y-81115000D01*
X111341426Y-81170147D01*
X111080273Y-81278320D01*
X110845241Y-81435363D01*
X110645363Y-81635241D01*
X110490000Y-81867759D01*
X110334637Y-81635241D01*
X110134759Y-81435363D01*
X109899727Y-81278320D01*
X109638574Y-81170147D01*
X109361335Y-81115000D01*
X109078665Y-81115000D01*
X108801426Y-81170147D01*
X108540273Y-81278320D01*
X108305241Y-81435363D01*
X108105363Y-81635241D01*
X107950000Y-81867759D01*
X107794637Y-81635241D01*
X107594759Y-81435363D01*
X107359727Y-81278320D01*
X107098574Y-81170147D01*
X106821335Y-81115000D01*
X106538665Y-81115000D01*
X106261426Y-81170147D01*
X106000273Y-81278320D01*
X105765241Y-81435363D01*
X105565363Y-81635241D01*
X105410000Y-81867759D01*
X105254637Y-81635241D01*
X105054759Y-81435363D01*
X104819727Y-81278320D01*
X104558574Y-81170147D01*
X104281335Y-81115000D01*
X103998665Y-81115000D01*
X103721426Y-81170147D01*
X103460273Y-81278320D01*
X103225241Y-81435363D01*
X103025363Y-81635241D01*
X102870000Y-81867759D01*
X102714637Y-81635241D01*
X102514759Y-81435363D01*
X102279727Y-81278320D01*
X102018574Y-81170147D01*
X101741335Y-81115000D01*
X101458665Y-81115000D01*
X101181426Y-81170147D01*
X100920273Y-81278320D01*
X100685241Y-81435363D01*
X100485363Y-81635241D01*
X100330000Y-81867759D01*
X100174637Y-81635241D01*
X99974759Y-81435363D01*
X99739727Y-81278320D01*
X99478574Y-81170147D01*
X99201335Y-81115000D01*
X98918665Y-81115000D01*
X98641426Y-81170147D01*
X98380273Y-81278320D01*
X98145241Y-81435363D01*
X97945363Y-81635241D01*
X97788320Y-81870273D01*
X97680147Y-82131426D01*
X97625000Y-82408665D01*
X97307000Y-82408665D01*
X97307000Y-76304642D01*
X99150821Y-74460822D01*
X99192015Y-74427015D01*
X99326914Y-74262640D01*
X99427153Y-74075106D01*
X99488880Y-73871619D01*
X99504500Y-73713029D01*
X99504500Y-73713022D01*
X99509722Y-73660001D01*
X99504500Y-73606979D01*
X99504500Y-68633021D01*
X99509722Y-68579999D01*
X99504500Y-68526978D01*
X99504500Y-68526971D01*
X99488880Y-68368381D01*
X99427153Y-68164894D01*
X99326914Y-67977360D01*
X99192015Y-67812985D01*
X99150821Y-67779178D01*
X97955826Y-66584184D01*
X97922015Y-66542985D01*
X97757640Y-66408086D01*
X97570106Y-66307847D01*
X97366619Y-66246120D01*
X97208029Y-66230500D01*
X97155000Y-66225277D01*
X97101971Y-66230500D01*
X95303021Y-66230500D01*
X95249999Y-66225278D01*
X95196978Y-66230500D01*
X95196971Y-66230500D01*
X95038381Y-66246120D01*
X94834894Y-66307847D01*
X94647360Y-66408086D01*
X94482985Y-66542985D01*
X94449178Y-66584180D01*
X93916023Y-67117335D01*
X93882681Y-67120619D01*
X93679194Y-67182346D01*
X93491660Y-67282585D01*
X93327285Y-67417484D01*
X93192386Y-67581859D01*
X93092147Y-67769393D01*
X93091026Y-67773089D01*
X93050120Y-67785498D01*
X92939806Y-67844463D01*
X92843115Y-67923815D01*
X92763763Y-68020506D01*
X92704798Y-68130820D01*
X92668488Y-68250518D01*
X92656228Y-68375000D01*
X92656228Y-68785000D01*
X92667308Y-68897500D01*
X92664946Y-68921483D01*
X92503898Y-68854774D01*
X92303939Y-68815000D01*
X92100061Y-68815000D01*
X91900102Y-68854774D01*
X91711744Y-68932795D01*
X91542226Y-69046063D01*
X91398063Y-69190226D01*
X91284795Y-69359744D01*
X91206774Y-69548102D01*
X91198798Y-69588202D01*
X91168256Y-69567795D01*
X90979898Y-69489774D01*
X90779939Y-69450000D01*
X90576061Y-69450000D01*
X90376102Y-69489774D01*
X90215054Y-69556483D01*
X90212692Y-69532500D01*
X90223772Y-69420000D01*
X90223772Y-69010000D01*
X90212692Y-68897500D01*
X90223772Y-68785000D01*
X90223772Y-68375000D01*
X90211512Y-68250518D01*
X90175202Y-68130820D01*
X90116237Y-68020506D01*
X90036885Y-67923815D01*
X89940194Y-67844463D01*
X89829880Y-67785498D01*
X89710182Y-67749188D01*
X89585700Y-67736928D01*
X87985700Y-67736928D01*
X87861218Y-67749188D01*
X87843707Y-67754500D01*
X83860550Y-67754500D01*
X83820000Y-67750506D01*
X83779449Y-67754500D01*
X83779447Y-67754500D01*
X83658174Y-67766444D01*
X83519138Y-67808620D01*
X83502566Y-67813647D01*
X83359157Y-67890301D01*
X83264958Y-67967608D01*
X83264955Y-67967611D01*
X83233459Y-67993459D01*
X83207611Y-68024955D01*
X81669993Y-69562574D01*
X81637166Y-69569104D01*
X81463822Y-69640905D01*
X81307816Y-69745145D01*
X81175145Y-69877816D01*
X81070905Y-70033822D01*
X80999104Y-70207166D01*
X80962500Y-70391187D01*
X80962500Y-70578813D01*
X80999104Y-70762834D01*
X81046578Y-70877447D01*
X80985000Y-70876928D01*
X80860518Y-70889188D01*
X80740820Y-70925498D01*
X80630506Y-70984463D01*
X80533815Y-71063815D01*
X80454463Y-71160506D01*
X80395498Y-71270820D01*
X80359188Y-71390518D01*
X80346928Y-71515000D01*
X80350000Y-72104250D01*
X80508750Y-72263000D01*
X81508000Y-72263000D01*
X81508000Y-72243000D01*
X81762000Y-72243000D01*
X81762000Y-72263000D01*
X82761250Y-72263000D01*
X82920000Y-72104250D01*
X82923072Y-71515000D01*
X82910812Y-71390518D01*
X82874502Y-71270820D01*
X82815537Y-71160506D01*
X82736185Y-71063815D01*
X82695901Y-71030755D01*
X82759095Y-70936178D01*
X82830896Y-70762834D01*
X82837426Y-70730007D01*
X82887595Y-70679837D01*
X82904104Y-70762834D01*
X82975905Y-70936178D01*
X83080145Y-71092184D01*
X83212816Y-71224855D01*
X83368822Y-71329095D01*
X83530152Y-71395920D01*
X83514528Y-71425150D01*
X83463992Y-71591746D01*
X83446928Y-71765000D01*
X83446928Y-73015000D01*
X83463992Y-73188254D01*
X83514528Y-73354850D01*
X83596595Y-73508386D01*
X83707038Y-73642962D01*
X83841614Y-73753405D01*
X83995150Y-73835472D01*
X84161746Y-73886008D01*
X84335000Y-73903072D01*
X85135000Y-73903072D01*
X85308254Y-73886008D01*
X85474850Y-73835472D01*
X85628386Y-73753405D01*
X85762962Y-73642962D01*
X85873405Y-73508386D01*
X85955472Y-73354850D01*
X85997743Y-73215500D01*
X87396950Y-73215500D01*
X87350700Y-73261750D01*
X87361720Y-73363358D01*
X87399726Y-73482528D01*
X87460251Y-73591994D01*
X87540969Y-73687548D01*
X87638778Y-73765519D01*
X87749919Y-73822911D01*
X87870120Y-73857517D01*
X87994763Y-73868008D01*
X88499950Y-73865000D01*
X88658700Y-73706250D01*
X88658700Y-73233072D01*
X88912700Y-73233072D01*
X88912700Y-73706250D01*
X89071450Y-73865000D01*
X89576637Y-73868008D01*
X89701280Y-73857517D01*
X89821481Y-73822911D01*
X89932622Y-73765519D01*
X90030431Y-73687548D01*
X90111149Y-73591994D01*
X90171674Y-73482528D01*
X90209680Y-73363358D01*
X90220700Y-73261750D01*
X90061950Y-73103000D01*
X89967656Y-73103000D01*
X90036885Y-73046185D01*
X90116237Y-72949494D01*
X90175202Y-72839180D01*
X90177567Y-72831383D01*
X90220700Y-72788250D01*
X90212335Y-72711124D01*
X90215054Y-72683517D01*
X90376102Y-72750226D01*
X90576061Y-72790000D01*
X90779939Y-72790000D01*
X90979898Y-72750226D01*
X91168256Y-72672205D01*
X91198798Y-72651798D01*
X91206774Y-72691898D01*
X91284795Y-72880256D01*
X91398063Y-73049774D01*
X91542226Y-73193937D01*
X91711744Y-73307205D01*
X91900102Y-73385226D01*
X92100061Y-73425000D01*
X92303939Y-73425000D01*
X92503898Y-73385226D01*
X92664946Y-73318517D01*
X92668488Y-73354482D01*
X92704798Y-73474180D01*
X92763763Y-73584494D01*
X92843115Y-73681185D01*
X92939806Y-73760537D01*
X93050120Y-73819502D01*
X93169818Y-73855812D01*
X93268800Y-73865561D01*
X93268800Y-73977956D01*
X93156745Y-73988992D01*
X92990149Y-74039528D01*
X92836613Y-74121595D01*
X92702038Y-74232038D01*
X92591595Y-74366613D01*
X92509528Y-74520149D01*
X92458992Y-74686745D01*
X92441928Y-74859999D01*
X92441928Y-75685001D01*
X92458992Y-75858255D01*
X92509528Y-76024851D01*
X92591595Y-76178387D01*
X92702038Y-76312962D01*
X92836613Y-76423405D01*
X92990149Y-76505472D01*
X93156745Y-76556008D01*
X93329999Y-76573072D01*
X94630001Y-76573072D01*
X94803255Y-76556008D01*
X94969851Y-76505472D01*
X95123387Y-76423405D01*
X95148001Y-76403205D01*
X95148001Y-77158231D01*
X95124180Y-77145498D01*
X95004482Y-77109188D01*
X94880000Y-77096928D01*
X94265750Y-77100000D01*
X94107000Y-77258750D01*
X94107000Y-78270500D01*
X94127000Y-78270500D01*
X94127000Y-78524500D01*
X94107000Y-78524500D01*
X94107000Y-79536250D01*
X94265750Y-79695000D01*
X94880000Y-79698072D01*
X95004482Y-79685812D01*
X95124180Y-79649502D01*
X95148001Y-79636769D01*
X95148000Y-84303000D01*
X76160394Y-84303000D01*
X76073387Y-84231595D01*
X75919851Y-84149528D01*
X75753255Y-84098992D01*
X75580001Y-84081928D01*
X74279999Y-84081928D01*
X74106745Y-84098992D01*
X73940149Y-84149528D01*
X73786613Y-84231595D01*
X73708745Y-84295500D01*
X72793072Y-84295500D01*
X72793072Y-84125000D01*
X72780812Y-84000518D01*
X72744502Y-83880820D01*
X72685537Y-83770506D01*
X72606185Y-83673815D01*
X72509494Y-83594463D01*
X72399180Y-83535498D01*
X72279482Y-83499188D01*
X72155000Y-83486928D01*
X69655000Y-83486928D01*
X69530518Y-83499188D01*
X69410820Y-83535498D01*
X69300506Y-83594463D01*
X69203815Y-83673815D01*
X69124463Y-83770506D01*
X69065498Y-83880820D01*
X69029188Y-84000518D01*
X69016928Y-84125000D01*
X61793072Y-84125000D01*
X61780812Y-84000518D01*
X61744502Y-83880820D01*
X61685537Y-83770506D01*
X61606185Y-83673815D01*
X61509494Y-83594463D01*
X61399180Y-83535498D01*
X61279482Y-83499188D01*
X61155000Y-83486928D01*
X58655000Y-83486928D01*
X58530518Y-83499188D01*
X58410820Y-83535498D01*
X58300506Y-83594463D01*
X58203815Y-83673815D01*
X58124463Y-83770506D01*
X58065498Y-83880820D01*
X58029188Y-84000518D01*
X58016928Y-84125000D01*
X56540000Y-84125000D01*
X56540000Y-82920000D01*
X73391928Y-82920000D01*
X73404188Y-83044482D01*
X73440498Y-83164180D01*
X73499463Y-83274494D01*
X73578815Y-83371185D01*
X73675506Y-83450537D01*
X73785820Y-83509502D01*
X73905518Y-83545812D01*
X74030000Y-83558072D01*
X74644250Y-83555000D01*
X74803000Y-83396250D01*
X74803000Y-82384500D01*
X75057000Y-82384500D01*
X75057000Y-83396250D01*
X75215750Y-83555000D01*
X75830000Y-83558072D01*
X75954482Y-83545812D01*
X76074180Y-83509502D01*
X76184494Y-83450537D01*
X76281185Y-83371185D01*
X76360537Y-83274494D01*
X76419502Y-83164180D01*
X76455812Y-83044482D01*
X76468072Y-82920000D01*
X76465000Y-82543250D01*
X76306250Y-82384500D01*
X75057000Y-82384500D01*
X74803000Y-82384500D01*
X73553750Y-82384500D01*
X73395000Y-82543250D01*
X73391928Y-82920000D01*
X56540000Y-82920000D01*
X56540000Y-81595000D01*
X73391928Y-81595000D01*
X73395000Y-81971750D01*
X73553750Y-82130500D01*
X74803000Y-82130500D01*
X74803000Y-81118750D01*
X75057000Y-81118750D01*
X75057000Y-82130500D01*
X76306250Y-82130500D01*
X76465000Y-81971750D01*
X76468072Y-81595000D01*
X76455812Y-81470518D01*
X76419502Y-81350820D01*
X76360537Y-81240506D01*
X76281185Y-81143815D01*
X76184494Y-81064463D01*
X76074180Y-81005498D01*
X75954482Y-80969188D01*
X75830000Y-80956928D01*
X75215750Y-80960000D01*
X75057000Y-81118750D01*
X74803000Y-81118750D01*
X74644250Y-80960000D01*
X74030000Y-80956928D01*
X73905518Y-80969188D01*
X73785820Y-81005498D01*
X73675506Y-81064463D01*
X73578815Y-81143815D01*
X73499463Y-81240506D01*
X73440498Y-81350820D01*
X73404188Y-81470518D01*
X73391928Y-81595000D01*
X56540000Y-81595000D01*
X56540000Y-79060000D01*
X92441928Y-79060000D01*
X92454188Y-79184482D01*
X92490498Y-79304180D01*
X92549463Y-79414494D01*
X92628815Y-79511185D01*
X92725506Y-79590537D01*
X92835820Y-79649502D01*
X92955518Y-79685812D01*
X93080000Y-79698072D01*
X93694250Y-79695000D01*
X93853000Y-79536250D01*
X93853000Y-78524500D01*
X92603750Y-78524500D01*
X92445000Y-78683250D01*
X92441928Y-79060000D01*
X56540000Y-79060000D01*
X56540000Y-77735000D01*
X92441928Y-77735000D01*
X92445000Y-78111750D01*
X92603750Y-78270500D01*
X93853000Y-78270500D01*
X93853000Y-77258750D01*
X93694250Y-77100000D01*
X93080000Y-77096928D01*
X92955518Y-77109188D01*
X92835820Y-77145498D01*
X92725506Y-77204463D01*
X92628815Y-77283815D01*
X92549463Y-77380506D01*
X92490498Y-77490820D01*
X92454188Y-77610518D01*
X92441928Y-77735000D01*
X56540000Y-77735000D01*
X56540000Y-72125000D01*
X58016928Y-72125000D01*
X58016928Y-74625000D01*
X58029188Y-74749482D01*
X58065498Y-74869180D01*
X58124463Y-74979494D01*
X58203815Y-75076185D01*
X58300506Y-75155537D01*
X58410820Y-75214502D01*
X58530518Y-75250812D01*
X58655000Y-75263072D01*
X61155000Y-75263072D01*
X61279482Y-75250812D01*
X61399180Y-75214502D01*
X61509494Y-75155537D01*
X61606185Y-75076185D01*
X61685537Y-74979494D01*
X61744502Y-74869180D01*
X61780812Y-74749482D01*
X61793072Y-74625000D01*
X69016928Y-74625000D01*
X69029188Y-74749482D01*
X69065498Y-74869180D01*
X69124463Y-74979494D01*
X69203815Y-75076185D01*
X69300506Y-75155537D01*
X69410820Y-75214502D01*
X69530518Y-75250812D01*
X69655000Y-75263072D01*
X70619250Y-75260000D01*
X70778000Y-75101250D01*
X70778000Y-73502000D01*
X71032000Y-73502000D01*
X71032000Y-75101250D01*
X71190750Y-75260000D01*
X72155000Y-75263072D01*
X72279482Y-75250812D01*
X72399180Y-75214502D01*
X72509494Y-75155537D01*
X72606185Y-75076185D01*
X72685537Y-74979494D01*
X72744502Y-74869180D01*
X72780812Y-74749482D01*
X72793072Y-74625000D01*
X72790000Y-73660750D01*
X72631250Y-73502000D01*
X71032000Y-73502000D01*
X70778000Y-73502000D01*
X69178750Y-73502000D01*
X69020000Y-73660750D01*
X69016928Y-74625000D01*
X61793072Y-74625000D01*
X61793072Y-74454500D01*
X62169471Y-74454500D01*
X62222500Y-74459723D01*
X62275529Y-74454500D01*
X62434119Y-74438880D01*
X62637606Y-74377153D01*
X62825140Y-74276914D01*
X62989515Y-74142015D01*
X63023327Y-74100816D01*
X63859143Y-73265000D01*
X80346928Y-73265000D01*
X80359188Y-73389482D01*
X80395498Y-73509180D01*
X80454463Y-73619494D01*
X80533815Y-73716185D01*
X80630506Y-73795537D01*
X80740820Y-73854502D01*
X80860518Y-73890812D01*
X80985000Y-73903072D01*
X81349250Y-73900000D01*
X81508000Y-73741250D01*
X81508000Y-72517000D01*
X81762000Y-72517000D01*
X81762000Y-73741250D01*
X81920750Y-73900000D01*
X82285000Y-73903072D01*
X82409482Y-73890812D01*
X82529180Y-73854502D01*
X82639494Y-73795537D01*
X82736185Y-73716185D01*
X82815537Y-73619494D01*
X82874502Y-73509180D01*
X82910812Y-73389482D01*
X82923072Y-73265000D01*
X82920000Y-72675750D01*
X82761250Y-72517000D01*
X81762000Y-72517000D01*
X81508000Y-72517000D01*
X80508750Y-72517000D01*
X80350000Y-72675750D01*
X80346928Y-73265000D01*
X63859143Y-73265000D01*
X64999143Y-72125000D01*
X69016928Y-72125000D01*
X69020000Y-73089250D01*
X69178750Y-73248000D01*
X70778000Y-73248000D01*
X70778000Y-71648750D01*
X71032000Y-71648750D01*
X71032000Y-73248000D01*
X72631250Y-73248000D01*
X72790000Y-73089250D01*
X72793072Y-72125000D01*
X72780812Y-72000518D01*
X72744502Y-71880820D01*
X72685537Y-71770506D01*
X72606185Y-71673815D01*
X72509494Y-71594463D01*
X72399180Y-71535498D01*
X72279482Y-71499188D01*
X72155000Y-71486928D01*
X71190750Y-71490000D01*
X71032000Y-71648750D01*
X70778000Y-71648750D01*
X70619250Y-71490000D01*
X69655000Y-71486928D01*
X69530518Y-71499188D01*
X69410820Y-71535498D01*
X69300506Y-71594463D01*
X69203815Y-71673815D01*
X69124463Y-71770506D01*
X69065498Y-71880820D01*
X69029188Y-72000518D01*
X69016928Y-72125000D01*
X64999143Y-72125000D01*
X65736072Y-71388072D01*
X66160001Y-71388072D01*
X66333255Y-71371008D01*
X66499851Y-71320472D01*
X66653387Y-71238405D01*
X66787962Y-71127962D01*
X66898405Y-70993387D01*
X66980472Y-70839851D01*
X67007727Y-70750000D01*
X67571928Y-70750000D01*
X67584188Y-70874482D01*
X67620498Y-70994180D01*
X67679463Y-71104494D01*
X67758815Y-71201185D01*
X67855506Y-71280537D01*
X67965820Y-71339502D01*
X68085518Y-71375812D01*
X68210000Y-71388072D01*
X68586750Y-71385000D01*
X68745500Y-71226250D01*
X68745500Y-69977000D01*
X68999500Y-69977000D01*
X68999500Y-71226250D01*
X69158250Y-71385000D01*
X69535000Y-71388072D01*
X69659482Y-71375812D01*
X69779180Y-71339502D01*
X69889494Y-71280537D01*
X69986185Y-71201185D01*
X70065537Y-71104494D01*
X70124502Y-70994180D01*
X70160812Y-70874482D01*
X70173072Y-70750000D01*
X70170000Y-70135750D01*
X70011250Y-69977000D01*
X68999500Y-69977000D01*
X68745500Y-69977000D01*
X67733750Y-69977000D01*
X67575000Y-70135750D01*
X67571928Y-70750000D01*
X67007727Y-70750000D01*
X67031008Y-70673255D01*
X67048072Y-70500001D01*
X67048072Y-69199999D01*
X67038978Y-69107664D01*
X67196642Y-68950000D01*
X67571928Y-68950000D01*
X67575000Y-69564250D01*
X67733750Y-69723000D01*
X68745500Y-69723000D01*
X68745500Y-68473750D01*
X68999500Y-68473750D01*
X68999500Y-69723000D01*
X70011250Y-69723000D01*
X70170000Y-69564250D01*
X70173072Y-68950000D01*
X70160812Y-68825518D01*
X70124502Y-68705820D01*
X70065537Y-68595506D01*
X69986185Y-68498815D01*
X69889494Y-68419463D01*
X69779180Y-68360498D01*
X69659482Y-68324188D01*
X69535000Y-68311928D01*
X69158250Y-68315000D01*
X68999500Y-68473750D01*
X68745500Y-68473750D01*
X68586750Y-68315000D01*
X68210000Y-68311928D01*
X68085518Y-68324188D01*
X67965820Y-68360498D01*
X67855506Y-68419463D01*
X67758815Y-68498815D01*
X67679463Y-68595506D01*
X67620498Y-68705820D01*
X67584188Y-68825518D01*
X67571928Y-68950000D01*
X67196642Y-68950000D01*
X69027143Y-67119500D01*
X73811928Y-67119500D01*
X73811928Y-67790000D01*
X73824188Y-67914482D01*
X73860498Y-68034180D01*
X73919463Y-68144494D01*
X73998815Y-68241185D01*
X74095506Y-68320537D01*
X74205820Y-68379502D01*
X74325518Y-68415812D01*
X74450000Y-68428072D01*
X77950000Y-68428072D01*
X78074482Y-68415812D01*
X78194180Y-68379502D01*
X78304494Y-68320537D01*
X78401185Y-68241185D01*
X78480537Y-68144494D01*
X78539502Y-68034180D01*
X78575812Y-67914482D01*
X78588072Y-67790000D01*
X78588072Y-64290000D01*
X78575812Y-64165518D01*
X78539502Y-64045820D01*
X78480537Y-63935506D01*
X78401185Y-63838815D01*
X78304494Y-63759463D01*
X78194180Y-63700498D01*
X78074482Y-63664188D01*
X77950000Y-63651928D01*
X74450000Y-63651928D01*
X74325518Y-63664188D01*
X74205820Y-63700498D01*
X74095506Y-63759463D01*
X73998815Y-63838815D01*
X73919463Y-63935506D01*
X73878506Y-64012131D01*
X73888072Y-63915000D01*
X73888072Y-63450000D01*
X100511928Y-63450000D01*
X100511928Y-66250000D01*
X100524188Y-66374482D01*
X100560498Y-66494180D01*
X100619463Y-66604494D01*
X100698815Y-66701185D01*
X100774501Y-66763298D01*
X100774501Y-67465991D01*
X100755905Y-67493822D01*
X100684104Y-67667166D01*
X100647500Y-67851187D01*
X100647500Y-68038813D01*
X100684104Y-68222834D01*
X100755905Y-68396178D01*
X100860145Y-68552184D01*
X100992816Y-68684855D01*
X101050901Y-68723666D01*
X101044961Y-68729607D01*
X101013460Y-68755459D01*
X100971863Y-68806146D01*
X100910301Y-68881158D01*
X100833647Y-69024567D01*
X100786445Y-69180174D01*
X100770506Y-69342000D01*
X100774501Y-69382560D01*
X100774500Y-72936702D01*
X100698815Y-72998815D01*
X100619463Y-73095506D01*
X100560498Y-73205820D01*
X100524188Y-73325518D01*
X100511928Y-73450000D01*
X100511928Y-76250000D01*
X100524188Y-76374482D01*
X100560498Y-76494180D01*
X100619463Y-76604494D01*
X100698815Y-76701185D01*
X100795506Y-76780537D01*
X100905820Y-76839502D01*
X101025518Y-76875812D01*
X101150000Y-76888072D01*
X102050000Y-76888072D01*
X102174482Y-76875812D01*
X102294180Y-76839502D01*
X102320000Y-76825701D01*
X102345820Y-76839502D01*
X102465518Y-76875812D01*
X102590000Y-76888072D01*
X103490000Y-76888072D01*
X103614482Y-76875812D01*
X103734180Y-76839502D01*
X103760000Y-76825701D01*
X103785820Y-76839502D01*
X103905518Y-76875812D01*
X104030000Y-76888072D01*
X104930000Y-76888072D01*
X105054482Y-76875812D01*
X105174180Y-76839502D01*
X105200000Y-76825701D01*
X105225820Y-76839502D01*
X105345518Y-76875812D01*
X105470000Y-76888072D01*
X106370000Y-76888072D01*
X106494482Y-76875812D01*
X106614180Y-76839502D01*
X106640000Y-76825701D01*
X106665820Y-76839502D01*
X106785518Y-76875812D01*
X106910000Y-76888072D01*
X107810000Y-76888072D01*
X107934482Y-76875812D01*
X108054180Y-76839502D01*
X108164494Y-76780537D01*
X108261185Y-76701185D01*
X108290000Y-76666074D01*
X108318815Y-76701185D01*
X108415506Y-76780537D01*
X108525820Y-76839502D01*
X108645518Y-76875812D01*
X108770000Y-76888072D01*
X109670000Y-76888072D01*
X109794482Y-76875812D01*
X109914180Y-76839502D01*
X109940000Y-76825701D01*
X109965820Y-76839502D01*
X110085518Y-76875812D01*
X110210000Y-76888072D01*
X111110000Y-76888072D01*
X111234482Y-76875812D01*
X111354180Y-76839502D01*
X111380000Y-76825701D01*
X111405820Y-76839502D01*
X111525518Y-76875812D01*
X111650000Y-76888072D01*
X112550000Y-76888072D01*
X112674482Y-76875812D01*
X112794180Y-76839502D01*
X112820000Y-76825701D01*
X112845820Y-76839502D01*
X112965518Y-76875812D01*
X113090000Y-76888072D01*
X113990000Y-76888072D01*
X114114482Y-76875812D01*
X114234180Y-76839502D01*
X114260000Y-76825701D01*
X114285820Y-76839502D01*
X114405518Y-76875812D01*
X114530000Y-76888072D01*
X115430000Y-76888072D01*
X115554482Y-76875812D01*
X115674180Y-76839502D01*
X115784494Y-76780537D01*
X115881185Y-76701185D01*
X115910000Y-76666074D01*
X115938815Y-76701185D01*
X116035506Y-76780537D01*
X116145820Y-76839502D01*
X116265518Y-76875812D01*
X116390000Y-76888072D01*
X117290000Y-76888072D01*
X117414482Y-76875812D01*
X117534180Y-76839502D01*
X117560000Y-76825701D01*
X117585820Y-76839502D01*
X117705518Y-76875812D01*
X117830000Y-76888072D01*
X118730000Y-76888072D01*
X118854482Y-76875812D01*
X118974180Y-76839502D01*
X119000000Y-76825701D01*
X119025820Y-76839502D01*
X119145518Y-76875812D01*
X119270000Y-76888072D01*
X120170000Y-76888072D01*
X120294482Y-76875812D01*
X120414180Y-76839502D01*
X120440000Y-76825701D01*
X120465820Y-76839502D01*
X120585518Y-76875812D01*
X120710000Y-76888072D01*
X121610000Y-76888072D01*
X121734482Y-76875812D01*
X121854180Y-76839502D01*
X121880000Y-76825701D01*
X121905820Y-76839502D01*
X122025518Y-76875812D01*
X122150000Y-76888072D01*
X123050000Y-76888072D01*
X123174482Y-76875812D01*
X123294180Y-76839502D01*
X123404494Y-76780537D01*
X123501185Y-76701185D01*
X123530000Y-76666074D01*
X123558815Y-76701185D01*
X123655506Y-76780537D01*
X123765820Y-76839502D01*
X123885518Y-76875812D01*
X124010000Y-76888072D01*
X124910000Y-76888072D01*
X125034482Y-76875812D01*
X125154180Y-76839502D01*
X125180000Y-76825701D01*
X125205820Y-76839502D01*
X125325518Y-76875812D01*
X125450000Y-76888072D01*
X126350000Y-76888072D01*
X126474482Y-76875812D01*
X126594180Y-76839502D01*
X126620000Y-76825701D01*
X126645820Y-76839502D01*
X126765518Y-76875812D01*
X126890000Y-76888072D01*
X127790000Y-76888072D01*
X127914482Y-76875812D01*
X128034180Y-76839502D01*
X128060000Y-76825701D01*
X128085820Y-76839502D01*
X128205518Y-76875812D01*
X128330000Y-76888072D01*
X129230000Y-76888072D01*
X129354482Y-76875812D01*
X129474180Y-76839502D01*
X129500000Y-76825701D01*
X129525820Y-76839502D01*
X129645518Y-76875812D01*
X129770000Y-76888072D01*
X130670000Y-76888072D01*
X130794482Y-76875812D01*
X130914180Y-76839502D01*
X131024494Y-76780537D01*
X131121185Y-76701185D01*
X131200537Y-76604494D01*
X131259502Y-76494180D01*
X131295812Y-76374482D01*
X131308072Y-76250000D01*
X131308072Y-73450000D01*
X131295812Y-73325518D01*
X131259502Y-73205820D01*
X131200537Y-73095506D01*
X131121185Y-72998815D01*
X131045500Y-72936702D01*
X131045500Y-72356729D01*
X131146095Y-72206178D01*
X131217896Y-72032834D01*
X131254500Y-71848813D01*
X131254500Y-71661187D01*
X131217896Y-71477166D01*
X131146095Y-71303822D01*
X131041855Y-71147816D01*
X130909184Y-71015145D01*
X130753178Y-70910905D01*
X130579834Y-70839104D01*
X130436143Y-70810522D01*
X130454999Y-70764999D01*
X130626178Y-70694095D01*
X130782184Y-70589855D01*
X130914855Y-70457184D01*
X131019095Y-70301178D01*
X131090896Y-70127834D01*
X131127500Y-69943813D01*
X131127500Y-69756187D01*
X131090896Y-69572166D01*
X131045500Y-69462570D01*
X131045500Y-66763298D01*
X131121185Y-66701185D01*
X131200537Y-66604494D01*
X131259502Y-66494180D01*
X131295812Y-66374482D01*
X131308072Y-66250000D01*
X131308072Y-63450000D01*
X131295812Y-63325518D01*
X131281966Y-63279872D01*
X137465000Y-63279872D01*
X137465000Y-63720128D01*
X137550890Y-64151925D01*
X137719369Y-64558669D01*
X137963962Y-64924729D01*
X138275271Y-65236038D01*
X138641331Y-65480631D01*
X139048075Y-65649110D01*
X139479872Y-65735000D01*
X139920128Y-65735000D01*
X140351925Y-65649110D01*
X140758669Y-65480631D01*
X141124729Y-65236038D01*
X141436038Y-64924729D01*
X141680631Y-64558669D01*
X141849110Y-64151925D01*
X141935000Y-63720128D01*
X141935000Y-63279872D01*
X141849110Y-62848075D01*
X141680631Y-62441331D01*
X141436038Y-62075271D01*
X141124729Y-61763962D01*
X140758669Y-61519369D01*
X140351925Y-61350890D01*
X139920128Y-61265000D01*
X139479872Y-61265000D01*
X139048075Y-61350890D01*
X138641331Y-61519369D01*
X138275271Y-61763962D01*
X137963962Y-62075271D01*
X137719369Y-62441331D01*
X137550890Y-62848075D01*
X137465000Y-63279872D01*
X131281966Y-63279872D01*
X131259502Y-63205820D01*
X131200537Y-63095506D01*
X131121185Y-62998815D01*
X131024494Y-62919463D01*
X130914180Y-62860498D01*
X130794482Y-62824188D01*
X130670000Y-62811928D01*
X129770000Y-62811928D01*
X129645518Y-62824188D01*
X129525820Y-62860498D01*
X129500000Y-62874299D01*
X129474180Y-62860498D01*
X129354482Y-62824188D01*
X129230000Y-62811928D01*
X128330000Y-62811928D01*
X128205518Y-62824188D01*
X128085820Y-62860498D01*
X128060000Y-62874299D01*
X128034180Y-62860498D01*
X127914482Y-62824188D01*
X127790000Y-62811928D01*
X126890000Y-62811928D01*
X126765518Y-62824188D01*
X126645820Y-62860498D01*
X126620000Y-62874299D01*
X126594180Y-62860498D01*
X126474482Y-62824188D01*
X126350000Y-62811928D01*
X125450000Y-62811928D01*
X125325518Y-62824188D01*
X125205820Y-62860498D01*
X125180000Y-62874299D01*
X125154180Y-62860498D01*
X125034482Y-62824188D01*
X124910000Y-62811928D01*
X124010000Y-62811928D01*
X123885518Y-62824188D01*
X123765820Y-62860498D01*
X123655506Y-62919463D01*
X123558815Y-62998815D01*
X123530000Y-63033926D01*
X123501185Y-62998815D01*
X123404494Y-62919463D01*
X123294180Y-62860498D01*
X123174482Y-62824188D01*
X123050000Y-62811928D01*
X122150000Y-62811928D01*
X122025518Y-62824188D01*
X121905820Y-62860498D01*
X121880000Y-62874299D01*
X121854180Y-62860498D01*
X121734482Y-62824188D01*
X121610000Y-62811928D01*
X120710000Y-62811928D01*
X120585518Y-62824188D01*
X120465820Y-62860498D01*
X120440000Y-62874299D01*
X120414180Y-62860498D01*
X120294482Y-62824188D01*
X120170000Y-62811928D01*
X119270000Y-62811928D01*
X119145518Y-62824188D01*
X119025820Y-62860498D01*
X119000000Y-62874299D01*
X118974180Y-62860498D01*
X118854482Y-62824188D01*
X118730000Y-62811928D01*
X117830000Y-62811928D01*
X117705518Y-62824188D01*
X117585820Y-62860498D01*
X117560000Y-62874299D01*
X117534180Y-62860498D01*
X117414482Y-62824188D01*
X117290000Y-62811928D01*
X116390000Y-62811928D01*
X116265518Y-62824188D01*
X116145820Y-62860498D01*
X116035506Y-62919463D01*
X115938815Y-62998815D01*
X115910000Y-63033926D01*
X115881185Y-62998815D01*
X115784494Y-62919463D01*
X115674180Y-62860498D01*
X115554482Y-62824188D01*
X115430000Y-62811928D01*
X114530000Y-62811928D01*
X114405518Y-62824188D01*
X114285820Y-62860498D01*
X114260000Y-62874299D01*
X114234180Y-62860498D01*
X114114482Y-62824188D01*
X113990000Y-62811928D01*
X113090000Y-62811928D01*
X112965518Y-62824188D01*
X112845820Y-62860498D01*
X112820000Y-62874299D01*
X112794180Y-62860498D01*
X112674482Y-62824188D01*
X112550000Y-62811928D01*
X111650000Y-62811928D01*
X111525518Y-62824188D01*
X111405820Y-62860498D01*
X111380000Y-62874299D01*
X111354180Y-62860498D01*
X111234482Y-62824188D01*
X111110000Y-62811928D01*
X110210000Y-62811928D01*
X110085518Y-62824188D01*
X109965820Y-62860498D01*
X109940000Y-62874299D01*
X109914180Y-62860498D01*
X109794482Y-62824188D01*
X109670000Y-62811928D01*
X108770000Y-62811928D01*
X108645518Y-62824188D01*
X108525820Y-62860498D01*
X108415506Y-62919463D01*
X108318815Y-62998815D01*
X108290000Y-63033926D01*
X108261185Y-62998815D01*
X108164494Y-62919463D01*
X108054180Y-62860498D01*
X107934482Y-62824188D01*
X107810000Y-62811928D01*
X106910000Y-62811928D01*
X106785518Y-62824188D01*
X106665820Y-62860498D01*
X106640000Y-62874299D01*
X106614180Y-62860498D01*
X106494482Y-62824188D01*
X106370000Y-62811928D01*
X105470000Y-62811928D01*
X105345518Y-62824188D01*
X105225820Y-62860498D01*
X105200000Y-62874299D01*
X105174180Y-62860498D01*
X105054482Y-62824188D01*
X104930000Y-62811928D01*
X104030000Y-62811928D01*
X103905518Y-62824188D01*
X103785820Y-62860498D01*
X103760000Y-62874299D01*
X103734180Y-62860498D01*
X103614482Y-62824188D01*
X103490000Y-62811928D01*
X102590000Y-62811928D01*
X102465518Y-62824188D01*
X102345820Y-62860498D01*
X102320000Y-62874299D01*
X102294180Y-62860498D01*
X102174482Y-62824188D01*
X102050000Y-62811928D01*
X101150000Y-62811928D01*
X101025518Y-62824188D01*
X100905820Y-62860498D01*
X100795506Y-62919463D01*
X100698815Y-62998815D01*
X100619463Y-63095506D01*
X100560498Y-63205820D01*
X100524188Y-63325518D01*
X100511928Y-63450000D01*
X73888072Y-63450000D01*
X73888072Y-62165000D01*
X73858999Y-61869814D01*
X73772896Y-61585972D01*
X73748324Y-61540000D01*
X73811928Y-61540000D01*
X73824188Y-61664482D01*
X73860498Y-61784180D01*
X73919463Y-61894494D01*
X73998815Y-61991185D01*
X74095506Y-62070537D01*
X74205820Y-62129502D01*
X74325518Y-62165812D01*
X74450000Y-62178072D01*
X75914250Y-62175000D01*
X76073000Y-62016250D01*
X76073000Y-60167000D01*
X76327000Y-60167000D01*
X76327000Y-62016250D01*
X76485750Y-62175000D01*
X77950000Y-62178072D01*
X78074482Y-62165812D01*
X78194180Y-62129502D01*
X78304494Y-62070537D01*
X78401185Y-61991185D01*
X78480537Y-61894494D01*
X78539502Y-61784180D01*
X78575812Y-61664482D01*
X78588072Y-61540000D01*
X78585000Y-60325750D01*
X78426250Y-60167000D01*
X76327000Y-60167000D01*
X76073000Y-60167000D01*
X73973750Y-60167000D01*
X73815000Y-60325750D01*
X73811928Y-61540000D01*
X73748324Y-61540000D01*
X73633073Y-61324382D01*
X73444903Y-61095097D01*
X73215618Y-60906927D01*
X72954028Y-60767104D01*
X72670186Y-60681001D01*
X72375000Y-60651928D01*
X70625000Y-60651928D01*
X70329814Y-60681001D01*
X70045972Y-60767104D01*
X69784382Y-60906927D01*
X69555097Y-61095097D01*
X69366927Y-61324382D01*
X69227104Y-61585972D01*
X69141001Y-61869814D01*
X69111928Y-62165000D01*
X69111928Y-63915000D01*
X69141001Y-64210186D01*
X69227104Y-64494028D01*
X69366927Y-64755618D01*
X69535070Y-64960500D01*
X68633029Y-64960500D01*
X68580000Y-64955277D01*
X68526971Y-64960500D01*
X68368381Y-64976120D01*
X68164894Y-65037847D01*
X67977360Y-65138086D01*
X67812985Y-65272985D01*
X67779178Y-65314179D01*
X65021685Y-68071673D01*
X64980485Y-68105485D01*
X64845586Y-68269860D01*
X64745347Y-68457395D01*
X64711741Y-68568178D01*
X64707038Y-68572038D01*
X64596595Y-68706613D01*
X64514528Y-68860149D01*
X64463992Y-69026745D01*
X64446928Y-69199999D01*
X64446928Y-69623928D01*
X61793072Y-72277786D01*
X61793072Y-72125000D01*
X61780812Y-72000518D01*
X61744502Y-71880820D01*
X61685537Y-71770506D01*
X61606185Y-71673815D01*
X61509494Y-71594463D01*
X61399180Y-71535498D01*
X61279482Y-71499188D01*
X61155000Y-71486928D01*
X58655000Y-71486928D01*
X58530518Y-71499188D01*
X58410820Y-71535498D01*
X58300506Y-71594463D01*
X58203815Y-71673815D01*
X58124463Y-71770506D01*
X58065498Y-71880820D01*
X58029188Y-72000518D01*
X58016928Y-72125000D01*
X56540000Y-72125000D01*
X56540000Y-63523920D01*
X56557707Y-63279872D01*
X61265000Y-63279872D01*
X61265000Y-63720128D01*
X61350890Y-64151925D01*
X61519369Y-64558669D01*
X61763962Y-64924729D01*
X62075271Y-65236038D01*
X62441331Y-65480631D01*
X62848075Y-65649110D01*
X63279872Y-65735000D01*
X63720128Y-65735000D01*
X64151925Y-65649110D01*
X64558669Y-65480631D01*
X64924729Y-65236038D01*
X65236038Y-64924729D01*
X65480631Y-64558669D01*
X65649110Y-64151925D01*
X65735000Y-63720128D01*
X65735000Y-63279872D01*
X65649110Y-62848075D01*
X65480631Y-62441331D01*
X65236038Y-62075271D01*
X64924729Y-61763962D01*
X64558669Y-61519369D01*
X64151925Y-61350890D01*
X63720128Y-61265000D01*
X63279872Y-61265000D01*
X62848075Y-61350890D01*
X62441331Y-61519369D01*
X62075271Y-61763962D01*
X61763962Y-62075271D01*
X61519369Y-62441331D01*
X61350890Y-62848075D01*
X61265000Y-63279872D01*
X56557707Y-63279872D01*
X56614617Y-62495530D01*
X56831739Y-61512102D01*
X57188546Y-60570325D01*
X57677575Y-59689905D01*
X58288569Y-58889313D01*
X58645898Y-58540000D01*
X73811928Y-58540000D01*
X73815000Y-59754250D01*
X73973750Y-59913000D01*
X76073000Y-59913000D01*
X76073000Y-58063750D01*
X76327000Y-58063750D01*
X76327000Y-59913000D01*
X78426250Y-59913000D01*
X78585000Y-59754250D01*
X78588072Y-58540000D01*
X78575812Y-58415518D01*
X78539502Y-58295820D01*
X78480537Y-58185506D01*
X78401185Y-58088815D01*
X78304494Y-58009463D01*
X78194180Y-57950498D01*
X78074482Y-57914188D01*
X77950000Y-57901928D01*
X76485750Y-57905000D01*
X76327000Y-58063750D01*
X76073000Y-58063750D01*
X75914250Y-57905000D01*
X74450000Y-57901928D01*
X74325518Y-57914188D01*
X74205820Y-57950498D01*
X74095506Y-58009463D01*
X73998815Y-58088815D01*
X73919463Y-58185506D01*
X73860498Y-58295820D01*
X73824188Y-58415518D01*
X73811928Y-58540000D01*
X58645898Y-58540000D01*
X59008732Y-58185306D01*
X59822987Y-57592630D01*
X60714269Y-57123704D01*
X61663900Y-56788353D01*
X62655692Y-56592873D01*
X63520164Y-56540000D01*
X139676080Y-56540000D01*
X140704470Y-56614617D01*
G37*
%TD.AperFunction*%
%TD*%
M02*
