%TF.GenerationSoftware,KiCad,Pcbnew,5.1.9+dfsg1-1*%
%TF.CreationDate,2021-01-26T21:22:31-06:00*%
%TF.ProjectId,fram-prototype,6672616d-2d70-4726-9f74-6f747970652e,1.0.0*%
%TF.SameCoordinates,Original*%
%TF.FileFunction,Soldermask,Bot*%
%TF.FilePolarity,Negative*%
%FSLAX46Y46*%
G04 Gerber Fmt 4.6, Leading zero omitted, Abs format (unit mm)*
G04 Created by KiCad (PCBNEW 5.1.9+dfsg1-1) date 2021-01-26 21:22:31*
%MOMM*%
%LPD*%
G01*
G04 APERTURE LIST*
%ADD10O,1.700000X1.700000*%
%ADD11R,1.700000X1.700000*%
%ADD12O,1.600000X1.600000*%
%ADD13R,1.600000X1.600000*%
%ADD14R,3.500000X3.500000*%
%ADD15R,2.000000X2.000000*%
%ADD16C,2.000000*%
%ADD17R,2.000000X3.200000*%
%ADD18C,3.200000*%
G04 APERTURE END LIST*
D10*
%TO.C,J2*%
X142240000Y-88900000D03*
X139700000Y-88900000D03*
X142240000Y-86360000D03*
X139700000Y-86360000D03*
X142240000Y-83820000D03*
D11*
X139700000Y-83820000D03*
%TD*%
D12*
%TO.C,U1*%
X132080000Y-90170000D03*
X99060000Y-82550000D03*
X129540000Y-90170000D03*
X101600000Y-82550000D03*
X127000000Y-90170000D03*
X104140000Y-82550000D03*
X124460000Y-90170000D03*
X106680000Y-82550000D03*
X121920000Y-90170000D03*
X109220000Y-82550000D03*
X119380000Y-90170000D03*
X111760000Y-82550000D03*
X116840000Y-90170000D03*
X114300000Y-82550000D03*
X114300000Y-90170000D03*
X116840000Y-82550000D03*
X111760000Y-90170000D03*
X119380000Y-82550000D03*
X109220000Y-90170000D03*
X121920000Y-82550000D03*
X106680000Y-90170000D03*
X124460000Y-82550000D03*
X104140000Y-90170000D03*
X127000000Y-82550000D03*
X101600000Y-90170000D03*
X129540000Y-82550000D03*
X99060000Y-90170000D03*
D13*
X132080000Y-82550000D03*
%TD*%
%TO.C,J1*%
G36*
G01*
X70625000Y-61290000D02*
X72375000Y-61290000D01*
G75*
G02*
X73250000Y-62165000I0J-875000D01*
G01*
X73250000Y-63915000D01*
G75*
G02*
X72375000Y-64790000I-875000J0D01*
G01*
X70625000Y-64790000D01*
G75*
G02*
X69750000Y-63915000I0J875000D01*
G01*
X69750000Y-62165000D01*
G75*
G02*
X70625000Y-61290000I875000J0D01*
G01*
G37*
G36*
G01*
X75200000Y-58540000D02*
X77200000Y-58540000D01*
G75*
G02*
X77950000Y-59290000I0J-750000D01*
G01*
X77950000Y-60790000D01*
G75*
G02*
X77200000Y-61540000I-750000J0D01*
G01*
X75200000Y-61540000D01*
G75*
G02*
X74450000Y-60790000I0J750000D01*
G01*
X74450000Y-59290000D01*
G75*
G02*
X75200000Y-58540000I750000J0D01*
G01*
G37*
D14*
X76200000Y-66040000D03*
%TD*%
D15*
%TO.C,SW1*%
X123190000Y-100450000D03*
D16*
X120690000Y-100450000D03*
X118190000Y-100450000D03*
D17*
X126290000Y-107950000D03*
X115090000Y-107950000D03*
D16*
X123190000Y-114950000D03*
X118190000Y-114950000D03*
%TD*%
D18*
%TO.C,REF\u002A\u002A*%
X63500000Y-114300000D03*
%TD*%
%TO.C,REF\u002A\u002A*%
X139700000Y-114300000D03*
%TD*%
%TO.C,REF\u002A\u002A*%
X63500000Y-63500000D03*
%TD*%
%TO.C,REF\u002A\u002A*%
X139700000Y-63500000D03*
%TD*%
M02*
