%TF.GenerationSoftware,KiCad,Pcbnew,5.1.9+dfsg1-1*%
%TF.CreationDate,2021-01-26T21:22:31-06:00*%
%TF.ProjectId,fram-prototype,6672616d-2d70-4726-9f74-6f747970652e,1.0.0*%
%TF.SameCoordinates,Original*%
%TF.FileFunction,Paste,Top*%
%TF.FilePolarity,Positive*%
%FSLAX46Y46*%
G04 Gerber Fmt 4.6, Leading zero omitted, Abs format (unit mm)*
G04 Created by KiCad (PCBNEW 5.1.9+dfsg1-1) date 2021-01-26 21:22:31*
%MOMM*%
%LPD*%
G01*
G04 APERTURE LIST*
%ADD10R,2.500000X2.500000*%
%ADD11R,1.600000X0.410000*%
%ADD12R,0.900000X2.800000*%
G04 APERTURE END LIST*
D10*
%TO.C,PS1*%
X59905000Y-85375000D03*
X70905000Y-85375000D03*
X70905000Y-73375000D03*
X59905000Y-73375000D03*
%TD*%
%TO.C,R2*%
G36*
G01*
X85385000Y-71765000D02*
X85385000Y-73015000D01*
G75*
G02*
X85135000Y-73265000I-250000J0D01*
G01*
X84335000Y-73265000D01*
G75*
G02*
X84085000Y-73015000I0J250000D01*
G01*
X84085000Y-71765000D01*
G75*
G02*
X84335000Y-71515000I250000J0D01*
G01*
X85135000Y-71515000D01*
G75*
G02*
X85385000Y-71765000I0J-250000D01*
G01*
G37*
G36*
G01*
X82285000Y-71765000D02*
X82285000Y-73015000D01*
G75*
G02*
X82035000Y-73265000I-250000J0D01*
G01*
X81235000Y-73265000D01*
G75*
G02*
X80985000Y-73015000I0J250000D01*
G01*
X80985000Y-71765000D01*
G75*
G02*
X81235000Y-71515000I250000J0D01*
G01*
X82035000Y-71515000D01*
G75*
G02*
X82285000Y-71765000I0J-250000D01*
G01*
G37*
%TD*%
%TO.C,R1*%
G36*
G01*
X68315000Y-90180000D02*
X68315000Y-91430000D01*
G75*
G02*
X68065000Y-91680000I-250000J0D01*
G01*
X67265000Y-91680000D01*
G75*
G02*
X67015000Y-91430000I0J250000D01*
G01*
X67015000Y-90180000D01*
G75*
G02*
X67265000Y-89930000I250000J0D01*
G01*
X68065000Y-89930000D01*
G75*
G02*
X68315000Y-90180000I0J-250000D01*
G01*
G37*
G36*
G01*
X71415000Y-90180000D02*
X71415000Y-91430000D01*
G75*
G02*
X71165000Y-91680000I-250000J0D01*
G01*
X70365000Y-91680000D01*
G75*
G02*
X70115000Y-91430000I0J250000D01*
G01*
X70115000Y-90180000D01*
G75*
G02*
X70365000Y-89930000I250000J0D01*
G01*
X71165000Y-89930000D01*
G75*
G02*
X71415000Y-90180000I0J-250000D01*
G01*
G37*
%TD*%
%TO.C,D1*%
G36*
G01*
X63640000Y-91430000D02*
X63640000Y-90180000D01*
G75*
G02*
X63890000Y-89930000I250000J0D01*
G01*
X64815000Y-89930000D01*
G75*
G02*
X65065000Y-90180000I0J-250000D01*
G01*
X65065000Y-91430000D01*
G75*
G02*
X64815000Y-91680000I-250000J0D01*
G01*
X63890000Y-91680000D01*
G75*
G02*
X63640000Y-91430000I0J250000D01*
G01*
G37*
G36*
G01*
X60665000Y-91430000D02*
X60665000Y-90180000D01*
G75*
G02*
X60915000Y-89930000I250000J0D01*
G01*
X61840000Y-89930000D01*
G75*
G02*
X62090000Y-90180000I0J-250000D01*
G01*
X62090000Y-91430000D01*
G75*
G02*
X61840000Y-91680000I-250000J0D01*
G01*
X60915000Y-91680000D01*
G75*
G02*
X60665000Y-91430000I0J250000D01*
G01*
G37*
%TD*%
%TO.C,C4*%
G36*
G01*
X88225000Y-95440001D02*
X88225000Y-94139999D01*
G75*
G02*
X88474999Y-93890000I249999J0D01*
G01*
X89300001Y-93890000D01*
G75*
G02*
X89550000Y-94139999I0J-249999D01*
G01*
X89550000Y-95440001D01*
G75*
G02*
X89300001Y-95690000I-249999J0D01*
G01*
X88474999Y-95690000D01*
G75*
G02*
X88225000Y-95440001I0J249999D01*
G01*
G37*
G36*
G01*
X85100000Y-95440001D02*
X85100000Y-94139999D01*
G75*
G02*
X85349999Y-93890000I249999J0D01*
G01*
X86175001Y-93890000D01*
G75*
G02*
X86425000Y-94139999I0J-249999D01*
G01*
X86425000Y-95440001D01*
G75*
G02*
X86175001Y-95690000I-249999J0D01*
G01*
X85349999Y-95690000D01*
G75*
G02*
X85100000Y-95440001I0J249999D01*
G01*
G37*
%TD*%
%TO.C,C3*%
G36*
G01*
X93329999Y-77735000D02*
X94630001Y-77735000D01*
G75*
G02*
X94880000Y-77984999I0J-249999D01*
G01*
X94880000Y-78810001D01*
G75*
G02*
X94630001Y-79060000I-249999J0D01*
G01*
X93329999Y-79060000D01*
G75*
G02*
X93080000Y-78810001I0J249999D01*
G01*
X93080000Y-77984999D01*
G75*
G02*
X93329999Y-77735000I249999J0D01*
G01*
G37*
G36*
G01*
X93329999Y-74610000D02*
X94630001Y-74610000D01*
G75*
G02*
X94880000Y-74859999I0J-249999D01*
G01*
X94880000Y-75685001D01*
G75*
G02*
X94630001Y-75935000I-249999J0D01*
G01*
X93329999Y-75935000D01*
G75*
G02*
X93080000Y-75685001I0J249999D01*
G01*
X93080000Y-74859999D01*
G75*
G02*
X93329999Y-74610000I249999J0D01*
G01*
G37*
%TD*%
%TO.C,C2*%
G36*
G01*
X75580001Y-82920000D02*
X74279999Y-82920000D01*
G75*
G02*
X74030000Y-82670001I0J249999D01*
G01*
X74030000Y-81844999D01*
G75*
G02*
X74279999Y-81595000I249999J0D01*
G01*
X75580001Y-81595000D01*
G75*
G02*
X75830000Y-81844999I0J-249999D01*
G01*
X75830000Y-82670001D01*
G75*
G02*
X75580001Y-82920000I-249999J0D01*
G01*
G37*
G36*
G01*
X75580001Y-86045000D02*
X74279999Y-86045000D01*
G75*
G02*
X74030000Y-85795001I0J249999D01*
G01*
X74030000Y-84969999D01*
G75*
G02*
X74279999Y-84720000I249999J0D01*
G01*
X75580001Y-84720000D01*
G75*
G02*
X75830000Y-84969999I0J-249999D01*
G01*
X75830000Y-85795001D01*
G75*
G02*
X75580001Y-86045000I-249999J0D01*
G01*
G37*
%TD*%
%TO.C,C1*%
G36*
G01*
X68210000Y-70500001D02*
X68210000Y-69199999D01*
G75*
G02*
X68459999Y-68950000I249999J0D01*
G01*
X69285001Y-68950000D01*
G75*
G02*
X69535000Y-69199999I0J-249999D01*
G01*
X69535000Y-70500001D01*
G75*
G02*
X69285001Y-70750000I-249999J0D01*
G01*
X68459999Y-70750000D01*
G75*
G02*
X68210000Y-70500001I0J249999D01*
G01*
G37*
G36*
G01*
X65085000Y-70500001D02*
X65085000Y-69199999D01*
G75*
G02*
X65334999Y-68950000I249999J0D01*
G01*
X66160001Y-68950000D01*
G75*
G02*
X66410000Y-69199999I0J-249999D01*
G01*
X66410000Y-70500001D01*
G75*
G02*
X66160001Y-70750000I-249999J0D01*
G01*
X65334999Y-70750000D01*
G75*
G02*
X65085000Y-70500001I0J249999D01*
G01*
G37*
%TD*%
D11*
%TO.C,U3*%
X94094300Y-68580000D03*
X94094300Y-69215000D03*
X94094300Y-69850000D03*
X94094300Y-70485000D03*
X94094300Y-71120000D03*
X94094300Y-71755000D03*
X94094300Y-72390000D03*
X94094300Y-73025000D03*
X88785700Y-73025000D03*
X88785700Y-72390000D03*
X88785700Y-71755000D03*
X88785700Y-71120000D03*
X88785700Y-70485000D03*
X88785700Y-69850000D03*
X88785700Y-69215000D03*
X88785700Y-68580000D03*
%TD*%
%TO.C,U2*%
G36*
G01*
X87890000Y-101115000D02*
X87890000Y-100815000D01*
G75*
G02*
X88040000Y-100665000I150000J0D01*
G01*
X89340000Y-100665000D01*
G75*
G02*
X89490000Y-100815000I0J-150000D01*
G01*
X89490000Y-101115000D01*
G75*
G02*
X89340000Y-101265000I-150000J0D01*
G01*
X88040000Y-101265000D01*
G75*
G02*
X87890000Y-101115000I0J150000D01*
G01*
G37*
G36*
G01*
X87890000Y-102385000D02*
X87890000Y-102085000D01*
G75*
G02*
X88040000Y-101935000I150000J0D01*
G01*
X89340000Y-101935000D01*
G75*
G02*
X89490000Y-102085000I0J-150000D01*
G01*
X89490000Y-102385000D01*
G75*
G02*
X89340000Y-102535000I-150000J0D01*
G01*
X88040000Y-102535000D01*
G75*
G02*
X87890000Y-102385000I0J150000D01*
G01*
G37*
G36*
G01*
X87890000Y-103655000D02*
X87890000Y-103355000D01*
G75*
G02*
X88040000Y-103205000I150000J0D01*
G01*
X89340000Y-103205000D01*
G75*
G02*
X89490000Y-103355000I0J-150000D01*
G01*
X89490000Y-103655000D01*
G75*
G02*
X89340000Y-103805000I-150000J0D01*
G01*
X88040000Y-103805000D01*
G75*
G02*
X87890000Y-103655000I0J150000D01*
G01*
G37*
G36*
G01*
X87890000Y-104925000D02*
X87890000Y-104625000D01*
G75*
G02*
X88040000Y-104475000I150000J0D01*
G01*
X89340000Y-104475000D01*
G75*
G02*
X89490000Y-104625000I0J-150000D01*
G01*
X89490000Y-104925000D01*
G75*
G02*
X89340000Y-105075000I-150000J0D01*
G01*
X88040000Y-105075000D01*
G75*
G02*
X87890000Y-104925000I0J150000D01*
G01*
G37*
G36*
G01*
X80690000Y-104925000D02*
X80690000Y-104625000D01*
G75*
G02*
X80840000Y-104475000I150000J0D01*
G01*
X82140000Y-104475000D01*
G75*
G02*
X82290000Y-104625000I0J-150000D01*
G01*
X82290000Y-104925000D01*
G75*
G02*
X82140000Y-105075000I-150000J0D01*
G01*
X80840000Y-105075000D01*
G75*
G02*
X80690000Y-104925000I0J150000D01*
G01*
G37*
G36*
G01*
X80690000Y-103655000D02*
X80690000Y-103355000D01*
G75*
G02*
X80840000Y-103205000I150000J0D01*
G01*
X82140000Y-103205000D01*
G75*
G02*
X82290000Y-103355000I0J-150000D01*
G01*
X82290000Y-103655000D01*
G75*
G02*
X82140000Y-103805000I-150000J0D01*
G01*
X80840000Y-103805000D01*
G75*
G02*
X80690000Y-103655000I0J150000D01*
G01*
G37*
G36*
G01*
X80690000Y-102385000D02*
X80690000Y-102085000D01*
G75*
G02*
X80840000Y-101935000I150000J0D01*
G01*
X82140000Y-101935000D01*
G75*
G02*
X82290000Y-102085000I0J-150000D01*
G01*
X82290000Y-102385000D01*
G75*
G02*
X82140000Y-102535000I-150000J0D01*
G01*
X80840000Y-102535000D01*
G75*
G02*
X80690000Y-102385000I0J150000D01*
G01*
G37*
G36*
G01*
X80690000Y-101115000D02*
X80690000Y-100815000D01*
G75*
G02*
X80840000Y-100665000I150000J0D01*
G01*
X82140000Y-100665000D01*
G75*
G02*
X82290000Y-100815000I0J-150000D01*
G01*
X82290000Y-101115000D01*
G75*
G02*
X82140000Y-101265000I-150000J0D01*
G01*
X80840000Y-101265000D01*
G75*
G02*
X80690000Y-101115000I0J150000D01*
G01*
G37*
%TD*%
D12*
%TO.C,D5*%
X124460000Y-64850000D03*
X125900000Y-64850000D03*
X127340000Y-64850000D03*
X128780000Y-64850000D03*
X130220000Y-64850000D03*
X130220000Y-74850000D03*
X128780000Y-74850000D03*
X127340000Y-74850000D03*
X125900000Y-74850000D03*
X124460000Y-74850000D03*
%TD*%
%TO.C,D4*%
X116840000Y-64850000D03*
X118280000Y-64850000D03*
X119720000Y-64850000D03*
X121160000Y-64850000D03*
X122600000Y-64850000D03*
X122600000Y-74850000D03*
X121160000Y-74850000D03*
X119720000Y-74850000D03*
X118280000Y-74850000D03*
X116840000Y-74850000D03*
%TD*%
%TO.C,D3*%
X109220000Y-64850000D03*
X110660000Y-64850000D03*
X112100000Y-64850000D03*
X113540000Y-64850000D03*
X114980000Y-64850000D03*
X114980000Y-74850000D03*
X113540000Y-74850000D03*
X112100000Y-74850000D03*
X110660000Y-74850000D03*
X109220000Y-74850000D03*
%TD*%
%TO.C,D2*%
X101600000Y-64850000D03*
X103040000Y-64850000D03*
X104480000Y-64850000D03*
X105920000Y-64850000D03*
X107360000Y-64850000D03*
X107360000Y-74850000D03*
X105920000Y-74850000D03*
X104480000Y-74850000D03*
X103040000Y-74850000D03*
X101600000Y-74850000D03*
%TD*%
M02*
