M48
; DRILL file {KiCad 5.1.9+dfsg1-1} date Tue Jan 26 21:22:32 2021
; FORMAT={-:-/ absolute / inch / decimal}
; #@! TF.CreationDate,2021-01-26T21:22:32-06:00
; #@! TF.GenerationSoftware,Kicad,Pcbnew,5.1.9+dfsg1-1
; #@! TF.FileFunction,Plated,1,2,PTH
FMAT,2
INCH
T1C0.0157
T2C0.0315
T3C0.0394
T4C0.0591
%
G90
G05
T1
X3.225Y-2.775
X3.3Y-2.775
X3.42Y-2.75
X3.42Y-2.8
X3.57Y-2.775
X3.57Y-2.825
X3.63Y-2.75
X3.63Y-2.8
X3.63Y-2.85
X3.78Y-2.775
X3.78Y-2.825
X3.78Y-2.825
X3.78Y-2.875
X4.0Y-2.675
X4.03Y-2.7
X4.0567Y-2.6483
X4.057Y-2.725
X4.113Y-2.825
X4.169Y-2.8
X4.2Y-2.775
X4.226Y-2.75
X4.226Y-2.85
X4.305Y-2.675
X4.33Y-2.7
X4.355Y-2.65
X4.36Y-2.725
X4.415Y-2.85
X4.47Y-2.8
X4.5Y-2.775
X4.525Y-2.75
X4.527Y-2.825
X4.565Y-2.85
X4.63Y-2.7
X4.655Y-2.65
X4.655Y-2.725
X4.71Y-2.675
X4.77Y-2.8
X4.8Y-2.775
X4.825Y-2.75
X4.829Y-2.825
X4.865Y-2.85
X4.93Y-2.7
X4.955Y-2.675
X4.96Y-2.725
X5.015Y-2.65
X5.075Y-2.8
X5.1Y-2.775
X5.125Y-2.75
X5.13Y-2.825
T2
X3.9Y-3.25
X3.9Y-3.55
X4.0Y-3.25
X4.0Y-3.55
X4.1Y-3.25
X4.1Y-3.55
X4.2Y-3.25
X4.2Y-3.55
X4.3Y-3.25
X4.3Y-3.55
X4.4Y-3.25
X4.4Y-3.55
X4.5Y-3.25
X4.5Y-3.55
X4.6Y-3.25
X4.6Y-3.55
X4.7Y-3.25
X4.7Y-3.55
X4.8Y-3.25
X4.8Y-3.55
X4.9Y-3.25
X4.9Y-3.55
X5.0Y-3.25
X5.0Y-3.55
X5.1Y-3.25
X5.1Y-3.55
X5.2Y-3.25
X5.2Y-3.55
T3
X4.6531Y-3.9547
X4.6531Y-4.5256
X4.7516Y-3.9547
X4.85Y-3.9547
X4.85Y-4.5256
X5.5Y-3.3
X5.5Y-3.4
X5.5Y-3.5
X5.6Y-3.3
X5.6Y-3.4
X5.6Y-3.5
T3
G00X2.815Y-2.4425
M15
G01X2.815Y-2.5213
M16
G05
G00X3.0394Y-2.3638
M15
G01X2.9606Y-2.3638
M16
G05
G00X3.0394Y-2.6
M15
G01X2.9606Y-2.6
M16
G05
T4
G00X4.5311Y-4.2244
M15
G01X4.5311Y-4.2756
M16
G05
G00X4.972Y-4.2244
M15
G01X4.972Y-4.2756
M16
G05
T0
M30
