%TF.GenerationSoftware,KiCad,Pcbnew,5.1.9+dfsg1-1*%
%TF.CreationDate,2021-01-26T21:22:31-06:00*%
%TF.ProjectId,fram-prototype,6672616d-2d70-4726-9f74-6f747970652e,1.0.0*%
%TF.SameCoordinates,Original*%
%TF.FileFunction,Copper,L2,Bot*%
%TF.FilePolarity,Positive*%
%FSLAX46Y46*%
G04 Gerber Fmt 4.6, Leading zero omitted, Abs format (unit mm)*
G04 Created by KiCad (PCBNEW 5.1.9+dfsg1-1) date 2021-01-26 21:22:31*
%MOMM*%
%LPD*%
G01*
G04 APERTURE LIST*
%TA.AperFunction,ComponentPad*%
%ADD10O,1.700000X1.700000*%
%TD*%
%TA.AperFunction,ComponentPad*%
%ADD11R,1.700000X1.700000*%
%TD*%
%TA.AperFunction,ComponentPad*%
%ADD12O,1.600000X1.600000*%
%TD*%
%TA.AperFunction,ComponentPad*%
%ADD13R,1.600000X1.600000*%
%TD*%
%TA.AperFunction,ComponentPad*%
%ADD14R,3.500000X3.500000*%
%TD*%
%TA.AperFunction,ComponentPad*%
%ADD15R,2.000000X2.000000*%
%TD*%
%TA.AperFunction,ComponentPad*%
%ADD16C,2.000000*%
%TD*%
%TA.AperFunction,ComponentPad*%
%ADD17R,2.000000X3.200000*%
%TD*%
%TA.AperFunction,ViaPad*%
%ADD18C,0.635000*%
%TD*%
%TA.AperFunction,ViaPad*%
%ADD19C,0.800000*%
%TD*%
%TA.AperFunction,Conductor*%
%ADD20C,0.381000*%
%TD*%
%TA.AperFunction,Conductor*%
%ADD21C,0.254000*%
%TD*%
%TA.AperFunction,Conductor*%
%ADD22C,0.100000*%
%TD*%
G04 APERTURE END LIST*
D10*
%TO.P,J2,6*%
%TO.N,GND*%
X142240000Y-88900000D03*
%TO.P,J2,5*%
%TO.N,Net-(J2-Pad5)*%
X139700000Y-88900000D03*
%TO.P,J2,4*%
%TO.N,MOSI*%
X142240000Y-86360000D03*
%TO.P,J2,3*%
%TO.N,SCK*%
X139700000Y-86360000D03*
%TO.P,J2,2*%
%TO.N,+5V*%
X142240000Y-83820000D03*
D11*
%TO.P,J2,1*%
%TO.N,MISO*%
X139700000Y-83820000D03*
%TD*%
D12*
%TO.P,U1,28*%
%TO.N,Net-(U1-Pad28)*%
X132080000Y-90170000D03*
%TO.P,U1,14*%
%TO.N,Net-(U1-Pad14)*%
X99060000Y-82550000D03*
%TO.P,U1,27*%
%TO.N,Net-(U1-Pad27)*%
X129540000Y-90170000D03*
%TO.P,U1,13*%
%TO.N,Net-(U1-Pad13)*%
X101600000Y-82550000D03*
%TO.P,U1,26*%
%TO.N,Net-(U1-Pad26)*%
X127000000Y-90170000D03*
%TO.P,U1,12*%
%TO.N,Net-(U1-Pad12)*%
X104140000Y-82550000D03*
%TO.P,U1,25*%
%TO.N,Net-(U1-Pad25)*%
X124460000Y-90170000D03*
%TO.P,U1,11*%
%TO.N,Net-(U1-Pad11)*%
X106680000Y-82550000D03*
%TO.P,U1,24*%
%TO.N,Net-(U1-Pad24)*%
X121920000Y-90170000D03*
%TO.P,U1,10*%
%TO.N,Net-(C6-Pad2)*%
X109220000Y-82550000D03*
%TO.P,U1,23*%
%TO.N,Net-(U1-Pad23)*%
X119380000Y-90170000D03*
%TO.P,U1,9*%
%TO.N,Net-(C5-Pad2)*%
X111760000Y-82550000D03*
%TO.P,U1,22*%
%TO.N,GND*%
X116840000Y-90170000D03*
%TO.P,U1,8*%
X114300000Y-82550000D03*
%TO.P,U1,21*%
%TO.N,Net-(U1-Pad21)*%
X114300000Y-90170000D03*
%TO.P,U1,7*%
%TO.N,+5V*%
X116840000Y-82550000D03*
%TO.P,U1,20*%
%TO.N,Net-(U1-Pad20)*%
X111760000Y-90170000D03*
%TO.P,U1,6*%
%TO.N,Net-(U1-Pad6)*%
X119380000Y-82550000D03*
%TO.P,U1,19*%
%TO.N,Net-(U1-Pad19)*%
X109220000Y-90170000D03*
%TO.P,U1,5*%
%TO.N,Net-(U1-Pad5)*%
X121920000Y-82550000D03*
%TO.P,U1,18*%
%TO.N,Net-(U1-Pad18)*%
X106680000Y-90170000D03*
%TO.P,U1,4*%
%TO.N,Net-(U1-Pad4)*%
X124460000Y-82550000D03*
%TO.P,U1,17*%
%TO.N,Net-(U1-Pad17)*%
X104140000Y-90170000D03*
%TO.P,U1,3*%
%TO.N,Net-(SW1-PadB)*%
X127000000Y-82550000D03*
%TO.P,U1,16*%
%TO.N,Net-(U1-Pad16)*%
X101600000Y-90170000D03*
%TO.P,U1,2*%
%TO.N,Net-(SW1-PadA)*%
X129540000Y-82550000D03*
%TO.P,U1,15*%
%TO.N,Net-(U1-Pad15)*%
X99060000Y-90170000D03*
D13*
%TO.P,U1,1*%
%TO.N,Net-(J2-Pad5)*%
X132080000Y-82550000D03*
%TD*%
%TO.P,J1,3*%
%TO.N,N/C*%
%TA.AperFunction,ComponentPad*%
G36*
G01*
X70625000Y-61290000D02*
X72375000Y-61290000D01*
G75*
G02*
X73250000Y-62165000I0J-875000D01*
G01*
X73250000Y-63915000D01*
G75*
G02*
X72375000Y-64790000I-875000J0D01*
G01*
X70625000Y-64790000D01*
G75*
G02*
X69750000Y-63915000I0J875000D01*
G01*
X69750000Y-62165000D01*
G75*
G02*
X70625000Y-61290000I875000J0D01*
G01*
G37*
%TD.AperFunction*%
%TO.P,J1,2*%
%TO.N,GND*%
%TA.AperFunction,ComponentPad*%
G36*
G01*
X75200000Y-58540000D02*
X77200000Y-58540000D01*
G75*
G02*
X77950000Y-59290000I0J-750000D01*
G01*
X77950000Y-60790000D01*
G75*
G02*
X77200000Y-61540000I-750000J0D01*
G01*
X75200000Y-61540000D01*
G75*
G02*
X74450000Y-60790000I0J750000D01*
G01*
X74450000Y-59290000D01*
G75*
G02*
X75200000Y-58540000I750000J0D01*
G01*
G37*
%TD.AperFunction*%
D14*
%TO.P,J1,1*%
%TO.N,+VDC*%
X76200000Y-66040000D03*
%TD*%
D15*
%TO.P,SW1,A*%
%TO.N,Net-(SW1-PadA)*%
X123190000Y-100450000D03*
D16*
%TO.P,SW1,C*%
%TO.N,GND*%
X120690000Y-100450000D03*
%TO.P,SW1,B*%
%TO.N,Net-(SW1-PadB)*%
X118190000Y-100450000D03*
D17*
%TO.P,SW1,MP*%
%TO.N,N/C*%
X126290000Y-107950000D03*
X115090000Y-107950000D03*
D16*
%TO.P,SW1,S2*%
%TO.N,Net-(SW1-PadS2)*%
X123190000Y-114950000D03*
%TO.P,SW1,S1*%
%TO.N,Net-(SW1-PadS1)*%
X118190000Y-114950000D03*
%TD*%
D18*
%TO.N,/7seg/SEG6*%
X129540000Y-70485000D03*
X121920000Y-70485000D03*
X114300000Y-70485000D03*
%TO.N,/7seg/SEG4*%
X125222000Y-68580000D03*
X117602000Y-68580000D03*
X109982000Y-68580000D03*
D19*
%TO.N,/7seg/SEG2*%
X90678000Y-70485000D03*
D18*
X101600000Y-67945000D03*
X109347000Y-67945000D03*
X125857000Y-67945000D03*
X119634000Y-67945000D03*
D19*
%TO.N,/7seg/SEG3*%
X86868000Y-69850000D03*
D18*
X103040000Y-67267000D03*
X110617000Y-67310000D03*
X118237000Y-67310000D03*
X127381000Y-67310000D03*
D19*
%TO.N,/7seg/SEG0*%
X90678000Y-71755000D03*
D18*
X104470200Y-71755000D03*
X130302000Y-71755000D03*
X114985800Y-71755000D03*
X122656600Y-71755000D03*
D19*
%TO.N,/7seg/SEG8*%
X92202000Y-72390000D03*
D18*
X105892600Y-71120000D03*
X113538000Y-71120000D03*
X121158000Y-71120000D03*
X128905000Y-71120000D03*
D19*
%TO.N,/7seg/SEG7*%
X96012000Y-71755000D03*
X96012000Y-71755000D03*
D18*
X107340400Y-69850000D03*
X114935000Y-69850000D03*
X122555000Y-69850000D03*
X130175000Y-69850000D03*
D19*
%TO.N,/7seg/SEG1*%
X86868000Y-71120000D03*
D18*
X107340400Y-72390000D03*
X112141000Y-72390000D03*
X123571000Y-72390000D03*
X115951000Y-72390000D03*
D19*
%TO.N,/7seg/SEG6*%
X92202000Y-71120000D03*
X96012000Y-73025000D03*
D18*
X106680000Y-70485000D03*
D19*
%TO.N,/7seg/SEG5*%
X96012000Y-70485000D03*
D18*
X103047800Y-69215000D03*
X110744000Y-69215000D03*
X118237000Y-69215000D03*
X125984000Y-69215000D03*
D19*
%TO.N,/7seg/SEG4*%
X92202000Y-69850000D03*
D18*
X102362000Y-68580000D03*
%TO.N,/7seg/CLK*%
X83820000Y-70485000D03*
%TO.N,/7seg/DIN*%
X81915000Y-70485000D03*
%TD*%
D20*
%TO.N,/7seg/SEG2*%
X90678000Y-70485000D02*
X90678000Y-68707000D01*
X90678000Y-68707000D02*
X91440000Y-67945000D01*
X91440000Y-67945000D02*
X101219000Y-67945000D01*
X101219000Y-67945000D02*
X101600000Y-67945000D01*
X101600000Y-67945000D02*
X109347000Y-67945000D01*
X119634000Y-67945000D02*
X125857000Y-67945000D01*
X109347000Y-67945000D02*
X119634000Y-67945000D01*
%TO.N,/7seg/SEG3*%
X86868000Y-69850000D02*
X86868000Y-68072000D01*
X86868000Y-68072000D02*
X87630000Y-67310000D01*
X87630000Y-67310000D02*
X102616000Y-67310000D01*
X102616000Y-67310000D02*
X110617000Y-67310000D01*
X110617000Y-67310000D02*
X118237000Y-67310000D01*
X118237000Y-67310000D02*
X127381000Y-67310000D01*
%TO.N,/7seg/SEG0*%
X96012000Y-75565000D02*
X93726000Y-75565000D01*
X90678000Y-72517000D02*
X90678000Y-71755000D01*
X93726000Y-75565000D02*
X90678000Y-72517000D01*
X96012000Y-75565000D02*
X99822000Y-71755000D01*
X99822000Y-71755000D02*
X104470200Y-71755000D01*
X104470200Y-71755000D02*
X114985800Y-71755000D01*
X122656600Y-71755000D02*
X130302000Y-71755000D01*
X114985800Y-71755000D02*
X122656600Y-71755000D01*
%TO.N,/7seg/SEG8*%
X94107000Y-74295000D02*
X96012000Y-74295000D01*
X92202000Y-72390000D02*
X94107000Y-74295000D01*
X96012000Y-74295000D02*
X99187000Y-71120000D01*
X99187000Y-71120000D02*
X105892600Y-71120000D01*
X105892600Y-71120000D02*
X113538000Y-71120000D01*
X113538000Y-71120000D02*
X121158000Y-71120000D01*
X121158000Y-71120000D02*
X128905000Y-71120000D01*
%TO.N,/7seg/SEG7*%
X96012000Y-71755000D02*
X97917000Y-69850000D01*
X97917000Y-69850000D02*
X107340400Y-69850000D01*
X107340400Y-69850000D02*
X114935000Y-69850000D01*
X114935000Y-69850000D02*
X122555000Y-69850000D01*
X122555000Y-69850000D02*
X130175000Y-69850000D01*
%TO.N,/7seg/SEG1*%
X96012000Y-76835000D02*
X90043000Y-76835000D01*
X86868000Y-73660000D02*
X86868000Y-71120000D01*
X90043000Y-76835000D02*
X86868000Y-73660000D01*
X96012000Y-76835000D02*
X100457000Y-72390000D01*
X100457000Y-72390000D02*
X107340400Y-72390000D01*
X107340400Y-72390000D02*
X112141000Y-72390000D01*
X115951000Y-72390000D02*
X123571000Y-72390000D01*
X112141000Y-72390000D02*
X115951000Y-72390000D01*
%TO.N,/7seg/SEG6*%
X92202000Y-71120000D02*
X94107000Y-73025000D01*
X94107000Y-73025000D02*
X96012000Y-73025000D01*
X96012000Y-73025000D02*
X98552000Y-70485000D01*
X106680000Y-70485000D02*
X128778000Y-70485000D01*
X98552000Y-70485000D02*
X106680000Y-70485000D01*
X129540000Y-70485000D02*
X128778000Y-70485000D01*
%TO.N,/7seg/SEG5*%
X96012000Y-70485000D02*
X97282000Y-69215000D01*
X97282000Y-69215000D02*
X103047800Y-69215000D01*
X103047800Y-69215000D02*
X110744000Y-69215000D01*
X110744000Y-69215000D02*
X118237000Y-69215000D01*
X118237000Y-69215000D02*
X125984000Y-69215000D01*
%TO.N,/7seg/SEG4*%
X92202000Y-69850000D02*
X93472000Y-68580000D01*
X93472000Y-68580000D02*
X102362000Y-68580000D01*
X102362000Y-68580000D02*
X125222000Y-68580000D01*
%TD*%
D21*
%TO.N,GND*%
X140704470Y-56614617D02*
X141687898Y-56831739D01*
X142629675Y-57188546D01*
X143510095Y-57677575D01*
X144310687Y-58288569D01*
X145014694Y-59008732D01*
X145607370Y-59822987D01*
X146076296Y-60714269D01*
X146411647Y-61663900D01*
X146607127Y-62655692D01*
X146660000Y-63520164D01*
X146660001Y-114276080D01*
X146585382Y-115304470D01*
X146368262Y-116287896D01*
X146011454Y-117229675D01*
X145522424Y-118110095D01*
X144911435Y-118910684D01*
X144191268Y-119614694D01*
X143377013Y-120207370D01*
X142485731Y-120676296D01*
X141536099Y-121011647D01*
X140544309Y-121207127D01*
X139679835Y-121260000D01*
X63523906Y-121260000D01*
X62495530Y-121185382D01*
X61512104Y-120968262D01*
X60570325Y-120611454D01*
X59689905Y-120122424D01*
X58889316Y-119511435D01*
X58185306Y-118791268D01*
X57592630Y-117977013D01*
X57123704Y-117085731D01*
X56788353Y-116136099D01*
X56592873Y-115144309D01*
X56540000Y-114279835D01*
X56540000Y-114079872D01*
X61265000Y-114079872D01*
X61265000Y-114520128D01*
X61350890Y-114951925D01*
X61519369Y-115358669D01*
X61763962Y-115724729D01*
X62075271Y-116036038D01*
X62441331Y-116280631D01*
X62848075Y-116449110D01*
X63279872Y-116535000D01*
X63720128Y-116535000D01*
X64151925Y-116449110D01*
X64558669Y-116280631D01*
X64924729Y-116036038D01*
X65236038Y-115724729D01*
X65480631Y-115358669D01*
X65649110Y-114951925D01*
X65681524Y-114788967D01*
X116555000Y-114788967D01*
X116555000Y-115111033D01*
X116617832Y-115426912D01*
X116741082Y-115724463D01*
X116920013Y-115992252D01*
X117147748Y-116219987D01*
X117415537Y-116398918D01*
X117713088Y-116522168D01*
X118028967Y-116585000D01*
X118351033Y-116585000D01*
X118666912Y-116522168D01*
X118964463Y-116398918D01*
X119232252Y-116219987D01*
X119459987Y-115992252D01*
X119638918Y-115724463D01*
X119762168Y-115426912D01*
X119825000Y-115111033D01*
X119825000Y-114788967D01*
X121555000Y-114788967D01*
X121555000Y-115111033D01*
X121617832Y-115426912D01*
X121741082Y-115724463D01*
X121920013Y-115992252D01*
X122147748Y-116219987D01*
X122415537Y-116398918D01*
X122713088Y-116522168D01*
X123028967Y-116585000D01*
X123351033Y-116585000D01*
X123666912Y-116522168D01*
X123964463Y-116398918D01*
X124232252Y-116219987D01*
X124459987Y-115992252D01*
X124638918Y-115724463D01*
X124762168Y-115426912D01*
X124825000Y-115111033D01*
X124825000Y-114788967D01*
X124762168Y-114473088D01*
X124638918Y-114175537D01*
X124574997Y-114079872D01*
X137465000Y-114079872D01*
X137465000Y-114520128D01*
X137550890Y-114951925D01*
X137719369Y-115358669D01*
X137963962Y-115724729D01*
X138275271Y-116036038D01*
X138641331Y-116280631D01*
X139048075Y-116449110D01*
X139479872Y-116535000D01*
X139920128Y-116535000D01*
X140351925Y-116449110D01*
X140758669Y-116280631D01*
X141124729Y-116036038D01*
X141436038Y-115724729D01*
X141680631Y-115358669D01*
X141849110Y-114951925D01*
X141935000Y-114520128D01*
X141935000Y-114079872D01*
X141849110Y-113648075D01*
X141680631Y-113241331D01*
X141436038Y-112875271D01*
X141124729Y-112563962D01*
X140758669Y-112319369D01*
X140351925Y-112150890D01*
X139920128Y-112065000D01*
X139479872Y-112065000D01*
X139048075Y-112150890D01*
X138641331Y-112319369D01*
X138275271Y-112563962D01*
X137963962Y-112875271D01*
X137719369Y-113241331D01*
X137550890Y-113648075D01*
X137465000Y-114079872D01*
X124574997Y-114079872D01*
X124459987Y-113907748D01*
X124232252Y-113680013D01*
X123964463Y-113501082D01*
X123666912Y-113377832D01*
X123351033Y-113315000D01*
X123028967Y-113315000D01*
X122713088Y-113377832D01*
X122415537Y-113501082D01*
X122147748Y-113680013D01*
X121920013Y-113907748D01*
X121741082Y-114175537D01*
X121617832Y-114473088D01*
X121555000Y-114788967D01*
X119825000Y-114788967D01*
X119762168Y-114473088D01*
X119638918Y-114175537D01*
X119459987Y-113907748D01*
X119232252Y-113680013D01*
X118964463Y-113501082D01*
X118666912Y-113377832D01*
X118351033Y-113315000D01*
X118028967Y-113315000D01*
X117713088Y-113377832D01*
X117415537Y-113501082D01*
X117147748Y-113680013D01*
X116920013Y-113907748D01*
X116741082Y-114175537D01*
X116617832Y-114473088D01*
X116555000Y-114788967D01*
X65681524Y-114788967D01*
X65735000Y-114520128D01*
X65735000Y-114079872D01*
X65649110Y-113648075D01*
X65480631Y-113241331D01*
X65236038Y-112875271D01*
X64924729Y-112563962D01*
X64558669Y-112319369D01*
X64151925Y-112150890D01*
X63720128Y-112065000D01*
X63279872Y-112065000D01*
X62848075Y-112150890D01*
X62441331Y-112319369D01*
X62075271Y-112563962D01*
X61763962Y-112875271D01*
X61519369Y-113241331D01*
X61350890Y-113648075D01*
X61265000Y-114079872D01*
X56540000Y-114079872D01*
X56540000Y-106350000D01*
X113451928Y-106350000D01*
X113451928Y-109550000D01*
X113464188Y-109674482D01*
X113500498Y-109794180D01*
X113559463Y-109904494D01*
X113638815Y-110001185D01*
X113735506Y-110080537D01*
X113845820Y-110139502D01*
X113965518Y-110175812D01*
X114090000Y-110188072D01*
X116090000Y-110188072D01*
X116214482Y-110175812D01*
X116334180Y-110139502D01*
X116444494Y-110080537D01*
X116541185Y-110001185D01*
X116620537Y-109904494D01*
X116679502Y-109794180D01*
X116715812Y-109674482D01*
X116728072Y-109550000D01*
X116728072Y-106350000D01*
X124651928Y-106350000D01*
X124651928Y-109550000D01*
X124664188Y-109674482D01*
X124700498Y-109794180D01*
X124759463Y-109904494D01*
X124838815Y-110001185D01*
X124935506Y-110080537D01*
X125045820Y-110139502D01*
X125165518Y-110175812D01*
X125290000Y-110188072D01*
X127290000Y-110188072D01*
X127414482Y-110175812D01*
X127534180Y-110139502D01*
X127644494Y-110080537D01*
X127741185Y-110001185D01*
X127820537Y-109904494D01*
X127879502Y-109794180D01*
X127915812Y-109674482D01*
X127928072Y-109550000D01*
X127928072Y-106350000D01*
X127915812Y-106225518D01*
X127879502Y-106105820D01*
X127820537Y-105995506D01*
X127741185Y-105898815D01*
X127644494Y-105819463D01*
X127534180Y-105760498D01*
X127414482Y-105724188D01*
X127290000Y-105711928D01*
X125290000Y-105711928D01*
X125165518Y-105724188D01*
X125045820Y-105760498D01*
X124935506Y-105819463D01*
X124838815Y-105898815D01*
X124759463Y-105995506D01*
X124700498Y-106105820D01*
X124664188Y-106225518D01*
X124651928Y-106350000D01*
X116728072Y-106350000D01*
X116715812Y-106225518D01*
X116679502Y-106105820D01*
X116620537Y-105995506D01*
X116541185Y-105898815D01*
X116444494Y-105819463D01*
X116334180Y-105760498D01*
X116214482Y-105724188D01*
X116090000Y-105711928D01*
X114090000Y-105711928D01*
X113965518Y-105724188D01*
X113845820Y-105760498D01*
X113735506Y-105819463D01*
X113638815Y-105898815D01*
X113559463Y-105995506D01*
X113500498Y-106105820D01*
X113464188Y-106225518D01*
X113451928Y-106350000D01*
X56540000Y-106350000D01*
X56540000Y-100288967D01*
X116555000Y-100288967D01*
X116555000Y-100611033D01*
X116617832Y-100926912D01*
X116741082Y-101224463D01*
X116920013Y-101492252D01*
X117147748Y-101719987D01*
X117415537Y-101898918D01*
X117713088Y-102022168D01*
X118028967Y-102085000D01*
X118351033Y-102085000D01*
X118666912Y-102022168D01*
X118964463Y-101898918D01*
X119232252Y-101719987D01*
X119459987Y-101492252D01*
X119524925Y-101395065D01*
X119554587Y-101405808D01*
X120510395Y-100450000D01*
X119554587Y-99494192D01*
X119524925Y-99504935D01*
X119459987Y-99407748D01*
X119366826Y-99314587D01*
X119734192Y-99314587D01*
X120690000Y-100270395D01*
X120704143Y-100256253D01*
X120883748Y-100435858D01*
X120869605Y-100450000D01*
X120883748Y-100464143D01*
X120704143Y-100643748D01*
X120690000Y-100629605D01*
X119734192Y-101585413D01*
X119829956Y-101849814D01*
X120119571Y-101990704D01*
X120431108Y-102072384D01*
X120752595Y-102091718D01*
X121071675Y-102047961D01*
X121376088Y-101942795D01*
X121550044Y-101849814D01*
X121604024Y-101700777D01*
X121659463Y-101804494D01*
X121738815Y-101901185D01*
X121835506Y-101980537D01*
X121945820Y-102039502D01*
X122065518Y-102075812D01*
X122190000Y-102088072D01*
X124190000Y-102088072D01*
X124314482Y-102075812D01*
X124434180Y-102039502D01*
X124544494Y-101980537D01*
X124641185Y-101901185D01*
X124720537Y-101804494D01*
X124779502Y-101694180D01*
X124815812Y-101574482D01*
X124828072Y-101450000D01*
X124828072Y-99450000D01*
X124815812Y-99325518D01*
X124779502Y-99205820D01*
X124720537Y-99095506D01*
X124641185Y-98998815D01*
X124544494Y-98919463D01*
X124434180Y-98860498D01*
X124314482Y-98824188D01*
X124190000Y-98811928D01*
X122190000Y-98811928D01*
X122065518Y-98824188D01*
X121945820Y-98860498D01*
X121835506Y-98919463D01*
X121738815Y-98998815D01*
X121659463Y-99095506D01*
X121604024Y-99199223D01*
X121550044Y-99050186D01*
X121260429Y-98909296D01*
X120948892Y-98827616D01*
X120627405Y-98808282D01*
X120308325Y-98852039D01*
X120003912Y-98957205D01*
X119829956Y-99050186D01*
X119734192Y-99314587D01*
X119366826Y-99314587D01*
X119232252Y-99180013D01*
X118964463Y-99001082D01*
X118666912Y-98877832D01*
X118351033Y-98815000D01*
X118028967Y-98815000D01*
X117713088Y-98877832D01*
X117415537Y-99001082D01*
X117147748Y-99180013D01*
X116920013Y-99407748D01*
X116741082Y-99675537D01*
X116617832Y-99973088D01*
X116555000Y-100288967D01*
X56540000Y-100288967D01*
X56540000Y-90028665D01*
X97625000Y-90028665D01*
X97625000Y-90311335D01*
X97680147Y-90588574D01*
X97788320Y-90849727D01*
X97945363Y-91084759D01*
X98145241Y-91284637D01*
X98380273Y-91441680D01*
X98641426Y-91549853D01*
X98918665Y-91605000D01*
X99201335Y-91605000D01*
X99478574Y-91549853D01*
X99739727Y-91441680D01*
X99974759Y-91284637D01*
X100174637Y-91084759D01*
X100330000Y-90852241D01*
X100485363Y-91084759D01*
X100685241Y-91284637D01*
X100920273Y-91441680D01*
X101181426Y-91549853D01*
X101458665Y-91605000D01*
X101741335Y-91605000D01*
X102018574Y-91549853D01*
X102279727Y-91441680D01*
X102514759Y-91284637D01*
X102714637Y-91084759D01*
X102870000Y-90852241D01*
X103025363Y-91084759D01*
X103225241Y-91284637D01*
X103460273Y-91441680D01*
X103721426Y-91549853D01*
X103998665Y-91605000D01*
X104281335Y-91605000D01*
X104558574Y-91549853D01*
X104819727Y-91441680D01*
X105054759Y-91284637D01*
X105254637Y-91084759D01*
X105410000Y-90852241D01*
X105565363Y-91084759D01*
X105765241Y-91284637D01*
X106000273Y-91441680D01*
X106261426Y-91549853D01*
X106538665Y-91605000D01*
X106821335Y-91605000D01*
X107098574Y-91549853D01*
X107359727Y-91441680D01*
X107594759Y-91284637D01*
X107794637Y-91084759D01*
X107950000Y-90852241D01*
X108105363Y-91084759D01*
X108305241Y-91284637D01*
X108540273Y-91441680D01*
X108801426Y-91549853D01*
X109078665Y-91605000D01*
X109361335Y-91605000D01*
X109638574Y-91549853D01*
X109899727Y-91441680D01*
X110134759Y-91284637D01*
X110334637Y-91084759D01*
X110490000Y-90852241D01*
X110645363Y-91084759D01*
X110845241Y-91284637D01*
X111080273Y-91441680D01*
X111341426Y-91549853D01*
X111618665Y-91605000D01*
X111901335Y-91605000D01*
X112178574Y-91549853D01*
X112439727Y-91441680D01*
X112674759Y-91284637D01*
X112874637Y-91084759D01*
X113030000Y-90852241D01*
X113185363Y-91084759D01*
X113385241Y-91284637D01*
X113620273Y-91441680D01*
X113881426Y-91549853D01*
X114158665Y-91605000D01*
X114441335Y-91605000D01*
X114718574Y-91549853D01*
X114979727Y-91441680D01*
X115214759Y-91284637D01*
X115414637Y-91084759D01*
X115571680Y-90849727D01*
X115576067Y-90839135D01*
X115687615Y-91025131D01*
X115876586Y-91233519D01*
X116102580Y-91401037D01*
X116356913Y-91521246D01*
X116490961Y-91561904D01*
X116713000Y-91439915D01*
X116713000Y-90297000D01*
X116693000Y-90297000D01*
X116693000Y-90043000D01*
X116713000Y-90043000D01*
X116713000Y-88900085D01*
X116967000Y-88900085D01*
X116967000Y-90043000D01*
X116987000Y-90043000D01*
X116987000Y-90297000D01*
X116967000Y-90297000D01*
X116967000Y-91439915D01*
X117189039Y-91561904D01*
X117323087Y-91521246D01*
X117577420Y-91401037D01*
X117803414Y-91233519D01*
X117992385Y-91025131D01*
X118103933Y-90839135D01*
X118108320Y-90849727D01*
X118265363Y-91084759D01*
X118465241Y-91284637D01*
X118700273Y-91441680D01*
X118961426Y-91549853D01*
X119238665Y-91605000D01*
X119521335Y-91605000D01*
X119798574Y-91549853D01*
X120059727Y-91441680D01*
X120294759Y-91284637D01*
X120494637Y-91084759D01*
X120650000Y-90852241D01*
X120805363Y-91084759D01*
X121005241Y-91284637D01*
X121240273Y-91441680D01*
X121501426Y-91549853D01*
X121778665Y-91605000D01*
X122061335Y-91605000D01*
X122338574Y-91549853D01*
X122599727Y-91441680D01*
X122834759Y-91284637D01*
X123034637Y-91084759D01*
X123190000Y-90852241D01*
X123345363Y-91084759D01*
X123545241Y-91284637D01*
X123780273Y-91441680D01*
X124041426Y-91549853D01*
X124318665Y-91605000D01*
X124601335Y-91605000D01*
X124878574Y-91549853D01*
X125139727Y-91441680D01*
X125374759Y-91284637D01*
X125574637Y-91084759D01*
X125730000Y-90852241D01*
X125885363Y-91084759D01*
X126085241Y-91284637D01*
X126320273Y-91441680D01*
X126581426Y-91549853D01*
X126858665Y-91605000D01*
X127141335Y-91605000D01*
X127418574Y-91549853D01*
X127679727Y-91441680D01*
X127914759Y-91284637D01*
X128114637Y-91084759D01*
X128270000Y-90852241D01*
X128425363Y-91084759D01*
X128625241Y-91284637D01*
X128860273Y-91441680D01*
X129121426Y-91549853D01*
X129398665Y-91605000D01*
X129681335Y-91605000D01*
X129958574Y-91549853D01*
X130219727Y-91441680D01*
X130454759Y-91284637D01*
X130654637Y-91084759D01*
X130810000Y-90852241D01*
X130965363Y-91084759D01*
X131165241Y-91284637D01*
X131400273Y-91441680D01*
X131661426Y-91549853D01*
X131938665Y-91605000D01*
X132221335Y-91605000D01*
X132498574Y-91549853D01*
X132759727Y-91441680D01*
X132994759Y-91284637D01*
X133194637Y-91084759D01*
X133351680Y-90849727D01*
X133459853Y-90588574D01*
X133515000Y-90311335D01*
X133515000Y-90028665D01*
X133459853Y-89751426D01*
X133351680Y-89490273D01*
X133194637Y-89255241D01*
X132994759Y-89055363D01*
X132759727Y-88898320D01*
X132498574Y-88790147D01*
X132221335Y-88735000D01*
X131938665Y-88735000D01*
X131661426Y-88790147D01*
X131400273Y-88898320D01*
X131165241Y-89055363D01*
X130965363Y-89255241D01*
X130810000Y-89487759D01*
X130654637Y-89255241D01*
X130454759Y-89055363D01*
X130219727Y-88898320D01*
X129958574Y-88790147D01*
X129681335Y-88735000D01*
X129398665Y-88735000D01*
X129121426Y-88790147D01*
X128860273Y-88898320D01*
X128625241Y-89055363D01*
X128425363Y-89255241D01*
X128270000Y-89487759D01*
X128114637Y-89255241D01*
X127914759Y-89055363D01*
X127679727Y-88898320D01*
X127418574Y-88790147D01*
X127141335Y-88735000D01*
X126858665Y-88735000D01*
X126581426Y-88790147D01*
X126320273Y-88898320D01*
X126085241Y-89055363D01*
X125885363Y-89255241D01*
X125730000Y-89487759D01*
X125574637Y-89255241D01*
X125374759Y-89055363D01*
X125139727Y-88898320D01*
X124878574Y-88790147D01*
X124601335Y-88735000D01*
X124318665Y-88735000D01*
X124041426Y-88790147D01*
X123780273Y-88898320D01*
X123545241Y-89055363D01*
X123345363Y-89255241D01*
X123190000Y-89487759D01*
X123034637Y-89255241D01*
X122834759Y-89055363D01*
X122599727Y-88898320D01*
X122338574Y-88790147D01*
X122061335Y-88735000D01*
X121778665Y-88735000D01*
X121501426Y-88790147D01*
X121240273Y-88898320D01*
X121005241Y-89055363D01*
X120805363Y-89255241D01*
X120650000Y-89487759D01*
X120494637Y-89255241D01*
X120294759Y-89055363D01*
X120059727Y-88898320D01*
X119798574Y-88790147D01*
X119521335Y-88735000D01*
X119238665Y-88735000D01*
X118961426Y-88790147D01*
X118700273Y-88898320D01*
X118465241Y-89055363D01*
X118265363Y-89255241D01*
X118108320Y-89490273D01*
X118103933Y-89500865D01*
X117992385Y-89314869D01*
X117803414Y-89106481D01*
X117577420Y-88938963D01*
X117323087Y-88818754D01*
X117189039Y-88778096D01*
X116967000Y-88900085D01*
X116713000Y-88900085D01*
X116490961Y-88778096D01*
X116356913Y-88818754D01*
X116102580Y-88938963D01*
X115876586Y-89106481D01*
X115687615Y-89314869D01*
X115576067Y-89500865D01*
X115571680Y-89490273D01*
X115414637Y-89255241D01*
X115214759Y-89055363D01*
X114979727Y-88898320D01*
X114718574Y-88790147D01*
X114441335Y-88735000D01*
X114158665Y-88735000D01*
X113881426Y-88790147D01*
X113620273Y-88898320D01*
X113385241Y-89055363D01*
X113185363Y-89255241D01*
X113030000Y-89487759D01*
X112874637Y-89255241D01*
X112674759Y-89055363D01*
X112439727Y-88898320D01*
X112178574Y-88790147D01*
X111901335Y-88735000D01*
X111618665Y-88735000D01*
X111341426Y-88790147D01*
X111080273Y-88898320D01*
X110845241Y-89055363D01*
X110645363Y-89255241D01*
X110490000Y-89487759D01*
X110334637Y-89255241D01*
X110134759Y-89055363D01*
X109899727Y-88898320D01*
X109638574Y-88790147D01*
X109361335Y-88735000D01*
X109078665Y-88735000D01*
X108801426Y-88790147D01*
X108540273Y-88898320D01*
X108305241Y-89055363D01*
X108105363Y-89255241D01*
X107950000Y-89487759D01*
X107794637Y-89255241D01*
X107594759Y-89055363D01*
X107359727Y-88898320D01*
X107098574Y-88790147D01*
X106821335Y-88735000D01*
X106538665Y-88735000D01*
X106261426Y-88790147D01*
X106000273Y-88898320D01*
X105765241Y-89055363D01*
X105565363Y-89255241D01*
X105410000Y-89487759D01*
X105254637Y-89255241D01*
X105054759Y-89055363D01*
X104819727Y-88898320D01*
X104558574Y-88790147D01*
X104281335Y-88735000D01*
X103998665Y-88735000D01*
X103721426Y-88790147D01*
X103460273Y-88898320D01*
X103225241Y-89055363D01*
X103025363Y-89255241D01*
X102870000Y-89487759D01*
X102714637Y-89255241D01*
X102514759Y-89055363D01*
X102279727Y-88898320D01*
X102018574Y-88790147D01*
X101741335Y-88735000D01*
X101458665Y-88735000D01*
X101181426Y-88790147D01*
X100920273Y-88898320D01*
X100685241Y-89055363D01*
X100485363Y-89255241D01*
X100330000Y-89487759D01*
X100174637Y-89255241D01*
X99974759Y-89055363D01*
X99739727Y-88898320D01*
X99478574Y-88790147D01*
X99201335Y-88735000D01*
X98918665Y-88735000D01*
X98641426Y-88790147D01*
X98380273Y-88898320D01*
X98145241Y-89055363D01*
X97945363Y-89255241D01*
X97788320Y-89490273D01*
X97680147Y-89751426D01*
X97625000Y-90028665D01*
X56540000Y-90028665D01*
X56540000Y-82408665D01*
X97625000Y-82408665D01*
X97625000Y-82691335D01*
X97680147Y-82968574D01*
X97788320Y-83229727D01*
X97945363Y-83464759D01*
X98145241Y-83664637D01*
X98380273Y-83821680D01*
X98641426Y-83929853D01*
X98918665Y-83985000D01*
X99201335Y-83985000D01*
X99478574Y-83929853D01*
X99739727Y-83821680D01*
X99974759Y-83664637D01*
X100174637Y-83464759D01*
X100330000Y-83232241D01*
X100485363Y-83464759D01*
X100685241Y-83664637D01*
X100920273Y-83821680D01*
X101181426Y-83929853D01*
X101458665Y-83985000D01*
X101741335Y-83985000D01*
X102018574Y-83929853D01*
X102279727Y-83821680D01*
X102514759Y-83664637D01*
X102714637Y-83464759D01*
X102870000Y-83232241D01*
X103025363Y-83464759D01*
X103225241Y-83664637D01*
X103460273Y-83821680D01*
X103721426Y-83929853D01*
X103998665Y-83985000D01*
X104281335Y-83985000D01*
X104558574Y-83929853D01*
X104819727Y-83821680D01*
X105054759Y-83664637D01*
X105254637Y-83464759D01*
X105410000Y-83232241D01*
X105565363Y-83464759D01*
X105765241Y-83664637D01*
X106000273Y-83821680D01*
X106261426Y-83929853D01*
X106538665Y-83985000D01*
X106821335Y-83985000D01*
X107098574Y-83929853D01*
X107359727Y-83821680D01*
X107594759Y-83664637D01*
X107794637Y-83464759D01*
X107950000Y-83232241D01*
X108105363Y-83464759D01*
X108305241Y-83664637D01*
X108540273Y-83821680D01*
X108801426Y-83929853D01*
X109078665Y-83985000D01*
X109361335Y-83985000D01*
X109638574Y-83929853D01*
X109899727Y-83821680D01*
X110134759Y-83664637D01*
X110334637Y-83464759D01*
X110490000Y-83232241D01*
X110645363Y-83464759D01*
X110845241Y-83664637D01*
X111080273Y-83821680D01*
X111341426Y-83929853D01*
X111618665Y-83985000D01*
X111901335Y-83985000D01*
X112178574Y-83929853D01*
X112439727Y-83821680D01*
X112674759Y-83664637D01*
X112874637Y-83464759D01*
X113031680Y-83229727D01*
X113036067Y-83219135D01*
X113147615Y-83405131D01*
X113336586Y-83613519D01*
X113562580Y-83781037D01*
X113816913Y-83901246D01*
X113950961Y-83941904D01*
X114173000Y-83819915D01*
X114173000Y-82677000D01*
X114153000Y-82677000D01*
X114153000Y-82423000D01*
X114173000Y-82423000D01*
X114173000Y-81280085D01*
X114427000Y-81280085D01*
X114427000Y-82423000D01*
X114447000Y-82423000D01*
X114447000Y-82677000D01*
X114427000Y-82677000D01*
X114427000Y-83819915D01*
X114649039Y-83941904D01*
X114783087Y-83901246D01*
X115037420Y-83781037D01*
X115263414Y-83613519D01*
X115452385Y-83405131D01*
X115563933Y-83219135D01*
X115568320Y-83229727D01*
X115725363Y-83464759D01*
X115925241Y-83664637D01*
X116160273Y-83821680D01*
X116421426Y-83929853D01*
X116698665Y-83985000D01*
X116981335Y-83985000D01*
X117258574Y-83929853D01*
X117519727Y-83821680D01*
X117754759Y-83664637D01*
X117954637Y-83464759D01*
X118110000Y-83232241D01*
X118265363Y-83464759D01*
X118465241Y-83664637D01*
X118700273Y-83821680D01*
X118961426Y-83929853D01*
X119238665Y-83985000D01*
X119521335Y-83985000D01*
X119798574Y-83929853D01*
X120059727Y-83821680D01*
X120294759Y-83664637D01*
X120494637Y-83464759D01*
X120650000Y-83232241D01*
X120805363Y-83464759D01*
X121005241Y-83664637D01*
X121240273Y-83821680D01*
X121501426Y-83929853D01*
X121778665Y-83985000D01*
X122061335Y-83985000D01*
X122338574Y-83929853D01*
X122599727Y-83821680D01*
X122834759Y-83664637D01*
X123034637Y-83464759D01*
X123190000Y-83232241D01*
X123345363Y-83464759D01*
X123545241Y-83664637D01*
X123780273Y-83821680D01*
X124041426Y-83929853D01*
X124318665Y-83985000D01*
X124601335Y-83985000D01*
X124878574Y-83929853D01*
X125139727Y-83821680D01*
X125374759Y-83664637D01*
X125574637Y-83464759D01*
X125730000Y-83232241D01*
X125885363Y-83464759D01*
X126085241Y-83664637D01*
X126320273Y-83821680D01*
X126581426Y-83929853D01*
X126858665Y-83985000D01*
X127141335Y-83985000D01*
X127418574Y-83929853D01*
X127679727Y-83821680D01*
X127914759Y-83664637D01*
X128114637Y-83464759D01*
X128270000Y-83232241D01*
X128425363Y-83464759D01*
X128625241Y-83664637D01*
X128860273Y-83821680D01*
X129121426Y-83929853D01*
X129398665Y-83985000D01*
X129681335Y-83985000D01*
X129958574Y-83929853D01*
X130219727Y-83821680D01*
X130454759Y-83664637D01*
X130653357Y-83466039D01*
X130654188Y-83474482D01*
X130690498Y-83594180D01*
X130749463Y-83704494D01*
X130828815Y-83801185D01*
X130925506Y-83880537D01*
X131035820Y-83939502D01*
X131155518Y-83975812D01*
X131280000Y-83988072D01*
X132880000Y-83988072D01*
X133004482Y-83975812D01*
X133124180Y-83939502D01*
X133234494Y-83880537D01*
X133331185Y-83801185D01*
X133410537Y-83704494D01*
X133469502Y-83594180D01*
X133505812Y-83474482D01*
X133518072Y-83350000D01*
X133518072Y-82970000D01*
X138211928Y-82970000D01*
X138211928Y-84670000D01*
X138224188Y-84794482D01*
X138260498Y-84914180D01*
X138319463Y-85024494D01*
X138398815Y-85121185D01*
X138495506Y-85200537D01*
X138605820Y-85259502D01*
X138678380Y-85281513D01*
X138546525Y-85413368D01*
X138384010Y-85656589D01*
X138272068Y-85926842D01*
X138215000Y-86213740D01*
X138215000Y-86506260D01*
X138272068Y-86793158D01*
X138384010Y-87063411D01*
X138546525Y-87306632D01*
X138753368Y-87513475D01*
X138927760Y-87630000D01*
X138753368Y-87746525D01*
X138546525Y-87953368D01*
X138384010Y-88196589D01*
X138272068Y-88466842D01*
X138215000Y-88753740D01*
X138215000Y-89046260D01*
X138272068Y-89333158D01*
X138384010Y-89603411D01*
X138546525Y-89846632D01*
X138753368Y-90053475D01*
X138996589Y-90215990D01*
X139266842Y-90327932D01*
X139553740Y-90385000D01*
X139846260Y-90385000D01*
X140133158Y-90327932D01*
X140403411Y-90215990D01*
X140646632Y-90053475D01*
X140853475Y-89846632D01*
X140971100Y-89670594D01*
X141142412Y-89900269D01*
X141358645Y-90095178D01*
X141608748Y-90244157D01*
X141883109Y-90341481D01*
X142113000Y-90220814D01*
X142113000Y-89027000D01*
X142367000Y-89027000D01*
X142367000Y-90220814D01*
X142596891Y-90341481D01*
X142871252Y-90244157D01*
X143121355Y-90095178D01*
X143337588Y-89900269D01*
X143511641Y-89666920D01*
X143636825Y-89404099D01*
X143681476Y-89256890D01*
X143560155Y-89027000D01*
X142367000Y-89027000D01*
X142113000Y-89027000D01*
X142093000Y-89027000D01*
X142093000Y-88773000D01*
X142113000Y-88773000D01*
X142113000Y-88753000D01*
X142367000Y-88753000D01*
X142367000Y-88773000D01*
X143560155Y-88773000D01*
X143681476Y-88543110D01*
X143636825Y-88395901D01*
X143511641Y-88133080D01*
X143337588Y-87899731D01*
X143121355Y-87704822D01*
X143004466Y-87635195D01*
X143186632Y-87513475D01*
X143393475Y-87306632D01*
X143555990Y-87063411D01*
X143667932Y-86793158D01*
X143725000Y-86506260D01*
X143725000Y-86213740D01*
X143667932Y-85926842D01*
X143555990Y-85656589D01*
X143393475Y-85413368D01*
X143186632Y-85206525D01*
X143012240Y-85090000D01*
X143186632Y-84973475D01*
X143393475Y-84766632D01*
X143555990Y-84523411D01*
X143667932Y-84253158D01*
X143725000Y-83966260D01*
X143725000Y-83673740D01*
X143667932Y-83386842D01*
X143555990Y-83116589D01*
X143393475Y-82873368D01*
X143186632Y-82666525D01*
X142943411Y-82504010D01*
X142673158Y-82392068D01*
X142386260Y-82335000D01*
X142093740Y-82335000D01*
X141806842Y-82392068D01*
X141536589Y-82504010D01*
X141293368Y-82666525D01*
X141161513Y-82798380D01*
X141139502Y-82725820D01*
X141080537Y-82615506D01*
X141001185Y-82518815D01*
X140904494Y-82439463D01*
X140794180Y-82380498D01*
X140674482Y-82344188D01*
X140550000Y-82331928D01*
X138850000Y-82331928D01*
X138725518Y-82344188D01*
X138605820Y-82380498D01*
X138495506Y-82439463D01*
X138398815Y-82518815D01*
X138319463Y-82615506D01*
X138260498Y-82725820D01*
X138224188Y-82845518D01*
X138211928Y-82970000D01*
X133518072Y-82970000D01*
X133518072Y-81750000D01*
X133505812Y-81625518D01*
X133469502Y-81505820D01*
X133410537Y-81395506D01*
X133331185Y-81298815D01*
X133234494Y-81219463D01*
X133124180Y-81160498D01*
X133004482Y-81124188D01*
X132880000Y-81111928D01*
X131280000Y-81111928D01*
X131155518Y-81124188D01*
X131035820Y-81160498D01*
X130925506Y-81219463D01*
X130828815Y-81298815D01*
X130749463Y-81395506D01*
X130690498Y-81505820D01*
X130654188Y-81625518D01*
X130653357Y-81633961D01*
X130454759Y-81435363D01*
X130219727Y-81278320D01*
X129958574Y-81170147D01*
X129681335Y-81115000D01*
X129398665Y-81115000D01*
X129121426Y-81170147D01*
X128860273Y-81278320D01*
X128625241Y-81435363D01*
X128425363Y-81635241D01*
X128270000Y-81867759D01*
X128114637Y-81635241D01*
X127914759Y-81435363D01*
X127679727Y-81278320D01*
X127418574Y-81170147D01*
X127141335Y-81115000D01*
X126858665Y-81115000D01*
X126581426Y-81170147D01*
X126320273Y-81278320D01*
X126085241Y-81435363D01*
X125885363Y-81635241D01*
X125730000Y-81867759D01*
X125574637Y-81635241D01*
X125374759Y-81435363D01*
X125139727Y-81278320D01*
X124878574Y-81170147D01*
X124601335Y-81115000D01*
X124318665Y-81115000D01*
X124041426Y-81170147D01*
X123780273Y-81278320D01*
X123545241Y-81435363D01*
X123345363Y-81635241D01*
X123190000Y-81867759D01*
X123034637Y-81635241D01*
X122834759Y-81435363D01*
X122599727Y-81278320D01*
X122338574Y-81170147D01*
X122061335Y-81115000D01*
X121778665Y-81115000D01*
X121501426Y-81170147D01*
X121240273Y-81278320D01*
X121005241Y-81435363D01*
X120805363Y-81635241D01*
X120650000Y-81867759D01*
X120494637Y-81635241D01*
X120294759Y-81435363D01*
X120059727Y-81278320D01*
X119798574Y-81170147D01*
X119521335Y-81115000D01*
X119238665Y-81115000D01*
X118961426Y-81170147D01*
X118700273Y-81278320D01*
X118465241Y-81435363D01*
X118265363Y-81635241D01*
X118110000Y-81867759D01*
X117954637Y-81635241D01*
X117754759Y-81435363D01*
X117519727Y-81278320D01*
X117258574Y-81170147D01*
X116981335Y-81115000D01*
X116698665Y-81115000D01*
X116421426Y-81170147D01*
X116160273Y-81278320D01*
X115925241Y-81435363D01*
X115725363Y-81635241D01*
X115568320Y-81870273D01*
X115563933Y-81880865D01*
X115452385Y-81694869D01*
X115263414Y-81486481D01*
X115037420Y-81318963D01*
X114783087Y-81198754D01*
X114649039Y-81158096D01*
X114427000Y-81280085D01*
X114173000Y-81280085D01*
X113950961Y-81158096D01*
X113816913Y-81198754D01*
X113562580Y-81318963D01*
X113336586Y-81486481D01*
X113147615Y-81694869D01*
X113036067Y-81880865D01*
X113031680Y-81870273D01*
X112874637Y-81635241D01*
X112674759Y-81435363D01*
X112439727Y-81278320D01*
X112178574Y-81170147D01*
X111901335Y-81115000D01*
X111618665Y-81115000D01*
X111341426Y-81170147D01*
X111080273Y-81278320D01*
X110845241Y-81435363D01*
X110645363Y-81635241D01*
X110490000Y-81867759D01*
X110334637Y-81635241D01*
X110134759Y-81435363D01*
X109899727Y-81278320D01*
X109638574Y-81170147D01*
X109361335Y-81115000D01*
X109078665Y-81115000D01*
X108801426Y-81170147D01*
X108540273Y-81278320D01*
X108305241Y-81435363D01*
X108105363Y-81635241D01*
X107950000Y-81867759D01*
X107794637Y-81635241D01*
X107594759Y-81435363D01*
X107359727Y-81278320D01*
X107098574Y-81170147D01*
X106821335Y-81115000D01*
X106538665Y-81115000D01*
X106261426Y-81170147D01*
X106000273Y-81278320D01*
X105765241Y-81435363D01*
X105565363Y-81635241D01*
X105410000Y-81867759D01*
X105254637Y-81635241D01*
X105054759Y-81435363D01*
X104819727Y-81278320D01*
X104558574Y-81170147D01*
X104281335Y-81115000D01*
X103998665Y-81115000D01*
X103721426Y-81170147D01*
X103460273Y-81278320D01*
X103225241Y-81435363D01*
X103025363Y-81635241D01*
X102870000Y-81867759D01*
X102714637Y-81635241D01*
X102514759Y-81435363D01*
X102279727Y-81278320D01*
X102018574Y-81170147D01*
X101741335Y-81115000D01*
X101458665Y-81115000D01*
X101181426Y-81170147D01*
X100920273Y-81278320D01*
X100685241Y-81435363D01*
X100485363Y-81635241D01*
X100330000Y-81867759D01*
X100174637Y-81635241D01*
X99974759Y-81435363D01*
X99739727Y-81278320D01*
X99478574Y-81170147D01*
X99201335Y-81115000D01*
X98918665Y-81115000D01*
X98641426Y-81170147D01*
X98380273Y-81278320D01*
X98145241Y-81435363D01*
X97945363Y-81635241D01*
X97788320Y-81870273D01*
X97680147Y-82131426D01*
X97625000Y-82408665D01*
X56540000Y-82408665D01*
X56540000Y-70391187D01*
X80962500Y-70391187D01*
X80962500Y-70578813D01*
X80999104Y-70762834D01*
X81070905Y-70936178D01*
X81175145Y-71092184D01*
X81307816Y-71224855D01*
X81463822Y-71329095D01*
X81637166Y-71400896D01*
X81821187Y-71437500D01*
X82008813Y-71437500D01*
X82192834Y-71400896D01*
X82366178Y-71329095D01*
X82522184Y-71224855D01*
X82654855Y-71092184D01*
X82759095Y-70936178D01*
X82830896Y-70762834D01*
X82867500Y-70578813D01*
X82904104Y-70762834D01*
X82975905Y-70936178D01*
X83080145Y-71092184D01*
X83212816Y-71224855D01*
X83368822Y-71329095D01*
X83542166Y-71400896D01*
X83726187Y-71437500D01*
X83913813Y-71437500D01*
X84097834Y-71400896D01*
X84271178Y-71329095D01*
X84427184Y-71224855D01*
X84559855Y-71092184D01*
X84664095Y-70936178D01*
X84735896Y-70762834D01*
X84772500Y-70578813D01*
X84772500Y-70391187D01*
X84735896Y-70207166D01*
X84664095Y-70033822D01*
X84559855Y-69877816D01*
X84430100Y-69748061D01*
X85833000Y-69748061D01*
X85833000Y-69951939D01*
X85872774Y-70151898D01*
X85950795Y-70340256D01*
X86047510Y-70485000D01*
X85950795Y-70629744D01*
X85872774Y-70818102D01*
X85833000Y-71018061D01*
X85833000Y-71221939D01*
X85872774Y-71421898D01*
X85950795Y-71610256D01*
X86042501Y-71747504D01*
X86042500Y-73619449D01*
X86038506Y-73660000D01*
X86042500Y-73700550D01*
X86042500Y-73700552D01*
X86054444Y-73821825D01*
X86090961Y-73942205D01*
X86101647Y-73977433D01*
X86178301Y-74120842D01*
X86188421Y-74133173D01*
X86281459Y-74246541D01*
X86312966Y-74272398D01*
X89430606Y-77390039D01*
X89456459Y-77421541D01*
X89520596Y-77474177D01*
X89582157Y-77524699D01*
X89725566Y-77601353D01*
X89881174Y-77648556D01*
X90002447Y-77660500D01*
X90002449Y-77660500D01*
X90042999Y-77664494D01*
X90083550Y-77660500D01*
X95971450Y-77660500D01*
X96012000Y-77664494D01*
X96052550Y-77660500D01*
X96052553Y-77660500D01*
X96173826Y-77648556D01*
X96329434Y-77601353D01*
X96472842Y-77524699D01*
X96598541Y-77421541D01*
X96624398Y-77390034D01*
X100798933Y-73215500D01*
X106861393Y-73215500D01*
X106889222Y-73234095D01*
X107062566Y-73305896D01*
X107246587Y-73342500D01*
X107434213Y-73342500D01*
X107618234Y-73305896D01*
X107791578Y-73234095D01*
X107819407Y-73215500D01*
X111661993Y-73215500D01*
X111689822Y-73234095D01*
X111863166Y-73305896D01*
X112047187Y-73342500D01*
X112234813Y-73342500D01*
X112418834Y-73305896D01*
X112592178Y-73234095D01*
X112620007Y-73215500D01*
X115471993Y-73215500D01*
X115499822Y-73234095D01*
X115673166Y-73305896D01*
X115857187Y-73342500D01*
X116044813Y-73342500D01*
X116228834Y-73305896D01*
X116402178Y-73234095D01*
X116430007Y-73215500D01*
X123091993Y-73215500D01*
X123119822Y-73234095D01*
X123293166Y-73305896D01*
X123477187Y-73342500D01*
X123664813Y-73342500D01*
X123848834Y-73305896D01*
X124022178Y-73234095D01*
X124178184Y-73129855D01*
X124310855Y-72997184D01*
X124415095Y-72841178D01*
X124486896Y-72667834D01*
X124504268Y-72580500D01*
X129822993Y-72580500D01*
X129850822Y-72599095D01*
X130024166Y-72670896D01*
X130208187Y-72707500D01*
X130395813Y-72707500D01*
X130579834Y-72670896D01*
X130753178Y-72599095D01*
X130909184Y-72494855D01*
X131041855Y-72362184D01*
X131146095Y-72206178D01*
X131217896Y-72032834D01*
X131254500Y-71848813D01*
X131254500Y-71661187D01*
X131217896Y-71477166D01*
X131146095Y-71303822D01*
X131041855Y-71147816D01*
X130909184Y-71015145D01*
X130753178Y-70910905D01*
X130579834Y-70839104D01*
X130436143Y-70810522D01*
X130454999Y-70764999D01*
X130626178Y-70694095D01*
X130782184Y-70589855D01*
X130914855Y-70457184D01*
X131019095Y-70301178D01*
X131090896Y-70127834D01*
X131127500Y-69943813D01*
X131127500Y-69756187D01*
X131090896Y-69572166D01*
X131019095Y-69398822D01*
X130914855Y-69242816D01*
X130782184Y-69110145D01*
X130626178Y-69005905D01*
X130452834Y-68934104D01*
X130268813Y-68897500D01*
X130081187Y-68897500D01*
X129897166Y-68934104D01*
X129723822Y-69005905D01*
X129695993Y-69024500D01*
X126917268Y-69024500D01*
X126899896Y-68937166D01*
X126828095Y-68763822D01*
X126723855Y-68607816D01*
X126625441Y-68509402D01*
X126701095Y-68396178D01*
X126772896Y-68222834D01*
X126790268Y-68135500D01*
X126901993Y-68135500D01*
X126929822Y-68154095D01*
X127103166Y-68225896D01*
X127287187Y-68262500D01*
X127474813Y-68262500D01*
X127658834Y-68225896D01*
X127832178Y-68154095D01*
X127988184Y-68049855D01*
X128120855Y-67917184D01*
X128225095Y-67761178D01*
X128296896Y-67587834D01*
X128333500Y-67403813D01*
X128333500Y-67216187D01*
X128296896Y-67032166D01*
X128225095Y-66858822D01*
X128120855Y-66702816D01*
X127988184Y-66570145D01*
X127832178Y-66465905D01*
X127658834Y-66394104D01*
X127474813Y-66357500D01*
X127287187Y-66357500D01*
X127103166Y-66394104D01*
X126929822Y-66465905D01*
X126901993Y-66484500D01*
X118716007Y-66484500D01*
X118688178Y-66465905D01*
X118514834Y-66394104D01*
X118330813Y-66357500D01*
X118143187Y-66357500D01*
X117959166Y-66394104D01*
X117785822Y-66465905D01*
X117757993Y-66484500D01*
X111096007Y-66484500D01*
X111068178Y-66465905D01*
X110894834Y-66394104D01*
X110710813Y-66357500D01*
X110523187Y-66357500D01*
X110339166Y-66394104D01*
X110165822Y-66465905D01*
X110137993Y-66484500D01*
X103583361Y-66484500D01*
X103491178Y-66422905D01*
X103317834Y-66351104D01*
X103133813Y-66314500D01*
X102946187Y-66314500D01*
X102762166Y-66351104D01*
X102588822Y-66422905D01*
X102496639Y-66484500D01*
X87670550Y-66484500D01*
X87630000Y-66480506D01*
X87589449Y-66484500D01*
X87589447Y-66484500D01*
X87468174Y-66496444D01*
X87312566Y-66543647D01*
X87169157Y-66620301D01*
X87074958Y-66697608D01*
X87074955Y-66697611D01*
X87043459Y-66723459D01*
X87017611Y-66754956D01*
X86312961Y-67459607D01*
X86281460Y-67485459D01*
X86255609Y-67516959D01*
X86178301Y-67611158D01*
X86101647Y-67754567D01*
X86054445Y-67910174D01*
X86038506Y-68072000D01*
X86042501Y-68112560D01*
X86042500Y-69222497D01*
X85950795Y-69359744D01*
X85872774Y-69548102D01*
X85833000Y-69748061D01*
X84430100Y-69748061D01*
X84427184Y-69745145D01*
X84271178Y-69640905D01*
X84097834Y-69569104D01*
X83913813Y-69532500D01*
X83726187Y-69532500D01*
X83542166Y-69569104D01*
X83368822Y-69640905D01*
X83212816Y-69745145D01*
X83080145Y-69877816D01*
X82975905Y-70033822D01*
X82904104Y-70207166D01*
X82867500Y-70391187D01*
X82830896Y-70207166D01*
X82759095Y-70033822D01*
X82654855Y-69877816D01*
X82522184Y-69745145D01*
X82366178Y-69640905D01*
X82192834Y-69569104D01*
X82008813Y-69532500D01*
X81821187Y-69532500D01*
X81637166Y-69569104D01*
X81463822Y-69640905D01*
X81307816Y-69745145D01*
X81175145Y-69877816D01*
X81070905Y-70033822D01*
X80999104Y-70207166D01*
X80962500Y-70391187D01*
X56540000Y-70391187D01*
X56540000Y-63523920D01*
X56557707Y-63279872D01*
X61265000Y-63279872D01*
X61265000Y-63720128D01*
X61350890Y-64151925D01*
X61519369Y-64558669D01*
X61763962Y-64924729D01*
X62075271Y-65236038D01*
X62441331Y-65480631D01*
X62848075Y-65649110D01*
X63279872Y-65735000D01*
X63720128Y-65735000D01*
X64151925Y-65649110D01*
X64558669Y-65480631D01*
X64924729Y-65236038D01*
X65236038Y-64924729D01*
X65480631Y-64558669D01*
X65649110Y-64151925D01*
X65735000Y-63720128D01*
X65735000Y-63279872D01*
X65649110Y-62848075D01*
X65480631Y-62441331D01*
X65295993Y-62165000D01*
X69111928Y-62165000D01*
X69111928Y-63915000D01*
X69141001Y-64210186D01*
X69227104Y-64494028D01*
X69366927Y-64755618D01*
X69555097Y-64984903D01*
X69784382Y-65173073D01*
X70045972Y-65312896D01*
X70329814Y-65398999D01*
X70625000Y-65428072D01*
X72375000Y-65428072D01*
X72670186Y-65398999D01*
X72954028Y-65312896D01*
X73215618Y-65173073D01*
X73444903Y-64984903D01*
X73633073Y-64755618D01*
X73772896Y-64494028D01*
X73811928Y-64365357D01*
X73811928Y-67790000D01*
X73824188Y-67914482D01*
X73860498Y-68034180D01*
X73919463Y-68144494D01*
X73998815Y-68241185D01*
X74095506Y-68320537D01*
X74205820Y-68379502D01*
X74325518Y-68415812D01*
X74450000Y-68428072D01*
X77950000Y-68428072D01*
X78074482Y-68415812D01*
X78194180Y-68379502D01*
X78304494Y-68320537D01*
X78401185Y-68241185D01*
X78480537Y-68144494D01*
X78539502Y-68034180D01*
X78575812Y-67914482D01*
X78588072Y-67790000D01*
X78588072Y-64290000D01*
X78575812Y-64165518D01*
X78539502Y-64045820D01*
X78480537Y-63935506D01*
X78401185Y-63838815D01*
X78304494Y-63759463D01*
X78194180Y-63700498D01*
X78074482Y-63664188D01*
X77950000Y-63651928D01*
X74450000Y-63651928D01*
X74325518Y-63664188D01*
X74205820Y-63700498D01*
X74095506Y-63759463D01*
X73998815Y-63838815D01*
X73919463Y-63935506D01*
X73878506Y-64012131D01*
X73888072Y-63915000D01*
X73888072Y-63279872D01*
X137465000Y-63279872D01*
X137465000Y-63720128D01*
X137550890Y-64151925D01*
X137719369Y-64558669D01*
X137963962Y-64924729D01*
X138275271Y-65236038D01*
X138641331Y-65480631D01*
X139048075Y-65649110D01*
X139479872Y-65735000D01*
X139920128Y-65735000D01*
X140351925Y-65649110D01*
X140758669Y-65480631D01*
X141124729Y-65236038D01*
X141436038Y-64924729D01*
X141680631Y-64558669D01*
X141849110Y-64151925D01*
X141935000Y-63720128D01*
X141935000Y-63279872D01*
X141849110Y-62848075D01*
X141680631Y-62441331D01*
X141436038Y-62075271D01*
X141124729Y-61763962D01*
X140758669Y-61519369D01*
X140351925Y-61350890D01*
X139920128Y-61265000D01*
X139479872Y-61265000D01*
X139048075Y-61350890D01*
X138641331Y-61519369D01*
X138275271Y-61763962D01*
X137963962Y-62075271D01*
X137719369Y-62441331D01*
X137550890Y-62848075D01*
X137465000Y-63279872D01*
X73888072Y-63279872D01*
X73888072Y-62165000D01*
X73858999Y-61869814D01*
X73772896Y-61585972D01*
X73748324Y-61540000D01*
X73811928Y-61540000D01*
X73824188Y-61664482D01*
X73860498Y-61784180D01*
X73919463Y-61894494D01*
X73998815Y-61991185D01*
X74095506Y-62070537D01*
X74205820Y-62129502D01*
X74325518Y-62165812D01*
X74450000Y-62178072D01*
X75914250Y-62175000D01*
X76073000Y-62016250D01*
X76073000Y-60167000D01*
X76327000Y-60167000D01*
X76327000Y-62016250D01*
X76485750Y-62175000D01*
X77950000Y-62178072D01*
X78074482Y-62165812D01*
X78194180Y-62129502D01*
X78304494Y-62070537D01*
X78401185Y-61991185D01*
X78480537Y-61894494D01*
X78539502Y-61784180D01*
X78575812Y-61664482D01*
X78588072Y-61540000D01*
X78585000Y-60325750D01*
X78426250Y-60167000D01*
X76327000Y-60167000D01*
X76073000Y-60167000D01*
X73973750Y-60167000D01*
X73815000Y-60325750D01*
X73811928Y-61540000D01*
X73748324Y-61540000D01*
X73633073Y-61324382D01*
X73444903Y-61095097D01*
X73215618Y-60906927D01*
X72954028Y-60767104D01*
X72670186Y-60681001D01*
X72375000Y-60651928D01*
X70625000Y-60651928D01*
X70329814Y-60681001D01*
X70045972Y-60767104D01*
X69784382Y-60906927D01*
X69555097Y-61095097D01*
X69366927Y-61324382D01*
X69227104Y-61585972D01*
X69141001Y-61869814D01*
X69111928Y-62165000D01*
X65295993Y-62165000D01*
X65236038Y-62075271D01*
X64924729Y-61763962D01*
X64558669Y-61519369D01*
X64151925Y-61350890D01*
X63720128Y-61265000D01*
X63279872Y-61265000D01*
X62848075Y-61350890D01*
X62441331Y-61519369D01*
X62075271Y-61763962D01*
X61763962Y-62075271D01*
X61519369Y-62441331D01*
X61350890Y-62848075D01*
X61265000Y-63279872D01*
X56557707Y-63279872D01*
X56614617Y-62495530D01*
X56831739Y-61512102D01*
X57188546Y-60570325D01*
X57677575Y-59689905D01*
X58288569Y-58889313D01*
X58645898Y-58540000D01*
X73811928Y-58540000D01*
X73815000Y-59754250D01*
X73973750Y-59913000D01*
X76073000Y-59913000D01*
X76073000Y-58063750D01*
X76327000Y-58063750D01*
X76327000Y-59913000D01*
X78426250Y-59913000D01*
X78585000Y-59754250D01*
X78588072Y-58540000D01*
X78575812Y-58415518D01*
X78539502Y-58295820D01*
X78480537Y-58185506D01*
X78401185Y-58088815D01*
X78304494Y-58009463D01*
X78194180Y-57950498D01*
X78074482Y-57914188D01*
X77950000Y-57901928D01*
X76485750Y-57905000D01*
X76327000Y-58063750D01*
X76073000Y-58063750D01*
X75914250Y-57905000D01*
X74450000Y-57901928D01*
X74325518Y-57914188D01*
X74205820Y-57950498D01*
X74095506Y-58009463D01*
X73998815Y-58088815D01*
X73919463Y-58185506D01*
X73860498Y-58295820D01*
X73824188Y-58415518D01*
X73811928Y-58540000D01*
X58645898Y-58540000D01*
X59008732Y-58185306D01*
X59822987Y-57592630D01*
X60714269Y-57123704D01*
X61663900Y-56788353D01*
X62655692Y-56592873D01*
X63520164Y-56540000D01*
X139676080Y-56540000D01*
X140704470Y-56614617D01*
%TA.AperFunction,Conductor*%
D22*
G36*
X140704470Y-56614617D02*
G01*
X141687898Y-56831739D01*
X142629675Y-57188546D01*
X143510095Y-57677575D01*
X144310687Y-58288569D01*
X145014694Y-59008732D01*
X145607370Y-59822987D01*
X146076296Y-60714269D01*
X146411647Y-61663900D01*
X146607127Y-62655692D01*
X146660000Y-63520164D01*
X146660001Y-114276080D01*
X146585382Y-115304470D01*
X146368262Y-116287896D01*
X146011454Y-117229675D01*
X145522424Y-118110095D01*
X144911435Y-118910684D01*
X144191268Y-119614694D01*
X143377013Y-120207370D01*
X142485731Y-120676296D01*
X141536099Y-121011647D01*
X140544309Y-121207127D01*
X139679835Y-121260000D01*
X63523906Y-121260000D01*
X62495530Y-121185382D01*
X61512104Y-120968262D01*
X60570325Y-120611454D01*
X59689905Y-120122424D01*
X58889316Y-119511435D01*
X58185306Y-118791268D01*
X57592630Y-117977013D01*
X57123704Y-117085731D01*
X56788353Y-116136099D01*
X56592873Y-115144309D01*
X56540000Y-114279835D01*
X56540000Y-114079872D01*
X61265000Y-114079872D01*
X61265000Y-114520128D01*
X61350890Y-114951925D01*
X61519369Y-115358669D01*
X61763962Y-115724729D01*
X62075271Y-116036038D01*
X62441331Y-116280631D01*
X62848075Y-116449110D01*
X63279872Y-116535000D01*
X63720128Y-116535000D01*
X64151925Y-116449110D01*
X64558669Y-116280631D01*
X64924729Y-116036038D01*
X65236038Y-115724729D01*
X65480631Y-115358669D01*
X65649110Y-114951925D01*
X65681524Y-114788967D01*
X116555000Y-114788967D01*
X116555000Y-115111033D01*
X116617832Y-115426912D01*
X116741082Y-115724463D01*
X116920013Y-115992252D01*
X117147748Y-116219987D01*
X117415537Y-116398918D01*
X117713088Y-116522168D01*
X118028967Y-116585000D01*
X118351033Y-116585000D01*
X118666912Y-116522168D01*
X118964463Y-116398918D01*
X119232252Y-116219987D01*
X119459987Y-115992252D01*
X119638918Y-115724463D01*
X119762168Y-115426912D01*
X119825000Y-115111033D01*
X119825000Y-114788967D01*
X121555000Y-114788967D01*
X121555000Y-115111033D01*
X121617832Y-115426912D01*
X121741082Y-115724463D01*
X121920013Y-115992252D01*
X122147748Y-116219987D01*
X122415537Y-116398918D01*
X122713088Y-116522168D01*
X123028967Y-116585000D01*
X123351033Y-116585000D01*
X123666912Y-116522168D01*
X123964463Y-116398918D01*
X124232252Y-116219987D01*
X124459987Y-115992252D01*
X124638918Y-115724463D01*
X124762168Y-115426912D01*
X124825000Y-115111033D01*
X124825000Y-114788967D01*
X124762168Y-114473088D01*
X124638918Y-114175537D01*
X124574997Y-114079872D01*
X137465000Y-114079872D01*
X137465000Y-114520128D01*
X137550890Y-114951925D01*
X137719369Y-115358669D01*
X137963962Y-115724729D01*
X138275271Y-116036038D01*
X138641331Y-116280631D01*
X139048075Y-116449110D01*
X139479872Y-116535000D01*
X139920128Y-116535000D01*
X140351925Y-116449110D01*
X140758669Y-116280631D01*
X141124729Y-116036038D01*
X141436038Y-115724729D01*
X141680631Y-115358669D01*
X141849110Y-114951925D01*
X141935000Y-114520128D01*
X141935000Y-114079872D01*
X141849110Y-113648075D01*
X141680631Y-113241331D01*
X141436038Y-112875271D01*
X141124729Y-112563962D01*
X140758669Y-112319369D01*
X140351925Y-112150890D01*
X139920128Y-112065000D01*
X139479872Y-112065000D01*
X139048075Y-112150890D01*
X138641331Y-112319369D01*
X138275271Y-112563962D01*
X137963962Y-112875271D01*
X137719369Y-113241331D01*
X137550890Y-113648075D01*
X137465000Y-114079872D01*
X124574997Y-114079872D01*
X124459987Y-113907748D01*
X124232252Y-113680013D01*
X123964463Y-113501082D01*
X123666912Y-113377832D01*
X123351033Y-113315000D01*
X123028967Y-113315000D01*
X122713088Y-113377832D01*
X122415537Y-113501082D01*
X122147748Y-113680013D01*
X121920013Y-113907748D01*
X121741082Y-114175537D01*
X121617832Y-114473088D01*
X121555000Y-114788967D01*
X119825000Y-114788967D01*
X119762168Y-114473088D01*
X119638918Y-114175537D01*
X119459987Y-113907748D01*
X119232252Y-113680013D01*
X118964463Y-113501082D01*
X118666912Y-113377832D01*
X118351033Y-113315000D01*
X118028967Y-113315000D01*
X117713088Y-113377832D01*
X117415537Y-113501082D01*
X117147748Y-113680013D01*
X116920013Y-113907748D01*
X116741082Y-114175537D01*
X116617832Y-114473088D01*
X116555000Y-114788967D01*
X65681524Y-114788967D01*
X65735000Y-114520128D01*
X65735000Y-114079872D01*
X65649110Y-113648075D01*
X65480631Y-113241331D01*
X65236038Y-112875271D01*
X64924729Y-112563962D01*
X64558669Y-112319369D01*
X64151925Y-112150890D01*
X63720128Y-112065000D01*
X63279872Y-112065000D01*
X62848075Y-112150890D01*
X62441331Y-112319369D01*
X62075271Y-112563962D01*
X61763962Y-112875271D01*
X61519369Y-113241331D01*
X61350890Y-113648075D01*
X61265000Y-114079872D01*
X56540000Y-114079872D01*
X56540000Y-106350000D01*
X113451928Y-106350000D01*
X113451928Y-109550000D01*
X113464188Y-109674482D01*
X113500498Y-109794180D01*
X113559463Y-109904494D01*
X113638815Y-110001185D01*
X113735506Y-110080537D01*
X113845820Y-110139502D01*
X113965518Y-110175812D01*
X114090000Y-110188072D01*
X116090000Y-110188072D01*
X116214482Y-110175812D01*
X116334180Y-110139502D01*
X116444494Y-110080537D01*
X116541185Y-110001185D01*
X116620537Y-109904494D01*
X116679502Y-109794180D01*
X116715812Y-109674482D01*
X116728072Y-109550000D01*
X116728072Y-106350000D01*
X124651928Y-106350000D01*
X124651928Y-109550000D01*
X124664188Y-109674482D01*
X124700498Y-109794180D01*
X124759463Y-109904494D01*
X124838815Y-110001185D01*
X124935506Y-110080537D01*
X125045820Y-110139502D01*
X125165518Y-110175812D01*
X125290000Y-110188072D01*
X127290000Y-110188072D01*
X127414482Y-110175812D01*
X127534180Y-110139502D01*
X127644494Y-110080537D01*
X127741185Y-110001185D01*
X127820537Y-109904494D01*
X127879502Y-109794180D01*
X127915812Y-109674482D01*
X127928072Y-109550000D01*
X127928072Y-106350000D01*
X127915812Y-106225518D01*
X127879502Y-106105820D01*
X127820537Y-105995506D01*
X127741185Y-105898815D01*
X127644494Y-105819463D01*
X127534180Y-105760498D01*
X127414482Y-105724188D01*
X127290000Y-105711928D01*
X125290000Y-105711928D01*
X125165518Y-105724188D01*
X125045820Y-105760498D01*
X124935506Y-105819463D01*
X124838815Y-105898815D01*
X124759463Y-105995506D01*
X124700498Y-106105820D01*
X124664188Y-106225518D01*
X124651928Y-106350000D01*
X116728072Y-106350000D01*
X116715812Y-106225518D01*
X116679502Y-106105820D01*
X116620537Y-105995506D01*
X116541185Y-105898815D01*
X116444494Y-105819463D01*
X116334180Y-105760498D01*
X116214482Y-105724188D01*
X116090000Y-105711928D01*
X114090000Y-105711928D01*
X113965518Y-105724188D01*
X113845820Y-105760498D01*
X113735506Y-105819463D01*
X113638815Y-105898815D01*
X113559463Y-105995506D01*
X113500498Y-106105820D01*
X113464188Y-106225518D01*
X113451928Y-106350000D01*
X56540000Y-106350000D01*
X56540000Y-100288967D01*
X116555000Y-100288967D01*
X116555000Y-100611033D01*
X116617832Y-100926912D01*
X116741082Y-101224463D01*
X116920013Y-101492252D01*
X117147748Y-101719987D01*
X117415537Y-101898918D01*
X117713088Y-102022168D01*
X118028967Y-102085000D01*
X118351033Y-102085000D01*
X118666912Y-102022168D01*
X118964463Y-101898918D01*
X119232252Y-101719987D01*
X119459987Y-101492252D01*
X119524925Y-101395065D01*
X119554587Y-101405808D01*
X120510395Y-100450000D01*
X119554587Y-99494192D01*
X119524925Y-99504935D01*
X119459987Y-99407748D01*
X119366826Y-99314587D01*
X119734192Y-99314587D01*
X120690000Y-100270395D01*
X120704143Y-100256253D01*
X120883748Y-100435858D01*
X120869605Y-100450000D01*
X120883748Y-100464143D01*
X120704143Y-100643748D01*
X120690000Y-100629605D01*
X119734192Y-101585413D01*
X119829956Y-101849814D01*
X120119571Y-101990704D01*
X120431108Y-102072384D01*
X120752595Y-102091718D01*
X121071675Y-102047961D01*
X121376088Y-101942795D01*
X121550044Y-101849814D01*
X121604024Y-101700777D01*
X121659463Y-101804494D01*
X121738815Y-101901185D01*
X121835506Y-101980537D01*
X121945820Y-102039502D01*
X122065518Y-102075812D01*
X122190000Y-102088072D01*
X124190000Y-102088072D01*
X124314482Y-102075812D01*
X124434180Y-102039502D01*
X124544494Y-101980537D01*
X124641185Y-101901185D01*
X124720537Y-101804494D01*
X124779502Y-101694180D01*
X124815812Y-101574482D01*
X124828072Y-101450000D01*
X124828072Y-99450000D01*
X124815812Y-99325518D01*
X124779502Y-99205820D01*
X124720537Y-99095506D01*
X124641185Y-98998815D01*
X124544494Y-98919463D01*
X124434180Y-98860498D01*
X124314482Y-98824188D01*
X124190000Y-98811928D01*
X122190000Y-98811928D01*
X122065518Y-98824188D01*
X121945820Y-98860498D01*
X121835506Y-98919463D01*
X121738815Y-98998815D01*
X121659463Y-99095506D01*
X121604024Y-99199223D01*
X121550044Y-99050186D01*
X121260429Y-98909296D01*
X120948892Y-98827616D01*
X120627405Y-98808282D01*
X120308325Y-98852039D01*
X120003912Y-98957205D01*
X119829956Y-99050186D01*
X119734192Y-99314587D01*
X119366826Y-99314587D01*
X119232252Y-99180013D01*
X118964463Y-99001082D01*
X118666912Y-98877832D01*
X118351033Y-98815000D01*
X118028967Y-98815000D01*
X117713088Y-98877832D01*
X117415537Y-99001082D01*
X117147748Y-99180013D01*
X116920013Y-99407748D01*
X116741082Y-99675537D01*
X116617832Y-99973088D01*
X116555000Y-100288967D01*
X56540000Y-100288967D01*
X56540000Y-90028665D01*
X97625000Y-90028665D01*
X97625000Y-90311335D01*
X97680147Y-90588574D01*
X97788320Y-90849727D01*
X97945363Y-91084759D01*
X98145241Y-91284637D01*
X98380273Y-91441680D01*
X98641426Y-91549853D01*
X98918665Y-91605000D01*
X99201335Y-91605000D01*
X99478574Y-91549853D01*
X99739727Y-91441680D01*
X99974759Y-91284637D01*
X100174637Y-91084759D01*
X100330000Y-90852241D01*
X100485363Y-91084759D01*
X100685241Y-91284637D01*
X100920273Y-91441680D01*
X101181426Y-91549853D01*
X101458665Y-91605000D01*
X101741335Y-91605000D01*
X102018574Y-91549853D01*
X102279727Y-91441680D01*
X102514759Y-91284637D01*
X102714637Y-91084759D01*
X102870000Y-90852241D01*
X103025363Y-91084759D01*
X103225241Y-91284637D01*
X103460273Y-91441680D01*
X103721426Y-91549853D01*
X103998665Y-91605000D01*
X104281335Y-91605000D01*
X104558574Y-91549853D01*
X104819727Y-91441680D01*
X105054759Y-91284637D01*
X105254637Y-91084759D01*
X105410000Y-90852241D01*
X105565363Y-91084759D01*
X105765241Y-91284637D01*
X106000273Y-91441680D01*
X106261426Y-91549853D01*
X106538665Y-91605000D01*
X106821335Y-91605000D01*
X107098574Y-91549853D01*
X107359727Y-91441680D01*
X107594759Y-91284637D01*
X107794637Y-91084759D01*
X107950000Y-90852241D01*
X108105363Y-91084759D01*
X108305241Y-91284637D01*
X108540273Y-91441680D01*
X108801426Y-91549853D01*
X109078665Y-91605000D01*
X109361335Y-91605000D01*
X109638574Y-91549853D01*
X109899727Y-91441680D01*
X110134759Y-91284637D01*
X110334637Y-91084759D01*
X110490000Y-90852241D01*
X110645363Y-91084759D01*
X110845241Y-91284637D01*
X111080273Y-91441680D01*
X111341426Y-91549853D01*
X111618665Y-91605000D01*
X111901335Y-91605000D01*
X112178574Y-91549853D01*
X112439727Y-91441680D01*
X112674759Y-91284637D01*
X112874637Y-91084759D01*
X113030000Y-90852241D01*
X113185363Y-91084759D01*
X113385241Y-91284637D01*
X113620273Y-91441680D01*
X113881426Y-91549853D01*
X114158665Y-91605000D01*
X114441335Y-91605000D01*
X114718574Y-91549853D01*
X114979727Y-91441680D01*
X115214759Y-91284637D01*
X115414637Y-91084759D01*
X115571680Y-90849727D01*
X115576067Y-90839135D01*
X115687615Y-91025131D01*
X115876586Y-91233519D01*
X116102580Y-91401037D01*
X116356913Y-91521246D01*
X116490961Y-91561904D01*
X116713000Y-91439915D01*
X116713000Y-90297000D01*
X116693000Y-90297000D01*
X116693000Y-90043000D01*
X116713000Y-90043000D01*
X116713000Y-88900085D01*
X116967000Y-88900085D01*
X116967000Y-90043000D01*
X116987000Y-90043000D01*
X116987000Y-90297000D01*
X116967000Y-90297000D01*
X116967000Y-91439915D01*
X117189039Y-91561904D01*
X117323087Y-91521246D01*
X117577420Y-91401037D01*
X117803414Y-91233519D01*
X117992385Y-91025131D01*
X118103933Y-90839135D01*
X118108320Y-90849727D01*
X118265363Y-91084759D01*
X118465241Y-91284637D01*
X118700273Y-91441680D01*
X118961426Y-91549853D01*
X119238665Y-91605000D01*
X119521335Y-91605000D01*
X119798574Y-91549853D01*
X120059727Y-91441680D01*
X120294759Y-91284637D01*
X120494637Y-91084759D01*
X120650000Y-90852241D01*
X120805363Y-91084759D01*
X121005241Y-91284637D01*
X121240273Y-91441680D01*
X121501426Y-91549853D01*
X121778665Y-91605000D01*
X122061335Y-91605000D01*
X122338574Y-91549853D01*
X122599727Y-91441680D01*
X122834759Y-91284637D01*
X123034637Y-91084759D01*
X123190000Y-90852241D01*
X123345363Y-91084759D01*
X123545241Y-91284637D01*
X123780273Y-91441680D01*
X124041426Y-91549853D01*
X124318665Y-91605000D01*
X124601335Y-91605000D01*
X124878574Y-91549853D01*
X125139727Y-91441680D01*
X125374759Y-91284637D01*
X125574637Y-91084759D01*
X125730000Y-90852241D01*
X125885363Y-91084759D01*
X126085241Y-91284637D01*
X126320273Y-91441680D01*
X126581426Y-91549853D01*
X126858665Y-91605000D01*
X127141335Y-91605000D01*
X127418574Y-91549853D01*
X127679727Y-91441680D01*
X127914759Y-91284637D01*
X128114637Y-91084759D01*
X128270000Y-90852241D01*
X128425363Y-91084759D01*
X128625241Y-91284637D01*
X128860273Y-91441680D01*
X129121426Y-91549853D01*
X129398665Y-91605000D01*
X129681335Y-91605000D01*
X129958574Y-91549853D01*
X130219727Y-91441680D01*
X130454759Y-91284637D01*
X130654637Y-91084759D01*
X130810000Y-90852241D01*
X130965363Y-91084759D01*
X131165241Y-91284637D01*
X131400273Y-91441680D01*
X131661426Y-91549853D01*
X131938665Y-91605000D01*
X132221335Y-91605000D01*
X132498574Y-91549853D01*
X132759727Y-91441680D01*
X132994759Y-91284637D01*
X133194637Y-91084759D01*
X133351680Y-90849727D01*
X133459853Y-90588574D01*
X133515000Y-90311335D01*
X133515000Y-90028665D01*
X133459853Y-89751426D01*
X133351680Y-89490273D01*
X133194637Y-89255241D01*
X132994759Y-89055363D01*
X132759727Y-88898320D01*
X132498574Y-88790147D01*
X132221335Y-88735000D01*
X131938665Y-88735000D01*
X131661426Y-88790147D01*
X131400273Y-88898320D01*
X131165241Y-89055363D01*
X130965363Y-89255241D01*
X130810000Y-89487759D01*
X130654637Y-89255241D01*
X130454759Y-89055363D01*
X130219727Y-88898320D01*
X129958574Y-88790147D01*
X129681335Y-88735000D01*
X129398665Y-88735000D01*
X129121426Y-88790147D01*
X128860273Y-88898320D01*
X128625241Y-89055363D01*
X128425363Y-89255241D01*
X128270000Y-89487759D01*
X128114637Y-89255241D01*
X127914759Y-89055363D01*
X127679727Y-88898320D01*
X127418574Y-88790147D01*
X127141335Y-88735000D01*
X126858665Y-88735000D01*
X126581426Y-88790147D01*
X126320273Y-88898320D01*
X126085241Y-89055363D01*
X125885363Y-89255241D01*
X125730000Y-89487759D01*
X125574637Y-89255241D01*
X125374759Y-89055363D01*
X125139727Y-88898320D01*
X124878574Y-88790147D01*
X124601335Y-88735000D01*
X124318665Y-88735000D01*
X124041426Y-88790147D01*
X123780273Y-88898320D01*
X123545241Y-89055363D01*
X123345363Y-89255241D01*
X123190000Y-89487759D01*
X123034637Y-89255241D01*
X122834759Y-89055363D01*
X122599727Y-88898320D01*
X122338574Y-88790147D01*
X122061335Y-88735000D01*
X121778665Y-88735000D01*
X121501426Y-88790147D01*
X121240273Y-88898320D01*
X121005241Y-89055363D01*
X120805363Y-89255241D01*
X120650000Y-89487759D01*
X120494637Y-89255241D01*
X120294759Y-89055363D01*
X120059727Y-88898320D01*
X119798574Y-88790147D01*
X119521335Y-88735000D01*
X119238665Y-88735000D01*
X118961426Y-88790147D01*
X118700273Y-88898320D01*
X118465241Y-89055363D01*
X118265363Y-89255241D01*
X118108320Y-89490273D01*
X118103933Y-89500865D01*
X117992385Y-89314869D01*
X117803414Y-89106481D01*
X117577420Y-88938963D01*
X117323087Y-88818754D01*
X117189039Y-88778096D01*
X116967000Y-88900085D01*
X116713000Y-88900085D01*
X116490961Y-88778096D01*
X116356913Y-88818754D01*
X116102580Y-88938963D01*
X115876586Y-89106481D01*
X115687615Y-89314869D01*
X115576067Y-89500865D01*
X115571680Y-89490273D01*
X115414637Y-89255241D01*
X115214759Y-89055363D01*
X114979727Y-88898320D01*
X114718574Y-88790147D01*
X114441335Y-88735000D01*
X114158665Y-88735000D01*
X113881426Y-88790147D01*
X113620273Y-88898320D01*
X113385241Y-89055363D01*
X113185363Y-89255241D01*
X113030000Y-89487759D01*
X112874637Y-89255241D01*
X112674759Y-89055363D01*
X112439727Y-88898320D01*
X112178574Y-88790147D01*
X111901335Y-88735000D01*
X111618665Y-88735000D01*
X111341426Y-88790147D01*
X111080273Y-88898320D01*
X110845241Y-89055363D01*
X110645363Y-89255241D01*
X110490000Y-89487759D01*
X110334637Y-89255241D01*
X110134759Y-89055363D01*
X109899727Y-88898320D01*
X109638574Y-88790147D01*
X109361335Y-88735000D01*
X109078665Y-88735000D01*
X108801426Y-88790147D01*
X108540273Y-88898320D01*
X108305241Y-89055363D01*
X108105363Y-89255241D01*
X107950000Y-89487759D01*
X107794637Y-89255241D01*
X107594759Y-89055363D01*
X107359727Y-88898320D01*
X107098574Y-88790147D01*
X106821335Y-88735000D01*
X106538665Y-88735000D01*
X106261426Y-88790147D01*
X106000273Y-88898320D01*
X105765241Y-89055363D01*
X105565363Y-89255241D01*
X105410000Y-89487759D01*
X105254637Y-89255241D01*
X105054759Y-89055363D01*
X104819727Y-88898320D01*
X104558574Y-88790147D01*
X104281335Y-88735000D01*
X103998665Y-88735000D01*
X103721426Y-88790147D01*
X103460273Y-88898320D01*
X103225241Y-89055363D01*
X103025363Y-89255241D01*
X102870000Y-89487759D01*
X102714637Y-89255241D01*
X102514759Y-89055363D01*
X102279727Y-88898320D01*
X102018574Y-88790147D01*
X101741335Y-88735000D01*
X101458665Y-88735000D01*
X101181426Y-88790147D01*
X100920273Y-88898320D01*
X100685241Y-89055363D01*
X100485363Y-89255241D01*
X100330000Y-89487759D01*
X100174637Y-89255241D01*
X99974759Y-89055363D01*
X99739727Y-88898320D01*
X99478574Y-88790147D01*
X99201335Y-88735000D01*
X98918665Y-88735000D01*
X98641426Y-88790147D01*
X98380273Y-88898320D01*
X98145241Y-89055363D01*
X97945363Y-89255241D01*
X97788320Y-89490273D01*
X97680147Y-89751426D01*
X97625000Y-90028665D01*
X56540000Y-90028665D01*
X56540000Y-82408665D01*
X97625000Y-82408665D01*
X97625000Y-82691335D01*
X97680147Y-82968574D01*
X97788320Y-83229727D01*
X97945363Y-83464759D01*
X98145241Y-83664637D01*
X98380273Y-83821680D01*
X98641426Y-83929853D01*
X98918665Y-83985000D01*
X99201335Y-83985000D01*
X99478574Y-83929853D01*
X99739727Y-83821680D01*
X99974759Y-83664637D01*
X100174637Y-83464759D01*
X100330000Y-83232241D01*
X100485363Y-83464759D01*
X100685241Y-83664637D01*
X100920273Y-83821680D01*
X101181426Y-83929853D01*
X101458665Y-83985000D01*
X101741335Y-83985000D01*
X102018574Y-83929853D01*
X102279727Y-83821680D01*
X102514759Y-83664637D01*
X102714637Y-83464759D01*
X102870000Y-83232241D01*
X103025363Y-83464759D01*
X103225241Y-83664637D01*
X103460273Y-83821680D01*
X103721426Y-83929853D01*
X103998665Y-83985000D01*
X104281335Y-83985000D01*
X104558574Y-83929853D01*
X104819727Y-83821680D01*
X105054759Y-83664637D01*
X105254637Y-83464759D01*
X105410000Y-83232241D01*
X105565363Y-83464759D01*
X105765241Y-83664637D01*
X106000273Y-83821680D01*
X106261426Y-83929853D01*
X106538665Y-83985000D01*
X106821335Y-83985000D01*
X107098574Y-83929853D01*
X107359727Y-83821680D01*
X107594759Y-83664637D01*
X107794637Y-83464759D01*
X107950000Y-83232241D01*
X108105363Y-83464759D01*
X108305241Y-83664637D01*
X108540273Y-83821680D01*
X108801426Y-83929853D01*
X109078665Y-83985000D01*
X109361335Y-83985000D01*
X109638574Y-83929853D01*
X109899727Y-83821680D01*
X110134759Y-83664637D01*
X110334637Y-83464759D01*
X110490000Y-83232241D01*
X110645363Y-83464759D01*
X110845241Y-83664637D01*
X111080273Y-83821680D01*
X111341426Y-83929853D01*
X111618665Y-83985000D01*
X111901335Y-83985000D01*
X112178574Y-83929853D01*
X112439727Y-83821680D01*
X112674759Y-83664637D01*
X112874637Y-83464759D01*
X113031680Y-83229727D01*
X113036067Y-83219135D01*
X113147615Y-83405131D01*
X113336586Y-83613519D01*
X113562580Y-83781037D01*
X113816913Y-83901246D01*
X113950961Y-83941904D01*
X114173000Y-83819915D01*
X114173000Y-82677000D01*
X114153000Y-82677000D01*
X114153000Y-82423000D01*
X114173000Y-82423000D01*
X114173000Y-81280085D01*
X114427000Y-81280085D01*
X114427000Y-82423000D01*
X114447000Y-82423000D01*
X114447000Y-82677000D01*
X114427000Y-82677000D01*
X114427000Y-83819915D01*
X114649039Y-83941904D01*
X114783087Y-83901246D01*
X115037420Y-83781037D01*
X115263414Y-83613519D01*
X115452385Y-83405131D01*
X115563933Y-83219135D01*
X115568320Y-83229727D01*
X115725363Y-83464759D01*
X115925241Y-83664637D01*
X116160273Y-83821680D01*
X116421426Y-83929853D01*
X116698665Y-83985000D01*
X116981335Y-83985000D01*
X117258574Y-83929853D01*
X117519727Y-83821680D01*
X117754759Y-83664637D01*
X117954637Y-83464759D01*
X118110000Y-83232241D01*
X118265363Y-83464759D01*
X118465241Y-83664637D01*
X118700273Y-83821680D01*
X118961426Y-83929853D01*
X119238665Y-83985000D01*
X119521335Y-83985000D01*
X119798574Y-83929853D01*
X120059727Y-83821680D01*
X120294759Y-83664637D01*
X120494637Y-83464759D01*
X120650000Y-83232241D01*
X120805363Y-83464759D01*
X121005241Y-83664637D01*
X121240273Y-83821680D01*
X121501426Y-83929853D01*
X121778665Y-83985000D01*
X122061335Y-83985000D01*
X122338574Y-83929853D01*
X122599727Y-83821680D01*
X122834759Y-83664637D01*
X123034637Y-83464759D01*
X123190000Y-83232241D01*
X123345363Y-83464759D01*
X123545241Y-83664637D01*
X123780273Y-83821680D01*
X124041426Y-83929853D01*
X124318665Y-83985000D01*
X124601335Y-83985000D01*
X124878574Y-83929853D01*
X125139727Y-83821680D01*
X125374759Y-83664637D01*
X125574637Y-83464759D01*
X125730000Y-83232241D01*
X125885363Y-83464759D01*
X126085241Y-83664637D01*
X126320273Y-83821680D01*
X126581426Y-83929853D01*
X126858665Y-83985000D01*
X127141335Y-83985000D01*
X127418574Y-83929853D01*
X127679727Y-83821680D01*
X127914759Y-83664637D01*
X128114637Y-83464759D01*
X128270000Y-83232241D01*
X128425363Y-83464759D01*
X128625241Y-83664637D01*
X128860273Y-83821680D01*
X129121426Y-83929853D01*
X129398665Y-83985000D01*
X129681335Y-83985000D01*
X129958574Y-83929853D01*
X130219727Y-83821680D01*
X130454759Y-83664637D01*
X130653357Y-83466039D01*
X130654188Y-83474482D01*
X130690498Y-83594180D01*
X130749463Y-83704494D01*
X130828815Y-83801185D01*
X130925506Y-83880537D01*
X131035820Y-83939502D01*
X131155518Y-83975812D01*
X131280000Y-83988072D01*
X132880000Y-83988072D01*
X133004482Y-83975812D01*
X133124180Y-83939502D01*
X133234494Y-83880537D01*
X133331185Y-83801185D01*
X133410537Y-83704494D01*
X133469502Y-83594180D01*
X133505812Y-83474482D01*
X133518072Y-83350000D01*
X133518072Y-82970000D01*
X138211928Y-82970000D01*
X138211928Y-84670000D01*
X138224188Y-84794482D01*
X138260498Y-84914180D01*
X138319463Y-85024494D01*
X138398815Y-85121185D01*
X138495506Y-85200537D01*
X138605820Y-85259502D01*
X138678380Y-85281513D01*
X138546525Y-85413368D01*
X138384010Y-85656589D01*
X138272068Y-85926842D01*
X138215000Y-86213740D01*
X138215000Y-86506260D01*
X138272068Y-86793158D01*
X138384010Y-87063411D01*
X138546525Y-87306632D01*
X138753368Y-87513475D01*
X138927760Y-87630000D01*
X138753368Y-87746525D01*
X138546525Y-87953368D01*
X138384010Y-88196589D01*
X138272068Y-88466842D01*
X138215000Y-88753740D01*
X138215000Y-89046260D01*
X138272068Y-89333158D01*
X138384010Y-89603411D01*
X138546525Y-89846632D01*
X138753368Y-90053475D01*
X138996589Y-90215990D01*
X139266842Y-90327932D01*
X139553740Y-90385000D01*
X139846260Y-90385000D01*
X140133158Y-90327932D01*
X140403411Y-90215990D01*
X140646632Y-90053475D01*
X140853475Y-89846632D01*
X140971100Y-89670594D01*
X141142412Y-89900269D01*
X141358645Y-90095178D01*
X141608748Y-90244157D01*
X141883109Y-90341481D01*
X142113000Y-90220814D01*
X142113000Y-89027000D01*
X142367000Y-89027000D01*
X142367000Y-90220814D01*
X142596891Y-90341481D01*
X142871252Y-90244157D01*
X143121355Y-90095178D01*
X143337588Y-89900269D01*
X143511641Y-89666920D01*
X143636825Y-89404099D01*
X143681476Y-89256890D01*
X143560155Y-89027000D01*
X142367000Y-89027000D01*
X142113000Y-89027000D01*
X142093000Y-89027000D01*
X142093000Y-88773000D01*
X142113000Y-88773000D01*
X142113000Y-88753000D01*
X142367000Y-88753000D01*
X142367000Y-88773000D01*
X143560155Y-88773000D01*
X143681476Y-88543110D01*
X143636825Y-88395901D01*
X143511641Y-88133080D01*
X143337588Y-87899731D01*
X143121355Y-87704822D01*
X143004466Y-87635195D01*
X143186632Y-87513475D01*
X143393475Y-87306632D01*
X143555990Y-87063411D01*
X143667932Y-86793158D01*
X143725000Y-86506260D01*
X143725000Y-86213740D01*
X143667932Y-85926842D01*
X143555990Y-85656589D01*
X143393475Y-85413368D01*
X143186632Y-85206525D01*
X143012240Y-85090000D01*
X143186632Y-84973475D01*
X143393475Y-84766632D01*
X143555990Y-84523411D01*
X143667932Y-84253158D01*
X143725000Y-83966260D01*
X143725000Y-83673740D01*
X143667932Y-83386842D01*
X143555990Y-83116589D01*
X143393475Y-82873368D01*
X143186632Y-82666525D01*
X142943411Y-82504010D01*
X142673158Y-82392068D01*
X142386260Y-82335000D01*
X142093740Y-82335000D01*
X141806842Y-82392068D01*
X141536589Y-82504010D01*
X141293368Y-82666525D01*
X141161513Y-82798380D01*
X141139502Y-82725820D01*
X141080537Y-82615506D01*
X141001185Y-82518815D01*
X140904494Y-82439463D01*
X140794180Y-82380498D01*
X140674482Y-82344188D01*
X140550000Y-82331928D01*
X138850000Y-82331928D01*
X138725518Y-82344188D01*
X138605820Y-82380498D01*
X138495506Y-82439463D01*
X138398815Y-82518815D01*
X138319463Y-82615506D01*
X138260498Y-82725820D01*
X138224188Y-82845518D01*
X138211928Y-82970000D01*
X133518072Y-82970000D01*
X133518072Y-81750000D01*
X133505812Y-81625518D01*
X133469502Y-81505820D01*
X133410537Y-81395506D01*
X133331185Y-81298815D01*
X133234494Y-81219463D01*
X133124180Y-81160498D01*
X133004482Y-81124188D01*
X132880000Y-81111928D01*
X131280000Y-81111928D01*
X131155518Y-81124188D01*
X131035820Y-81160498D01*
X130925506Y-81219463D01*
X130828815Y-81298815D01*
X130749463Y-81395506D01*
X130690498Y-81505820D01*
X130654188Y-81625518D01*
X130653357Y-81633961D01*
X130454759Y-81435363D01*
X130219727Y-81278320D01*
X129958574Y-81170147D01*
X129681335Y-81115000D01*
X129398665Y-81115000D01*
X129121426Y-81170147D01*
X128860273Y-81278320D01*
X128625241Y-81435363D01*
X128425363Y-81635241D01*
X128270000Y-81867759D01*
X128114637Y-81635241D01*
X127914759Y-81435363D01*
X127679727Y-81278320D01*
X127418574Y-81170147D01*
X127141335Y-81115000D01*
X126858665Y-81115000D01*
X126581426Y-81170147D01*
X126320273Y-81278320D01*
X126085241Y-81435363D01*
X125885363Y-81635241D01*
X125730000Y-81867759D01*
X125574637Y-81635241D01*
X125374759Y-81435363D01*
X125139727Y-81278320D01*
X124878574Y-81170147D01*
X124601335Y-81115000D01*
X124318665Y-81115000D01*
X124041426Y-81170147D01*
X123780273Y-81278320D01*
X123545241Y-81435363D01*
X123345363Y-81635241D01*
X123190000Y-81867759D01*
X123034637Y-81635241D01*
X122834759Y-81435363D01*
X122599727Y-81278320D01*
X122338574Y-81170147D01*
X122061335Y-81115000D01*
X121778665Y-81115000D01*
X121501426Y-81170147D01*
X121240273Y-81278320D01*
X121005241Y-81435363D01*
X120805363Y-81635241D01*
X120650000Y-81867759D01*
X120494637Y-81635241D01*
X120294759Y-81435363D01*
X120059727Y-81278320D01*
X119798574Y-81170147D01*
X119521335Y-81115000D01*
X119238665Y-81115000D01*
X118961426Y-81170147D01*
X118700273Y-81278320D01*
X118465241Y-81435363D01*
X118265363Y-81635241D01*
X118110000Y-81867759D01*
X117954637Y-81635241D01*
X117754759Y-81435363D01*
X117519727Y-81278320D01*
X117258574Y-81170147D01*
X116981335Y-81115000D01*
X116698665Y-81115000D01*
X116421426Y-81170147D01*
X116160273Y-81278320D01*
X115925241Y-81435363D01*
X115725363Y-81635241D01*
X115568320Y-81870273D01*
X115563933Y-81880865D01*
X115452385Y-81694869D01*
X115263414Y-81486481D01*
X115037420Y-81318963D01*
X114783087Y-81198754D01*
X114649039Y-81158096D01*
X114427000Y-81280085D01*
X114173000Y-81280085D01*
X113950961Y-81158096D01*
X113816913Y-81198754D01*
X113562580Y-81318963D01*
X113336586Y-81486481D01*
X113147615Y-81694869D01*
X113036067Y-81880865D01*
X113031680Y-81870273D01*
X112874637Y-81635241D01*
X112674759Y-81435363D01*
X112439727Y-81278320D01*
X112178574Y-81170147D01*
X111901335Y-81115000D01*
X111618665Y-81115000D01*
X111341426Y-81170147D01*
X111080273Y-81278320D01*
X110845241Y-81435363D01*
X110645363Y-81635241D01*
X110490000Y-81867759D01*
X110334637Y-81635241D01*
X110134759Y-81435363D01*
X109899727Y-81278320D01*
X109638574Y-81170147D01*
X109361335Y-81115000D01*
X109078665Y-81115000D01*
X108801426Y-81170147D01*
X108540273Y-81278320D01*
X108305241Y-81435363D01*
X108105363Y-81635241D01*
X107950000Y-81867759D01*
X107794637Y-81635241D01*
X107594759Y-81435363D01*
X107359727Y-81278320D01*
X107098574Y-81170147D01*
X106821335Y-81115000D01*
X106538665Y-81115000D01*
X106261426Y-81170147D01*
X106000273Y-81278320D01*
X105765241Y-81435363D01*
X105565363Y-81635241D01*
X105410000Y-81867759D01*
X105254637Y-81635241D01*
X105054759Y-81435363D01*
X104819727Y-81278320D01*
X104558574Y-81170147D01*
X104281335Y-81115000D01*
X103998665Y-81115000D01*
X103721426Y-81170147D01*
X103460273Y-81278320D01*
X103225241Y-81435363D01*
X103025363Y-81635241D01*
X102870000Y-81867759D01*
X102714637Y-81635241D01*
X102514759Y-81435363D01*
X102279727Y-81278320D01*
X102018574Y-81170147D01*
X101741335Y-81115000D01*
X101458665Y-81115000D01*
X101181426Y-81170147D01*
X100920273Y-81278320D01*
X100685241Y-81435363D01*
X100485363Y-81635241D01*
X100330000Y-81867759D01*
X100174637Y-81635241D01*
X99974759Y-81435363D01*
X99739727Y-81278320D01*
X99478574Y-81170147D01*
X99201335Y-81115000D01*
X98918665Y-81115000D01*
X98641426Y-81170147D01*
X98380273Y-81278320D01*
X98145241Y-81435363D01*
X97945363Y-81635241D01*
X97788320Y-81870273D01*
X97680147Y-82131426D01*
X97625000Y-82408665D01*
X56540000Y-82408665D01*
X56540000Y-70391187D01*
X80962500Y-70391187D01*
X80962500Y-70578813D01*
X80999104Y-70762834D01*
X81070905Y-70936178D01*
X81175145Y-71092184D01*
X81307816Y-71224855D01*
X81463822Y-71329095D01*
X81637166Y-71400896D01*
X81821187Y-71437500D01*
X82008813Y-71437500D01*
X82192834Y-71400896D01*
X82366178Y-71329095D01*
X82522184Y-71224855D01*
X82654855Y-71092184D01*
X82759095Y-70936178D01*
X82830896Y-70762834D01*
X82867500Y-70578813D01*
X82904104Y-70762834D01*
X82975905Y-70936178D01*
X83080145Y-71092184D01*
X83212816Y-71224855D01*
X83368822Y-71329095D01*
X83542166Y-71400896D01*
X83726187Y-71437500D01*
X83913813Y-71437500D01*
X84097834Y-71400896D01*
X84271178Y-71329095D01*
X84427184Y-71224855D01*
X84559855Y-71092184D01*
X84664095Y-70936178D01*
X84735896Y-70762834D01*
X84772500Y-70578813D01*
X84772500Y-70391187D01*
X84735896Y-70207166D01*
X84664095Y-70033822D01*
X84559855Y-69877816D01*
X84430100Y-69748061D01*
X85833000Y-69748061D01*
X85833000Y-69951939D01*
X85872774Y-70151898D01*
X85950795Y-70340256D01*
X86047510Y-70485000D01*
X85950795Y-70629744D01*
X85872774Y-70818102D01*
X85833000Y-71018061D01*
X85833000Y-71221939D01*
X85872774Y-71421898D01*
X85950795Y-71610256D01*
X86042501Y-71747504D01*
X86042500Y-73619449D01*
X86038506Y-73660000D01*
X86042500Y-73700550D01*
X86042500Y-73700552D01*
X86054444Y-73821825D01*
X86090961Y-73942205D01*
X86101647Y-73977433D01*
X86178301Y-74120842D01*
X86188421Y-74133173D01*
X86281459Y-74246541D01*
X86312966Y-74272398D01*
X89430606Y-77390039D01*
X89456459Y-77421541D01*
X89520596Y-77474177D01*
X89582157Y-77524699D01*
X89725566Y-77601353D01*
X89881174Y-77648556D01*
X90002447Y-77660500D01*
X90002449Y-77660500D01*
X90042999Y-77664494D01*
X90083550Y-77660500D01*
X95971450Y-77660500D01*
X96012000Y-77664494D01*
X96052550Y-77660500D01*
X96052553Y-77660500D01*
X96173826Y-77648556D01*
X96329434Y-77601353D01*
X96472842Y-77524699D01*
X96598541Y-77421541D01*
X96624398Y-77390034D01*
X100798933Y-73215500D01*
X106861393Y-73215500D01*
X106889222Y-73234095D01*
X107062566Y-73305896D01*
X107246587Y-73342500D01*
X107434213Y-73342500D01*
X107618234Y-73305896D01*
X107791578Y-73234095D01*
X107819407Y-73215500D01*
X111661993Y-73215500D01*
X111689822Y-73234095D01*
X111863166Y-73305896D01*
X112047187Y-73342500D01*
X112234813Y-73342500D01*
X112418834Y-73305896D01*
X112592178Y-73234095D01*
X112620007Y-73215500D01*
X115471993Y-73215500D01*
X115499822Y-73234095D01*
X115673166Y-73305896D01*
X115857187Y-73342500D01*
X116044813Y-73342500D01*
X116228834Y-73305896D01*
X116402178Y-73234095D01*
X116430007Y-73215500D01*
X123091993Y-73215500D01*
X123119822Y-73234095D01*
X123293166Y-73305896D01*
X123477187Y-73342500D01*
X123664813Y-73342500D01*
X123848834Y-73305896D01*
X124022178Y-73234095D01*
X124178184Y-73129855D01*
X124310855Y-72997184D01*
X124415095Y-72841178D01*
X124486896Y-72667834D01*
X124504268Y-72580500D01*
X129822993Y-72580500D01*
X129850822Y-72599095D01*
X130024166Y-72670896D01*
X130208187Y-72707500D01*
X130395813Y-72707500D01*
X130579834Y-72670896D01*
X130753178Y-72599095D01*
X130909184Y-72494855D01*
X131041855Y-72362184D01*
X131146095Y-72206178D01*
X131217896Y-72032834D01*
X131254500Y-71848813D01*
X131254500Y-71661187D01*
X131217896Y-71477166D01*
X131146095Y-71303822D01*
X131041855Y-71147816D01*
X130909184Y-71015145D01*
X130753178Y-70910905D01*
X130579834Y-70839104D01*
X130436143Y-70810522D01*
X130454999Y-70764999D01*
X130626178Y-70694095D01*
X130782184Y-70589855D01*
X130914855Y-70457184D01*
X131019095Y-70301178D01*
X131090896Y-70127834D01*
X131127500Y-69943813D01*
X131127500Y-69756187D01*
X131090896Y-69572166D01*
X131019095Y-69398822D01*
X130914855Y-69242816D01*
X130782184Y-69110145D01*
X130626178Y-69005905D01*
X130452834Y-68934104D01*
X130268813Y-68897500D01*
X130081187Y-68897500D01*
X129897166Y-68934104D01*
X129723822Y-69005905D01*
X129695993Y-69024500D01*
X126917268Y-69024500D01*
X126899896Y-68937166D01*
X126828095Y-68763822D01*
X126723855Y-68607816D01*
X126625441Y-68509402D01*
X126701095Y-68396178D01*
X126772896Y-68222834D01*
X126790268Y-68135500D01*
X126901993Y-68135500D01*
X126929822Y-68154095D01*
X127103166Y-68225896D01*
X127287187Y-68262500D01*
X127474813Y-68262500D01*
X127658834Y-68225896D01*
X127832178Y-68154095D01*
X127988184Y-68049855D01*
X128120855Y-67917184D01*
X128225095Y-67761178D01*
X128296896Y-67587834D01*
X128333500Y-67403813D01*
X128333500Y-67216187D01*
X128296896Y-67032166D01*
X128225095Y-66858822D01*
X128120855Y-66702816D01*
X127988184Y-66570145D01*
X127832178Y-66465905D01*
X127658834Y-66394104D01*
X127474813Y-66357500D01*
X127287187Y-66357500D01*
X127103166Y-66394104D01*
X126929822Y-66465905D01*
X126901993Y-66484500D01*
X118716007Y-66484500D01*
X118688178Y-66465905D01*
X118514834Y-66394104D01*
X118330813Y-66357500D01*
X118143187Y-66357500D01*
X117959166Y-66394104D01*
X117785822Y-66465905D01*
X117757993Y-66484500D01*
X111096007Y-66484500D01*
X111068178Y-66465905D01*
X110894834Y-66394104D01*
X110710813Y-66357500D01*
X110523187Y-66357500D01*
X110339166Y-66394104D01*
X110165822Y-66465905D01*
X110137993Y-66484500D01*
X103583361Y-66484500D01*
X103491178Y-66422905D01*
X103317834Y-66351104D01*
X103133813Y-66314500D01*
X102946187Y-66314500D01*
X102762166Y-66351104D01*
X102588822Y-66422905D01*
X102496639Y-66484500D01*
X87670550Y-66484500D01*
X87630000Y-66480506D01*
X87589449Y-66484500D01*
X87589447Y-66484500D01*
X87468174Y-66496444D01*
X87312566Y-66543647D01*
X87169157Y-66620301D01*
X87074958Y-66697608D01*
X87074955Y-66697611D01*
X87043459Y-66723459D01*
X87017611Y-66754956D01*
X86312961Y-67459607D01*
X86281460Y-67485459D01*
X86255609Y-67516959D01*
X86178301Y-67611158D01*
X86101647Y-67754567D01*
X86054445Y-67910174D01*
X86038506Y-68072000D01*
X86042501Y-68112560D01*
X86042500Y-69222497D01*
X85950795Y-69359744D01*
X85872774Y-69548102D01*
X85833000Y-69748061D01*
X84430100Y-69748061D01*
X84427184Y-69745145D01*
X84271178Y-69640905D01*
X84097834Y-69569104D01*
X83913813Y-69532500D01*
X83726187Y-69532500D01*
X83542166Y-69569104D01*
X83368822Y-69640905D01*
X83212816Y-69745145D01*
X83080145Y-69877816D01*
X82975905Y-70033822D01*
X82904104Y-70207166D01*
X82867500Y-70391187D01*
X82830896Y-70207166D01*
X82759095Y-70033822D01*
X82654855Y-69877816D01*
X82522184Y-69745145D01*
X82366178Y-69640905D01*
X82192834Y-69569104D01*
X82008813Y-69532500D01*
X81821187Y-69532500D01*
X81637166Y-69569104D01*
X81463822Y-69640905D01*
X81307816Y-69745145D01*
X81175145Y-69877816D01*
X81070905Y-70033822D01*
X80999104Y-70207166D01*
X80962500Y-70391187D01*
X56540000Y-70391187D01*
X56540000Y-63523920D01*
X56557707Y-63279872D01*
X61265000Y-63279872D01*
X61265000Y-63720128D01*
X61350890Y-64151925D01*
X61519369Y-64558669D01*
X61763962Y-64924729D01*
X62075271Y-65236038D01*
X62441331Y-65480631D01*
X62848075Y-65649110D01*
X63279872Y-65735000D01*
X63720128Y-65735000D01*
X64151925Y-65649110D01*
X64558669Y-65480631D01*
X64924729Y-65236038D01*
X65236038Y-64924729D01*
X65480631Y-64558669D01*
X65649110Y-64151925D01*
X65735000Y-63720128D01*
X65735000Y-63279872D01*
X65649110Y-62848075D01*
X65480631Y-62441331D01*
X65295993Y-62165000D01*
X69111928Y-62165000D01*
X69111928Y-63915000D01*
X69141001Y-64210186D01*
X69227104Y-64494028D01*
X69366927Y-64755618D01*
X69555097Y-64984903D01*
X69784382Y-65173073D01*
X70045972Y-65312896D01*
X70329814Y-65398999D01*
X70625000Y-65428072D01*
X72375000Y-65428072D01*
X72670186Y-65398999D01*
X72954028Y-65312896D01*
X73215618Y-65173073D01*
X73444903Y-64984903D01*
X73633073Y-64755618D01*
X73772896Y-64494028D01*
X73811928Y-64365357D01*
X73811928Y-67790000D01*
X73824188Y-67914482D01*
X73860498Y-68034180D01*
X73919463Y-68144494D01*
X73998815Y-68241185D01*
X74095506Y-68320537D01*
X74205820Y-68379502D01*
X74325518Y-68415812D01*
X74450000Y-68428072D01*
X77950000Y-68428072D01*
X78074482Y-68415812D01*
X78194180Y-68379502D01*
X78304494Y-68320537D01*
X78401185Y-68241185D01*
X78480537Y-68144494D01*
X78539502Y-68034180D01*
X78575812Y-67914482D01*
X78588072Y-67790000D01*
X78588072Y-64290000D01*
X78575812Y-64165518D01*
X78539502Y-64045820D01*
X78480537Y-63935506D01*
X78401185Y-63838815D01*
X78304494Y-63759463D01*
X78194180Y-63700498D01*
X78074482Y-63664188D01*
X77950000Y-63651928D01*
X74450000Y-63651928D01*
X74325518Y-63664188D01*
X74205820Y-63700498D01*
X74095506Y-63759463D01*
X73998815Y-63838815D01*
X73919463Y-63935506D01*
X73878506Y-64012131D01*
X73888072Y-63915000D01*
X73888072Y-63279872D01*
X137465000Y-63279872D01*
X137465000Y-63720128D01*
X137550890Y-64151925D01*
X137719369Y-64558669D01*
X137963962Y-64924729D01*
X138275271Y-65236038D01*
X138641331Y-65480631D01*
X139048075Y-65649110D01*
X139479872Y-65735000D01*
X139920128Y-65735000D01*
X140351925Y-65649110D01*
X140758669Y-65480631D01*
X141124729Y-65236038D01*
X141436038Y-64924729D01*
X141680631Y-64558669D01*
X141849110Y-64151925D01*
X141935000Y-63720128D01*
X141935000Y-63279872D01*
X141849110Y-62848075D01*
X141680631Y-62441331D01*
X141436038Y-62075271D01*
X141124729Y-61763962D01*
X140758669Y-61519369D01*
X140351925Y-61350890D01*
X139920128Y-61265000D01*
X139479872Y-61265000D01*
X139048075Y-61350890D01*
X138641331Y-61519369D01*
X138275271Y-61763962D01*
X137963962Y-62075271D01*
X137719369Y-62441331D01*
X137550890Y-62848075D01*
X137465000Y-63279872D01*
X73888072Y-63279872D01*
X73888072Y-62165000D01*
X73858999Y-61869814D01*
X73772896Y-61585972D01*
X73748324Y-61540000D01*
X73811928Y-61540000D01*
X73824188Y-61664482D01*
X73860498Y-61784180D01*
X73919463Y-61894494D01*
X73998815Y-61991185D01*
X74095506Y-62070537D01*
X74205820Y-62129502D01*
X74325518Y-62165812D01*
X74450000Y-62178072D01*
X75914250Y-62175000D01*
X76073000Y-62016250D01*
X76073000Y-60167000D01*
X76327000Y-60167000D01*
X76327000Y-62016250D01*
X76485750Y-62175000D01*
X77950000Y-62178072D01*
X78074482Y-62165812D01*
X78194180Y-62129502D01*
X78304494Y-62070537D01*
X78401185Y-61991185D01*
X78480537Y-61894494D01*
X78539502Y-61784180D01*
X78575812Y-61664482D01*
X78588072Y-61540000D01*
X78585000Y-60325750D01*
X78426250Y-60167000D01*
X76327000Y-60167000D01*
X76073000Y-60167000D01*
X73973750Y-60167000D01*
X73815000Y-60325750D01*
X73811928Y-61540000D01*
X73748324Y-61540000D01*
X73633073Y-61324382D01*
X73444903Y-61095097D01*
X73215618Y-60906927D01*
X72954028Y-60767104D01*
X72670186Y-60681001D01*
X72375000Y-60651928D01*
X70625000Y-60651928D01*
X70329814Y-60681001D01*
X70045972Y-60767104D01*
X69784382Y-60906927D01*
X69555097Y-61095097D01*
X69366927Y-61324382D01*
X69227104Y-61585972D01*
X69141001Y-61869814D01*
X69111928Y-62165000D01*
X65295993Y-62165000D01*
X65236038Y-62075271D01*
X64924729Y-61763962D01*
X64558669Y-61519369D01*
X64151925Y-61350890D01*
X63720128Y-61265000D01*
X63279872Y-61265000D01*
X62848075Y-61350890D01*
X62441331Y-61519369D01*
X62075271Y-61763962D01*
X61763962Y-62075271D01*
X61519369Y-62441331D01*
X61350890Y-62848075D01*
X61265000Y-63279872D01*
X56557707Y-63279872D01*
X56614617Y-62495530D01*
X56831739Y-61512102D01*
X57188546Y-60570325D01*
X57677575Y-59689905D01*
X58288569Y-58889313D01*
X58645898Y-58540000D01*
X73811928Y-58540000D01*
X73815000Y-59754250D01*
X73973750Y-59913000D01*
X76073000Y-59913000D01*
X76073000Y-58063750D01*
X76327000Y-58063750D01*
X76327000Y-59913000D01*
X78426250Y-59913000D01*
X78585000Y-59754250D01*
X78588072Y-58540000D01*
X78575812Y-58415518D01*
X78539502Y-58295820D01*
X78480537Y-58185506D01*
X78401185Y-58088815D01*
X78304494Y-58009463D01*
X78194180Y-57950498D01*
X78074482Y-57914188D01*
X77950000Y-57901928D01*
X76485750Y-57905000D01*
X76327000Y-58063750D01*
X76073000Y-58063750D01*
X75914250Y-57905000D01*
X74450000Y-57901928D01*
X74325518Y-57914188D01*
X74205820Y-57950498D01*
X74095506Y-58009463D01*
X73998815Y-58088815D01*
X73919463Y-58185506D01*
X73860498Y-58295820D01*
X73824188Y-58415518D01*
X73811928Y-58540000D01*
X58645898Y-58540000D01*
X59008732Y-58185306D01*
X59822987Y-57592630D01*
X60714269Y-57123704D01*
X61663900Y-56788353D01*
X62655692Y-56592873D01*
X63520164Y-56540000D01*
X139676080Y-56540000D01*
X140704470Y-56614617D01*
G37*
%TD.AperFunction*%
%TD*%
M02*
