%TF.GenerationSoftware,KiCad,Pcbnew,5.1.8+dfsg1-1+b1*%
%TF.CreationDate,2021-05-03T13:53:56-05:00*%
%TF.ProjectId,fram-prototype,6672616d-2d70-4726-9f74-6f747970652e,A*%
%TF.SameCoordinates,Original*%
%TF.FileFunction,Soldermask,Top*%
%TF.FilePolarity,Negative*%
%FSLAX46Y46*%
G04 Gerber Fmt 4.6, Leading zero omitted, Abs format (unit mm)*
G04 Created by KiCad (PCBNEW 5.1.8+dfsg1-1+b1) date 2021-05-03 13:53:56*
%MOMM*%
%LPD*%
G01*
G04 APERTURE LIST*
%ADD10R,2.500000X2.500000*%
%ADD11O,1.600000X1.600000*%
%ADD12R,1.600000X1.600000*%
%ADD13R,1.910000X0.910000*%
%ADD14C,1.500000*%
%ADD15O,1.700000X1.700000*%
%ADD16R,1.700000X1.700000*%
%ADD17R,1.600000X0.410000*%
%ADD18R,0.900000X2.800000*%
%ADD19R,3.500000X3.500000*%
%ADD20R,2.000000X2.000000*%
%ADD21C,2.000000*%
%ADD22R,2.000000X3.200000*%
%ADD23C,3.200000*%
G04 APERTURE END LIST*
D10*
%TO.C,PS1*%
X59905000Y-94900000D03*
X70905000Y-94900000D03*
X70905000Y-82900000D03*
X59905000Y-82900000D03*
%TD*%
D11*
%TO.C,U1*%
X116840000Y-93980000D03*
X83820000Y-86360000D03*
X114300000Y-93980000D03*
X86360000Y-86360000D03*
X111760000Y-93980000D03*
X88900000Y-86360000D03*
X109220000Y-93980000D03*
X91440000Y-86360000D03*
X106680000Y-93980000D03*
X93980000Y-86360000D03*
X104140000Y-93980000D03*
X96520000Y-86360000D03*
X101600000Y-93980000D03*
X99060000Y-86360000D03*
X99060000Y-93980000D03*
X101600000Y-86360000D03*
X96520000Y-93980000D03*
X104140000Y-86360000D03*
X93980000Y-93980000D03*
X106680000Y-86360000D03*
X91440000Y-93980000D03*
X109220000Y-86360000D03*
X88900000Y-93980000D03*
X111760000Y-86360000D03*
X86360000Y-93980000D03*
X114300000Y-86360000D03*
X83820000Y-93980000D03*
D12*
X116840000Y-86360000D03*
%TD*%
D13*
%TO.C,D6*%
X68305000Y-70530000D03*
X68305000Y-72980000D03*
X62505000Y-72980000D03*
X62505000Y-70530000D03*
%TD*%
D14*
%TO.C,Y1*%
X107515000Y-80645000D03*
X112395000Y-80645000D03*
%TD*%
%TO.C,R4*%
G36*
G01*
X129530000Y-85105000D02*
X128280000Y-85105000D01*
G75*
G02*
X128030000Y-84855000I0J250000D01*
G01*
X128030000Y-84055000D01*
G75*
G02*
X128280000Y-83805000I250000J0D01*
G01*
X129530000Y-83805000D01*
G75*
G02*
X129780000Y-84055000I0J-250000D01*
G01*
X129780000Y-84855000D01*
G75*
G02*
X129530000Y-85105000I-250000J0D01*
G01*
G37*
G36*
G01*
X129530000Y-88205000D02*
X128280000Y-88205000D01*
G75*
G02*
X128030000Y-87955000I0J250000D01*
G01*
X128030000Y-87155000D01*
G75*
G02*
X128280000Y-86905000I250000J0D01*
G01*
X129530000Y-86905000D01*
G75*
G02*
X129780000Y-87155000I0J-250000D01*
G01*
X129780000Y-87955000D01*
G75*
G02*
X129530000Y-88205000I-250000J0D01*
G01*
G37*
%TD*%
%TO.C,R3*%
G36*
G01*
X102225000Y-80380000D02*
X100975000Y-80380000D01*
G75*
G02*
X100725000Y-80130000I0J250000D01*
G01*
X100725000Y-79330000D01*
G75*
G02*
X100975000Y-79080000I250000J0D01*
G01*
X102225000Y-79080000D01*
G75*
G02*
X102475000Y-79330000I0J-250000D01*
G01*
X102475000Y-80130000D01*
G75*
G02*
X102225000Y-80380000I-250000J0D01*
G01*
G37*
G36*
G01*
X102225000Y-83480000D02*
X100975000Y-83480000D01*
G75*
G02*
X100725000Y-83230000I0J250000D01*
G01*
X100725000Y-82430000D01*
G75*
G02*
X100975000Y-82180000I250000J0D01*
G01*
X102225000Y-82180000D01*
G75*
G02*
X102475000Y-82430000I0J-250000D01*
G01*
X102475000Y-83230000D01*
G75*
G02*
X102225000Y-83480000I-250000J0D01*
G01*
G37*
%TD*%
%TO.C,C7*%
G36*
G01*
X90154999Y-80910000D02*
X91455001Y-80910000D01*
G75*
G02*
X91705000Y-81159999I0J-249999D01*
G01*
X91705000Y-81985001D01*
G75*
G02*
X91455001Y-82235000I-249999J0D01*
G01*
X90154999Y-82235000D01*
G75*
G02*
X89905000Y-81985001I0J249999D01*
G01*
X89905000Y-81159999D01*
G75*
G02*
X90154999Y-80910000I249999J0D01*
G01*
G37*
G36*
G01*
X90154999Y-77785000D02*
X91455001Y-77785000D01*
G75*
G02*
X91705000Y-78034999I0J-249999D01*
G01*
X91705000Y-78860001D01*
G75*
G02*
X91455001Y-79110000I-249999J0D01*
G01*
X90154999Y-79110000D01*
G75*
G02*
X89905000Y-78860001I0J249999D01*
G01*
X89905000Y-78034999D01*
G75*
G02*
X90154999Y-77785000I249999J0D01*
G01*
G37*
%TD*%
%TO.C,C6*%
G36*
G01*
X121020000Y-78089999D02*
X121020000Y-79390001D01*
G75*
G02*
X120770001Y-79640000I-249999J0D01*
G01*
X119944999Y-79640000D01*
G75*
G02*
X119695000Y-79390001I0J249999D01*
G01*
X119695000Y-78089999D01*
G75*
G02*
X119944999Y-77840000I249999J0D01*
G01*
X120770001Y-77840000D01*
G75*
G02*
X121020000Y-78089999I0J-249999D01*
G01*
G37*
G36*
G01*
X124145000Y-78089999D02*
X124145000Y-79390001D01*
G75*
G02*
X123895001Y-79640000I-249999J0D01*
G01*
X123069999Y-79640000D01*
G75*
G02*
X122820000Y-79390001I0J249999D01*
G01*
X122820000Y-78089999D01*
G75*
G02*
X123069999Y-77840000I249999J0D01*
G01*
X123895001Y-77840000D01*
G75*
G02*
X124145000Y-78089999I0J-249999D01*
G01*
G37*
%TD*%
%TO.C,C5*%
G36*
G01*
X121020000Y-81899999D02*
X121020000Y-83200001D01*
G75*
G02*
X120770001Y-83450000I-249999J0D01*
G01*
X119944999Y-83450000D01*
G75*
G02*
X119695000Y-83200001I0J249999D01*
G01*
X119695000Y-81899999D01*
G75*
G02*
X119944999Y-81650000I249999J0D01*
G01*
X120770001Y-81650000D01*
G75*
G02*
X121020000Y-81899999I0J-249999D01*
G01*
G37*
G36*
G01*
X124145000Y-81899999D02*
X124145000Y-83200001D01*
G75*
G02*
X123895001Y-83450000I-249999J0D01*
G01*
X123069999Y-83450000D01*
G75*
G02*
X122820000Y-83200001I0J249999D01*
G01*
X122820000Y-81899999D01*
G75*
G02*
X123069999Y-81650000I249999J0D01*
G01*
X123895001Y-81650000D01*
G75*
G02*
X124145000Y-81899999I0J-249999D01*
G01*
G37*
%TD*%
%TO.C,R2*%
G36*
G01*
X85385000Y-71764999D02*
X85385000Y-73015001D01*
G75*
G02*
X85135001Y-73265000I-249999J0D01*
G01*
X84334999Y-73265000D01*
G75*
G02*
X84085000Y-73015001I0J249999D01*
G01*
X84085000Y-71764999D01*
G75*
G02*
X84334999Y-71515000I249999J0D01*
G01*
X85135001Y-71515000D01*
G75*
G02*
X85385000Y-71764999I0J-249999D01*
G01*
G37*
G36*
G01*
X82285000Y-71764999D02*
X82285000Y-73015001D01*
G75*
G02*
X82035001Y-73265000I-249999J0D01*
G01*
X81234999Y-73265000D01*
G75*
G02*
X80985000Y-73015001I0J249999D01*
G01*
X80985000Y-71764999D01*
G75*
G02*
X81234999Y-71515000I249999J0D01*
G01*
X82035001Y-71515000D01*
G75*
G02*
X82285000Y-71764999I0J-249999D01*
G01*
G37*
%TD*%
%TO.C,R1*%
G36*
G01*
X68950000Y-100974999D02*
X68950000Y-102225001D01*
G75*
G02*
X68700001Y-102475000I-249999J0D01*
G01*
X67899999Y-102475000D01*
G75*
G02*
X67650000Y-102225001I0J249999D01*
G01*
X67650000Y-100974999D01*
G75*
G02*
X67899999Y-100725000I249999J0D01*
G01*
X68700001Y-100725000D01*
G75*
G02*
X68950000Y-100974999I0J-249999D01*
G01*
G37*
G36*
G01*
X72050000Y-100974999D02*
X72050000Y-102225001D01*
G75*
G02*
X71800001Y-102475000I-249999J0D01*
G01*
X70999999Y-102475000D01*
G75*
G02*
X70750000Y-102225001I0J249999D01*
G01*
X70750000Y-100974999D01*
G75*
G02*
X70999999Y-100725000I249999J0D01*
G01*
X71800001Y-100725000D01*
G75*
G02*
X72050000Y-100974999I0J-249999D01*
G01*
G37*
%TD*%
D15*
%TO.C,J2*%
X135890000Y-92710000D03*
X133350000Y-92710000D03*
X135890000Y-90170000D03*
X133350000Y-90170000D03*
X135890000Y-87630000D03*
D16*
X133350000Y-87630000D03*
%TD*%
%TO.C,D1*%
G36*
G01*
X64275000Y-102225000D02*
X64275000Y-100975000D01*
G75*
G02*
X64525000Y-100725000I250000J0D01*
G01*
X65450000Y-100725000D01*
G75*
G02*
X65700000Y-100975000I0J-250000D01*
G01*
X65700000Y-102225000D01*
G75*
G02*
X65450000Y-102475000I-250000J0D01*
G01*
X64525000Y-102475000D01*
G75*
G02*
X64275000Y-102225000I0J250000D01*
G01*
G37*
G36*
G01*
X61300000Y-102225000D02*
X61300000Y-100975000D01*
G75*
G02*
X61550000Y-100725000I250000J0D01*
G01*
X62475000Y-100725000D01*
G75*
G02*
X62725000Y-100975000I0J-250000D01*
G01*
X62725000Y-102225000D01*
G75*
G02*
X62475000Y-102475000I-250000J0D01*
G01*
X61550000Y-102475000D01*
G75*
G02*
X61300000Y-102225000I0J250000D01*
G01*
G37*
%TD*%
%TO.C,C4*%
G36*
G01*
X97805002Y-62600000D02*
X96504998Y-62600000D01*
G75*
G02*
X96255000Y-62350002I0J249998D01*
G01*
X96255000Y-61524998D01*
G75*
G02*
X96504998Y-61275000I249998J0D01*
G01*
X97805002Y-61275000D01*
G75*
G02*
X98055000Y-61524998I0J-249998D01*
G01*
X98055000Y-62350002D01*
G75*
G02*
X97805002Y-62600000I-249998J0D01*
G01*
G37*
G36*
G01*
X97805002Y-65725000D02*
X96504998Y-65725000D01*
G75*
G02*
X96255000Y-65475002I0J249998D01*
G01*
X96255000Y-64649998D01*
G75*
G02*
X96504998Y-64400000I249998J0D01*
G01*
X97805002Y-64400000D01*
G75*
G02*
X98055000Y-64649998I0J-249998D01*
G01*
X98055000Y-65475002D01*
G75*
G02*
X97805002Y-65725000I-249998J0D01*
G01*
G37*
%TD*%
%TO.C,C3*%
G36*
G01*
X93329998Y-77735000D02*
X94630002Y-77735000D01*
G75*
G02*
X94880000Y-77984998I0J-249998D01*
G01*
X94880000Y-78810002D01*
G75*
G02*
X94630002Y-79060000I-249998J0D01*
G01*
X93329998Y-79060000D01*
G75*
G02*
X93080000Y-78810002I0J249998D01*
G01*
X93080000Y-77984998D01*
G75*
G02*
X93329998Y-77735000I249998J0D01*
G01*
G37*
G36*
G01*
X93329998Y-74610000D02*
X94630002Y-74610000D01*
G75*
G02*
X94880000Y-74859998I0J-249998D01*
G01*
X94880000Y-75685002D01*
G75*
G02*
X94630002Y-75935000I-249998J0D01*
G01*
X93329998Y-75935000D01*
G75*
G02*
X93080000Y-75685002I0J249998D01*
G01*
X93080000Y-74859998D01*
G75*
G02*
X93329998Y-74610000I249998J0D01*
G01*
G37*
%TD*%
%TO.C,C2*%
G36*
G01*
X75580002Y-92445000D02*
X74279998Y-92445000D01*
G75*
G02*
X74030000Y-92195002I0J249998D01*
G01*
X74030000Y-91369998D01*
G75*
G02*
X74279998Y-91120000I249998J0D01*
G01*
X75580002Y-91120000D01*
G75*
G02*
X75830000Y-91369998I0J-249998D01*
G01*
X75830000Y-92195002D01*
G75*
G02*
X75580002Y-92445000I-249998J0D01*
G01*
G37*
G36*
G01*
X75580002Y-95570000D02*
X74279998Y-95570000D01*
G75*
G02*
X74030000Y-95320002I0J249998D01*
G01*
X74030000Y-94494998D01*
G75*
G02*
X74279998Y-94245000I249998J0D01*
G01*
X75580002Y-94245000D01*
G75*
G02*
X75830000Y-94494998I0J-249998D01*
G01*
X75830000Y-95320002D01*
G75*
G02*
X75580002Y-95570000I-249998J0D01*
G01*
G37*
%TD*%
%TO.C,C1*%
G36*
G01*
X62495000Y-79390002D02*
X62495000Y-78089998D01*
G75*
G02*
X62744998Y-77840000I249998J0D01*
G01*
X63570002Y-77840000D01*
G75*
G02*
X63820000Y-78089998I0J-249998D01*
G01*
X63820000Y-79390002D01*
G75*
G02*
X63570002Y-79640000I-249998J0D01*
G01*
X62744998Y-79640000D01*
G75*
G02*
X62495000Y-79390002I0J249998D01*
G01*
G37*
G36*
G01*
X59370000Y-79390002D02*
X59370000Y-78089998D01*
G75*
G02*
X59619998Y-77840000I249998J0D01*
G01*
X60445002Y-77840000D01*
G75*
G02*
X60695000Y-78089998I0J-249998D01*
G01*
X60695000Y-79390002D01*
G75*
G02*
X60445002Y-79640000I-249998J0D01*
G01*
X59619998Y-79640000D01*
G75*
G02*
X59370000Y-79390002I0J249998D01*
G01*
G37*
%TD*%
D17*
%TO.C,U3*%
X94094300Y-68580000D03*
X94094300Y-69215000D03*
X94094300Y-69850000D03*
X94094300Y-70485000D03*
X94094300Y-71120000D03*
X94094300Y-71755000D03*
X94094300Y-72390000D03*
X94094300Y-73025000D03*
X88785700Y-73025000D03*
X88785700Y-72390000D03*
X88785700Y-71755000D03*
X88785700Y-71120000D03*
X88785700Y-70485000D03*
X88785700Y-69850000D03*
X88785700Y-69215000D03*
X88785700Y-68580000D03*
%TD*%
%TO.C,U2*%
G36*
G01*
X91700000Y-102385000D02*
X91700000Y-102085000D01*
G75*
G02*
X91850000Y-101935000I150000J0D01*
G01*
X93150000Y-101935000D01*
G75*
G02*
X93300000Y-102085000I0J-150000D01*
G01*
X93300000Y-102385000D01*
G75*
G02*
X93150000Y-102535000I-150000J0D01*
G01*
X91850000Y-102535000D01*
G75*
G02*
X91700000Y-102385000I0J150000D01*
G01*
G37*
G36*
G01*
X91700000Y-103655000D02*
X91700000Y-103355000D01*
G75*
G02*
X91850000Y-103205000I150000J0D01*
G01*
X93150000Y-103205000D01*
G75*
G02*
X93300000Y-103355000I0J-150000D01*
G01*
X93300000Y-103655000D01*
G75*
G02*
X93150000Y-103805000I-150000J0D01*
G01*
X91850000Y-103805000D01*
G75*
G02*
X91700000Y-103655000I0J150000D01*
G01*
G37*
G36*
G01*
X91700000Y-104925000D02*
X91700000Y-104625000D01*
G75*
G02*
X91850000Y-104475000I150000J0D01*
G01*
X93150000Y-104475000D01*
G75*
G02*
X93300000Y-104625000I0J-150000D01*
G01*
X93300000Y-104925000D01*
G75*
G02*
X93150000Y-105075000I-150000J0D01*
G01*
X91850000Y-105075000D01*
G75*
G02*
X91700000Y-104925000I0J150000D01*
G01*
G37*
G36*
G01*
X91700000Y-106195000D02*
X91700000Y-105895000D01*
G75*
G02*
X91850000Y-105745000I150000J0D01*
G01*
X93150000Y-105745000D01*
G75*
G02*
X93300000Y-105895000I0J-150000D01*
G01*
X93300000Y-106195000D01*
G75*
G02*
X93150000Y-106345000I-150000J0D01*
G01*
X91850000Y-106345000D01*
G75*
G02*
X91700000Y-106195000I0J150000D01*
G01*
G37*
G36*
G01*
X84500000Y-106195000D02*
X84500000Y-105895000D01*
G75*
G02*
X84650000Y-105745000I150000J0D01*
G01*
X85950000Y-105745000D01*
G75*
G02*
X86100000Y-105895000I0J-150000D01*
G01*
X86100000Y-106195000D01*
G75*
G02*
X85950000Y-106345000I-150000J0D01*
G01*
X84650000Y-106345000D01*
G75*
G02*
X84500000Y-106195000I0J150000D01*
G01*
G37*
G36*
G01*
X84500000Y-104925000D02*
X84500000Y-104625000D01*
G75*
G02*
X84650000Y-104475000I150000J0D01*
G01*
X85950000Y-104475000D01*
G75*
G02*
X86100000Y-104625000I0J-150000D01*
G01*
X86100000Y-104925000D01*
G75*
G02*
X85950000Y-105075000I-150000J0D01*
G01*
X84650000Y-105075000D01*
G75*
G02*
X84500000Y-104925000I0J150000D01*
G01*
G37*
G36*
G01*
X84500000Y-103655000D02*
X84500000Y-103355000D01*
G75*
G02*
X84650000Y-103205000I150000J0D01*
G01*
X85950000Y-103205000D01*
G75*
G02*
X86100000Y-103355000I0J-150000D01*
G01*
X86100000Y-103655000D01*
G75*
G02*
X85950000Y-103805000I-150000J0D01*
G01*
X84650000Y-103805000D01*
G75*
G02*
X84500000Y-103655000I0J150000D01*
G01*
G37*
G36*
G01*
X84500000Y-102385000D02*
X84500000Y-102085000D01*
G75*
G02*
X84650000Y-101935000I150000J0D01*
G01*
X85950000Y-101935000D01*
G75*
G02*
X86100000Y-102085000I0J-150000D01*
G01*
X86100000Y-102385000D01*
G75*
G02*
X85950000Y-102535000I-150000J0D01*
G01*
X84650000Y-102535000D01*
G75*
G02*
X84500000Y-102385000I0J150000D01*
G01*
G37*
%TD*%
D18*
%TO.C,D5*%
X124460000Y-64850000D03*
X125900000Y-64850000D03*
X127340000Y-64850000D03*
X128780000Y-64850000D03*
X130220000Y-64850000D03*
X130220000Y-74850000D03*
X128780000Y-74850000D03*
X127340000Y-74850000D03*
X125900000Y-74850000D03*
X124460000Y-74850000D03*
%TD*%
%TO.C,D4*%
X116840000Y-64850000D03*
X118280000Y-64850000D03*
X119720000Y-64850000D03*
X121160000Y-64850000D03*
X122600000Y-64850000D03*
X122600000Y-74850000D03*
X121160000Y-74850000D03*
X119720000Y-74850000D03*
X118280000Y-74850000D03*
X116840000Y-74850000D03*
%TD*%
%TO.C,D3*%
X109220000Y-64850000D03*
X110660000Y-64850000D03*
X112100000Y-64850000D03*
X113540000Y-64850000D03*
X114980000Y-64850000D03*
X114980000Y-74850000D03*
X113540000Y-74850000D03*
X112100000Y-74850000D03*
X110660000Y-74850000D03*
X109220000Y-74850000D03*
%TD*%
%TO.C,D2*%
X101600000Y-64850000D03*
X103040000Y-64850000D03*
X104480000Y-64850000D03*
X105920000Y-64850000D03*
X107360000Y-64850000D03*
X107360000Y-74850000D03*
X105920000Y-74850000D03*
X104480000Y-74850000D03*
X103040000Y-74850000D03*
X101600000Y-74850000D03*
%TD*%
%TO.C,J1*%
G36*
G01*
X70625000Y-61290000D02*
X72375000Y-61290000D01*
G75*
G02*
X73250000Y-62165000I0J-875000D01*
G01*
X73250000Y-63915000D01*
G75*
G02*
X72375000Y-64790000I-875000J0D01*
G01*
X70625000Y-64790000D01*
G75*
G02*
X69750000Y-63915000I0J875000D01*
G01*
X69750000Y-62165000D01*
G75*
G02*
X70625000Y-61290000I875000J0D01*
G01*
G37*
G36*
G01*
X75200000Y-58540000D02*
X77200000Y-58540000D01*
G75*
G02*
X77950000Y-59290000I0J-750000D01*
G01*
X77950000Y-60790000D01*
G75*
G02*
X77200000Y-61540000I-750000J0D01*
G01*
X75200000Y-61540000D01*
G75*
G02*
X74450000Y-60790000I0J750000D01*
G01*
X74450000Y-59290000D01*
G75*
G02*
X75200000Y-58540000I750000J0D01*
G01*
G37*
D19*
X76200000Y-66040000D03*
%TD*%
D20*
%TO.C,SW1*%
X123190000Y-100330000D03*
D21*
X120690000Y-100330000D03*
X118190000Y-100330000D03*
D22*
X126290000Y-107830000D03*
X115090000Y-107830000D03*
D21*
X123190000Y-114830000D03*
X118190000Y-114830000D03*
%TD*%
D23*
%TO.C,REF\u002A\u002A*%
X63500000Y-114300000D03*
%TD*%
%TO.C,REF\u002A\u002A*%
X139700000Y-114300000D03*
%TD*%
%TO.C,REF\u002A\u002A*%
X63500000Y-63500000D03*
%TD*%
%TO.C,REF\u002A\u002A*%
X139700000Y-63500000D03*
%TD*%
M02*
