M48
; DRILL file {KiCad 5.1.8+dfsg1-1+b1} date Mon May  3 13:54:02 2021
; FORMAT={-:-/ absolute / inch / decimal}
; #@! TF.CreationDate,2021-05-03T13:54:02-05:00
; #@! TF.GenerationSoftware,Kicad,Pcbnew,5.1.8+dfsg1-1+b1
; #@! TF.FileFunction,Plated,1,2,PTH
FMAT,2
INCH
T1C0.0157
T2C0.0315
T3C0.0394
T4C0.0591
%
G90
G05
T1
X3.125Y-2.675
X3.15Y-2.725
X3.175Y-2.7
X3.42Y-2.75
X3.42Y-2.8
X3.45Y-3.925
X3.5Y-3.475
X3.57Y-2.775
X3.57Y-2.825
X3.6Y-3.5
X3.63Y-2.75
X3.63Y-2.8
X3.63Y-2.85
X3.78Y-2.775
X3.78Y-2.825
X3.78Y-2.825
X3.78Y-2.875
X3.8Y-3.15
X4.0Y-2.675
X4.03Y-2.7
X4.0567Y-2.6483
X4.057Y-2.725
X4.113Y-2.825
X4.169Y-2.8
X4.2Y-2.775
X4.226Y-2.75
X4.226Y-2.85
X4.305Y-2.675
X4.33Y-2.7
X4.355Y-2.65
X4.36Y-2.725
X4.415Y-2.85
X4.47Y-2.8
X4.5Y-2.775
X4.525Y-2.75
X4.527Y-2.825
X4.565Y-2.85
X4.63Y-2.7
X4.655Y-2.65
X4.655Y-2.725
X4.71Y-2.675
X4.77Y-2.8
X4.8Y-2.775
X4.825Y-2.75
X4.829Y-2.825
X4.865Y-2.85
X4.93Y-2.7
X4.955Y-2.675
X4.96Y-2.725
X5.015Y-2.65
X5.075Y-2.8
X5.1Y-2.775
X5.125Y-2.75
X5.13Y-2.825
T2
X3.3Y-3.4
X3.3Y-3.7
X3.4Y-3.4
X3.4Y-3.7
X3.5Y-3.4
X3.5Y-3.7
X3.6Y-3.4
X3.6Y-3.7
X3.7Y-3.4
X3.7Y-3.7
X3.8Y-3.4
X3.8Y-3.7
X3.9Y-3.4
X3.9Y-3.7
X4.0Y-3.4
X4.0Y-3.7
X4.1Y-3.4
X4.1Y-3.7
X4.2Y-3.4
X4.2Y-3.7
X4.3Y-3.4
X4.3Y-3.7
X4.4Y-3.4
X4.4Y-3.7
X4.5Y-3.4
X4.5Y-3.7
X4.6Y-3.4
X4.6Y-3.7
X4.2329Y-3.175
X4.425Y-3.175
T3
X5.25Y-3.45
X5.25Y-3.55
X5.25Y-3.65
X5.35Y-3.45
X5.35Y-3.55
X5.35Y-3.65
X4.6531Y-3.95
X4.6531Y-4.5209
X4.7516Y-3.95
X4.85Y-3.95
X4.85Y-4.5209
T3
G00X2.815Y-2.4425
M15
G01X2.815Y-2.5213
M16
G05
G00X3.0394Y-2.3638
M15
G01X2.9606Y-2.3638
M16
G05
G00X3.0394Y-2.6
M15
G01X2.9606Y-2.6
M16
G05
T4
G00X4.5311Y-4.2197
M15
G01X4.5311Y-4.2709
M16
G05
G00X4.972Y-4.2197
M15
G01X4.972Y-4.2709
M16
G05
T0
M30
