%TF.GenerationSoftware,KiCad,Pcbnew,5.1.8+dfsg1-1+b1*%
%TF.CreationDate,2021-01-25T17:02:13-06:00*%
%TF.ProjectId,fram-prototype,6672616d-2d70-4726-9f74-6f747970652e,1.0.0*%
%TF.SameCoordinates,Original*%
%TF.FileFunction,Copper,L1,Top*%
%TF.FilePolarity,Positive*%
%FSLAX46Y46*%
G04 Gerber Fmt 4.6, Leading zero omitted, Abs format (unit mm)*
G04 Created by KiCad (PCBNEW 5.1.8+dfsg1-1+b1) date 2021-01-25 17:02:13*
%MOMM*%
%LPD*%
G01*
G04 APERTURE LIST*
%TA.AperFunction,SMDPad,CuDef*%
%ADD10R,1.600000X0.410000*%
%TD*%
%TA.AperFunction,SMDPad,CuDef*%
%ADD11R,0.900000X2.800000*%
%TD*%
%TA.AperFunction,ComponentPad*%
%ADD12R,3.500000X3.500000*%
%TD*%
%TA.AperFunction,ComponentPad*%
%ADD13R,2.000000X2.000000*%
%TD*%
%TA.AperFunction,ComponentPad*%
%ADD14C,2.000000*%
%TD*%
%TA.AperFunction,ComponentPad*%
%ADD15R,2.000000X3.200000*%
%TD*%
%TA.AperFunction,Conductor*%
%ADD16C,0.254000*%
%TD*%
%TA.AperFunction,Conductor*%
%ADD17C,0.100000*%
%TD*%
G04 APERTURE END LIST*
D10*
%TO.P,U2,16*%
%TO.N,N/C*%
X116954300Y-82867500D03*
%TO.P,U2,15*%
X116954300Y-83502500D03*
%TO.P,U2,14*%
X116954300Y-84137500D03*
%TO.P,U2,13*%
X116954300Y-84772500D03*
%TO.P,U2,12*%
X116954300Y-85407500D03*
%TO.P,U2,11*%
X116954300Y-86042500D03*
%TO.P,U2,10*%
X116954300Y-86677500D03*
%TO.P,U2,9*%
X116954300Y-87312500D03*
%TO.P,U2,8*%
X111645700Y-87312500D03*
%TO.P,U2,7*%
X111645700Y-86677500D03*
%TO.P,U2,6*%
X111645700Y-86042500D03*
%TO.P,U2,5*%
X111645700Y-85407500D03*
%TO.P,U2,4*%
X111645700Y-84772500D03*
%TO.P,U2,3*%
X111645700Y-84137500D03*
%TO.P,U2,2*%
X111645700Y-83502500D03*
%TO.P,U2,1*%
X111645700Y-82867500D03*
%TD*%
D11*
%TO.P,D4,10*%
%TO.N,N/C*%
X121580000Y-64850000D03*
%TO.P,D4,9*%
X123020000Y-64850000D03*
%TO.P,D4,8*%
X124460000Y-64850000D03*
%TO.P,D4,7*%
X125900000Y-64850000D03*
%TO.P,D4,6*%
X127340000Y-64850000D03*
%TO.P,D4,5*%
X127340000Y-74850000D03*
%TO.P,D4,4*%
X125900000Y-74850000D03*
%TO.P,D4,3*%
X124460000Y-74850000D03*
%TO.P,D4,2*%
X123020000Y-74850000D03*
%TO.P,D4,1*%
X121580000Y-74850000D03*
%TD*%
%TO.P,D3,10*%
%TO.N,N/C*%
X113960000Y-64850000D03*
%TO.P,D3,9*%
X115400000Y-64850000D03*
%TO.P,D3,8*%
X116840000Y-64850000D03*
%TO.P,D3,7*%
X118280000Y-64850000D03*
%TO.P,D3,6*%
X119720000Y-64850000D03*
%TO.P,D3,5*%
X119720000Y-74850000D03*
%TO.P,D3,4*%
X118280000Y-74850000D03*
%TO.P,D3,3*%
X116840000Y-74850000D03*
%TO.P,D3,2*%
X115400000Y-74850000D03*
%TO.P,D3,1*%
X113960000Y-74850000D03*
%TD*%
%TO.P,D2,10*%
%TO.N,N/C*%
X106340000Y-64850000D03*
%TO.P,D2,9*%
X107780000Y-64850000D03*
%TO.P,D2,8*%
X109220000Y-64850000D03*
%TO.P,D2,7*%
X110660000Y-64850000D03*
%TO.P,D2,6*%
X112100000Y-64850000D03*
%TO.P,D2,5*%
X112100000Y-74850000D03*
%TO.P,D2,4*%
X110660000Y-74850000D03*
%TO.P,D2,3*%
X109220000Y-74850000D03*
%TO.P,D2,2*%
X107780000Y-74850000D03*
%TO.P,D2,1*%
X106340000Y-74850000D03*
%TD*%
%TO.P,D1,10*%
%TO.N,N/C*%
X98720000Y-64850000D03*
%TO.P,D1,9*%
X100160000Y-64850000D03*
%TO.P,D1,8*%
X101600000Y-64850000D03*
%TO.P,D1,7*%
X103040000Y-64850000D03*
%TO.P,D1,6*%
X104480000Y-64850000D03*
%TO.P,D1,5*%
X104480000Y-74850000D03*
%TO.P,D1,4*%
X103040000Y-74850000D03*
%TO.P,D1,3*%
X101600000Y-74850000D03*
%TO.P,D1,2*%
X100160000Y-74850000D03*
%TO.P,D1,1*%
X98720000Y-74850000D03*
%TD*%
%TO.P,J1,3*%
%TO.N,N/C*%
%TA.AperFunction,ComponentPad*%
G36*
G01*
X70625000Y-61290000D02*
X72375000Y-61290000D01*
G75*
G02*
X73250000Y-62165000I0J-875000D01*
G01*
X73250000Y-63915000D01*
G75*
G02*
X72375000Y-64790000I-875000J0D01*
G01*
X70625000Y-64790000D01*
G75*
G02*
X69750000Y-63915000I0J875000D01*
G01*
X69750000Y-62165000D01*
G75*
G02*
X70625000Y-61290000I875000J0D01*
G01*
G37*
%TD.AperFunction*%
%TO.P,J1,2*%
%TO.N,GND*%
%TA.AperFunction,ComponentPad*%
G36*
G01*
X75200000Y-58540000D02*
X77200000Y-58540000D01*
G75*
G02*
X77950000Y-59290000I0J-750000D01*
G01*
X77950000Y-60790000D01*
G75*
G02*
X77200000Y-61540000I-750000J0D01*
G01*
X75200000Y-61540000D01*
G75*
G02*
X74450000Y-60790000I0J750000D01*
G01*
X74450000Y-59290000D01*
G75*
G02*
X75200000Y-58540000I750000J0D01*
G01*
G37*
%TD.AperFunction*%
D12*
%TO.P,J1,1*%
%TO.N,N/C*%
X76200000Y-66040000D03*
%TD*%
D13*
%TO.P,SW1,A*%
%TO.N,N/C*%
X123190000Y-100450000D03*
D14*
%TO.P,SW1,C*%
X120690000Y-100450000D03*
%TO.P,SW1,B*%
X118190000Y-100450000D03*
D15*
%TO.P,SW1,MP*%
X126290000Y-107950000D03*
X115090000Y-107950000D03*
D14*
%TO.P,SW1,S2*%
X123190000Y-114950000D03*
%TO.P,SW1,S1*%
X118190000Y-114950000D03*
%TD*%
D16*
%TO.N,GND*%
X140704470Y-56614617D02*
X141687898Y-56831739D01*
X142629675Y-57188546D01*
X143510095Y-57677575D01*
X144310687Y-58288569D01*
X145014694Y-59008732D01*
X145607370Y-59822987D01*
X146076296Y-60714269D01*
X146411647Y-61663900D01*
X146607127Y-62655692D01*
X146660000Y-63520164D01*
X146660001Y-114276080D01*
X146585382Y-115304470D01*
X146368262Y-116287896D01*
X146011454Y-117229675D01*
X145522424Y-118110095D01*
X144911435Y-118910684D01*
X144191268Y-119614694D01*
X143377013Y-120207370D01*
X142485731Y-120676296D01*
X141536099Y-121011647D01*
X140544309Y-121207127D01*
X139679835Y-121260000D01*
X63523906Y-121260000D01*
X62495530Y-121185382D01*
X61512104Y-120968262D01*
X60570325Y-120611454D01*
X59689905Y-120122424D01*
X58889316Y-119511435D01*
X58185306Y-118791268D01*
X57592630Y-117977013D01*
X57123704Y-117085731D01*
X56788353Y-116136099D01*
X56592873Y-115144309D01*
X56540000Y-114279835D01*
X56540000Y-114079872D01*
X61265000Y-114079872D01*
X61265000Y-114520128D01*
X61350890Y-114951925D01*
X61519369Y-115358669D01*
X61763962Y-115724729D01*
X62075271Y-116036038D01*
X62441331Y-116280631D01*
X62848075Y-116449110D01*
X63279872Y-116535000D01*
X63720128Y-116535000D01*
X64151925Y-116449110D01*
X64558669Y-116280631D01*
X64924729Y-116036038D01*
X65236038Y-115724729D01*
X65480631Y-115358669D01*
X65649110Y-114951925D01*
X65681524Y-114788967D01*
X116555000Y-114788967D01*
X116555000Y-115111033D01*
X116617832Y-115426912D01*
X116741082Y-115724463D01*
X116920013Y-115992252D01*
X117147748Y-116219987D01*
X117415537Y-116398918D01*
X117713088Y-116522168D01*
X118028967Y-116585000D01*
X118351033Y-116585000D01*
X118666912Y-116522168D01*
X118964463Y-116398918D01*
X119232252Y-116219987D01*
X119459987Y-115992252D01*
X119638918Y-115724463D01*
X119762168Y-115426912D01*
X119825000Y-115111033D01*
X119825000Y-114788967D01*
X121555000Y-114788967D01*
X121555000Y-115111033D01*
X121617832Y-115426912D01*
X121741082Y-115724463D01*
X121920013Y-115992252D01*
X122147748Y-116219987D01*
X122415537Y-116398918D01*
X122713088Y-116522168D01*
X123028967Y-116585000D01*
X123351033Y-116585000D01*
X123666912Y-116522168D01*
X123964463Y-116398918D01*
X124232252Y-116219987D01*
X124459987Y-115992252D01*
X124638918Y-115724463D01*
X124762168Y-115426912D01*
X124825000Y-115111033D01*
X124825000Y-114788967D01*
X124762168Y-114473088D01*
X124638918Y-114175537D01*
X124574997Y-114079872D01*
X137465000Y-114079872D01*
X137465000Y-114520128D01*
X137550890Y-114951925D01*
X137719369Y-115358669D01*
X137963962Y-115724729D01*
X138275271Y-116036038D01*
X138641331Y-116280631D01*
X139048075Y-116449110D01*
X139479872Y-116535000D01*
X139920128Y-116535000D01*
X140351925Y-116449110D01*
X140758669Y-116280631D01*
X141124729Y-116036038D01*
X141436038Y-115724729D01*
X141680631Y-115358669D01*
X141849110Y-114951925D01*
X141935000Y-114520128D01*
X141935000Y-114079872D01*
X141849110Y-113648075D01*
X141680631Y-113241331D01*
X141436038Y-112875271D01*
X141124729Y-112563962D01*
X140758669Y-112319369D01*
X140351925Y-112150890D01*
X139920128Y-112065000D01*
X139479872Y-112065000D01*
X139048075Y-112150890D01*
X138641331Y-112319369D01*
X138275271Y-112563962D01*
X137963962Y-112875271D01*
X137719369Y-113241331D01*
X137550890Y-113648075D01*
X137465000Y-114079872D01*
X124574997Y-114079872D01*
X124459987Y-113907748D01*
X124232252Y-113680013D01*
X123964463Y-113501082D01*
X123666912Y-113377832D01*
X123351033Y-113315000D01*
X123028967Y-113315000D01*
X122713088Y-113377832D01*
X122415537Y-113501082D01*
X122147748Y-113680013D01*
X121920013Y-113907748D01*
X121741082Y-114175537D01*
X121617832Y-114473088D01*
X121555000Y-114788967D01*
X119825000Y-114788967D01*
X119762168Y-114473088D01*
X119638918Y-114175537D01*
X119459987Y-113907748D01*
X119232252Y-113680013D01*
X118964463Y-113501082D01*
X118666912Y-113377832D01*
X118351033Y-113315000D01*
X118028967Y-113315000D01*
X117713088Y-113377832D01*
X117415537Y-113501082D01*
X117147748Y-113680013D01*
X116920013Y-113907748D01*
X116741082Y-114175537D01*
X116617832Y-114473088D01*
X116555000Y-114788967D01*
X65681524Y-114788967D01*
X65735000Y-114520128D01*
X65735000Y-114079872D01*
X65649110Y-113648075D01*
X65480631Y-113241331D01*
X65236038Y-112875271D01*
X64924729Y-112563962D01*
X64558669Y-112319369D01*
X64151925Y-112150890D01*
X63720128Y-112065000D01*
X63279872Y-112065000D01*
X62848075Y-112150890D01*
X62441331Y-112319369D01*
X62075271Y-112563962D01*
X61763962Y-112875271D01*
X61519369Y-113241331D01*
X61350890Y-113648075D01*
X61265000Y-114079872D01*
X56540000Y-114079872D01*
X56540000Y-106350000D01*
X113451928Y-106350000D01*
X113451928Y-109550000D01*
X113464188Y-109674482D01*
X113500498Y-109794180D01*
X113559463Y-109904494D01*
X113638815Y-110001185D01*
X113735506Y-110080537D01*
X113845820Y-110139502D01*
X113965518Y-110175812D01*
X114090000Y-110188072D01*
X116090000Y-110188072D01*
X116214482Y-110175812D01*
X116334180Y-110139502D01*
X116444494Y-110080537D01*
X116541185Y-110001185D01*
X116620537Y-109904494D01*
X116679502Y-109794180D01*
X116715812Y-109674482D01*
X116728072Y-109550000D01*
X116728072Y-106350000D01*
X124651928Y-106350000D01*
X124651928Y-109550000D01*
X124664188Y-109674482D01*
X124700498Y-109794180D01*
X124759463Y-109904494D01*
X124838815Y-110001185D01*
X124935506Y-110080537D01*
X125045820Y-110139502D01*
X125165518Y-110175812D01*
X125290000Y-110188072D01*
X127290000Y-110188072D01*
X127414482Y-110175812D01*
X127534180Y-110139502D01*
X127644494Y-110080537D01*
X127741185Y-110001185D01*
X127820537Y-109904494D01*
X127879502Y-109794180D01*
X127915812Y-109674482D01*
X127928072Y-109550000D01*
X127928072Y-106350000D01*
X127915812Y-106225518D01*
X127879502Y-106105820D01*
X127820537Y-105995506D01*
X127741185Y-105898815D01*
X127644494Y-105819463D01*
X127534180Y-105760498D01*
X127414482Y-105724188D01*
X127290000Y-105711928D01*
X125290000Y-105711928D01*
X125165518Y-105724188D01*
X125045820Y-105760498D01*
X124935506Y-105819463D01*
X124838815Y-105898815D01*
X124759463Y-105995506D01*
X124700498Y-106105820D01*
X124664188Y-106225518D01*
X124651928Y-106350000D01*
X116728072Y-106350000D01*
X116715812Y-106225518D01*
X116679502Y-106105820D01*
X116620537Y-105995506D01*
X116541185Y-105898815D01*
X116444494Y-105819463D01*
X116334180Y-105760498D01*
X116214482Y-105724188D01*
X116090000Y-105711928D01*
X114090000Y-105711928D01*
X113965518Y-105724188D01*
X113845820Y-105760498D01*
X113735506Y-105819463D01*
X113638815Y-105898815D01*
X113559463Y-105995506D01*
X113500498Y-106105820D01*
X113464188Y-106225518D01*
X113451928Y-106350000D01*
X56540000Y-106350000D01*
X56540000Y-100288967D01*
X116555000Y-100288967D01*
X116555000Y-100611033D01*
X116617832Y-100926912D01*
X116741082Y-101224463D01*
X116920013Y-101492252D01*
X117147748Y-101719987D01*
X117415537Y-101898918D01*
X117713088Y-102022168D01*
X118028967Y-102085000D01*
X118351033Y-102085000D01*
X118666912Y-102022168D01*
X118964463Y-101898918D01*
X119232252Y-101719987D01*
X119440000Y-101512239D01*
X119647748Y-101719987D01*
X119915537Y-101898918D01*
X120213088Y-102022168D01*
X120528967Y-102085000D01*
X120851033Y-102085000D01*
X121166912Y-102022168D01*
X121464463Y-101898918D01*
X121645335Y-101778063D01*
X121659463Y-101804494D01*
X121738815Y-101901185D01*
X121835506Y-101980537D01*
X121945820Y-102039502D01*
X122065518Y-102075812D01*
X122190000Y-102088072D01*
X124190000Y-102088072D01*
X124314482Y-102075812D01*
X124434180Y-102039502D01*
X124544494Y-101980537D01*
X124641185Y-101901185D01*
X124720537Y-101804494D01*
X124779502Y-101694180D01*
X124815812Y-101574482D01*
X124828072Y-101450000D01*
X124828072Y-99450000D01*
X124815812Y-99325518D01*
X124779502Y-99205820D01*
X124720537Y-99095506D01*
X124641185Y-98998815D01*
X124544494Y-98919463D01*
X124434180Y-98860498D01*
X124314482Y-98824188D01*
X124190000Y-98811928D01*
X122190000Y-98811928D01*
X122065518Y-98824188D01*
X121945820Y-98860498D01*
X121835506Y-98919463D01*
X121738815Y-98998815D01*
X121659463Y-99095506D01*
X121645335Y-99121937D01*
X121464463Y-99001082D01*
X121166912Y-98877832D01*
X120851033Y-98815000D01*
X120528967Y-98815000D01*
X120213088Y-98877832D01*
X119915537Y-99001082D01*
X119647748Y-99180013D01*
X119440000Y-99387761D01*
X119232252Y-99180013D01*
X118964463Y-99001082D01*
X118666912Y-98877832D01*
X118351033Y-98815000D01*
X118028967Y-98815000D01*
X117713088Y-98877832D01*
X117415537Y-99001082D01*
X117147748Y-99180013D01*
X116920013Y-99407748D01*
X116741082Y-99675537D01*
X116617832Y-99973088D01*
X116555000Y-100288967D01*
X56540000Y-100288967D01*
X56540000Y-82662500D01*
X110207628Y-82662500D01*
X110207628Y-83072500D01*
X110218708Y-83185000D01*
X110207628Y-83297500D01*
X110207628Y-83707500D01*
X110218708Y-83820000D01*
X110207628Y-83932500D01*
X110207628Y-84342500D01*
X110218708Y-84455000D01*
X110207628Y-84567500D01*
X110207628Y-84977500D01*
X110218708Y-85090000D01*
X110207628Y-85202500D01*
X110207628Y-85612500D01*
X110218708Y-85725000D01*
X110207628Y-85837500D01*
X110207628Y-86247500D01*
X110218708Y-86360000D01*
X110207628Y-86472500D01*
X110207628Y-86882500D01*
X110218708Y-86995000D01*
X110207628Y-87107500D01*
X110207628Y-87517500D01*
X110219888Y-87641982D01*
X110256198Y-87761680D01*
X110315163Y-87871994D01*
X110394515Y-87968685D01*
X110491206Y-88048037D01*
X110601520Y-88107002D01*
X110721218Y-88143312D01*
X110845700Y-88155572D01*
X112445700Y-88155572D01*
X112570182Y-88143312D01*
X112689880Y-88107002D01*
X112800194Y-88048037D01*
X112896885Y-87968685D01*
X112976237Y-87871994D01*
X113035202Y-87761680D01*
X113071512Y-87641982D01*
X113083772Y-87517500D01*
X113083772Y-87107500D01*
X113072692Y-86995000D01*
X113083772Y-86882500D01*
X113083772Y-86472500D01*
X113072692Y-86360000D01*
X113083772Y-86247500D01*
X113083772Y-85837500D01*
X113072692Y-85725000D01*
X113083772Y-85612500D01*
X113083772Y-85202500D01*
X113072692Y-85090000D01*
X113083772Y-84977500D01*
X113083772Y-84567500D01*
X113072692Y-84455000D01*
X113083772Y-84342500D01*
X113083772Y-83932500D01*
X113072692Y-83820000D01*
X113083772Y-83707500D01*
X113083772Y-83297500D01*
X113072692Y-83185000D01*
X113083772Y-83072500D01*
X113083772Y-82662500D01*
X115516228Y-82662500D01*
X115516228Y-83072500D01*
X115527308Y-83185000D01*
X115516228Y-83297500D01*
X115516228Y-83707500D01*
X115527308Y-83820000D01*
X115516228Y-83932500D01*
X115516228Y-84342500D01*
X115527308Y-84455000D01*
X115516228Y-84567500D01*
X115516228Y-84977500D01*
X115527308Y-85090000D01*
X115516228Y-85202500D01*
X115516228Y-85612500D01*
X115527308Y-85725000D01*
X115516228Y-85837500D01*
X115516228Y-86247500D01*
X115527308Y-86360000D01*
X115516228Y-86472500D01*
X115516228Y-86882500D01*
X115527308Y-86995000D01*
X115516228Y-87107500D01*
X115516228Y-87517500D01*
X115528488Y-87641982D01*
X115564798Y-87761680D01*
X115623763Y-87871994D01*
X115703115Y-87968685D01*
X115799806Y-88048037D01*
X115910120Y-88107002D01*
X116029818Y-88143312D01*
X116154300Y-88155572D01*
X117754300Y-88155572D01*
X117878782Y-88143312D01*
X117998480Y-88107002D01*
X118108794Y-88048037D01*
X118205485Y-87968685D01*
X118284837Y-87871994D01*
X118343802Y-87761680D01*
X118380112Y-87641982D01*
X118392372Y-87517500D01*
X118392372Y-87107500D01*
X118381292Y-86995000D01*
X118392372Y-86882500D01*
X118392372Y-86472500D01*
X118381292Y-86360000D01*
X118392372Y-86247500D01*
X118392372Y-85837500D01*
X118381292Y-85725000D01*
X118392372Y-85612500D01*
X118392372Y-85202500D01*
X118381292Y-85090000D01*
X118392372Y-84977500D01*
X118392372Y-84567500D01*
X118381292Y-84455000D01*
X118392372Y-84342500D01*
X118392372Y-83932500D01*
X118381292Y-83820000D01*
X118392372Y-83707500D01*
X118392372Y-83297500D01*
X118381292Y-83185000D01*
X118392372Y-83072500D01*
X118392372Y-82662500D01*
X118380112Y-82538018D01*
X118343802Y-82418320D01*
X118284837Y-82308006D01*
X118205485Y-82211315D01*
X118108794Y-82131963D01*
X117998480Y-82072998D01*
X117878782Y-82036688D01*
X117754300Y-82024428D01*
X116154300Y-82024428D01*
X116029818Y-82036688D01*
X115910120Y-82072998D01*
X115799806Y-82131963D01*
X115703115Y-82211315D01*
X115623763Y-82308006D01*
X115564798Y-82418320D01*
X115528488Y-82538018D01*
X115516228Y-82662500D01*
X113083772Y-82662500D01*
X113071512Y-82538018D01*
X113035202Y-82418320D01*
X112976237Y-82308006D01*
X112896885Y-82211315D01*
X112800194Y-82131963D01*
X112689880Y-82072998D01*
X112570182Y-82036688D01*
X112445700Y-82024428D01*
X110845700Y-82024428D01*
X110721218Y-82036688D01*
X110601520Y-82072998D01*
X110491206Y-82131963D01*
X110394515Y-82211315D01*
X110315163Y-82308006D01*
X110256198Y-82418320D01*
X110219888Y-82538018D01*
X110207628Y-82662500D01*
X56540000Y-82662500D01*
X56540000Y-73450000D01*
X97631928Y-73450000D01*
X97631928Y-76250000D01*
X97644188Y-76374482D01*
X97680498Y-76494180D01*
X97739463Y-76604494D01*
X97818815Y-76701185D01*
X97915506Y-76780537D01*
X98025820Y-76839502D01*
X98145518Y-76875812D01*
X98270000Y-76888072D01*
X99170000Y-76888072D01*
X99294482Y-76875812D01*
X99414180Y-76839502D01*
X99440000Y-76825701D01*
X99465820Y-76839502D01*
X99585518Y-76875812D01*
X99710000Y-76888072D01*
X100610000Y-76888072D01*
X100734482Y-76875812D01*
X100854180Y-76839502D01*
X100880000Y-76825701D01*
X100905820Y-76839502D01*
X101025518Y-76875812D01*
X101150000Y-76888072D01*
X102050000Y-76888072D01*
X102174482Y-76875812D01*
X102294180Y-76839502D01*
X102320000Y-76825701D01*
X102345820Y-76839502D01*
X102465518Y-76875812D01*
X102590000Y-76888072D01*
X103490000Y-76888072D01*
X103614482Y-76875812D01*
X103734180Y-76839502D01*
X103760000Y-76825701D01*
X103785820Y-76839502D01*
X103905518Y-76875812D01*
X104030000Y-76888072D01*
X104930000Y-76888072D01*
X105054482Y-76875812D01*
X105174180Y-76839502D01*
X105284494Y-76780537D01*
X105381185Y-76701185D01*
X105410000Y-76666074D01*
X105438815Y-76701185D01*
X105535506Y-76780537D01*
X105645820Y-76839502D01*
X105765518Y-76875812D01*
X105890000Y-76888072D01*
X106790000Y-76888072D01*
X106914482Y-76875812D01*
X107034180Y-76839502D01*
X107060000Y-76825701D01*
X107085820Y-76839502D01*
X107205518Y-76875812D01*
X107330000Y-76888072D01*
X108230000Y-76888072D01*
X108354482Y-76875812D01*
X108474180Y-76839502D01*
X108500000Y-76825701D01*
X108525820Y-76839502D01*
X108645518Y-76875812D01*
X108770000Y-76888072D01*
X109670000Y-76888072D01*
X109794482Y-76875812D01*
X109914180Y-76839502D01*
X109940000Y-76825701D01*
X109965820Y-76839502D01*
X110085518Y-76875812D01*
X110210000Y-76888072D01*
X111110000Y-76888072D01*
X111234482Y-76875812D01*
X111354180Y-76839502D01*
X111380000Y-76825701D01*
X111405820Y-76839502D01*
X111525518Y-76875812D01*
X111650000Y-76888072D01*
X112550000Y-76888072D01*
X112674482Y-76875812D01*
X112794180Y-76839502D01*
X112904494Y-76780537D01*
X113001185Y-76701185D01*
X113030000Y-76666074D01*
X113058815Y-76701185D01*
X113155506Y-76780537D01*
X113265820Y-76839502D01*
X113385518Y-76875812D01*
X113510000Y-76888072D01*
X114410000Y-76888072D01*
X114534482Y-76875812D01*
X114654180Y-76839502D01*
X114680000Y-76825701D01*
X114705820Y-76839502D01*
X114825518Y-76875812D01*
X114950000Y-76888072D01*
X115850000Y-76888072D01*
X115974482Y-76875812D01*
X116094180Y-76839502D01*
X116120000Y-76825701D01*
X116145820Y-76839502D01*
X116265518Y-76875812D01*
X116390000Y-76888072D01*
X117290000Y-76888072D01*
X117414482Y-76875812D01*
X117534180Y-76839502D01*
X117560000Y-76825701D01*
X117585820Y-76839502D01*
X117705518Y-76875812D01*
X117830000Y-76888072D01*
X118730000Y-76888072D01*
X118854482Y-76875812D01*
X118974180Y-76839502D01*
X119000000Y-76825701D01*
X119025820Y-76839502D01*
X119145518Y-76875812D01*
X119270000Y-76888072D01*
X120170000Y-76888072D01*
X120294482Y-76875812D01*
X120414180Y-76839502D01*
X120524494Y-76780537D01*
X120621185Y-76701185D01*
X120650000Y-76666074D01*
X120678815Y-76701185D01*
X120775506Y-76780537D01*
X120885820Y-76839502D01*
X121005518Y-76875812D01*
X121130000Y-76888072D01*
X122030000Y-76888072D01*
X122154482Y-76875812D01*
X122274180Y-76839502D01*
X122300000Y-76825701D01*
X122325820Y-76839502D01*
X122445518Y-76875812D01*
X122570000Y-76888072D01*
X123470000Y-76888072D01*
X123594482Y-76875812D01*
X123714180Y-76839502D01*
X123740000Y-76825701D01*
X123765820Y-76839502D01*
X123885518Y-76875812D01*
X124010000Y-76888072D01*
X124910000Y-76888072D01*
X125034482Y-76875812D01*
X125154180Y-76839502D01*
X125180000Y-76825701D01*
X125205820Y-76839502D01*
X125325518Y-76875812D01*
X125450000Y-76888072D01*
X126350000Y-76888072D01*
X126474482Y-76875812D01*
X126594180Y-76839502D01*
X126620000Y-76825701D01*
X126645820Y-76839502D01*
X126765518Y-76875812D01*
X126890000Y-76888072D01*
X127790000Y-76888072D01*
X127914482Y-76875812D01*
X128034180Y-76839502D01*
X128144494Y-76780537D01*
X128241185Y-76701185D01*
X128320537Y-76604494D01*
X128379502Y-76494180D01*
X128415812Y-76374482D01*
X128428072Y-76250000D01*
X128428072Y-73450000D01*
X128415812Y-73325518D01*
X128379502Y-73205820D01*
X128320537Y-73095506D01*
X128241185Y-72998815D01*
X128144494Y-72919463D01*
X128034180Y-72860498D01*
X127914482Y-72824188D01*
X127790000Y-72811928D01*
X126890000Y-72811928D01*
X126765518Y-72824188D01*
X126645820Y-72860498D01*
X126620000Y-72874299D01*
X126594180Y-72860498D01*
X126474482Y-72824188D01*
X126350000Y-72811928D01*
X125450000Y-72811928D01*
X125325518Y-72824188D01*
X125205820Y-72860498D01*
X125180000Y-72874299D01*
X125154180Y-72860498D01*
X125034482Y-72824188D01*
X124910000Y-72811928D01*
X124010000Y-72811928D01*
X123885518Y-72824188D01*
X123765820Y-72860498D01*
X123740000Y-72874299D01*
X123714180Y-72860498D01*
X123594482Y-72824188D01*
X123470000Y-72811928D01*
X122570000Y-72811928D01*
X122445518Y-72824188D01*
X122325820Y-72860498D01*
X122300000Y-72874299D01*
X122274180Y-72860498D01*
X122154482Y-72824188D01*
X122030000Y-72811928D01*
X121130000Y-72811928D01*
X121005518Y-72824188D01*
X120885820Y-72860498D01*
X120775506Y-72919463D01*
X120678815Y-72998815D01*
X120650000Y-73033926D01*
X120621185Y-72998815D01*
X120524494Y-72919463D01*
X120414180Y-72860498D01*
X120294482Y-72824188D01*
X120170000Y-72811928D01*
X119270000Y-72811928D01*
X119145518Y-72824188D01*
X119025820Y-72860498D01*
X119000000Y-72874299D01*
X118974180Y-72860498D01*
X118854482Y-72824188D01*
X118730000Y-72811928D01*
X117830000Y-72811928D01*
X117705518Y-72824188D01*
X117585820Y-72860498D01*
X117560000Y-72874299D01*
X117534180Y-72860498D01*
X117414482Y-72824188D01*
X117290000Y-72811928D01*
X116390000Y-72811928D01*
X116265518Y-72824188D01*
X116145820Y-72860498D01*
X116120000Y-72874299D01*
X116094180Y-72860498D01*
X115974482Y-72824188D01*
X115850000Y-72811928D01*
X114950000Y-72811928D01*
X114825518Y-72824188D01*
X114705820Y-72860498D01*
X114680000Y-72874299D01*
X114654180Y-72860498D01*
X114534482Y-72824188D01*
X114410000Y-72811928D01*
X113510000Y-72811928D01*
X113385518Y-72824188D01*
X113265820Y-72860498D01*
X113155506Y-72919463D01*
X113058815Y-72998815D01*
X113030000Y-73033926D01*
X113001185Y-72998815D01*
X112904494Y-72919463D01*
X112794180Y-72860498D01*
X112674482Y-72824188D01*
X112550000Y-72811928D01*
X111650000Y-72811928D01*
X111525518Y-72824188D01*
X111405820Y-72860498D01*
X111380000Y-72874299D01*
X111354180Y-72860498D01*
X111234482Y-72824188D01*
X111110000Y-72811928D01*
X110210000Y-72811928D01*
X110085518Y-72824188D01*
X109965820Y-72860498D01*
X109940000Y-72874299D01*
X109914180Y-72860498D01*
X109794482Y-72824188D01*
X109670000Y-72811928D01*
X108770000Y-72811928D01*
X108645518Y-72824188D01*
X108525820Y-72860498D01*
X108500000Y-72874299D01*
X108474180Y-72860498D01*
X108354482Y-72824188D01*
X108230000Y-72811928D01*
X107330000Y-72811928D01*
X107205518Y-72824188D01*
X107085820Y-72860498D01*
X107060000Y-72874299D01*
X107034180Y-72860498D01*
X106914482Y-72824188D01*
X106790000Y-72811928D01*
X105890000Y-72811928D01*
X105765518Y-72824188D01*
X105645820Y-72860498D01*
X105535506Y-72919463D01*
X105438815Y-72998815D01*
X105410000Y-73033926D01*
X105381185Y-72998815D01*
X105284494Y-72919463D01*
X105174180Y-72860498D01*
X105054482Y-72824188D01*
X104930000Y-72811928D01*
X104030000Y-72811928D01*
X103905518Y-72824188D01*
X103785820Y-72860498D01*
X103760000Y-72874299D01*
X103734180Y-72860498D01*
X103614482Y-72824188D01*
X103490000Y-72811928D01*
X102590000Y-72811928D01*
X102465518Y-72824188D01*
X102345820Y-72860498D01*
X102320000Y-72874299D01*
X102294180Y-72860498D01*
X102174482Y-72824188D01*
X102050000Y-72811928D01*
X101150000Y-72811928D01*
X101025518Y-72824188D01*
X100905820Y-72860498D01*
X100880000Y-72874299D01*
X100854180Y-72860498D01*
X100734482Y-72824188D01*
X100610000Y-72811928D01*
X99710000Y-72811928D01*
X99585518Y-72824188D01*
X99465820Y-72860498D01*
X99440000Y-72874299D01*
X99414180Y-72860498D01*
X99294482Y-72824188D01*
X99170000Y-72811928D01*
X98270000Y-72811928D01*
X98145518Y-72824188D01*
X98025820Y-72860498D01*
X97915506Y-72919463D01*
X97818815Y-72998815D01*
X97739463Y-73095506D01*
X97680498Y-73205820D01*
X97644188Y-73325518D01*
X97631928Y-73450000D01*
X56540000Y-73450000D01*
X56540000Y-63523920D01*
X56557707Y-63279872D01*
X61265000Y-63279872D01*
X61265000Y-63720128D01*
X61350890Y-64151925D01*
X61519369Y-64558669D01*
X61763962Y-64924729D01*
X62075271Y-65236038D01*
X62441331Y-65480631D01*
X62848075Y-65649110D01*
X63279872Y-65735000D01*
X63720128Y-65735000D01*
X64151925Y-65649110D01*
X64558669Y-65480631D01*
X64924729Y-65236038D01*
X65236038Y-64924729D01*
X65480631Y-64558669D01*
X65649110Y-64151925D01*
X65735000Y-63720128D01*
X65735000Y-63279872D01*
X65649110Y-62848075D01*
X65480631Y-62441331D01*
X65295993Y-62165000D01*
X69111928Y-62165000D01*
X69111928Y-63915000D01*
X69141001Y-64210186D01*
X69227104Y-64494028D01*
X69366927Y-64755618D01*
X69555097Y-64984903D01*
X69784382Y-65173073D01*
X70045972Y-65312896D01*
X70329814Y-65398999D01*
X70625000Y-65428072D01*
X72375000Y-65428072D01*
X72670186Y-65398999D01*
X72954028Y-65312896D01*
X73215618Y-65173073D01*
X73444903Y-64984903D01*
X73633073Y-64755618D01*
X73772896Y-64494028D01*
X73811928Y-64365357D01*
X73811928Y-67790000D01*
X73824188Y-67914482D01*
X73860498Y-68034180D01*
X73919463Y-68144494D01*
X73998815Y-68241185D01*
X74095506Y-68320537D01*
X74205820Y-68379502D01*
X74325518Y-68415812D01*
X74450000Y-68428072D01*
X77950000Y-68428072D01*
X78074482Y-68415812D01*
X78194180Y-68379502D01*
X78304494Y-68320537D01*
X78401185Y-68241185D01*
X78480537Y-68144494D01*
X78539502Y-68034180D01*
X78575812Y-67914482D01*
X78588072Y-67790000D01*
X78588072Y-64290000D01*
X78575812Y-64165518D01*
X78539502Y-64045820D01*
X78480537Y-63935506D01*
X78401185Y-63838815D01*
X78304494Y-63759463D01*
X78194180Y-63700498D01*
X78074482Y-63664188D01*
X77950000Y-63651928D01*
X74450000Y-63651928D01*
X74325518Y-63664188D01*
X74205820Y-63700498D01*
X74095506Y-63759463D01*
X73998815Y-63838815D01*
X73919463Y-63935506D01*
X73878506Y-64012131D01*
X73888072Y-63915000D01*
X73888072Y-63450000D01*
X97631928Y-63450000D01*
X97631928Y-66250000D01*
X97644188Y-66374482D01*
X97680498Y-66494180D01*
X97739463Y-66604494D01*
X97818815Y-66701185D01*
X97915506Y-66780537D01*
X98025820Y-66839502D01*
X98145518Y-66875812D01*
X98270000Y-66888072D01*
X99170000Y-66888072D01*
X99294482Y-66875812D01*
X99414180Y-66839502D01*
X99440000Y-66825701D01*
X99465820Y-66839502D01*
X99585518Y-66875812D01*
X99710000Y-66888072D01*
X100610000Y-66888072D01*
X100734482Y-66875812D01*
X100854180Y-66839502D01*
X100880000Y-66825701D01*
X100905820Y-66839502D01*
X101025518Y-66875812D01*
X101150000Y-66888072D01*
X102050000Y-66888072D01*
X102174482Y-66875812D01*
X102294180Y-66839502D01*
X102320000Y-66825701D01*
X102345820Y-66839502D01*
X102465518Y-66875812D01*
X102590000Y-66888072D01*
X103490000Y-66888072D01*
X103614482Y-66875812D01*
X103734180Y-66839502D01*
X103760000Y-66825701D01*
X103785820Y-66839502D01*
X103905518Y-66875812D01*
X104030000Y-66888072D01*
X104930000Y-66888072D01*
X105054482Y-66875812D01*
X105174180Y-66839502D01*
X105284494Y-66780537D01*
X105381185Y-66701185D01*
X105410000Y-66666074D01*
X105438815Y-66701185D01*
X105535506Y-66780537D01*
X105645820Y-66839502D01*
X105765518Y-66875812D01*
X105890000Y-66888072D01*
X106790000Y-66888072D01*
X106914482Y-66875812D01*
X107034180Y-66839502D01*
X107060000Y-66825701D01*
X107085820Y-66839502D01*
X107205518Y-66875812D01*
X107330000Y-66888072D01*
X108230000Y-66888072D01*
X108354482Y-66875812D01*
X108474180Y-66839502D01*
X108500000Y-66825701D01*
X108525820Y-66839502D01*
X108645518Y-66875812D01*
X108770000Y-66888072D01*
X109670000Y-66888072D01*
X109794482Y-66875812D01*
X109914180Y-66839502D01*
X109940000Y-66825701D01*
X109965820Y-66839502D01*
X110085518Y-66875812D01*
X110210000Y-66888072D01*
X111110000Y-66888072D01*
X111234482Y-66875812D01*
X111354180Y-66839502D01*
X111380000Y-66825701D01*
X111405820Y-66839502D01*
X111525518Y-66875812D01*
X111650000Y-66888072D01*
X112550000Y-66888072D01*
X112674482Y-66875812D01*
X112794180Y-66839502D01*
X112904494Y-66780537D01*
X113001185Y-66701185D01*
X113030000Y-66666074D01*
X113058815Y-66701185D01*
X113155506Y-66780537D01*
X113265820Y-66839502D01*
X113385518Y-66875812D01*
X113510000Y-66888072D01*
X114410000Y-66888072D01*
X114534482Y-66875812D01*
X114654180Y-66839502D01*
X114680000Y-66825701D01*
X114705820Y-66839502D01*
X114825518Y-66875812D01*
X114950000Y-66888072D01*
X115850000Y-66888072D01*
X115974482Y-66875812D01*
X116094180Y-66839502D01*
X116120000Y-66825701D01*
X116145820Y-66839502D01*
X116265518Y-66875812D01*
X116390000Y-66888072D01*
X117290000Y-66888072D01*
X117414482Y-66875812D01*
X117534180Y-66839502D01*
X117560000Y-66825701D01*
X117585820Y-66839502D01*
X117705518Y-66875812D01*
X117830000Y-66888072D01*
X118730000Y-66888072D01*
X118854482Y-66875812D01*
X118974180Y-66839502D01*
X119000000Y-66825701D01*
X119025820Y-66839502D01*
X119145518Y-66875812D01*
X119270000Y-66888072D01*
X120170000Y-66888072D01*
X120294482Y-66875812D01*
X120414180Y-66839502D01*
X120524494Y-66780537D01*
X120621185Y-66701185D01*
X120650000Y-66666074D01*
X120678815Y-66701185D01*
X120775506Y-66780537D01*
X120885820Y-66839502D01*
X121005518Y-66875812D01*
X121130000Y-66888072D01*
X122030000Y-66888072D01*
X122154482Y-66875812D01*
X122274180Y-66839502D01*
X122300000Y-66825701D01*
X122325820Y-66839502D01*
X122445518Y-66875812D01*
X122570000Y-66888072D01*
X123470000Y-66888072D01*
X123594482Y-66875812D01*
X123714180Y-66839502D01*
X123740000Y-66825701D01*
X123765820Y-66839502D01*
X123885518Y-66875812D01*
X124010000Y-66888072D01*
X124910000Y-66888072D01*
X125034482Y-66875812D01*
X125154180Y-66839502D01*
X125180000Y-66825701D01*
X125205820Y-66839502D01*
X125325518Y-66875812D01*
X125450000Y-66888072D01*
X126350000Y-66888072D01*
X126474482Y-66875812D01*
X126594180Y-66839502D01*
X126620000Y-66825701D01*
X126645820Y-66839502D01*
X126765518Y-66875812D01*
X126890000Y-66888072D01*
X127790000Y-66888072D01*
X127914482Y-66875812D01*
X128034180Y-66839502D01*
X128144494Y-66780537D01*
X128241185Y-66701185D01*
X128320537Y-66604494D01*
X128379502Y-66494180D01*
X128415812Y-66374482D01*
X128428072Y-66250000D01*
X128428072Y-63450000D01*
X128415812Y-63325518D01*
X128401966Y-63279872D01*
X137465000Y-63279872D01*
X137465000Y-63720128D01*
X137550890Y-64151925D01*
X137719369Y-64558669D01*
X137963962Y-64924729D01*
X138275271Y-65236038D01*
X138641331Y-65480631D01*
X139048075Y-65649110D01*
X139479872Y-65735000D01*
X139920128Y-65735000D01*
X140351925Y-65649110D01*
X140758669Y-65480631D01*
X141124729Y-65236038D01*
X141436038Y-64924729D01*
X141680631Y-64558669D01*
X141849110Y-64151925D01*
X141935000Y-63720128D01*
X141935000Y-63279872D01*
X141849110Y-62848075D01*
X141680631Y-62441331D01*
X141436038Y-62075271D01*
X141124729Y-61763962D01*
X140758669Y-61519369D01*
X140351925Y-61350890D01*
X139920128Y-61265000D01*
X139479872Y-61265000D01*
X139048075Y-61350890D01*
X138641331Y-61519369D01*
X138275271Y-61763962D01*
X137963962Y-62075271D01*
X137719369Y-62441331D01*
X137550890Y-62848075D01*
X137465000Y-63279872D01*
X128401966Y-63279872D01*
X128379502Y-63205820D01*
X128320537Y-63095506D01*
X128241185Y-62998815D01*
X128144494Y-62919463D01*
X128034180Y-62860498D01*
X127914482Y-62824188D01*
X127790000Y-62811928D01*
X126890000Y-62811928D01*
X126765518Y-62824188D01*
X126645820Y-62860498D01*
X126620000Y-62874299D01*
X126594180Y-62860498D01*
X126474482Y-62824188D01*
X126350000Y-62811928D01*
X125450000Y-62811928D01*
X125325518Y-62824188D01*
X125205820Y-62860498D01*
X125180000Y-62874299D01*
X125154180Y-62860498D01*
X125034482Y-62824188D01*
X124910000Y-62811928D01*
X124010000Y-62811928D01*
X123885518Y-62824188D01*
X123765820Y-62860498D01*
X123740000Y-62874299D01*
X123714180Y-62860498D01*
X123594482Y-62824188D01*
X123470000Y-62811928D01*
X122570000Y-62811928D01*
X122445518Y-62824188D01*
X122325820Y-62860498D01*
X122300000Y-62874299D01*
X122274180Y-62860498D01*
X122154482Y-62824188D01*
X122030000Y-62811928D01*
X121130000Y-62811928D01*
X121005518Y-62824188D01*
X120885820Y-62860498D01*
X120775506Y-62919463D01*
X120678815Y-62998815D01*
X120650000Y-63033926D01*
X120621185Y-62998815D01*
X120524494Y-62919463D01*
X120414180Y-62860498D01*
X120294482Y-62824188D01*
X120170000Y-62811928D01*
X119270000Y-62811928D01*
X119145518Y-62824188D01*
X119025820Y-62860498D01*
X119000000Y-62874299D01*
X118974180Y-62860498D01*
X118854482Y-62824188D01*
X118730000Y-62811928D01*
X117830000Y-62811928D01*
X117705518Y-62824188D01*
X117585820Y-62860498D01*
X117560000Y-62874299D01*
X117534180Y-62860498D01*
X117414482Y-62824188D01*
X117290000Y-62811928D01*
X116390000Y-62811928D01*
X116265518Y-62824188D01*
X116145820Y-62860498D01*
X116120000Y-62874299D01*
X116094180Y-62860498D01*
X115974482Y-62824188D01*
X115850000Y-62811928D01*
X114950000Y-62811928D01*
X114825518Y-62824188D01*
X114705820Y-62860498D01*
X114680000Y-62874299D01*
X114654180Y-62860498D01*
X114534482Y-62824188D01*
X114410000Y-62811928D01*
X113510000Y-62811928D01*
X113385518Y-62824188D01*
X113265820Y-62860498D01*
X113155506Y-62919463D01*
X113058815Y-62998815D01*
X113030000Y-63033926D01*
X113001185Y-62998815D01*
X112904494Y-62919463D01*
X112794180Y-62860498D01*
X112674482Y-62824188D01*
X112550000Y-62811928D01*
X111650000Y-62811928D01*
X111525518Y-62824188D01*
X111405820Y-62860498D01*
X111380000Y-62874299D01*
X111354180Y-62860498D01*
X111234482Y-62824188D01*
X111110000Y-62811928D01*
X110210000Y-62811928D01*
X110085518Y-62824188D01*
X109965820Y-62860498D01*
X109940000Y-62874299D01*
X109914180Y-62860498D01*
X109794482Y-62824188D01*
X109670000Y-62811928D01*
X108770000Y-62811928D01*
X108645518Y-62824188D01*
X108525820Y-62860498D01*
X108500000Y-62874299D01*
X108474180Y-62860498D01*
X108354482Y-62824188D01*
X108230000Y-62811928D01*
X107330000Y-62811928D01*
X107205518Y-62824188D01*
X107085820Y-62860498D01*
X107060000Y-62874299D01*
X107034180Y-62860498D01*
X106914482Y-62824188D01*
X106790000Y-62811928D01*
X105890000Y-62811928D01*
X105765518Y-62824188D01*
X105645820Y-62860498D01*
X105535506Y-62919463D01*
X105438815Y-62998815D01*
X105410000Y-63033926D01*
X105381185Y-62998815D01*
X105284494Y-62919463D01*
X105174180Y-62860498D01*
X105054482Y-62824188D01*
X104930000Y-62811928D01*
X104030000Y-62811928D01*
X103905518Y-62824188D01*
X103785820Y-62860498D01*
X103760000Y-62874299D01*
X103734180Y-62860498D01*
X103614482Y-62824188D01*
X103490000Y-62811928D01*
X102590000Y-62811928D01*
X102465518Y-62824188D01*
X102345820Y-62860498D01*
X102320000Y-62874299D01*
X102294180Y-62860498D01*
X102174482Y-62824188D01*
X102050000Y-62811928D01*
X101150000Y-62811928D01*
X101025518Y-62824188D01*
X100905820Y-62860498D01*
X100880000Y-62874299D01*
X100854180Y-62860498D01*
X100734482Y-62824188D01*
X100610000Y-62811928D01*
X99710000Y-62811928D01*
X99585518Y-62824188D01*
X99465820Y-62860498D01*
X99440000Y-62874299D01*
X99414180Y-62860498D01*
X99294482Y-62824188D01*
X99170000Y-62811928D01*
X98270000Y-62811928D01*
X98145518Y-62824188D01*
X98025820Y-62860498D01*
X97915506Y-62919463D01*
X97818815Y-62998815D01*
X97739463Y-63095506D01*
X97680498Y-63205820D01*
X97644188Y-63325518D01*
X97631928Y-63450000D01*
X73888072Y-63450000D01*
X73888072Y-62165000D01*
X73858999Y-61869814D01*
X73772896Y-61585972D01*
X73748324Y-61540000D01*
X73811928Y-61540000D01*
X73824188Y-61664482D01*
X73860498Y-61784180D01*
X73919463Y-61894494D01*
X73998815Y-61991185D01*
X74095506Y-62070537D01*
X74205820Y-62129502D01*
X74325518Y-62165812D01*
X74450000Y-62178072D01*
X75914250Y-62175000D01*
X76073000Y-62016250D01*
X76073000Y-60167000D01*
X76327000Y-60167000D01*
X76327000Y-62016250D01*
X76485750Y-62175000D01*
X77950000Y-62178072D01*
X78074482Y-62165812D01*
X78194180Y-62129502D01*
X78304494Y-62070537D01*
X78401185Y-61991185D01*
X78480537Y-61894494D01*
X78539502Y-61784180D01*
X78575812Y-61664482D01*
X78588072Y-61540000D01*
X78585000Y-60325750D01*
X78426250Y-60167000D01*
X76327000Y-60167000D01*
X76073000Y-60167000D01*
X73973750Y-60167000D01*
X73815000Y-60325750D01*
X73811928Y-61540000D01*
X73748324Y-61540000D01*
X73633073Y-61324382D01*
X73444903Y-61095097D01*
X73215618Y-60906927D01*
X72954028Y-60767104D01*
X72670186Y-60681001D01*
X72375000Y-60651928D01*
X70625000Y-60651928D01*
X70329814Y-60681001D01*
X70045972Y-60767104D01*
X69784382Y-60906927D01*
X69555097Y-61095097D01*
X69366927Y-61324382D01*
X69227104Y-61585972D01*
X69141001Y-61869814D01*
X69111928Y-62165000D01*
X65295993Y-62165000D01*
X65236038Y-62075271D01*
X64924729Y-61763962D01*
X64558669Y-61519369D01*
X64151925Y-61350890D01*
X63720128Y-61265000D01*
X63279872Y-61265000D01*
X62848075Y-61350890D01*
X62441331Y-61519369D01*
X62075271Y-61763962D01*
X61763962Y-62075271D01*
X61519369Y-62441331D01*
X61350890Y-62848075D01*
X61265000Y-63279872D01*
X56557707Y-63279872D01*
X56614617Y-62495530D01*
X56831739Y-61512102D01*
X57188546Y-60570325D01*
X57677575Y-59689905D01*
X58288569Y-58889313D01*
X58645898Y-58540000D01*
X73811928Y-58540000D01*
X73815000Y-59754250D01*
X73973750Y-59913000D01*
X76073000Y-59913000D01*
X76073000Y-58063750D01*
X76327000Y-58063750D01*
X76327000Y-59913000D01*
X78426250Y-59913000D01*
X78585000Y-59754250D01*
X78588072Y-58540000D01*
X78575812Y-58415518D01*
X78539502Y-58295820D01*
X78480537Y-58185506D01*
X78401185Y-58088815D01*
X78304494Y-58009463D01*
X78194180Y-57950498D01*
X78074482Y-57914188D01*
X77950000Y-57901928D01*
X76485750Y-57905000D01*
X76327000Y-58063750D01*
X76073000Y-58063750D01*
X75914250Y-57905000D01*
X74450000Y-57901928D01*
X74325518Y-57914188D01*
X74205820Y-57950498D01*
X74095506Y-58009463D01*
X73998815Y-58088815D01*
X73919463Y-58185506D01*
X73860498Y-58295820D01*
X73824188Y-58415518D01*
X73811928Y-58540000D01*
X58645898Y-58540000D01*
X59008732Y-58185306D01*
X59822987Y-57592630D01*
X60714269Y-57123704D01*
X61663900Y-56788353D01*
X62655692Y-56592873D01*
X63520164Y-56540000D01*
X139676080Y-56540000D01*
X140704470Y-56614617D01*
%TA.AperFunction,Conductor*%
D17*
G36*
X140704470Y-56614617D02*
G01*
X141687898Y-56831739D01*
X142629675Y-57188546D01*
X143510095Y-57677575D01*
X144310687Y-58288569D01*
X145014694Y-59008732D01*
X145607370Y-59822987D01*
X146076296Y-60714269D01*
X146411647Y-61663900D01*
X146607127Y-62655692D01*
X146660000Y-63520164D01*
X146660001Y-114276080D01*
X146585382Y-115304470D01*
X146368262Y-116287896D01*
X146011454Y-117229675D01*
X145522424Y-118110095D01*
X144911435Y-118910684D01*
X144191268Y-119614694D01*
X143377013Y-120207370D01*
X142485731Y-120676296D01*
X141536099Y-121011647D01*
X140544309Y-121207127D01*
X139679835Y-121260000D01*
X63523906Y-121260000D01*
X62495530Y-121185382D01*
X61512104Y-120968262D01*
X60570325Y-120611454D01*
X59689905Y-120122424D01*
X58889316Y-119511435D01*
X58185306Y-118791268D01*
X57592630Y-117977013D01*
X57123704Y-117085731D01*
X56788353Y-116136099D01*
X56592873Y-115144309D01*
X56540000Y-114279835D01*
X56540000Y-114079872D01*
X61265000Y-114079872D01*
X61265000Y-114520128D01*
X61350890Y-114951925D01*
X61519369Y-115358669D01*
X61763962Y-115724729D01*
X62075271Y-116036038D01*
X62441331Y-116280631D01*
X62848075Y-116449110D01*
X63279872Y-116535000D01*
X63720128Y-116535000D01*
X64151925Y-116449110D01*
X64558669Y-116280631D01*
X64924729Y-116036038D01*
X65236038Y-115724729D01*
X65480631Y-115358669D01*
X65649110Y-114951925D01*
X65681524Y-114788967D01*
X116555000Y-114788967D01*
X116555000Y-115111033D01*
X116617832Y-115426912D01*
X116741082Y-115724463D01*
X116920013Y-115992252D01*
X117147748Y-116219987D01*
X117415537Y-116398918D01*
X117713088Y-116522168D01*
X118028967Y-116585000D01*
X118351033Y-116585000D01*
X118666912Y-116522168D01*
X118964463Y-116398918D01*
X119232252Y-116219987D01*
X119459987Y-115992252D01*
X119638918Y-115724463D01*
X119762168Y-115426912D01*
X119825000Y-115111033D01*
X119825000Y-114788967D01*
X121555000Y-114788967D01*
X121555000Y-115111033D01*
X121617832Y-115426912D01*
X121741082Y-115724463D01*
X121920013Y-115992252D01*
X122147748Y-116219987D01*
X122415537Y-116398918D01*
X122713088Y-116522168D01*
X123028967Y-116585000D01*
X123351033Y-116585000D01*
X123666912Y-116522168D01*
X123964463Y-116398918D01*
X124232252Y-116219987D01*
X124459987Y-115992252D01*
X124638918Y-115724463D01*
X124762168Y-115426912D01*
X124825000Y-115111033D01*
X124825000Y-114788967D01*
X124762168Y-114473088D01*
X124638918Y-114175537D01*
X124574997Y-114079872D01*
X137465000Y-114079872D01*
X137465000Y-114520128D01*
X137550890Y-114951925D01*
X137719369Y-115358669D01*
X137963962Y-115724729D01*
X138275271Y-116036038D01*
X138641331Y-116280631D01*
X139048075Y-116449110D01*
X139479872Y-116535000D01*
X139920128Y-116535000D01*
X140351925Y-116449110D01*
X140758669Y-116280631D01*
X141124729Y-116036038D01*
X141436038Y-115724729D01*
X141680631Y-115358669D01*
X141849110Y-114951925D01*
X141935000Y-114520128D01*
X141935000Y-114079872D01*
X141849110Y-113648075D01*
X141680631Y-113241331D01*
X141436038Y-112875271D01*
X141124729Y-112563962D01*
X140758669Y-112319369D01*
X140351925Y-112150890D01*
X139920128Y-112065000D01*
X139479872Y-112065000D01*
X139048075Y-112150890D01*
X138641331Y-112319369D01*
X138275271Y-112563962D01*
X137963962Y-112875271D01*
X137719369Y-113241331D01*
X137550890Y-113648075D01*
X137465000Y-114079872D01*
X124574997Y-114079872D01*
X124459987Y-113907748D01*
X124232252Y-113680013D01*
X123964463Y-113501082D01*
X123666912Y-113377832D01*
X123351033Y-113315000D01*
X123028967Y-113315000D01*
X122713088Y-113377832D01*
X122415537Y-113501082D01*
X122147748Y-113680013D01*
X121920013Y-113907748D01*
X121741082Y-114175537D01*
X121617832Y-114473088D01*
X121555000Y-114788967D01*
X119825000Y-114788967D01*
X119762168Y-114473088D01*
X119638918Y-114175537D01*
X119459987Y-113907748D01*
X119232252Y-113680013D01*
X118964463Y-113501082D01*
X118666912Y-113377832D01*
X118351033Y-113315000D01*
X118028967Y-113315000D01*
X117713088Y-113377832D01*
X117415537Y-113501082D01*
X117147748Y-113680013D01*
X116920013Y-113907748D01*
X116741082Y-114175537D01*
X116617832Y-114473088D01*
X116555000Y-114788967D01*
X65681524Y-114788967D01*
X65735000Y-114520128D01*
X65735000Y-114079872D01*
X65649110Y-113648075D01*
X65480631Y-113241331D01*
X65236038Y-112875271D01*
X64924729Y-112563962D01*
X64558669Y-112319369D01*
X64151925Y-112150890D01*
X63720128Y-112065000D01*
X63279872Y-112065000D01*
X62848075Y-112150890D01*
X62441331Y-112319369D01*
X62075271Y-112563962D01*
X61763962Y-112875271D01*
X61519369Y-113241331D01*
X61350890Y-113648075D01*
X61265000Y-114079872D01*
X56540000Y-114079872D01*
X56540000Y-106350000D01*
X113451928Y-106350000D01*
X113451928Y-109550000D01*
X113464188Y-109674482D01*
X113500498Y-109794180D01*
X113559463Y-109904494D01*
X113638815Y-110001185D01*
X113735506Y-110080537D01*
X113845820Y-110139502D01*
X113965518Y-110175812D01*
X114090000Y-110188072D01*
X116090000Y-110188072D01*
X116214482Y-110175812D01*
X116334180Y-110139502D01*
X116444494Y-110080537D01*
X116541185Y-110001185D01*
X116620537Y-109904494D01*
X116679502Y-109794180D01*
X116715812Y-109674482D01*
X116728072Y-109550000D01*
X116728072Y-106350000D01*
X124651928Y-106350000D01*
X124651928Y-109550000D01*
X124664188Y-109674482D01*
X124700498Y-109794180D01*
X124759463Y-109904494D01*
X124838815Y-110001185D01*
X124935506Y-110080537D01*
X125045820Y-110139502D01*
X125165518Y-110175812D01*
X125290000Y-110188072D01*
X127290000Y-110188072D01*
X127414482Y-110175812D01*
X127534180Y-110139502D01*
X127644494Y-110080537D01*
X127741185Y-110001185D01*
X127820537Y-109904494D01*
X127879502Y-109794180D01*
X127915812Y-109674482D01*
X127928072Y-109550000D01*
X127928072Y-106350000D01*
X127915812Y-106225518D01*
X127879502Y-106105820D01*
X127820537Y-105995506D01*
X127741185Y-105898815D01*
X127644494Y-105819463D01*
X127534180Y-105760498D01*
X127414482Y-105724188D01*
X127290000Y-105711928D01*
X125290000Y-105711928D01*
X125165518Y-105724188D01*
X125045820Y-105760498D01*
X124935506Y-105819463D01*
X124838815Y-105898815D01*
X124759463Y-105995506D01*
X124700498Y-106105820D01*
X124664188Y-106225518D01*
X124651928Y-106350000D01*
X116728072Y-106350000D01*
X116715812Y-106225518D01*
X116679502Y-106105820D01*
X116620537Y-105995506D01*
X116541185Y-105898815D01*
X116444494Y-105819463D01*
X116334180Y-105760498D01*
X116214482Y-105724188D01*
X116090000Y-105711928D01*
X114090000Y-105711928D01*
X113965518Y-105724188D01*
X113845820Y-105760498D01*
X113735506Y-105819463D01*
X113638815Y-105898815D01*
X113559463Y-105995506D01*
X113500498Y-106105820D01*
X113464188Y-106225518D01*
X113451928Y-106350000D01*
X56540000Y-106350000D01*
X56540000Y-100288967D01*
X116555000Y-100288967D01*
X116555000Y-100611033D01*
X116617832Y-100926912D01*
X116741082Y-101224463D01*
X116920013Y-101492252D01*
X117147748Y-101719987D01*
X117415537Y-101898918D01*
X117713088Y-102022168D01*
X118028967Y-102085000D01*
X118351033Y-102085000D01*
X118666912Y-102022168D01*
X118964463Y-101898918D01*
X119232252Y-101719987D01*
X119440000Y-101512239D01*
X119647748Y-101719987D01*
X119915537Y-101898918D01*
X120213088Y-102022168D01*
X120528967Y-102085000D01*
X120851033Y-102085000D01*
X121166912Y-102022168D01*
X121464463Y-101898918D01*
X121645335Y-101778063D01*
X121659463Y-101804494D01*
X121738815Y-101901185D01*
X121835506Y-101980537D01*
X121945820Y-102039502D01*
X122065518Y-102075812D01*
X122190000Y-102088072D01*
X124190000Y-102088072D01*
X124314482Y-102075812D01*
X124434180Y-102039502D01*
X124544494Y-101980537D01*
X124641185Y-101901185D01*
X124720537Y-101804494D01*
X124779502Y-101694180D01*
X124815812Y-101574482D01*
X124828072Y-101450000D01*
X124828072Y-99450000D01*
X124815812Y-99325518D01*
X124779502Y-99205820D01*
X124720537Y-99095506D01*
X124641185Y-98998815D01*
X124544494Y-98919463D01*
X124434180Y-98860498D01*
X124314482Y-98824188D01*
X124190000Y-98811928D01*
X122190000Y-98811928D01*
X122065518Y-98824188D01*
X121945820Y-98860498D01*
X121835506Y-98919463D01*
X121738815Y-98998815D01*
X121659463Y-99095506D01*
X121645335Y-99121937D01*
X121464463Y-99001082D01*
X121166912Y-98877832D01*
X120851033Y-98815000D01*
X120528967Y-98815000D01*
X120213088Y-98877832D01*
X119915537Y-99001082D01*
X119647748Y-99180013D01*
X119440000Y-99387761D01*
X119232252Y-99180013D01*
X118964463Y-99001082D01*
X118666912Y-98877832D01*
X118351033Y-98815000D01*
X118028967Y-98815000D01*
X117713088Y-98877832D01*
X117415537Y-99001082D01*
X117147748Y-99180013D01*
X116920013Y-99407748D01*
X116741082Y-99675537D01*
X116617832Y-99973088D01*
X116555000Y-100288967D01*
X56540000Y-100288967D01*
X56540000Y-82662500D01*
X110207628Y-82662500D01*
X110207628Y-83072500D01*
X110218708Y-83185000D01*
X110207628Y-83297500D01*
X110207628Y-83707500D01*
X110218708Y-83820000D01*
X110207628Y-83932500D01*
X110207628Y-84342500D01*
X110218708Y-84455000D01*
X110207628Y-84567500D01*
X110207628Y-84977500D01*
X110218708Y-85090000D01*
X110207628Y-85202500D01*
X110207628Y-85612500D01*
X110218708Y-85725000D01*
X110207628Y-85837500D01*
X110207628Y-86247500D01*
X110218708Y-86360000D01*
X110207628Y-86472500D01*
X110207628Y-86882500D01*
X110218708Y-86995000D01*
X110207628Y-87107500D01*
X110207628Y-87517500D01*
X110219888Y-87641982D01*
X110256198Y-87761680D01*
X110315163Y-87871994D01*
X110394515Y-87968685D01*
X110491206Y-88048037D01*
X110601520Y-88107002D01*
X110721218Y-88143312D01*
X110845700Y-88155572D01*
X112445700Y-88155572D01*
X112570182Y-88143312D01*
X112689880Y-88107002D01*
X112800194Y-88048037D01*
X112896885Y-87968685D01*
X112976237Y-87871994D01*
X113035202Y-87761680D01*
X113071512Y-87641982D01*
X113083772Y-87517500D01*
X113083772Y-87107500D01*
X113072692Y-86995000D01*
X113083772Y-86882500D01*
X113083772Y-86472500D01*
X113072692Y-86360000D01*
X113083772Y-86247500D01*
X113083772Y-85837500D01*
X113072692Y-85725000D01*
X113083772Y-85612500D01*
X113083772Y-85202500D01*
X113072692Y-85090000D01*
X113083772Y-84977500D01*
X113083772Y-84567500D01*
X113072692Y-84455000D01*
X113083772Y-84342500D01*
X113083772Y-83932500D01*
X113072692Y-83820000D01*
X113083772Y-83707500D01*
X113083772Y-83297500D01*
X113072692Y-83185000D01*
X113083772Y-83072500D01*
X113083772Y-82662500D01*
X115516228Y-82662500D01*
X115516228Y-83072500D01*
X115527308Y-83185000D01*
X115516228Y-83297500D01*
X115516228Y-83707500D01*
X115527308Y-83820000D01*
X115516228Y-83932500D01*
X115516228Y-84342500D01*
X115527308Y-84455000D01*
X115516228Y-84567500D01*
X115516228Y-84977500D01*
X115527308Y-85090000D01*
X115516228Y-85202500D01*
X115516228Y-85612500D01*
X115527308Y-85725000D01*
X115516228Y-85837500D01*
X115516228Y-86247500D01*
X115527308Y-86360000D01*
X115516228Y-86472500D01*
X115516228Y-86882500D01*
X115527308Y-86995000D01*
X115516228Y-87107500D01*
X115516228Y-87517500D01*
X115528488Y-87641982D01*
X115564798Y-87761680D01*
X115623763Y-87871994D01*
X115703115Y-87968685D01*
X115799806Y-88048037D01*
X115910120Y-88107002D01*
X116029818Y-88143312D01*
X116154300Y-88155572D01*
X117754300Y-88155572D01*
X117878782Y-88143312D01*
X117998480Y-88107002D01*
X118108794Y-88048037D01*
X118205485Y-87968685D01*
X118284837Y-87871994D01*
X118343802Y-87761680D01*
X118380112Y-87641982D01*
X118392372Y-87517500D01*
X118392372Y-87107500D01*
X118381292Y-86995000D01*
X118392372Y-86882500D01*
X118392372Y-86472500D01*
X118381292Y-86360000D01*
X118392372Y-86247500D01*
X118392372Y-85837500D01*
X118381292Y-85725000D01*
X118392372Y-85612500D01*
X118392372Y-85202500D01*
X118381292Y-85090000D01*
X118392372Y-84977500D01*
X118392372Y-84567500D01*
X118381292Y-84455000D01*
X118392372Y-84342500D01*
X118392372Y-83932500D01*
X118381292Y-83820000D01*
X118392372Y-83707500D01*
X118392372Y-83297500D01*
X118381292Y-83185000D01*
X118392372Y-83072500D01*
X118392372Y-82662500D01*
X118380112Y-82538018D01*
X118343802Y-82418320D01*
X118284837Y-82308006D01*
X118205485Y-82211315D01*
X118108794Y-82131963D01*
X117998480Y-82072998D01*
X117878782Y-82036688D01*
X117754300Y-82024428D01*
X116154300Y-82024428D01*
X116029818Y-82036688D01*
X115910120Y-82072998D01*
X115799806Y-82131963D01*
X115703115Y-82211315D01*
X115623763Y-82308006D01*
X115564798Y-82418320D01*
X115528488Y-82538018D01*
X115516228Y-82662500D01*
X113083772Y-82662500D01*
X113071512Y-82538018D01*
X113035202Y-82418320D01*
X112976237Y-82308006D01*
X112896885Y-82211315D01*
X112800194Y-82131963D01*
X112689880Y-82072998D01*
X112570182Y-82036688D01*
X112445700Y-82024428D01*
X110845700Y-82024428D01*
X110721218Y-82036688D01*
X110601520Y-82072998D01*
X110491206Y-82131963D01*
X110394515Y-82211315D01*
X110315163Y-82308006D01*
X110256198Y-82418320D01*
X110219888Y-82538018D01*
X110207628Y-82662500D01*
X56540000Y-82662500D01*
X56540000Y-73450000D01*
X97631928Y-73450000D01*
X97631928Y-76250000D01*
X97644188Y-76374482D01*
X97680498Y-76494180D01*
X97739463Y-76604494D01*
X97818815Y-76701185D01*
X97915506Y-76780537D01*
X98025820Y-76839502D01*
X98145518Y-76875812D01*
X98270000Y-76888072D01*
X99170000Y-76888072D01*
X99294482Y-76875812D01*
X99414180Y-76839502D01*
X99440000Y-76825701D01*
X99465820Y-76839502D01*
X99585518Y-76875812D01*
X99710000Y-76888072D01*
X100610000Y-76888072D01*
X100734482Y-76875812D01*
X100854180Y-76839502D01*
X100880000Y-76825701D01*
X100905820Y-76839502D01*
X101025518Y-76875812D01*
X101150000Y-76888072D01*
X102050000Y-76888072D01*
X102174482Y-76875812D01*
X102294180Y-76839502D01*
X102320000Y-76825701D01*
X102345820Y-76839502D01*
X102465518Y-76875812D01*
X102590000Y-76888072D01*
X103490000Y-76888072D01*
X103614482Y-76875812D01*
X103734180Y-76839502D01*
X103760000Y-76825701D01*
X103785820Y-76839502D01*
X103905518Y-76875812D01*
X104030000Y-76888072D01*
X104930000Y-76888072D01*
X105054482Y-76875812D01*
X105174180Y-76839502D01*
X105284494Y-76780537D01*
X105381185Y-76701185D01*
X105410000Y-76666074D01*
X105438815Y-76701185D01*
X105535506Y-76780537D01*
X105645820Y-76839502D01*
X105765518Y-76875812D01*
X105890000Y-76888072D01*
X106790000Y-76888072D01*
X106914482Y-76875812D01*
X107034180Y-76839502D01*
X107060000Y-76825701D01*
X107085820Y-76839502D01*
X107205518Y-76875812D01*
X107330000Y-76888072D01*
X108230000Y-76888072D01*
X108354482Y-76875812D01*
X108474180Y-76839502D01*
X108500000Y-76825701D01*
X108525820Y-76839502D01*
X108645518Y-76875812D01*
X108770000Y-76888072D01*
X109670000Y-76888072D01*
X109794482Y-76875812D01*
X109914180Y-76839502D01*
X109940000Y-76825701D01*
X109965820Y-76839502D01*
X110085518Y-76875812D01*
X110210000Y-76888072D01*
X111110000Y-76888072D01*
X111234482Y-76875812D01*
X111354180Y-76839502D01*
X111380000Y-76825701D01*
X111405820Y-76839502D01*
X111525518Y-76875812D01*
X111650000Y-76888072D01*
X112550000Y-76888072D01*
X112674482Y-76875812D01*
X112794180Y-76839502D01*
X112904494Y-76780537D01*
X113001185Y-76701185D01*
X113030000Y-76666074D01*
X113058815Y-76701185D01*
X113155506Y-76780537D01*
X113265820Y-76839502D01*
X113385518Y-76875812D01*
X113510000Y-76888072D01*
X114410000Y-76888072D01*
X114534482Y-76875812D01*
X114654180Y-76839502D01*
X114680000Y-76825701D01*
X114705820Y-76839502D01*
X114825518Y-76875812D01*
X114950000Y-76888072D01*
X115850000Y-76888072D01*
X115974482Y-76875812D01*
X116094180Y-76839502D01*
X116120000Y-76825701D01*
X116145820Y-76839502D01*
X116265518Y-76875812D01*
X116390000Y-76888072D01*
X117290000Y-76888072D01*
X117414482Y-76875812D01*
X117534180Y-76839502D01*
X117560000Y-76825701D01*
X117585820Y-76839502D01*
X117705518Y-76875812D01*
X117830000Y-76888072D01*
X118730000Y-76888072D01*
X118854482Y-76875812D01*
X118974180Y-76839502D01*
X119000000Y-76825701D01*
X119025820Y-76839502D01*
X119145518Y-76875812D01*
X119270000Y-76888072D01*
X120170000Y-76888072D01*
X120294482Y-76875812D01*
X120414180Y-76839502D01*
X120524494Y-76780537D01*
X120621185Y-76701185D01*
X120650000Y-76666074D01*
X120678815Y-76701185D01*
X120775506Y-76780537D01*
X120885820Y-76839502D01*
X121005518Y-76875812D01*
X121130000Y-76888072D01*
X122030000Y-76888072D01*
X122154482Y-76875812D01*
X122274180Y-76839502D01*
X122300000Y-76825701D01*
X122325820Y-76839502D01*
X122445518Y-76875812D01*
X122570000Y-76888072D01*
X123470000Y-76888072D01*
X123594482Y-76875812D01*
X123714180Y-76839502D01*
X123740000Y-76825701D01*
X123765820Y-76839502D01*
X123885518Y-76875812D01*
X124010000Y-76888072D01*
X124910000Y-76888072D01*
X125034482Y-76875812D01*
X125154180Y-76839502D01*
X125180000Y-76825701D01*
X125205820Y-76839502D01*
X125325518Y-76875812D01*
X125450000Y-76888072D01*
X126350000Y-76888072D01*
X126474482Y-76875812D01*
X126594180Y-76839502D01*
X126620000Y-76825701D01*
X126645820Y-76839502D01*
X126765518Y-76875812D01*
X126890000Y-76888072D01*
X127790000Y-76888072D01*
X127914482Y-76875812D01*
X128034180Y-76839502D01*
X128144494Y-76780537D01*
X128241185Y-76701185D01*
X128320537Y-76604494D01*
X128379502Y-76494180D01*
X128415812Y-76374482D01*
X128428072Y-76250000D01*
X128428072Y-73450000D01*
X128415812Y-73325518D01*
X128379502Y-73205820D01*
X128320537Y-73095506D01*
X128241185Y-72998815D01*
X128144494Y-72919463D01*
X128034180Y-72860498D01*
X127914482Y-72824188D01*
X127790000Y-72811928D01*
X126890000Y-72811928D01*
X126765518Y-72824188D01*
X126645820Y-72860498D01*
X126620000Y-72874299D01*
X126594180Y-72860498D01*
X126474482Y-72824188D01*
X126350000Y-72811928D01*
X125450000Y-72811928D01*
X125325518Y-72824188D01*
X125205820Y-72860498D01*
X125180000Y-72874299D01*
X125154180Y-72860498D01*
X125034482Y-72824188D01*
X124910000Y-72811928D01*
X124010000Y-72811928D01*
X123885518Y-72824188D01*
X123765820Y-72860498D01*
X123740000Y-72874299D01*
X123714180Y-72860498D01*
X123594482Y-72824188D01*
X123470000Y-72811928D01*
X122570000Y-72811928D01*
X122445518Y-72824188D01*
X122325820Y-72860498D01*
X122300000Y-72874299D01*
X122274180Y-72860498D01*
X122154482Y-72824188D01*
X122030000Y-72811928D01*
X121130000Y-72811928D01*
X121005518Y-72824188D01*
X120885820Y-72860498D01*
X120775506Y-72919463D01*
X120678815Y-72998815D01*
X120650000Y-73033926D01*
X120621185Y-72998815D01*
X120524494Y-72919463D01*
X120414180Y-72860498D01*
X120294482Y-72824188D01*
X120170000Y-72811928D01*
X119270000Y-72811928D01*
X119145518Y-72824188D01*
X119025820Y-72860498D01*
X119000000Y-72874299D01*
X118974180Y-72860498D01*
X118854482Y-72824188D01*
X118730000Y-72811928D01*
X117830000Y-72811928D01*
X117705518Y-72824188D01*
X117585820Y-72860498D01*
X117560000Y-72874299D01*
X117534180Y-72860498D01*
X117414482Y-72824188D01*
X117290000Y-72811928D01*
X116390000Y-72811928D01*
X116265518Y-72824188D01*
X116145820Y-72860498D01*
X116120000Y-72874299D01*
X116094180Y-72860498D01*
X115974482Y-72824188D01*
X115850000Y-72811928D01*
X114950000Y-72811928D01*
X114825518Y-72824188D01*
X114705820Y-72860498D01*
X114680000Y-72874299D01*
X114654180Y-72860498D01*
X114534482Y-72824188D01*
X114410000Y-72811928D01*
X113510000Y-72811928D01*
X113385518Y-72824188D01*
X113265820Y-72860498D01*
X113155506Y-72919463D01*
X113058815Y-72998815D01*
X113030000Y-73033926D01*
X113001185Y-72998815D01*
X112904494Y-72919463D01*
X112794180Y-72860498D01*
X112674482Y-72824188D01*
X112550000Y-72811928D01*
X111650000Y-72811928D01*
X111525518Y-72824188D01*
X111405820Y-72860498D01*
X111380000Y-72874299D01*
X111354180Y-72860498D01*
X111234482Y-72824188D01*
X111110000Y-72811928D01*
X110210000Y-72811928D01*
X110085518Y-72824188D01*
X109965820Y-72860498D01*
X109940000Y-72874299D01*
X109914180Y-72860498D01*
X109794482Y-72824188D01*
X109670000Y-72811928D01*
X108770000Y-72811928D01*
X108645518Y-72824188D01*
X108525820Y-72860498D01*
X108500000Y-72874299D01*
X108474180Y-72860498D01*
X108354482Y-72824188D01*
X108230000Y-72811928D01*
X107330000Y-72811928D01*
X107205518Y-72824188D01*
X107085820Y-72860498D01*
X107060000Y-72874299D01*
X107034180Y-72860498D01*
X106914482Y-72824188D01*
X106790000Y-72811928D01*
X105890000Y-72811928D01*
X105765518Y-72824188D01*
X105645820Y-72860498D01*
X105535506Y-72919463D01*
X105438815Y-72998815D01*
X105410000Y-73033926D01*
X105381185Y-72998815D01*
X105284494Y-72919463D01*
X105174180Y-72860498D01*
X105054482Y-72824188D01*
X104930000Y-72811928D01*
X104030000Y-72811928D01*
X103905518Y-72824188D01*
X103785820Y-72860498D01*
X103760000Y-72874299D01*
X103734180Y-72860498D01*
X103614482Y-72824188D01*
X103490000Y-72811928D01*
X102590000Y-72811928D01*
X102465518Y-72824188D01*
X102345820Y-72860498D01*
X102320000Y-72874299D01*
X102294180Y-72860498D01*
X102174482Y-72824188D01*
X102050000Y-72811928D01*
X101150000Y-72811928D01*
X101025518Y-72824188D01*
X100905820Y-72860498D01*
X100880000Y-72874299D01*
X100854180Y-72860498D01*
X100734482Y-72824188D01*
X100610000Y-72811928D01*
X99710000Y-72811928D01*
X99585518Y-72824188D01*
X99465820Y-72860498D01*
X99440000Y-72874299D01*
X99414180Y-72860498D01*
X99294482Y-72824188D01*
X99170000Y-72811928D01*
X98270000Y-72811928D01*
X98145518Y-72824188D01*
X98025820Y-72860498D01*
X97915506Y-72919463D01*
X97818815Y-72998815D01*
X97739463Y-73095506D01*
X97680498Y-73205820D01*
X97644188Y-73325518D01*
X97631928Y-73450000D01*
X56540000Y-73450000D01*
X56540000Y-63523920D01*
X56557707Y-63279872D01*
X61265000Y-63279872D01*
X61265000Y-63720128D01*
X61350890Y-64151925D01*
X61519369Y-64558669D01*
X61763962Y-64924729D01*
X62075271Y-65236038D01*
X62441331Y-65480631D01*
X62848075Y-65649110D01*
X63279872Y-65735000D01*
X63720128Y-65735000D01*
X64151925Y-65649110D01*
X64558669Y-65480631D01*
X64924729Y-65236038D01*
X65236038Y-64924729D01*
X65480631Y-64558669D01*
X65649110Y-64151925D01*
X65735000Y-63720128D01*
X65735000Y-63279872D01*
X65649110Y-62848075D01*
X65480631Y-62441331D01*
X65295993Y-62165000D01*
X69111928Y-62165000D01*
X69111928Y-63915000D01*
X69141001Y-64210186D01*
X69227104Y-64494028D01*
X69366927Y-64755618D01*
X69555097Y-64984903D01*
X69784382Y-65173073D01*
X70045972Y-65312896D01*
X70329814Y-65398999D01*
X70625000Y-65428072D01*
X72375000Y-65428072D01*
X72670186Y-65398999D01*
X72954028Y-65312896D01*
X73215618Y-65173073D01*
X73444903Y-64984903D01*
X73633073Y-64755618D01*
X73772896Y-64494028D01*
X73811928Y-64365357D01*
X73811928Y-67790000D01*
X73824188Y-67914482D01*
X73860498Y-68034180D01*
X73919463Y-68144494D01*
X73998815Y-68241185D01*
X74095506Y-68320537D01*
X74205820Y-68379502D01*
X74325518Y-68415812D01*
X74450000Y-68428072D01*
X77950000Y-68428072D01*
X78074482Y-68415812D01*
X78194180Y-68379502D01*
X78304494Y-68320537D01*
X78401185Y-68241185D01*
X78480537Y-68144494D01*
X78539502Y-68034180D01*
X78575812Y-67914482D01*
X78588072Y-67790000D01*
X78588072Y-64290000D01*
X78575812Y-64165518D01*
X78539502Y-64045820D01*
X78480537Y-63935506D01*
X78401185Y-63838815D01*
X78304494Y-63759463D01*
X78194180Y-63700498D01*
X78074482Y-63664188D01*
X77950000Y-63651928D01*
X74450000Y-63651928D01*
X74325518Y-63664188D01*
X74205820Y-63700498D01*
X74095506Y-63759463D01*
X73998815Y-63838815D01*
X73919463Y-63935506D01*
X73878506Y-64012131D01*
X73888072Y-63915000D01*
X73888072Y-63450000D01*
X97631928Y-63450000D01*
X97631928Y-66250000D01*
X97644188Y-66374482D01*
X97680498Y-66494180D01*
X97739463Y-66604494D01*
X97818815Y-66701185D01*
X97915506Y-66780537D01*
X98025820Y-66839502D01*
X98145518Y-66875812D01*
X98270000Y-66888072D01*
X99170000Y-66888072D01*
X99294482Y-66875812D01*
X99414180Y-66839502D01*
X99440000Y-66825701D01*
X99465820Y-66839502D01*
X99585518Y-66875812D01*
X99710000Y-66888072D01*
X100610000Y-66888072D01*
X100734482Y-66875812D01*
X100854180Y-66839502D01*
X100880000Y-66825701D01*
X100905820Y-66839502D01*
X101025518Y-66875812D01*
X101150000Y-66888072D01*
X102050000Y-66888072D01*
X102174482Y-66875812D01*
X102294180Y-66839502D01*
X102320000Y-66825701D01*
X102345820Y-66839502D01*
X102465518Y-66875812D01*
X102590000Y-66888072D01*
X103490000Y-66888072D01*
X103614482Y-66875812D01*
X103734180Y-66839502D01*
X103760000Y-66825701D01*
X103785820Y-66839502D01*
X103905518Y-66875812D01*
X104030000Y-66888072D01*
X104930000Y-66888072D01*
X105054482Y-66875812D01*
X105174180Y-66839502D01*
X105284494Y-66780537D01*
X105381185Y-66701185D01*
X105410000Y-66666074D01*
X105438815Y-66701185D01*
X105535506Y-66780537D01*
X105645820Y-66839502D01*
X105765518Y-66875812D01*
X105890000Y-66888072D01*
X106790000Y-66888072D01*
X106914482Y-66875812D01*
X107034180Y-66839502D01*
X107060000Y-66825701D01*
X107085820Y-66839502D01*
X107205518Y-66875812D01*
X107330000Y-66888072D01*
X108230000Y-66888072D01*
X108354482Y-66875812D01*
X108474180Y-66839502D01*
X108500000Y-66825701D01*
X108525820Y-66839502D01*
X108645518Y-66875812D01*
X108770000Y-66888072D01*
X109670000Y-66888072D01*
X109794482Y-66875812D01*
X109914180Y-66839502D01*
X109940000Y-66825701D01*
X109965820Y-66839502D01*
X110085518Y-66875812D01*
X110210000Y-66888072D01*
X111110000Y-66888072D01*
X111234482Y-66875812D01*
X111354180Y-66839502D01*
X111380000Y-66825701D01*
X111405820Y-66839502D01*
X111525518Y-66875812D01*
X111650000Y-66888072D01*
X112550000Y-66888072D01*
X112674482Y-66875812D01*
X112794180Y-66839502D01*
X112904494Y-66780537D01*
X113001185Y-66701185D01*
X113030000Y-66666074D01*
X113058815Y-66701185D01*
X113155506Y-66780537D01*
X113265820Y-66839502D01*
X113385518Y-66875812D01*
X113510000Y-66888072D01*
X114410000Y-66888072D01*
X114534482Y-66875812D01*
X114654180Y-66839502D01*
X114680000Y-66825701D01*
X114705820Y-66839502D01*
X114825518Y-66875812D01*
X114950000Y-66888072D01*
X115850000Y-66888072D01*
X115974482Y-66875812D01*
X116094180Y-66839502D01*
X116120000Y-66825701D01*
X116145820Y-66839502D01*
X116265518Y-66875812D01*
X116390000Y-66888072D01*
X117290000Y-66888072D01*
X117414482Y-66875812D01*
X117534180Y-66839502D01*
X117560000Y-66825701D01*
X117585820Y-66839502D01*
X117705518Y-66875812D01*
X117830000Y-66888072D01*
X118730000Y-66888072D01*
X118854482Y-66875812D01*
X118974180Y-66839502D01*
X119000000Y-66825701D01*
X119025820Y-66839502D01*
X119145518Y-66875812D01*
X119270000Y-66888072D01*
X120170000Y-66888072D01*
X120294482Y-66875812D01*
X120414180Y-66839502D01*
X120524494Y-66780537D01*
X120621185Y-66701185D01*
X120650000Y-66666074D01*
X120678815Y-66701185D01*
X120775506Y-66780537D01*
X120885820Y-66839502D01*
X121005518Y-66875812D01*
X121130000Y-66888072D01*
X122030000Y-66888072D01*
X122154482Y-66875812D01*
X122274180Y-66839502D01*
X122300000Y-66825701D01*
X122325820Y-66839502D01*
X122445518Y-66875812D01*
X122570000Y-66888072D01*
X123470000Y-66888072D01*
X123594482Y-66875812D01*
X123714180Y-66839502D01*
X123740000Y-66825701D01*
X123765820Y-66839502D01*
X123885518Y-66875812D01*
X124010000Y-66888072D01*
X124910000Y-66888072D01*
X125034482Y-66875812D01*
X125154180Y-66839502D01*
X125180000Y-66825701D01*
X125205820Y-66839502D01*
X125325518Y-66875812D01*
X125450000Y-66888072D01*
X126350000Y-66888072D01*
X126474482Y-66875812D01*
X126594180Y-66839502D01*
X126620000Y-66825701D01*
X126645820Y-66839502D01*
X126765518Y-66875812D01*
X126890000Y-66888072D01*
X127790000Y-66888072D01*
X127914482Y-66875812D01*
X128034180Y-66839502D01*
X128144494Y-66780537D01*
X128241185Y-66701185D01*
X128320537Y-66604494D01*
X128379502Y-66494180D01*
X128415812Y-66374482D01*
X128428072Y-66250000D01*
X128428072Y-63450000D01*
X128415812Y-63325518D01*
X128401966Y-63279872D01*
X137465000Y-63279872D01*
X137465000Y-63720128D01*
X137550890Y-64151925D01*
X137719369Y-64558669D01*
X137963962Y-64924729D01*
X138275271Y-65236038D01*
X138641331Y-65480631D01*
X139048075Y-65649110D01*
X139479872Y-65735000D01*
X139920128Y-65735000D01*
X140351925Y-65649110D01*
X140758669Y-65480631D01*
X141124729Y-65236038D01*
X141436038Y-64924729D01*
X141680631Y-64558669D01*
X141849110Y-64151925D01*
X141935000Y-63720128D01*
X141935000Y-63279872D01*
X141849110Y-62848075D01*
X141680631Y-62441331D01*
X141436038Y-62075271D01*
X141124729Y-61763962D01*
X140758669Y-61519369D01*
X140351925Y-61350890D01*
X139920128Y-61265000D01*
X139479872Y-61265000D01*
X139048075Y-61350890D01*
X138641331Y-61519369D01*
X138275271Y-61763962D01*
X137963962Y-62075271D01*
X137719369Y-62441331D01*
X137550890Y-62848075D01*
X137465000Y-63279872D01*
X128401966Y-63279872D01*
X128379502Y-63205820D01*
X128320537Y-63095506D01*
X128241185Y-62998815D01*
X128144494Y-62919463D01*
X128034180Y-62860498D01*
X127914482Y-62824188D01*
X127790000Y-62811928D01*
X126890000Y-62811928D01*
X126765518Y-62824188D01*
X126645820Y-62860498D01*
X126620000Y-62874299D01*
X126594180Y-62860498D01*
X126474482Y-62824188D01*
X126350000Y-62811928D01*
X125450000Y-62811928D01*
X125325518Y-62824188D01*
X125205820Y-62860498D01*
X125180000Y-62874299D01*
X125154180Y-62860498D01*
X125034482Y-62824188D01*
X124910000Y-62811928D01*
X124010000Y-62811928D01*
X123885518Y-62824188D01*
X123765820Y-62860498D01*
X123740000Y-62874299D01*
X123714180Y-62860498D01*
X123594482Y-62824188D01*
X123470000Y-62811928D01*
X122570000Y-62811928D01*
X122445518Y-62824188D01*
X122325820Y-62860498D01*
X122300000Y-62874299D01*
X122274180Y-62860498D01*
X122154482Y-62824188D01*
X122030000Y-62811928D01*
X121130000Y-62811928D01*
X121005518Y-62824188D01*
X120885820Y-62860498D01*
X120775506Y-62919463D01*
X120678815Y-62998815D01*
X120650000Y-63033926D01*
X120621185Y-62998815D01*
X120524494Y-62919463D01*
X120414180Y-62860498D01*
X120294482Y-62824188D01*
X120170000Y-62811928D01*
X119270000Y-62811928D01*
X119145518Y-62824188D01*
X119025820Y-62860498D01*
X119000000Y-62874299D01*
X118974180Y-62860498D01*
X118854482Y-62824188D01*
X118730000Y-62811928D01*
X117830000Y-62811928D01*
X117705518Y-62824188D01*
X117585820Y-62860498D01*
X117560000Y-62874299D01*
X117534180Y-62860498D01*
X117414482Y-62824188D01*
X117290000Y-62811928D01*
X116390000Y-62811928D01*
X116265518Y-62824188D01*
X116145820Y-62860498D01*
X116120000Y-62874299D01*
X116094180Y-62860498D01*
X115974482Y-62824188D01*
X115850000Y-62811928D01*
X114950000Y-62811928D01*
X114825518Y-62824188D01*
X114705820Y-62860498D01*
X114680000Y-62874299D01*
X114654180Y-62860498D01*
X114534482Y-62824188D01*
X114410000Y-62811928D01*
X113510000Y-62811928D01*
X113385518Y-62824188D01*
X113265820Y-62860498D01*
X113155506Y-62919463D01*
X113058815Y-62998815D01*
X113030000Y-63033926D01*
X113001185Y-62998815D01*
X112904494Y-62919463D01*
X112794180Y-62860498D01*
X112674482Y-62824188D01*
X112550000Y-62811928D01*
X111650000Y-62811928D01*
X111525518Y-62824188D01*
X111405820Y-62860498D01*
X111380000Y-62874299D01*
X111354180Y-62860498D01*
X111234482Y-62824188D01*
X111110000Y-62811928D01*
X110210000Y-62811928D01*
X110085518Y-62824188D01*
X109965820Y-62860498D01*
X109940000Y-62874299D01*
X109914180Y-62860498D01*
X109794482Y-62824188D01*
X109670000Y-62811928D01*
X108770000Y-62811928D01*
X108645518Y-62824188D01*
X108525820Y-62860498D01*
X108500000Y-62874299D01*
X108474180Y-62860498D01*
X108354482Y-62824188D01*
X108230000Y-62811928D01*
X107330000Y-62811928D01*
X107205518Y-62824188D01*
X107085820Y-62860498D01*
X107060000Y-62874299D01*
X107034180Y-62860498D01*
X106914482Y-62824188D01*
X106790000Y-62811928D01*
X105890000Y-62811928D01*
X105765518Y-62824188D01*
X105645820Y-62860498D01*
X105535506Y-62919463D01*
X105438815Y-62998815D01*
X105410000Y-63033926D01*
X105381185Y-62998815D01*
X105284494Y-62919463D01*
X105174180Y-62860498D01*
X105054482Y-62824188D01*
X104930000Y-62811928D01*
X104030000Y-62811928D01*
X103905518Y-62824188D01*
X103785820Y-62860498D01*
X103760000Y-62874299D01*
X103734180Y-62860498D01*
X103614482Y-62824188D01*
X103490000Y-62811928D01*
X102590000Y-62811928D01*
X102465518Y-62824188D01*
X102345820Y-62860498D01*
X102320000Y-62874299D01*
X102294180Y-62860498D01*
X102174482Y-62824188D01*
X102050000Y-62811928D01*
X101150000Y-62811928D01*
X101025518Y-62824188D01*
X100905820Y-62860498D01*
X100880000Y-62874299D01*
X100854180Y-62860498D01*
X100734482Y-62824188D01*
X100610000Y-62811928D01*
X99710000Y-62811928D01*
X99585518Y-62824188D01*
X99465820Y-62860498D01*
X99440000Y-62874299D01*
X99414180Y-62860498D01*
X99294482Y-62824188D01*
X99170000Y-62811928D01*
X98270000Y-62811928D01*
X98145518Y-62824188D01*
X98025820Y-62860498D01*
X97915506Y-62919463D01*
X97818815Y-62998815D01*
X97739463Y-63095506D01*
X97680498Y-63205820D01*
X97644188Y-63325518D01*
X97631928Y-63450000D01*
X73888072Y-63450000D01*
X73888072Y-62165000D01*
X73858999Y-61869814D01*
X73772896Y-61585972D01*
X73748324Y-61540000D01*
X73811928Y-61540000D01*
X73824188Y-61664482D01*
X73860498Y-61784180D01*
X73919463Y-61894494D01*
X73998815Y-61991185D01*
X74095506Y-62070537D01*
X74205820Y-62129502D01*
X74325518Y-62165812D01*
X74450000Y-62178072D01*
X75914250Y-62175000D01*
X76073000Y-62016250D01*
X76073000Y-60167000D01*
X76327000Y-60167000D01*
X76327000Y-62016250D01*
X76485750Y-62175000D01*
X77950000Y-62178072D01*
X78074482Y-62165812D01*
X78194180Y-62129502D01*
X78304494Y-62070537D01*
X78401185Y-61991185D01*
X78480537Y-61894494D01*
X78539502Y-61784180D01*
X78575812Y-61664482D01*
X78588072Y-61540000D01*
X78585000Y-60325750D01*
X78426250Y-60167000D01*
X76327000Y-60167000D01*
X76073000Y-60167000D01*
X73973750Y-60167000D01*
X73815000Y-60325750D01*
X73811928Y-61540000D01*
X73748324Y-61540000D01*
X73633073Y-61324382D01*
X73444903Y-61095097D01*
X73215618Y-60906927D01*
X72954028Y-60767104D01*
X72670186Y-60681001D01*
X72375000Y-60651928D01*
X70625000Y-60651928D01*
X70329814Y-60681001D01*
X70045972Y-60767104D01*
X69784382Y-60906927D01*
X69555097Y-61095097D01*
X69366927Y-61324382D01*
X69227104Y-61585972D01*
X69141001Y-61869814D01*
X69111928Y-62165000D01*
X65295993Y-62165000D01*
X65236038Y-62075271D01*
X64924729Y-61763962D01*
X64558669Y-61519369D01*
X64151925Y-61350890D01*
X63720128Y-61265000D01*
X63279872Y-61265000D01*
X62848075Y-61350890D01*
X62441331Y-61519369D01*
X62075271Y-61763962D01*
X61763962Y-62075271D01*
X61519369Y-62441331D01*
X61350890Y-62848075D01*
X61265000Y-63279872D01*
X56557707Y-63279872D01*
X56614617Y-62495530D01*
X56831739Y-61512102D01*
X57188546Y-60570325D01*
X57677575Y-59689905D01*
X58288569Y-58889313D01*
X58645898Y-58540000D01*
X73811928Y-58540000D01*
X73815000Y-59754250D01*
X73973750Y-59913000D01*
X76073000Y-59913000D01*
X76073000Y-58063750D01*
X76327000Y-58063750D01*
X76327000Y-59913000D01*
X78426250Y-59913000D01*
X78585000Y-59754250D01*
X78588072Y-58540000D01*
X78575812Y-58415518D01*
X78539502Y-58295820D01*
X78480537Y-58185506D01*
X78401185Y-58088815D01*
X78304494Y-58009463D01*
X78194180Y-57950498D01*
X78074482Y-57914188D01*
X77950000Y-57901928D01*
X76485750Y-57905000D01*
X76327000Y-58063750D01*
X76073000Y-58063750D01*
X75914250Y-57905000D01*
X74450000Y-57901928D01*
X74325518Y-57914188D01*
X74205820Y-57950498D01*
X74095506Y-58009463D01*
X73998815Y-58088815D01*
X73919463Y-58185506D01*
X73860498Y-58295820D01*
X73824188Y-58415518D01*
X73811928Y-58540000D01*
X58645898Y-58540000D01*
X59008732Y-58185306D01*
X59822987Y-57592630D01*
X60714269Y-57123704D01*
X61663900Y-56788353D01*
X62655692Y-56592873D01*
X63520164Y-56540000D01*
X139676080Y-56540000D01*
X140704470Y-56614617D01*
G37*
%TD.AperFunction*%
%TD*%
M02*
