%TF.GenerationSoftware,KiCad,Pcbnew,5.1.8+dfsg1-1+b1*%
%TF.CreationDate,2021-05-03T13:46:57-05:00*%
%TF.ProjectId,fram-prototype,6672616d-2d70-4726-9f74-6f747970652e,A*%
%TF.SameCoordinates,Original*%
%TF.FileFunction,Legend,Bot*%
%TF.FilePolarity,Positive*%
%FSLAX46Y46*%
G04 Gerber Fmt 4.6, Leading zero omitted, Abs format (unit mm)*
G04 Created by KiCad (PCBNEW 5.1.8+dfsg1-1+b1) date 2021-05-03 13:46:57*
%MOMM*%
%LPD*%
G01*
G04 APERTURE LIST*
%ADD10C,0.150000*%
G04 APERTURE END LIST*
D10*
X137978571Y-69866666D02*
X138026190Y-70009523D01*
X138073809Y-70057142D01*
X138169047Y-70104761D01*
X138311904Y-70104761D01*
X138407142Y-70057142D01*
X138454761Y-70009523D01*
X138502380Y-69914285D01*
X138502380Y-69533333D01*
X137502380Y-69533333D01*
X137502380Y-69866666D01*
X137550000Y-69961904D01*
X137597619Y-70009523D01*
X137692857Y-70057142D01*
X137788095Y-70057142D01*
X137883333Y-70009523D01*
X137930952Y-69961904D01*
X137978571Y-69866666D01*
X137978571Y-69533333D01*
X138502380Y-71009523D02*
X138502380Y-70533333D01*
X137502380Y-70533333D01*
X138216666Y-71295238D02*
X138216666Y-71771428D01*
X138502380Y-71200000D02*
X137502380Y-71533333D01*
X138502380Y-71866666D01*
X138502380Y-72200000D02*
X137502380Y-72200000D01*
X138454761Y-72628571D02*
X138502380Y-72771428D01*
X138502380Y-73009523D01*
X138454761Y-73104761D01*
X138407142Y-73152380D01*
X138311904Y-73200000D01*
X138216666Y-73200000D01*
X138121428Y-73152380D01*
X138073809Y-73104761D01*
X138026190Y-73009523D01*
X137978571Y-72819047D01*
X137930952Y-72723809D01*
X137883333Y-72676190D01*
X137788095Y-72628571D01*
X137692857Y-72628571D01*
X137597619Y-72676190D01*
X137550000Y-72723809D01*
X137502380Y-72819047D01*
X137502380Y-73057142D01*
X137550000Y-73200000D01*
X137978571Y-73628571D02*
X137978571Y-73961904D01*
X138502380Y-74104761D02*
X138502380Y-73628571D01*
X137502380Y-73628571D01*
X137502380Y-74104761D01*
X137502380Y-75152380D02*
X137502380Y-75723809D01*
X138502380Y-75438095D02*
X137502380Y-75438095D01*
X138502380Y-76057142D02*
X137502380Y-76057142D01*
X137978571Y-76057142D02*
X137978571Y-76628571D01*
X138502380Y-76628571D02*
X137502380Y-76628571D01*
X137502380Y-77295238D02*
X137502380Y-77485714D01*
X137550000Y-77580952D01*
X137645238Y-77676190D01*
X137835714Y-77723809D01*
X138169047Y-77723809D01*
X138359523Y-77676190D01*
X138454761Y-77580952D01*
X138502380Y-77485714D01*
X138502380Y-77295238D01*
X138454761Y-77200000D01*
X138359523Y-77104761D01*
X138169047Y-77057142D01*
X137835714Y-77057142D01*
X137645238Y-77104761D01*
X137550000Y-77200000D01*
X137502380Y-77295238D01*
X138502380Y-78152380D02*
X137502380Y-78152380D01*
X138216666Y-78485714D01*
X137502380Y-78819047D01*
X138502380Y-78819047D01*
X138502380Y-79295238D02*
X137502380Y-79295238D01*
X137502380Y-79676190D01*
X137550000Y-79771428D01*
X137597619Y-79819047D01*
X137692857Y-79866666D01*
X137835714Y-79866666D01*
X137930952Y-79819047D01*
X137978571Y-79771428D01*
X138026190Y-79676190D01*
X138026190Y-79295238D01*
X138454761Y-80247619D02*
X138502380Y-80390476D01*
X138502380Y-80628571D01*
X138454761Y-80723809D01*
X138407142Y-80771428D01*
X138311904Y-80819047D01*
X138216666Y-80819047D01*
X138121428Y-80771428D01*
X138073809Y-80723809D01*
X138026190Y-80628571D01*
X137978571Y-80438095D01*
X137930952Y-80342857D01*
X137883333Y-80295238D01*
X137788095Y-80247619D01*
X137692857Y-80247619D01*
X137597619Y-80295238D01*
X137550000Y-80342857D01*
X137502380Y-80438095D01*
X137502380Y-80676190D01*
X137550000Y-80819047D01*
X137502380Y-81438095D02*
X137502380Y-81628571D01*
X137550000Y-81723809D01*
X137645238Y-81819047D01*
X137835714Y-81866666D01*
X138169047Y-81866666D01*
X138359523Y-81819047D01*
X138454761Y-81723809D01*
X138502380Y-81628571D01*
X138502380Y-81438095D01*
X138454761Y-81342857D01*
X138359523Y-81247619D01*
X138169047Y-81200000D01*
X137835714Y-81200000D01*
X137645238Y-81247619D01*
X137550000Y-81342857D01*
X137502380Y-81438095D01*
X138502380Y-82295238D02*
X137502380Y-82295238D01*
X138502380Y-82866666D01*
X137502380Y-82866666D01*
X139152380Y-71700000D02*
X139961904Y-71700000D01*
X140057142Y-71747619D01*
X140104761Y-71795238D01*
X140152380Y-71890476D01*
X140152380Y-72080952D01*
X140104761Y-72176190D01*
X140057142Y-72223809D01*
X139961904Y-72271428D01*
X139152380Y-72271428D01*
X139152380Y-72652380D02*
X140152380Y-72890476D01*
X139438095Y-73080952D01*
X140152380Y-73271428D01*
X139152380Y-73509523D01*
X140152380Y-74652380D02*
X139152380Y-74652380D01*
X139866666Y-74985714D01*
X139152380Y-75319047D01*
X140152380Y-75319047D01*
X139866666Y-75747619D02*
X139866666Y-76223809D01*
X140152380Y-75652380D02*
X139152380Y-75985714D01*
X140152380Y-76319047D01*
X140152380Y-76652380D02*
X139152380Y-76652380D01*
X139152380Y-76890476D01*
X139200000Y-77033333D01*
X139295238Y-77128571D01*
X139390476Y-77176190D01*
X139580952Y-77223809D01*
X139723809Y-77223809D01*
X139914285Y-77176190D01*
X140009523Y-77128571D01*
X140104761Y-77033333D01*
X140152380Y-76890476D01*
X140152380Y-76652380D01*
X140152380Y-77652380D02*
X139152380Y-77652380D01*
X140104761Y-78080952D02*
X140152380Y-78223809D01*
X140152380Y-78461904D01*
X140104761Y-78557142D01*
X140057142Y-78604761D01*
X139961904Y-78652380D01*
X139866666Y-78652380D01*
X139771428Y-78604761D01*
X139723809Y-78557142D01*
X139676190Y-78461904D01*
X139628571Y-78271428D01*
X139580952Y-78176190D01*
X139533333Y-78128571D01*
X139438095Y-78080952D01*
X139342857Y-78080952D01*
X139247619Y-78128571D01*
X139200000Y-78176190D01*
X139152380Y-78271428D01*
X139152380Y-78509523D01*
X139200000Y-78652380D01*
X139152380Y-79271428D02*
X139152380Y-79461904D01*
X139200000Y-79557142D01*
X139295238Y-79652380D01*
X139485714Y-79700000D01*
X139819047Y-79700000D01*
X140009523Y-79652380D01*
X140104761Y-79557142D01*
X140152380Y-79461904D01*
X140152380Y-79271428D01*
X140104761Y-79176190D01*
X140009523Y-79080952D01*
X139819047Y-79033333D01*
X139485714Y-79033333D01*
X139295238Y-79080952D01*
X139200000Y-79176190D01*
X139152380Y-79271428D01*
X140152380Y-80128571D02*
X139152380Y-80128571D01*
X140152380Y-80700000D01*
X139152380Y-80700000D01*
X141802380Y-69461904D02*
X140802380Y-69461904D01*
X141802380Y-69938095D02*
X140802380Y-69938095D01*
X141802380Y-70509523D01*
X140802380Y-70509523D01*
X141754761Y-70938095D02*
X141802380Y-71080952D01*
X141802380Y-71319047D01*
X141754761Y-71414285D01*
X141707142Y-71461904D01*
X141611904Y-71509523D01*
X141516666Y-71509523D01*
X141421428Y-71461904D01*
X141373809Y-71414285D01*
X141326190Y-71319047D01*
X141278571Y-71128571D01*
X141230952Y-71033333D01*
X141183333Y-70985714D01*
X141088095Y-70938095D01*
X140992857Y-70938095D01*
X140897619Y-70985714D01*
X140850000Y-71033333D01*
X140802380Y-71128571D01*
X140802380Y-71366666D01*
X140850000Y-71509523D01*
X140802380Y-71795238D02*
X140802380Y-72366666D01*
X141802380Y-72080952D02*
X140802380Y-72080952D01*
X141802380Y-73271428D02*
X141326190Y-72938095D01*
X141802380Y-72700000D02*
X140802380Y-72700000D01*
X140802380Y-73080952D01*
X140850000Y-73176190D01*
X140897619Y-73223809D01*
X140992857Y-73271428D01*
X141135714Y-73271428D01*
X141230952Y-73223809D01*
X141278571Y-73176190D01*
X141326190Y-73080952D01*
X141326190Y-72700000D01*
X140802380Y-73700000D02*
X141611904Y-73700000D01*
X141707142Y-73747619D01*
X141754761Y-73795238D01*
X141802380Y-73890476D01*
X141802380Y-74080952D01*
X141754761Y-74176190D01*
X141707142Y-74223809D01*
X141611904Y-74271428D01*
X140802380Y-74271428D01*
X141802380Y-74747619D02*
X140802380Y-74747619D01*
X141516666Y-75080952D01*
X140802380Y-75414285D01*
X141802380Y-75414285D01*
X141278571Y-75890476D02*
X141278571Y-76223809D01*
X141802380Y-76366666D02*
X141802380Y-75890476D01*
X140802380Y-75890476D01*
X140802380Y-76366666D01*
X141802380Y-76795238D02*
X140802380Y-76795238D01*
X141802380Y-77366666D01*
X140802380Y-77366666D01*
X140802380Y-77700000D02*
X140802380Y-78271428D01*
X141802380Y-77985714D02*
X140802380Y-77985714D01*
X141754761Y-79319047D02*
X141802380Y-79461904D01*
X141802380Y-79700000D01*
X141754761Y-79795238D01*
X141707142Y-79842857D01*
X141611904Y-79890476D01*
X141516666Y-79890476D01*
X141421428Y-79842857D01*
X141373809Y-79795238D01*
X141326190Y-79700000D01*
X141278571Y-79509523D01*
X141230952Y-79414285D01*
X141183333Y-79366666D01*
X141088095Y-79319047D01*
X140992857Y-79319047D01*
X140897619Y-79366666D01*
X140850000Y-79414285D01*
X140802380Y-79509523D01*
X140802380Y-79747619D01*
X140850000Y-79890476D01*
X141802380Y-80319047D02*
X140802380Y-80319047D01*
X141278571Y-80319047D02*
X141278571Y-80890476D01*
X141802380Y-80890476D02*
X140802380Y-80890476D01*
X140802380Y-81557142D02*
X140802380Y-81747619D01*
X140850000Y-81842857D01*
X140945238Y-81938095D01*
X141135714Y-81985714D01*
X141469047Y-81985714D01*
X141659523Y-81938095D01*
X141754761Y-81842857D01*
X141802380Y-81747619D01*
X141802380Y-81557142D01*
X141754761Y-81461904D01*
X141659523Y-81366666D01*
X141469047Y-81319047D01*
X141135714Y-81319047D01*
X140945238Y-81366666D01*
X140850000Y-81461904D01*
X140802380Y-81557142D01*
X141802380Y-82414285D02*
X140802380Y-82414285D01*
X140802380Y-82795238D01*
X140850000Y-82890476D01*
X140897619Y-82938095D01*
X140992857Y-82985714D01*
X141135714Y-82985714D01*
X141230952Y-82938095D01*
X141278571Y-82890476D01*
X141326190Y-82795238D01*
X141326190Y-82414285D01*
M02*
